G04 #@! TF.GenerationSoftware,KiCad,Pcbnew,(5.0.2)-1*
G04 #@! TF.CreationDate,2020-01-05T18:08:36+01:00*
G04 #@! TF.ProjectId,EleLab_v2_Frontpanel_a,456c654c-6162-45f7-9632-5f46726f6e74,rev?*
G04 #@! TF.SameCoordinates,Original*
G04 #@! TF.FileFunction,Copper,L2,Bot*
G04 #@! TF.FilePolarity,Positive*
%FSLAX46Y46*%
G04 Gerber Fmt 4.6, Leading zero omitted, Abs format (unit mm)*
G04 Created by KiCad (PCBNEW (5.0.2)-1) date 05/01/2020 18:08:36*
%MOMM*%
%LPD*%
G01*
G04 APERTURE LIST*
G04 #@! TA.AperFunction,ComponentPad*
%ADD10O,2.080000X3.600000*%
G04 #@! TD*
G04 #@! TA.AperFunction,Conductor*
%ADD11C,0.100000*%
G04 #@! TD*
G04 #@! TA.AperFunction,ComponentPad*
%ADD12C,2.080000*%
G04 #@! TD*
G04 #@! TA.AperFunction,ComponentPad*
%ADD13C,1.500000*%
G04 #@! TD*
G04 #@! TA.AperFunction,ComponentPad*
%ADD14C,2.000000*%
G04 #@! TD*
G04 #@! TA.AperFunction,ComponentPad*
%ADD15R,1.700000X1.700000*%
G04 #@! TD*
G04 #@! TA.AperFunction,ComponentPad*
%ADD16C,1.600000*%
G04 #@! TD*
G04 #@! TA.AperFunction,ComponentPad*
%ADD17O,1.600000X1.600000*%
G04 #@! TD*
G04 #@! TA.AperFunction,Conductor*
%ADD18C,2.000000*%
G04 #@! TD*
G04 #@! TA.AperFunction,Conductor*
%ADD19C,0.400000*%
G04 #@! TD*
G04 #@! TA.AperFunction,NonConductor*
%ADD20C,0.254000*%
G04 #@! TD*
G04 APERTURE END LIST*
D10*
G04 #@! TO.P,J1,4*
G04 #@! TO.N,Net-(J1-Pad4)*
X96425000Y-95000000D03*
G04 #@! TO.P,J1,3*
G04 #@! TO.N,Net-(J1-Pad3)*
X91345000Y-95000000D03*
G04 #@! TO.P,J1,2*
G04 #@! TO.N,Net-(J1-Pad2)*
X86265000Y-95000000D03*
D11*
G04 #@! TD*
G04 #@! TO.N,Net-(J1-Pad1)*
G04 #@! TO.C,J1*
G36*
X81999505Y-93201204D02*
X82023773Y-93204804D01*
X82047572Y-93210765D01*
X82070671Y-93219030D01*
X82092850Y-93229520D01*
X82113893Y-93242132D01*
X82133599Y-93256747D01*
X82151777Y-93273223D01*
X82168253Y-93291401D01*
X82182868Y-93311107D01*
X82195480Y-93332150D01*
X82205970Y-93354329D01*
X82214235Y-93377428D01*
X82220196Y-93401227D01*
X82223796Y-93425495D01*
X82225000Y-93449999D01*
X82225000Y-96550001D01*
X82223796Y-96574505D01*
X82220196Y-96598773D01*
X82214235Y-96622572D01*
X82205970Y-96645671D01*
X82195480Y-96667850D01*
X82182868Y-96688893D01*
X82168253Y-96708599D01*
X82151777Y-96726777D01*
X82133599Y-96743253D01*
X82113893Y-96757868D01*
X82092850Y-96770480D01*
X82070671Y-96780970D01*
X82047572Y-96789235D01*
X82023773Y-96795196D01*
X81999505Y-96798796D01*
X81975001Y-96800000D01*
X80394999Y-96800000D01*
X80370495Y-96798796D01*
X80346227Y-96795196D01*
X80322428Y-96789235D01*
X80299329Y-96780970D01*
X80277150Y-96770480D01*
X80256107Y-96757868D01*
X80236401Y-96743253D01*
X80218223Y-96726777D01*
X80201747Y-96708599D01*
X80187132Y-96688893D01*
X80174520Y-96667850D01*
X80164030Y-96645671D01*
X80155765Y-96622572D01*
X80149804Y-96598773D01*
X80146204Y-96574505D01*
X80145000Y-96550001D01*
X80145000Y-93449999D01*
X80146204Y-93425495D01*
X80149804Y-93401227D01*
X80155765Y-93377428D01*
X80164030Y-93354329D01*
X80174520Y-93332150D01*
X80187132Y-93311107D01*
X80201747Y-93291401D01*
X80218223Y-93273223D01*
X80236401Y-93256747D01*
X80256107Y-93242132D01*
X80277150Y-93229520D01*
X80299329Y-93219030D01*
X80322428Y-93210765D01*
X80346227Y-93204804D01*
X80370495Y-93201204D01*
X80394999Y-93200000D01*
X81975001Y-93200000D01*
X81999505Y-93201204D01*
X81999505Y-93201204D01*
G37*
D12*
G04 #@! TO.P,J1,1*
G04 #@! TO.N,Net-(J1-Pad1)*
X81185000Y-95000000D03*
G04 #@! TD*
D11*
G04 #@! TO.N,Net-(J2-Pad1)*
G04 #@! TO.C,J2*
G36*
X107344505Y-93201204D02*
X107368773Y-93204804D01*
X107392572Y-93210765D01*
X107415671Y-93219030D01*
X107437850Y-93229520D01*
X107458893Y-93242132D01*
X107478599Y-93256747D01*
X107496777Y-93273223D01*
X107513253Y-93291401D01*
X107527868Y-93311107D01*
X107540480Y-93332150D01*
X107550970Y-93354329D01*
X107559235Y-93377428D01*
X107565196Y-93401227D01*
X107568796Y-93425495D01*
X107570000Y-93449999D01*
X107570000Y-96550001D01*
X107568796Y-96574505D01*
X107565196Y-96598773D01*
X107559235Y-96622572D01*
X107550970Y-96645671D01*
X107540480Y-96667850D01*
X107527868Y-96688893D01*
X107513253Y-96708599D01*
X107496777Y-96726777D01*
X107478599Y-96743253D01*
X107458893Y-96757868D01*
X107437850Y-96770480D01*
X107415671Y-96780970D01*
X107392572Y-96789235D01*
X107368773Y-96795196D01*
X107344505Y-96798796D01*
X107320001Y-96800000D01*
X105739999Y-96800000D01*
X105715495Y-96798796D01*
X105691227Y-96795196D01*
X105667428Y-96789235D01*
X105644329Y-96780970D01*
X105622150Y-96770480D01*
X105601107Y-96757868D01*
X105581401Y-96743253D01*
X105563223Y-96726777D01*
X105546747Y-96708599D01*
X105532132Y-96688893D01*
X105519520Y-96667850D01*
X105509030Y-96645671D01*
X105500765Y-96622572D01*
X105494804Y-96598773D01*
X105491204Y-96574505D01*
X105490000Y-96550001D01*
X105490000Y-93449999D01*
X105491204Y-93425495D01*
X105494804Y-93401227D01*
X105500765Y-93377428D01*
X105509030Y-93354329D01*
X105519520Y-93332150D01*
X105532132Y-93311107D01*
X105546747Y-93291401D01*
X105563223Y-93273223D01*
X105581401Y-93256747D01*
X105601107Y-93242132D01*
X105622150Y-93229520D01*
X105644329Y-93219030D01*
X105667428Y-93210765D01*
X105691227Y-93204804D01*
X105715495Y-93201204D01*
X105739999Y-93200000D01*
X107320001Y-93200000D01*
X107344505Y-93201204D01*
X107344505Y-93201204D01*
G37*
D12*
G04 #@! TD*
G04 #@! TO.P,J2,1*
G04 #@! TO.N,Net-(J2-Pad1)*
X106530000Y-95000000D03*
D10*
G04 #@! TO.P,J2,2*
G04 #@! TO.N,Net-(J10-Pad1)*
X111610000Y-95000000D03*
G04 #@! TO.P,J2,3*
G04 #@! TO.N,Net-(J11-Pad1)*
X116690000Y-95000000D03*
G04 #@! TO.P,J2,4*
G04 #@! TO.N,Net-(J12-Pad1)*
X121770000Y-95000000D03*
G04 #@! TD*
D13*
G04 #@! TO.P,J3,4*
G04 #@! TO.N,Net-(J16-Pad1)*
X134720000Y-84270000D03*
G04 #@! TO.P,J3,3*
G04 #@! TO.N,Net-(J14-Pad1)*
X134720000Y-86270000D03*
G04 #@! TO.P,J3,2*
G04 #@! TO.N,Net-(J15-Pad1)*
X134720000Y-88270000D03*
G04 #@! TO.P,J3,1*
G04 #@! TO.N,Net-(F1-Pad1)*
X134720000Y-90270000D03*
D14*
G04 #@! TO.P,J3,5*
G04 #@! TO.N,Net-(J16-Pad1)*
X137440000Y-84000000D03*
X132000000Y-84000000D03*
X137440000Y-91000000D03*
X132000000Y-91000000D03*
G04 #@! TD*
G04 #@! TO.P,J4,5*
G04 #@! TO.N,Net-(J20-Pad1)*
X144500000Y-91000000D03*
X149940000Y-91000000D03*
X144500000Y-84000000D03*
X149940000Y-84000000D03*
D13*
G04 #@! TO.P,J4,1*
G04 #@! TO.N,Net-(F2-Pad1)*
X147220000Y-90270000D03*
G04 #@! TO.P,J4,2*
G04 #@! TO.N,Net-(J19-Pad1)*
X147220000Y-88270000D03*
G04 #@! TO.P,J4,3*
G04 #@! TO.N,Net-(J18-Pad1)*
X147220000Y-86270000D03*
G04 #@! TO.P,J4,4*
G04 #@! TO.N,Net-(J20-Pad1)*
X147220000Y-84270000D03*
G04 #@! TD*
D15*
G04 #@! TO.P,J5,1*
G04 #@! TO.N,Net-(J1-Pad1)*
X81185000Y-76200000D03*
G04 #@! TD*
G04 #@! TO.P,J6,1*
G04 #@! TO.N,Net-(J1-Pad2)*
X86265000Y-76200000D03*
G04 #@! TD*
G04 #@! TO.P,J7,1*
G04 #@! TO.N,Net-(J1-Pad3)*
X91345000Y-76200000D03*
G04 #@! TD*
G04 #@! TO.P,J8,1*
G04 #@! TO.N,Net-(J1-Pad4)*
X96425000Y-76200000D03*
G04 #@! TD*
G04 #@! TO.P,J9,1*
G04 #@! TO.N,Net-(J2-Pad1)*
X106530000Y-76200000D03*
G04 #@! TD*
G04 #@! TO.P,J10,1*
G04 #@! TO.N,Net-(J10-Pad1)*
X111610000Y-76200000D03*
G04 #@! TD*
G04 #@! TO.P,J11,1*
G04 #@! TO.N,Net-(J11-Pad1)*
X116690000Y-76200000D03*
G04 #@! TD*
G04 #@! TO.P,J12,1*
G04 #@! TO.N,Net-(J12-Pad1)*
X121770000Y-76200000D03*
G04 #@! TD*
G04 #@! TO.P,J13,1*
G04 #@! TO.N,Net-(F1-Pad2)*
X130930000Y-76200000D03*
G04 #@! TD*
G04 #@! TO.P,J14,1*
G04 #@! TO.N,Net-(J14-Pad1)*
X133470000Y-76200000D03*
G04 #@! TD*
G04 #@! TO.P,J15,1*
G04 #@! TO.N,Net-(J15-Pad1)*
X136010000Y-76200000D03*
G04 #@! TD*
G04 #@! TO.P,J16,1*
G04 #@! TO.N,Net-(J16-Pad1)*
X138550000Y-76200000D03*
G04 #@! TD*
G04 #@! TO.P,J17,1*
G04 #@! TO.N,Net-(F2-Pad2)*
X143416000Y-76200000D03*
G04 #@! TD*
G04 #@! TO.P,J18,1*
G04 #@! TO.N,Net-(J18-Pad1)*
X145956000Y-76200000D03*
G04 #@! TD*
G04 #@! TO.P,J19,1*
G04 #@! TO.N,Net-(J19-Pad1)*
X148496000Y-76200000D03*
G04 #@! TD*
G04 #@! TO.P,J20,1*
G04 #@! TO.N,Net-(J20-Pad1)*
X151036000Y-76200000D03*
G04 #@! TD*
D16*
G04 #@! TO.P,LO_1,2*
G04 #@! TO.N,N/C*
X100534800Y-86835400D03*
D17*
G04 #@! TO.P,LO_1,1*
X100534800Y-79215400D03*
G04 #@! TD*
D18*
G04 #@! TO.N,Net-(J1-Pad4)*
X96425000Y-76200000D02*
X96425000Y-95000000D01*
G04 #@! TO.N,Net-(J1-Pad3)*
X91345000Y-95000000D02*
X91345000Y-76200000D01*
G04 #@! TO.N,Net-(J1-Pad2)*
X86265000Y-76200000D02*
X86265000Y-95000000D01*
G04 #@! TO.N,Net-(J1-Pad1)*
X81185000Y-95000000D02*
X81185000Y-76200000D01*
G04 #@! TO.N,Net-(J2-Pad1)*
X106530000Y-76200000D02*
X106530000Y-95000000D01*
G04 #@! TO.N,Net-(J10-Pad1)*
X111610000Y-95000000D02*
X111610000Y-76200000D01*
G04 #@! TO.N,Net-(J11-Pad1)*
X116690000Y-76200000D02*
X116690000Y-95000000D01*
G04 #@! TO.N,Net-(J12-Pad1)*
X121770000Y-95000000D02*
X121770000Y-76200000D01*
D19*
G04 #@! TO.N,Net-(J16-Pad1)*
X132000000Y-89585787D02*
X132000000Y-84000000D01*
X132000000Y-91000000D02*
X132000000Y-89585787D01*
X136440001Y-91999999D02*
X137440000Y-91000000D01*
X132000000Y-91000000D02*
X132999999Y-91999999D01*
X132999999Y-91999999D02*
X136440001Y-91999999D01*
X137440000Y-84000000D02*
X137440000Y-91000000D01*
X134450000Y-84000000D02*
X134720000Y-84270000D01*
X132000000Y-84000000D02*
X134450000Y-84000000D01*
X134990000Y-84000000D02*
X134720000Y-84270000D01*
X137440000Y-84000000D02*
X134990000Y-84000000D01*
G04 #@! TO.N,Net-(J20-Pad1)*
X146950000Y-84000000D02*
X147220000Y-84270000D01*
X144500000Y-84000000D02*
X146950000Y-84000000D01*
X147490000Y-84000000D02*
X147220000Y-84270000D01*
X149940000Y-84000000D02*
X147490000Y-84000000D01*
X149940000Y-85414213D02*
X149940000Y-91000000D01*
X149940000Y-84000000D02*
X149940000Y-85414213D01*
X148940001Y-91999999D02*
X149940000Y-91000000D01*
X144500000Y-91000000D02*
X145499999Y-91999999D01*
X145499999Y-91999999D02*
X148940001Y-91999999D01*
X144500000Y-84000000D02*
X144500000Y-91000000D01*
G04 #@! TD*
D20*
G36*
X79508884Y-75007812D02*
X79440819Y-75350000D01*
X79440819Y-75431843D01*
X79416906Y-75467631D01*
X79308001Y-76015134D01*
X79308000Y-93162532D01*
X79250819Y-93449999D01*
X79250819Y-96550001D01*
X79337915Y-96987860D01*
X79585942Y-97359058D01*
X79957140Y-97607085D01*
X80394999Y-97694181D01*
X81975001Y-97694181D01*
X82412860Y-97607085D01*
X82784058Y-97359058D01*
X83032085Y-96987860D01*
X83119181Y-96550001D01*
X83119181Y-93449999D01*
X83062000Y-93162532D01*
X83062000Y-76015134D01*
X82953095Y-75467631D01*
X82929181Y-75431841D01*
X82929181Y-75350000D01*
X82861116Y-75007812D01*
X82807119Y-74927000D01*
X84642881Y-74927000D01*
X84588884Y-75007812D01*
X84520819Y-75350000D01*
X84520819Y-75431842D01*
X84496905Y-75467632D01*
X84388000Y-76015135D01*
X84388001Y-93850097D01*
X84348000Y-94051195D01*
X84348000Y-95948806D01*
X84459227Y-96507976D01*
X84882921Y-97142080D01*
X85517025Y-97565774D01*
X86265000Y-97714556D01*
X87012976Y-97565774D01*
X87647080Y-97142080D01*
X88070774Y-96507976D01*
X88182000Y-95948805D01*
X88182000Y-94051194D01*
X88142000Y-93850101D01*
X88142000Y-76015134D01*
X88033095Y-75467631D01*
X88009181Y-75431841D01*
X88009181Y-75350000D01*
X87941116Y-75007812D01*
X87887119Y-74927000D01*
X89722881Y-74927000D01*
X89668884Y-75007812D01*
X89600819Y-75350000D01*
X89600819Y-75431843D01*
X89576906Y-75467631D01*
X89468001Y-76015134D01*
X89468000Y-93850101D01*
X89428000Y-94051195D01*
X89428000Y-95948806D01*
X89539227Y-96507976D01*
X89962921Y-97142080D01*
X90597025Y-97565774D01*
X91345000Y-97714556D01*
X92092976Y-97565774D01*
X92727080Y-97142080D01*
X93150774Y-96507976D01*
X93262000Y-95948805D01*
X93262000Y-94051194D01*
X93222000Y-93850101D01*
X93222000Y-76015134D01*
X93113095Y-75467631D01*
X93089181Y-75431841D01*
X93089181Y-75350000D01*
X93021116Y-75007812D01*
X92967119Y-74927000D01*
X94802881Y-74927000D01*
X94748884Y-75007812D01*
X94680819Y-75350000D01*
X94680819Y-75431842D01*
X94656905Y-75467632D01*
X94548000Y-76015135D01*
X94548001Y-93850097D01*
X94508000Y-94051195D01*
X94508000Y-95948806D01*
X94619227Y-96507976D01*
X95042921Y-97142080D01*
X95677025Y-97565774D01*
X96425000Y-97714556D01*
X97172976Y-97565774D01*
X97807080Y-97142080D01*
X98230774Y-96507976D01*
X98342000Y-95948805D01*
X98342000Y-94051194D01*
X98302000Y-93850101D01*
X98302000Y-86501824D01*
X98857800Y-86501824D01*
X98857800Y-87168976D01*
X99113108Y-87785344D01*
X99584856Y-88257092D01*
X100201224Y-88512400D01*
X100868376Y-88512400D01*
X101484744Y-88257092D01*
X101956492Y-87785344D01*
X102211800Y-87168976D01*
X102211800Y-86501824D01*
X101956492Y-85885456D01*
X101484744Y-85413708D01*
X100868376Y-85158400D01*
X100201224Y-85158400D01*
X99584856Y-85413708D01*
X99113108Y-85885456D01*
X98857800Y-86501824D01*
X98302000Y-86501824D01*
X98302000Y-79215400D01*
X98824946Y-79215400D01*
X98955101Y-79869733D01*
X99325751Y-80424449D01*
X99880467Y-80795099D01*
X100369632Y-80892400D01*
X100699968Y-80892400D01*
X101189133Y-80795099D01*
X101743849Y-80424449D01*
X102114499Y-79869733D01*
X102244654Y-79215400D01*
X102114499Y-78561067D01*
X101743849Y-78006351D01*
X101189133Y-77635701D01*
X100699968Y-77538400D01*
X100369632Y-77538400D01*
X99880467Y-77635701D01*
X99325751Y-78006351D01*
X98955101Y-78561067D01*
X98824946Y-79215400D01*
X98302000Y-79215400D01*
X98302000Y-76015134D01*
X98193095Y-75467631D01*
X98169181Y-75431841D01*
X98169181Y-75350000D01*
X98101116Y-75007812D01*
X98047119Y-74927000D01*
X104907881Y-74927000D01*
X104853884Y-75007812D01*
X104785819Y-75350000D01*
X104785819Y-75431842D01*
X104761905Y-75467632D01*
X104653000Y-76015135D01*
X104653001Y-93162528D01*
X104595819Y-93449999D01*
X104595819Y-96550001D01*
X104682915Y-96987860D01*
X104930942Y-97359058D01*
X105302140Y-97607085D01*
X105739999Y-97694181D01*
X107320001Y-97694181D01*
X107757860Y-97607085D01*
X108129058Y-97359058D01*
X108377085Y-96987860D01*
X108464181Y-96550001D01*
X108464181Y-93449999D01*
X108407000Y-93162532D01*
X108407000Y-76015134D01*
X108298095Y-75467631D01*
X108274181Y-75431841D01*
X108274181Y-75350000D01*
X108206116Y-75007812D01*
X108152119Y-74927000D01*
X109987881Y-74927000D01*
X109933884Y-75007812D01*
X109865819Y-75350000D01*
X109865819Y-75431843D01*
X109841906Y-75467631D01*
X109733001Y-76015134D01*
X109733000Y-93850101D01*
X109693000Y-94051195D01*
X109693000Y-95948806D01*
X109804227Y-96507976D01*
X110227921Y-97142080D01*
X110862025Y-97565774D01*
X111610000Y-97714556D01*
X112357976Y-97565774D01*
X112992080Y-97142080D01*
X113415774Y-96507976D01*
X113527000Y-95948805D01*
X113527000Y-94051194D01*
X113487000Y-93850101D01*
X113487000Y-76015134D01*
X113378095Y-75467631D01*
X113354181Y-75431841D01*
X113354181Y-75350000D01*
X113286116Y-75007812D01*
X113232119Y-74927000D01*
X115067881Y-74927000D01*
X115013884Y-75007812D01*
X114945819Y-75350000D01*
X114945819Y-75431842D01*
X114921905Y-75467632D01*
X114813000Y-76015135D01*
X114813001Y-93850097D01*
X114773000Y-94051195D01*
X114773000Y-95948806D01*
X114884227Y-96507976D01*
X115307921Y-97142080D01*
X115942025Y-97565774D01*
X116690000Y-97714556D01*
X117437976Y-97565774D01*
X118072080Y-97142080D01*
X118495774Y-96507976D01*
X118607000Y-95948805D01*
X118607000Y-94051194D01*
X118567000Y-93850101D01*
X118567000Y-76015134D01*
X118458095Y-75467631D01*
X118434181Y-75431841D01*
X118434181Y-75350000D01*
X118366116Y-75007812D01*
X118312119Y-74927000D01*
X120147881Y-74927000D01*
X120093884Y-75007812D01*
X120025819Y-75350000D01*
X120025819Y-75431843D01*
X120001906Y-75467631D01*
X119893001Y-76015134D01*
X119893000Y-93850101D01*
X119853000Y-94051195D01*
X119853000Y-95948806D01*
X119964227Y-96507976D01*
X120387921Y-97142080D01*
X121022025Y-97565774D01*
X121770000Y-97714556D01*
X122517976Y-97565774D01*
X123152080Y-97142080D01*
X123575774Y-96507976D01*
X123687000Y-95948805D01*
X123687000Y-94051194D01*
X123647000Y-93850101D01*
X123647000Y-83626641D01*
X130123000Y-83626641D01*
X130123000Y-84373359D01*
X130408756Y-85063235D01*
X130923001Y-85577480D01*
X130923000Y-89422521D01*
X130408756Y-89936765D01*
X130123000Y-90626641D01*
X130123000Y-91373359D01*
X130408756Y-92063235D01*
X130936765Y-92591244D01*
X131626641Y-92877000D01*
X132373359Y-92877000D01*
X132373740Y-92876842D01*
X132452983Y-92929790D01*
X132579775Y-93014510D01*
X132893927Y-93076999D01*
X132893932Y-93076999D01*
X132999998Y-93098097D01*
X133106065Y-93076999D01*
X136333935Y-93076999D01*
X136440001Y-93098097D01*
X136546067Y-93076999D01*
X136546073Y-93076999D01*
X136860225Y-93014510D01*
X137066260Y-92876842D01*
X137066641Y-92877000D01*
X137813359Y-92877000D01*
X138503235Y-92591244D01*
X139031244Y-92063235D01*
X139317000Y-91373359D01*
X139317000Y-90626641D01*
X139031244Y-89936765D01*
X138517000Y-89422521D01*
X138517000Y-85577479D01*
X139031244Y-85063235D01*
X139317000Y-84373359D01*
X139317000Y-83626641D01*
X142623000Y-83626641D01*
X142623000Y-84373359D01*
X142908756Y-85063235D01*
X143423000Y-85577479D01*
X143423001Y-89422520D01*
X142908756Y-89936765D01*
X142623000Y-90626641D01*
X142623000Y-91373359D01*
X142908756Y-92063235D01*
X143436765Y-92591244D01*
X144126641Y-92877000D01*
X144873359Y-92877000D01*
X144873740Y-92876842D01*
X144952983Y-92929790D01*
X145079775Y-93014510D01*
X145393927Y-93076999D01*
X145393932Y-93076999D01*
X145499998Y-93098097D01*
X145606065Y-93076999D01*
X148833935Y-93076999D01*
X148940001Y-93098097D01*
X149046067Y-93076999D01*
X149046073Y-93076999D01*
X149360225Y-93014510D01*
X149566260Y-92876842D01*
X149566641Y-92877000D01*
X150313359Y-92877000D01*
X151003235Y-92591244D01*
X151531244Y-92063235D01*
X151817000Y-91373359D01*
X151817000Y-90626641D01*
X151531244Y-89936765D01*
X151017000Y-89422521D01*
X151017000Y-85577479D01*
X151531244Y-85063235D01*
X151817000Y-84373359D01*
X151817000Y-83626641D01*
X151531244Y-82936765D01*
X151003235Y-82408756D01*
X150313359Y-82123000D01*
X149566641Y-82123000D01*
X148876765Y-82408756D01*
X148362521Y-82923000D01*
X148173926Y-82923000D01*
X148141622Y-82890696D01*
X147543630Y-82643000D01*
X146896370Y-82643000D01*
X146298378Y-82890696D01*
X146266074Y-82923000D01*
X146077479Y-82923000D01*
X145563235Y-82408756D01*
X144873359Y-82123000D01*
X144126641Y-82123000D01*
X143436765Y-82408756D01*
X142908756Y-82936765D01*
X142623000Y-83626641D01*
X139317000Y-83626641D01*
X139031244Y-82936765D01*
X138503235Y-82408756D01*
X137813359Y-82123000D01*
X137066641Y-82123000D01*
X136376765Y-82408756D01*
X135862521Y-82923000D01*
X135673926Y-82923000D01*
X135641622Y-82890696D01*
X135043630Y-82643000D01*
X134396370Y-82643000D01*
X133798378Y-82890696D01*
X133766074Y-82923000D01*
X133577479Y-82923000D01*
X133063235Y-82408756D01*
X132373359Y-82123000D01*
X131626641Y-82123000D01*
X130936765Y-82408756D01*
X130408756Y-82936765D01*
X130123000Y-83626641D01*
X123647000Y-83626641D01*
X123647000Y-76015134D01*
X123538095Y-75467631D01*
X123514181Y-75431841D01*
X123514181Y-75350000D01*
X123446116Y-75007812D01*
X123392119Y-74927000D01*
X129307881Y-74927000D01*
X129253884Y-75007812D01*
X129185819Y-75350000D01*
X129185819Y-77050000D01*
X129253884Y-77392188D01*
X129447719Y-77682281D01*
X129737812Y-77876116D01*
X130080000Y-77944181D01*
X131780000Y-77944181D01*
X132122188Y-77876116D01*
X132200000Y-77824123D01*
X132277812Y-77876116D01*
X132620000Y-77944181D01*
X134320000Y-77944181D01*
X134662188Y-77876116D01*
X134740000Y-77824123D01*
X134817812Y-77876116D01*
X135160000Y-77944181D01*
X136860000Y-77944181D01*
X137202188Y-77876116D01*
X137280000Y-77824123D01*
X137357812Y-77876116D01*
X137700000Y-77944181D01*
X139400000Y-77944181D01*
X139742188Y-77876116D01*
X140032281Y-77682281D01*
X140226116Y-77392188D01*
X140294181Y-77050000D01*
X140294181Y-75350000D01*
X140226116Y-75007812D01*
X140172119Y-74927000D01*
X141793881Y-74927000D01*
X141739884Y-75007812D01*
X141671819Y-75350000D01*
X141671819Y-77050000D01*
X141739884Y-77392188D01*
X141933719Y-77682281D01*
X142223812Y-77876116D01*
X142566000Y-77944181D01*
X144266000Y-77944181D01*
X144608188Y-77876116D01*
X144686000Y-77824123D01*
X144763812Y-77876116D01*
X145106000Y-77944181D01*
X146806000Y-77944181D01*
X147148188Y-77876116D01*
X147226000Y-77824123D01*
X147303812Y-77876116D01*
X147646000Y-77944181D01*
X149346000Y-77944181D01*
X149688188Y-77876116D01*
X149766000Y-77824123D01*
X149843812Y-77876116D01*
X150186000Y-77944181D01*
X151886000Y-77944181D01*
X152228188Y-77876116D01*
X152518281Y-77682281D01*
X152712116Y-77392188D01*
X152780181Y-77050000D01*
X152780181Y-75350000D01*
X152712116Y-75007812D01*
X152658119Y-74927000D01*
X153862886Y-74927000D01*
X153476221Y-75313665D01*
X153023000Y-76407838D01*
X153023000Y-77592162D01*
X153476221Y-78686335D01*
X154313665Y-79523779D01*
X155407838Y-79977000D01*
X156592162Y-79977000D01*
X157686335Y-79523779D01*
X158073001Y-79137113D01*
X158073000Y-93862886D01*
X157686335Y-93476221D01*
X156592162Y-93023000D01*
X155407838Y-93023000D01*
X154313665Y-93476221D01*
X153476221Y-94313665D01*
X153023000Y-95407838D01*
X153023000Y-96592162D01*
X153476221Y-97686335D01*
X153862886Y-98073000D01*
X76137114Y-98073000D01*
X76523779Y-97686335D01*
X76977000Y-96592162D01*
X76977000Y-95407838D01*
X76523779Y-94313665D01*
X75686335Y-93476221D01*
X74592162Y-93023000D01*
X73407838Y-93023000D01*
X72313665Y-93476221D01*
X71927000Y-93862886D01*
X71927000Y-79137114D01*
X72313665Y-79523779D01*
X73407838Y-79977000D01*
X74592162Y-79977000D01*
X75686335Y-79523779D01*
X76523779Y-78686335D01*
X76977000Y-77592162D01*
X76977000Y-76407838D01*
X76523779Y-75313665D01*
X76137114Y-74927000D01*
X79562881Y-74927000D01*
X79508884Y-75007812D01*
X79508884Y-75007812D01*
G37*
X79508884Y-75007812D02*
X79440819Y-75350000D01*
X79440819Y-75431843D01*
X79416906Y-75467631D01*
X79308001Y-76015134D01*
X79308000Y-93162532D01*
X79250819Y-93449999D01*
X79250819Y-96550001D01*
X79337915Y-96987860D01*
X79585942Y-97359058D01*
X79957140Y-97607085D01*
X80394999Y-97694181D01*
X81975001Y-97694181D01*
X82412860Y-97607085D01*
X82784058Y-97359058D01*
X83032085Y-96987860D01*
X83119181Y-96550001D01*
X83119181Y-93449999D01*
X83062000Y-93162532D01*
X83062000Y-76015134D01*
X82953095Y-75467631D01*
X82929181Y-75431841D01*
X82929181Y-75350000D01*
X82861116Y-75007812D01*
X82807119Y-74927000D01*
X84642881Y-74927000D01*
X84588884Y-75007812D01*
X84520819Y-75350000D01*
X84520819Y-75431842D01*
X84496905Y-75467632D01*
X84388000Y-76015135D01*
X84388001Y-93850097D01*
X84348000Y-94051195D01*
X84348000Y-95948806D01*
X84459227Y-96507976D01*
X84882921Y-97142080D01*
X85517025Y-97565774D01*
X86265000Y-97714556D01*
X87012976Y-97565774D01*
X87647080Y-97142080D01*
X88070774Y-96507976D01*
X88182000Y-95948805D01*
X88182000Y-94051194D01*
X88142000Y-93850101D01*
X88142000Y-76015134D01*
X88033095Y-75467631D01*
X88009181Y-75431841D01*
X88009181Y-75350000D01*
X87941116Y-75007812D01*
X87887119Y-74927000D01*
X89722881Y-74927000D01*
X89668884Y-75007812D01*
X89600819Y-75350000D01*
X89600819Y-75431843D01*
X89576906Y-75467631D01*
X89468001Y-76015134D01*
X89468000Y-93850101D01*
X89428000Y-94051195D01*
X89428000Y-95948806D01*
X89539227Y-96507976D01*
X89962921Y-97142080D01*
X90597025Y-97565774D01*
X91345000Y-97714556D01*
X92092976Y-97565774D01*
X92727080Y-97142080D01*
X93150774Y-96507976D01*
X93262000Y-95948805D01*
X93262000Y-94051194D01*
X93222000Y-93850101D01*
X93222000Y-76015134D01*
X93113095Y-75467631D01*
X93089181Y-75431841D01*
X93089181Y-75350000D01*
X93021116Y-75007812D01*
X92967119Y-74927000D01*
X94802881Y-74927000D01*
X94748884Y-75007812D01*
X94680819Y-75350000D01*
X94680819Y-75431842D01*
X94656905Y-75467632D01*
X94548000Y-76015135D01*
X94548001Y-93850097D01*
X94508000Y-94051195D01*
X94508000Y-95948806D01*
X94619227Y-96507976D01*
X95042921Y-97142080D01*
X95677025Y-97565774D01*
X96425000Y-97714556D01*
X97172976Y-97565774D01*
X97807080Y-97142080D01*
X98230774Y-96507976D01*
X98342000Y-95948805D01*
X98342000Y-94051194D01*
X98302000Y-93850101D01*
X98302000Y-86501824D01*
X98857800Y-86501824D01*
X98857800Y-87168976D01*
X99113108Y-87785344D01*
X99584856Y-88257092D01*
X100201224Y-88512400D01*
X100868376Y-88512400D01*
X101484744Y-88257092D01*
X101956492Y-87785344D01*
X102211800Y-87168976D01*
X102211800Y-86501824D01*
X101956492Y-85885456D01*
X101484744Y-85413708D01*
X100868376Y-85158400D01*
X100201224Y-85158400D01*
X99584856Y-85413708D01*
X99113108Y-85885456D01*
X98857800Y-86501824D01*
X98302000Y-86501824D01*
X98302000Y-79215400D01*
X98824946Y-79215400D01*
X98955101Y-79869733D01*
X99325751Y-80424449D01*
X99880467Y-80795099D01*
X100369632Y-80892400D01*
X100699968Y-80892400D01*
X101189133Y-80795099D01*
X101743849Y-80424449D01*
X102114499Y-79869733D01*
X102244654Y-79215400D01*
X102114499Y-78561067D01*
X101743849Y-78006351D01*
X101189133Y-77635701D01*
X100699968Y-77538400D01*
X100369632Y-77538400D01*
X99880467Y-77635701D01*
X99325751Y-78006351D01*
X98955101Y-78561067D01*
X98824946Y-79215400D01*
X98302000Y-79215400D01*
X98302000Y-76015134D01*
X98193095Y-75467631D01*
X98169181Y-75431841D01*
X98169181Y-75350000D01*
X98101116Y-75007812D01*
X98047119Y-74927000D01*
X104907881Y-74927000D01*
X104853884Y-75007812D01*
X104785819Y-75350000D01*
X104785819Y-75431842D01*
X104761905Y-75467632D01*
X104653000Y-76015135D01*
X104653001Y-93162528D01*
X104595819Y-93449999D01*
X104595819Y-96550001D01*
X104682915Y-96987860D01*
X104930942Y-97359058D01*
X105302140Y-97607085D01*
X105739999Y-97694181D01*
X107320001Y-97694181D01*
X107757860Y-97607085D01*
X108129058Y-97359058D01*
X108377085Y-96987860D01*
X108464181Y-96550001D01*
X108464181Y-93449999D01*
X108407000Y-93162532D01*
X108407000Y-76015134D01*
X108298095Y-75467631D01*
X108274181Y-75431841D01*
X108274181Y-75350000D01*
X108206116Y-75007812D01*
X108152119Y-74927000D01*
X109987881Y-74927000D01*
X109933884Y-75007812D01*
X109865819Y-75350000D01*
X109865819Y-75431843D01*
X109841906Y-75467631D01*
X109733001Y-76015134D01*
X109733000Y-93850101D01*
X109693000Y-94051195D01*
X109693000Y-95948806D01*
X109804227Y-96507976D01*
X110227921Y-97142080D01*
X110862025Y-97565774D01*
X111610000Y-97714556D01*
X112357976Y-97565774D01*
X112992080Y-97142080D01*
X113415774Y-96507976D01*
X113527000Y-95948805D01*
X113527000Y-94051194D01*
X113487000Y-93850101D01*
X113487000Y-76015134D01*
X113378095Y-75467631D01*
X113354181Y-75431841D01*
X113354181Y-75350000D01*
X113286116Y-75007812D01*
X113232119Y-74927000D01*
X115067881Y-74927000D01*
X115013884Y-75007812D01*
X114945819Y-75350000D01*
X114945819Y-75431842D01*
X114921905Y-75467632D01*
X114813000Y-76015135D01*
X114813001Y-93850097D01*
X114773000Y-94051195D01*
X114773000Y-95948806D01*
X114884227Y-96507976D01*
X115307921Y-97142080D01*
X115942025Y-97565774D01*
X116690000Y-97714556D01*
X117437976Y-97565774D01*
X118072080Y-97142080D01*
X118495774Y-96507976D01*
X118607000Y-95948805D01*
X118607000Y-94051194D01*
X118567000Y-93850101D01*
X118567000Y-76015134D01*
X118458095Y-75467631D01*
X118434181Y-75431841D01*
X118434181Y-75350000D01*
X118366116Y-75007812D01*
X118312119Y-74927000D01*
X120147881Y-74927000D01*
X120093884Y-75007812D01*
X120025819Y-75350000D01*
X120025819Y-75431843D01*
X120001906Y-75467631D01*
X119893001Y-76015134D01*
X119893000Y-93850101D01*
X119853000Y-94051195D01*
X119853000Y-95948806D01*
X119964227Y-96507976D01*
X120387921Y-97142080D01*
X121022025Y-97565774D01*
X121770000Y-97714556D01*
X122517976Y-97565774D01*
X123152080Y-97142080D01*
X123575774Y-96507976D01*
X123687000Y-95948805D01*
X123687000Y-94051194D01*
X123647000Y-93850101D01*
X123647000Y-83626641D01*
X130123000Y-83626641D01*
X130123000Y-84373359D01*
X130408756Y-85063235D01*
X130923001Y-85577480D01*
X130923000Y-89422521D01*
X130408756Y-89936765D01*
X130123000Y-90626641D01*
X130123000Y-91373359D01*
X130408756Y-92063235D01*
X130936765Y-92591244D01*
X131626641Y-92877000D01*
X132373359Y-92877000D01*
X132373740Y-92876842D01*
X132452983Y-92929790D01*
X132579775Y-93014510D01*
X132893927Y-93076999D01*
X132893932Y-93076999D01*
X132999998Y-93098097D01*
X133106065Y-93076999D01*
X136333935Y-93076999D01*
X136440001Y-93098097D01*
X136546067Y-93076999D01*
X136546073Y-93076999D01*
X136860225Y-93014510D01*
X137066260Y-92876842D01*
X137066641Y-92877000D01*
X137813359Y-92877000D01*
X138503235Y-92591244D01*
X139031244Y-92063235D01*
X139317000Y-91373359D01*
X139317000Y-90626641D01*
X139031244Y-89936765D01*
X138517000Y-89422521D01*
X138517000Y-85577479D01*
X139031244Y-85063235D01*
X139317000Y-84373359D01*
X139317000Y-83626641D01*
X142623000Y-83626641D01*
X142623000Y-84373359D01*
X142908756Y-85063235D01*
X143423000Y-85577479D01*
X143423001Y-89422520D01*
X142908756Y-89936765D01*
X142623000Y-90626641D01*
X142623000Y-91373359D01*
X142908756Y-92063235D01*
X143436765Y-92591244D01*
X144126641Y-92877000D01*
X144873359Y-92877000D01*
X144873740Y-92876842D01*
X144952983Y-92929790D01*
X145079775Y-93014510D01*
X145393927Y-93076999D01*
X145393932Y-93076999D01*
X145499998Y-93098097D01*
X145606065Y-93076999D01*
X148833935Y-93076999D01*
X148940001Y-93098097D01*
X149046067Y-93076999D01*
X149046073Y-93076999D01*
X149360225Y-93014510D01*
X149566260Y-92876842D01*
X149566641Y-92877000D01*
X150313359Y-92877000D01*
X151003235Y-92591244D01*
X151531244Y-92063235D01*
X151817000Y-91373359D01*
X151817000Y-90626641D01*
X151531244Y-89936765D01*
X151017000Y-89422521D01*
X151017000Y-85577479D01*
X151531244Y-85063235D01*
X151817000Y-84373359D01*
X151817000Y-83626641D01*
X151531244Y-82936765D01*
X151003235Y-82408756D01*
X150313359Y-82123000D01*
X149566641Y-82123000D01*
X148876765Y-82408756D01*
X148362521Y-82923000D01*
X148173926Y-82923000D01*
X148141622Y-82890696D01*
X147543630Y-82643000D01*
X146896370Y-82643000D01*
X146298378Y-82890696D01*
X146266074Y-82923000D01*
X146077479Y-82923000D01*
X145563235Y-82408756D01*
X144873359Y-82123000D01*
X144126641Y-82123000D01*
X143436765Y-82408756D01*
X142908756Y-82936765D01*
X142623000Y-83626641D01*
X139317000Y-83626641D01*
X139031244Y-82936765D01*
X138503235Y-82408756D01*
X137813359Y-82123000D01*
X137066641Y-82123000D01*
X136376765Y-82408756D01*
X135862521Y-82923000D01*
X135673926Y-82923000D01*
X135641622Y-82890696D01*
X135043630Y-82643000D01*
X134396370Y-82643000D01*
X133798378Y-82890696D01*
X133766074Y-82923000D01*
X133577479Y-82923000D01*
X133063235Y-82408756D01*
X132373359Y-82123000D01*
X131626641Y-82123000D01*
X130936765Y-82408756D01*
X130408756Y-82936765D01*
X130123000Y-83626641D01*
X123647000Y-83626641D01*
X123647000Y-76015134D01*
X123538095Y-75467631D01*
X123514181Y-75431841D01*
X123514181Y-75350000D01*
X123446116Y-75007812D01*
X123392119Y-74927000D01*
X129307881Y-74927000D01*
X129253884Y-75007812D01*
X129185819Y-75350000D01*
X129185819Y-77050000D01*
X129253884Y-77392188D01*
X129447719Y-77682281D01*
X129737812Y-77876116D01*
X130080000Y-77944181D01*
X131780000Y-77944181D01*
X132122188Y-77876116D01*
X132200000Y-77824123D01*
X132277812Y-77876116D01*
X132620000Y-77944181D01*
X134320000Y-77944181D01*
X134662188Y-77876116D01*
X134740000Y-77824123D01*
X134817812Y-77876116D01*
X135160000Y-77944181D01*
X136860000Y-77944181D01*
X137202188Y-77876116D01*
X137280000Y-77824123D01*
X137357812Y-77876116D01*
X137700000Y-77944181D01*
X139400000Y-77944181D01*
X139742188Y-77876116D01*
X140032281Y-77682281D01*
X140226116Y-77392188D01*
X140294181Y-77050000D01*
X140294181Y-75350000D01*
X140226116Y-75007812D01*
X140172119Y-74927000D01*
X141793881Y-74927000D01*
X141739884Y-75007812D01*
X141671819Y-75350000D01*
X141671819Y-77050000D01*
X141739884Y-77392188D01*
X141933719Y-77682281D01*
X142223812Y-77876116D01*
X142566000Y-77944181D01*
X144266000Y-77944181D01*
X144608188Y-77876116D01*
X144686000Y-77824123D01*
X144763812Y-77876116D01*
X145106000Y-77944181D01*
X146806000Y-77944181D01*
X147148188Y-77876116D01*
X147226000Y-77824123D01*
X147303812Y-77876116D01*
X147646000Y-77944181D01*
X149346000Y-77944181D01*
X149688188Y-77876116D01*
X149766000Y-77824123D01*
X149843812Y-77876116D01*
X150186000Y-77944181D01*
X151886000Y-77944181D01*
X152228188Y-77876116D01*
X152518281Y-77682281D01*
X152712116Y-77392188D01*
X152780181Y-77050000D01*
X152780181Y-75350000D01*
X152712116Y-75007812D01*
X152658119Y-74927000D01*
X153862886Y-74927000D01*
X153476221Y-75313665D01*
X153023000Y-76407838D01*
X153023000Y-77592162D01*
X153476221Y-78686335D01*
X154313665Y-79523779D01*
X155407838Y-79977000D01*
X156592162Y-79977000D01*
X157686335Y-79523779D01*
X158073001Y-79137113D01*
X158073000Y-93862886D01*
X157686335Y-93476221D01*
X156592162Y-93023000D01*
X155407838Y-93023000D01*
X154313665Y-93476221D01*
X153476221Y-94313665D01*
X153023000Y-95407838D01*
X153023000Y-96592162D01*
X153476221Y-97686335D01*
X153862886Y-98073000D01*
X76137114Y-98073000D01*
X76523779Y-97686335D01*
X76977000Y-96592162D01*
X76977000Y-95407838D01*
X76523779Y-94313665D01*
X75686335Y-93476221D01*
X74592162Y-93023000D01*
X73407838Y-93023000D01*
X72313665Y-93476221D01*
X71927000Y-93862886D01*
X71927000Y-79137114D01*
X72313665Y-79523779D01*
X73407838Y-79977000D01*
X74592162Y-79977000D01*
X75686335Y-79523779D01*
X76523779Y-78686335D01*
X76977000Y-77592162D01*
X76977000Y-76407838D01*
X76523779Y-75313665D01*
X76137114Y-74927000D01*
X79562881Y-74927000D01*
X79508884Y-75007812D01*
G36*
X148863000Y-85577479D02*
X148863001Y-89422520D01*
X148698255Y-89587266D01*
X148599304Y-89348378D01*
X148520926Y-89270000D01*
X148599304Y-89191622D01*
X148847000Y-88593630D01*
X148847000Y-87946370D01*
X148599304Y-87348378D01*
X148520926Y-87270000D01*
X148599304Y-87191622D01*
X148847000Y-86593630D01*
X148847000Y-85946370D01*
X148599304Y-85348378D01*
X148520926Y-85270000D01*
X148538224Y-85252703D01*
X148863000Y-85577479D01*
X148863000Y-85577479D01*
G37*
X148863000Y-85577479D02*
X148863001Y-89422520D01*
X148698255Y-89587266D01*
X148599304Y-89348378D01*
X148520926Y-89270000D01*
X148599304Y-89191622D01*
X148847000Y-88593630D01*
X148847000Y-87946370D01*
X148599304Y-87348378D01*
X148520926Y-87270000D01*
X148599304Y-87191622D01*
X148847000Y-86593630D01*
X148847000Y-85946370D01*
X148599304Y-85348378D01*
X148520926Y-85270000D01*
X148538224Y-85252703D01*
X148863000Y-85577479D01*
G36*
X145919074Y-85270000D02*
X145840696Y-85348378D01*
X145593000Y-85946370D01*
X145593000Y-86593630D01*
X145840696Y-87191622D01*
X145919074Y-87270000D01*
X145840696Y-87348378D01*
X145593000Y-87946370D01*
X145593000Y-88593630D01*
X145840696Y-89191622D01*
X145919074Y-89270000D01*
X145840696Y-89348378D01*
X145741745Y-89587266D01*
X145577000Y-89422521D01*
X145577000Y-85577479D01*
X145901777Y-85252703D01*
X145919074Y-85270000D01*
X145919074Y-85270000D01*
G37*
X145919074Y-85270000D02*
X145840696Y-85348378D01*
X145593000Y-85946370D01*
X145593000Y-86593630D01*
X145840696Y-87191622D01*
X145919074Y-87270000D01*
X145840696Y-87348378D01*
X145593000Y-87946370D01*
X145593000Y-88593630D01*
X145840696Y-89191622D01*
X145919074Y-89270000D01*
X145840696Y-89348378D01*
X145741745Y-89587266D01*
X145577000Y-89422521D01*
X145577000Y-85577479D01*
X145901777Y-85252703D01*
X145919074Y-85270000D01*
G36*
X133419074Y-85270000D02*
X133340696Y-85348378D01*
X133093000Y-85946370D01*
X133093000Y-86593630D01*
X133340696Y-87191622D01*
X133419074Y-87270000D01*
X133340696Y-87348378D01*
X133093000Y-87946370D01*
X133093000Y-88593630D01*
X133340696Y-89191622D01*
X133419074Y-89270000D01*
X133340696Y-89348378D01*
X133241745Y-89587266D01*
X133077000Y-89422521D01*
X133077000Y-85577479D01*
X133401777Y-85252703D01*
X133419074Y-85270000D01*
X133419074Y-85270000D01*
G37*
X133419074Y-85270000D02*
X133340696Y-85348378D01*
X133093000Y-85946370D01*
X133093000Y-86593630D01*
X133340696Y-87191622D01*
X133419074Y-87270000D01*
X133340696Y-87348378D01*
X133093000Y-87946370D01*
X133093000Y-88593630D01*
X133340696Y-89191622D01*
X133419074Y-89270000D01*
X133340696Y-89348378D01*
X133241745Y-89587266D01*
X133077000Y-89422521D01*
X133077000Y-85577479D01*
X133401777Y-85252703D01*
X133419074Y-85270000D01*
G36*
X136363000Y-85577479D02*
X136363001Y-89422520D01*
X136198255Y-89587266D01*
X136099304Y-89348378D01*
X136020926Y-89270000D01*
X136099304Y-89191622D01*
X136347000Y-88593630D01*
X136347000Y-87946370D01*
X136099304Y-87348378D01*
X136020926Y-87270000D01*
X136099304Y-87191622D01*
X136347000Y-86593630D01*
X136347000Y-85946370D01*
X136099304Y-85348378D01*
X136020926Y-85270000D01*
X136038224Y-85252703D01*
X136363000Y-85577479D01*
X136363000Y-85577479D01*
G37*
X136363000Y-85577479D02*
X136363001Y-89422520D01*
X136198255Y-89587266D01*
X136099304Y-89348378D01*
X136020926Y-89270000D01*
X136099304Y-89191622D01*
X136347000Y-88593630D01*
X136347000Y-87946370D01*
X136099304Y-87348378D01*
X136020926Y-87270000D01*
X136099304Y-87191622D01*
X136347000Y-86593630D01*
X136347000Y-85946370D01*
X136099304Y-85348378D01*
X136020926Y-85270000D01*
X136038224Y-85252703D01*
X136363000Y-85577479D01*
M02*
