G04 #@! TF.GenerationSoftware,KiCad,Pcbnew,(5.0.2)-1*
G04 #@! TF.CreationDate,2020-01-05T18:08:36+01:00*
G04 #@! TF.ProjectId,EleLab_v2_Frontpanel_a,456c654c-6162-45f7-9632-5f46726f6e74,rev?*
G04 #@! TF.SameCoordinates,Original*
G04 #@! TF.FileFunction,Soldermask,Bot*
G04 #@! TF.FilePolarity,Negative*
%FSLAX46Y46*%
G04 Gerber Fmt 4.6, Leading zero omitted, Abs format (unit mm)*
G04 Created by KiCad (PCBNEW (5.0.2)-1) date 05/01/2020 18:08:36*
%MOMM*%
%LPD*%
G01*
G04 APERTURE LIST*
%ADD10C,0.100000*%
G04 APERTURE END LIST*
D10*
G36*
X156831312Y-93259523D02*
X157349982Y-93474363D01*
X157816772Y-93786262D01*
X158213738Y-94183228D01*
X158525637Y-94650018D01*
X158740477Y-95168688D01*
X158850000Y-95719298D01*
X158850000Y-96280702D01*
X158740477Y-96831312D01*
X158525637Y-97349982D01*
X158213738Y-97816772D01*
X157816772Y-98213738D01*
X157349982Y-98525637D01*
X156831312Y-98740477D01*
X156280702Y-98850000D01*
X155719298Y-98850000D01*
X155168688Y-98740477D01*
X154650018Y-98525637D01*
X154183228Y-98213738D01*
X153786262Y-97816772D01*
X153474363Y-97349982D01*
X153259523Y-96831312D01*
X153150000Y-96280702D01*
X153150000Y-95719298D01*
X153259523Y-95168688D01*
X153474363Y-94650018D01*
X153786262Y-94183228D01*
X154183228Y-93786262D01*
X154650018Y-93474363D01*
X155168688Y-93259523D01*
X155719298Y-93150000D01*
X156280702Y-93150000D01*
X156831312Y-93259523D01*
X156831312Y-93259523D01*
G37*
G36*
X74831312Y-93259523D02*
X75349982Y-93474363D01*
X75816772Y-93786262D01*
X76213738Y-94183228D01*
X76525637Y-94650018D01*
X76740477Y-95168688D01*
X76850000Y-95719298D01*
X76850000Y-96280702D01*
X76740477Y-96831312D01*
X76525637Y-97349982D01*
X76213738Y-97816772D01*
X75816772Y-98213738D01*
X75349982Y-98525637D01*
X74831312Y-98740477D01*
X74280702Y-98850000D01*
X73719298Y-98850000D01*
X73168688Y-98740477D01*
X72650018Y-98525637D01*
X72183228Y-98213738D01*
X71786262Y-97816772D01*
X71474363Y-97349982D01*
X71259523Y-96831312D01*
X71150000Y-96280702D01*
X71150000Y-95719298D01*
X71259523Y-95168688D01*
X71474363Y-94650018D01*
X71786262Y-94183228D01*
X72183228Y-93786262D01*
X72650018Y-93474363D01*
X73168688Y-93259523D01*
X73719298Y-93150000D01*
X74280702Y-93150000D01*
X74831312Y-93259523D01*
X74831312Y-93259523D01*
G37*
G36*
X86468875Y-93215048D02*
X86664915Y-93274516D01*
X86845589Y-93371088D01*
X87003949Y-93501051D01*
X87003950Y-93501053D01*
X87003952Y-93501054D01*
X87044663Y-93550661D01*
X87133912Y-93659411D01*
X87230484Y-93840084D01*
X87289952Y-94036124D01*
X87305000Y-94188909D01*
X87305000Y-95811091D01*
X87289952Y-95963876D01*
X87230484Y-96159916D01*
X87133912Y-96340589D01*
X87003949Y-96498949D01*
X86845589Y-96628912D01*
X86664916Y-96725484D01*
X86468876Y-96784952D01*
X86265000Y-96805032D01*
X86061125Y-96784952D01*
X85865085Y-96725484D01*
X85684412Y-96628912D01*
X85526052Y-96498949D01*
X85396089Y-96340589D01*
X85299517Y-96159916D01*
X85280628Y-96097646D01*
X85240048Y-95963877D01*
X85225000Y-95811084D01*
X85225000Y-94188910D01*
X85240048Y-94036125D01*
X85299516Y-93840085D01*
X85396088Y-93659411D01*
X85526051Y-93501051D01*
X85526053Y-93501050D01*
X85526054Y-93501048D01*
X85588258Y-93449999D01*
X85684411Y-93371088D01*
X85865084Y-93274516D01*
X86061124Y-93215048D01*
X86265000Y-93194968D01*
X86468875Y-93215048D01*
X86468875Y-93215048D01*
G37*
G36*
X91548875Y-93215048D02*
X91744915Y-93274516D01*
X91925589Y-93371088D01*
X92083949Y-93501051D01*
X92083950Y-93501053D01*
X92083952Y-93501054D01*
X92124663Y-93550661D01*
X92213912Y-93659411D01*
X92310484Y-93840084D01*
X92369952Y-94036124D01*
X92385000Y-94188909D01*
X92385000Y-95811091D01*
X92369952Y-95963876D01*
X92310484Y-96159916D01*
X92213912Y-96340589D01*
X92083949Y-96498949D01*
X91925589Y-96628912D01*
X91744916Y-96725484D01*
X91548876Y-96784952D01*
X91345000Y-96805032D01*
X91141125Y-96784952D01*
X90945085Y-96725484D01*
X90764412Y-96628912D01*
X90606052Y-96498949D01*
X90476089Y-96340589D01*
X90379517Y-96159916D01*
X90360628Y-96097646D01*
X90320048Y-95963877D01*
X90305000Y-95811084D01*
X90305000Y-94188910D01*
X90320048Y-94036125D01*
X90379516Y-93840085D01*
X90476088Y-93659411D01*
X90606051Y-93501051D01*
X90606053Y-93501050D01*
X90606054Y-93501048D01*
X90668258Y-93449999D01*
X90764411Y-93371088D01*
X90945084Y-93274516D01*
X91141124Y-93215048D01*
X91345000Y-93194968D01*
X91548875Y-93215048D01*
X91548875Y-93215048D01*
G37*
G36*
X96628875Y-93215048D02*
X96824915Y-93274516D01*
X97005589Y-93371088D01*
X97163949Y-93501051D01*
X97163950Y-93501053D01*
X97163952Y-93501054D01*
X97204663Y-93550661D01*
X97293912Y-93659411D01*
X97390484Y-93840084D01*
X97449952Y-94036124D01*
X97465000Y-94188909D01*
X97465000Y-95811091D01*
X97449952Y-95963876D01*
X97390484Y-96159916D01*
X97293912Y-96340589D01*
X97163949Y-96498949D01*
X97005589Y-96628912D01*
X96824916Y-96725484D01*
X96628876Y-96784952D01*
X96425000Y-96805032D01*
X96221125Y-96784952D01*
X96025085Y-96725484D01*
X95844412Y-96628912D01*
X95686052Y-96498949D01*
X95556089Y-96340589D01*
X95459517Y-96159916D01*
X95440628Y-96097646D01*
X95400048Y-95963877D01*
X95385000Y-95811084D01*
X95385000Y-94188910D01*
X95400048Y-94036125D01*
X95459516Y-93840085D01*
X95556088Y-93659411D01*
X95686051Y-93501051D01*
X95686053Y-93501050D01*
X95686054Y-93501048D01*
X95748258Y-93449999D01*
X95844411Y-93371088D01*
X96025084Y-93274516D01*
X96221124Y-93215048D01*
X96425000Y-93194968D01*
X96628875Y-93215048D01*
X96628875Y-93215048D01*
G37*
G36*
X111813875Y-93215048D02*
X112009915Y-93274516D01*
X112190589Y-93371088D01*
X112348949Y-93501051D01*
X112348950Y-93501053D01*
X112348952Y-93501054D01*
X112389663Y-93550661D01*
X112478912Y-93659411D01*
X112575484Y-93840084D01*
X112634952Y-94036124D01*
X112650000Y-94188909D01*
X112650000Y-95811091D01*
X112634952Y-95963876D01*
X112575484Y-96159916D01*
X112478912Y-96340589D01*
X112348949Y-96498949D01*
X112190589Y-96628912D01*
X112009916Y-96725484D01*
X111813876Y-96784952D01*
X111610000Y-96805032D01*
X111406125Y-96784952D01*
X111210085Y-96725484D01*
X111029412Y-96628912D01*
X110871052Y-96498949D01*
X110741089Y-96340589D01*
X110644517Y-96159916D01*
X110625628Y-96097646D01*
X110585048Y-95963877D01*
X110570000Y-95811084D01*
X110570000Y-94188910D01*
X110585048Y-94036125D01*
X110644516Y-93840085D01*
X110741088Y-93659411D01*
X110871051Y-93501051D01*
X110871053Y-93501050D01*
X110871054Y-93501048D01*
X110933258Y-93449999D01*
X111029411Y-93371088D01*
X111210084Y-93274516D01*
X111406124Y-93215048D01*
X111610000Y-93194968D01*
X111813875Y-93215048D01*
X111813875Y-93215048D01*
G37*
G36*
X116893875Y-93215048D02*
X117089915Y-93274516D01*
X117270589Y-93371088D01*
X117428949Y-93501051D01*
X117428950Y-93501053D01*
X117428952Y-93501054D01*
X117469663Y-93550661D01*
X117558912Y-93659411D01*
X117655484Y-93840084D01*
X117714952Y-94036124D01*
X117730000Y-94188909D01*
X117730000Y-95811091D01*
X117714952Y-95963876D01*
X117655484Y-96159916D01*
X117558912Y-96340589D01*
X117428949Y-96498949D01*
X117270589Y-96628912D01*
X117089916Y-96725484D01*
X116893876Y-96784952D01*
X116690000Y-96805032D01*
X116486125Y-96784952D01*
X116290085Y-96725484D01*
X116109412Y-96628912D01*
X115951052Y-96498949D01*
X115821089Y-96340589D01*
X115724517Y-96159916D01*
X115705628Y-96097646D01*
X115665048Y-95963877D01*
X115650000Y-95811084D01*
X115650000Y-94188910D01*
X115665048Y-94036125D01*
X115724516Y-93840085D01*
X115821088Y-93659411D01*
X115951051Y-93501051D01*
X115951053Y-93501050D01*
X115951054Y-93501048D01*
X116013258Y-93449999D01*
X116109411Y-93371088D01*
X116290084Y-93274516D01*
X116486124Y-93215048D01*
X116690000Y-93194968D01*
X116893875Y-93215048D01*
X116893875Y-93215048D01*
G37*
G36*
X121973875Y-93215048D02*
X122169915Y-93274516D01*
X122350589Y-93371088D01*
X122508949Y-93501051D01*
X122508950Y-93501053D01*
X122508952Y-93501054D01*
X122549663Y-93550661D01*
X122638912Y-93659411D01*
X122735484Y-93840084D01*
X122794952Y-94036124D01*
X122810000Y-94188909D01*
X122810000Y-95811091D01*
X122794952Y-95963876D01*
X122735484Y-96159916D01*
X122638912Y-96340589D01*
X122508949Y-96498949D01*
X122350589Y-96628912D01*
X122169916Y-96725484D01*
X121973876Y-96784952D01*
X121770000Y-96805032D01*
X121566125Y-96784952D01*
X121370085Y-96725484D01*
X121189412Y-96628912D01*
X121031052Y-96498949D01*
X120901089Y-96340589D01*
X120804517Y-96159916D01*
X120785628Y-96097646D01*
X120745048Y-95963877D01*
X120730000Y-95811084D01*
X120730000Y-94188910D01*
X120745048Y-94036125D01*
X120804516Y-93840085D01*
X120901088Y-93659411D01*
X121031051Y-93501051D01*
X121031053Y-93501050D01*
X121031054Y-93501048D01*
X121093258Y-93449999D01*
X121189411Y-93371088D01*
X121370084Y-93274516D01*
X121566124Y-93215048D01*
X121770000Y-93194968D01*
X121973875Y-93215048D01*
X121973875Y-93215048D01*
G37*
G36*
X107445081Y-93203572D02*
X107474055Y-93212361D01*
X107500760Y-93226635D01*
X107524160Y-93245840D01*
X107543365Y-93269240D01*
X107557639Y-93295945D01*
X107566428Y-93324919D01*
X107570000Y-93361187D01*
X107570000Y-96638813D01*
X107566428Y-96675081D01*
X107557639Y-96704055D01*
X107543365Y-96730760D01*
X107524160Y-96754160D01*
X107500760Y-96773365D01*
X107474055Y-96787639D01*
X107445081Y-96796428D01*
X107408813Y-96800000D01*
X105651187Y-96800000D01*
X105614919Y-96796428D01*
X105585945Y-96787639D01*
X105559240Y-96773365D01*
X105535840Y-96754160D01*
X105516635Y-96730760D01*
X105502361Y-96704055D01*
X105493572Y-96675081D01*
X105490000Y-96638813D01*
X105490000Y-93361187D01*
X105493572Y-93324919D01*
X105502361Y-93295945D01*
X105516635Y-93269240D01*
X105535840Y-93245840D01*
X105559240Y-93226635D01*
X105585945Y-93212361D01*
X105614919Y-93203572D01*
X105651187Y-93200000D01*
X107408813Y-93200000D01*
X107445081Y-93203572D01*
X107445081Y-93203572D01*
G37*
G36*
X82100081Y-93203572D02*
X82129055Y-93212361D01*
X82155760Y-93226635D01*
X82179160Y-93245840D01*
X82198365Y-93269240D01*
X82212639Y-93295945D01*
X82221428Y-93324919D01*
X82225000Y-93361187D01*
X82225000Y-96638813D01*
X82221428Y-96675081D01*
X82212639Y-96704055D01*
X82198365Y-96730760D01*
X82179160Y-96754160D01*
X82155760Y-96773365D01*
X82129055Y-96787639D01*
X82100081Y-96796428D01*
X82063813Y-96800000D01*
X80306187Y-96800000D01*
X80269919Y-96796428D01*
X80240945Y-96787639D01*
X80214240Y-96773365D01*
X80190840Y-96754160D01*
X80171635Y-96730760D01*
X80157361Y-96704055D01*
X80148572Y-96675081D01*
X80145000Y-96638813D01*
X80145000Y-93361187D01*
X80148572Y-93324919D01*
X80157361Y-93295945D01*
X80171635Y-93269240D01*
X80190840Y-93245840D01*
X80214240Y-93226635D01*
X80240945Y-93212361D01*
X80269919Y-93203572D01*
X80306187Y-93200000D01*
X82063813Y-93200000D01*
X82100081Y-93203572D01*
X82100081Y-93203572D01*
G37*
G36*
X137615770Y-90015372D02*
X137731689Y-90038429D01*
X137913678Y-90113811D01*
X138077463Y-90223249D01*
X138216751Y-90362537D01*
X138326189Y-90526322D01*
X138401571Y-90708311D01*
X138440000Y-90901509D01*
X138440000Y-91098491D01*
X138401571Y-91291689D01*
X138326189Y-91473678D01*
X138216751Y-91637463D01*
X138077463Y-91776751D01*
X137913678Y-91886189D01*
X137731689Y-91961571D01*
X137615770Y-91984628D01*
X137538493Y-92000000D01*
X137341507Y-92000000D01*
X137264230Y-91984628D01*
X137148311Y-91961571D01*
X136966322Y-91886189D01*
X136802537Y-91776751D01*
X136663249Y-91637463D01*
X136553811Y-91473678D01*
X136478429Y-91291689D01*
X136440000Y-91098491D01*
X136440000Y-90901509D01*
X136478429Y-90708311D01*
X136553811Y-90526322D01*
X136663249Y-90362537D01*
X136802537Y-90223249D01*
X136966322Y-90113811D01*
X137148311Y-90038429D01*
X137264230Y-90015372D01*
X137341507Y-90000000D01*
X137538493Y-90000000D01*
X137615770Y-90015372D01*
X137615770Y-90015372D01*
G37*
G36*
X132175770Y-90015372D02*
X132291689Y-90038429D01*
X132473678Y-90113811D01*
X132637463Y-90223249D01*
X132776751Y-90362537D01*
X132886189Y-90526322D01*
X132961571Y-90708311D01*
X133000000Y-90901509D01*
X133000000Y-91098491D01*
X132961571Y-91291689D01*
X132886189Y-91473678D01*
X132776751Y-91637463D01*
X132637463Y-91776751D01*
X132473678Y-91886189D01*
X132291689Y-91961571D01*
X132175770Y-91984628D01*
X132098493Y-92000000D01*
X131901507Y-92000000D01*
X131824230Y-91984628D01*
X131708311Y-91961571D01*
X131526322Y-91886189D01*
X131362537Y-91776751D01*
X131223249Y-91637463D01*
X131113811Y-91473678D01*
X131038429Y-91291689D01*
X131000000Y-91098491D01*
X131000000Y-90901509D01*
X131038429Y-90708311D01*
X131113811Y-90526322D01*
X131223249Y-90362537D01*
X131362537Y-90223249D01*
X131526322Y-90113811D01*
X131708311Y-90038429D01*
X131824230Y-90015372D01*
X131901507Y-90000000D01*
X132098493Y-90000000D01*
X132175770Y-90015372D01*
X132175770Y-90015372D01*
G37*
G36*
X150115770Y-90015372D02*
X150231689Y-90038429D01*
X150413678Y-90113811D01*
X150577463Y-90223249D01*
X150716751Y-90362537D01*
X150826189Y-90526322D01*
X150901571Y-90708311D01*
X150940000Y-90901509D01*
X150940000Y-91098491D01*
X150901571Y-91291689D01*
X150826189Y-91473678D01*
X150716751Y-91637463D01*
X150577463Y-91776751D01*
X150413678Y-91886189D01*
X150231689Y-91961571D01*
X150115770Y-91984628D01*
X150038493Y-92000000D01*
X149841507Y-92000000D01*
X149764230Y-91984628D01*
X149648311Y-91961571D01*
X149466322Y-91886189D01*
X149302537Y-91776751D01*
X149163249Y-91637463D01*
X149053811Y-91473678D01*
X148978429Y-91291689D01*
X148940000Y-91098491D01*
X148940000Y-90901509D01*
X148978429Y-90708311D01*
X149053811Y-90526322D01*
X149163249Y-90362537D01*
X149302537Y-90223249D01*
X149466322Y-90113811D01*
X149648311Y-90038429D01*
X149764230Y-90015372D01*
X149841507Y-90000000D01*
X150038493Y-90000000D01*
X150115770Y-90015372D01*
X150115770Y-90015372D01*
G37*
G36*
X144675770Y-90015372D02*
X144791689Y-90038429D01*
X144973678Y-90113811D01*
X145137463Y-90223249D01*
X145276751Y-90362537D01*
X145386189Y-90526322D01*
X145461571Y-90708311D01*
X145500000Y-90901509D01*
X145500000Y-91098491D01*
X145461571Y-91291689D01*
X145386189Y-91473678D01*
X145276751Y-91637463D01*
X145137463Y-91776751D01*
X144973678Y-91886189D01*
X144791689Y-91961571D01*
X144675770Y-91984628D01*
X144598493Y-92000000D01*
X144401507Y-92000000D01*
X144324230Y-91984628D01*
X144208311Y-91961571D01*
X144026322Y-91886189D01*
X143862537Y-91776751D01*
X143723249Y-91637463D01*
X143613811Y-91473678D01*
X143538429Y-91291689D01*
X143500000Y-91098491D01*
X143500000Y-90901509D01*
X143538429Y-90708311D01*
X143613811Y-90526322D01*
X143723249Y-90362537D01*
X143862537Y-90223249D01*
X144026322Y-90113811D01*
X144208311Y-90038429D01*
X144324230Y-90015372D01*
X144401507Y-90000000D01*
X144598493Y-90000000D01*
X144675770Y-90015372D01*
X144675770Y-90015372D01*
G37*
G36*
X147366318Y-89534411D02*
X147438767Y-89548822D01*
X147495303Y-89572240D01*
X147575257Y-89605358D01*
X147698100Y-89687439D01*
X147802561Y-89791900D01*
X147884642Y-89914743D01*
X147941178Y-90051234D01*
X147970000Y-90196130D01*
X147970000Y-90343870D01*
X147941178Y-90488766D01*
X147884642Y-90625257D01*
X147802561Y-90748100D01*
X147698100Y-90852561D01*
X147575257Y-90934642D01*
X147495303Y-90967760D01*
X147438767Y-90991178D01*
X147366318Y-91005589D01*
X147293870Y-91020000D01*
X147146130Y-91020000D01*
X147073682Y-91005589D01*
X147001233Y-90991178D01*
X146944697Y-90967760D01*
X146864743Y-90934642D01*
X146741900Y-90852561D01*
X146637439Y-90748100D01*
X146555358Y-90625257D01*
X146498822Y-90488766D01*
X146470000Y-90343870D01*
X146470000Y-90196130D01*
X146498822Y-90051234D01*
X146555358Y-89914743D01*
X146637439Y-89791900D01*
X146741900Y-89687439D01*
X146864743Y-89605358D01*
X146944697Y-89572240D01*
X147001233Y-89548822D01*
X147073682Y-89534411D01*
X147146130Y-89520000D01*
X147293870Y-89520000D01*
X147366318Y-89534411D01*
X147366318Y-89534411D01*
G37*
G36*
X134866318Y-89534411D02*
X134938767Y-89548822D01*
X134995303Y-89572240D01*
X135075257Y-89605358D01*
X135198100Y-89687439D01*
X135302561Y-89791900D01*
X135384642Y-89914743D01*
X135441178Y-90051234D01*
X135470000Y-90196130D01*
X135470000Y-90343870D01*
X135441178Y-90488766D01*
X135384642Y-90625257D01*
X135302561Y-90748100D01*
X135198100Y-90852561D01*
X135075257Y-90934642D01*
X134995303Y-90967760D01*
X134938767Y-90991178D01*
X134866318Y-91005589D01*
X134793870Y-91020000D01*
X134646130Y-91020000D01*
X134573682Y-91005589D01*
X134501233Y-90991178D01*
X134444697Y-90967760D01*
X134364743Y-90934642D01*
X134241900Y-90852561D01*
X134137439Y-90748100D01*
X134055358Y-90625257D01*
X133998822Y-90488766D01*
X133970000Y-90343870D01*
X133970000Y-90196130D01*
X133998822Y-90051234D01*
X134055358Y-89914743D01*
X134137439Y-89791900D01*
X134241900Y-89687439D01*
X134364743Y-89605358D01*
X134444697Y-89572240D01*
X134501233Y-89548822D01*
X134573682Y-89534411D01*
X134646130Y-89520000D01*
X134793870Y-89520000D01*
X134866318Y-89534411D01*
X134866318Y-89534411D01*
G37*
G36*
X147366318Y-87534411D02*
X147438767Y-87548822D01*
X147495303Y-87572240D01*
X147575257Y-87605358D01*
X147698100Y-87687439D01*
X147802561Y-87791900D01*
X147884642Y-87914743D01*
X147941178Y-88051234D01*
X147970000Y-88196130D01*
X147970000Y-88343870D01*
X147941178Y-88488766D01*
X147884642Y-88625257D01*
X147802561Y-88748100D01*
X147698100Y-88852561D01*
X147575257Y-88934642D01*
X147495303Y-88967760D01*
X147438767Y-88991178D01*
X147366318Y-89005589D01*
X147293870Y-89020000D01*
X147146130Y-89020000D01*
X147073682Y-89005589D01*
X147001233Y-88991178D01*
X146944697Y-88967760D01*
X146864743Y-88934642D01*
X146741900Y-88852561D01*
X146637439Y-88748100D01*
X146555358Y-88625257D01*
X146498822Y-88488766D01*
X146470000Y-88343870D01*
X146470000Y-88196130D01*
X146498822Y-88051234D01*
X146555358Y-87914743D01*
X146637439Y-87791900D01*
X146741900Y-87687439D01*
X146864743Y-87605358D01*
X146944697Y-87572240D01*
X147001233Y-87548822D01*
X147073682Y-87534411D01*
X147146130Y-87520000D01*
X147293870Y-87520000D01*
X147366318Y-87534411D01*
X147366318Y-87534411D01*
G37*
G36*
X134866318Y-87534411D02*
X134938767Y-87548822D01*
X134995303Y-87572240D01*
X135075257Y-87605358D01*
X135198100Y-87687439D01*
X135302561Y-87791900D01*
X135384642Y-87914743D01*
X135441178Y-88051234D01*
X135470000Y-88196130D01*
X135470000Y-88343870D01*
X135441178Y-88488766D01*
X135384642Y-88625257D01*
X135302561Y-88748100D01*
X135198100Y-88852561D01*
X135075257Y-88934642D01*
X134995303Y-88967760D01*
X134938767Y-88991178D01*
X134866318Y-89005589D01*
X134793870Y-89020000D01*
X134646130Y-89020000D01*
X134573682Y-89005589D01*
X134501233Y-88991178D01*
X134444697Y-88967760D01*
X134364743Y-88934642D01*
X134241900Y-88852561D01*
X134137439Y-88748100D01*
X134055358Y-88625257D01*
X133998822Y-88488766D01*
X133970000Y-88343870D01*
X133970000Y-88196130D01*
X133998822Y-88051234D01*
X134055358Y-87914743D01*
X134137439Y-87791900D01*
X134241900Y-87687439D01*
X134364743Y-87605358D01*
X134444697Y-87572240D01*
X134501233Y-87548822D01*
X134573682Y-87534411D01*
X134646130Y-87520000D01*
X134793870Y-87520000D01*
X134866318Y-87534411D01*
X134866318Y-87534411D01*
G37*
G36*
X100768152Y-86066143D02*
X100913741Y-86126448D01*
X101044773Y-86214001D01*
X101156199Y-86325427D01*
X101243752Y-86456459D01*
X101304057Y-86602048D01*
X101334800Y-86756605D01*
X101334800Y-86914195D01*
X101304057Y-87068752D01*
X101243752Y-87214341D01*
X101156199Y-87345373D01*
X101044773Y-87456799D01*
X100913741Y-87544352D01*
X100768152Y-87604657D01*
X100613595Y-87635400D01*
X100456005Y-87635400D01*
X100301448Y-87604657D01*
X100155859Y-87544352D01*
X100024827Y-87456799D01*
X99913401Y-87345373D01*
X99825848Y-87214341D01*
X99765543Y-87068752D01*
X99734800Y-86914195D01*
X99734800Y-86756605D01*
X99765543Y-86602048D01*
X99825848Y-86456459D01*
X99913401Y-86325427D01*
X100024827Y-86214001D01*
X100155859Y-86126448D01*
X100301448Y-86066143D01*
X100456005Y-86035400D01*
X100613595Y-86035400D01*
X100768152Y-86066143D01*
X100768152Y-86066143D01*
G37*
G36*
X147366318Y-85534411D02*
X147438767Y-85548822D01*
X147495303Y-85572240D01*
X147575257Y-85605358D01*
X147698100Y-85687439D01*
X147802561Y-85791900D01*
X147884642Y-85914743D01*
X147917760Y-85994697D01*
X147934620Y-86035400D01*
X147941178Y-86051234D01*
X147970000Y-86196130D01*
X147970000Y-86343870D01*
X147941178Y-86488766D01*
X147884642Y-86625257D01*
X147802561Y-86748100D01*
X147698100Y-86852561D01*
X147575257Y-86934642D01*
X147495303Y-86967760D01*
X147438767Y-86991178D01*
X147366318Y-87005589D01*
X147293870Y-87020000D01*
X147146130Y-87020000D01*
X147073682Y-87005589D01*
X147001233Y-86991178D01*
X146944697Y-86967760D01*
X146864743Y-86934642D01*
X146741900Y-86852561D01*
X146637439Y-86748100D01*
X146555358Y-86625257D01*
X146498822Y-86488766D01*
X146470000Y-86343870D01*
X146470000Y-86196130D01*
X146498822Y-86051234D01*
X146505381Y-86035400D01*
X146522240Y-85994697D01*
X146555358Y-85914743D01*
X146637439Y-85791900D01*
X146741900Y-85687439D01*
X146864743Y-85605358D01*
X146944697Y-85572240D01*
X147001233Y-85548822D01*
X147073682Y-85534411D01*
X147146130Y-85520000D01*
X147293870Y-85520000D01*
X147366318Y-85534411D01*
X147366318Y-85534411D01*
G37*
G36*
X134866318Y-85534411D02*
X134938767Y-85548822D01*
X134995303Y-85572240D01*
X135075257Y-85605358D01*
X135198100Y-85687439D01*
X135302561Y-85791900D01*
X135384642Y-85914743D01*
X135417760Y-85994697D01*
X135434620Y-86035400D01*
X135441178Y-86051234D01*
X135470000Y-86196130D01*
X135470000Y-86343870D01*
X135441178Y-86488766D01*
X135384642Y-86625257D01*
X135302561Y-86748100D01*
X135198100Y-86852561D01*
X135075257Y-86934642D01*
X134995303Y-86967760D01*
X134938767Y-86991178D01*
X134866318Y-87005589D01*
X134793870Y-87020000D01*
X134646130Y-87020000D01*
X134573682Y-87005589D01*
X134501233Y-86991178D01*
X134444697Y-86967760D01*
X134364743Y-86934642D01*
X134241900Y-86852561D01*
X134137439Y-86748100D01*
X134055358Y-86625257D01*
X133998822Y-86488766D01*
X133970000Y-86343870D01*
X133970000Y-86196130D01*
X133998822Y-86051234D01*
X134005381Y-86035400D01*
X134022240Y-85994697D01*
X134055358Y-85914743D01*
X134137439Y-85791900D01*
X134241900Y-85687439D01*
X134364743Y-85605358D01*
X134444697Y-85572240D01*
X134501233Y-85548822D01*
X134573682Y-85534411D01*
X134646130Y-85520000D01*
X134793870Y-85520000D01*
X134866318Y-85534411D01*
X134866318Y-85534411D01*
G37*
G36*
X134825652Y-83526322D02*
X134938767Y-83548822D01*
X134995303Y-83572240D01*
X135075257Y-83605358D01*
X135198100Y-83687439D01*
X135302561Y-83791900D01*
X135384642Y-83914743D01*
X135441178Y-84051234D01*
X135470000Y-84196130D01*
X135470000Y-84343870D01*
X135441178Y-84488766D01*
X135384642Y-84625257D01*
X135302561Y-84748100D01*
X135198100Y-84852561D01*
X135075257Y-84934642D01*
X135010244Y-84961571D01*
X134938767Y-84991178D01*
X134866318Y-85005589D01*
X134793870Y-85020000D01*
X134646130Y-85020000D01*
X134573682Y-85005589D01*
X134501233Y-84991178D01*
X134429756Y-84961571D01*
X134364743Y-84934642D01*
X134241900Y-84852561D01*
X134137439Y-84748100D01*
X134055358Y-84625257D01*
X133998822Y-84488766D01*
X133970000Y-84343870D01*
X133970000Y-84196130D01*
X133998822Y-84051234D01*
X134055358Y-83914743D01*
X134137439Y-83791900D01*
X134241900Y-83687439D01*
X134364743Y-83605358D01*
X134444697Y-83572240D01*
X134501233Y-83548822D01*
X134614348Y-83526322D01*
X134646130Y-83520000D01*
X134793870Y-83520000D01*
X134825652Y-83526322D01*
X134825652Y-83526322D01*
G37*
G36*
X147325652Y-83526322D02*
X147438767Y-83548822D01*
X147495303Y-83572240D01*
X147575257Y-83605358D01*
X147698100Y-83687439D01*
X147802561Y-83791900D01*
X147884642Y-83914743D01*
X147941178Y-84051234D01*
X147970000Y-84196130D01*
X147970000Y-84343870D01*
X147941178Y-84488766D01*
X147884642Y-84625257D01*
X147802561Y-84748100D01*
X147698100Y-84852561D01*
X147575257Y-84934642D01*
X147510244Y-84961571D01*
X147438767Y-84991178D01*
X147366318Y-85005589D01*
X147293870Y-85020000D01*
X147146130Y-85020000D01*
X147073682Y-85005589D01*
X147001233Y-84991178D01*
X146929756Y-84961571D01*
X146864743Y-84934642D01*
X146741900Y-84852561D01*
X146637439Y-84748100D01*
X146555358Y-84625257D01*
X146498822Y-84488766D01*
X146470000Y-84343870D01*
X146470000Y-84196130D01*
X146498822Y-84051234D01*
X146555358Y-83914743D01*
X146637439Y-83791900D01*
X146741900Y-83687439D01*
X146864743Y-83605358D01*
X146944697Y-83572240D01*
X147001233Y-83548822D01*
X147114348Y-83526322D01*
X147146130Y-83520000D01*
X147293870Y-83520000D01*
X147325652Y-83526322D01*
X147325652Y-83526322D01*
G37*
G36*
X137615770Y-83015372D02*
X137731689Y-83038429D01*
X137913678Y-83113811D01*
X138077463Y-83223249D01*
X138216751Y-83362537D01*
X138326189Y-83526322D01*
X138401571Y-83708311D01*
X138440000Y-83901509D01*
X138440000Y-84098491D01*
X138401571Y-84291689D01*
X138326189Y-84473678D01*
X138216751Y-84637463D01*
X138077463Y-84776751D01*
X137913678Y-84886189D01*
X137731689Y-84961571D01*
X137615770Y-84984628D01*
X137538493Y-85000000D01*
X137341507Y-85000000D01*
X137264230Y-84984628D01*
X137148311Y-84961571D01*
X136966322Y-84886189D01*
X136802537Y-84776751D01*
X136663249Y-84637463D01*
X136553811Y-84473678D01*
X136478429Y-84291689D01*
X136440000Y-84098491D01*
X136440000Y-83901509D01*
X136478429Y-83708311D01*
X136553811Y-83526322D01*
X136663249Y-83362537D01*
X136802537Y-83223249D01*
X136966322Y-83113811D01*
X137148311Y-83038429D01*
X137264230Y-83015372D01*
X137341507Y-83000000D01*
X137538493Y-83000000D01*
X137615770Y-83015372D01*
X137615770Y-83015372D01*
G37*
G36*
X150115770Y-83015372D02*
X150231689Y-83038429D01*
X150413678Y-83113811D01*
X150577463Y-83223249D01*
X150716751Y-83362537D01*
X150826189Y-83526322D01*
X150901571Y-83708311D01*
X150940000Y-83901509D01*
X150940000Y-84098491D01*
X150901571Y-84291689D01*
X150826189Y-84473678D01*
X150716751Y-84637463D01*
X150577463Y-84776751D01*
X150413678Y-84886189D01*
X150231689Y-84961571D01*
X150115770Y-84984628D01*
X150038493Y-85000000D01*
X149841507Y-85000000D01*
X149764230Y-84984628D01*
X149648311Y-84961571D01*
X149466322Y-84886189D01*
X149302537Y-84776751D01*
X149163249Y-84637463D01*
X149053811Y-84473678D01*
X148978429Y-84291689D01*
X148940000Y-84098491D01*
X148940000Y-83901509D01*
X148978429Y-83708311D01*
X149053811Y-83526322D01*
X149163249Y-83362537D01*
X149302537Y-83223249D01*
X149466322Y-83113811D01*
X149648311Y-83038429D01*
X149764230Y-83015372D01*
X149841507Y-83000000D01*
X150038493Y-83000000D01*
X150115770Y-83015372D01*
X150115770Y-83015372D01*
G37*
G36*
X132175770Y-83015372D02*
X132291689Y-83038429D01*
X132473678Y-83113811D01*
X132637463Y-83223249D01*
X132776751Y-83362537D01*
X132886189Y-83526322D01*
X132961571Y-83708311D01*
X133000000Y-83901509D01*
X133000000Y-84098491D01*
X132961571Y-84291689D01*
X132886189Y-84473678D01*
X132776751Y-84637463D01*
X132637463Y-84776751D01*
X132473678Y-84886189D01*
X132291689Y-84961571D01*
X132175770Y-84984628D01*
X132098493Y-85000000D01*
X131901507Y-85000000D01*
X131824230Y-84984628D01*
X131708311Y-84961571D01*
X131526322Y-84886189D01*
X131362537Y-84776751D01*
X131223249Y-84637463D01*
X131113811Y-84473678D01*
X131038429Y-84291689D01*
X131000000Y-84098491D01*
X131000000Y-83901509D01*
X131038429Y-83708311D01*
X131113811Y-83526322D01*
X131223249Y-83362537D01*
X131362537Y-83223249D01*
X131526322Y-83113811D01*
X131708311Y-83038429D01*
X131824230Y-83015372D01*
X131901507Y-83000000D01*
X132098493Y-83000000D01*
X132175770Y-83015372D01*
X132175770Y-83015372D01*
G37*
G36*
X144675770Y-83015372D02*
X144791689Y-83038429D01*
X144973678Y-83113811D01*
X145137463Y-83223249D01*
X145276751Y-83362537D01*
X145386189Y-83526322D01*
X145461571Y-83708311D01*
X145500000Y-83901509D01*
X145500000Y-84098491D01*
X145461571Y-84291689D01*
X145386189Y-84473678D01*
X145276751Y-84637463D01*
X145137463Y-84776751D01*
X144973678Y-84886189D01*
X144791689Y-84961571D01*
X144675770Y-84984628D01*
X144598493Y-85000000D01*
X144401507Y-85000000D01*
X144324230Y-84984628D01*
X144208311Y-84961571D01*
X144026322Y-84886189D01*
X143862537Y-84776751D01*
X143723249Y-84637463D01*
X143613811Y-84473678D01*
X143538429Y-84291689D01*
X143500000Y-84098491D01*
X143500000Y-83901509D01*
X143538429Y-83708311D01*
X143613811Y-83526322D01*
X143723249Y-83362537D01*
X143862537Y-83223249D01*
X144026322Y-83113811D01*
X144208311Y-83038429D01*
X144324230Y-83015372D01*
X144401507Y-83000000D01*
X144598493Y-83000000D01*
X144675770Y-83015372D01*
X144675770Y-83015372D01*
G37*
G36*
X100652449Y-78423117D02*
X100691627Y-78426976D01*
X100767027Y-78449848D01*
X100842429Y-78472721D01*
X100981408Y-78547008D01*
X101103222Y-78646978D01*
X101203192Y-78768792D01*
X101277479Y-78907771D01*
X101323224Y-79058574D01*
X101338670Y-79215400D01*
X101323224Y-79372226D01*
X101277479Y-79523029D01*
X101203192Y-79662008D01*
X101103222Y-79783822D01*
X100981408Y-79883792D01*
X100842429Y-79958079D01*
X100767027Y-79980952D01*
X100691627Y-80003824D01*
X100652449Y-80007683D01*
X100574095Y-80015400D01*
X100495505Y-80015400D01*
X100417151Y-80007683D01*
X100377973Y-80003824D01*
X100302573Y-79980952D01*
X100227171Y-79958079D01*
X100088192Y-79883792D01*
X99966378Y-79783822D01*
X99866408Y-79662008D01*
X99792121Y-79523029D01*
X99746376Y-79372226D01*
X99730930Y-79215400D01*
X99746376Y-79058574D01*
X99792121Y-78907771D01*
X99866408Y-78768792D01*
X99966378Y-78646978D01*
X100088192Y-78547008D01*
X100227171Y-78472721D01*
X100302572Y-78449849D01*
X100377973Y-78426976D01*
X100417151Y-78423117D01*
X100495505Y-78415400D01*
X100574095Y-78415400D01*
X100652449Y-78423117D01*
X100652449Y-78423117D01*
G37*
G36*
X74831312Y-74259523D02*
X75349982Y-74474363D01*
X75816772Y-74786262D01*
X76213738Y-75183228D01*
X76525637Y-75650018D01*
X76740477Y-76168688D01*
X76850000Y-76719298D01*
X76850000Y-77280702D01*
X76740477Y-77831312D01*
X76525637Y-78349982D01*
X76213738Y-78816772D01*
X75816772Y-79213738D01*
X75349982Y-79525637D01*
X74831312Y-79740477D01*
X74280702Y-79850000D01*
X73719298Y-79850000D01*
X73168688Y-79740477D01*
X72650018Y-79525637D01*
X72183228Y-79213738D01*
X71786262Y-78816772D01*
X71474363Y-78349982D01*
X71259523Y-77831312D01*
X71150000Y-77280702D01*
X71150000Y-76719298D01*
X71259523Y-76168688D01*
X71474363Y-75650018D01*
X71786262Y-75183228D01*
X72183228Y-74786262D01*
X72650018Y-74474363D01*
X73168688Y-74259523D01*
X73719298Y-74150000D01*
X74280702Y-74150000D01*
X74831312Y-74259523D01*
X74831312Y-74259523D01*
G37*
G36*
X156831312Y-74259523D02*
X157349982Y-74474363D01*
X157816772Y-74786262D01*
X158213738Y-75183228D01*
X158525637Y-75650018D01*
X158740477Y-76168688D01*
X158850000Y-76719298D01*
X158850000Y-77280702D01*
X158740477Y-77831312D01*
X158525637Y-78349982D01*
X158213738Y-78816772D01*
X157816772Y-79213738D01*
X157349982Y-79525637D01*
X156831312Y-79740477D01*
X156280702Y-79850000D01*
X155719298Y-79850000D01*
X155168688Y-79740477D01*
X154650018Y-79525637D01*
X154183228Y-79213738D01*
X153786262Y-78816772D01*
X153474363Y-78349982D01*
X153259523Y-77831312D01*
X153150000Y-77280702D01*
X153150000Y-76719298D01*
X153259523Y-76168688D01*
X153474363Y-75650018D01*
X153786262Y-75183228D01*
X154183228Y-74786262D01*
X154650018Y-74474363D01*
X155168688Y-74259523D01*
X155719298Y-74150000D01*
X156280702Y-74150000D01*
X156831312Y-74259523D01*
X156831312Y-74259523D01*
G37*
G36*
X82035000Y-77050000D02*
X80335000Y-77050000D01*
X80335000Y-75350000D01*
X82035000Y-75350000D01*
X82035000Y-77050000D01*
X82035000Y-77050000D01*
G37*
G36*
X151886000Y-77050000D02*
X150186000Y-77050000D01*
X150186000Y-75350000D01*
X151886000Y-75350000D01*
X151886000Y-77050000D01*
X151886000Y-77050000D01*
G37*
G36*
X149346000Y-77050000D02*
X147646000Y-77050000D01*
X147646000Y-75350000D01*
X149346000Y-75350000D01*
X149346000Y-77050000D01*
X149346000Y-77050000D01*
G37*
G36*
X146806000Y-77050000D02*
X145106000Y-77050000D01*
X145106000Y-75350000D01*
X146806000Y-75350000D01*
X146806000Y-77050000D01*
X146806000Y-77050000D01*
G37*
G36*
X144266000Y-77050000D02*
X142566000Y-77050000D01*
X142566000Y-75350000D01*
X144266000Y-75350000D01*
X144266000Y-77050000D01*
X144266000Y-77050000D01*
G37*
G36*
X139400000Y-77050000D02*
X137700000Y-77050000D01*
X137700000Y-75350000D01*
X139400000Y-75350000D01*
X139400000Y-77050000D01*
X139400000Y-77050000D01*
G37*
G36*
X136860000Y-77050000D02*
X135160000Y-77050000D01*
X135160000Y-75350000D01*
X136860000Y-75350000D01*
X136860000Y-77050000D01*
X136860000Y-77050000D01*
G37*
G36*
X134320000Y-77050000D02*
X132620000Y-77050000D01*
X132620000Y-75350000D01*
X134320000Y-75350000D01*
X134320000Y-77050000D01*
X134320000Y-77050000D01*
G37*
G36*
X131780000Y-77050000D02*
X130080000Y-77050000D01*
X130080000Y-75350000D01*
X131780000Y-75350000D01*
X131780000Y-77050000D01*
X131780000Y-77050000D01*
G37*
G36*
X122620000Y-77050000D02*
X120920000Y-77050000D01*
X120920000Y-75350000D01*
X122620000Y-75350000D01*
X122620000Y-77050000D01*
X122620000Y-77050000D01*
G37*
G36*
X117540000Y-77050000D02*
X115840000Y-77050000D01*
X115840000Y-75350000D01*
X117540000Y-75350000D01*
X117540000Y-77050000D01*
X117540000Y-77050000D01*
G37*
G36*
X112460000Y-77050000D02*
X110760000Y-77050000D01*
X110760000Y-75350000D01*
X112460000Y-75350000D01*
X112460000Y-77050000D01*
X112460000Y-77050000D01*
G37*
G36*
X107380000Y-77050000D02*
X105680000Y-77050000D01*
X105680000Y-75350000D01*
X107380000Y-75350000D01*
X107380000Y-77050000D01*
X107380000Y-77050000D01*
G37*
G36*
X97275000Y-77050000D02*
X95575000Y-77050000D01*
X95575000Y-75350000D01*
X97275000Y-75350000D01*
X97275000Y-77050000D01*
X97275000Y-77050000D01*
G37*
G36*
X87115000Y-77050000D02*
X85415000Y-77050000D01*
X85415000Y-75350000D01*
X87115000Y-75350000D01*
X87115000Y-77050000D01*
X87115000Y-77050000D01*
G37*
G36*
X92195000Y-77050000D02*
X90495000Y-77050000D01*
X90495000Y-75350000D01*
X92195000Y-75350000D01*
X92195000Y-77050000D01*
X92195000Y-77050000D01*
G37*
M02*
