M48
;DRILL file {KiCad (5.0.2)-1} date 05/01/2020 18:08:39
;FORMAT={-:-/ absolute / metric / decimal}
FMAT,2
METRIC,TZ
T1C0.900
T2C1.000
T3C1.350
T4C1.400
%
G90
G05
T1
X134.72Y-84.27
X134.72Y-86.27
X134.72Y-88.27
X134.72Y-90.27
X147.22Y-84.27
X147.22Y-86.27
X147.22Y-88.27
X147.22Y-90.27
T2
X106.53Y-76.2
X136.01Y-76.2
X91.345Y-76.2
X96.425Y-76.2
X81.185Y-76.2
X116.69Y-76.2
X111.61Y-76.2
X148.496Y-76.2
X143.416Y-76.2
X145.956Y-76.2
X100.535Y-79.215
X100.535Y-86.835
X130.93Y-76.2
X151.036Y-76.2
X86.265Y-76.2
X138.55Y-76.2
X133.47Y-76.2
X121.77Y-76.2
T3
X132.Y-84.
X132.Y-91.
X137.44Y-84.
X137.44Y-91.
X144.5Y-84.
X144.5Y-91.
X149.94Y-84.
X149.94Y-91.
T4
X81.185Y-95.
X86.265Y-95.
X91.345Y-95.
X96.425Y-95.
X106.53Y-95.
X111.61Y-95.
X116.69Y-95.
X121.77Y-95.
T0
M30
