G04 #@! TF.GenerationSoftware,KiCad,Pcbnew,(5.0.2)-1*
G04 #@! TF.CreationDate,2019-10-01T18:53:06+02:00*
G04 #@! TF.ProjectId,EleLab_v2_PowerFeed,456c654c-6162-45f7-9632-5f506f776572,rev?*
G04 #@! TF.SameCoordinates,Original*
G04 #@! TF.FileFunction,Soldermask,Top*
G04 #@! TF.FilePolarity,Negative*
%FSLAX46Y46*%
G04 Gerber Fmt 4.6, Leading zero omitted, Abs format (unit mm)*
G04 Created by KiCad (PCBNEW (5.0.2)-1) date 01/10/2019 18:53:06*
%MOMM*%
%LPD*%
G01*
G04 APERTURE LIST*
%ADD10C,0.400000*%
%ADD11C,0.150000*%
%ADD12C,0.100000*%
G04 APERTURE END LIST*
D10*
X136881142Y-103735142D02*
X136881142Y-100735142D01*
X138024000Y-100735142D01*
X138309714Y-100878000D01*
X138452571Y-101020857D01*
X138595428Y-101306571D01*
X138595428Y-101735142D01*
X138452571Y-102020857D01*
X138309714Y-102163714D01*
X138024000Y-102306571D01*
X136881142Y-102306571D01*
X140309714Y-103735142D02*
X140024000Y-103592285D01*
X139881142Y-103449428D01*
X139738285Y-103163714D01*
X139738285Y-102306571D01*
X139881142Y-102020857D01*
X140024000Y-101878000D01*
X140309714Y-101735142D01*
X140738285Y-101735142D01*
X141024000Y-101878000D01*
X141166857Y-102020857D01*
X141309714Y-102306571D01*
X141309714Y-103163714D01*
X141166857Y-103449428D01*
X141024000Y-103592285D01*
X140738285Y-103735142D01*
X140309714Y-103735142D01*
X142309714Y-101735142D02*
X142881142Y-103735142D01*
X143452571Y-102306571D01*
X144024000Y-103735142D01*
X144595428Y-101735142D01*
X146881142Y-103592285D02*
X146595428Y-103735142D01*
X146024000Y-103735142D01*
X145738285Y-103592285D01*
X145595428Y-103306571D01*
X145595428Y-102163714D01*
X145738285Y-101878000D01*
X146024000Y-101735142D01*
X146595428Y-101735142D01*
X146881142Y-101878000D01*
X147024000Y-102163714D01*
X147024000Y-102449428D01*
X145595428Y-102735142D01*
X148309714Y-103735142D02*
X148309714Y-101735142D01*
X148309714Y-102306571D02*
X148452571Y-102020857D01*
X148595428Y-101878000D01*
X148881142Y-101735142D01*
X149166857Y-101735142D01*
X151166857Y-102163714D02*
X150166857Y-102163714D01*
X150166857Y-103735142D02*
X150166857Y-100735142D01*
X151595428Y-100735142D01*
X153881142Y-103592285D02*
X153595428Y-103735142D01*
X153024000Y-103735142D01*
X152738285Y-103592285D01*
X152595428Y-103306571D01*
X152595428Y-102163714D01*
X152738285Y-101878000D01*
X153024000Y-101735142D01*
X153595428Y-101735142D01*
X153881142Y-101878000D01*
X154024000Y-102163714D01*
X154024000Y-102449428D01*
X152595428Y-102735142D01*
X156452571Y-103592285D02*
X156166857Y-103735142D01*
X155595428Y-103735142D01*
X155309714Y-103592285D01*
X155166857Y-103306571D01*
X155166857Y-102163714D01*
X155309714Y-101878000D01*
X155595428Y-101735142D01*
X156166857Y-101735142D01*
X156452571Y-101878000D01*
X156595428Y-102163714D01*
X156595428Y-102449428D01*
X155166857Y-102735142D01*
X159166857Y-103735142D02*
X159166857Y-100735142D01*
X159166857Y-103592285D02*
X158881142Y-103735142D01*
X158309714Y-103735142D01*
X158024000Y-103592285D01*
X157881142Y-103449428D01*
X157738285Y-103163714D01*
X157738285Y-102306571D01*
X157881142Y-102020857D01*
X158024000Y-101878000D01*
X158309714Y-101735142D01*
X158881142Y-101735142D01*
X159166857Y-101878000D01*
X137666857Y-97663714D02*
X138666857Y-97663714D01*
X139095428Y-99235142D02*
X137666857Y-99235142D01*
X137666857Y-96235142D01*
X139095428Y-96235142D01*
X140809714Y-99235142D02*
X140524000Y-99092285D01*
X140381142Y-98806571D01*
X140381142Y-96235142D01*
X143095428Y-99092285D02*
X142809714Y-99235142D01*
X142238285Y-99235142D01*
X141952571Y-99092285D01*
X141809714Y-98806571D01*
X141809714Y-97663714D01*
X141952571Y-97378000D01*
X142238285Y-97235142D01*
X142809714Y-97235142D01*
X143095428Y-97378000D01*
X143238285Y-97663714D01*
X143238285Y-97949428D01*
X141809714Y-98235142D01*
X145952571Y-99235142D02*
X144524000Y-99235142D01*
X144524000Y-96235142D01*
X148238285Y-99235142D02*
X148238285Y-97663714D01*
X148095428Y-97378000D01*
X147809714Y-97235142D01*
X147238285Y-97235142D01*
X146952571Y-97378000D01*
X148238285Y-99092285D02*
X147952571Y-99235142D01*
X147238285Y-99235142D01*
X146952571Y-99092285D01*
X146809714Y-98806571D01*
X146809714Y-98520857D01*
X146952571Y-98235142D01*
X147238285Y-98092285D01*
X147952571Y-98092285D01*
X148238285Y-97949428D01*
X149666857Y-99235142D02*
X149666857Y-96235142D01*
X149666857Y-97378000D02*
X149952571Y-97235142D01*
X150524000Y-97235142D01*
X150809714Y-97378000D01*
X150952571Y-97520857D01*
X151095428Y-97806571D01*
X151095428Y-98663714D01*
X150952571Y-98949428D01*
X150809714Y-99092285D01*
X150524000Y-99235142D01*
X149952571Y-99235142D01*
X149666857Y-99092285D01*
X151666857Y-99520857D02*
X153952571Y-99520857D01*
X154381142Y-97235142D02*
X155095428Y-99235142D01*
X155809714Y-97235142D01*
X156809714Y-96520857D02*
X156952571Y-96378000D01*
X157238285Y-96235142D01*
X157952571Y-96235142D01*
X158238285Y-96378000D01*
X158381142Y-96520857D01*
X158524000Y-96806571D01*
X158524000Y-97092285D01*
X158381142Y-97520857D01*
X156666857Y-99235142D01*
X158524000Y-99235142D01*
D11*
G04 #@! TO.C,LO_1*
G36*
X133522800Y-111238400D02*
X150490000Y-111238400D01*
X150490000Y-106514000D01*
X133522800Y-106514000D01*
X133522800Y-111238400D01*
G37*
X133522800Y-111238400D02*
X150490000Y-111238400D01*
X150490000Y-106514000D01*
X133522800Y-106514000D01*
X133522800Y-111238400D01*
D12*
G36*
X135831312Y-124259523D02*
X136349982Y-124474363D01*
X136816772Y-124786262D01*
X137213738Y-125183228D01*
X137525637Y-125650018D01*
X137740477Y-126168688D01*
X137850000Y-126719298D01*
X137850000Y-127280702D01*
X137740477Y-127831312D01*
X137525637Y-128349982D01*
X137213738Y-128816772D01*
X136816772Y-129213738D01*
X136349982Y-129525637D01*
X135831312Y-129740477D01*
X135280702Y-129850000D01*
X134719298Y-129850000D01*
X134168688Y-129740477D01*
X133650018Y-129525637D01*
X133183228Y-129213738D01*
X132786262Y-128816772D01*
X132474363Y-128349982D01*
X132259523Y-127831312D01*
X132150000Y-127280702D01*
X132150000Y-126719298D01*
X132259523Y-126168688D01*
X132474363Y-125650018D01*
X132786262Y-125183228D01*
X133183228Y-124786262D01*
X133650018Y-124474363D01*
X134168688Y-124259523D01*
X134719298Y-124150000D01*
X135280702Y-124150000D01*
X135831312Y-124259523D01*
X135831312Y-124259523D01*
G37*
G36*
X194110443Y-126105519D02*
X194176627Y-126112037D01*
X194289853Y-126146384D01*
X194346467Y-126163557D01*
X194485087Y-126237652D01*
X194502991Y-126247222D01*
X194538729Y-126276552D01*
X194640186Y-126359814D01*
X194723448Y-126461271D01*
X194752778Y-126497009D01*
X194752779Y-126497011D01*
X194836443Y-126653533D01*
X194836443Y-126653534D01*
X194887963Y-126823373D01*
X194905359Y-127000000D01*
X194887963Y-127176627D01*
X194856393Y-127280701D01*
X194836443Y-127346467D01*
X194762348Y-127485087D01*
X194752778Y-127502991D01*
X194723448Y-127538729D01*
X194640186Y-127640186D01*
X194538729Y-127723448D01*
X194502991Y-127752778D01*
X194502989Y-127752779D01*
X194346467Y-127836443D01*
X194289853Y-127853616D01*
X194176627Y-127887963D01*
X194110442Y-127894482D01*
X194044260Y-127901000D01*
X193955740Y-127901000D01*
X193889558Y-127894482D01*
X193823373Y-127887963D01*
X193710147Y-127853616D01*
X193653533Y-127836443D01*
X193497011Y-127752779D01*
X193497009Y-127752778D01*
X193461271Y-127723448D01*
X193359814Y-127640186D01*
X193276552Y-127538729D01*
X193247222Y-127502991D01*
X193237652Y-127485087D01*
X193163557Y-127346467D01*
X193143607Y-127280701D01*
X193112037Y-127176627D01*
X193094641Y-127000000D01*
X193112037Y-126823373D01*
X193163557Y-126653534D01*
X193163557Y-126653533D01*
X193247221Y-126497011D01*
X193247222Y-126497009D01*
X193276552Y-126461271D01*
X193359814Y-126359814D01*
X193461271Y-126276552D01*
X193497009Y-126247222D01*
X193514913Y-126237652D01*
X193653533Y-126163557D01*
X193710147Y-126146384D01*
X193823373Y-126112037D01*
X193889557Y-126105519D01*
X193955740Y-126099000D01*
X194044260Y-126099000D01*
X194110443Y-126105519D01*
X194110443Y-126105519D01*
G37*
G36*
X192361000Y-127901000D02*
X190559000Y-127901000D01*
X190559000Y-126099000D01*
X192361000Y-126099000D01*
X192361000Y-127901000D01*
X192361000Y-127901000D01*
G37*
G36*
X194110442Y-123565518D02*
X194176627Y-123572037D01*
X194289853Y-123606384D01*
X194346467Y-123623557D01*
X194485087Y-123697652D01*
X194502991Y-123707222D01*
X194538729Y-123736552D01*
X194640186Y-123819814D01*
X194714800Y-123910733D01*
X194752778Y-123957009D01*
X194752779Y-123957011D01*
X194836443Y-124113533D01*
X194836443Y-124113534D01*
X194887963Y-124283373D01*
X194905359Y-124460000D01*
X194887963Y-124636627D01*
X194853616Y-124749853D01*
X194836443Y-124806467D01*
X194762348Y-124945087D01*
X194752778Y-124962991D01*
X194723448Y-124998729D01*
X194640186Y-125100186D01*
X194538998Y-125183228D01*
X194502991Y-125212778D01*
X194502989Y-125212779D01*
X194346467Y-125296443D01*
X194289853Y-125313616D01*
X194176627Y-125347963D01*
X194110442Y-125354482D01*
X194044260Y-125361000D01*
X193955740Y-125361000D01*
X193889558Y-125354482D01*
X193823373Y-125347963D01*
X193710147Y-125313616D01*
X193653533Y-125296443D01*
X193497011Y-125212779D01*
X193497009Y-125212778D01*
X193461002Y-125183228D01*
X193359814Y-125100186D01*
X193276552Y-124998729D01*
X193247222Y-124962991D01*
X193237652Y-124945087D01*
X193163557Y-124806467D01*
X193146384Y-124749853D01*
X193112037Y-124636627D01*
X193094641Y-124460000D01*
X193112037Y-124283373D01*
X193163557Y-124113534D01*
X193163557Y-124113533D01*
X193247221Y-123957011D01*
X193247222Y-123957009D01*
X193285200Y-123910733D01*
X193359814Y-123819814D01*
X193461271Y-123736552D01*
X193497009Y-123707222D01*
X193514913Y-123697652D01*
X193653533Y-123623557D01*
X193710147Y-123606384D01*
X193823373Y-123572037D01*
X193889558Y-123565518D01*
X193955740Y-123559000D01*
X194044260Y-123559000D01*
X194110442Y-123565518D01*
X194110442Y-123565518D01*
G37*
G36*
X191570442Y-123565518D02*
X191636627Y-123572037D01*
X191749853Y-123606384D01*
X191806467Y-123623557D01*
X191945087Y-123697652D01*
X191962991Y-123707222D01*
X191998729Y-123736552D01*
X192100186Y-123819814D01*
X192174800Y-123910733D01*
X192212778Y-123957009D01*
X192212779Y-123957011D01*
X192296443Y-124113533D01*
X192296443Y-124113534D01*
X192347963Y-124283373D01*
X192365359Y-124460000D01*
X192347963Y-124636627D01*
X192313616Y-124749853D01*
X192296443Y-124806467D01*
X192222348Y-124945087D01*
X192212778Y-124962991D01*
X192183448Y-124998729D01*
X192100186Y-125100186D01*
X191998998Y-125183228D01*
X191962991Y-125212778D01*
X191962989Y-125212779D01*
X191806467Y-125296443D01*
X191749853Y-125313616D01*
X191636627Y-125347963D01*
X191570442Y-125354482D01*
X191504260Y-125361000D01*
X191415740Y-125361000D01*
X191349558Y-125354482D01*
X191283373Y-125347963D01*
X191170147Y-125313616D01*
X191113533Y-125296443D01*
X190957011Y-125212779D01*
X190957009Y-125212778D01*
X190921002Y-125183228D01*
X190819814Y-125100186D01*
X190736552Y-124998729D01*
X190707222Y-124962991D01*
X190697652Y-124945087D01*
X190623557Y-124806467D01*
X190606384Y-124749853D01*
X190572037Y-124636627D01*
X190554641Y-124460000D01*
X190572037Y-124283373D01*
X190623557Y-124113534D01*
X190623557Y-124113533D01*
X190707221Y-123957011D01*
X190707222Y-123957009D01*
X190745200Y-123910733D01*
X190819814Y-123819814D01*
X190921271Y-123736552D01*
X190957009Y-123707222D01*
X190974913Y-123697652D01*
X191113533Y-123623557D01*
X191170147Y-123606384D01*
X191283373Y-123572037D01*
X191349558Y-123565518D01*
X191415740Y-123559000D01*
X191504260Y-123559000D01*
X191570442Y-123565518D01*
X191570442Y-123565518D01*
G37*
G36*
X158126643Y-121391272D02*
X158302702Y-121444679D01*
X158390733Y-121471383D01*
X158471861Y-121514747D01*
X158634119Y-121601475D01*
X158715877Y-121668573D01*
X158847450Y-121776550D01*
X158958123Y-121911407D01*
X159022525Y-121989880D01*
X159079581Y-122096625D01*
X159152617Y-122233266D01*
X159162688Y-122266466D01*
X159232728Y-122497356D01*
X159232728Y-122497358D01*
X159250006Y-122672778D01*
X159253000Y-122703182D01*
X159253000Y-123440817D01*
X159232728Y-123646643D01*
X159180197Y-123819814D01*
X159152617Y-123910734D01*
X159127882Y-123957009D01*
X159022525Y-124154120D01*
X158939521Y-124255259D01*
X158847450Y-124367450D01*
X158735259Y-124459521D01*
X158634120Y-124542525D01*
X158471862Y-124629253D01*
X158390734Y-124672617D01*
X158302703Y-124699321D01*
X158126644Y-124752728D01*
X157852000Y-124779778D01*
X157577357Y-124752728D01*
X157401298Y-124699321D01*
X157313267Y-124672617D01*
X157232139Y-124629253D01*
X157069881Y-124542525D01*
X156986826Y-124474363D01*
X156856550Y-124367450D01*
X156745877Y-124232593D01*
X156681475Y-124154120D01*
X156576118Y-123957009D01*
X156551383Y-123910734D01*
X156523803Y-123819814D01*
X156471272Y-123646644D01*
X156451000Y-123440818D01*
X156451000Y-122703183D01*
X156453995Y-122672779D01*
X156471272Y-122497359D01*
X156471272Y-122497357D01*
X156551383Y-122233268D01*
X156551383Y-122233267D01*
X156624420Y-122096625D01*
X156681475Y-121989881D01*
X156748573Y-121908123D01*
X156856550Y-121776550D01*
X156991407Y-121665877D01*
X157069880Y-121601475D01*
X157232138Y-121514747D01*
X157313266Y-121471383D01*
X157401297Y-121444679D01*
X157577356Y-121391272D01*
X157852000Y-121364222D01*
X158126643Y-121391272D01*
X158126643Y-121391272D01*
G37*
G36*
X141326643Y-121391272D02*
X141502702Y-121444679D01*
X141590733Y-121471383D01*
X141671861Y-121514747D01*
X141834119Y-121601475D01*
X141915877Y-121668573D01*
X142047450Y-121776550D01*
X142158123Y-121911407D01*
X142222525Y-121989880D01*
X142279581Y-122096625D01*
X142352617Y-122233266D01*
X142362688Y-122266466D01*
X142432728Y-122497356D01*
X142432728Y-122497358D01*
X142450006Y-122672778D01*
X142453000Y-122703182D01*
X142453000Y-123440817D01*
X142432728Y-123646643D01*
X142380197Y-123819814D01*
X142352617Y-123910734D01*
X142327882Y-123957009D01*
X142222525Y-124154120D01*
X142139521Y-124255259D01*
X142047450Y-124367450D01*
X141935259Y-124459521D01*
X141834120Y-124542525D01*
X141671862Y-124629253D01*
X141590734Y-124672617D01*
X141502703Y-124699321D01*
X141326644Y-124752728D01*
X141052000Y-124779778D01*
X140777357Y-124752728D01*
X140601298Y-124699321D01*
X140513267Y-124672617D01*
X140432139Y-124629253D01*
X140269881Y-124542525D01*
X140186826Y-124474363D01*
X140056550Y-124367450D01*
X139945877Y-124232593D01*
X139881475Y-124154120D01*
X139776118Y-123957009D01*
X139751383Y-123910734D01*
X139723803Y-123819814D01*
X139671272Y-123646644D01*
X139651000Y-123440818D01*
X139651000Y-122703183D01*
X139653995Y-122672779D01*
X139671272Y-122497359D01*
X139671272Y-122497357D01*
X139751383Y-122233268D01*
X139751383Y-122233267D01*
X139824420Y-122096625D01*
X139881475Y-121989881D01*
X139948573Y-121908123D01*
X140056550Y-121776550D01*
X140191407Y-121665877D01*
X140269880Y-121601475D01*
X140432138Y-121514747D01*
X140513266Y-121471383D01*
X140601297Y-121444679D01*
X140777356Y-121391272D01*
X141052000Y-121364222D01*
X141326643Y-121391272D01*
X141326643Y-121391272D01*
G37*
G36*
X149726643Y-121391272D02*
X149902702Y-121444679D01*
X149990733Y-121471383D01*
X150071861Y-121514747D01*
X150234119Y-121601475D01*
X150315877Y-121668573D01*
X150447450Y-121776550D01*
X150558123Y-121911407D01*
X150622525Y-121989880D01*
X150679581Y-122096625D01*
X150752617Y-122233266D01*
X150762688Y-122266466D01*
X150832728Y-122497356D01*
X150832728Y-122497358D01*
X150850006Y-122672778D01*
X150853000Y-122703182D01*
X150853000Y-123440817D01*
X150832728Y-123646643D01*
X150780197Y-123819814D01*
X150752617Y-123910734D01*
X150727882Y-123957009D01*
X150622525Y-124154120D01*
X150539521Y-124255259D01*
X150447450Y-124367450D01*
X150335259Y-124459521D01*
X150234120Y-124542525D01*
X150071862Y-124629253D01*
X149990734Y-124672617D01*
X149902703Y-124699321D01*
X149726644Y-124752728D01*
X149452000Y-124779778D01*
X149177357Y-124752728D01*
X149001298Y-124699321D01*
X148913267Y-124672617D01*
X148832139Y-124629253D01*
X148669881Y-124542525D01*
X148586826Y-124474363D01*
X148456550Y-124367450D01*
X148345877Y-124232593D01*
X148281475Y-124154120D01*
X148176118Y-123957009D01*
X148151383Y-123910734D01*
X148123803Y-123819814D01*
X148071272Y-123646644D01*
X148051000Y-123440818D01*
X148051000Y-122703183D01*
X148053995Y-122672779D01*
X148071272Y-122497359D01*
X148071272Y-122497357D01*
X148151383Y-122233268D01*
X148151383Y-122233267D01*
X148224420Y-122096625D01*
X148281475Y-121989881D01*
X148348573Y-121908123D01*
X148456550Y-121776550D01*
X148591407Y-121665877D01*
X148669880Y-121601475D01*
X148832138Y-121514747D01*
X148913266Y-121471383D01*
X149001297Y-121444679D01*
X149177356Y-121391272D01*
X149452000Y-121364222D01*
X149726643Y-121391272D01*
X149726643Y-121391272D01*
G37*
G36*
X153926643Y-121391272D02*
X154102702Y-121444679D01*
X154190733Y-121471383D01*
X154271861Y-121514747D01*
X154434119Y-121601475D01*
X154515877Y-121668573D01*
X154647450Y-121776550D01*
X154758123Y-121911407D01*
X154822525Y-121989880D01*
X154879581Y-122096625D01*
X154952617Y-122233266D01*
X154962688Y-122266466D01*
X155032728Y-122497356D01*
X155032728Y-122497358D01*
X155050006Y-122672778D01*
X155053000Y-122703182D01*
X155053000Y-123440817D01*
X155032728Y-123646643D01*
X154980197Y-123819814D01*
X154952617Y-123910734D01*
X154927882Y-123957009D01*
X154822525Y-124154120D01*
X154739521Y-124255259D01*
X154647450Y-124367450D01*
X154535259Y-124459521D01*
X154434120Y-124542525D01*
X154271862Y-124629253D01*
X154190734Y-124672617D01*
X154102703Y-124699321D01*
X153926644Y-124752728D01*
X153652000Y-124779778D01*
X153377357Y-124752728D01*
X153201298Y-124699321D01*
X153113267Y-124672617D01*
X153032139Y-124629253D01*
X152869881Y-124542525D01*
X152786826Y-124474363D01*
X152656550Y-124367450D01*
X152545877Y-124232593D01*
X152481475Y-124154120D01*
X152376118Y-123957009D01*
X152351383Y-123910734D01*
X152323803Y-123819814D01*
X152271272Y-123646644D01*
X152251000Y-123440818D01*
X152251000Y-122703183D01*
X152253995Y-122672779D01*
X152271272Y-122497359D01*
X152271272Y-122497357D01*
X152351383Y-122233268D01*
X152351383Y-122233267D01*
X152424420Y-122096625D01*
X152481475Y-121989881D01*
X152548573Y-121908123D01*
X152656550Y-121776550D01*
X152791407Y-121665877D01*
X152869880Y-121601475D01*
X153032138Y-121514747D01*
X153113266Y-121471383D01*
X153201297Y-121444679D01*
X153377356Y-121391272D01*
X153652000Y-121364222D01*
X153926643Y-121391272D01*
X153926643Y-121391272D01*
G37*
G36*
X162326643Y-121391272D02*
X162502702Y-121444679D01*
X162590733Y-121471383D01*
X162671861Y-121514747D01*
X162834119Y-121601475D01*
X162915877Y-121668573D01*
X163047450Y-121776550D01*
X163158123Y-121911407D01*
X163222525Y-121989880D01*
X163279581Y-122096625D01*
X163352617Y-122233266D01*
X163362688Y-122266466D01*
X163432728Y-122497356D01*
X163432728Y-122497358D01*
X163450006Y-122672778D01*
X163453000Y-122703182D01*
X163453000Y-123440817D01*
X163432728Y-123646643D01*
X163380197Y-123819814D01*
X163352617Y-123910734D01*
X163327882Y-123957009D01*
X163222525Y-124154120D01*
X163139521Y-124255259D01*
X163047450Y-124367450D01*
X162935259Y-124459521D01*
X162834120Y-124542525D01*
X162671862Y-124629253D01*
X162590734Y-124672617D01*
X162502703Y-124699321D01*
X162326644Y-124752728D01*
X162052000Y-124779778D01*
X161777357Y-124752728D01*
X161601298Y-124699321D01*
X161513267Y-124672617D01*
X161432139Y-124629253D01*
X161269881Y-124542525D01*
X161186826Y-124474363D01*
X161056550Y-124367450D01*
X160945877Y-124232593D01*
X160881475Y-124154120D01*
X160776118Y-123957009D01*
X160751383Y-123910734D01*
X160723803Y-123819814D01*
X160671272Y-123646644D01*
X160651000Y-123440818D01*
X160651000Y-122703183D01*
X160653995Y-122672779D01*
X160671272Y-122497359D01*
X160671272Y-122497357D01*
X160751383Y-122233268D01*
X160751383Y-122233267D01*
X160824420Y-122096625D01*
X160881475Y-121989881D01*
X160948573Y-121908123D01*
X161056550Y-121776550D01*
X161191407Y-121665877D01*
X161269880Y-121601475D01*
X161432138Y-121514747D01*
X161513266Y-121471383D01*
X161601297Y-121444679D01*
X161777356Y-121391272D01*
X162052000Y-121364222D01*
X162326643Y-121391272D01*
X162326643Y-121391272D01*
G37*
G36*
X166526643Y-121391272D02*
X166702702Y-121444679D01*
X166790733Y-121471383D01*
X166871861Y-121514747D01*
X167034119Y-121601475D01*
X167115877Y-121668573D01*
X167247450Y-121776550D01*
X167358123Y-121911407D01*
X167422525Y-121989880D01*
X167479581Y-122096625D01*
X167552617Y-122233266D01*
X167562688Y-122266466D01*
X167632728Y-122497356D01*
X167632728Y-122497358D01*
X167650006Y-122672778D01*
X167653000Y-122703182D01*
X167653000Y-123440817D01*
X167632728Y-123646643D01*
X167580197Y-123819814D01*
X167552617Y-123910734D01*
X167527882Y-123957009D01*
X167422525Y-124154120D01*
X167339521Y-124255259D01*
X167247450Y-124367450D01*
X167135259Y-124459521D01*
X167034120Y-124542525D01*
X166871862Y-124629253D01*
X166790734Y-124672617D01*
X166702703Y-124699321D01*
X166526644Y-124752728D01*
X166252000Y-124779778D01*
X165977357Y-124752728D01*
X165801298Y-124699321D01*
X165713267Y-124672617D01*
X165632139Y-124629253D01*
X165469881Y-124542525D01*
X165386826Y-124474363D01*
X165256550Y-124367450D01*
X165145877Y-124232593D01*
X165081475Y-124154120D01*
X164976118Y-123957009D01*
X164951383Y-123910734D01*
X164923803Y-123819814D01*
X164871272Y-123646644D01*
X164851000Y-123440818D01*
X164851000Y-122703183D01*
X164853995Y-122672779D01*
X164871272Y-122497359D01*
X164871272Y-122497357D01*
X164951383Y-122233268D01*
X164951383Y-122233267D01*
X165024420Y-122096625D01*
X165081475Y-121989881D01*
X165148573Y-121908123D01*
X165256550Y-121776550D01*
X165391407Y-121665877D01*
X165469880Y-121601475D01*
X165632138Y-121514747D01*
X165713266Y-121471383D01*
X165801297Y-121444679D01*
X165977356Y-121391272D01*
X166252000Y-121364222D01*
X166526643Y-121391272D01*
X166526643Y-121391272D01*
G37*
G36*
X170726643Y-121391272D02*
X170902702Y-121444679D01*
X170990733Y-121471383D01*
X171071861Y-121514747D01*
X171234119Y-121601475D01*
X171315877Y-121668573D01*
X171447450Y-121776550D01*
X171558123Y-121911407D01*
X171622525Y-121989880D01*
X171679581Y-122096625D01*
X171752617Y-122233266D01*
X171762688Y-122266466D01*
X171832728Y-122497356D01*
X171832728Y-122497358D01*
X171850006Y-122672778D01*
X171853000Y-122703182D01*
X171853000Y-123440817D01*
X171832728Y-123646643D01*
X171780197Y-123819814D01*
X171752617Y-123910734D01*
X171727882Y-123957009D01*
X171622525Y-124154120D01*
X171539521Y-124255259D01*
X171447450Y-124367450D01*
X171335259Y-124459521D01*
X171234120Y-124542525D01*
X171071862Y-124629253D01*
X170990734Y-124672617D01*
X170902703Y-124699321D01*
X170726644Y-124752728D01*
X170452000Y-124779778D01*
X170177357Y-124752728D01*
X170001298Y-124699321D01*
X169913267Y-124672617D01*
X169832139Y-124629253D01*
X169669881Y-124542525D01*
X169586826Y-124474363D01*
X169456550Y-124367450D01*
X169345877Y-124232593D01*
X169281475Y-124154120D01*
X169176118Y-123957009D01*
X169151383Y-123910734D01*
X169123803Y-123819814D01*
X169071272Y-123646644D01*
X169051000Y-123440818D01*
X169051000Y-122703183D01*
X169053995Y-122672779D01*
X169071272Y-122497359D01*
X169071272Y-122497357D01*
X169151383Y-122233268D01*
X169151383Y-122233267D01*
X169224420Y-122096625D01*
X169281475Y-121989881D01*
X169348573Y-121908123D01*
X169456550Y-121776550D01*
X169591407Y-121665877D01*
X169669880Y-121601475D01*
X169832138Y-121514747D01*
X169913266Y-121471383D01*
X170001297Y-121444679D01*
X170177356Y-121391272D01*
X170452000Y-121364222D01*
X170726643Y-121391272D01*
X170726643Y-121391272D01*
G37*
G36*
X145526643Y-121391272D02*
X145702702Y-121444679D01*
X145790733Y-121471383D01*
X145871861Y-121514747D01*
X146034119Y-121601475D01*
X146115877Y-121668573D01*
X146247450Y-121776550D01*
X146358123Y-121911407D01*
X146422525Y-121989880D01*
X146479581Y-122096625D01*
X146552617Y-122233266D01*
X146562688Y-122266466D01*
X146632728Y-122497356D01*
X146632728Y-122497358D01*
X146650006Y-122672778D01*
X146653000Y-122703182D01*
X146653000Y-123440817D01*
X146632728Y-123646643D01*
X146580197Y-123819814D01*
X146552617Y-123910734D01*
X146527882Y-123957009D01*
X146422525Y-124154120D01*
X146339521Y-124255259D01*
X146247450Y-124367450D01*
X146135259Y-124459521D01*
X146034120Y-124542525D01*
X145871862Y-124629253D01*
X145790734Y-124672617D01*
X145702703Y-124699321D01*
X145526644Y-124752728D01*
X145252000Y-124779778D01*
X144977357Y-124752728D01*
X144801298Y-124699321D01*
X144713267Y-124672617D01*
X144632139Y-124629253D01*
X144469881Y-124542525D01*
X144386826Y-124474363D01*
X144256550Y-124367450D01*
X144145877Y-124232593D01*
X144081475Y-124154120D01*
X143976118Y-123957009D01*
X143951383Y-123910734D01*
X143923803Y-123819814D01*
X143871272Y-123646644D01*
X143851000Y-123440818D01*
X143851000Y-122703183D01*
X143853995Y-122672779D01*
X143871272Y-122497359D01*
X143871272Y-122497357D01*
X143951383Y-122233268D01*
X143951383Y-122233267D01*
X144024420Y-122096625D01*
X144081475Y-121989881D01*
X144148573Y-121908123D01*
X144256550Y-121776550D01*
X144391407Y-121665877D01*
X144469880Y-121601475D01*
X144632138Y-121514747D01*
X144713266Y-121471383D01*
X144801297Y-121444679D01*
X144977356Y-121391272D01*
X145252000Y-121364222D01*
X145526643Y-121391272D01*
X145526643Y-121391272D01*
G37*
G36*
X179126643Y-121391272D02*
X179302702Y-121444679D01*
X179390733Y-121471383D01*
X179471861Y-121514747D01*
X179634119Y-121601475D01*
X179715877Y-121668573D01*
X179847450Y-121776550D01*
X179958123Y-121911407D01*
X180022525Y-121989880D01*
X180079581Y-122096625D01*
X180152617Y-122233266D01*
X180162688Y-122266466D01*
X180232728Y-122497356D01*
X180232728Y-122497358D01*
X180250006Y-122672778D01*
X180253000Y-122703182D01*
X180253000Y-123440817D01*
X180232728Y-123646643D01*
X180180197Y-123819814D01*
X180152617Y-123910734D01*
X180127882Y-123957009D01*
X180022525Y-124154120D01*
X179939521Y-124255259D01*
X179847450Y-124367450D01*
X179735259Y-124459521D01*
X179634120Y-124542525D01*
X179471862Y-124629253D01*
X179390734Y-124672617D01*
X179302703Y-124699321D01*
X179126644Y-124752728D01*
X178852000Y-124779778D01*
X178577357Y-124752728D01*
X178401298Y-124699321D01*
X178313267Y-124672617D01*
X178232139Y-124629253D01*
X178069881Y-124542525D01*
X177986826Y-124474363D01*
X177856550Y-124367450D01*
X177745877Y-124232593D01*
X177681475Y-124154120D01*
X177576118Y-123957009D01*
X177551383Y-123910734D01*
X177523803Y-123819814D01*
X177471272Y-123646644D01*
X177451000Y-123440818D01*
X177451000Y-122703183D01*
X177453995Y-122672779D01*
X177471272Y-122497359D01*
X177471272Y-122497357D01*
X177551383Y-122233268D01*
X177551383Y-122233267D01*
X177624420Y-122096625D01*
X177681475Y-121989881D01*
X177748573Y-121908123D01*
X177856550Y-121776550D01*
X177991407Y-121665877D01*
X178069880Y-121601475D01*
X178232138Y-121514747D01*
X178313266Y-121471383D01*
X178401297Y-121444679D01*
X178577356Y-121391272D01*
X178852000Y-121364222D01*
X179126643Y-121391272D01*
X179126643Y-121391272D01*
G37*
G36*
X183326643Y-121391272D02*
X183502702Y-121444679D01*
X183590733Y-121471383D01*
X183671861Y-121514747D01*
X183834119Y-121601475D01*
X183915877Y-121668573D01*
X184047450Y-121776550D01*
X184158123Y-121911407D01*
X184222525Y-121989880D01*
X184279581Y-122096625D01*
X184352617Y-122233266D01*
X184362688Y-122266466D01*
X184432728Y-122497356D01*
X184432728Y-122497358D01*
X184450006Y-122672778D01*
X184453000Y-122703182D01*
X184453000Y-123440817D01*
X184432728Y-123646643D01*
X184380197Y-123819814D01*
X184352617Y-123910734D01*
X184327882Y-123957009D01*
X184222525Y-124154120D01*
X184139521Y-124255259D01*
X184047450Y-124367450D01*
X183935259Y-124459521D01*
X183834120Y-124542525D01*
X183671862Y-124629253D01*
X183590734Y-124672617D01*
X183502703Y-124699321D01*
X183326644Y-124752728D01*
X183052000Y-124779778D01*
X182777357Y-124752728D01*
X182601298Y-124699321D01*
X182513267Y-124672617D01*
X182432139Y-124629253D01*
X182269881Y-124542525D01*
X182186826Y-124474363D01*
X182056550Y-124367450D01*
X181945877Y-124232593D01*
X181881475Y-124154120D01*
X181776118Y-123957009D01*
X181751383Y-123910734D01*
X181723803Y-123819814D01*
X181671272Y-123646644D01*
X181651000Y-123440818D01*
X181651000Y-122703183D01*
X181653995Y-122672779D01*
X181671272Y-122497359D01*
X181671272Y-122497357D01*
X181751383Y-122233268D01*
X181751383Y-122233267D01*
X181824420Y-122096625D01*
X181881475Y-121989881D01*
X181948573Y-121908123D01*
X182056550Y-121776550D01*
X182191407Y-121665877D01*
X182269880Y-121601475D01*
X182432138Y-121514747D01*
X182513266Y-121471383D01*
X182601297Y-121444679D01*
X182777356Y-121391272D01*
X183052000Y-121364222D01*
X183326643Y-121391272D01*
X183326643Y-121391272D01*
G37*
G36*
X187526643Y-121391272D02*
X187702702Y-121444679D01*
X187790733Y-121471383D01*
X187871861Y-121514747D01*
X188034119Y-121601475D01*
X188115877Y-121668573D01*
X188247450Y-121776550D01*
X188358123Y-121911407D01*
X188422525Y-121989880D01*
X188479581Y-122096625D01*
X188552617Y-122233266D01*
X188562688Y-122266466D01*
X188632728Y-122497356D01*
X188632728Y-122497358D01*
X188650006Y-122672778D01*
X188653000Y-122703182D01*
X188653000Y-123440817D01*
X188632728Y-123646643D01*
X188580197Y-123819814D01*
X188552617Y-123910734D01*
X188527882Y-123957009D01*
X188422525Y-124154120D01*
X188339521Y-124255259D01*
X188247450Y-124367450D01*
X188135259Y-124459521D01*
X188034120Y-124542525D01*
X187871862Y-124629253D01*
X187790734Y-124672617D01*
X187702703Y-124699321D01*
X187526644Y-124752728D01*
X187252000Y-124779778D01*
X186977357Y-124752728D01*
X186801298Y-124699321D01*
X186713267Y-124672617D01*
X186632139Y-124629253D01*
X186469881Y-124542525D01*
X186386826Y-124474363D01*
X186256550Y-124367450D01*
X186145877Y-124232593D01*
X186081475Y-124154120D01*
X185976118Y-123957009D01*
X185951383Y-123910734D01*
X185923803Y-123819814D01*
X185871272Y-123646644D01*
X185851000Y-123440818D01*
X185851000Y-122703183D01*
X185853995Y-122672779D01*
X185871272Y-122497359D01*
X185871272Y-122497357D01*
X185951383Y-122233268D01*
X185951383Y-122233267D01*
X186024420Y-122096625D01*
X186081475Y-121989881D01*
X186148573Y-121908123D01*
X186256550Y-121776550D01*
X186391407Y-121665877D01*
X186469880Y-121601475D01*
X186632138Y-121514747D01*
X186713266Y-121471383D01*
X186801297Y-121444679D01*
X186977356Y-121391272D01*
X187252000Y-121364222D01*
X187526643Y-121391272D01*
X187526643Y-121391272D01*
G37*
G36*
X174926643Y-121391272D02*
X175102702Y-121444679D01*
X175190733Y-121471383D01*
X175271861Y-121514747D01*
X175434119Y-121601475D01*
X175515877Y-121668573D01*
X175647450Y-121776550D01*
X175758123Y-121911407D01*
X175822525Y-121989880D01*
X175879581Y-122096625D01*
X175952617Y-122233266D01*
X175962688Y-122266466D01*
X176032728Y-122497356D01*
X176032728Y-122497358D01*
X176050006Y-122672778D01*
X176053000Y-122703182D01*
X176053000Y-123440817D01*
X176032728Y-123646643D01*
X175980197Y-123819814D01*
X175952617Y-123910734D01*
X175927882Y-123957009D01*
X175822525Y-124154120D01*
X175739521Y-124255259D01*
X175647450Y-124367450D01*
X175535259Y-124459521D01*
X175434120Y-124542525D01*
X175271862Y-124629253D01*
X175190734Y-124672617D01*
X175102703Y-124699321D01*
X174926644Y-124752728D01*
X174652000Y-124779778D01*
X174377357Y-124752728D01*
X174201298Y-124699321D01*
X174113267Y-124672617D01*
X174032139Y-124629253D01*
X173869881Y-124542525D01*
X173786826Y-124474363D01*
X173656550Y-124367450D01*
X173545877Y-124232593D01*
X173481475Y-124154120D01*
X173376118Y-123957009D01*
X173351383Y-123910734D01*
X173323803Y-123819814D01*
X173271272Y-123646644D01*
X173251000Y-123440818D01*
X173251000Y-122703183D01*
X173253995Y-122672779D01*
X173271272Y-122497359D01*
X173271272Y-122497357D01*
X173351383Y-122233268D01*
X173351383Y-122233267D01*
X173424420Y-122096625D01*
X173481475Y-121989881D01*
X173548573Y-121908123D01*
X173656550Y-121776550D01*
X173791407Y-121665877D01*
X173869880Y-121601475D01*
X174032138Y-121514747D01*
X174113266Y-121471383D01*
X174201297Y-121444679D01*
X174377356Y-121391272D01*
X174652000Y-121364222D01*
X174926643Y-121391272D01*
X174926643Y-121391272D01*
G37*
G36*
X194110442Y-121025518D02*
X194176627Y-121032037D01*
X194289853Y-121066384D01*
X194346467Y-121083557D01*
X194485087Y-121157652D01*
X194502991Y-121167222D01*
X194538729Y-121196552D01*
X194640186Y-121279814D01*
X194709457Y-121364222D01*
X194752778Y-121417009D01*
X194752779Y-121417011D01*
X194836443Y-121573533D01*
X194836443Y-121573534D01*
X194887963Y-121743373D01*
X194905359Y-121920000D01*
X194887963Y-122096627D01*
X194853616Y-122209853D01*
X194836443Y-122266467D01*
X194762348Y-122405087D01*
X194752778Y-122422991D01*
X194723448Y-122458729D01*
X194640186Y-122560186D01*
X194538729Y-122643448D01*
X194502991Y-122672778D01*
X194502989Y-122672779D01*
X194346467Y-122756443D01*
X194289853Y-122773616D01*
X194176627Y-122807963D01*
X194110443Y-122814481D01*
X194044260Y-122821000D01*
X193955740Y-122821000D01*
X193889557Y-122814481D01*
X193823373Y-122807963D01*
X193710147Y-122773616D01*
X193653533Y-122756443D01*
X193497011Y-122672779D01*
X193497009Y-122672778D01*
X193461271Y-122643448D01*
X193359814Y-122560186D01*
X193276552Y-122458729D01*
X193247222Y-122422991D01*
X193237652Y-122405087D01*
X193163557Y-122266467D01*
X193146384Y-122209853D01*
X193112037Y-122096627D01*
X193094641Y-121920000D01*
X193112037Y-121743373D01*
X193163557Y-121573534D01*
X193163557Y-121573533D01*
X193247221Y-121417011D01*
X193247222Y-121417009D01*
X193290543Y-121364222D01*
X193359814Y-121279814D01*
X193461271Y-121196552D01*
X193497009Y-121167222D01*
X193514913Y-121157652D01*
X193653533Y-121083557D01*
X193710147Y-121066384D01*
X193823373Y-121032037D01*
X193889558Y-121025518D01*
X193955740Y-121019000D01*
X194044260Y-121019000D01*
X194110442Y-121025518D01*
X194110442Y-121025518D01*
G37*
G36*
X191570442Y-121025518D02*
X191636627Y-121032037D01*
X191749853Y-121066384D01*
X191806467Y-121083557D01*
X191945087Y-121157652D01*
X191962991Y-121167222D01*
X191998729Y-121196552D01*
X192100186Y-121279814D01*
X192169457Y-121364222D01*
X192212778Y-121417009D01*
X192212779Y-121417011D01*
X192296443Y-121573533D01*
X192296443Y-121573534D01*
X192347963Y-121743373D01*
X192365359Y-121920000D01*
X192347963Y-122096627D01*
X192313616Y-122209853D01*
X192296443Y-122266467D01*
X192222348Y-122405087D01*
X192212778Y-122422991D01*
X192183448Y-122458729D01*
X192100186Y-122560186D01*
X191998729Y-122643448D01*
X191962991Y-122672778D01*
X191962989Y-122672779D01*
X191806467Y-122756443D01*
X191749853Y-122773616D01*
X191636627Y-122807963D01*
X191570443Y-122814481D01*
X191504260Y-122821000D01*
X191415740Y-122821000D01*
X191349557Y-122814481D01*
X191283373Y-122807963D01*
X191170147Y-122773616D01*
X191113533Y-122756443D01*
X190957011Y-122672779D01*
X190957009Y-122672778D01*
X190921271Y-122643448D01*
X190819814Y-122560186D01*
X190736552Y-122458729D01*
X190707222Y-122422991D01*
X190697652Y-122405087D01*
X190623557Y-122266467D01*
X190606384Y-122209853D01*
X190572037Y-122096627D01*
X190554641Y-121920000D01*
X190572037Y-121743373D01*
X190623557Y-121573534D01*
X190623557Y-121573533D01*
X190707221Y-121417011D01*
X190707222Y-121417009D01*
X190750543Y-121364222D01*
X190819814Y-121279814D01*
X190921271Y-121196552D01*
X190957009Y-121167222D01*
X190974913Y-121157652D01*
X191113533Y-121083557D01*
X191170147Y-121066384D01*
X191283373Y-121032037D01*
X191349558Y-121025518D01*
X191415740Y-121019000D01*
X191504260Y-121019000D01*
X191570442Y-121025518D01*
X191570442Y-121025518D01*
G37*
G36*
X162326643Y-117191272D02*
X162493619Y-117241924D01*
X162590733Y-117271383D01*
X162642335Y-117298965D01*
X162834119Y-117401475D01*
X162915877Y-117468573D01*
X163047450Y-117576550D01*
X163158123Y-117711407D01*
X163222525Y-117789880D01*
X163299964Y-117934760D01*
X163352617Y-118033266D01*
X163366019Y-118077447D01*
X163432728Y-118297356D01*
X163453000Y-118503182D01*
X163453000Y-119240817D01*
X163432728Y-119446643D01*
X163379321Y-119622703D01*
X163352617Y-119710734D01*
X163329031Y-119754860D01*
X163222525Y-119954120D01*
X163139521Y-120055259D01*
X163047450Y-120167450D01*
X162935259Y-120259521D01*
X162834120Y-120342525D01*
X162711579Y-120408024D01*
X162590734Y-120472617D01*
X162511422Y-120496676D01*
X162326644Y-120552728D01*
X162052000Y-120579778D01*
X161777357Y-120552728D01*
X161592579Y-120496676D01*
X161513267Y-120472617D01*
X161392422Y-120408024D01*
X161269881Y-120342525D01*
X161188123Y-120275427D01*
X161056550Y-120167450D01*
X160935694Y-120020185D01*
X160881475Y-119954120D01*
X160774969Y-119754860D01*
X160751383Y-119710734D01*
X160701931Y-119547712D01*
X160671272Y-119446644D01*
X160651000Y-119240818D01*
X160651000Y-118503183D01*
X160671272Y-118297357D01*
X160751383Y-118033268D01*
X160751383Y-118033267D01*
X160811391Y-117921000D01*
X160881475Y-117789881D01*
X160948573Y-117708123D01*
X161056550Y-117576550D01*
X161191407Y-117465877D01*
X161269880Y-117401475D01*
X161461664Y-117298965D01*
X161513266Y-117271383D01*
X161610380Y-117241924D01*
X161777356Y-117191272D01*
X162052000Y-117164222D01*
X162326643Y-117191272D01*
X162326643Y-117191272D01*
G37*
G36*
X187526643Y-117191272D02*
X187693619Y-117241924D01*
X187790733Y-117271383D01*
X187842335Y-117298965D01*
X188034119Y-117401475D01*
X188115877Y-117468573D01*
X188247450Y-117576550D01*
X188358123Y-117711407D01*
X188422525Y-117789880D01*
X188499964Y-117934760D01*
X188552617Y-118033266D01*
X188566019Y-118077447D01*
X188632728Y-118297356D01*
X188653000Y-118503182D01*
X188653000Y-119240817D01*
X188632728Y-119446643D01*
X188579321Y-119622703D01*
X188552617Y-119710734D01*
X188529031Y-119754860D01*
X188422525Y-119954120D01*
X188339521Y-120055259D01*
X188247450Y-120167450D01*
X188135259Y-120259521D01*
X188034120Y-120342525D01*
X187911579Y-120408024D01*
X187790734Y-120472617D01*
X187711422Y-120496676D01*
X187526644Y-120552728D01*
X187252000Y-120579778D01*
X186977357Y-120552728D01*
X186792579Y-120496676D01*
X186713267Y-120472617D01*
X186592422Y-120408024D01*
X186469881Y-120342525D01*
X186388123Y-120275427D01*
X186256550Y-120167450D01*
X186135694Y-120020185D01*
X186081475Y-119954120D01*
X185974969Y-119754860D01*
X185951383Y-119710734D01*
X185901931Y-119547712D01*
X185871272Y-119446644D01*
X185851000Y-119240818D01*
X185851000Y-118503183D01*
X185871272Y-118297357D01*
X185951383Y-118033268D01*
X185951383Y-118033267D01*
X186011391Y-117921000D01*
X186081475Y-117789881D01*
X186148573Y-117708123D01*
X186256550Y-117576550D01*
X186391407Y-117465877D01*
X186469880Y-117401475D01*
X186661664Y-117298965D01*
X186713266Y-117271383D01*
X186810380Y-117241924D01*
X186977356Y-117191272D01*
X187252000Y-117164222D01*
X187526643Y-117191272D01*
X187526643Y-117191272D01*
G37*
G36*
X145526643Y-117191272D02*
X145693619Y-117241924D01*
X145790733Y-117271383D01*
X145842335Y-117298965D01*
X146034119Y-117401475D01*
X146115877Y-117468573D01*
X146247450Y-117576550D01*
X146358123Y-117711407D01*
X146422525Y-117789880D01*
X146499964Y-117934760D01*
X146552617Y-118033266D01*
X146566019Y-118077447D01*
X146632728Y-118297356D01*
X146653000Y-118503182D01*
X146653000Y-119240817D01*
X146632728Y-119446643D01*
X146579321Y-119622703D01*
X146552617Y-119710734D01*
X146529031Y-119754860D01*
X146422525Y-119954120D01*
X146339521Y-120055259D01*
X146247450Y-120167450D01*
X146135259Y-120259521D01*
X146034120Y-120342525D01*
X145911579Y-120408024D01*
X145790734Y-120472617D01*
X145711422Y-120496676D01*
X145526644Y-120552728D01*
X145252000Y-120579778D01*
X144977357Y-120552728D01*
X144792579Y-120496676D01*
X144713267Y-120472617D01*
X144592422Y-120408024D01*
X144469881Y-120342525D01*
X144388123Y-120275427D01*
X144256550Y-120167450D01*
X144135694Y-120020185D01*
X144081475Y-119954120D01*
X143974969Y-119754860D01*
X143951383Y-119710734D01*
X143901931Y-119547712D01*
X143871272Y-119446644D01*
X143851000Y-119240818D01*
X143851000Y-118503183D01*
X143871272Y-118297357D01*
X143951383Y-118033268D01*
X143951383Y-118033267D01*
X144011391Y-117921000D01*
X144081475Y-117789881D01*
X144148573Y-117708123D01*
X144256550Y-117576550D01*
X144391407Y-117465877D01*
X144469880Y-117401475D01*
X144661664Y-117298965D01*
X144713266Y-117271383D01*
X144810380Y-117241924D01*
X144977356Y-117191272D01*
X145252000Y-117164222D01*
X145526643Y-117191272D01*
X145526643Y-117191272D01*
G37*
G36*
X149726643Y-117191272D02*
X149893619Y-117241924D01*
X149990733Y-117271383D01*
X150042335Y-117298965D01*
X150234119Y-117401475D01*
X150315877Y-117468573D01*
X150447450Y-117576550D01*
X150558123Y-117711407D01*
X150622525Y-117789880D01*
X150699964Y-117934760D01*
X150752617Y-118033266D01*
X150766019Y-118077447D01*
X150832728Y-118297356D01*
X150853000Y-118503182D01*
X150853000Y-119240817D01*
X150832728Y-119446643D01*
X150779321Y-119622703D01*
X150752617Y-119710734D01*
X150729031Y-119754860D01*
X150622525Y-119954120D01*
X150539521Y-120055259D01*
X150447450Y-120167450D01*
X150335259Y-120259521D01*
X150234120Y-120342525D01*
X150111579Y-120408024D01*
X149990734Y-120472617D01*
X149911422Y-120496676D01*
X149726644Y-120552728D01*
X149452000Y-120579778D01*
X149177357Y-120552728D01*
X148992579Y-120496676D01*
X148913267Y-120472617D01*
X148792422Y-120408024D01*
X148669881Y-120342525D01*
X148588123Y-120275427D01*
X148456550Y-120167450D01*
X148335694Y-120020185D01*
X148281475Y-119954120D01*
X148174969Y-119754860D01*
X148151383Y-119710734D01*
X148101931Y-119547712D01*
X148071272Y-119446644D01*
X148051000Y-119240818D01*
X148051000Y-118503183D01*
X148071272Y-118297357D01*
X148151383Y-118033268D01*
X148151383Y-118033267D01*
X148211391Y-117921000D01*
X148281475Y-117789881D01*
X148348573Y-117708123D01*
X148456550Y-117576550D01*
X148591407Y-117465877D01*
X148669880Y-117401475D01*
X148861664Y-117298965D01*
X148913266Y-117271383D01*
X149010380Y-117241924D01*
X149177356Y-117191272D01*
X149452000Y-117164222D01*
X149726643Y-117191272D01*
X149726643Y-117191272D01*
G37*
G36*
X153926643Y-117191272D02*
X154093619Y-117241924D01*
X154190733Y-117271383D01*
X154242335Y-117298965D01*
X154434119Y-117401475D01*
X154515877Y-117468573D01*
X154647450Y-117576550D01*
X154758123Y-117711407D01*
X154822525Y-117789880D01*
X154899964Y-117934760D01*
X154952617Y-118033266D01*
X154966019Y-118077447D01*
X155032728Y-118297356D01*
X155053000Y-118503182D01*
X155053000Y-119240817D01*
X155032728Y-119446643D01*
X154979321Y-119622703D01*
X154952617Y-119710734D01*
X154929031Y-119754860D01*
X154822525Y-119954120D01*
X154739521Y-120055259D01*
X154647450Y-120167450D01*
X154535259Y-120259521D01*
X154434120Y-120342525D01*
X154311579Y-120408024D01*
X154190734Y-120472617D01*
X154111422Y-120496676D01*
X153926644Y-120552728D01*
X153652000Y-120579778D01*
X153377357Y-120552728D01*
X153192579Y-120496676D01*
X153113267Y-120472617D01*
X152992422Y-120408024D01*
X152869881Y-120342525D01*
X152788123Y-120275427D01*
X152656550Y-120167450D01*
X152535694Y-120020185D01*
X152481475Y-119954120D01*
X152374969Y-119754860D01*
X152351383Y-119710734D01*
X152301931Y-119547712D01*
X152271272Y-119446644D01*
X152251000Y-119240818D01*
X152251000Y-118503183D01*
X152271272Y-118297357D01*
X152351383Y-118033268D01*
X152351383Y-118033267D01*
X152411391Y-117921000D01*
X152481475Y-117789881D01*
X152548573Y-117708123D01*
X152656550Y-117576550D01*
X152791407Y-117465877D01*
X152869880Y-117401475D01*
X153061664Y-117298965D01*
X153113266Y-117271383D01*
X153210380Y-117241924D01*
X153377356Y-117191272D01*
X153652000Y-117164222D01*
X153926643Y-117191272D01*
X153926643Y-117191272D01*
G37*
G36*
X170726643Y-117191272D02*
X170893619Y-117241924D01*
X170990733Y-117271383D01*
X171042335Y-117298965D01*
X171234119Y-117401475D01*
X171315877Y-117468573D01*
X171447450Y-117576550D01*
X171558123Y-117711407D01*
X171622525Y-117789880D01*
X171699964Y-117934760D01*
X171752617Y-118033266D01*
X171766019Y-118077447D01*
X171832728Y-118297356D01*
X171853000Y-118503182D01*
X171853000Y-119240817D01*
X171832728Y-119446643D01*
X171779321Y-119622703D01*
X171752617Y-119710734D01*
X171729031Y-119754860D01*
X171622525Y-119954120D01*
X171539521Y-120055259D01*
X171447450Y-120167450D01*
X171335259Y-120259521D01*
X171234120Y-120342525D01*
X171111579Y-120408024D01*
X170990734Y-120472617D01*
X170911422Y-120496676D01*
X170726644Y-120552728D01*
X170452000Y-120579778D01*
X170177357Y-120552728D01*
X169992579Y-120496676D01*
X169913267Y-120472617D01*
X169792422Y-120408024D01*
X169669881Y-120342525D01*
X169588123Y-120275427D01*
X169456550Y-120167450D01*
X169335694Y-120020185D01*
X169281475Y-119954120D01*
X169174969Y-119754860D01*
X169151383Y-119710734D01*
X169101931Y-119547712D01*
X169071272Y-119446644D01*
X169051000Y-119240818D01*
X169051000Y-118503183D01*
X169071272Y-118297357D01*
X169151383Y-118033268D01*
X169151383Y-118033267D01*
X169211391Y-117921000D01*
X169281475Y-117789881D01*
X169348573Y-117708123D01*
X169456550Y-117576550D01*
X169591407Y-117465877D01*
X169669880Y-117401475D01*
X169861664Y-117298965D01*
X169913266Y-117271383D01*
X170010380Y-117241924D01*
X170177356Y-117191272D01*
X170452000Y-117164222D01*
X170726643Y-117191272D01*
X170726643Y-117191272D01*
G37*
G36*
X183326643Y-117191272D02*
X183493619Y-117241924D01*
X183590733Y-117271383D01*
X183642335Y-117298965D01*
X183834119Y-117401475D01*
X183915877Y-117468573D01*
X184047450Y-117576550D01*
X184158123Y-117711407D01*
X184222525Y-117789880D01*
X184299964Y-117934760D01*
X184352617Y-118033266D01*
X184366019Y-118077447D01*
X184432728Y-118297356D01*
X184453000Y-118503182D01*
X184453000Y-119240817D01*
X184432728Y-119446643D01*
X184379321Y-119622703D01*
X184352617Y-119710734D01*
X184329031Y-119754860D01*
X184222525Y-119954120D01*
X184139521Y-120055259D01*
X184047450Y-120167450D01*
X183935259Y-120259521D01*
X183834120Y-120342525D01*
X183711579Y-120408024D01*
X183590734Y-120472617D01*
X183511422Y-120496676D01*
X183326644Y-120552728D01*
X183052000Y-120579778D01*
X182777357Y-120552728D01*
X182592579Y-120496676D01*
X182513267Y-120472617D01*
X182392422Y-120408024D01*
X182269881Y-120342525D01*
X182188123Y-120275427D01*
X182056550Y-120167450D01*
X181935694Y-120020185D01*
X181881475Y-119954120D01*
X181774969Y-119754860D01*
X181751383Y-119710734D01*
X181701931Y-119547712D01*
X181671272Y-119446644D01*
X181651000Y-119240818D01*
X181651000Y-118503183D01*
X181671272Y-118297357D01*
X181751383Y-118033268D01*
X181751383Y-118033267D01*
X181811391Y-117921000D01*
X181881475Y-117789881D01*
X181948573Y-117708123D01*
X182056550Y-117576550D01*
X182191407Y-117465877D01*
X182269880Y-117401475D01*
X182461664Y-117298965D01*
X182513266Y-117271383D01*
X182610380Y-117241924D01*
X182777356Y-117191272D01*
X183052000Y-117164222D01*
X183326643Y-117191272D01*
X183326643Y-117191272D01*
G37*
G36*
X166526643Y-117191272D02*
X166693619Y-117241924D01*
X166790733Y-117271383D01*
X166842335Y-117298965D01*
X167034119Y-117401475D01*
X167115877Y-117468573D01*
X167247450Y-117576550D01*
X167358123Y-117711407D01*
X167422525Y-117789880D01*
X167499964Y-117934760D01*
X167552617Y-118033266D01*
X167566019Y-118077447D01*
X167632728Y-118297356D01*
X167653000Y-118503182D01*
X167653000Y-119240817D01*
X167632728Y-119446643D01*
X167579321Y-119622703D01*
X167552617Y-119710734D01*
X167529031Y-119754860D01*
X167422525Y-119954120D01*
X167339521Y-120055259D01*
X167247450Y-120167450D01*
X167135259Y-120259521D01*
X167034120Y-120342525D01*
X166911579Y-120408024D01*
X166790734Y-120472617D01*
X166711422Y-120496676D01*
X166526644Y-120552728D01*
X166252000Y-120579778D01*
X165977357Y-120552728D01*
X165792579Y-120496676D01*
X165713267Y-120472617D01*
X165592422Y-120408024D01*
X165469881Y-120342525D01*
X165388123Y-120275427D01*
X165256550Y-120167450D01*
X165135694Y-120020185D01*
X165081475Y-119954120D01*
X164974969Y-119754860D01*
X164951383Y-119710734D01*
X164901931Y-119547712D01*
X164871272Y-119446644D01*
X164851000Y-119240818D01*
X164851000Y-118503183D01*
X164871272Y-118297357D01*
X164951383Y-118033268D01*
X164951383Y-118033267D01*
X165011391Y-117921000D01*
X165081475Y-117789881D01*
X165148573Y-117708123D01*
X165256550Y-117576550D01*
X165391407Y-117465877D01*
X165469880Y-117401475D01*
X165661664Y-117298965D01*
X165713266Y-117271383D01*
X165810380Y-117241924D01*
X165977356Y-117191272D01*
X166252000Y-117164222D01*
X166526643Y-117191272D01*
X166526643Y-117191272D01*
G37*
G36*
X158126643Y-117191272D02*
X158293619Y-117241924D01*
X158390733Y-117271383D01*
X158442335Y-117298965D01*
X158634119Y-117401475D01*
X158715877Y-117468573D01*
X158847450Y-117576550D01*
X158958123Y-117711407D01*
X159022525Y-117789880D01*
X159099964Y-117934760D01*
X159152617Y-118033266D01*
X159166019Y-118077447D01*
X159232728Y-118297356D01*
X159253000Y-118503182D01*
X159253000Y-119240817D01*
X159232728Y-119446643D01*
X159179321Y-119622703D01*
X159152617Y-119710734D01*
X159129031Y-119754860D01*
X159022525Y-119954120D01*
X158939521Y-120055259D01*
X158847450Y-120167450D01*
X158735259Y-120259521D01*
X158634120Y-120342525D01*
X158511579Y-120408024D01*
X158390734Y-120472617D01*
X158311422Y-120496676D01*
X158126644Y-120552728D01*
X157852000Y-120579778D01*
X157577357Y-120552728D01*
X157392579Y-120496676D01*
X157313267Y-120472617D01*
X157192422Y-120408024D01*
X157069881Y-120342525D01*
X156988123Y-120275427D01*
X156856550Y-120167450D01*
X156735694Y-120020185D01*
X156681475Y-119954120D01*
X156574969Y-119754860D01*
X156551383Y-119710734D01*
X156501931Y-119547712D01*
X156471272Y-119446644D01*
X156451000Y-119240818D01*
X156451000Y-118503183D01*
X156471272Y-118297357D01*
X156551383Y-118033268D01*
X156551383Y-118033267D01*
X156611391Y-117921000D01*
X156681475Y-117789881D01*
X156748573Y-117708123D01*
X156856550Y-117576550D01*
X156991407Y-117465877D01*
X157069880Y-117401475D01*
X157261664Y-117298965D01*
X157313266Y-117271383D01*
X157410380Y-117241924D01*
X157577356Y-117191272D01*
X157852000Y-117164222D01*
X158126643Y-117191272D01*
X158126643Y-117191272D01*
G37*
G36*
X142325035Y-117174645D02*
X142354712Y-117183648D01*
X142382076Y-117198274D01*
X142406050Y-117217950D01*
X142425726Y-117241924D01*
X142440352Y-117269288D01*
X142449355Y-117298965D01*
X142453000Y-117335976D01*
X142453000Y-120408024D01*
X142449355Y-120445035D01*
X142440352Y-120474712D01*
X142425726Y-120502076D01*
X142406050Y-120526050D01*
X142382076Y-120545726D01*
X142354712Y-120560352D01*
X142325035Y-120569355D01*
X142288024Y-120573000D01*
X139815976Y-120573000D01*
X139778965Y-120569355D01*
X139749288Y-120560352D01*
X139721924Y-120545726D01*
X139697950Y-120526050D01*
X139678274Y-120502076D01*
X139663648Y-120474712D01*
X139654645Y-120445035D01*
X139651000Y-120408024D01*
X139651000Y-117335976D01*
X139654645Y-117298965D01*
X139663648Y-117269288D01*
X139678274Y-117241924D01*
X139697950Y-117217950D01*
X139721924Y-117198274D01*
X139749288Y-117183648D01*
X139778965Y-117174645D01*
X139815976Y-117171000D01*
X142288024Y-117171000D01*
X142325035Y-117174645D01*
X142325035Y-117174645D01*
G37*
G36*
X191570442Y-118485518D02*
X191636627Y-118492037D01*
X191749853Y-118526384D01*
X191806467Y-118543557D01*
X191945087Y-118617652D01*
X191962991Y-118627222D01*
X191998729Y-118656552D01*
X192100186Y-118739814D01*
X192183448Y-118841271D01*
X192212778Y-118877009D01*
X192212779Y-118877011D01*
X192296443Y-119033533D01*
X192296443Y-119033534D01*
X192347963Y-119203373D01*
X192365359Y-119380000D01*
X192347963Y-119556627D01*
X192314618Y-119666552D01*
X192296443Y-119726467D01*
X192281267Y-119754859D01*
X192212778Y-119882991D01*
X192183448Y-119918729D01*
X192100186Y-120020186D01*
X191998729Y-120103448D01*
X191962991Y-120132778D01*
X191962989Y-120132779D01*
X191806467Y-120216443D01*
X191749853Y-120233616D01*
X191636627Y-120267963D01*
X191570442Y-120274482D01*
X191504260Y-120281000D01*
X191415740Y-120281000D01*
X191349558Y-120274482D01*
X191283373Y-120267963D01*
X191170147Y-120233616D01*
X191113533Y-120216443D01*
X190957011Y-120132779D01*
X190957009Y-120132778D01*
X190921271Y-120103448D01*
X190819814Y-120020186D01*
X190736552Y-119918729D01*
X190707222Y-119882991D01*
X190638733Y-119754859D01*
X190623557Y-119726467D01*
X190605382Y-119666552D01*
X190572037Y-119556627D01*
X190554641Y-119380000D01*
X190572037Y-119203373D01*
X190623557Y-119033534D01*
X190623557Y-119033533D01*
X190707221Y-118877011D01*
X190707222Y-118877009D01*
X190736552Y-118841271D01*
X190819814Y-118739814D01*
X190921271Y-118656552D01*
X190957009Y-118627222D01*
X190974913Y-118617652D01*
X191113533Y-118543557D01*
X191170147Y-118526384D01*
X191283373Y-118492037D01*
X191349558Y-118485518D01*
X191415740Y-118479000D01*
X191504260Y-118479000D01*
X191570442Y-118485518D01*
X191570442Y-118485518D01*
G37*
G36*
X194110442Y-118485518D02*
X194176627Y-118492037D01*
X194289853Y-118526384D01*
X194346467Y-118543557D01*
X194485087Y-118617652D01*
X194502991Y-118627222D01*
X194538729Y-118656552D01*
X194640186Y-118739814D01*
X194723448Y-118841271D01*
X194752778Y-118877009D01*
X194752779Y-118877011D01*
X194836443Y-119033533D01*
X194836443Y-119033534D01*
X194887963Y-119203373D01*
X194905359Y-119380000D01*
X194887963Y-119556627D01*
X194854618Y-119666552D01*
X194836443Y-119726467D01*
X194821267Y-119754859D01*
X194752778Y-119882991D01*
X194723448Y-119918729D01*
X194640186Y-120020186D01*
X194538729Y-120103448D01*
X194502991Y-120132778D01*
X194502989Y-120132779D01*
X194346467Y-120216443D01*
X194289853Y-120233616D01*
X194176627Y-120267963D01*
X194110442Y-120274482D01*
X194044260Y-120281000D01*
X193955740Y-120281000D01*
X193889558Y-120274482D01*
X193823373Y-120267963D01*
X193710147Y-120233616D01*
X193653533Y-120216443D01*
X193497011Y-120132779D01*
X193497009Y-120132778D01*
X193461271Y-120103448D01*
X193359814Y-120020186D01*
X193276552Y-119918729D01*
X193247222Y-119882991D01*
X193178733Y-119754859D01*
X193163557Y-119726467D01*
X193145382Y-119666552D01*
X193112037Y-119556627D01*
X193094641Y-119380000D01*
X193112037Y-119203373D01*
X193163557Y-119033534D01*
X193163557Y-119033533D01*
X193247221Y-118877011D01*
X193247222Y-118877009D01*
X193276552Y-118841271D01*
X193359814Y-118739814D01*
X193461271Y-118656552D01*
X193497009Y-118627222D01*
X193514913Y-118617652D01*
X193653533Y-118543557D01*
X193710147Y-118526384D01*
X193823373Y-118492037D01*
X193889558Y-118485518D01*
X193955740Y-118479000D01*
X194044260Y-118479000D01*
X194110442Y-118485518D01*
X194110442Y-118485518D01*
G37*
G36*
X174838425Y-117934760D02*
X174838428Y-117934761D01*
X174838429Y-117934761D01*
X175017693Y-117989140D01*
X175017695Y-117989141D01*
X175182905Y-118077448D01*
X175327712Y-118196288D01*
X175446552Y-118341095D01*
X175533189Y-118503180D01*
X175534860Y-118506307D01*
X175571539Y-118627222D01*
X175589240Y-118685575D01*
X175607601Y-118872000D01*
X175589240Y-119058425D01*
X175589239Y-119058428D01*
X175589239Y-119058429D01*
X175545271Y-119203373D01*
X175534859Y-119237695D01*
X175446552Y-119402905D01*
X175327712Y-119547712D01*
X175182905Y-119666552D01*
X175100247Y-119710734D01*
X175017693Y-119754860D01*
X174838429Y-119809239D01*
X174838428Y-119809239D01*
X174838425Y-119809240D01*
X174698718Y-119823000D01*
X174605282Y-119823000D01*
X174465575Y-119809240D01*
X174465572Y-119809239D01*
X174465571Y-119809239D01*
X174286307Y-119754860D01*
X174203753Y-119710734D01*
X174121095Y-119666552D01*
X173976288Y-119547712D01*
X173857448Y-119402905D01*
X173769141Y-119237695D01*
X173758730Y-119203373D01*
X173714761Y-119058429D01*
X173714761Y-119058428D01*
X173714760Y-119058425D01*
X173696399Y-118872000D01*
X173714760Y-118685575D01*
X173732461Y-118627222D01*
X173769140Y-118506307D01*
X173770811Y-118503180D01*
X173857448Y-118341095D01*
X173976288Y-118196288D01*
X174121095Y-118077448D01*
X174286305Y-117989141D01*
X174286307Y-117989140D01*
X174465571Y-117934761D01*
X174465572Y-117934761D01*
X174465575Y-117934760D01*
X174605282Y-117921000D01*
X174698718Y-117921000D01*
X174838425Y-117934760D01*
X174838425Y-117934760D01*
G37*
G36*
X179038425Y-117934760D02*
X179038428Y-117934761D01*
X179038429Y-117934761D01*
X179217693Y-117989140D01*
X179217695Y-117989141D01*
X179382905Y-118077448D01*
X179527712Y-118196288D01*
X179646552Y-118341095D01*
X179733189Y-118503180D01*
X179734860Y-118506307D01*
X179771539Y-118627222D01*
X179789240Y-118685575D01*
X179807601Y-118872000D01*
X179789240Y-119058425D01*
X179789239Y-119058428D01*
X179789239Y-119058429D01*
X179745271Y-119203373D01*
X179734859Y-119237695D01*
X179646552Y-119402905D01*
X179527712Y-119547712D01*
X179382905Y-119666552D01*
X179300247Y-119710734D01*
X179217693Y-119754860D01*
X179038429Y-119809239D01*
X179038428Y-119809239D01*
X179038425Y-119809240D01*
X178898718Y-119823000D01*
X178805282Y-119823000D01*
X178665575Y-119809240D01*
X178665572Y-119809239D01*
X178665571Y-119809239D01*
X178486307Y-119754860D01*
X178403753Y-119710734D01*
X178321095Y-119666552D01*
X178176288Y-119547712D01*
X178057448Y-119402905D01*
X177969141Y-119237695D01*
X177958730Y-119203373D01*
X177914761Y-119058429D01*
X177914761Y-119058428D01*
X177914760Y-119058425D01*
X177896399Y-118872000D01*
X177914760Y-118685575D01*
X177932461Y-118627222D01*
X177969140Y-118506307D01*
X177970811Y-118503180D01*
X178057448Y-118341095D01*
X178176288Y-118196288D01*
X178321095Y-118077448D01*
X178486305Y-117989141D01*
X178486307Y-117989140D01*
X178665571Y-117934761D01*
X178665572Y-117934761D01*
X178665575Y-117934760D01*
X178805282Y-117921000D01*
X178898718Y-117921000D01*
X179038425Y-117934760D01*
X179038425Y-117934760D01*
G37*
G36*
X191570442Y-115945518D02*
X191636627Y-115952037D01*
X191749853Y-115986384D01*
X191806467Y-116003557D01*
X191945087Y-116077652D01*
X191962991Y-116087222D01*
X191998729Y-116116552D01*
X192100186Y-116199814D01*
X192183448Y-116301271D01*
X192212778Y-116337009D01*
X192212779Y-116337011D01*
X192296443Y-116493533D01*
X192296443Y-116493534D01*
X192347963Y-116663373D01*
X192365359Y-116840000D01*
X192347963Y-117016627D01*
X192313616Y-117129853D01*
X192296443Y-117186467D01*
X192251054Y-117271383D01*
X192212778Y-117342991D01*
X192183448Y-117378729D01*
X192100186Y-117480186D01*
X191998729Y-117563448D01*
X191962991Y-117592778D01*
X191962989Y-117592779D01*
X191806467Y-117676443D01*
X191749853Y-117693616D01*
X191636627Y-117727963D01*
X191570442Y-117734482D01*
X191504260Y-117741000D01*
X191415740Y-117741000D01*
X191349558Y-117734482D01*
X191283373Y-117727963D01*
X191170147Y-117693616D01*
X191113533Y-117676443D01*
X190957011Y-117592779D01*
X190957009Y-117592778D01*
X190921271Y-117563448D01*
X190819814Y-117480186D01*
X190736552Y-117378729D01*
X190707222Y-117342991D01*
X190668946Y-117271383D01*
X190623557Y-117186467D01*
X190606384Y-117129853D01*
X190572037Y-117016627D01*
X190554641Y-116840000D01*
X190572037Y-116663373D01*
X190623557Y-116493534D01*
X190623557Y-116493533D01*
X190707221Y-116337011D01*
X190707222Y-116337009D01*
X190736552Y-116301271D01*
X190819814Y-116199814D01*
X190921271Y-116116552D01*
X190957009Y-116087222D01*
X190974913Y-116077652D01*
X191113533Y-116003557D01*
X191170147Y-115986384D01*
X191283373Y-115952037D01*
X191349558Y-115945518D01*
X191415740Y-115939000D01*
X191504260Y-115939000D01*
X191570442Y-115945518D01*
X191570442Y-115945518D01*
G37*
G36*
X194110442Y-115945518D02*
X194176627Y-115952037D01*
X194289853Y-115986384D01*
X194346467Y-116003557D01*
X194485087Y-116077652D01*
X194502991Y-116087222D01*
X194538729Y-116116552D01*
X194640186Y-116199814D01*
X194723448Y-116301271D01*
X194752778Y-116337009D01*
X194752779Y-116337011D01*
X194836443Y-116493533D01*
X194836443Y-116493534D01*
X194887963Y-116663373D01*
X194905359Y-116840000D01*
X194887963Y-117016627D01*
X194853616Y-117129853D01*
X194836443Y-117186467D01*
X194791054Y-117271383D01*
X194752778Y-117342991D01*
X194723448Y-117378729D01*
X194640186Y-117480186D01*
X194538729Y-117563448D01*
X194502991Y-117592778D01*
X194502989Y-117592779D01*
X194346467Y-117676443D01*
X194289853Y-117693616D01*
X194176627Y-117727963D01*
X194110442Y-117734482D01*
X194044260Y-117741000D01*
X193955740Y-117741000D01*
X193889558Y-117734482D01*
X193823373Y-117727963D01*
X193710147Y-117693616D01*
X193653533Y-117676443D01*
X193497011Y-117592779D01*
X193497009Y-117592778D01*
X193461271Y-117563448D01*
X193359814Y-117480186D01*
X193276552Y-117378729D01*
X193247222Y-117342991D01*
X193208946Y-117271383D01*
X193163557Y-117186467D01*
X193146384Y-117129853D01*
X193112037Y-117016627D01*
X193094641Y-116840000D01*
X193112037Y-116663373D01*
X193163557Y-116493534D01*
X193163557Y-116493533D01*
X193247221Y-116337011D01*
X193247222Y-116337009D01*
X193276552Y-116301271D01*
X193359814Y-116199814D01*
X193461271Y-116116552D01*
X193497009Y-116087222D01*
X193514913Y-116077652D01*
X193653533Y-116003557D01*
X193710147Y-115986384D01*
X193823373Y-115952037D01*
X193889558Y-115945518D01*
X193955740Y-115939000D01*
X194044260Y-115939000D01*
X194110442Y-115945518D01*
X194110442Y-115945518D01*
G37*
G36*
X191570443Y-113405519D02*
X191636627Y-113412037D01*
X191749853Y-113446384D01*
X191806467Y-113463557D01*
X191945087Y-113537652D01*
X191962991Y-113547222D01*
X191998729Y-113576552D01*
X192100186Y-113659814D01*
X192183448Y-113761271D01*
X192212778Y-113797009D01*
X192212779Y-113797011D01*
X192296443Y-113953533D01*
X192296443Y-113953534D01*
X192347963Y-114123373D01*
X192365359Y-114300000D01*
X192347963Y-114476627D01*
X192313616Y-114589853D01*
X192296443Y-114646467D01*
X192222348Y-114785087D01*
X192212778Y-114802991D01*
X192183448Y-114838729D01*
X192100186Y-114940186D01*
X191998729Y-115023448D01*
X191962991Y-115052778D01*
X191962989Y-115052779D01*
X191806467Y-115136443D01*
X191749853Y-115153616D01*
X191636627Y-115187963D01*
X191570442Y-115194482D01*
X191504260Y-115201000D01*
X191415740Y-115201000D01*
X191349558Y-115194482D01*
X191283373Y-115187963D01*
X191170147Y-115153616D01*
X191113533Y-115136443D01*
X190957011Y-115052779D01*
X190957009Y-115052778D01*
X190921271Y-115023448D01*
X190819814Y-114940186D01*
X190736552Y-114838729D01*
X190707222Y-114802991D01*
X190697652Y-114785087D01*
X190623557Y-114646467D01*
X190606384Y-114589853D01*
X190572037Y-114476627D01*
X190554641Y-114300000D01*
X190572037Y-114123373D01*
X190623557Y-113953534D01*
X190623557Y-113953533D01*
X190707221Y-113797011D01*
X190707222Y-113797009D01*
X190736552Y-113761271D01*
X190819814Y-113659814D01*
X190921271Y-113576552D01*
X190957009Y-113547222D01*
X190974913Y-113537652D01*
X191113533Y-113463557D01*
X191170147Y-113446384D01*
X191283373Y-113412037D01*
X191349557Y-113405519D01*
X191415740Y-113399000D01*
X191504260Y-113399000D01*
X191570443Y-113405519D01*
X191570443Y-113405519D01*
G37*
G36*
X194110443Y-113405519D02*
X194176627Y-113412037D01*
X194289853Y-113446384D01*
X194346467Y-113463557D01*
X194485087Y-113537652D01*
X194502991Y-113547222D01*
X194538729Y-113576552D01*
X194640186Y-113659814D01*
X194723448Y-113761271D01*
X194752778Y-113797009D01*
X194752779Y-113797011D01*
X194836443Y-113953533D01*
X194836443Y-113953534D01*
X194887963Y-114123373D01*
X194905359Y-114300000D01*
X194887963Y-114476627D01*
X194853616Y-114589853D01*
X194836443Y-114646467D01*
X194762348Y-114785087D01*
X194752778Y-114802991D01*
X194723448Y-114838729D01*
X194640186Y-114940186D01*
X194538729Y-115023448D01*
X194502991Y-115052778D01*
X194502989Y-115052779D01*
X194346467Y-115136443D01*
X194289853Y-115153616D01*
X194176627Y-115187963D01*
X194110442Y-115194482D01*
X194044260Y-115201000D01*
X193955740Y-115201000D01*
X193889558Y-115194482D01*
X193823373Y-115187963D01*
X193710147Y-115153616D01*
X193653533Y-115136443D01*
X193497011Y-115052779D01*
X193497009Y-115052778D01*
X193461271Y-115023448D01*
X193359814Y-114940186D01*
X193276552Y-114838729D01*
X193247222Y-114802991D01*
X193237652Y-114785087D01*
X193163557Y-114646467D01*
X193146384Y-114589853D01*
X193112037Y-114476627D01*
X193094641Y-114300000D01*
X193112037Y-114123373D01*
X193163557Y-113953534D01*
X193163557Y-113953533D01*
X193247221Y-113797011D01*
X193247222Y-113797009D01*
X193276552Y-113761271D01*
X193359814Y-113659814D01*
X193461271Y-113576552D01*
X193497009Y-113547222D01*
X193514913Y-113537652D01*
X193653533Y-113463557D01*
X193710147Y-113446384D01*
X193823373Y-113412037D01*
X193889557Y-113405519D01*
X193955740Y-113399000D01*
X194044260Y-113399000D01*
X194110443Y-113405519D01*
X194110443Y-113405519D01*
G37*
G36*
X189003000Y-113311000D02*
X185901000Y-113311000D01*
X185901000Y-110209000D01*
X189003000Y-110209000D01*
X189003000Y-113311000D01*
X189003000Y-113311000D01*
G37*
G36*
X182724527Y-110248736D02*
X182824410Y-110268604D01*
X183106674Y-110385521D01*
X183360705Y-110555259D01*
X183576741Y-110771295D01*
X183746479Y-111025326D01*
X183863396Y-111307590D01*
X183923000Y-111607240D01*
X183923000Y-111912760D01*
X183863396Y-112212410D01*
X183746479Y-112494674D01*
X183576741Y-112748705D01*
X183360705Y-112964741D01*
X183106674Y-113134479D01*
X182824410Y-113251396D01*
X182724527Y-113271264D01*
X182524762Y-113311000D01*
X182219238Y-113311000D01*
X182019473Y-113271264D01*
X181919590Y-113251396D01*
X181637326Y-113134479D01*
X181383295Y-112964741D01*
X181167259Y-112748705D01*
X180997521Y-112494674D01*
X180880604Y-112212410D01*
X180821000Y-111912760D01*
X180821000Y-111607240D01*
X180880604Y-111307590D01*
X180997521Y-111025326D01*
X181167259Y-110771295D01*
X181383295Y-110555259D01*
X181637326Y-110385521D01*
X181919590Y-110268604D01*
X182019473Y-110248736D01*
X182219238Y-110209000D01*
X182524762Y-110209000D01*
X182724527Y-110248736D01*
X182724527Y-110248736D01*
G37*
G36*
X191570442Y-110865518D02*
X191636627Y-110872037D01*
X191749853Y-110906384D01*
X191806467Y-110923557D01*
X191945087Y-110997652D01*
X191962991Y-111007222D01*
X191985053Y-111025328D01*
X192100186Y-111119814D01*
X192183448Y-111221271D01*
X192212778Y-111257009D01*
X192212779Y-111257011D01*
X192296443Y-111413533D01*
X192296443Y-111413534D01*
X192347963Y-111583373D01*
X192365359Y-111760000D01*
X192347963Y-111936627D01*
X192313616Y-112049853D01*
X192296443Y-112106467D01*
X192239815Y-112212409D01*
X192212778Y-112262991D01*
X192183448Y-112298729D01*
X192100186Y-112400186D01*
X191998729Y-112483448D01*
X191962991Y-112512778D01*
X191962989Y-112512779D01*
X191806467Y-112596443D01*
X191749853Y-112613616D01*
X191636627Y-112647963D01*
X191570442Y-112654482D01*
X191504260Y-112661000D01*
X191415740Y-112661000D01*
X191349558Y-112654482D01*
X191283373Y-112647963D01*
X191170147Y-112613616D01*
X191113533Y-112596443D01*
X190957011Y-112512779D01*
X190957009Y-112512778D01*
X190921271Y-112483448D01*
X190819814Y-112400186D01*
X190736552Y-112298729D01*
X190707222Y-112262991D01*
X190680185Y-112212409D01*
X190623557Y-112106467D01*
X190606384Y-112049853D01*
X190572037Y-111936627D01*
X190554641Y-111760000D01*
X190572037Y-111583373D01*
X190623557Y-111413534D01*
X190623557Y-111413533D01*
X190707221Y-111257011D01*
X190707222Y-111257009D01*
X190736552Y-111221271D01*
X190819814Y-111119814D01*
X190934947Y-111025328D01*
X190957009Y-111007222D01*
X190974913Y-110997652D01*
X191113533Y-110923557D01*
X191170147Y-110906384D01*
X191283373Y-110872037D01*
X191349558Y-110865518D01*
X191415740Y-110859000D01*
X191504260Y-110859000D01*
X191570442Y-110865518D01*
X191570442Y-110865518D01*
G37*
G36*
X194110442Y-110865518D02*
X194176627Y-110872037D01*
X194289853Y-110906384D01*
X194346467Y-110923557D01*
X194485087Y-110997652D01*
X194502991Y-111007222D01*
X194525053Y-111025328D01*
X194640186Y-111119814D01*
X194723448Y-111221271D01*
X194752778Y-111257009D01*
X194752779Y-111257011D01*
X194836443Y-111413533D01*
X194836443Y-111413534D01*
X194887963Y-111583373D01*
X194905359Y-111760000D01*
X194887963Y-111936627D01*
X194853616Y-112049853D01*
X194836443Y-112106467D01*
X194779815Y-112212409D01*
X194752778Y-112262991D01*
X194723448Y-112298729D01*
X194640186Y-112400186D01*
X194538729Y-112483448D01*
X194502991Y-112512778D01*
X194502989Y-112512779D01*
X194346467Y-112596443D01*
X194289853Y-112613616D01*
X194176627Y-112647963D01*
X194110442Y-112654482D01*
X194044260Y-112661000D01*
X193955740Y-112661000D01*
X193889558Y-112654482D01*
X193823373Y-112647963D01*
X193710147Y-112613616D01*
X193653533Y-112596443D01*
X193497011Y-112512779D01*
X193497009Y-112512778D01*
X193461271Y-112483448D01*
X193359814Y-112400186D01*
X193276552Y-112298729D01*
X193247222Y-112262991D01*
X193220185Y-112212409D01*
X193163557Y-112106467D01*
X193146384Y-112049853D01*
X193112037Y-111936627D01*
X193094641Y-111760000D01*
X193112037Y-111583373D01*
X193163557Y-111413534D01*
X193163557Y-111413533D01*
X193247221Y-111257011D01*
X193247222Y-111257009D01*
X193276552Y-111221271D01*
X193359814Y-111119814D01*
X193474947Y-111025328D01*
X193497009Y-111007222D01*
X193514913Y-110997652D01*
X193653533Y-110923557D01*
X193710147Y-110906384D01*
X193823373Y-110872037D01*
X193889558Y-110865518D01*
X193955740Y-110859000D01*
X194044260Y-110859000D01*
X194110442Y-110865518D01*
X194110442Y-110865518D01*
G37*
G36*
X142844960Y-108818405D02*
X142880111Y-108829069D01*
X142912509Y-108846386D01*
X142940908Y-108869692D01*
X142964214Y-108898091D01*
X142981531Y-108930489D01*
X142992195Y-108965640D01*
X142996400Y-109008340D01*
X142996400Y-110522060D01*
X142992195Y-110564760D01*
X142981531Y-110599911D01*
X142964214Y-110632309D01*
X142940908Y-110660708D01*
X142912509Y-110684014D01*
X142880111Y-110701331D01*
X142844960Y-110711995D01*
X142802260Y-110716200D01*
X142188540Y-110716200D01*
X142145840Y-110711995D01*
X142110689Y-110701331D01*
X142078291Y-110684014D01*
X142049892Y-110660708D01*
X142026586Y-110632309D01*
X142009269Y-110599911D01*
X141998605Y-110564760D01*
X141994400Y-110522060D01*
X141994400Y-109008340D01*
X141998605Y-108965640D01*
X142009269Y-108930489D01*
X142026586Y-108898091D01*
X142049892Y-108869692D01*
X142078291Y-108846386D01*
X142110689Y-108829069D01*
X142145840Y-108818405D01*
X142188540Y-108814200D01*
X142802260Y-108814200D01*
X142844960Y-108818405D01*
X142844960Y-108818405D01*
G37*
G36*
X141104960Y-108818405D02*
X141140111Y-108829069D01*
X141172509Y-108846386D01*
X141200908Y-108869692D01*
X141224214Y-108898091D01*
X141241531Y-108930489D01*
X141252195Y-108965640D01*
X141256400Y-109008340D01*
X141256400Y-110522060D01*
X141252195Y-110564760D01*
X141241531Y-110599911D01*
X141224214Y-110632309D01*
X141200908Y-110660708D01*
X141172509Y-110684014D01*
X141140111Y-110701331D01*
X141104960Y-110711995D01*
X141062260Y-110716200D01*
X140448540Y-110716200D01*
X140405840Y-110711995D01*
X140370689Y-110701331D01*
X140338291Y-110684014D01*
X140309892Y-110660708D01*
X140286586Y-110632309D01*
X140269269Y-110599911D01*
X140258605Y-110564760D01*
X140254400Y-110522060D01*
X140254400Y-109008340D01*
X140258605Y-108965640D01*
X140269269Y-108930489D01*
X140286586Y-108898091D01*
X140309892Y-108869692D01*
X140338291Y-108846386D01*
X140370689Y-108829069D01*
X140405840Y-108818405D01*
X140448540Y-108814200D01*
X141062260Y-108814200D01*
X141104960Y-108818405D01*
X141104960Y-108818405D01*
G37*
G36*
X137982221Y-108926513D02*
X137982224Y-108926514D01*
X137982225Y-108926514D01*
X138142639Y-108975175D01*
X138142641Y-108975176D01*
X138142644Y-108975177D01*
X138290478Y-109054195D01*
X138420059Y-109160541D01*
X138526405Y-109290122D01*
X138605423Y-109437956D01*
X138605424Y-109437959D01*
X138605425Y-109437961D01*
X138644407Y-109566467D01*
X138654087Y-109598379D01*
X138670517Y-109765200D01*
X138654087Y-109932021D01*
X138654086Y-109932024D01*
X138654086Y-109932025D01*
X138629393Y-110013428D01*
X138605423Y-110092444D01*
X138526405Y-110240278D01*
X138420059Y-110369859D01*
X138290478Y-110476205D01*
X138142644Y-110555223D01*
X138142641Y-110555224D01*
X138142639Y-110555225D01*
X137982225Y-110603886D01*
X137982224Y-110603886D01*
X137982221Y-110603887D01*
X137857204Y-110616200D01*
X137773596Y-110616200D01*
X137648579Y-110603887D01*
X137648576Y-110603886D01*
X137648575Y-110603886D01*
X137488161Y-110555225D01*
X137488159Y-110555224D01*
X137488156Y-110555223D01*
X137340322Y-110476205D01*
X137210741Y-110369859D01*
X137104395Y-110240278D01*
X137025377Y-110092444D01*
X137001408Y-110013428D01*
X136976714Y-109932025D01*
X136976714Y-109932024D01*
X136976713Y-109932021D01*
X136960283Y-109765200D01*
X136976713Y-109598379D01*
X136986393Y-109566467D01*
X137025375Y-109437961D01*
X137025376Y-109437959D01*
X137025377Y-109437956D01*
X137104395Y-109290122D01*
X137210741Y-109160541D01*
X137340322Y-109054195D01*
X137488156Y-108975177D01*
X137488159Y-108975176D01*
X137488161Y-108975175D01*
X137648575Y-108926514D01*
X137648576Y-108926514D01*
X137648579Y-108926513D01*
X137773596Y-108914200D01*
X137857204Y-108914200D01*
X137982221Y-108926513D01*
X137982221Y-108926513D01*
G37*
G36*
X145683628Y-108946903D02*
X145838500Y-109011053D01*
X145977881Y-109104185D01*
X146096415Y-109222719D01*
X146189547Y-109362100D01*
X146253697Y-109516972D01*
X146286400Y-109681384D01*
X146286400Y-109849016D01*
X146253697Y-110013428D01*
X146189547Y-110168300D01*
X146096415Y-110307681D01*
X145977881Y-110426215D01*
X145838500Y-110519347D01*
X145683628Y-110583497D01*
X145519216Y-110616200D01*
X145351584Y-110616200D01*
X145187172Y-110583497D01*
X145032300Y-110519347D01*
X144892919Y-110426215D01*
X144774385Y-110307681D01*
X144681253Y-110168300D01*
X144617103Y-110013428D01*
X144584400Y-109849016D01*
X144584400Y-109681384D01*
X144617103Y-109516972D01*
X144681253Y-109362100D01*
X144774385Y-109222719D01*
X144892919Y-109104185D01*
X145032300Y-109011053D01*
X145187172Y-108946903D01*
X145351584Y-108914200D01*
X145519216Y-108914200D01*
X145683628Y-108946903D01*
X145683628Y-108946903D01*
G37*
G36*
X191570443Y-108325519D02*
X191636627Y-108332037D01*
X191749853Y-108366384D01*
X191806467Y-108383557D01*
X191945087Y-108457652D01*
X191962991Y-108467222D01*
X191998729Y-108496552D01*
X192100186Y-108579814D01*
X192183448Y-108681271D01*
X192212778Y-108717009D01*
X192212779Y-108717011D01*
X192296443Y-108873533D01*
X192296443Y-108873534D01*
X192347963Y-109043373D01*
X192365359Y-109220000D01*
X192347963Y-109396627D01*
X192335426Y-109437956D01*
X192296443Y-109566467D01*
X192279385Y-109598379D01*
X192212778Y-109722991D01*
X192183448Y-109758729D01*
X192100186Y-109860186D01*
X191998729Y-109943448D01*
X191962991Y-109972778D01*
X191962989Y-109972779D01*
X191806467Y-110056443D01*
X191749853Y-110073616D01*
X191636627Y-110107963D01*
X191570443Y-110114481D01*
X191504260Y-110121000D01*
X191415740Y-110121000D01*
X191349557Y-110114481D01*
X191283373Y-110107963D01*
X191170147Y-110073616D01*
X191113533Y-110056443D01*
X190957011Y-109972779D01*
X190957009Y-109972778D01*
X190921271Y-109943448D01*
X190819814Y-109860186D01*
X190736552Y-109758729D01*
X190707222Y-109722991D01*
X190640615Y-109598379D01*
X190623557Y-109566467D01*
X190584574Y-109437956D01*
X190572037Y-109396627D01*
X190554641Y-109220000D01*
X190572037Y-109043373D01*
X190623557Y-108873534D01*
X190623557Y-108873533D01*
X190707221Y-108717011D01*
X190707222Y-108717009D01*
X190736552Y-108681271D01*
X190819814Y-108579814D01*
X190921271Y-108496552D01*
X190957009Y-108467222D01*
X190974913Y-108457652D01*
X191113533Y-108383557D01*
X191170147Y-108366384D01*
X191283373Y-108332037D01*
X191349557Y-108325519D01*
X191415740Y-108319000D01*
X191504260Y-108319000D01*
X191570443Y-108325519D01*
X191570443Y-108325519D01*
G37*
G36*
X194110443Y-108325519D02*
X194176627Y-108332037D01*
X194289853Y-108366384D01*
X194346467Y-108383557D01*
X194485087Y-108457652D01*
X194502991Y-108467222D01*
X194538729Y-108496552D01*
X194640186Y-108579814D01*
X194723448Y-108681271D01*
X194752778Y-108717009D01*
X194752779Y-108717011D01*
X194836443Y-108873533D01*
X194836443Y-108873534D01*
X194887963Y-109043373D01*
X194905359Y-109220000D01*
X194887963Y-109396627D01*
X194875426Y-109437956D01*
X194836443Y-109566467D01*
X194819385Y-109598379D01*
X194752778Y-109722991D01*
X194723448Y-109758729D01*
X194640186Y-109860186D01*
X194538729Y-109943448D01*
X194502991Y-109972778D01*
X194502989Y-109972779D01*
X194346467Y-110056443D01*
X194289853Y-110073616D01*
X194176627Y-110107963D01*
X194110443Y-110114481D01*
X194044260Y-110121000D01*
X193955740Y-110121000D01*
X193889557Y-110114481D01*
X193823373Y-110107963D01*
X193710147Y-110073616D01*
X193653533Y-110056443D01*
X193497011Y-109972779D01*
X193497009Y-109972778D01*
X193461271Y-109943448D01*
X193359814Y-109860186D01*
X193276552Y-109758729D01*
X193247222Y-109722991D01*
X193180615Y-109598379D01*
X193163557Y-109566467D01*
X193124574Y-109437956D01*
X193112037Y-109396627D01*
X193094641Y-109220000D01*
X193112037Y-109043373D01*
X193163557Y-108873534D01*
X193163557Y-108873533D01*
X193247221Y-108717011D01*
X193247222Y-108717009D01*
X193276552Y-108681271D01*
X193359814Y-108579814D01*
X193461271Y-108496552D01*
X193497009Y-108467222D01*
X193514913Y-108457652D01*
X193653533Y-108383557D01*
X193710147Y-108366384D01*
X193823373Y-108332037D01*
X193889557Y-108325519D01*
X193955740Y-108319000D01*
X194044260Y-108319000D01*
X194110443Y-108325519D01*
X194110443Y-108325519D01*
G37*
G36*
X169975035Y-105282645D02*
X170004712Y-105291648D01*
X170032076Y-105306274D01*
X170056050Y-105325950D01*
X170075726Y-105349924D01*
X170090352Y-105377288D01*
X170099355Y-105406965D01*
X170103000Y-105443976D01*
X170103000Y-107916024D01*
X170099355Y-107953035D01*
X170090352Y-107982712D01*
X170075726Y-108010076D01*
X170056050Y-108034050D01*
X170032076Y-108053726D01*
X170004712Y-108068352D01*
X169975035Y-108077355D01*
X169938024Y-108081000D01*
X166865976Y-108081000D01*
X166828965Y-108077355D01*
X166799288Y-108068352D01*
X166771924Y-108053726D01*
X166747950Y-108034050D01*
X166728274Y-108010076D01*
X166713648Y-107982712D01*
X166704645Y-107953035D01*
X166701000Y-107916024D01*
X166701000Y-105443976D01*
X166704645Y-105406965D01*
X166713648Y-105377288D01*
X166728274Y-105349924D01*
X166747950Y-105325950D01*
X166771924Y-105306274D01*
X166799288Y-105291648D01*
X166828965Y-105282645D01*
X166865976Y-105279000D01*
X169938024Y-105279000D01*
X169975035Y-105282645D01*
X169975035Y-105282645D01*
G37*
G36*
X173073731Y-105289136D02*
X173176644Y-105299272D01*
X173343620Y-105349924D01*
X173440734Y-105379383D01*
X173492336Y-105406965D01*
X173684120Y-105509475D01*
X173785259Y-105592479D01*
X173897450Y-105684550D01*
X173989521Y-105796741D01*
X174072525Y-105897880D01*
X174159253Y-106060138D01*
X174202617Y-106141266D01*
X174202617Y-106141267D01*
X174282728Y-106405356D01*
X174309778Y-106680000D01*
X174282728Y-106954644D01*
X174229321Y-107130703D01*
X174202617Y-107218734D01*
X174159253Y-107299862D01*
X174072525Y-107462120D01*
X173989521Y-107563259D01*
X173897450Y-107675450D01*
X173818213Y-107740477D01*
X173684120Y-107850525D01*
X173561579Y-107916024D01*
X173440734Y-107980617D01*
X173361422Y-108004676D01*
X173176644Y-108060728D01*
X173073731Y-108070864D01*
X172970820Y-108081000D01*
X172233180Y-108081000D01*
X172130269Y-108070864D01*
X172027356Y-108060728D01*
X171842578Y-108004676D01*
X171763266Y-107980617D01*
X171642421Y-107916024D01*
X171519880Y-107850525D01*
X171385787Y-107740477D01*
X171306550Y-107675450D01*
X171214479Y-107563259D01*
X171131475Y-107462120D01*
X171044747Y-107299862D01*
X171001383Y-107218734D01*
X170974679Y-107130703D01*
X170921272Y-106954644D01*
X170894222Y-106680000D01*
X170921272Y-106405356D01*
X171001383Y-106141267D01*
X171001383Y-106141266D01*
X171044747Y-106060138D01*
X171131475Y-105897880D01*
X171214479Y-105796741D01*
X171306550Y-105684550D01*
X171418741Y-105592479D01*
X171519880Y-105509475D01*
X171711664Y-105406965D01*
X171763266Y-105379383D01*
X171860380Y-105349924D01*
X172027356Y-105299272D01*
X172130269Y-105289136D01*
X172233180Y-105279000D01*
X172970820Y-105279000D01*
X173073731Y-105289136D01*
X173073731Y-105289136D01*
G37*
G36*
X197831312Y-102259523D02*
X198349982Y-102474363D01*
X198816772Y-102786262D01*
X199213738Y-103183228D01*
X199525637Y-103650018D01*
X199740477Y-104168688D01*
X199850000Y-104719298D01*
X199850000Y-105280702D01*
X199740477Y-105831312D01*
X199525637Y-106349982D01*
X199213738Y-106816772D01*
X198816772Y-107213738D01*
X198349982Y-107525637D01*
X197831312Y-107740477D01*
X197280702Y-107850000D01*
X196719298Y-107850000D01*
X196168688Y-107740477D01*
X195650018Y-107525637D01*
X195183228Y-107213738D01*
X194786262Y-106816772D01*
X194474363Y-106349982D01*
X194259523Y-105831312D01*
X194150000Y-105280702D01*
X194150000Y-104719298D01*
X194259523Y-104168688D01*
X194474363Y-103650018D01*
X194786262Y-103183228D01*
X195183228Y-102786262D01*
X195650018Y-102474363D01*
X196168688Y-102259523D01*
X196719298Y-102150000D01*
X197280702Y-102150000D01*
X197831312Y-102259523D01*
X197831312Y-102259523D01*
G37*
G36*
X168873731Y-101089136D02*
X168976644Y-101099272D01*
X169152703Y-101152679D01*
X169240734Y-101179383D01*
X169321862Y-101222747D01*
X169484120Y-101309475D01*
X169585259Y-101392479D01*
X169697450Y-101484550D01*
X169789521Y-101596741D01*
X169872525Y-101697880D01*
X169959253Y-101860138D01*
X170002617Y-101941266D01*
X170002617Y-101941267D01*
X170082728Y-102205356D01*
X170109778Y-102480000D01*
X170082728Y-102754644D01*
X170029321Y-102930703D01*
X170002617Y-103018734D01*
X169959253Y-103099862D01*
X169872525Y-103262120D01*
X169789521Y-103363259D01*
X169697450Y-103475450D01*
X169585259Y-103567521D01*
X169484120Y-103650525D01*
X169321862Y-103737253D01*
X169240734Y-103780617D01*
X169152703Y-103807321D01*
X168976644Y-103860728D01*
X168873731Y-103870864D01*
X168770820Y-103881000D01*
X168033180Y-103881000D01*
X167930269Y-103870864D01*
X167827356Y-103860728D01*
X167651297Y-103807321D01*
X167563266Y-103780617D01*
X167482138Y-103737253D01*
X167319880Y-103650525D01*
X167218741Y-103567521D01*
X167106550Y-103475450D01*
X167014479Y-103363259D01*
X166931475Y-103262120D01*
X166844747Y-103099862D01*
X166801383Y-103018734D01*
X166774679Y-102930703D01*
X166721272Y-102754644D01*
X166694222Y-102480000D01*
X166721272Y-102205356D01*
X166801383Y-101941267D01*
X166801383Y-101941266D01*
X166844747Y-101860138D01*
X166931475Y-101697880D01*
X167014479Y-101596741D01*
X167106550Y-101484550D01*
X167218741Y-101392479D01*
X167319880Y-101309475D01*
X167482138Y-101222747D01*
X167563266Y-101179383D01*
X167651297Y-101152679D01*
X167827356Y-101099272D01*
X167930269Y-101089136D01*
X168033180Y-101079000D01*
X168770820Y-101079000D01*
X168873731Y-101089136D01*
X168873731Y-101089136D01*
G37*
G36*
X173073731Y-101089136D02*
X173176644Y-101099272D01*
X173352703Y-101152679D01*
X173440734Y-101179383D01*
X173521862Y-101222747D01*
X173684120Y-101309475D01*
X173785259Y-101392479D01*
X173897450Y-101484550D01*
X173989521Y-101596741D01*
X174072525Y-101697880D01*
X174159253Y-101860138D01*
X174202617Y-101941266D01*
X174202617Y-101941267D01*
X174282728Y-102205356D01*
X174309778Y-102480000D01*
X174282728Y-102754644D01*
X174229321Y-102930703D01*
X174202617Y-103018734D01*
X174159253Y-103099862D01*
X174072525Y-103262120D01*
X173989521Y-103363259D01*
X173897450Y-103475450D01*
X173785259Y-103567521D01*
X173684120Y-103650525D01*
X173521862Y-103737253D01*
X173440734Y-103780617D01*
X173352703Y-103807321D01*
X173176644Y-103860728D01*
X173073731Y-103870864D01*
X172970820Y-103881000D01*
X172233180Y-103881000D01*
X172130269Y-103870864D01*
X172027356Y-103860728D01*
X171851297Y-103807321D01*
X171763266Y-103780617D01*
X171682138Y-103737253D01*
X171519880Y-103650525D01*
X171418741Y-103567521D01*
X171306550Y-103475450D01*
X171214479Y-103363259D01*
X171131475Y-103262120D01*
X171044747Y-103099862D01*
X171001383Y-103018734D01*
X170974679Y-102930703D01*
X170921272Y-102754644D01*
X170894222Y-102480000D01*
X170921272Y-102205356D01*
X171001383Y-101941267D01*
X171001383Y-101941266D01*
X171044747Y-101860138D01*
X171131475Y-101697880D01*
X171214479Y-101596741D01*
X171306550Y-101484550D01*
X171418741Y-101392479D01*
X171519880Y-101309475D01*
X171682138Y-101222747D01*
X171763266Y-101179383D01*
X171851297Y-101152679D01*
X172027356Y-101099272D01*
X172130269Y-101089136D01*
X172233180Y-101079000D01*
X172970820Y-101079000D01*
X173073731Y-101089136D01*
X173073731Y-101089136D01*
G37*
G36*
X192361000Y-101681000D02*
X190559000Y-101681000D01*
X190559000Y-99879000D01*
X192361000Y-99879000D01*
X192361000Y-101681000D01*
X192361000Y-101681000D01*
G37*
G36*
X194110442Y-99885518D02*
X194176627Y-99892037D01*
X194289853Y-99926384D01*
X194346467Y-99943557D01*
X194485087Y-100017652D01*
X194502991Y-100027222D01*
X194538729Y-100056552D01*
X194640186Y-100139814D01*
X194723448Y-100241271D01*
X194752778Y-100277009D01*
X194752779Y-100277011D01*
X194836443Y-100433533D01*
X194836443Y-100433534D01*
X194887963Y-100603373D01*
X194905359Y-100780000D01*
X194887963Y-100956627D01*
X194853616Y-101069853D01*
X194836443Y-101126467D01*
X194808158Y-101179383D01*
X194752778Y-101282991D01*
X194731043Y-101309475D01*
X194640186Y-101420186D01*
X194538729Y-101503448D01*
X194502991Y-101532778D01*
X194502989Y-101532779D01*
X194346467Y-101616443D01*
X194289853Y-101633616D01*
X194176627Y-101667963D01*
X194110443Y-101674481D01*
X194044260Y-101681000D01*
X193955740Y-101681000D01*
X193889557Y-101674481D01*
X193823373Y-101667963D01*
X193710147Y-101633616D01*
X193653533Y-101616443D01*
X193497011Y-101532779D01*
X193497009Y-101532778D01*
X193461271Y-101503448D01*
X193359814Y-101420186D01*
X193268957Y-101309475D01*
X193247222Y-101282991D01*
X193191842Y-101179383D01*
X193163557Y-101126467D01*
X193146384Y-101069853D01*
X193112037Y-100956627D01*
X193094641Y-100780000D01*
X193112037Y-100603373D01*
X193163557Y-100433534D01*
X193163557Y-100433533D01*
X193247221Y-100277011D01*
X193247222Y-100277009D01*
X193276552Y-100241271D01*
X193359814Y-100139814D01*
X193461271Y-100056552D01*
X193497009Y-100027222D01*
X193514913Y-100017652D01*
X193653533Y-99943557D01*
X193710147Y-99926384D01*
X193823373Y-99892037D01*
X193889557Y-99885519D01*
X193955740Y-99879000D01*
X194044260Y-99879000D01*
X194110442Y-99885518D01*
X194110442Y-99885518D01*
G37*
G36*
X173073731Y-96889136D02*
X173176644Y-96899272D01*
X173352703Y-96952679D01*
X173440734Y-96979383D01*
X173521862Y-97022747D01*
X173684120Y-97109475D01*
X173785259Y-97192479D01*
X173897450Y-97284550D01*
X173989521Y-97396741D01*
X174072525Y-97497880D01*
X174127009Y-97599814D01*
X174202617Y-97741266D01*
X174202617Y-97741267D01*
X174282728Y-98005356D01*
X174309778Y-98280000D01*
X174282728Y-98554644D01*
X174229321Y-98730703D01*
X174202617Y-98818734D01*
X174169770Y-98880186D01*
X174072525Y-99062120D01*
X174007789Y-99141000D01*
X173897450Y-99275450D01*
X173785259Y-99367521D01*
X173684120Y-99450525D01*
X173521862Y-99537253D01*
X173440734Y-99580617D01*
X173352703Y-99607321D01*
X173176644Y-99660728D01*
X173073731Y-99670864D01*
X172970820Y-99681000D01*
X172233180Y-99681000D01*
X172130269Y-99670864D01*
X172027356Y-99660728D01*
X171851297Y-99607321D01*
X171763266Y-99580617D01*
X171682138Y-99537253D01*
X171519880Y-99450525D01*
X171418741Y-99367521D01*
X171306550Y-99275450D01*
X171196211Y-99141000D01*
X171131475Y-99062120D01*
X171034230Y-98880186D01*
X171001383Y-98818734D01*
X170974679Y-98730703D01*
X170921272Y-98554644D01*
X170894222Y-98280000D01*
X170921272Y-98005356D01*
X171001383Y-97741267D01*
X171001383Y-97741266D01*
X171076991Y-97599814D01*
X171131475Y-97497880D01*
X171214479Y-97396741D01*
X171306550Y-97284550D01*
X171418741Y-97192479D01*
X171519880Y-97109475D01*
X171682138Y-97022747D01*
X171763266Y-96979383D01*
X171851297Y-96952679D01*
X172027356Y-96899272D01*
X172130269Y-96889136D01*
X172233180Y-96879000D01*
X172970820Y-96879000D01*
X173073731Y-96889136D01*
X173073731Y-96889136D01*
G37*
G36*
X168873731Y-96889136D02*
X168976644Y-96899272D01*
X169152703Y-96952679D01*
X169240734Y-96979383D01*
X169321862Y-97022747D01*
X169484120Y-97109475D01*
X169585259Y-97192479D01*
X169697450Y-97284550D01*
X169789521Y-97396741D01*
X169872525Y-97497880D01*
X169927009Y-97599814D01*
X170002617Y-97741266D01*
X170002617Y-97741267D01*
X170082728Y-98005356D01*
X170109778Y-98280000D01*
X170082728Y-98554644D01*
X170029321Y-98730703D01*
X170002617Y-98818734D01*
X169969770Y-98880186D01*
X169872525Y-99062120D01*
X169807789Y-99141000D01*
X169697450Y-99275450D01*
X169585259Y-99367521D01*
X169484120Y-99450525D01*
X169321862Y-99537253D01*
X169240734Y-99580617D01*
X169152703Y-99607321D01*
X168976644Y-99660728D01*
X168873731Y-99670864D01*
X168770820Y-99681000D01*
X168033180Y-99681000D01*
X167930269Y-99670864D01*
X167827356Y-99660728D01*
X167651297Y-99607321D01*
X167563266Y-99580617D01*
X167482138Y-99537253D01*
X167319880Y-99450525D01*
X167218741Y-99367521D01*
X167106550Y-99275450D01*
X166996211Y-99141000D01*
X166931475Y-99062120D01*
X166834230Y-98880186D01*
X166801383Y-98818734D01*
X166774679Y-98730703D01*
X166721272Y-98554644D01*
X166694222Y-98280000D01*
X166721272Y-98005356D01*
X166801383Y-97741267D01*
X166801383Y-97741266D01*
X166876991Y-97599814D01*
X166931475Y-97497880D01*
X167014479Y-97396741D01*
X167106550Y-97284550D01*
X167218741Y-97192479D01*
X167319880Y-97109475D01*
X167482138Y-97022747D01*
X167563266Y-96979383D01*
X167651297Y-96952679D01*
X167827356Y-96899272D01*
X167930269Y-96889136D01*
X168033180Y-96879000D01*
X168770820Y-96879000D01*
X168873731Y-96889136D01*
X168873731Y-96889136D01*
G37*
G36*
X191570443Y-97345519D02*
X191636627Y-97352037D01*
X191749853Y-97386384D01*
X191806467Y-97403557D01*
X191945087Y-97477652D01*
X191962991Y-97487222D01*
X191975980Y-97497882D01*
X192100186Y-97599814D01*
X192183448Y-97701271D01*
X192212778Y-97737009D01*
X192212779Y-97737011D01*
X192296443Y-97893533D01*
X192296443Y-97893534D01*
X192347963Y-98063373D01*
X192365359Y-98240000D01*
X192347963Y-98416627D01*
X192313616Y-98529853D01*
X192296443Y-98586467D01*
X192222348Y-98725087D01*
X192212778Y-98742991D01*
X192183448Y-98778729D01*
X192100186Y-98880186D01*
X191998729Y-98963448D01*
X191962991Y-98992778D01*
X191962989Y-98992779D01*
X191806467Y-99076443D01*
X191749853Y-99093616D01*
X191636627Y-99127963D01*
X191570442Y-99134482D01*
X191504260Y-99141000D01*
X191415740Y-99141000D01*
X191349558Y-99134482D01*
X191283373Y-99127963D01*
X191170147Y-99093616D01*
X191113533Y-99076443D01*
X190957011Y-98992779D01*
X190957009Y-98992778D01*
X190921271Y-98963448D01*
X190819814Y-98880186D01*
X190736552Y-98778729D01*
X190707222Y-98742991D01*
X190697652Y-98725087D01*
X190623557Y-98586467D01*
X190606384Y-98529853D01*
X190572037Y-98416627D01*
X190554641Y-98240000D01*
X190572037Y-98063373D01*
X190623557Y-97893534D01*
X190623557Y-97893533D01*
X190707221Y-97737011D01*
X190707222Y-97737009D01*
X190736552Y-97701271D01*
X190819814Y-97599814D01*
X190944020Y-97497882D01*
X190957009Y-97487222D01*
X190974913Y-97477652D01*
X191113533Y-97403557D01*
X191170147Y-97386384D01*
X191283373Y-97352037D01*
X191349558Y-97345518D01*
X191415740Y-97339000D01*
X191504260Y-97339000D01*
X191570443Y-97345519D01*
X191570443Y-97345519D01*
G37*
G36*
X194110443Y-97345519D02*
X194176627Y-97352037D01*
X194289853Y-97386384D01*
X194346467Y-97403557D01*
X194485087Y-97477652D01*
X194502991Y-97487222D01*
X194515980Y-97497882D01*
X194640186Y-97599814D01*
X194723448Y-97701271D01*
X194752778Y-97737009D01*
X194752779Y-97737011D01*
X194836443Y-97893533D01*
X194836443Y-97893534D01*
X194887963Y-98063373D01*
X194905359Y-98240000D01*
X194887963Y-98416627D01*
X194853616Y-98529853D01*
X194836443Y-98586467D01*
X194762348Y-98725087D01*
X194752778Y-98742991D01*
X194723448Y-98778729D01*
X194640186Y-98880186D01*
X194538729Y-98963448D01*
X194502991Y-98992778D01*
X194502989Y-98992779D01*
X194346467Y-99076443D01*
X194289853Y-99093616D01*
X194176627Y-99127963D01*
X194110442Y-99134482D01*
X194044260Y-99141000D01*
X193955740Y-99141000D01*
X193889558Y-99134482D01*
X193823373Y-99127963D01*
X193710147Y-99093616D01*
X193653533Y-99076443D01*
X193497011Y-98992779D01*
X193497009Y-98992778D01*
X193461271Y-98963448D01*
X193359814Y-98880186D01*
X193276552Y-98778729D01*
X193247222Y-98742991D01*
X193237652Y-98725087D01*
X193163557Y-98586467D01*
X193146384Y-98529853D01*
X193112037Y-98416627D01*
X193094641Y-98240000D01*
X193112037Y-98063373D01*
X193163557Y-97893534D01*
X193163557Y-97893533D01*
X193247221Y-97737011D01*
X193247222Y-97737009D01*
X193276552Y-97701271D01*
X193359814Y-97599814D01*
X193484020Y-97497882D01*
X193497009Y-97487222D01*
X193514913Y-97477652D01*
X193653533Y-97403557D01*
X193710147Y-97386384D01*
X193823373Y-97352037D01*
X193889558Y-97345518D01*
X193955740Y-97339000D01*
X194044260Y-97339000D01*
X194110443Y-97345519D01*
X194110443Y-97345519D01*
G37*
G36*
X194110443Y-94805519D02*
X194176627Y-94812037D01*
X194279483Y-94843238D01*
X194346467Y-94863557D01*
X194485087Y-94937652D01*
X194502991Y-94947222D01*
X194538729Y-94976552D01*
X194640186Y-95059814D01*
X194723448Y-95161271D01*
X194752778Y-95197009D01*
X194752779Y-95197011D01*
X194836443Y-95353533D01*
X194836443Y-95353534D01*
X194887963Y-95523373D01*
X194905359Y-95700000D01*
X194887963Y-95876627D01*
X194855178Y-95984705D01*
X194836443Y-96046467D01*
X194762348Y-96185087D01*
X194752778Y-96202991D01*
X194723448Y-96238729D01*
X194640186Y-96340186D01*
X194538729Y-96423448D01*
X194502991Y-96452778D01*
X194502989Y-96452779D01*
X194346467Y-96536443D01*
X194289853Y-96553616D01*
X194176627Y-96587963D01*
X194110443Y-96594481D01*
X194044260Y-96601000D01*
X193955740Y-96601000D01*
X193889557Y-96594481D01*
X193823373Y-96587963D01*
X193710147Y-96553616D01*
X193653533Y-96536443D01*
X193497011Y-96452779D01*
X193497009Y-96452778D01*
X193461271Y-96423448D01*
X193359814Y-96340186D01*
X193276552Y-96238729D01*
X193247222Y-96202991D01*
X193237652Y-96185087D01*
X193163557Y-96046467D01*
X193144822Y-95984705D01*
X193112037Y-95876627D01*
X193094641Y-95700000D01*
X193112037Y-95523373D01*
X193163557Y-95353534D01*
X193163557Y-95353533D01*
X193247221Y-95197011D01*
X193247222Y-95197009D01*
X193276552Y-95161271D01*
X193359814Y-95059814D01*
X193461271Y-94976552D01*
X193497009Y-94947222D01*
X193514913Y-94937652D01*
X193653533Y-94863557D01*
X193720517Y-94843238D01*
X193823373Y-94812037D01*
X193889557Y-94805519D01*
X193955740Y-94799000D01*
X194044260Y-94799000D01*
X194110443Y-94805519D01*
X194110443Y-94805519D01*
G37*
G36*
X191570443Y-94805519D02*
X191636627Y-94812037D01*
X191739483Y-94843238D01*
X191806467Y-94863557D01*
X191945087Y-94937652D01*
X191962991Y-94947222D01*
X191998729Y-94976552D01*
X192100186Y-95059814D01*
X192183448Y-95161271D01*
X192212778Y-95197009D01*
X192212779Y-95197011D01*
X192296443Y-95353533D01*
X192296443Y-95353534D01*
X192347963Y-95523373D01*
X192365359Y-95700000D01*
X192347963Y-95876627D01*
X192315178Y-95984705D01*
X192296443Y-96046467D01*
X192222348Y-96185087D01*
X192212778Y-96202991D01*
X192183448Y-96238729D01*
X192100186Y-96340186D01*
X191998729Y-96423448D01*
X191962991Y-96452778D01*
X191962989Y-96452779D01*
X191806467Y-96536443D01*
X191749853Y-96553616D01*
X191636627Y-96587963D01*
X191570443Y-96594481D01*
X191504260Y-96601000D01*
X191415740Y-96601000D01*
X191349557Y-96594481D01*
X191283373Y-96587963D01*
X191170147Y-96553616D01*
X191113533Y-96536443D01*
X190957011Y-96452779D01*
X190957009Y-96452778D01*
X190921271Y-96423448D01*
X190819814Y-96340186D01*
X190736552Y-96238729D01*
X190707222Y-96202991D01*
X190697652Y-96185087D01*
X190623557Y-96046467D01*
X190604822Y-95984705D01*
X190572037Y-95876627D01*
X190554641Y-95700000D01*
X190572037Y-95523373D01*
X190623557Y-95353534D01*
X190623557Y-95353533D01*
X190707221Y-95197011D01*
X190707222Y-95197009D01*
X190736552Y-95161271D01*
X190819814Y-95059814D01*
X190921271Y-94976552D01*
X190957009Y-94947222D01*
X190974913Y-94937652D01*
X191113533Y-94863557D01*
X191180517Y-94843238D01*
X191283373Y-94812037D01*
X191349557Y-94805519D01*
X191415740Y-94799000D01*
X191504260Y-94799000D01*
X191570443Y-94805519D01*
X191570443Y-94805519D01*
G37*
G36*
X187804527Y-93484736D02*
X187904410Y-93504604D01*
X188186674Y-93621521D01*
X188440705Y-93791259D01*
X188656741Y-94007295D01*
X188826479Y-94261326D01*
X188865132Y-94354644D01*
X188943396Y-94543591D01*
X189003000Y-94843238D01*
X189003000Y-95148762D01*
X188982758Y-95250525D01*
X188943396Y-95448410D01*
X188826479Y-95730674D01*
X188656741Y-95984705D01*
X188440705Y-96200741D01*
X188186674Y-96370479D01*
X187904410Y-96487396D01*
X187804527Y-96507264D01*
X187604762Y-96547000D01*
X187299238Y-96547000D01*
X187099473Y-96507264D01*
X186999590Y-96487396D01*
X186717326Y-96370479D01*
X186463295Y-96200741D01*
X186247259Y-95984705D01*
X186077521Y-95730674D01*
X185960604Y-95448410D01*
X185921242Y-95250525D01*
X185901000Y-95148762D01*
X185901000Y-94843238D01*
X185960604Y-94543591D01*
X186038868Y-94354644D01*
X186077521Y-94261326D01*
X186247259Y-94007295D01*
X186463295Y-93791259D01*
X186717326Y-93621521D01*
X186999590Y-93504604D01*
X187099473Y-93484736D01*
X187299238Y-93445000D01*
X187604762Y-93445000D01*
X187804527Y-93484736D01*
X187804527Y-93484736D01*
G37*
G36*
X183923000Y-96547000D02*
X180821000Y-96547000D01*
X180821000Y-93445000D01*
X183923000Y-93445000D01*
X183923000Y-96547000D01*
X183923000Y-96547000D01*
G37*
G36*
X173073731Y-92689136D02*
X173176644Y-92699272D01*
X173352703Y-92752679D01*
X173440734Y-92779383D01*
X173504624Y-92813533D01*
X173684120Y-92909475D01*
X173785259Y-92992479D01*
X173897450Y-93084550D01*
X173959369Y-93160000D01*
X174072525Y-93297880D01*
X174151162Y-93445000D01*
X174202617Y-93541266D01*
X174202617Y-93541267D01*
X174282728Y-93805356D01*
X174309778Y-94080000D01*
X174282728Y-94354644D01*
X174229321Y-94530703D01*
X174202617Y-94618734D01*
X174159253Y-94699862D01*
X174072525Y-94862120D01*
X174002684Y-94947221D01*
X173897450Y-95075450D01*
X173808120Y-95148760D01*
X173684120Y-95250525D01*
X173521862Y-95337253D01*
X173440734Y-95380617D01*
X173352703Y-95407321D01*
X173176644Y-95460728D01*
X173073731Y-95470864D01*
X172970820Y-95481000D01*
X172233180Y-95481000D01*
X172130269Y-95470864D01*
X172027356Y-95460728D01*
X171851297Y-95407321D01*
X171763266Y-95380617D01*
X171682138Y-95337253D01*
X171519880Y-95250525D01*
X171395880Y-95148760D01*
X171306550Y-95075450D01*
X171201316Y-94947221D01*
X171131475Y-94862120D01*
X171044747Y-94699862D01*
X171001383Y-94618734D01*
X170974679Y-94530703D01*
X170921272Y-94354644D01*
X170894222Y-94080000D01*
X170921272Y-93805356D01*
X171001383Y-93541267D01*
X171001383Y-93541266D01*
X171052838Y-93445000D01*
X171131475Y-93297880D01*
X171244631Y-93160000D01*
X171306550Y-93084550D01*
X171418741Y-92992479D01*
X171519880Y-92909475D01*
X171699376Y-92813533D01*
X171763266Y-92779383D01*
X171851297Y-92752679D01*
X172027356Y-92699272D01*
X172130269Y-92689136D01*
X172233180Y-92679000D01*
X172970820Y-92679000D01*
X173073731Y-92689136D01*
X173073731Y-92689136D01*
G37*
G36*
X168873731Y-92689136D02*
X168976644Y-92699272D01*
X169152703Y-92752679D01*
X169240734Y-92779383D01*
X169304624Y-92813533D01*
X169484120Y-92909475D01*
X169585259Y-92992479D01*
X169697450Y-93084550D01*
X169759369Y-93160000D01*
X169872525Y-93297880D01*
X169951162Y-93445000D01*
X170002617Y-93541266D01*
X170002617Y-93541267D01*
X170082728Y-93805356D01*
X170109778Y-94080000D01*
X170082728Y-94354644D01*
X170029321Y-94530703D01*
X170002617Y-94618734D01*
X169959253Y-94699862D01*
X169872525Y-94862120D01*
X169802684Y-94947221D01*
X169697450Y-95075450D01*
X169608120Y-95148760D01*
X169484120Y-95250525D01*
X169321862Y-95337253D01*
X169240734Y-95380617D01*
X169152703Y-95407321D01*
X168976644Y-95460728D01*
X168873731Y-95470864D01*
X168770820Y-95481000D01*
X168033180Y-95481000D01*
X167930269Y-95470864D01*
X167827356Y-95460728D01*
X167651297Y-95407321D01*
X167563266Y-95380617D01*
X167482138Y-95337253D01*
X167319880Y-95250525D01*
X167195880Y-95148760D01*
X167106550Y-95075450D01*
X167001316Y-94947221D01*
X166931475Y-94862120D01*
X166844747Y-94699862D01*
X166801383Y-94618734D01*
X166774679Y-94530703D01*
X166721272Y-94354644D01*
X166694222Y-94080000D01*
X166721272Y-93805356D01*
X166801383Y-93541267D01*
X166801383Y-93541266D01*
X166852838Y-93445000D01*
X166931475Y-93297880D01*
X167044631Y-93160000D01*
X167106550Y-93084550D01*
X167218741Y-92992479D01*
X167319880Y-92909475D01*
X167499376Y-92813533D01*
X167563266Y-92779383D01*
X167651297Y-92752679D01*
X167827356Y-92699272D01*
X167930269Y-92689136D01*
X168033180Y-92679000D01*
X168770820Y-92679000D01*
X168873731Y-92689136D01*
X168873731Y-92689136D01*
G37*
G36*
X191570442Y-92265518D02*
X191636627Y-92272037D01*
X191749853Y-92306384D01*
X191806467Y-92323557D01*
X191945087Y-92397652D01*
X191962991Y-92407222D01*
X191998729Y-92436552D01*
X192100186Y-92519814D01*
X192183448Y-92621271D01*
X192212778Y-92657009D01*
X192212779Y-92657011D01*
X192296443Y-92813533D01*
X192296443Y-92813534D01*
X192347963Y-92983373D01*
X192365359Y-93160000D01*
X192347963Y-93336627D01*
X192315088Y-93445000D01*
X192296443Y-93506467D01*
X192234944Y-93621521D01*
X192212778Y-93662991D01*
X192183448Y-93698729D01*
X192100186Y-93800186D01*
X191998729Y-93883448D01*
X191962991Y-93912778D01*
X191962989Y-93912779D01*
X191806467Y-93996443D01*
X191770692Y-94007295D01*
X191636627Y-94047963D01*
X191570443Y-94054481D01*
X191504260Y-94061000D01*
X191415740Y-94061000D01*
X191349558Y-94054482D01*
X191283373Y-94047963D01*
X191149308Y-94007295D01*
X191113533Y-93996443D01*
X190957011Y-93912779D01*
X190957009Y-93912778D01*
X190921271Y-93883448D01*
X190819814Y-93800186D01*
X190736552Y-93698729D01*
X190707222Y-93662991D01*
X190685056Y-93621521D01*
X190623557Y-93506467D01*
X190604912Y-93445000D01*
X190572037Y-93336627D01*
X190554641Y-93160000D01*
X190572037Y-92983373D01*
X190623557Y-92813534D01*
X190623557Y-92813533D01*
X190707221Y-92657011D01*
X190707222Y-92657009D01*
X190736552Y-92621271D01*
X190819814Y-92519814D01*
X190921271Y-92436552D01*
X190957009Y-92407222D01*
X190974913Y-92397652D01*
X191113533Y-92323557D01*
X191170147Y-92306384D01*
X191283373Y-92272037D01*
X191349558Y-92265518D01*
X191415740Y-92259000D01*
X191504260Y-92259000D01*
X191570442Y-92265518D01*
X191570442Y-92265518D01*
G37*
G36*
X194110442Y-92265518D02*
X194176627Y-92272037D01*
X194289853Y-92306384D01*
X194346467Y-92323557D01*
X194485087Y-92397652D01*
X194502991Y-92407222D01*
X194538729Y-92436552D01*
X194640186Y-92519814D01*
X194723448Y-92621271D01*
X194752778Y-92657009D01*
X194752779Y-92657011D01*
X194836443Y-92813533D01*
X194836443Y-92813534D01*
X194887963Y-92983373D01*
X194905359Y-93160000D01*
X194887963Y-93336627D01*
X194855088Y-93445000D01*
X194836443Y-93506467D01*
X194774944Y-93621521D01*
X194752778Y-93662991D01*
X194723448Y-93698729D01*
X194640186Y-93800186D01*
X194538729Y-93883448D01*
X194502991Y-93912778D01*
X194502989Y-93912779D01*
X194346467Y-93996443D01*
X194310692Y-94007295D01*
X194176627Y-94047963D01*
X194110443Y-94054481D01*
X194044260Y-94061000D01*
X193955740Y-94061000D01*
X193889558Y-94054482D01*
X193823373Y-94047963D01*
X193689308Y-94007295D01*
X193653533Y-93996443D01*
X193497011Y-93912779D01*
X193497009Y-93912778D01*
X193461271Y-93883448D01*
X193359814Y-93800186D01*
X193276552Y-93698729D01*
X193247222Y-93662991D01*
X193225056Y-93621521D01*
X193163557Y-93506467D01*
X193144912Y-93445000D01*
X193112037Y-93336627D01*
X193094641Y-93160000D01*
X193112037Y-92983373D01*
X193163557Y-92813534D01*
X193163557Y-92813533D01*
X193247221Y-92657011D01*
X193247222Y-92657009D01*
X193276552Y-92621271D01*
X193359814Y-92519814D01*
X193461271Y-92436552D01*
X193497009Y-92407222D01*
X193514913Y-92397652D01*
X193653533Y-92323557D01*
X193710147Y-92306384D01*
X193823373Y-92272037D01*
X193889558Y-92265518D01*
X193955740Y-92259000D01*
X194044260Y-92259000D01*
X194110442Y-92265518D01*
X194110442Y-92265518D01*
G37*
G36*
X194110442Y-89725518D02*
X194176627Y-89732037D01*
X194289853Y-89766384D01*
X194346467Y-89783557D01*
X194485087Y-89857652D01*
X194502991Y-89867222D01*
X194538729Y-89896552D01*
X194640186Y-89979814D01*
X194723448Y-90081271D01*
X194752778Y-90117009D01*
X194752779Y-90117011D01*
X194836443Y-90273533D01*
X194836443Y-90273534D01*
X194887963Y-90443373D01*
X194905359Y-90620000D01*
X194887963Y-90796627D01*
X194853616Y-90909853D01*
X194836443Y-90966467D01*
X194762348Y-91105087D01*
X194752778Y-91122991D01*
X194723448Y-91158729D01*
X194640186Y-91260186D01*
X194538729Y-91343448D01*
X194502991Y-91372778D01*
X194502989Y-91372779D01*
X194346467Y-91456443D01*
X194289853Y-91473616D01*
X194176627Y-91507963D01*
X194110442Y-91514482D01*
X194044260Y-91521000D01*
X193955740Y-91521000D01*
X193889558Y-91514482D01*
X193823373Y-91507963D01*
X193710147Y-91473616D01*
X193653533Y-91456443D01*
X193497011Y-91372779D01*
X193497009Y-91372778D01*
X193461271Y-91343448D01*
X193359814Y-91260186D01*
X193276552Y-91158729D01*
X193247222Y-91122991D01*
X193237652Y-91105087D01*
X193163557Y-90966467D01*
X193146384Y-90909853D01*
X193112037Y-90796627D01*
X193094641Y-90620000D01*
X193112037Y-90443373D01*
X193163557Y-90273534D01*
X193163557Y-90273533D01*
X193247221Y-90117011D01*
X193247222Y-90117009D01*
X193276552Y-90081271D01*
X193359814Y-89979814D01*
X193461271Y-89896552D01*
X193497009Y-89867222D01*
X193514913Y-89857652D01*
X193653533Y-89783557D01*
X193710147Y-89766384D01*
X193823373Y-89732037D01*
X193889558Y-89725518D01*
X193955740Y-89719000D01*
X194044260Y-89719000D01*
X194110442Y-89725518D01*
X194110442Y-89725518D01*
G37*
G36*
X191570442Y-89725518D02*
X191636627Y-89732037D01*
X191749853Y-89766384D01*
X191806467Y-89783557D01*
X191945087Y-89857652D01*
X191962991Y-89867222D01*
X191998729Y-89896552D01*
X192100186Y-89979814D01*
X192183448Y-90081271D01*
X192212778Y-90117009D01*
X192212779Y-90117011D01*
X192296443Y-90273533D01*
X192296443Y-90273534D01*
X192347963Y-90443373D01*
X192365359Y-90620000D01*
X192347963Y-90796627D01*
X192313616Y-90909853D01*
X192296443Y-90966467D01*
X192222348Y-91105087D01*
X192212778Y-91122991D01*
X192183448Y-91158729D01*
X192100186Y-91260186D01*
X191998729Y-91343448D01*
X191962991Y-91372778D01*
X191962989Y-91372779D01*
X191806467Y-91456443D01*
X191749853Y-91473616D01*
X191636627Y-91507963D01*
X191570442Y-91514482D01*
X191504260Y-91521000D01*
X191415740Y-91521000D01*
X191349558Y-91514482D01*
X191283373Y-91507963D01*
X191170147Y-91473616D01*
X191113533Y-91456443D01*
X190957011Y-91372779D01*
X190957009Y-91372778D01*
X190921271Y-91343448D01*
X190819814Y-91260186D01*
X190736552Y-91158729D01*
X190707222Y-91122991D01*
X190697652Y-91105087D01*
X190623557Y-90966467D01*
X190606384Y-90909853D01*
X190572037Y-90796627D01*
X190554641Y-90620000D01*
X190572037Y-90443373D01*
X190623557Y-90273534D01*
X190623557Y-90273533D01*
X190707221Y-90117011D01*
X190707222Y-90117009D01*
X190736552Y-90081271D01*
X190819814Y-89979814D01*
X190921271Y-89896552D01*
X190957009Y-89867222D01*
X190974913Y-89857652D01*
X191113533Y-89783557D01*
X191170147Y-89766384D01*
X191283373Y-89732037D01*
X191349558Y-89725518D01*
X191415740Y-89719000D01*
X191504260Y-89719000D01*
X191570442Y-89725518D01*
X191570442Y-89725518D01*
G37*
G36*
X194110443Y-87185519D02*
X194176627Y-87192037D01*
X194289853Y-87226384D01*
X194346467Y-87243557D01*
X194485087Y-87317652D01*
X194502991Y-87327222D01*
X194538729Y-87356552D01*
X194640186Y-87439814D01*
X194723448Y-87541271D01*
X194752778Y-87577009D01*
X194752779Y-87577011D01*
X194836443Y-87733533D01*
X194836443Y-87733534D01*
X194887963Y-87903373D01*
X194905359Y-88080000D01*
X194887963Y-88256627D01*
X194856788Y-88359396D01*
X194836443Y-88426467D01*
X194762348Y-88565087D01*
X194752778Y-88582991D01*
X194723448Y-88618729D01*
X194640186Y-88720186D01*
X194538729Y-88803448D01*
X194502991Y-88832778D01*
X194502989Y-88832779D01*
X194346467Y-88916443D01*
X194289853Y-88933616D01*
X194176627Y-88967963D01*
X194110443Y-88974481D01*
X194044260Y-88981000D01*
X193955740Y-88981000D01*
X193889558Y-88974482D01*
X193823373Y-88967963D01*
X193710147Y-88933616D01*
X193653533Y-88916443D01*
X193497011Y-88832779D01*
X193497009Y-88832778D01*
X193461271Y-88803448D01*
X193359814Y-88720186D01*
X193276552Y-88618729D01*
X193247222Y-88582991D01*
X193237652Y-88565087D01*
X193163557Y-88426467D01*
X193143212Y-88359396D01*
X193112037Y-88256627D01*
X193094641Y-88080000D01*
X193112037Y-87903373D01*
X193163557Y-87733534D01*
X193163557Y-87733533D01*
X193247221Y-87577011D01*
X193247222Y-87577009D01*
X193276552Y-87541271D01*
X193359814Y-87439814D01*
X193461271Y-87356552D01*
X193497009Y-87327222D01*
X193514913Y-87317652D01*
X193653533Y-87243557D01*
X193710147Y-87226384D01*
X193823373Y-87192037D01*
X193889557Y-87185519D01*
X193955740Y-87179000D01*
X194044260Y-87179000D01*
X194110443Y-87185519D01*
X194110443Y-87185519D01*
G37*
G36*
X191570443Y-87185519D02*
X191636627Y-87192037D01*
X191749853Y-87226384D01*
X191806467Y-87243557D01*
X191945087Y-87317652D01*
X191962991Y-87327222D01*
X191998729Y-87356552D01*
X192100186Y-87439814D01*
X192183448Y-87541271D01*
X192212778Y-87577009D01*
X192212779Y-87577011D01*
X192296443Y-87733533D01*
X192296443Y-87733534D01*
X192347963Y-87903373D01*
X192365359Y-88080000D01*
X192347963Y-88256627D01*
X192316788Y-88359396D01*
X192296443Y-88426467D01*
X192222348Y-88565087D01*
X192212778Y-88582991D01*
X192183448Y-88618729D01*
X192100186Y-88720186D01*
X191998729Y-88803448D01*
X191962991Y-88832778D01*
X191962989Y-88832779D01*
X191806467Y-88916443D01*
X191749853Y-88933616D01*
X191636627Y-88967963D01*
X191570443Y-88974481D01*
X191504260Y-88981000D01*
X191415740Y-88981000D01*
X191349558Y-88974482D01*
X191283373Y-88967963D01*
X191170147Y-88933616D01*
X191113533Y-88916443D01*
X190957011Y-88832779D01*
X190957009Y-88832778D01*
X190921271Y-88803448D01*
X190819814Y-88720186D01*
X190736552Y-88618729D01*
X190707222Y-88582991D01*
X190697652Y-88565087D01*
X190623557Y-88426467D01*
X190603212Y-88359396D01*
X190572037Y-88256627D01*
X190554641Y-88080000D01*
X190572037Y-87903373D01*
X190623557Y-87733534D01*
X190623557Y-87733533D01*
X190707221Y-87577011D01*
X190707222Y-87577009D01*
X190736552Y-87541271D01*
X190819814Y-87439814D01*
X190921271Y-87356552D01*
X190957009Y-87327222D01*
X190974913Y-87317652D01*
X191113533Y-87243557D01*
X191170147Y-87226384D01*
X191283373Y-87192037D01*
X191349557Y-87185519D01*
X191415740Y-87179000D01*
X191504260Y-87179000D01*
X191570443Y-87185519D01*
X191570443Y-87185519D01*
G37*
G36*
X182724527Y-85356736D02*
X182824410Y-85376604D01*
X183106674Y-85493521D01*
X183360705Y-85663259D01*
X183576741Y-85879295D01*
X183746479Y-86133326D01*
X183863396Y-86415590D01*
X183923000Y-86715240D01*
X183923000Y-87020760D01*
X183863396Y-87320410D01*
X183746479Y-87602674D01*
X183576741Y-87856705D01*
X183360705Y-88072741D01*
X183106674Y-88242479D01*
X182824410Y-88359396D01*
X182724527Y-88379264D01*
X182524762Y-88419000D01*
X182219238Y-88419000D01*
X182019473Y-88379264D01*
X181919590Y-88359396D01*
X181637326Y-88242479D01*
X181383295Y-88072741D01*
X181167259Y-87856705D01*
X180997521Y-87602674D01*
X180880604Y-87320410D01*
X180821000Y-87020760D01*
X180821000Y-86715240D01*
X180880604Y-86415590D01*
X180997521Y-86133326D01*
X181167259Y-85879295D01*
X181383295Y-85663259D01*
X181637326Y-85493521D01*
X181919590Y-85376604D01*
X182019473Y-85356736D01*
X182219238Y-85317000D01*
X182524762Y-85317000D01*
X182724527Y-85356736D01*
X182724527Y-85356736D01*
G37*
G36*
X168683000Y-88419000D02*
X165581000Y-88419000D01*
X165581000Y-85317000D01*
X168683000Y-85317000D01*
X168683000Y-88419000D01*
X168683000Y-88419000D01*
G37*
G36*
X162404527Y-85356736D02*
X162504410Y-85376604D01*
X162786674Y-85493521D01*
X163040705Y-85663259D01*
X163256741Y-85879295D01*
X163426479Y-86133326D01*
X163543396Y-86415590D01*
X163603000Y-86715240D01*
X163603000Y-87020760D01*
X163543396Y-87320410D01*
X163426479Y-87602674D01*
X163256741Y-87856705D01*
X163040705Y-88072741D01*
X162786674Y-88242479D01*
X162504410Y-88359396D01*
X162404527Y-88379264D01*
X162204762Y-88419000D01*
X161899238Y-88419000D01*
X161699473Y-88379264D01*
X161599590Y-88359396D01*
X161317326Y-88242479D01*
X161063295Y-88072741D01*
X160847259Y-87856705D01*
X160677521Y-87602674D01*
X160560604Y-87320410D01*
X160501000Y-87020760D01*
X160501000Y-86715240D01*
X160560604Y-86415590D01*
X160677521Y-86133326D01*
X160847259Y-85879295D01*
X161063295Y-85663259D01*
X161317326Y-85493521D01*
X161599590Y-85376604D01*
X161699473Y-85356736D01*
X161899238Y-85317000D01*
X162204762Y-85317000D01*
X162404527Y-85356736D01*
X162404527Y-85356736D01*
G37*
G36*
X152244527Y-85356736D02*
X152344410Y-85376604D01*
X152626674Y-85493521D01*
X152880705Y-85663259D01*
X153096741Y-85879295D01*
X153266479Y-86133326D01*
X153383396Y-86415590D01*
X153443000Y-86715240D01*
X153443000Y-87020760D01*
X153383396Y-87320410D01*
X153266479Y-87602674D01*
X153096741Y-87856705D01*
X152880705Y-88072741D01*
X152626674Y-88242479D01*
X152344410Y-88359396D01*
X152244527Y-88379264D01*
X152044762Y-88419000D01*
X151739238Y-88419000D01*
X151539473Y-88379264D01*
X151439590Y-88359396D01*
X151157326Y-88242479D01*
X150903295Y-88072741D01*
X150687259Y-87856705D01*
X150517521Y-87602674D01*
X150400604Y-87320410D01*
X150341000Y-87020760D01*
X150341000Y-86715240D01*
X150400604Y-86415590D01*
X150517521Y-86133326D01*
X150687259Y-85879295D01*
X150903295Y-85663259D01*
X151157326Y-85493521D01*
X151439590Y-85376604D01*
X151539473Y-85356736D01*
X151739238Y-85317000D01*
X152044762Y-85317000D01*
X152244527Y-85356736D01*
X152244527Y-85356736D01*
G37*
G36*
X189003000Y-88419000D02*
X185901000Y-88419000D01*
X185901000Y-85317000D01*
X189003000Y-85317000D01*
X189003000Y-88419000D01*
X189003000Y-88419000D01*
G37*
G36*
X178843000Y-88419000D02*
X175741000Y-88419000D01*
X175741000Y-85317000D01*
X178843000Y-85317000D01*
X178843000Y-88419000D01*
X178843000Y-88419000D01*
G37*
G36*
X172564527Y-85356736D02*
X172664410Y-85376604D01*
X172946674Y-85493521D01*
X173200705Y-85663259D01*
X173416741Y-85879295D01*
X173586479Y-86133326D01*
X173703396Y-86415590D01*
X173763000Y-86715240D01*
X173763000Y-87020760D01*
X173703396Y-87320410D01*
X173586479Y-87602674D01*
X173416741Y-87856705D01*
X173200705Y-88072741D01*
X172946674Y-88242479D01*
X172664410Y-88359396D01*
X172564527Y-88379264D01*
X172364762Y-88419000D01*
X172059238Y-88419000D01*
X171859473Y-88379264D01*
X171759590Y-88359396D01*
X171477326Y-88242479D01*
X171223295Y-88072741D01*
X171007259Y-87856705D01*
X170837521Y-87602674D01*
X170720604Y-87320410D01*
X170661000Y-87020760D01*
X170661000Y-86715240D01*
X170720604Y-86415590D01*
X170837521Y-86133326D01*
X171007259Y-85879295D01*
X171223295Y-85663259D01*
X171477326Y-85493521D01*
X171759590Y-85376604D01*
X171859473Y-85356736D01*
X172059238Y-85317000D01*
X172364762Y-85317000D01*
X172564527Y-85356736D01*
X172564527Y-85356736D01*
G37*
G36*
X158523000Y-88419000D02*
X155421000Y-88419000D01*
X155421000Y-85317000D01*
X158523000Y-85317000D01*
X158523000Y-88419000D01*
X158523000Y-88419000D01*
G37*
G36*
X191570442Y-84645518D02*
X191636627Y-84652037D01*
X191749853Y-84686384D01*
X191806467Y-84703557D01*
X191945087Y-84777652D01*
X191962991Y-84787222D01*
X191998729Y-84816552D01*
X192100186Y-84899814D01*
X192183448Y-85001271D01*
X192212778Y-85037009D01*
X192212779Y-85037011D01*
X192296443Y-85193533D01*
X192313616Y-85250147D01*
X192347963Y-85363373D01*
X192365359Y-85540000D01*
X192347963Y-85716627D01*
X192340728Y-85740476D01*
X192296443Y-85886467D01*
X192222348Y-86025087D01*
X192212778Y-86042991D01*
X192183448Y-86078729D01*
X192100186Y-86180186D01*
X191998729Y-86263448D01*
X191962991Y-86292778D01*
X191962989Y-86292779D01*
X191806467Y-86376443D01*
X191749853Y-86393616D01*
X191636627Y-86427963D01*
X191570443Y-86434481D01*
X191504260Y-86441000D01*
X191415740Y-86441000D01*
X191349557Y-86434481D01*
X191283373Y-86427963D01*
X191170147Y-86393616D01*
X191113533Y-86376443D01*
X190957011Y-86292779D01*
X190957009Y-86292778D01*
X190921271Y-86263448D01*
X190819814Y-86180186D01*
X190736552Y-86078729D01*
X190707222Y-86042991D01*
X190697652Y-86025087D01*
X190623557Y-85886467D01*
X190579272Y-85740476D01*
X190572037Y-85716627D01*
X190554641Y-85540000D01*
X190572037Y-85363373D01*
X190606384Y-85250147D01*
X190623557Y-85193533D01*
X190707221Y-85037011D01*
X190707222Y-85037009D01*
X190736552Y-85001271D01*
X190819814Y-84899814D01*
X190921271Y-84816552D01*
X190957009Y-84787222D01*
X190974913Y-84777652D01*
X191113533Y-84703557D01*
X191170147Y-84686384D01*
X191283373Y-84652037D01*
X191349558Y-84645518D01*
X191415740Y-84639000D01*
X191504260Y-84639000D01*
X191570442Y-84645518D01*
X191570442Y-84645518D01*
G37*
G36*
X194110442Y-84645518D02*
X194176627Y-84652037D01*
X194289853Y-84686384D01*
X194346467Y-84703557D01*
X194485087Y-84777652D01*
X194502991Y-84787222D01*
X194538729Y-84816552D01*
X194640186Y-84899814D01*
X194723448Y-85001271D01*
X194752778Y-85037009D01*
X194752779Y-85037011D01*
X194836443Y-85193533D01*
X194853616Y-85250147D01*
X194887963Y-85363373D01*
X194905359Y-85540000D01*
X194887963Y-85716627D01*
X194880728Y-85740476D01*
X194836443Y-85886467D01*
X194762348Y-86025087D01*
X194752778Y-86042991D01*
X194723448Y-86078729D01*
X194640186Y-86180186D01*
X194538729Y-86263448D01*
X194502991Y-86292778D01*
X194502989Y-86292779D01*
X194346467Y-86376443D01*
X194289853Y-86393616D01*
X194176627Y-86427963D01*
X194110443Y-86434481D01*
X194044260Y-86441000D01*
X193955740Y-86441000D01*
X193889557Y-86434481D01*
X193823373Y-86427963D01*
X193710147Y-86393616D01*
X193653533Y-86376443D01*
X193497011Y-86292779D01*
X193497009Y-86292778D01*
X193461271Y-86263448D01*
X193359814Y-86180186D01*
X193276552Y-86078729D01*
X193247222Y-86042991D01*
X193237652Y-86025087D01*
X193163557Y-85886467D01*
X193119272Y-85740476D01*
X193112037Y-85716627D01*
X193094641Y-85540000D01*
X193112037Y-85363373D01*
X193146384Y-85250147D01*
X193163557Y-85193533D01*
X193247221Y-85037011D01*
X193247222Y-85037009D01*
X193276552Y-85001271D01*
X193359814Y-84899814D01*
X193461271Y-84816552D01*
X193497009Y-84787222D01*
X193514913Y-84777652D01*
X193653533Y-84703557D01*
X193710147Y-84686384D01*
X193823373Y-84652037D01*
X193889558Y-84645518D01*
X193955740Y-84639000D01*
X194044260Y-84639000D01*
X194110442Y-84645518D01*
X194110442Y-84645518D01*
G37*
G36*
X135831312Y-80259523D02*
X136349982Y-80474363D01*
X136816772Y-80786262D01*
X137213738Y-81183228D01*
X137525637Y-81650018D01*
X137740477Y-82168688D01*
X137850000Y-82719298D01*
X137850000Y-83280702D01*
X137740477Y-83831312D01*
X137525637Y-84349982D01*
X137213738Y-84816772D01*
X136816772Y-85213738D01*
X136349982Y-85525637D01*
X135831312Y-85740477D01*
X135280702Y-85850000D01*
X134719298Y-85850000D01*
X134168688Y-85740477D01*
X133650018Y-85525637D01*
X133183228Y-85213738D01*
X132786262Y-84816772D01*
X132474363Y-84349982D01*
X132259523Y-83831312D01*
X132150000Y-83280702D01*
X132150000Y-82719298D01*
X132259523Y-82168688D01*
X132474363Y-81650018D01*
X132786262Y-81183228D01*
X133183228Y-80786262D01*
X133650018Y-80474363D01*
X134168688Y-80259523D01*
X134719298Y-80150000D01*
X135280702Y-80150000D01*
X135831312Y-80259523D01*
X135831312Y-80259523D01*
G37*
G36*
X194110442Y-82105518D02*
X194176627Y-82112037D01*
X194289853Y-82146384D01*
X194346467Y-82163557D01*
X194485087Y-82237652D01*
X194502991Y-82247222D01*
X194538729Y-82276552D01*
X194640186Y-82359814D01*
X194723448Y-82461271D01*
X194752778Y-82497009D01*
X194752779Y-82497011D01*
X194836443Y-82653533D01*
X194836443Y-82653534D01*
X194887963Y-82823373D01*
X194905359Y-83000000D01*
X194887963Y-83176627D01*
X194856393Y-83280701D01*
X194836443Y-83346467D01*
X194762348Y-83485087D01*
X194752778Y-83502991D01*
X194723448Y-83538729D01*
X194640186Y-83640186D01*
X194538729Y-83723448D01*
X194502991Y-83752778D01*
X194502989Y-83752779D01*
X194346467Y-83836443D01*
X194289853Y-83853616D01*
X194176627Y-83887963D01*
X194110442Y-83894482D01*
X194044260Y-83901000D01*
X193955740Y-83901000D01*
X193889558Y-83894482D01*
X193823373Y-83887963D01*
X193710147Y-83853616D01*
X193653533Y-83836443D01*
X193497011Y-83752779D01*
X193497009Y-83752778D01*
X193461271Y-83723448D01*
X193359814Y-83640186D01*
X193276552Y-83538729D01*
X193247222Y-83502991D01*
X193237652Y-83485087D01*
X193163557Y-83346467D01*
X193143607Y-83280701D01*
X193112037Y-83176627D01*
X193094641Y-83000000D01*
X193112037Y-82823373D01*
X193163557Y-82653534D01*
X193163557Y-82653533D01*
X193247221Y-82497011D01*
X193247222Y-82497009D01*
X193276552Y-82461271D01*
X193359814Y-82359814D01*
X193461271Y-82276552D01*
X193497009Y-82247222D01*
X193514913Y-82237652D01*
X193653533Y-82163557D01*
X193710147Y-82146384D01*
X193823373Y-82112037D01*
X193889558Y-82105518D01*
X193955740Y-82099000D01*
X194044260Y-82099000D01*
X194110442Y-82105518D01*
X194110442Y-82105518D01*
G37*
G36*
X191570442Y-82105518D02*
X191636627Y-82112037D01*
X191749853Y-82146384D01*
X191806467Y-82163557D01*
X191945087Y-82237652D01*
X191962991Y-82247222D01*
X191998729Y-82276552D01*
X192100186Y-82359814D01*
X192183448Y-82461271D01*
X192212778Y-82497009D01*
X192212779Y-82497011D01*
X192296443Y-82653533D01*
X192296443Y-82653534D01*
X192347963Y-82823373D01*
X192365359Y-83000000D01*
X192347963Y-83176627D01*
X192316393Y-83280701D01*
X192296443Y-83346467D01*
X192222348Y-83485087D01*
X192212778Y-83502991D01*
X192183448Y-83538729D01*
X192100186Y-83640186D01*
X191998729Y-83723448D01*
X191962991Y-83752778D01*
X191962989Y-83752779D01*
X191806467Y-83836443D01*
X191749853Y-83853616D01*
X191636627Y-83887963D01*
X191570442Y-83894482D01*
X191504260Y-83901000D01*
X191415740Y-83901000D01*
X191349558Y-83894482D01*
X191283373Y-83887963D01*
X191170147Y-83853616D01*
X191113533Y-83836443D01*
X190957011Y-83752779D01*
X190957009Y-83752778D01*
X190921271Y-83723448D01*
X190819814Y-83640186D01*
X190736552Y-83538729D01*
X190707222Y-83502991D01*
X190697652Y-83485087D01*
X190623557Y-83346467D01*
X190603607Y-83280701D01*
X190572037Y-83176627D01*
X190554641Y-83000000D01*
X190572037Y-82823373D01*
X190623557Y-82653534D01*
X190623557Y-82653533D01*
X190707221Y-82497011D01*
X190707222Y-82497009D01*
X190736552Y-82461271D01*
X190819814Y-82359814D01*
X190921271Y-82276552D01*
X190957009Y-82247222D01*
X190974913Y-82237652D01*
X191113533Y-82163557D01*
X191170147Y-82146384D01*
X191283373Y-82112037D01*
X191349558Y-82105518D01*
X191415740Y-82099000D01*
X191504260Y-82099000D01*
X191570442Y-82105518D01*
X191570442Y-82105518D01*
G37*
M02*
