G04 #@! TF.GenerationSoftware,KiCad,Pcbnew,(5.0.2)-1*
G04 #@! TF.CreationDate,2019-10-01T18:53:06+02:00*
G04 #@! TF.ProjectId,EleLab_v2_PowerFeed,456c654c-6162-45f7-9632-5f506f776572,rev?*
G04 #@! TF.SameCoordinates,Original*
G04 #@! TF.FileFunction,Copper,L2,Bot*
G04 #@! TF.FilePolarity,Positive*
%FSLAX46Y46*%
G04 Gerber Fmt 4.6, Leading zero omitted, Abs format (unit mm)*
G04 Created by KiCad (PCBNEW (5.0.2)-1) date 01/10/2019 18:53:06*
%MOMM*%
%LPD*%
G01*
G04 APERTURE LIST*
G04 #@! TA.AperFunction,Conductor*
%ADD10C,0.100000*%
G04 #@! TD*
G04 #@! TA.AperFunction,ComponentPad*
%ADD11C,2.700000*%
G04 #@! TD*
G04 #@! TA.AperFunction,ComponentPad*
%ADD12O,2.700000X3.300000*%
G04 #@! TD*
G04 #@! TA.AperFunction,ComponentPad*
%ADD13O,3.300000X2.700000*%
G04 #@! TD*
G04 #@! TA.AperFunction,ComponentPad*
%ADD14O,1.600000X1.600000*%
G04 #@! TD*
G04 #@! TA.AperFunction,ComponentPad*
%ADD15C,1.600000*%
G04 #@! TD*
G04 #@! TA.AperFunction,ComponentPad*
%ADD16R,3.000000X3.000000*%
G04 #@! TD*
G04 #@! TA.AperFunction,ComponentPad*
%ADD17C,3.000000*%
G04 #@! TD*
G04 #@! TA.AperFunction,ComponentPad*
%ADD18O,1.700000X1.700000*%
G04 #@! TD*
G04 #@! TA.AperFunction,ComponentPad*
%ADD19R,1.700000X1.700000*%
G04 #@! TD*
G04 #@! TA.AperFunction,Conductor*
%ADD20C,2.200000*%
G04 #@! TD*
G04 #@! TA.AperFunction,Conductor*
%ADD21C,1.900000*%
G04 #@! TD*
G04 #@! TA.AperFunction,Conductor*
%ADD22C,0.250000*%
G04 #@! TD*
G04 #@! TA.AperFunction,NonConductor*
%ADD23C,0.254000*%
G04 #@! TD*
G04 APERTURE END LIST*
D10*
G04 #@! TO.N,Net-(J1-Pad1)*
G04 #@! TO.C,J1*
G36*
X142175512Y-117223209D02*
X142199887Y-117226825D01*
X142223790Y-117232812D01*
X142246992Y-117241114D01*
X142269268Y-117251650D01*
X142290404Y-117264318D01*
X142310196Y-117278997D01*
X142328455Y-117295545D01*
X142345003Y-117313804D01*
X142359682Y-117333596D01*
X142372350Y-117354732D01*
X142382886Y-117377008D01*
X142391188Y-117400210D01*
X142397175Y-117424113D01*
X142400791Y-117448488D01*
X142402000Y-117473100D01*
X142402000Y-120270900D01*
X142400791Y-120295512D01*
X142397175Y-120319887D01*
X142391188Y-120343790D01*
X142382886Y-120366992D01*
X142372350Y-120389268D01*
X142359682Y-120410404D01*
X142345003Y-120430196D01*
X142328455Y-120448455D01*
X142310196Y-120465003D01*
X142290404Y-120479682D01*
X142269268Y-120492350D01*
X142246992Y-120502886D01*
X142223790Y-120511188D01*
X142199887Y-120517175D01*
X142175512Y-120520791D01*
X142150900Y-120522000D01*
X139953100Y-120522000D01*
X139928488Y-120520791D01*
X139904113Y-120517175D01*
X139880210Y-120511188D01*
X139857008Y-120502886D01*
X139834732Y-120492350D01*
X139813596Y-120479682D01*
X139793804Y-120465003D01*
X139775545Y-120448455D01*
X139758997Y-120430196D01*
X139744318Y-120410404D01*
X139731650Y-120389268D01*
X139721114Y-120366992D01*
X139712812Y-120343790D01*
X139706825Y-120319887D01*
X139703209Y-120295512D01*
X139702000Y-120270900D01*
X139702000Y-117473100D01*
X139703209Y-117448488D01*
X139706825Y-117424113D01*
X139712812Y-117400210D01*
X139721114Y-117377008D01*
X139731650Y-117354732D01*
X139744318Y-117333596D01*
X139758997Y-117313804D01*
X139775545Y-117295545D01*
X139793804Y-117278997D01*
X139813596Y-117264318D01*
X139834732Y-117251650D01*
X139857008Y-117241114D01*
X139880210Y-117232812D01*
X139904113Y-117226825D01*
X139928488Y-117223209D01*
X139953100Y-117222000D01*
X142150900Y-117222000D01*
X142175512Y-117223209D01*
X142175512Y-117223209D01*
G37*
D11*
G04 #@! TD*
G04 #@! TO.P,J1,1*
G04 #@! TO.N,Net-(J1-Pad1)*
X141052000Y-118872000D03*
D12*
G04 #@! TO.P,J1,2*
G04 #@! TO.N,Net-(J1-Pad2)*
X145252000Y-118872000D03*
G04 #@! TO.P,J1,3*
G04 #@! TO.N,/GND*
X149452000Y-118872000D03*
G04 #@! TO.P,J1,4*
G04 #@! TO.N,/+5V*
X153652000Y-118872000D03*
G04 #@! TO.P,J1,5*
G04 #@! TO.N,/GND*
X157852000Y-118872000D03*
G04 #@! TO.P,J1,6*
G04 #@! TO.N,/+5V*
X162052000Y-118872000D03*
G04 #@! TO.P,J1,7*
G04 #@! TO.N,/GND*
X166252000Y-118872000D03*
G04 #@! TO.P,J1,8*
G04 #@! TO.N,Net-(J1-Pad8)*
X170452000Y-118872000D03*
G04 #@! TO.P,J1,11*
G04 #@! TO.N,Net-(J1-Pad11)*
X183052000Y-118872000D03*
G04 #@! TO.P,J1,12*
G04 #@! TO.N,Net-(J1-Pad12)*
X187252000Y-118872000D03*
G04 #@! TO.P,J1,13*
G04 #@! TO.N,Net-(J1-Pad13)*
X141052000Y-123072000D03*
G04 #@! TO.P,J1,14*
G04 #@! TO.N,Net-(J1-Pad14)*
X145252000Y-123072000D03*
G04 #@! TO.P,J1,15*
G04 #@! TO.N,/GND*
X149452000Y-123072000D03*
G04 #@! TO.P,J1,16*
G04 #@! TO.N,/PS_ON*
X153652000Y-123072000D03*
G04 #@! TO.P,J1,17*
G04 #@! TO.N,/GND*
X157852000Y-123072000D03*
G04 #@! TO.P,J1,18*
X162052000Y-123072000D03*
G04 #@! TO.P,J1,19*
X166252000Y-123072000D03*
G04 #@! TO.P,J1,20*
G04 #@! TO.N,Net-(J1-Pad20)*
X170452000Y-123072000D03*
G04 #@! TO.P,J1,21*
G04 #@! TO.N,/+5V*
X174652000Y-123072000D03*
G04 #@! TO.P,J1,22*
X178852000Y-123072000D03*
G04 #@! TO.P,J1,23*
X183052000Y-123072000D03*
G04 #@! TO.P,J1,24*
G04 #@! TO.N,/GND*
X187252000Y-123072000D03*
G04 #@! TD*
D10*
G04 #@! TO.N,/GND*
G04 #@! TO.C,J2*
G36*
X169825512Y-105331209D02*
X169849887Y-105334825D01*
X169873790Y-105340812D01*
X169896992Y-105349114D01*
X169919268Y-105359650D01*
X169940404Y-105372318D01*
X169960196Y-105386997D01*
X169978455Y-105403545D01*
X169995003Y-105421804D01*
X170009682Y-105441596D01*
X170022350Y-105462732D01*
X170032886Y-105485008D01*
X170041188Y-105508210D01*
X170047175Y-105532113D01*
X170050791Y-105556488D01*
X170052000Y-105581100D01*
X170052000Y-107778900D01*
X170050791Y-107803512D01*
X170047175Y-107827887D01*
X170041188Y-107851790D01*
X170032886Y-107874992D01*
X170022350Y-107897268D01*
X170009682Y-107918404D01*
X169995003Y-107938196D01*
X169978455Y-107956455D01*
X169960196Y-107973003D01*
X169940404Y-107987682D01*
X169919268Y-108000350D01*
X169896992Y-108010886D01*
X169873790Y-108019188D01*
X169849887Y-108025175D01*
X169825512Y-108028791D01*
X169800900Y-108030000D01*
X167003100Y-108030000D01*
X166978488Y-108028791D01*
X166954113Y-108025175D01*
X166930210Y-108019188D01*
X166907008Y-108010886D01*
X166884732Y-108000350D01*
X166863596Y-107987682D01*
X166843804Y-107973003D01*
X166825545Y-107956455D01*
X166808997Y-107938196D01*
X166794318Y-107918404D01*
X166781650Y-107897268D01*
X166771114Y-107874992D01*
X166762812Y-107851790D01*
X166756825Y-107827887D01*
X166753209Y-107803512D01*
X166752000Y-107778900D01*
X166752000Y-105581100D01*
X166753209Y-105556488D01*
X166756825Y-105532113D01*
X166762812Y-105508210D01*
X166771114Y-105485008D01*
X166781650Y-105462732D01*
X166794318Y-105441596D01*
X166808997Y-105421804D01*
X166825545Y-105403545D01*
X166843804Y-105386997D01*
X166863596Y-105372318D01*
X166884732Y-105359650D01*
X166907008Y-105349114D01*
X166930210Y-105340812D01*
X166954113Y-105334825D01*
X166978488Y-105331209D01*
X167003100Y-105330000D01*
X169800900Y-105330000D01*
X169825512Y-105331209D01*
X169825512Y-105331209D01*
G37*
D11*
G04 #@! TD*
G04 #@! TO.P,J2,1*
G04 #@! TO.N,/GND*
X168402000Y-106680000D03*
D13*
G04 #@! TO.P,J2,2*
G04 #@! TO.N,/GND*
X168402000Y-102480000D03*
G04 #@! TO.P,J2,3*
X168402000Y-98280000D03*
G04 #@! TO.P,J2,4*
X168402000Y-94080000D03*
G04 #@! TO.P,J2,5*
G04 #@! TO.N,/+12V*
X172602000Y-106680000D03*
G04 #@! TO.P,J2,6*
X172602000Y-102480000D03*
G04 #@! TO.P,J2,7*
X172602000Y-98280000D03*
G04 #@! TO.P,J2,8*
X172602000Y-94080000D03*
G04 #@! TD*
D14*
G04 #@! TO.P,LO_1,1*
G04 #@! TO.N,N/C*
X137815400Y-109765200D03*
D15*
G04 #@! TO.P,LO_1,2*
X145435400Y-109765200D03*
G04 #@! TD*
D16*
G04 #@! TO.P,J5,1*
G04 #@! TO.N,/+24V*
X177292000Y-86868000D03*
D17*
G04 #@! TO.P,J5,2*
X172212000Y-86868000D03*
G04 #@! TD*
G04 #@! TO.P,J6,2*
G04 #@! TO.N,/+5V*
X182372000Y-111760000D03*
D16*
G04 #@! TO.P,J6,1*
G04 #@! TO.N,/+5V_F*
X187452000Y-111760000D03*
G04 #@! TD*
G04 #@! TO.P,J7,1*
G04 #@! TO.N,/+12V*
X182372000Y-94996000D03*
D17*
G04 #@! TO.P,J7,2*
G04 #@! TO.N,/+12V_F*
X187452000Y-94996000D03*
G04 #@! TD*
G04 #@! TO.P,J8,2*
G04 #@! TO.N,/+24V*
X182372000Y-86868000D03*
D16*
G04 #@! TO.P,J8,1*
G04 #@! TO.N,/+24V_F*
X187452000Y-86868000D03*
G04 #@! TD*
G04 #@! TO.P,J9,1*
G04 #@! TO.N,/GND*
X167132000Y-86868000D03*
D17*
G04 #@! TO.P,J9,2*
G04 #@! TO.N,/PS_ON*
X162052000Y-86868000D03*
G04 #@! TD*
G04 #@! TO.P,J10,2*
G04 #@! TO.N,/GND*
X151892000Y-86868000D03*
D16*
G04 #@! TO.P,J10,1*
G04 #@! TO.N,/+12V_F*
X156972000Y-86868000D03*
G04 #@! TD*
D18*
G04 #@! TO.P,J3,16*
G04 #@! TO.N,/+24V_F*
X194000000Y-83000000D03*
G04 #@! TO.P,J3,15*
X191460000Y-83000000D03*
G04 #@! TO.P,J3,14*
X194000000Y-85540000D03*
G04 #@! TO.P,J3,13*
X191460000Y-85540000D03*
G04 #@! TO.P,J3,12*
X194000000Y-88080000D03*
G04 #@! TO.P,J3,11*
X191460000Y-88080000D03*
G04 #@! TO.P,J3,10*
X194000000Y-90620000D03*
G04 #@! TO.P,J3,9*
X191460000Y-90620000D03*
G04 #@! TO.P,J3,8*
G04 #@! TO.N,/+12V_F*
X194000000Y-93160000D03*
G04 #@! TO.P,J3,7*
X191460000Y-93160000D03*
G04 #@! TO.P,J3,6*
X194000000Y-95700000D03*
G04 #@! TO.P,J3,5*
X191460000Y-95700000D03*
G04 #@! TO.P,J3,4*
X194000000Y-98240000D03*
G04 #@! TO.P,J3,3*
X191460000Y-98240000D03*
G04 #@! TO.P,J3,2*
X194000000Y-100780000D03*
D19*
G04 #@! TO.P,J3,1*
X191460000Y-100780000D03*
G04 #@! TD*
G04 #@! TO.P,J4,1*
G04 #@! TO.N,/GND*
X191460000Y-127000000D03*
D18*
G04 #@! TO.P,J4,2*
X194000000Y-127000000D03*
G04 #@! TO.P,J4,3*
X191460000Y-124460000D03*
G04 #@! TO.P,J4,4*
X194000000Y-124460000D03*
G04 #@! TO.P,J4,5*
X191460000Y-121920000D03*
G04 #@! TO.P,J4,6*
X194000000Y-121920000D03*
G04 #@! TO.P,J4,7*
X191460000Y-119380000D03*
G04 #@! TO.P,J4,8*
X194000000Y-119380000D03*
G04 #@! TO.P,J4,9*
G04 #@! TO.N,/+5V_F*
X191460000Y-116840000D03*
G04 #@! TO.P,J4,10*
X194000000Y-116840000D03*
G04 #@! TO.P,J4,11*
X191460000Y-114300000D03*
G04 #@! TO.P,J4,12*
X194000000Y-114300000D03*
G04 #@! TO.P,J4,13*
X191460000Y-111760000D03*
G04 #@! TO.P,J4,14*
X194000000Y-111760000D03*
G04 #@! TO.P,J4,15*
X191460000Y-109220000D03*
G04 #@! TO.P,J4,16*
X194000000Y-109220000D03*
G04 #@! TD*
D20*
G04 #@! TO.N,/+24V*
X177292000Y-86868000D02*
X172212000Y-86868000D01*
X182372000Y-86868000D02*
X177292000Y-86868000D01*
G04 #@! TO.N,/+12V*
X177756000Y-94080000D02*
X172602000Y-94080000D01*
X182372000Y-94996000D02*
X178672000Y-94996000D01*
X178672000Y-94996000D02*
X177756000Y-94080000D01*
X172602000Y-94080000D02*
X172602000Y-98280000D01*
X172602000Y-98280000D02*
X172602000Y-102480000D01*
X172602000Y-102480000D02*
X172602000Y-106680000D01*
G04 #@! TO.N,/GND*
X168402000Y-106680000D02*
X168402000Y-102480000D01*
X168402000Y-102480000D02*
X168402000Y-98280000D01*
X168402000Y-98280000D02*
X168402000Y-94080000D01*
X149452000Y-126592000D02*
X149452000Y-124372000D01*
X150876000Y-128016000D02*
X149452000Y-126592000D01*
X166252000Y-118872000D02*
X166252000Y-124372000D01*
X166252000Y-126628000D02*
X167640000Y-128016000D01*
X166252000Y-124372000D02*
X166252000Y-126628000D01*
X162052000Y-126492000D02*
X163576000Y-128016000D01*
X162052000Y-124372000D02*
X162052000Y-126492000D01*
X157852000Y-118872000D02*
X157852000Y-124372000D01*
X157852000Y-126356000D02*
X159512000Y-128016000D01*
X157852000Y-124372000D02*
X157852000Y-126356000D01*
X149452000Y-118872000D02*
X149452000Y-124372000D01*
X157852000Y-118872000D02*
X157852000Y-118572000D01*
X149452000Y-118872000D02*
X149452000Y-118572000D01*
X149452000Y-118572000D02*
X149352000Y-118472000D01*
X150876000Y-128016000D02*
X185674000Y-128016000D01*
X185674000Y-128016000D02*
X187252000Y-126438000D01*
X167250000Y-86986000D02*
X167132000Y-86868000D01*
X187814000Y-127000000D02*
X187252000Y-126438000D01*
X191460000Y-127000000D02*
X191460000Y-119380000D01*
X194000000Y-119380000D02*
X194000000Y-127000000D01*
X194000000Y-127000000D02*
X191460000Y-127000000D01*
X191460000Y-124460000D02*
X194000000Y-124460000D01*
X194000000Y-121920000D02*
X191460000Y-121920000D01*
X191460000Y-119380000D02*
X194000000Y-119380000D01*
X191460000Y-127000000D02*
X187814000Y-127000000D01*
D21*
X187630000Y-127000000D02*
X187814000Y-127000000D01*
X187252000Y-123072000D02*
X187252000Y-126622000D01*
X187252000Y-126622000D02*
X187630000Y-127000000D01*
D22*
X168402000Y-94080000D02*
X167250000Y-92928000D01*
X167250000Y-92928000D02*
X167250000Y-86986000D01*
D20*
G04 #@! TO.N,/+5V*
X162052000Y-118572000D02*
X162052000Y-118872000D01*
X168864000Y-111760000D02*
X162052000Y-118572000D01*
X153652000Y-118572000D02*
X160464000Y-111760000D01*
X153652000Y-118872000D02*
X153652000Y-118572000D01*
X160464000Y-111760000D02*
X168864000Y-111760000D01*
D21*
X176801999Y-114058001D02*
X179100000Y-111760000D01*
D20*
X182372000Y-111760000D02*
X179100000Y-111760000D01*
X179100000Y-111760000D02*
X168864000Y-111760000D01*
D21*
X176801999Y-120922001D02*
X174652000Y-123072000D01*
X176801999Y-114058001D02*
X176801999Y-120922001D01*
X178852000Y-122972002D02*
X176801999Y-120922001D01*
X178852000Y-123072000D02*
X178852000Y-122972002D01*
X174652000Y-123072000D02*
X178852000Y-123072000D01*
X178852000Y-123072000D02*
X183052000Y-123072000D01*
D22*
G04 #@! TO.N,/PS_ON*
X165862000Y-90678000D02*
X162052000Y-86868000D01*
X165862000Y-106934000D02*
X165862000Y-90678000D01*
X153652000Y-122472000D02*
X151511000Y-120331000D01*
X153652000Y-124072000D02*
X153652000Y-122472000D01*
X151511000Y-120331000D02*
X151511000Y-117221000D01*
X151511000Y-117221000D02*
X159004000Y-109728000D01*
X159004000Y-109728000D02*
X163068000Y-109728000D01*
X163068000Y-109728000D02*
X165862000Y-106934000D01*
D20*
G04 #@! TO.N,/+12V_F*
X189288000Y-93160000D02*
X187452000Y-94996000D01*
X191460000Y-93160000D02*
X189288000Y-93160000D01*
X194000000Y-93160000D02*
X191460000Y-93160000D01*
X194000000Y-100780000D02*
X194000000Y-93160000D01*
X191460000Y-93160000D02*
X191460000Y-100780000D01*
X194000000Y-100780000D02*
X191460000Y-100780000D01*
X191460000Y-98240000D02*
X194000000Y-98240000D01*
X194000000Y-95700000D02*
X191460000Y-95700000D01*
G04 #@! TO.N,/+24V_F*
X190132000Y-86868000D02*
X191460000Y-85540000D01*
X187452000Y-86868000D02*
X190132000Y-86868000D01*
X190248000Y-86868000D02*
X191460000Y-88080000D01*
X187452000Y-86868000D02*
X190248000Y-86868000D01*
X191460000Y-90620000D02*
X191460000Y-83000000D01*
X194000000Y-83000000D02*
X194000000Y-90620000D01*
X194000000Y-90620000D02*
X191460000Y-90620000D01*
X191460000Y-88080000D02*
X194000000Y-88080000D01*
X194000000Y-85540000D02*
X191460000Y-85540000D01*
X191460000Y-83000000D02*
X194000000Y-83000000D01*
G04 #@! TO.N,/+5V_F*
X194000000Y-116840000D02*
X194000000Y-109220000D01*
X191460000Y-109220000D02*
X191460000Y-116840000D01*
X194000000Y-116840000D02*
X191460000Y-116840000D01*
X194000000Y-114300000D02*
X191460000Y-114300000D01*
X194000000Y-111760000D02*
X191460000Y-111760000D01*
X194000000Y-109220000D02*
X191460000Y-109220000D01*
X188920000Y-111760000D02*
X191460000Y-114300000D01*
X187452000Y-111760000D02*
X188920000Y-111760000D01*
X191460000Y-111760000D02*
X187452000Y-111760000D01*
G04 #@! TD*
D23*
G36*
X197883090Y-81007962D02*
X198242110Y-81150108D01*
X198554499Y-81377071D01*
X198800630Y-81674593D01*
X198965040Y-82023982D01*
X199045890Y-82447814D01*
X199048000Y-82514946D01*
X199048000Y-102837886D01*
X198686335Y-102476221D01*
X197592162Y-102023000D01*
X196407838Y-102023000D01*
X195313665Y-102476221D01*
X194476221Y-103313665D01*
X194023000Y-104407838D01*
X194023000Y-105592162D01*
X194476221Y-106686335D01*
X195313665Y-107523779D01*
X196407838Y-107977000D01*
X197592162Y-107977000D01*
X198686335Y-107523779D01*
X199048001Y-107162113D01*
X199048001Y-127440099D01*
X198992038Y-127883090D01*
X198849893Y-128242109D01*
X198622930Y-128554497D01*
X198325407Y-128800630D01*
X197976018Y-128965040D01*
X197552186Y-129045890D01*
X197485054Y-129048000D01*
X187437899Y-129048000D01*
X187527214Y-128958686D01*
X187619286Y-128977000D01*
X187619290Y-128977000D01*
X187813999Y-129015730D01*
X188008709Y-128977000D01*
X191265286Y-128977000D01*
X191460000Y-129015731D01*
X191654714Y-128977000D01*
X193805286Y-128977000D01*
X194000000Y-129015731D01*
X194194714Y-128977000D01*
X194203945Y-128975164D01*
X194771387Y-128862293D01*
X195425337Y-128425337D01*
X195862293Y-127771387D01*
X195938514Y-127388196D01*
X196015731Y-127000000D01*
X195977000Y-126805286D01*
X195977000Y-124654714D01*
X196015731Y-124460000D01*
X195977000Y-124265286D01*
X195977000Y-122114714D01*
X196015731Y-121920000D01*
X195977000Y-121725286D01*
X195977000Y-119574714D01*
X196015731Y-119380000D01*
X195862293Y-118608613D01*
X195529130Y-118110000D01*
X195862293Y-117611387D01*
X196015731Y-116840000D01*
X195977000Y-116645286D01*
X195977000Y-114494714D01*
X196015731Y-114300000D01*
X195977000Y-114105286D01*
X195977000Y-111954714D01*
X196015731Y-111760000D01*
X195977000Y-111565286D01*
X195977000Y-109414714D01*
X196015731Y-109220000D01*
X195862293Y-108448613D01*
X195425337Y-107794663D01*
X194771387Y-107357707D01*
X194194714Y-107243000D01*
X194000000Y-107204269D01*
X193805286Y-107243000D01*
X191654714Y-107243000D01*
X191460000Y-107204269D01*
X191265286Y-107243000D01*
X190688613Y-107357707D01*
X190034663Y-107794663D01*
X189597707Y-108448613D01*
X189444269Y-109220000D01*
X189483000Y-109414715D01*
X189483000Y-109560045D01*
X189294188Y-109433884D01*
X188952000Y-109365819D01*
X185952000Y-109365819D01*
X185609812Y-109433884D01*
X185319719Y-109627719D01*
X185125884Y-109917812D01*
X185057819Y-110260000D01*
X185057819Y-113260000D01*
X185125884Y-113602188D01*
X185319719Y-113892281D01*
X185609812Y-114086116D01*
X185952000Y-114154181D01*
X188518282Y-114154181D01*
X189483001Y-115118901D01*
X189483001Y-116645281D01*
X189444269Y-116840000D01*
X189597707Y-117611387D01*
X189930870Y-118110000D01*
X189597707Y-118608613D01*
X189479000Y-119205395D01*
X189479000Y-118352662D01*
X189349788Y-117703068D01*
X188857577Y-116966423D01*
X188120931Y-116474212D01*
X187252000Y-116301371D01*
X186383068Y-116474212D01*
X185646423Y-116966423D01*
X185154212Y-117703069D01*
X185152000Y-117714189D01*
X185149788Y-117703068D01*
X184657577Y-116966423D01*
X183920931Y-116474212D01*
X183052000Y-116301371D01*
X182183068Y-116474212D01*
X181446423Y-116966423D01*
X180954212Y-117703069D01*
X180825000Y-118352663D01*
X180825000Y-119391338D01*
X180954212Y-120040932D01*
X181446424Y-120777577D01*
X181737398Y-120972000D01*
X181446423Y-121166423D01*
X181393920Y-121245000D01*
X180510081Y-121245000D01*
X180457577Y-121166423D01*
X179720931Y-120674212D01*
X179310599Y-120592592D01*
X179545351Y-120545897D01*
X180133145Y-120153145D01*
X180525897Y-119565351D01*
X180663813Y-118872000D01*
X180525897Y-118178649D01*
X180133145Y-117590855D01*
X179545351Y-117198103D01*
X179027017Y-117095000D01*
X178676983Y-117095000D01*
X178628999Y-117104545D01*
X178628999Y-114814769D01*
X179706768Y-113737000D01*
X180987415Y-113737000D01*
X181025538Y-113775123D01*
X181899185Y-114137000D01*
X182844815Y-114137000D01*
X183718462Y-113775123D01*
X184387123Y-113106462D01*
X184749000Y-112232815D01*
X184749000Y-111287185D01*
X184387123Y-110413538D01*
X183718462Y-109744877D01*
X182844815Y-109383000D01*
X181899185Y-109383000D01*
X181025538Y-109744877D01*
X180987415Y-109783000D01*
X169058714Y-109783000D01*
X168864000Y-109744269D01*
X168669286Y-109783000D01*
X164430041Y-109783000D01*
X165965371Y-108247671D01*
X166193264Y-108588736D01*
X166564820Y-108837002D01*
X167003100Y-108924181D01*
X169800900Y-108924181D01*
X170239180Y-108837002D01*
X170610736Y-108588736D01*
X170777225Y-108339567D01*
X171433068Y-108777788D01*
X172082662Y-108907000D01*
X173121338Y-108907000D01*
X173770932Y-108777788D01*
X174507577Y-108285577D01*
X174999788Y-107548932D01*
X175172629Y-106680000D01*
X174999788Y-105811068D01*
X174579000Y-105181315D01*
X174579000Y-103978685D01*
X174999788Y-103348932D01*
X175172629Y-102480000D01*
X174999788Y-101611068D01*
X174579000Y-100981315D01*
X174579000Y-99778685D01*
X174999788Y-99148932D01*
X175172629Y-98280000D01*
X174999788Y-97411068D01*
X174579000Y-96781315D01*
X174579000Y-96057000D01*
X176937101Y-96057000D01*
X177136364Y-96256263D01*
X177246663Y-96421337D01*
X177835316Y-96814663D01*
X177900613Y-96858293D01*
X178672000Y-97011731D01*
X178866714Y-96973000D01*
X180135963Y-96973000D01*
X180239719Y-97128281D01*
X180529812Y-97322116D01*
X180872000Y-97390181D01*
X183872000Y-97390181D01*
X184214188Y-97322116D01*
X184504281Y-97128281D01*
X184698116Y-96838188D01*
X184766181Y-96496000D01*
X184766181Y-93496000D01*
X184698116Y-93153812D01*
X184504281Y-92863719D01*
X184214188Y-92669884D01*
X183872000Y-92601819D01*
X180872000Y-92601819D01*
X180529812Y-92669884D01*
X180239719Y-92863719D01*
X180135963Y-93019000D01*
X179490899Y-93019000D01*
X179291636Y-92819737D01*
X179181337Y-92654663D01*
X178527387Y-92217707D01*
X177950714Y-92103000D01*
X177950709Y-92103000D01*
X177756000Y-92064270D01*
X177561291Y-92103000D01*
X173951704Y-92103000D01*
X173770932Y-91982212D01*
X173121338Y-91853000D01*
X172082662Y-91853000D01*
X171433068Y-91982212D01*
X170696423Y-92474423D01*
X170502000Y-92765397D01*
X170307577Y-92474423D01*
X169570932Y-91982212D01*
X168921338Y-91853000D01*
X168252000Y-91853000D01*
X168252000Y-89262181D01*
X168632000Y-89262181D01*
X168974188Y-89194116D01*
X169264281Y-89000281D01*
X169458116Y-88710188D01*
X169526181Y-88368000D01*
X169526181Y-86395185D01*
X169835000Y-86395185D01*
X169835000Y-87340815D01*
X170196877Y-88214462D01*
X170865538Y-88883123D01*
X171739185Y-89245000D01*
X172684815Y-89245000D01*
X173558462Y-88883123D01*
X173596585Y-88845000D01*
X175055963Y-88845000D01*
X175159719Y-89000281D01*
X175449812Y-89194116D01*
X175792000Y-89262181D01*
X178792000Y-89262181D01*
X179134188Y-89194116D01*
X179424281Y-89000281D01*
X179528037Y-88845000D01*
X180987415Y-88845000D01*
X181025538Y-88883123D01*
X181899185Y-89245000D01*
X182844815Y-89245000D01*
X183718462Y-88883123D01*
X184387123Y-88214462D01*
X184749000Y-87340815D01*
X184749000Y-86395185D01*
X184387123Y-85521538D01*
X184233585Y-85368000D01*
X185057819Y-85368000D01*
X185057819Y-88368000D01*
X185125884Y-88710188D01*
X185319719Y-89000281D01*
X185609812Y-89194116D01*
X185952000Y-89262181D01*
X188952000Y-89262181D01*
X189294188Y-89194116D01*
X189483000Y-89067955D01*
X189483000Y-90425285D01*
X189444269Y-90620000D01*
X189556256Y-91183000D01*
X189482708Y-91183000D01*
X189287999Y-91144270D01*
X189093290Y-91183000D01*
X189093286Y-91183000D01*
X188516613Y-91297707D01*
X187862663Y-91734663D01*
X187752366Y-91899735D01*
X187033100Y-92619000D01*
X186979185Y-92619000D01*
X186105538Y-92980877D01*
X185436877Y-93649538D01*
X185075000Y-94523185D01*
X185075000Y-95468815D01*
X185436877Y-96342462D01*
X186105538Y-97011123D01*
X186979185Y-97373000D01*
X187924815Y-97373000D01*
X188798462Y-97011123D01*
X189467123Y-96342462D01*
X189483000Y-96304131D01*
X189483001Y-98045282D01*
X189444269Y-98240000D01*
X189483001Y-98434718D01*
X189483001Y-100585281D01*
X189444269Y-100780000D01*
X189597707Y-101551387D01*
X189743619Y-101769759D01*
X189783884Y-101972188D01*
X189977719Y-102262281D01*
X190267812Y-102456116D01*
X190470241Y-102496381D01*
X190688613Y-102642293D01*
X191265286Y-102757000D01*
X191460000Y-102795731D01*
X191654714Y-102757000D01*
X193805286Y-102757000D01*
X194000000Y-102795731D01*
X194194714Y-102757000D01*
X194771387Y-102642293D01*
X195425337Y-102205337D01*
X195862293Y-101551387D01*
X196015731Y-100780000D01*
X195977000Y-100585286D01*
X195977000Y-98434714D01*
X196015731Y-98240000D01*
X195977000Y-98045286D01*
X195977000Y-95894714D01*
X196015731Y-95700000D01*
X195977000Y-95505286D01*
X195977000Y-93354714D01*
X196015731Y-93160000D01*
X195862293Y-92388613D01*
X195529130Y-91890000D01*
X195862293Y-91391387D01*
X195911448Y-91144269D01*
X196015731Y-90620000D01*
X195977000Y-90425286D01*
X195977000Y-88274714D01*
X196015731Y-88080000D01*
X195977000Y-87885286D01*
X195977000Y-85734714D01*
X196015731Y-85540000D01*
X195977000Y-85345286D01*
X195977000Y-83194714D01*
X196015731Y-83000000D01*
X195862293Y-82228613D01*
X195425337Y-81574663D01*
X194771387Y-81137707D01*
X194194714Y-81023000D01*
X194000000Y-80984269D01*
X193805286Y-81023000D01*
X191654714Y-81023000D01*
X191460000Y-80984269D01*
X191265286Y-81023000D01*
X190688613Y-81137707D01*
X190034663Y-81574663D01*
X189597707Y-82228613D01*
X189444269Y-83000000D01*
X189483001Y-83194719D01*
X189483001Y-84668045D01*
X189294188Y-84541884D01*
X188952000Y-84473819D01*
X185952000Y-84473819D01*
X185609812Y-84541884D01*
X185319719Y-84735719D01*
X185125884Y-85025812D01*
X185057819Y-85368000D01*
X184233585Y-85368000D01*
X183718462Y-84852877D01*
X182844815Y-84491000D01*
X181899185Y-84491000D01*
X181025538Y-84852877D01*
X180987415Y-84891000D01*
X179528037Y-84891000D01*
X179424281Y-84735719D01*
X179134188Y-84541884D01*
X178792000Y-84473819D01*
X175792000Y-84473819D01*
X175449812Y-84541884D01*
X175159719Y-84735719D01*
X175055963Y-84891000D01*
X173596585Y-84891000D01*
X173558462Y-84852877D01*
X172684815Y-84491000D01*
X171739185Y-84491000D01*
X170865538Y-84852877D01*
X170196877Y-85521538D01*
X169835000Y-86395185D01*
X169526181Y-86395185D01*
X169526181Y-85368000D01*
X169458116Y-85025812D01*
X169264281Y-84735719D01*
X168974188Y-84541884D01*
X168632000Y-84473819D01*
X165632000Y-84473819D01*
X165289812Y-84541884D01*
X164999719Y-84735719D01*
X164805884Y-85025812D01*
X164737819Y-85368000D01*
X164737819Y-88136777D01*
X164286319Y-87685277D01*
X164429000Y-87340815D01*
X164429000Y-86395185D01*
X164067123Y-85521538D01*
X163398462Y-84852877D01*
X162524815Y-84491000D01*
X161579185Y-84491000D01*
X160705538Y-84852877D01*
X160036877Y-85521538D01*
X159675000Y-86395185D01*
X159675000Y-87340815D01*
X160036877Y-88214462D01*
X160705538Y-88883123D01*
X161579185Y-89245000D01*
X162524815Y-89245000D01*
X162869277Y-89102319D01*
X164860001Y-91093043D01*
X164860000Y-106518958D01*
X162652959Y-108726000D01*
X159102684Y-108726000D01*
X159003999Y-108706370D01*
X158905314Y-108726000D01*
X158905313Y-108726000D01*
X158613039Y-108784137D01*
X158281598Y-109005598D01*
X158225696Y-109089262D01*
X150872264Y-116442695D01*
X150788599Y-116498598D01*
X150732697Y-116582262D01*
X150655515Y-116697774D01*
X150320931Y-116474212D01*
X149452000Y-116301371D01*
X148583068Y-116474212D01*
X147846423Y-116966423D01*
X147354212Y-117703069D01*
X147352000Y-117714189D01*
X147349788Y-117703068D01*
X146857577Y-116966423D01*
X146120931Y-116474212D01*
X145252000Y-116301371D01*
X144383068Y-116474212D01*
X143646423Y-116966423D01*
X143296181Y-117490597D01*
X143296181Y-117473100D01*
X143209002Y-117034820D01*
X142960736Y-116663264D01*
X142589180Y-116414998D01*
X142150900Y-116327819D01*
X139953100Y-116327819D01*
X139514820Y-116414998D01*
X139143264Y-116663264D01*
X138894998Y-117034820D01*
X138807819Y-117473100D01*
X138807819Y-120270900D01*
X138894998Y-120709180D01*
X139143264Y-121080736D01*
X139392433Y-121247225D01*
X138954212Y-121903069D01*
X138825000Y-122552663D01*
X138825000Y-123591338D01*
X138954212Y-124240932D01*
X139446424Y-124977577D01*
X140183069Y-125469788D01*
X141052000Y-125642629D01*
X141920932Y-125469788D01*
X142657577Y-124977577D01*
X143149788Y-124240931D01*
X143152000Y-124229811D01*
X143154212Y-124240932D01*
X143646424Y-124977577D01*
X144383069Y-125469788D01*
X145252000Y-125642629D01*
X146120932Y-125469788D01*
X146857577Y-124977577D01*
X147349788Y-124240931D01*
X147352000Y-124229811D01*
X147354212Y-124240932D01*
X147475001Y-124421705D01*
X147475000Y-126397290D01*
X147436270Y-126592000D01*
X147475000Y-126786709D01*
X147475000Y-126786713D01*
X147589707Y-127363386D01*
X148026663Y-128017337D01*
X148191737Y-128127636D01*
X149112100Y-129048000D01*
X137162114Y-129048000D01*
X137523779Y-128686335D01*
X137977000Y-127592162D01*
X137977000Y-126407838D01*
X137523779Y-125313665D01*
X136686335Y-124476221D01*
X135592162Y-124023000D01*
X134407838Y-124023000D01*
X133313665Y-124476221D01*
X132952000Y-124837886D01*
X132952000Y-109765200D01*
X136105546Y-109765200D01*
X136235701Y-110419533D01*
X136606351Y-110974249D01*
X137161067Y-111344899D01*
X137650232Y-111442200D01*
X137980568Y-111442200D01*
X138469733Y-111344899D01*
X139024449Y-110974249D01*
X139395099Y-110419533D01*
X139525254Y-109765200D01*
X139458902Y-109431624D01*
X143758400Y-109431624D01*
X143758400Y-110098776D01*
X144013708Y-110715144D01*
X144485456Y-111186892D01*
X145101824Y-111442200D01*
X145768976Y-111442200D01*
X146385344Y-111186892D01*
X146857092Y-110715144D01*
X147112400Y-110098776D01*
X147112400Y-109431624D01*
X146857092Y-108815256D01*
X146385344Y-108343508D01*
X145768976Y-108088200D01*
X145101824Y-108088200D01*
X144485456Y-108343508D01*
X144013708Y-108815256D01*
X143758400Y-109431624D01*
X139458902Y-109431624D01*
X139395099Y-109110867D01*
X139024449Y-108556151D01*
X138469733Y-108185501D01*
X137980568Y-108088200D01*
X137650232Y-108088200D01*
X137161067Y-108185501D01*
X136606351Y-108556151D01*
X136235701Y-109110867D01*
X136105546Y-109765200D01*
X132952000Y-109765200D01*
X132952000Y-86395185D01*
X149515000Y-86395185D01*
X149515000Y-87340815D01*
X149876877Y-88214462D01*
X150545538Y-88883123D01*
X151419185Y-89245000D01*
X152364815Y-89245000D01*
X153238462Y-88883123D01*
X153907123Y-88214462D01*
X154269000Y-87340815D01*
X154269000Y-86395185D01*
X153907123Y-85521538D01*
X153753585Y-85368000D01*
X154577819Y-85368000D01*
X154577819Y-88368000D01*
X154645884Y-88710188D01*
X154839719Y-89000281D01*
X155129812Y-89194116D01*
X155472000Y-89262181D01*
X158472000Y-89262181D01*
X158814188Y-89194116D01*
X159104281Y-89000281D01*
X159298116Y-88710188D01*
X159366181Y-88368000D01*
X159366181Y-85368000D01*
X159298116Y-85025812D01*
X159104281Y-84735719D01*
X158814188Y-84541884D01*
X158472000Y-84473819D01*
X155472000Y-84473819D01*
X155129812Y-84541884D01*
X154839719Y-84735719D01*
X154645884Y-85025812D01*
X154577819Y-85368000D01*
X153753585Y-85368000D01*
X153238462Y-84852877D01*
X152364815Y-84491000D01*
X151419185Y-84491000D01*
X150545538Y-84852877D01*
X149876877Y-85521538D01*
X149515000Y-86395185D01*
X132952000Y-86395185D01*
X132952000Y-85162114D01*
X133313665Y-85523779D01*
X134407838Y-85977000D01*
X135592162Y-85977000D01*
X136686335Y-85523779D01*
X137523779Y-84686335D01*
X137977000Y-83592162D01*
X137977000Y-82407838D01*
X137523779Y-81313665D01*
X137162114Y-80952000D01*
X197440107Y-80952000D01*
X197883090Y-81007962D01*
X197883090Y-81007962D01*
G37*
X197883090Y-81007962D02*
X198242110Y-81150108D01*
X198554499Y-81377071D01*
X198800630Y-81674593D01*
X198965040Y-82023982D01*
X199045890Y-82447814D01*
X199048000Y-82514946D01*
X199048000Y-102837886D01*
X198686335Y-102476221D01*
X197592162Y-102023000D01*
X196407838Y-102023000D01*
X195313665Y-102476221D01*
X194476221Y-103313665D01*
X194023000Y-104407838D01*
X194023000Y-105592162D01*
X194476221Y-106686335D01*
X195313665Y-107523779D01*
X196407838Y-107977000D01*
X197592162Y-107977000D01*
X198686335Y-107523779D01*
X199048001Y-107162113D01*
X199048001Y-127440099D01*
X198992038Y-127883090D01*
X198849893Y-128242109D01*
X198622930Y-128554497D01*
X198325407Y-128800630D01*
X197976018Y-128965040D01*
X197552186Y-129045890D01*
X197485054Y-129048000D01*
X187437899Y-129048000D01*
X187527214Y-128958686D01*
X187619286Y-128977000D01*
X187619290Y-128977000D01*
X187813999Y-129015730D01*
X188008709Y-128977000D01*
X191265286Y-128977000D01*
X191460000Y-129015731D01*
X191654714Y-128977000D01*
X193805286Y-128977000D01*
X194000000Y-129015731D01*
X194194714Y-128977000D01*
X194203945Y-128975164D01*
X194771387Y-128862293D01*
X195425337Y-128425337D01*
X195862293Y-127771387D01*
X195938514Y-127388196D01*
X196015731Y-127000000D01*
X195977000Y-126805286D01*
X195977000Y-124654714D01*
X196015731Y-124460000D01*
X195977000Y-124265286D01*
X195977000Y-122114714D01*
X196015731Y-121920000D01*
X195977000Y-121725286D01*
X195977000Y-119574714D01*
X196015731Y-119380000D01*
X195862293Y-118608613D01*
X195529130Y-118110000D01*
X195862293Y-117611387D01*
X196015731Y-116840000D01*
X195977000Y-116645286D01*
X195977000Y-114494714D01*
X196015731Y-114300000D01*
X195977000Y-114105286D01*
X195977000Y-111954714D01*
X196015731Y-111760000D01*
X195977000Y-111565286D01*
X195977000Y-109414714D01*
X196015731Y-109220000D01*
X195862293Y-108448613D01*
X195425337Y-107794663D01*
X194771387Y-107357707D01*
X194194714Y-107243000D01*
X194000000Y-107204269D01*
X193805286Y-107243000D01*
X191654714Y-107243000D01*
X191460000Y-107204269D01*
X191265286Y-107243000D01*
X190688613Y-107357707D01*
X190034663Y-107794663D01*
X189597707Y-108448613D01*
X189444269Y-109220000D01*
X189483000Y-109414715D01*
X189483000Y-109560045D01*
X189294188Y-109433884D01*
X188952000Y-109365819D01*
X185952000Y-109365819D01*
X185609812Y-109433884D01*
X185319719Y-109627719D01*
X185125884Y-109917812D01*
X185057819Y-110260000D01*
X185057819Y-113260000D01*
X185125884Y-113602188D01*
X185319719Y-113892281D01*
X185609812Y-114086116D01*
X185952000Y-114154181D01*
X188518282Y-114154181D01*
X189483001Y-115118901D01*
X189483001Y-116645281D01*
X189444269Y-116840000D01*
X189597707Y-117611387D01*
X189930870Y-118110000D01*
X189597707Y-118608613D01*
X189479000Y-119205395D01*
X189479000Y-118352662D01*
X189349788Y-117703068D01*
X188857577Y-116966423D01*
X188120931Y-116474212D01*
X187252000Y-116301371D01*
X186383068Y-116474212D01*
X185646423Y-116966423D01*
X185154212Y-117703069D01*
X185152000Y-117714189D01*
X185149788Y-117703068D01*
X184657577Y-116966423D01*
X183920931Y-116474212D01*
X183052000Y-116301371D01*
X182183068Y-116474212D01*
X181446423Y-116966423D01*
X180954212Y-117703069D01*
X180825000Y-118352663D01*
X180825000Y-119391338D01*
X180954212Y-120040932D01*
X181446424Y-120777577D01*
X181737398Y-120972000D01*
X181446423Y-121166423D01*
X181393920Y-121245000D01*
X180510081Y-121245000D01*
X180457577Y-121166423D01*
X179720931Y-120674212D01*
X179310599Y-120592592D01*
X179545351Y-120545897D01*
X180133145Y-120153145D01*
X180525897Y-119565351D01*
X180663813Y-118872000D01*
X180525897Y-118178649D01*
X180133145Y-117590855D01*
X179545351Y-117198103D01*
X179027017Y-117095000D01*
X178676983Y-117095000D01*
X178628999Y-117104545D01*
X178628999Y-114814769D01*
X179706768Y-113737000D01*
X180987415Y-113737000D01*
X181025538Y-113775123D01*
X181899185Y-114137000D01*
X182844815Y-114137000D01*
X183718462Y-113775123D01*
X184387123Y-113106462D01*
X184749000Y-112232815D01*
X184749000Y-111287185D01*
X184387123Y-110413538D01*
X183718462Y-109744877D01*
X182844815Y-109383000D01*
X181899185Y-109383000D01*
X181025538Y-109744877D01*
X180987415Y-109783000D01*
X169058714Y-109783000D01*
X168864000Y-109744269D01*
X168669286Y-109783000D01*
X164430041Y-109783000D01*
X165965371Y-108247671D01*
X166193264Y-108588736D01*
X166564820Y-108837002D01*
X167003100Y-108924181D01*
X169800900Y-108924181D01*
X170239180Y-108837002D01*
X170610736Y-108588736D01*
X170777225Y-108339567D01*
X171433068Y-108777788D01*
X172082662Y-108907000D01*
X173121338Y-108907000D01*
X173770932Y-108777788D01*
X174507577Y-108285577D01*
X174999788Y-107548932D01*
X175172629Y-106680000D01*
X174999788Y-105811068D01*
X174579000Y-105181315D01*
X174579000Y-103978685D01*
X174999788Y-103348932D01*
X175172629Y-102480000D01*
X174999788Y-101611068D01*
X174579000Y-100981315D01*
X174579000Y-99778685D01*
X174999788Y-99148932D01*
X175172629Y-98280000D01*
X174999788Y-97411068D01*
X174579000Y-96781315D01*
X174579000Y-96057000D01*
X176937101Y-96057000D01*
X177136364Y-96256263D01*
X177246663Y-96421337D01*
X177835316Y-96814663D01*
X177900613Y-96858293D01*
X178672000Y-97011731D01*
X178866714Y-96973000D01*
X180135963Y-96973000D01*
X180239719Y-97128281D01*
X180529812Y-97322116D01*
X180872000Y-97390181D01*
X183872000Y-97390181D01*
X184214188Y-97322116D01*
X184504281Y-97128281D01*
X184698116Y-96838188D01*
X184766181Y-96496000D01*
X184766181Y-93496000D01*
X184698116Y-93153812D01*
X184504281Y-92863719D01*
X184214188Y-92669884D01*
X183872000Y-92601819D01*
X180872000Y-92601819D01*
X180529812Y-92669884D01*
X180239719Y-92863719D01*
X180135963Y-93019000D01*
X179490899Y-93019000D01*
X179291636Y-92819737D01*
X179181337Y-92654663D01*
X178527387Y-92217707D01*
X177950714Y-92103000D01*
X177950709Y-92103000D01*
X177756000Y-92064270D01*
X177561291Y-92103000D01*
X173951704Y-92103000D01*
X173770932Y-91982212D01*
X173121338Y-91853000D01*
X172082662Y-91853000D01*
X171433068Y-91982212D01*
X170696423Y-92474423D01*
X170502000Y-92765397D01*
X170307577Y-92474423D01*
X169570932Y-91982212D01*
X168921338Y-91853000D01*
X168252000Y-91853000D01*
X168252000Y-89262181D01*
X168632000Y-89262181D01*
X168974188Y-89194116D01*
X169264281Y-89000281D01*
X169458116Y-88710188D01*
X169526181Y-88368000D01*
X169526181Y-86395185D01*
X169835000Y-86395185D01*
X169835000Y-87340815D01*
X170196877Y-88214462D01*
X170865538Y-88883123D01*
X171739185Y-89245000D01*
X172684815Y-89245000D01*
X173558462Y-88883123D01*
X173596585Y-88845000D01*
X175055963Y-88845000D01*
X175159719Y-89000281D01*
X175449812Y-89194116D01*
X175792000Y-89262181D01*
X178792000Y-89262181D01*
X179134188Y-89194116D01*
X179424281Y-89000281D01*
X179528037Y-88845000D01*
X180987415Y-88845000D01*
X181025538Y-88883123D01*
X181899185Y-89245000D01*
X182844815Y-89245000D01*
X183718462Y-88883123D01*
X184387123Y-88214462D01*
X184749000Y-87340815D01*
X184749000Y-86395185D01*
X184387123Y-85521538D01*
X184233585Y-85368000D01*
X185057819Y-85368000D01*
X185057819Y-88368000D01*
X185125884Y-88710188D01*
X185319719Y-89000281D01*
X185609812Y-89194116D01*
X185952000Y-89262181D01*
X188952000Y-89262181D01*
X189294188Y-89194116D01*
X189483000Y-89067955D01*
X189483000Y-90425285D01*
X189444269Y-90620000D01*
X189556256Y-91183000D01*
X189482708Y-91183000D01*
X189287999Y-91144270D01*
X189093290Y-91183000D01*
X189093286Y-91183000D01*
X188516613Y-91297707D01*
X187862663Y-91734663D01*
X187752366Y-91899735D01*
X187033100Y-92619000D01*
X186979185Y-92619000D01*
X186105538Y-92980877D01*
X185436877Y-93649538D01*
X185075000Y-94523185D01*
X185075000Y-95468815D01*
X185436877Y-96342462D01*
X186105538Y-97011123D01*
X186979185Y-97373000D01*
X187924815Y-97373000D01*
X188798462Y-97011123D01*
X189467123Y-96342462D01*
X189483000Y-96304131D01*
X189483001Y-98045282D01*
X189444269Y-98240000D01*
X189483001Y-98434718D01*
X189483001Y-100585281D01*
X189444269Y-100780000D01*
X189597707Y-101551387D01*
X189743619Y-101769759D01*
X189783884Y-101972188D01*
X189977719Y-102262281D01*
X190267812Y-102456116D01*
X190470241Y-102496381D01*
X190688613Y-102642293D01*
X191265286Y-102757000D01*
X191460000Y-102795731D01*
X191654714Y-102757000D01*
X193805286Y-102757000D01*
X194000000Y-102795731D01*
X194194714Y-102757000D01*
X194771387Y-102642293D01*
X195425337Y-102205337D01*
X195862293Y-101551387D01*
X196015731Y-100780000D01*
X195977000Y-100585286D01*
X195977000Y-98434714D01*
X196015731Y-98240000D01*
X195977000Y-98045286D01*
X195977000Y-95894714D01*
X196015731Y-95700000D01*
X195977000Y-95505286D01*
X195977000Y-93354714D01*
X196015731Y-93160000D01*
X195862293Y-92388613D01*
X195529130Y-91890000D01*
X195862293Y-91391387D01*
X195911448Y-91144269D01*
X196015731Y-90620000D01*
X195977000Y-90425286D01*
X195977000Y-88274714D01*
X196015731Y-88080000D01*
X195977000Y-87885286D01*
X195977000Y-85734714D01*
X196015731Y-85540000D01*
X195977000Y-85345286D01*
X195977000Y-83194714D01*
X196015731Y-83000000D01*
X195862293Y-82228613D01*
X195425337Y-81574663D01*
X194771387Y-81137707D01*
X194194714Y-81023000D01*
X194000000Y-80984269D01*
X193805286Y-81023000D01*
X191654714Y-81023000D01*
X191460000Y-80984269D01*
X191265286Y-81023000D01*
X190688613Y-81137707D01*
X190034663Y-81574663D01*
X189597707Y-82228613D01*
X189444269Y-83000000D01*
X189483001Y-83194719D01*
X189483001Y-84668045D01*
X189294188Y-84541884D01*
X188952000Y-84473819D01*
X185952000Y-84473819D01*
X185609812Y-84541884D01*
X185319719Y-84735719D01*
X185125884Y-85025812D01*
X185057819Y-85368000D01*
X184233585Y-85368000D01*
X183718462Y-84852877D01*
X182844815Y-84491000D01*
X181899185Y-84491000D01*
X181025538Y-84852877D01*
X180987415Y-84891000D01*
X179528037Y-84891000D01*
X179424281Y-84735719D01*
X179134188Y-84541884D01*
X178792000Y-84473819D01*
X175792000Y-84473819D01*
X175449812Y-84541884D01*
X175159719Y-84735719D01*
X175055963Y-84891000D01*
X173596585Y-84891000D01*
X173558462Y-84852877D01*
X172684815Y-84491000D01*
X171739185Y-84491000D01*
X170865538Y-84852877D01*
X170196877Y-85521538D01*
X169835000Y-86395185D01*
X169526181Y-86395185D01*
X169526181Y-85368000D01*
X169458116Y-85025812D01*
X169264281Y-84735719D01*
X168974188Y-84541884D01*
X168632000Y-84473819D01*
X165632000Y-84473819D01*
X165289812Y-84541884D01*
X164999719Y-84735719D01*
X164805884Y-85025812D01*
X164737819Y-85368000D01*
X164737819Y-88136777D01*
X164286319Y-87685277D01*
X164429000Y-87340815D01*
X164429000Y-86395185D01*
X164067123Y-85521538D01*
X163398462Y-84852877D01*
X162524815Y-84491000D01*
X161579185Y-84491000D01*
X160705538Y-84852877D01*
X160036877Y-85521538D01*
X159675000Y-86395185D01*
X159675000Y-87340815D01*
X160036877Y-88214462D01*
X160705538Y-88883123D01*
X161579185Y-89245000D01*
X162524815Y-89245000D01*
X162869277Y-89102319D01*
X164860001Y-91093043D01*
X164860000Y-106518958D01*
X162652959Y-108726000D01*
X159102684Y-108726000D01*
X159003999Y-108706370D01*
X158905314Y-108726000D01*
X158905313Y-108726000D01*
X158613039Y-108784137D01*
X158281598Y-109005598D01*
X158225696Y-109089262D01*
X150872264Y-116442695D01*
X150788599Y-116498598D01*
X150732697Y-116582262D01*
X150655515Y-116697774D01*
X150320931Y-116474212D01*
X149452000Y-116301371D01*
X148583068Y-116474212D01*
X147846423Y-116966423D01*
X147354212Y-117703069D01*
X147352000Y-117714189D01*
X147349788Y-117703068D01*
X146857577Y-116966423D01*
X146120931Y-116474212D01*
X145252000Y-116301371D01*
X144383068Y-116474212D01*
X143646423Y-116966423D01*
X143296181Y-117490597D01*
X143296181Y-117473100D01*
X143209002Y-117034820D01*
X142960736Y-116663264D01*
X142589180Y-116414998D01*
X142150900Y-116327819D01*
X139953100Y-116327819D01*
X139514820Y-116414998D01*
X139143264Y-116663264D01*
X138894998Y-117034820D01*
X138807819Y-117473100D01*
X138807819Y-120270900D01*
X138894998Y-120709180D01*
X139143264Y-121080736D01*
X139392433Y-121247225D01*
X138954212Y-121903069D01*
X138825000Y-122552663D01*
X138825000Y-123591338D01*
X138954212Y-124240932D01*
X139446424Y-124977577D01*
X140183069Y-125469788D01*
X141052000Y-125642629D01*
X141920932Y-125469788D01*
X142657577Y-124977577D01*
X143149788Y-124240931D01*
X143152000Y-124229811D01*
X143154212Y-124240932D01*
X143646424Y-124977577D01*
X144383069Y-125469788D01*
X145252000Y-125642629D01*
X146120932Y-125469788D01*
X146857577Y-124977577D01*
X147349788Y-124240931D01*
X147352000Y-124229811D01*
X147354212Y-124240932D01*
X147475001Y-124421705D01*
X147475000Y-126397290D01*
X147436270Y-126592000D01*
X147475000Y-126786709D01*
X147475000Y-126786713D01*
X147589707Y-127363386D01*
X148026663Y-128017337D01*
X148191737Y-128127636D01*
X149112100Y-129048000D01*
X137162114Y-129048000D01*
X137523779Y-128686335D01*
X137977000Y-127592162D01*
X137977000Y-126407838D01*
X137523779Y-125313665D01*
X136686335Y-124476221D01*
X135592162Y-124023000D01*
X134407838Y-124023000D01*
X133313665Y-124476221D01*
X132952000Y-124837886D01*
X132952000Y-109765200D01*
X136105546Y-109765200D01*
X136235701Y-110419533D01*
X136606351Y-110974249D01*
X137161067Y-111344899D01*
X137650232Y-111442200D01*
X137980568Y-111442200D01*
X138469733Y-111344899D01*
X139024449Y-110974249D01*
X139395099Y-110419533D01*
X139525254Y-109765200D01*
X139458902Y-109431624D01*
X143758400Y-109431624D01*
X143758400Y-110098776D01*
X144013708Y-110715144D01*
X144485456Y-111186892D01*
X145101824Y-111442200D01*
X145768976Y-111442200D01*
X146385344Y-111186892D01*
X146857092Y-110715144D01*
X147112400Y-110098776D01*
X147112400Y-109431624D01*
X146857092Y-108815256D01*
X146385344Y-108343508D01*
X145768976Y-108088200D01*
X145101824Y-108088200D01*
X144485456Y-108343508D01*
X144013708Y-108815256D01*
X143758400Y-109431624D01*
X139458902Y-109431624D01*
X139395099Y-109110867D01*
X139024449Y-108556151D01*
X138469733Y-108185501D01*
X137980568Y-108088200D01*
X137650232Y-108088200D01*
X137161067Y-108185501D01*
X136606351Y-108556151D01*
X136235701Y-109110867D01*
X136105546Y-109765200D01*
X132952000Y-109765200D01*
X132952000Y-86395185D01*
X149515000Y-86395185D01*
X149515000Y-87340815D01*
X149876877Y-88214462D01*
X150545538Y-88883123D01*
X151419185Y-89245000D01*
X152364815Y-89245000D01*
X153238462Y-88883123D01*
X153907123Y-88214462D01*
X154269000Y-87340815D01*
X154269000Y-86395185D01*
X153907123Y-85521538D01*
X153753585Y-85368000D01*
X154577819Y-85368000D01*
X154577819Y-88368000D01*
X154645884Y-88710188D01*
X154839719Y-89000281D01*
X155129812Y-89194116D01*
X155472000Y-89262181D01*
X158472000Y-89262181D01*
X158814188Y-89194116D01*
X159104281Y-89000281D01*
X159298116Y-88710188D01*
X159366181Y-88368000D01*
X159366181Y-85368000D01*
X159298116Y-85025812D01*
X159104281Y-84735719D01*
X158814188Y-84541884D01*
X158472000Y-84473819D01*
X155472000Y-84473819D01*
X155129812Y-84541884D01*
X154839719Y-84735719D01*
X154645884Y-85025812D01*
X154577819Y-85368000D01*
X153753585Y-85368000D01*
X153238462Y-84852877D01*
X152364815Y-84491000D01*
X151419185Y-84491000D01*
X150545538Y-84852877D01*
X149876877Y-85521538D01*
X149515000Y-86395185D01*
X132952000Y-86395185D01*
X132952000Y-85162114D01*
X133313665Y-85523779D01*
X134407838Y-85977000D01*
X135592162Y-85977000D01*
X136686335Y-85523779D01*
X137523779Y-84686335D01*
X137977000Y-83592162D01*
X137977000Y-82407838D01*
X137523779Y-81313665D01*
X137162114Y-80952000D01*
X197440107Y-80952000D01*
X197883090Y-81007962D01*
G36*
X185154212Y-124240932D02*
X185425000Y-124646194D01*
X185425001Y-125469100D01*
X184855101Y-126039000D01*
X168458900Y-126039000D01*
X168229000Y-125809101D01*
X168229000Y-124421703D01*
X168349788Y-124240931D01*
X168352000Y-124229811D01*
X168354212Y-124240932D01*
X168846424Y-124977577D01*
X169583069Y-125469788D01*
X170452000Y-125642629D01*
X171320932Y-125469788D01*
X172057577Y-124977577D01*
X172549788Y-124240931D01*
X172552000Y-124229811D01*
X172554212Y-124240932D01*
X173046424Y-124977577D01*
X173783069Y-125469788D01*
X174652000Y-125642629D01*
X175520932Y-125469788D01*
X176257577Y-124977577D01*
X176310080Y-124899000D01*
X177193920Y-124899000D01*
X177246424Y-124977577D01*
X177983069Y-125469788D01*
X178852000Y-125642629D01*
X179720932Y-125469788D01*
X180457577Y-124977577D01*
X180510080Y-124899000D01*
X181393920Y-124899000D01*
X181446424Y-124977577D01*
X182183069Y-125469788D01*
X183052000Y-125642629D01*
X183920932Y-125469788D01*
X184657577Y-124977577D01*
X185149788Y-124240931D01*
X185152000Y-124229811D01*
X185154212Y-124240932D01*
X185154212Y-124240932D01*
G37*
X185154212Y-124240932D02*
X185425000Y-124646194D01*
X185425001Y-125469100D01*
X184855101Y-126039000D01*
X168458900Y-126039000D01*
X168229000Y-125809101D01*
X168229000Y-124421703D01*
X168349788Y-124240931D01*
X168352000Y-124229811D01*
X168354212Y-124240932D01*
X168846424Y-124977577D01*
X169583069Y-125469788D01*
X170452000Y-125642629D01*
X171320932Y-125469788D01*
X172057577Y-124977577D01*
X172549788Y-124240931D01*
X172552000Y-124229811D01*
X172554212Y-124240932D01*
X173046424Y-124977577D01*
X173783069Y-125469788D01*
X174652000Y-125642629D01*
X175520932Y-125469788D01*
X176257577Y-124977577D01*
X176310080Y-124899000D01*
X177193920Y-124899000D01*
X177246424Y-124977577D01*
X177983069Y-125469788D01*
X178852000Y-125642629D01*
X179720932Y-125469788D01*
X180457577Y-124977577D01*
X180510080Y-124899000D01*
X181393920Y-124899000D01*
X181446424Y-124977577D01*
X182183069Y-125469788D01*
X183052000Y-125642629D01*
X183920932Y-125469788D01*
X184657577Y-124977577D01*
X185149788Y-124240931D01*
X185152000Y-124229811D01*
X185154212Y-124240932D01*
G36*
X155754212Y-124240932D02*
X155875000Y-124421704D01*
X155875001Y-126039000D01*
X151694900Y-126039000D01*
X151429000Y-125773101D01*
X151429000Y-124421703D01*
X151549788Y-124240931D01*
X151552000Y-124229811D01*
X151554212Y-124240932D01*
X152046424Y-124977577D01*
X152783069Y-125469788D01*
X153652000Y-125642629D01*
X154520932Y-125469788D01*
X155257577Y-124977577D01*
X155749788Y-124240931D01*
X155752000Y-124229811D01*
X155754212Y-124240932D01*
X155754212Y-124240932D01*
G37*
X155754212Y-124240932D02*
X155875000Y-124421704D01*
X155875001Y-126039000D01*
X151694900Y-126039000D01*
X151429000Y-125773101D01*
X151429000Y-124421703D01*
X151549788Y-124240931D01*
X151552000Y-124229811D01*
X151554212Y-124240932D01*
X152046424Y-124977577D01*
X152783069Y-125469788D01*
X153652000Y-125642629D01*
X154520932Y-125469788D01*
X155257577Y-124977577D01*
X155749788Y-124240931D01*
X155752000Y-124229811D01*
X155754212Y-124240932D01*
G36*
X164154212Y-124240932D02*
X164275000Y-124421704D01*
X164275001Y-125919101D01*
X164029000Y-125673101D01*
X164029000Y-124421703D01*
X164149788Y-124240931D01*
X164152000Y-124229811D01*
X164154212Y-124240932D01*
X164154212Y-124240932D01*
G37*
X164154212Y-124240932D02*
X164275000Y-124421704D01*
X164275001Y-125919101D01*
X164029000Y-125673101D01*
X164029000Y-124421703D01*
X164149788Y-124240931D01*
X164152000Y-124229811D01*
X164154212Y-124240932D01*
G36*
X159954212Y-124240932D02*
X160075000Y-124421704D01*
X160075001Y-125783101D01*
X159829000Y-125537100D01*
X159829000Y-124421703D01*
X159949788Y-124240931D01*
X159952000Y-124229811D01*
X159954212Y-124240932D01*
X159954212Y-124240932D01*
G37*
X159954212Y-124240932D02*
X160075000Y-124421704D01*
X160075001Y-125783101D01*
X159829000Y-125537100D01*
X159829000Y-124421703D01*
X159949788Y-124240931D01*
X159952000Y-124229811D01*
X159954212Y-124240932D01*
G36*
X189483001Y-119574719D02*
X189483001Y-121725282D01*
X189444269Y-121920000D01*
X189483001Y-122114718D01*
X189483000Y-124265284D01*
X189444269Y-124460000D01*
X189483000Y-124654716D01*
X189483000Y-125023000D01*
X189079000Y-125023000D01*
X189079000Y-124646194D01*
X189349788Y-124240931D01*
X189479000Y-123591337D01*
X189479000Y-122552662D01*
X189349788Y-121903068D01*
X188857577Y-121166423D01*
X188566603Y-120972000D01*
X188857577Y-120777577D01*
X189349788Y-120040931D01*
X189462762Y-119472971D01*
X189483001Y-119574719D01*
X189483001Y-119574719D01*
G37*
X189483001Y-119574719D02*
X189483001Y-121725282D01*
X189444269Y-121920000D01*
X189483001Y-122114718D01*
X189483000Y-124265284D01*
X189444269Y-124460000D01*
X189483000Y-124654716D01*
X189483000Y-125023000D01*
X189079000Y-125023000D01*
X189079000Y-124646194D01*
X189349788Y-124240931D01*
X189479000Y-123591337D01*
X189479000Y-122552662D01*
X189349788Y-121903068D01*
X188857577Y-121166423D01*
X188566603Y-120972000D01*
X188857577Y-120777577D01*
X189349788Y-120040931D01*
X189462762Y-119472971D01*
X189483001Y-119574719D01*
G36*
X147354212Y-120040932D02*
X147475000Y-120221704D01*
X147475001Y-121722296D01*
X147354212Y-121903069D01*
X147352000Y-121914189D01*
X147349788Y-121903068D01*
X146857577Y-121166423D01*
X146566603Y-120972000D01*
X146857577Y-120777577D01*
X147349788Y-120040931D01*
X147352000Y-120029811D01*
X147354212Y-120040932D01*
X147354212Y-120040932D01*
G37*
X147354212Y-120040932D02*
X147475000Y-120221704D01*
X147475001Y-121722296D01*
X147354212Y-121903069D01*
X147352000Y-121914189D01*
X147349788Y-121903068D01*
X146857577Y-121166423D01*
X146566603Y-120972000D01*
X146857577Y-120777577D01*
X147349788Y-120040931D01*
X147352000Y-120029811D01*
X147354212Y-120040932D01*
G36*
X151598999Y-121836040D02*
X151554212Y-121903069D01*
X151552000Y-121914189D01*
X151549788Y-121903068D01*
X151429000Y-121722296D01*
X151429000Y-121666041D01*
X151598999Y-121836040D01*
X151598999Y-121836040D01*
G37*
X151598999Y-121836040D02*
X151554212Y-121903069D01*
X151552000Y-121914189D01*
X151549788Y-121903068D01*
X151429000Y-121722296D01*
X151429000Y-121666041D01*
X151598999Y-121836040D01*
G36*
X155754212Y-120040932D02*
X155875000Y-120221704D01*
X155875001Y-121722296D01*
X155754212Y-121903069D01*
X155752000Y-121914189D01*
X155749788Y-121903068D01*
X155257577Y-121166423D01*
X154966603Y-120972000D01*
X155257577Y-120777577D01*
X155749788Y-120040931D01*
X155752000Y-120029811D01*
X155754212Y-120040932D01*
X155754212Y-120040932D01*
G37*
X155754212Y-120040932D02*
X155875000Y-120221704D01*
X155875001Y-121722296D01*
X155754212Y-121903069D01*
X155752000Y-121914189D01*
X155749788Y-121903068D01*
X155257577Y-121166423D01*
X154966603Y-120972000D01*
X155257577Y-120777577D01*
X155749788Y-120040931D01*
X155752000Y-120029811D01*
X155754212Y-120040932D01*
G36*
X159954212Y-120040932D02*
X160446424Y-120777577D01*
X160737398Y-120972000D01*
X160446423Y-121166423D01*
X159954212Y-121903069D01*
X159952000Y-121914189D01*
X159949788Y-121903068D01*
X159829000Y-121722296D01*
X159829000Y-120221703D01*
X159949788Y-120040931D01*
X159952000Y-120029811D01*
X159954212Y-120040932D01*
X159954212Y-120040932D01*
G37*
X159954212Y-120040932D02*
X160446424Y-120777577D01*
X160737398Y-120972000D01*
X160446423Y-121166423D01*
X159954212Y-121903069D01*
X159952000Y-121914189D01*
X159949788Y-121903068D01*
X159829000Y-121722296D01*
X159829000Y-120221703D01*
X159949788Y-120040931D01*
X159952000Y-120029811D01*
X159954212Y-120040932D01*
G36*
X168354212Y-120040932D02*
X168846424Y-120777577D01*
X169137398Y-120972000D01*
X168846423Y-121166423D01*
X168354212Y-121903069D01*
X168352000Y-121914189D01*
X168349788Y-121903068D01*
X168229000Y-121722296D01*
X168229000Y-120221703D01*
X168349788Y-120040931D01*
X168352000Y-120029811D01*
X168354212Y-120040932D01*
X168354212Y-120040932D01*
G37*
X168354212Y-120040932D02*
X168846424Y-120777577D01*
X169137398Y-120972000D01*
X168846423Y-121166423D01*
X168354212Y-121903069D01*
X168352000Y-121914189D01*
X168349788Y-121903068D01*
X168229000Y-121722296D01*
X168229000Y-120221703D01*
X168349788Y-120040931D01*
X168352000Y-120029811D01*
X168354212Y-120040932D01*
G36*
X174939206Y-114058001D02*
X174974999Y-114237944D01*
X174974999Y-117124436D01*
X174827017Y-117095000D01*
X174476983Y-117095000D01*
X173958649Y-117198103D01*
X173370855Y-117590855D01*
X172978103Y-118178649D01*
X172840187Y-118872000D01*
X172978103Y-119565351D01*
X173370855Y-120153145D01*
X173958649Y-120545897D01*
X174193400Y-120592592D01*
X173783068Y-120674212D01*
X173046423Y-121166423D01*
X172554212Y-121903069D01*
X172552000Y-121914189D01*
X172549788Y-121903068D01*
X172057577Y-121166423D01*
X171766603Y-120972000D01*
X172057577Y-120777577D01*
X172549788Y-120040931D01*
X172679000Y-119391337D01*
X172679000Y-118352662D01*
X172549788Y-117703068D01*
X172057577Y-116966423D01*
X171320931Y-116474212D01*
X170452000Y-116301371D01*
X169583068Y-116474212D01*
X168846423Y-116966423D01*
X168354212Y-117703069D01*
X168352000Y-117714189D01*
X168349788Y-117703068D01*
X167857577Y-116966423D01*
X167120931Y-116474212D01*
X166974762Y-116445137D01*
X169682900Y-113737000D01*
X175003057Y-113737000D01*
X174939206Y-114058001D01*
X174939206Y-114058001D01*
G37*
X174939206Y-114058001D02*
X174974999Y-114237944D01*
X174974999Y-117124436D01*
X174827017Y-117095000D01*
X174476983Y-117095000D01*
X173958649Y-117198103D01*
X173370855Y-117590855D01*
X172978103Y-118178649D01*
X172840187Y-118872000D01*
X172978103Y-119565351D01*
X173370855Y-120153145D01*
X173958649Y-120545897D01*
X174193400Y-120592592D01*
X173783068Y-120674212D01*
X173046423Y-121166423D01*
X172554212Y-121903069D01*
X172552000Y-121914189D01*
X172549788Y-121903068D01*
X172057577Y-121166423D01*
X171766603Y-120972000D01*
X172057577Y-120777577D01*
X172549788Y-120040931D01*
X172679000Y-119391337D01*
X172679000Y-118352662D01*
X172549788Y-117703068D01*
X172057577Y-116966423D01*
X171320931Y-116474212D01*
X170452000Y-116301371D01*
X169583068Y-116474212D01*
X168846423Y-116966423D01*
X168354212Y-117703069D01*
X168352000Y-117714189D01*
X168349788Y-117703068D01*
X167857577Y-116966423D01*
X167120931Y-116474212D01*
X166974762Y-116445137D01*
X169682900Y-113737000D01*
X175003057Y-113737000D01*
X174939206Y-114058001D01*
G36*
X185154212Y-120040932D02*
X185646424Y-120777577D01*
X185937398Y-120972000D01*
X185646423Y-121166423D01*
X185154212Y-121903069D01*
X185152000Y-121914189D01*
X185149788Y-121903068D01*
X184657577Y-121166423D01*
X184366603Y-120972000D01*
X184657577Y-120777577D01*
X185149788Y-120040931D01*
X185152000Y-120029811D01*
X185154212Y-120040932D01*
X185154212Y-120040932D01*
G37*
X185154212Y-120040932D02*
X185646424Y-120777577D01*
X185937398Y-120972000D01*
X185646423Y-121166423D01*
X185154212Y-121903069D01*
X185152000Y-121914189D01*
X185149788Y-121903068D01*
X184657577Y-121166423D01*
X184366603Y-120972000D01*
X184657577Y-120777577D01*
X185149788Y-120040931D01*
X185152000Y-120029811D01*
X185154212Y-120040932D01*
G36*
X164154212Y-120040932D02*
X164275000Y-120221704D01*
X164275001Y-121722296D01*
X164154212Y-121903069D01*
X164152000Y-121914189D01*
X164149788Y-121903068D01*
X163657577Y-121166423D01*
X163366603Y-120972000D01*
X163657577Y-120777577D01*
X164149788Y-120040931D01*
X164152000Y-120029811D01*
X164154212Y-120040932D01*
X164154212Y-120040932D01*
G37*
X164154212Y-120040932D02*
X164275000Y-120221704D01*
X164275001Y-121722296D01*
X164154212Y-121903069D01*
X164152000Y-121914189D01*
X164149788Y-121903068D01*
X163657577Y-121166423D01*
X163366603Y-120972000D01*
X163657577Y-120777577D01*
X164149788Y-120040931D01*
X164152000Y-120029811D01*
X164154212Y-120040932D01*
G36*
X143646424Y-120777577D02*
X143937398Y-120972000D01*
X143646423Y-121166423D01*
X143154212Y-121903069D01*
X143152000Y-121914189D01*
X143149788Y-121903068D01*
X142711567Y-121247225D01*
X142960736Y-121080736D01*
X143209002Y-120709180D01*
X143296181Y-120270900D01*
X143296181Y-120253403D01*
X143646424Y-120777577D01*
X143646424Y-120777577D01*
G37*
X143646424Y-120777577D02*
X143937398Y-120972000D01*
X143646423Y-121166423D01*
X143154212Y-121903069D01*
X143152000Y-121914189D01*
X143149788Y-121903068D01*
X142711567Y-121247225D01*
X142960736Y-121080736D01*
X143209002Y-120709180D01*
X143296181Y-120270900D01*
X143296181Y-120253403D01*
X143646424Y-120777577D01*
G36*
X161396304Y-116431797D02*
X161183068Y-116474212D01*
X160446423Y-116966423D01*
X159954212Y-117703069D01*
X159952000Y-117714189D01*
X159949788Y-117703068D01*
X159457577Y-116966423D01*
X158720931Y-116474212D01*
X158574762Y-116445137D01*
X161282900Y-113737000D01*
X164091100Y-113737000D01*
X161396304Y-116431797D01*
X161396304Y-116431797D01*
G37*
X161396304Y-116431797D02*
X161183068Y-116474212D01*
X160446423Y-116966423D01*
X159954212Y-117703069D01*
X159952000Y-117714189D01*
X159949788Y-117703068D01*
X159457577Y-116966423D01*
X158720931Y-116474212D01*
X158574762Y-116445137D01*
X161282900Y-113737000D01*
X164091100Y-113737000D01*
X161396304Y-116431797D01*
G36*
X170625000Y-103978686D02*
X170625001Y-104792612D01*
X170610736Y-104771264D01*
X170379000Y-104616423D01*
X170379000Y-103978685D01*
X170502000Y-103794603D01*
X170625000Y-103978686D01*
X170625000Y-103978686D01*
G37*
X170625000Y-103978686D02*
X170625001Y-104792612D01*
X170610736Y-104771264D01*
X170379000Y-104616423D01*
X170379000Y-103978685D01*
X170502000Y-103794603D01*
X170625000Y-103978686D01*
G36*
X170625000Y-99778686D02*
X170625001Y-100981314D01*
X170502000Y-101165397D01*
X170379000Y-100981315D01*
X170379000Y-99778685D01*
X170502000Y-99594603D01*
X170625000Y-99778686D01*
X170625000Y-99778686D01*
G37*
X170625000Y-99778686D02*
X170625001Y-100981314D01*
X170502000Y-101165397D01*
X170379000Y-100981315D01*
X170379000Y-99778685D01*
X170502000Y-99594603D01*
X170625000Y-99778686D01*
G36*
X170625000Y-95578686D02*
X170625001Y-96781314D01*
X170502000Y-96965397D01*
X170379000Y-96781315D01*
X170379000Y-95578685D01*
X170502000Y-95394603D01*
X170625000Y-95578686D01*
X170625000Y-95578686D01*
G37*
X170625000Y-95578686D02*
X170625001Y-96781314D01*
X170502000Y-96965397D01*
X170379000Y-96781315D01*
X170379000Y-95578685D01*
X170502000Y-95394603D01*
X170625000Y-95578686D01*
G36*
X166248001Y-89646959D02*
X165863223Y-89262181D01*
X166248001Y-89262181D01*
X166248001Y-89646959D01*
X166248001Y-89646959D01*
G37*
X166248001Y-89646959D02*
X165863223Y-89262181D01*
X166248001Y-89262181D01*
X166248001Y-89646959D01*
M02*
