M48
;DRILL file {KiCad (5.0.2)-1} date 01/10/2019 18:53:08
;FORMAT={-:-/ absolute / metric / decimal}
FMAT,2
METRIC,TZ
T1C1.000
T2C1.520
T3C1.800
%
G90
G05
T1
X191.46Y-109.22
X191.46Y-111.76
X191.46Y-114.3
X191.46Y-116.84
X191.46Y-119.38
X191.46Y-121.92
X191.46Y-124.46
X191.46Y-127.
X194.Y-109.22
X194.Y-111.76
X194.Y-114.3
X194.Y-116.84
X194.Y-119.38
X194.Y-121.92
X194.Y-124.46
X194.Y-127.
X191.46Y-83.
X191.46Y-85.54
X191.46Y-88.08
X191.46Y-90.62
X191.46Y-93.16
X191.46Y-95.7
X191.46Y-98.24
X191.46Y-100.78
X194.Y-83.
X194.Y-85.54
X194.Y-88.08
X194.Y-90.62
X194.Y-93.16
X194.Y-95.7
X194.Y-98.24
X194.Y-100.78
X137.815Y-109.765
X145.435Y-109.765
T2
X182.372Y-111.76
X187.452Y-111.76
X162.052Y-86.868
X167.132Y-86.868
X182.372Y-86.868
X187.452Y-86.868
X182.372Y-94.996
X187.452Y-94.996
X172.212Y-86.868
X177.292Y-86.868
X151.892Y-86.868
X156.972Y-86.868
T3
X168.402Y-94.08
X168.402Y-98.28
X168.402Y-102.48
X168.402Y-106.68
X172.602Y-94.08
X172.602Y-98.28
X172.602Y-102.48
X172.602Y-106.68
X141.052Y-118.872
X141.052Y-123.072
X145.252Y-118.872
X145.252Y-123.072
X149.452Y-118.872
X149.452Y-123.072
X153.652Y-118.872
X153.652Y-123.072
X157.852Y-118.872
X157.852Y-123.072
X162.052Y-118.872
X162.052Y-123.072
X166.252Y-118.872
X166.252Y-123.072
X170.452Y-118.872
X170.452Y-123.072
X174.652Y-123.072
X178.852Y-123.072
X183.052Y-118.872
X183.052Y-123.072
X187.252Y-118.872
X187.252Y-123.072
T0
M30
