G04 #@! TF.GenerationSoftware,KiCad,Pcbnew,(5.0.2)-1*
G04 #@! TF.CreationDate,2019-10-01T18:53:06+02:00*
G04 #@! TF.ProjectId,EleLab_v2_PowerFeed,456c654c-6162-45f7-9632-5f506f776572,rev?*
G04 #@! TF.SameCoordinates,Original*
G04 #@! TF.FileFunction,Legend,Top*
G04 #@! TF.FilePolarity,Positive*
%FSLAX46Y46*%
G04 Gerber Fmt 4.6, Leading zero omitted, Abs format (unit mm)*
G04 Created by KiCad (PCBNEW (5.0.2)-1) date 01/10/2019 18:53:06*
%MOMM*%
%LPD*%
G01*
G04 APERTURE LIST*
%ADD10C,0.300000*%
%ADD11C,0.200000*%
%ADD12C,0.250000*%
%ADD13C,0.150000*%
%ADD14C,0.750000*%
%ADD15C,0.120000*%
%ADD16C,1.000000*%
%ADD17C,0.400000*%
%ADD18C,0.100000*%
%ADD19C,2.802000*%
%ADD20O,2.802000X3.402000*%
%ADD21O,1.902000X1.902000*%
%ADD22O,3.402000X2.802000*%
%ADD23C,5.700000*%
%ADD24C,1.002000*%
%ADD25O,1.702000X1.702000*%
%ADD26C,1.702000*%
%ADD27R,3.102000X3.102000*%
%ADD28C,3.102000*%
%ADD29O,1.802000X1.802000*%
%ADD30R,1.802000X1.802000*%
G04 APERTURE END LIST*
D10*
X139533571Y-86103571D02*
X139533571Y-87175000D01*
X139462142Y-87389285D01*
X139319285Y-87532142D01*
X139105000Y-87603571D01*
X138962142Y-87603571D01*
X141033571Y-87603571D02*
X140176428Y-87603571D01*
X140605000Y-87603571D02*
X140605000Y-86103571D01*
X140462142Y-86317857D01*
X140319285Y-86460714D01*
X140176428Y-86532142D01*
X141962142Y-86103571D02*
X142105000Y-86103571D01*
X142247857Y-86175000D01*
X142319285Y-86246428D01*
X142390714Y-86389285D01*
X142462142Y-86675000D01*
X142462142Y-87032142D01*
X142390714Y-87317857D01*
X142319285Y-87460714D01*
X142247857Y-87532142D01*
X142105000Y-87603571D01*
X141962142Y-87603571D01*
X141819285Y-87532142D01*
X141747857Y-87460714D01*
X141676428Y-87317857D01*
X141605000Y-87032142D01*
X141605000Y-86675000D01*
X141676428Y-86389285D01*
X141747857Y-86246428D01*
X141819285Y-86175000D01*
X141962142Y-86103571D01*
X143105000Y-87032142D02*
X144247857Y-87032142D01*
X145747857Y-87603571D02*
X144890714Y-87603571D01*
X145319285Y-87603571D02*
X145319285Y-86103571D01*
X145176428Y-86317857D01*
X145033571Y-86460714D01*
X144890714Y-86532142D01*
X146319285Y-86246428D02*
X146390714Y-86175000D01*
X146533571Y-86103571D01*
X146890714Y-86103571D01*
X147033571Y-86175000D01*
X147105000Y-86246428D01*
X147176428Y-86389285D01*
X147176428Y-86532142D01*
X147105000Y-86746428D01*
X146247857Y-87603571D01*
X147176428Y-87603571D01*
X147676428Y-86603571D02*
X148033571Y-87603571D01*
X148390714Y-86603571D01*
X134390714Y-89153571D02*
X134962142Y-89153571D01*
X134605000Y-90153571D02*
X134605000Y-88867857D01*
X134676428Y-88725000D01*
X134819285Y-88653571D01*
X134962142Y-88653571D01*
X136105000Y-89153571D02*
X136105000Y-90153571D01*
X135462142Y-89153571D02*
X135462142Y-89939285D01*
X135533571Y-90082142D01*
X135676428Y-90153571D01*
X135890714Y-90153571D01*
X136033571Y-90082142D01*
X136105000Y-90010714D01*
X136747857Y-90082142D02*
X136890714Y-90153571D01*
X137176428Y-90153571D01*
X137319285Y-90082142D01*
X137390714Y-89939285D01*
X137390714Y-89867857D01*
X137319285Y-89725000D01*
X137176428Y-89653571D01*
X136962142Y-89653571D01*
X136819285Y-89582142D01*
X136747857Y-89439285D01*
X136747857Y-89367857D01*
X136819285Y-89225000D01*
X136962142Y-89153571D01*
X137176428Y-89153571D01*
X137319285Y-89225000D01*
X138605000Y-90082142D02*
X138462142Y-90153571D01*
X138176428Y-90153571D01*
X138033571Y-90082142D01*
X137962142Y-89939285D01*
X137962142Y-89367857D01*
X138033571Y-89225000D01*
X138176428Y-89153571D01*
X138462142Y-89153571D01*
X138605000Y-89225000D01*
X138676428Y-89367857D01*
X138676428Y-89510714D01*
X137962142Y-89653571D01*
X139962142Y-90153571D02*
X139962142Y-88653571D01*
X139962142Y-90082142D02*
X139819285Y-90153571D01*
X139533571Y-90153571D01*
X139390714Y-90082142D01*
X139319285Y-90010714D01*
X139247857Y-89867857D01*
X139247857Y-89439285D01*
X139319285Y-89296428D01*
X139390714Y-89225000D01*
X139533571Y-89153571D01*
X139819285Y-89153571D01*
X139962142Y-89225000D01*
X142033571Y-90153571D02*
X141890714Y-90082142D01*
X141819285Y-90010714D01*
X141747857Y-89867857D01*
X141747857Y-89439285D01*
X141819285Y-89296428D01*
X141890714Y-89225000D01*
X142033571Y-89153571D01*
X142247857Y-89153571D01*
X142390714Y-89225000D01*
X142462142Y-89296428D01*
X142533571Y-89439285D01*
X142533571Y-89867857D01*
X142462142Y-90010714D01*
X142390714Y-90082142D01*
X142247857Y-90153571D01*
X142033571Y-90153571D01*
X143819285Y-89153571D02*
X143819285Y-90153571D01*
X143176428Y-89153571D02*
X143176428Y-89939285D01*
X143247857Y-90082142D01*
X143390714Y-90153571D01*
X143605000Y-90153571D01*
X143747857Y-90082142D01*
X143819285Y-90010714D01*
X144319285Y-89153571D02*
X144890714Y-89153571D01*
X144533571Y-88653571D02*
X144533571Y-89939285D01*
X144605000Y-90082142D01*
X144747857Y-90153571D01*
X144890714Y-90153571D01*
X145390714Y-89153571D02*
X145390714Y-90653571D01*
X145390714Y-89225000D02*
X145533571Y-89153571D01*
X145819285Y-89153571D01*
X145962142Y-89225000D01*
X146033571Y-89296428D01*
X146105000Y-89439285D01*
X146105000Y-89867857D01*
X146033571Y-90010714D01*
X145962142Y-90082142D01*
X145819285Y-90153571D01*
X145533571Y-90153571D01*
X145390714Y-90082142D01*
X147390714Y-89153571D02*
X147390714Y-90153571D01*
X146747857Y-89153571D02*
X146747857Y-89939285D01*
X146819285Y-90082142D01*
X146962142Y-90153571D01*
X147176428Y-90153571D01*
X147319285Y-90082142D01*
X147390714Y-90010714D01*
X147890714Y-89153571D02*
X148462142Y-89153571D01*
X148105000Y-88653571D02*
X148105000Y-89939285D01*
X148176428Y-90082142D01*
X148319285Y-90153571D01*
X148462142Y-90153571D01*
D11*
X172720000Y-120015000D02*
X172720000Y-125603000D01*
X185166000Y-120015000D02*
X172720000Y-120015000D01*
X185166000Y-125603000D02*
X185166000Y-120015000D01*
D12*
X177419571Y-120147238D02*
X176871952Y-120147238D01*
X176817190Y-120694857D01*
X176871952Y-120640095D01*
X176981476Y-120585333D01*
X177255285Y-120585333D01*
X177364809Y-120640095D01*
X177419571Y-120694857D01*
X177474333Y-120804380D01*
X177474333Y-121078190D01*
X177419571Y-121187714D01*
X177364809Y-121242476D01*
X177255285Y-121297238D01*
X176981476Y-121297238D01*
X176871952Y-121242476D01*
X176817190Y-121187714D01*
X177857666Y-120530571D02*
X178131476Y-121297238D01*
X178405285Y-120530571D01*
X179719571Y-121297238D02*
X179719571Y-120530571D01*
X179719571Y-120147238D02*
X179664809Y-120202000D01*
X179719571Y-120256761D01*
X179774333Y-120202000D01*
X179719571Y-120147238D01*
X179719571Y-120256761D01*
X180267190Y-120530571D02*
X180267190Y-121297238D01*
X180267190Y-120640095D02*
X180321952Y-120585333D01*
X180431476Y-120530571D01*
X180595761Y-120530571D01*
X180705285Y-120585333D01*
X180760047Y-120694857D01*
X180760047Y-121297238D01*
D10*
X172033714Y-112692571D02*
X171176571Y-112692571D01*
X171605142Y-112692571D02*
X171605142Y-111192571D01*
X171462285Y-111406857D01*
X171319428Y-111549714D01*
X171176571Y-111621142D01*
X172605142Y-111335428D02*
X172676571Y-111264000D01*
X172819428Y-111192571D01*
X173176571Y-111192571D01*
X173319428Y-111264000D01*
X173390857Y-111335428D01*
X173462285Y-111478285D01*
X173462285Y-111621142D01*
X173390857Y-111835428D01*
X172533714Y-112692571D01*
X173462285Y-112692571D01*
X173962285Y-111692571D02*
X174319428Y-112692571D01*
X174676571Y-111692571D01*
X176390857Y-112692571D02*
X176390857Y-111692571D01*
X176390857Y-111192571D02*
X176319428Y-111264000D01*
X176390857Y-111335428D01*
X176462285Y-111264000D01*
X176390857Y-111192571D01*
X176390857Y-111335428D01*
X177105142Y-111692571D02*
X177105142Y-112692571D01*
X177105142Y-111835428D02*
X177176571Y-111764000D01*
X177319428Y-111692571D01*
X177533714Y-111692571D01*
X177676571Y-111764000D01*
X177748000Y-111906857D01*
X177748000Y-112692571D01*
X165227142Y-111264000D02*
X165084285Y-111192571D01*
X164870000Y-111192571D01*
X164655714Y-111264000D01*
X164512857Y-111406857D01*
X164441428Y-111549714D01*
X164370000Y-111835428D01*
X164370000Y-112049714D01*
X164441428Y-112335428D01*
X164512857Y-112478285D01*
X164655714Y-112621142D01*
X164870000Y-112692571D01*
X165012857Y-112692571D01*
X165227142Y-112621142D01*
X165298571Y-112549714D01*
X165298571Y-112049714D01*
X165012857Y-112049714D01*
X165941428Y-112692571D02*
X165941428Y-111192571D01*
X166798571Y-112692571D01*
X166798571Y-111192571D01*
X167512857Y-112692571D02*
X167512857Y-111192571D01*
X167870000Y-111192571D01*
X168084285Y-111264000D01*
X168227142Y-111406857D01*
X168298571Y-111549714D01*
X168370000Y-111835428D01*
X168370000Y-112049714D01*
X168298571Y-112335428D01*
X168227142Y-112478285D01*
X168084285Y-112621142D01*
X167870000Y-112692571D01*
X167512857Y-112692571D01*
D11*
X173228000Y-108458000D02*
X174498000Y-110744000D01*
X167640000Y-108458000D02*
X166370000Y-110744000D01*
X170561000Y-108458000D02*
X170561000Y-92202000D01*
X165481000Y-108458000D02*
X175133000Y-108458000D01*
X175133000Y-92202000D02*
X165481000Y-92202000D01*
D13*
X154432000Y-83058000D02*
X154432000Y-80518000D01*
D10*
X155672000Y-82376095D02*
X154929142Y-82376095D01*
X155300571Y-82376095D02*
X155300571Y-81076095D01*
X155176761Y-81261809D01*
X155052952Y-81385619D01*
X154929142Y-81447523D01*
X156167238Y-81199904D02*
X156229142Y-81138000D01*
X156352952Y-81076095D01*
X156662476Y-81076095D01*
X156786285Y-81138000D01*
X156848190Y-81199904D01*
X156910095Y-81323714D01*
X156910095Y-81447523D01*
X156848190Y-81633238D01*
X156105333Y-82376095D01*
X156910095Y-82376095D01*
X157343428Y-81509428D02*
X157652952Y-82376095D01*
X157962476Y-81509428D01*
X158891047Y-81695142D02*
X158457714Y-81695142D01*
X158457714Y-82376095D02*
X158457714Y-81076095D01*
X159076761Y-81076095D01*
D13*
X149352000Y-83058000D02*
X149352000Y-80518000D01*
D10*
X150901523Y-81138000D02*
X150777714Y-81076095D01*
X150592000Y-81076095D01*
X150406285Y-81138000D01*
X150282476Y-81261809D01*
X150220571Y-81385619D01*
X150158666Y-81633238D01*
X150158666Y-81818952D01*
X150220571Y-82066571D01*
X150282476Y-82190380D01*
X150406285Y-82314190D01*
X150592000Y-82376095D01*
X150715809Y-82376095D01*
X150901523Y-82314190D01*
X150963428Y-82252285D01*
X150963428Y-81818952D01*
X150715809Y-81818952D01*
X151520571Y-82376095D02*
X151520571Y-81076095D01*
X152263428Y-82376095D01*
X152263428Y-81076095D01*
X152882476Y-82376095D02*
X152882476Y-81076095D01*
X153192000Y-81076095D01*
X153377714Y-81138000D01*
X153501523Y-81261809D01*
X153563428Y-81385619D01*
X153625333Y-81633238D01*
X153625333Y-81818952D01*
X153563428Y-82066571D01*
X153501523Y-82190380D01*
X153377714Y-82314190D01*
X153192000Y-82376095D01*
X152882476Y-82376095D01*
X164080000Y-104972857D02*
X164080000Y-104258571D01*
X164508571Y-105115714D02*
X163008571Y-104615714D01*
X164508571Y-104115714D01*
X163008571Y-103830000D02*
X163008571Y-102972857D01*
X164508571Y-103401428D02*
X163008571Y-103401428D01*
X163008571Y-102615714D02*
X164508571Y-101615714D01*
X163008571Y-101615714D02*
X164508571Y-102615714D01*
X163651428Y-99687142D02*
X163580000Y-99830000D01*
X163508571Y-99901428D01*
X163365714Y-99972857D01*
X163294285Y-99972857D01*
X163151428Y-99901428D01*
X163080000Y-99830000D01*
X163008571Y-99687142D01*
X163008571Y-99401428D01*
X163080000Y-99258571D01*
X163151428Y-99187142D01*
X163294285Y-99115714D01*
X163365714Y-99115714D01*
X163508571Y-99187142D01*
X163580000Y-99258571D01*
X163651428Y-99401428D01*
X163651428Y-99687142D01*
X163722857Y-99830000D01*
X163794285Y-99901428D01*
X163937142Y-99972857D01*
X164222857Y-99972857D01*
X164365714Y-99901428D01*
X164437142Y-99830000D01*
X164508571Y-99687142D01*
X164508571Y-99401428D01*
X164437142Y-99258571D01*
X164365714Y-99187142D01*
X164222857Y-99115714D01*
X163937142Y-99115714D01*
X163794285Y-99187142D01*
X163722857Y-99258571D01*
X163651428Y-99401428D01*
X163508571Y-98472857D02*
X165008571Y-98472857D01*
X163580000Y-98472857D02*
X163508571Y-98330000D01*
X163508571Y-98044285D01*
X163580000Y-97901428D01*
X163651428Y-97830000D01*
X163794285Y-97758571D01*
X164222857Y-97758571D01*
X164365714Y-97830000D01*
X164437142Y-97901428D01*
X164508571Y-98044285D01*
X164508571Y-98330000D01*
X164437142Y-98472857D01*
X164508571Y-97115714D02*
X163508571Y-97115714D01*
X163008571Y-97115714D02*
X163080000Y-97187142D01*
X163151428Y-97115714D01*
X163080000Y-97044285D01*
X163008571Y-97115714D01*
X163151428Y-97115714D01*
X163508571Y-96401428D02*
X164508571Y-96401428D01*
X163651428Y-96401428D02*
X163580000Y-96330000D01*
X163508571Y-96187142D01*
X163508571Y-95972857D01*
X163580000Y-95830000D01*
X163722857Y-95758571D01*
X164508571Y-95758571D01*
X178892857Y-128000000D02*
X179607142Y-128000000D01*
X178750000Y-128428571D02*
X179250000Y-126928571D01*
X179750000Y-128428571D01*
X180035714Y-126928571D02*
X180892857Y-126928571D01*
X180464285Y-128428571D02*
X180464285Y-126928571D01*
X181250000Y-126928571D02*
X182250000Y-128428571D01*
X182250000Y-126928571D02*
X181250000Y-128428571D01*
X183892857Y-127071428D02*
X183964285Y-127000000D01*
X184107142Y-126928571D01*
X184464285Y-126928571D01*
X184607142Y-127000000D01*
X184678571Y-127071428D01*
X184750000Y-127214285D01*
X184750000Y-127357142D01*
X184678571Y-127571428D01*
X183821428Y-128428571D01*
X184750000Y-128428571D01*
X186035714Y-127428571D02*
X186035714Y-128428571D01*
X185678571Y-126857142D02*
X185321428Y-127928571D01*
X186250000Y-127928571D01*
X186821428Y-127428571D02*
X186821428Y-128928571D01*
X186821428Y-127500000D02*
X186964285Y-127428571D01*
X187250000Y-127428571D01*
X187392857Y-127500000D01*
X187464285Y-127571428D01*
X187535714Y-127714285D01*
X187535714Y-128142857D01*
X187464285Y-128285714D01*
X187392857Y-128357142D01*
X187250000Y-128428571D01*
X186964285Y-128428571D01*
X186821428Y-128357142D01*
X188178571Y-128428571D02*
X188178571Y-127428571D01*
X188178571Y-126928571D02*
X188107142Y-127000000D01*
X188178571Y-127071428D01*
X188250000Y-127000000D01*
X188178571Y-126928571D01*
X188178571Y-127071428D01*
X188892857Y-127428571D02*
X188892857Y-128428571D01*
X188892857Y-127571428D02*
X188964285Y-127500000D01*
X189107142Y-127428571D01*
X189321428Y-127428571D01*
X189464285Y-127500000D01*
X189535714Y-127642857D01*
X189535714Y-128428571D01*
D14*
X136881142Y-103735142D02*
X136881142Y-100735142D01*
X138024000Y-100735142D01*
X138309714Y-100878000D01*
X138452571Y-101020857D01*
X138595428Y-101306571D01*
X138595428Y-101735142D01*
X138452571Y-102020857D01*
X138309714Y-102163714D01*
X138024000Y-102306571D01*
X136881142Y-102306571D01*
X140309714Y-103735142D02*
X140024000Y-103592285D01*
X139881142Y-103449428D01*
X139738285Y-103163714D01*
X139738285Y-102306571D01*
X139881142Y-102020857D01*
X140024000Y-101878000D01*
X140309714Y-101735142D01*
X140738285Y-101735142D01*
X141024000Y-101878000D01*
X141166857Y-102020857D01*
X141309714Y-102306571D01*
X141309714Y-103163714D01*
X141166857Y-103449428D01*
X141024000Y-103592285D01*
X140738285Y-103735142D01*
X140309714Y-103735142D01*
X142309714Y-101735142D02*
X142881142Y-103735142D01*
X143452571Y-102306571D01*
X144024000Y-103735142D01*
X144595428Y-101735142D01*
X146881142Y-103592285D02*
X146595428Y-103735142D01*
X146024000Y-103735142D01*
X145738285Y-103592285D01*
X145595428Y-103306571D01*
X145595428Y-102163714D01*
X145738285Y-101878000D01*
X146024000Y-101735142D01*
X146595428Y-101735142D01*
X146881142Y-101878000D01*
X147024000Y-102163714D01*
X147024000Y-102449428D01*
X145595428Y-102735142D01*
X148309714Y-103735142D02*
X148309714Y-101735142D01*
X148309714Y-102306571D02*
X148452571Y-102020857D01*
X148595428Y-101878000D01*
X148881142Y-101735142D01*
X149166857Y-101735142D01*
X151166857Y-102163714D02*
X150166857Y-102163714D01*
X150166857Y-103735142D02*
X150166857Y-100735142D01*
X151595428Y-100735142D01*
X153881142Y-103592285D02*
X153595428Y-103735142D01*
X153024000Y-103735142D01*
X152738285Y-103592285D01*
X152595428Y-103306571D01*
X152595428Y-102163714D01*
X152738285Y-101878000D01*
X153024000Y-101735142D01*
X153595428Y-101735142D01*
X153881142Y-101878000D01*
X154024000Y-102163714D01*
X154024000Y-102449428D01*
X152595428Y-102735142D01*
X156452571Y-103592285D02*
X156166857Y-103735142D01*
X155595428Y-103735142D01*
X155309714Y-103592285D01*
X155166857Y-103306571D01*
X155166857Y-102163714D01*
X155309714Y-101878000D01*
X155595428Y-101735142D01*
X156166857Y-101735142D01*
X156452571Y-101878000D01*
X156595428Y-102163714D01*
X156595428Y-102449428D01*
X155166857Y-102735142D01*
X159166857Y-103735142D02*
X159166857Y-100735142D01*
X159166857Y-103592285D02*
X158881142Y-103735142D01*
X158309714Y-103735142D01*
X158024000Y-103592285D01*
X157881142Y-103449428D01*
X157738285Y-103163714D01*
X157738285Y-102306571D01*
X157881142Y-102020857D01*
X158024000Y-101878000D01*
X158309714Y-101735142D01*
X158881142Y-101735142D01*
X159166857Y-101878000D01*
X137666857Y-97663714D02*
X138666857Y-97663714D01*
X139095428Y-99235142D02*
X137666857Y-99235142D01*
X137666857Y-96235142D01*
X139095428Y-96235142D01*
X140809714Y-99235142D02*
X140524000Y-99092285D01*
X140381142Y-98806571D01*
X140381142Y-96235142D01*
X143095428Y-99092285D02*
X142809714Y-99235142D01*
X142238285Y-99235142D01*
X141952571Y-99092285D01*
X141809714Y-98806571D01*
X141809714Y-97663714D01*
X141952571Y-97378000D01*
X142238285Y-97235142D01*
X142809714Y-97235142D01*
X143095428Y-97378000D01*
X143238285Y-97663714D01*
X143238285Y-97949428D01*
X141809714Y-98235142D01*
X145952571Y-99235142D02*
X144524000Y-99235142D01*
X144524000Y-96235142D01*
X148238285Y-99235142D02*
X148238285Y-97663714D01*
X148095428Y-97378000D01*
X147809714Y-97235142D01*
X147238285Y-97235142D01*
X146952571Y-97378000D01*
X148238285Y-99092285D02*
X147952571Y-99235142D01*
X147238285Y-99235142D01*
X146952571Y-99092285D01*
X146809714Y-98806571D01*
X146809714Y-98520857D01*
X146952571Y-98235142D01*
X147238285Y-98092285D01*
X147952571Y-98092285D01*
X148238285Y-97949428D01*
X149666857Y-99235142D02*
X149666857Y-96235142D01*
X149666857Y-97378000D02*
X149952571Y-97235142D01*
X150524000Y-97235142D01*
X150809714Y-97378000D01*
X150952571Y-97520857D01*
X151095428Y-97806571D01*
X151095428Y-98663714D01*
X150952571Y-98949428D01*
X150809714Y-99092285D01*
X150524000Y-99235142D01*
X149952571Y-99235142D01*
X149666857Y-99092285D01*
X151666857Y-99520857D02*
X153952571Y-99520857D01*
X154381142Y-97235142D02*
X155095428Y-99235142D01*
X155809714Y-97235142D01*
X156809714Y-96520857D02*
X156952571Y-96378000D01*
X157238285Y-96235142D01*
X157952571Y-96235142D01*
X158238285Y-96378000D01*
X158381142Y-96520857D01*
X158524000Y-96806571D01*
X158524000Y-97092285D01*
X158381142Y-97520857D01*
X156666857Y-99235142D01*
X158524000Y-99235142D01*
D10*
X181778666Y-105659333D02*
X181112000Y-105659333D01*
X181045333Y-106326000D01*
X181112000Y-106259333D01*
X181245333Y-106192666D01*
X181578666Y-106192666D01*
X181712000Y-106259333D01*
X181778666Y-106326000D01*
X181845333Y-106459333D01*
X181845333Y-106792666D01*
X181778666Y-106926000D01*
X181712000Y-106992666D01*
X181578666Y-107059333D01*
X181245333Y-107059333D01*
X181112000Y-106992666D01*
X181045333Y-106926000D01*
X182312000Y-106126000D02*
X182645333Y-107059333D01*
X182978666Y-106126000D01*
X185045333Y-106326000D02*
X184578666Y-106326000D01*
X184578666Y-107059333D02*
X184578666Y-105659333D01*
X185245333Y-105659333D01*
X186378666Y-106126000D02*
X186378666Y-107059333D01*
X185778666Y-106126000D02*
X185778666Y-106859333D01*
X185845333Y-106992666D01*
X185978666Y-107059333D01*
X186178666Y-107059333D01*
X186312000Y-106992666D01*
X186378666Y-106926000D01*
X186978666Y-106992666D02*
X187112000Y-107059333D01*
X187378666Y-107059333D01*
X187512000Y-106992666D01*
X187578666Y-106859333D01*
X187578666Y-106792666D01*
X187512000Y-106659333D01*
X187378666Y-106592666D01*
X187178666Y-106592666D01*
X187045333Y-106526000D01*
X186978666Y-106392666D01*
X186978666Y-106326000D01*
X187045333Y-106192666D01*
X187178666Y-106126000D01*
X187378666Y-106126000D01*
X187512000Y-106192666D01*
X188712000Y-106992666D02*
X188578666Y-107059333D01*
X188312000Y-107059333D01*
X188178666Y-106992666D01*
X188112000Y-106859333D01*
X188112000Y-106326000D01*
X188178666Y-106192666D01*
X188312000Y-106126000D01*
X188578666Y-106126000D01*
X188712000Y-106192666D01*
X188778666Y-106326000D01*
X188778666Y-106459333D01*
X188112000Y-106592666D01*
X181178666Y-101217333D02*
X180378666Y-101217333D01*
X180778666Y-101217333D02*
X180778666Y-99817333D01*
X180645333Y-100017333D01*
X180512000Y-100150666D01*
X180378666Y-100217333D01*
X181712000Y-99950666D02*
X181778666Y-99884000D01*
X181912000Y-99817333D01*
X182245333Y-99817333D01*
X182378666Y-99884000D01*
X182445333Y-99950666D01*
X182512000Y-100084000D01*
X182512000Y-100217333D01*
X182445333Y-100417333D01*
X181645333Y-101217333D01*
X182512000Y-101217333D01*
X182978666Y-100284000D02*
X183312000Y-101217333D01*
X183645333Y-100284000D01*
X185712000Y-100484000D02*
X185245333Y-100484000D01*
X185245333Y-101217333D02*
X185245333Y-99817333D01*
X185912000Y-99817333D01*
X187045333Y-100284000D02*
X187045333Y-101217333D01*
X186445333Y-100284000D02*
X186445333Y-101017333D01*
X186512000Y-101150666D01*
X186645333Y-101217333D01*
X186845333Y-101217333D01*
X186978666Y-101150666D01*
X187045333Y-101084000D01*
X187645333Y-101150666D02*
X187778666Y-101217333D01*
X188045333Y-101217333D01*
X188178666Y-101150666D01*
X188245333Y-101017333D01*
X188245333Y-100950666D01*
X188178666Y-100817333D01*
X188045333Y-100750666D01*
X187845333Y-100750666D01*
X187712000Y-100684000D01*
X187645333Y-100550666D01*
X187645333Y-100484000D01*
X187712000Y-100350666D01*
X187845333Y-100284000D01*
X188045333Y-100284000D01*
X188178666Y-100350666D01*
X189378666Y-101150666D02*
X189245333Y-101217333D01*
X188978666Y-101217333D01*
X188845333Y-101150666D01*
X188778666Y-101017333D01*
X188778666Y-100484000D01*
X188845333Y-100350666D01*
X188978666Y-100284000D01*
X189245333Y-100284000D01*
X189378666Y-100350666D01*
X189445333Y-100484000D01*
X189445333Y-100617333D01*
X188778666Y-100750666D01*
X180378666Y-81154666D02*
X180445333Y-81088000D01*
X180578666Y-81021333D01*
X180912000Y-81021333D01*
X181045333Y-81088000D01*
X181112000Y-81154666D01*
X181178666Y-81288000D01*
X181178666Y-81421333D01*
X181112000Y-81621333D01*
X180312000Y-82421333D01*
X181178666Y-82421333D01*
X182378666Y-81488000D02*
X182378666Y-82421333D01*
X182045333Y-80954666D02*
X181712000Y-81954666D01*
X182578666Y-81954666D01*
X182978666Y-81488000D02*
X183312000Y-82421333D01*
X183645333Y-81488000D01*
X185712000Y-81688000D02*
X185245333Y-81688000D01*
X185245333Y-82421333D02*
X185245333Y-81021333D01*
X185912000Y-81021333D01*
X187045333Y-81488000D02*
X187045333Y-82421333D01*
X186445333Y-81488000D02*
X186445333Y-82221333D01*
X186512000Y-82354666D01*
X186645333Y-82421333D01*
X186845333Y-82421333D01*
X186978666Y-82354666D01*
X187045333Y-82288000D01*
X187645333Y-82354666D02*
X187778666Y-82421333D01*
X188045333Y-82421333D01*
X188178666Y-82354666D01*
X188245333Y-82221333D01*
X188245333Y-82154666D01*
X188178666Y-82021333D01*
X188045333Y-81954666D01*
X187845333Y-81954666D01*
X187712000Y-81888000D01*
X187645333Y-81754666D01*
X187645333Y-81688000D01*
X187712000Y-81554666D01*
X187845333Y-81488000D01*
X188045333Y-81488000D01*
X188178666Y-81554666D01*
X189378666Y-82354666D02*
X189245333Y-82421333D01*
X188978666Y-82421333D01*
X188845333Y-82354666D01*
X188778666Y-82221333D01*
X188778666Y-81688000D01*
X188845333Y-81554666D01*
X188978666Y-81488000D01*
X189245333Y-81488000D01*
X189378666Y-81554666D01*
X189445333Y-81688000D01*
X189445333Y-81821333D01*
X188778666Y-81954666D01*
X171652000Y-81154666D02*
X171718666Y-81088000D01*
X171852000Y-81021333D01*
X172185333Y-81021333D01*
X172318666Y-81088000D01*
X172385333Y-81154666D01*
X172452000Y-81288000D01*
X172452000Y-81421333D01*
X172385333Y-81621333D01*
X171585333Y-82421333D01*
X172452000Y-82421333D01*
X173652000Y-81488000D02*
X173652000Y-82421333D01*
X173318666Y-80954666D02*
X172985333Y-81954666D01*
X173852000Y-81954666D01*
X174252000Y-81488000D02*
X174585333Y-82421333D01*
X174918666Y-81488000D01*
X176518666Y-82421333D02*
X176518666Y-81488000D01*
X176518666Y-81021333D02*
X176452000Y-81088000D01*
X176518666Y-81154666D01*
X176585333Y-81088000D01*
X176518666Y-81021333D01*
X176518666Y-81154666D01*
X177185333Y-81488000D02*
X177185333Y-82421333D01*
X177185333Y-81621333D02*
X177252000Y-81554666D01*
X177385333Y-81488000D01*
X177585333Y-81488000D01*
X177718666Y-81554666D01*
X177785333Y-81688000D01*
X177785333Y-82421333D01*
X160011047Y-82376095D02*
X160011047Y-81076095D01*
X160506285Y-81076095D01*
X160630095Y-81138000D01*
X160692000Y-81199904D01*
X160753904Y-81323714D01*
X160753904Y-81509428D01*
X160692000Y-81633238D01*
X160630095Y-81695142D01*
X160506285Y-81757047D01*
X160011047Y-81757047D01*
X161249142Y-82314190D02*
X161434857Y-82376095D01*
X161744380Y-82376095D01*
X161868190Y-82314190D01*
X161930095Y-82252285D01*
X161992000Y-82128476D01*
X161992000Y-82004666D01*
X161930095Y-81880857D01*
X161868190Y-81818952D01*
X161744380Y-81757047D01*
X161496761Y-81695142D01*
X161372952Y-81633238D01*
X161311047Y-81571333D01*
X161249142Y-81447523D01*
X161249142Y-81323714D01*
X161311047Y-81199904D01*
X161372952Y-81138000D01*
X161496761Y-81076095D01*
X161806285Y-81076095D01*
X161992000Y-81138000D01*
X163477714Y-82314190D02*
X163663428Y-82376095D01*
X163972952Y-82376095D01*
X164096761Y-82314190D01*
X164158666Y-82252285D01*
X164220571Y-82128476D01*
X164220571Y-82004666D01*
X164158666Y-81880857D01*
X164096761Y-81818952D01*
X163972952Y-81757047D01*
X163725333Y-81695142D01*
X163601523Y-81633238D01*
X163539619Y-81571333D01*
X163477714Y-81447523D01*
X163477714Y-81323714D01*
X163539619Y-81199904D01*
X163601523Y-81138000D01*
X163725333Y-81076095D01*
X164034857Y-81076095D01*
X164220571Y-81138000D01*
X164653904Y-81509428D02*
X164901523Y-82376095D01*
X165149142Y-81757047D01*
X165396761Y-82376095D01*
X165644380Y-81509428D01*
X166139619Y-82376095D02*
X166139619Y-81509428D01*
X166139619Y-81076095D02*
X166077714Y-81138000D01*
X166139619Y-81199904D01*
X166201523Y-81138000D01*
X166139619Y-81076095D01*
X166139619Y-81199904D01*
X166572952Y-81509428D02*
X167068190Y-81509428D01*
X166758666Y-81076095D02*
X166758666Y-82190380D01*
X166820571Y-82314190D01*
X166944380Y-82376095D01*
X167068190Y-82376095D01*
X168058666Y-82314190D02*
X167934857Y-82376095D01*
X167687238Y-82376095D01*
X167563428Y-82314190D01*
X167501523Y-82252285D01*
X167439619Y-82128476D01*
X167439619Y-81757047D01*
X167501523Y-81633238D01*
X167563428Y-81571333D01*
X167687238Y-81509428D01*
X167934857Y-81509428D01*
X168058666Y-81571333D01*
X168615809Y-82376095D02*
X168615809Y-81076095D01*
X169172952Y-82376095D02*
X169172952Y-81695142D01*
X169111047Y-81571333D01*
X168987238Y-81509428D01*
X168801523Y-81509428D01*
X168677714Y-81571333D01*
X168615809Y-81633238D01*
D13*
X189992000Y-80518000D02*
X149352000Y-80518000D01*
D11*
X189992000Y-104902000D02*
X179832000Y-104902000D01*
X179832000Y-101854000D02*
X189992000Y-101854000D01*
D13*
X189992000Y-107950000D02*
X189992000Y-104902000D01*
X179832000Y-107950000D02*
X179832000Y-104902000D01*
X179832000Y-101854000D02*
X179832000Y-98806000D01*
X189992000Y-101854000D02*
X189992000Y-98806000D01*
X189992000Y-83058000D02*
X189992000Y-80518000D01*
X179832000Y-83058000D02*
X179832000Y-80518000D01*
X169672000Y-83058000D02*
X169672000Y-80518000D01*
X159512000Y-83058000D02*
X159512000Y-80518000D01*
D15*
G04 #@! TO.C,J1*
X164152000Y-115862000D02*
X138242000Y-115862000D01*
X138242000Y-115862000D02*
X138242000Y-125682000D01*
X138242000Y-125682000D02*
X162342000Y-125682000D01*
X162342000Y-125682000D02*
X162342000Y-127082000D01*
X162342000Y-127082000D02*
X164152000Y-127082000D01*
X164152000Y-115862000D02*
X190062000Y-115862000D01*
X190062000Y-115862000D02*
X190062000Y-125682000D01*
X190062000Y-125682000D02*
X165962000Y-125682000D01*
X165962000Y-125682000D02*
X165962000Y-127082000D01*
X165962000Y-127082000D02*
X164152000Y-127082000D01*
X140852000Y-115622000D02*
X138002000Y-115622000D01*
X138002000Y-115622000D02*
X138002000Y-118472000D01*
G04 #@! TO.C,J2*
X165392000Y-100380000D02*
X165392000Y-109490000D01*
X165392000Y-109490000D02*
X175212000Y-109490000D01*
X175212000Y-109490000D02*
X175212000Y-102190000D01*
X175212000Y-102190000D02*
X176612000Y-102190000D01*
X176612000Y-102190000D02*
X176612000Y-100380000D01*
X165392000Y-100380000D02*
X165392000Y-91270000D01*
X165392000Y-91270000D02*
X175212000Y-91270000D01*
X175212000Y-91270000D02*
X175212000Y-98570000D01*
X175212000Y-98570000D02*
X176612000Y-98570000D01*
X176612000Y-98570000D02*
X176612000Y-100380000D01*
D16*
G04 #@! TO.C,LO_1*
X133243400Y-106209200D02*
X150769400Y-106209200D01*
X133243400Y-111543200D02*
X133243400Y-106209200D01*
X150769400Y-111543200D02*
X133243400Y-111543200D01*
X150769400Y-106209200D02*
X150769400Y-111543200D01*
D15*
G04 #@! TO.C,J5*
X170942000Y-84328000D02*
X178562000Y-84328000D01*
X170942000Y-90678000D02*
X178562000Y-90678000D01*
X178562000Y-83058000D02*
X170942000Y-83058000D01*
G04 #@! TO.C,J6*
X188722000Y-107950000D02*
X181102000Y-107950000D01*
X181102000Y-115570000D02*
X188722000Y-115570000D01*
X181102000Y-109220000D02*
X188722000Y-109220000D01*
G04 #@! TO.C,J7*
X188722000Y-97536000D02*
X181102000Y-97536000D01*
X188722000Y-91186000D02*
X181102000Y-91186000D01*
X181102000Y-98806000D02*
X188722000Y-98806000D01*
G04 #@! TO.C,J8*
X188722000Y-83058000D02*
X181102000Y-83058000D01*
X181102000Y-90678000D02*
X188722000Y-90678000D01*
X181102000Y-84328000D02*
X188722000Y-84328000D01*
G04 #@! TO.C,J9*
X160782000Y-84328000D02*
X168402000Y-84328000D01*
X160782000Y-90678000D02*
X168402000Y-90678000D01*
X168402000Y-83058000D02*
X160782000Y-83058000D01*
G04 #@! TO.C,J10*
X158242000Y-83058000D02*
X150622000Y-83058000D01*
X150622000Y-90678000D02*
X158242000Y-90678000D01*
X150622000Y-84328000D02*
X158242000Y-84328000D01*
G04 #@! TO.C,J3*
X191460000Y-102110000D02*
X190350000Y-102110000D01*
X190350000Y-102110000D02*
X190350000Y-100780000D01*
X192950000Y-82640000D02*
X192510000Y-82640000D01*
X195460000Y-82640000D02*
X195050000Y-82640000D01*
X192950000Y-83360000D02*
X192510000Y-83360000D01*
X195460000Y-83360000D02*
X195050000Y-83360000D01*
X192950000Y-85180000D02*
X192510000Y-85180000D01*
X195460000Y-85180000D02*
X195050000Y-85180000D01*
X192950000Y-85900000D02*
X192510000Y-85900000D01*
X195460000Y-85900000D02*
X195050000Y-85900000D01*
X192950000Y-87720000D02*
X192510000Y-87720000D01*
X195460000Y-87720000D02*
X195050000Y-87720000D01*
X192950000Y-88440000D02*
X192510000Y-88440000D01*
X195460000Y-88440000D02*
X195050000Y-88440000D01*
X192950000Y-90260000D02*
X192510000Y-90260000D01*
X195460000Y-90260000D02*
X195050000Y-90260000D01*
X192950000Y-90980000D02*
X192510000Y-90980000D01*
X195460000Y-90980000D02*
X195050000Y-90980000D01*
X192950000Y-92800000D02*
X192510000Y-92800000D01*
X195460000Y-92800000D02*
X195050000Y-92800000D01*
X192950000Y-93520000D02*
X192510000Y-93520000D01*
X195460000Y-93520000D02*
X195050000Y-93520000D01*
X192950000Y-95340000D02*
X192510000Y-95340000D01*
X195460000Y-95340000D02*
X195050000Y-95340000D01*
X192950000Y-96060000D02*
X192510000Y-96060000D01*
X195460000Y-96060000D02*
X195050000Y-96060000D01*
X192950000Y-97880000D02*
X192510000Y-97880000D01*
X195460000Y-97880000D02*
X195050000Y-97880000D01*
X192950000Y-98600000D02*
X192510000Y-98600000D01*
X195460000Y-98600000D02*
X195050000Y-98600000D01*
X192950000Y-100420000D02*
X192570000Y-100420000D01*
X195460000Y-100420000D02*
X195050000Y-100420000D01*
X192950000Y-101140000D02*
X192570000Y-101140000D01*
X195460000Y-101140000D02*
X195050000Y-101140000D01*
G04 #@! TO.C,J4*
X195460000Y-127360000D02*
X195050000Y-127360000D01*
X192950000Y-127360000D02*
X192570000Y-127360000D01*
X195460000Y-126640000D02*
X195050000Y-126640000D01*
X192950000Y-126640000D02*
X192570000Y-126640000D01*
X195460000Y-124820000D02*
X195050000Y-124820000D01*
X192950000Y-124820000D02*
X192510000Y-124820000D01*
X195460000Y-124100000D02*
X195050000Y-124100000D01*
X192950000Y-124100000D02*
X192510000Y-124100000D01*
X195460000Y-122280000D02*
X195050000Y-122280000D01*
X192950000Y-122280000D02*
X192510000Y-122280000D01*
X195460000Y-121560000D02*
X195050000Y-121560000D01*
X192950000Y-121560000D02*
X192510000Y-121560000D01*
X195460000Y-119740000D02*
X195050000Y-119740000D01*
X192950000Y-119740000D02*
X192510000Y-119740000D01*
X195460000Y-119020000D02*
X195050000Y-119020000D01*
X192950000Y-119020000D02*
X192510000Y-119020000D01*
X195460000Y-117200000D02*
X195050000Y-117200000D01*
X192950000Y-117200000D02*
X192510000Y-117200000D01*
X195460000Y-116480000D02*
X195050000Y-116480000D01*
X192950000Y-116480000D02*
X192510000Y-116480000D01*
X195460000Y-114660000D02*
X195050000Y-114660000D01*
X192950000Y-114660000D02*
X192510000Y-114660000D01*
X195460000Y-113940000D02*
X195050000Y-113940000D01*
X192950000Y-113940000D02*
X192510000Y-113940000D01*
X195460000Y-112120000D02*
X195050000Y-112120000D01*
X192950000Y-112120000D02*
X192510000Y-112120000D01*
X195460000Y-111400000D02*
X195050000Y-111400000D01*
X192950000Y-111400000D02*
X192510000Y-111400000D01*
X195460000Y-109580000D02*
X195050000Y-109580000D01*
X192950000Y-109580000D02*
X192510000Y-109580000D01*
X195460000Y-108860000D02*
X195050000Y-108860000D01*
X192950000Y-108860000D02*
X192510000Y-108860000D01*
X190350000Y-128330000D02*
X190350000Y-127000000D01*
X191460000Y-128330000D02*
X190350000Y-128330000D01*
G04 #@! TO.C,J1*
D13*
X178166666Y-114641380D02*
X178166666Y-115355666D01*
X178119047Y-115498523D01*
X178023809Y-115593761D01*
X177880952Y-115641380D01*
X177785714Y-115641380D01*
X179166666Y-115641380D02*
X178595238Y-115641380D01*
X178880952Y-115641380D02*
X178880952Y-114641380D01*
X178785714Y-114784238D01*
X178690476Y-114879476D01*
X178595238Y-114927095D01*
G04 #@! TO.C,J2*
X176016666Y-96952380D02*
X176016666Y-97666666D01*
X175969047Y-97809523D01*
X175873809Y-97904761D01*
X175730952Y-97952380D01*
X175635714Y-97952380D01*
X176445238Y-97047619D02*
X176492857Y-97000000D01*
X176588095Y-96952380D01*
X176826190Y-96952380D01*
X176921428Y-97000000D01*
X176969047Y-97047619D01*
X177016666Y-97142857D01*
X177016666Y-97238095D01*
X176969047Y-97380952D01*
X176397619Y-97952380D01*
X177016666Y-97952380D01*
G04 #@! TD*
%LPC*%
D17*
X136881142Y-103735142D02*
X136881142Y-100735142D01*
X138024000Y-100735142D01*
X138309714Y-100878000D01*
X138452571Y-101020857D01*
X138595428Y-101306571D01*
X138595428Y-101735142D01*
X138452571Y-102020857D01*
X138309714Y-102163714D01*
X138024000Y-102306571D01*
X136881142Y-102306571D01*
X140309714Y-103735142D02*
X140024000Y-103592285D01*
X139881142Y-103449428D01*
X139738285Y-103163714D01*
X139738285Y-102306571D01*
X139881142Y-102020857D01*
X140024000Y-101878000D01*
X140309714Y-101735142D01*
X140738285Y-101735142D01*
X141024000Y-101878000D01*
X141166857Y-102020857D01*
X141309714Y-102306571D01*
X141309714Y-103163714D01*
X141166857Y-103449428D01*
X141024000Y-103592285D01*
X140738285Y-103735142D01*
X140309714Y-103735142D01*
X142309714Y-101735142D02*
X142881142Y-103735142D01*
X143452571Y-102306571D01*
X144024000Y-103735142D01*
X144595428Y-101735142D01*
X146881142Y-103592285D02*
X146595428Y-103735142D01*
X146024000Y-103735142D01*
X145738285Y-103592285D01*
X145595428Y-103306571D01*
X145595428Y-102163714D01*
X145738285Y-101878000D01*
X146024000Y-101735142D01*
X146595428Y-101735142D01*
X146881142Y-101878000D01*
X147024000Y-102163714D01*
X147024000Y-102449428D01*
X145595428Y-102735142D01*
X148309714Y-103735142D02*
X148309714Y-101735142D01*
X148309714Y-102306571D02*
X148452571Y-102020857D01*
X148595428Y-101878000D01*
X148881142Y-101735142D01*
X149166857Y-101735142D01*
X151166857Y-102163714D02*
X150166857Y-102163714D01*
X150166857Y-103735142D02*
X150166857Y-100735142D01*
X151595428Y-100735142D01*
X153881142Y-103592285D02*
X153595428Y-103735142D01*
X153024000Y-103735142D01*
X152738285Y-103592285D01*
X152595428Y-103306571D01*
X152595428Y-102163714D01*
X152738285Y-101878000D01*
X153024000Y-101735142D01*
X153595428Y-101735142D01*
X153881142Y-101878000D01*
X154024000Y-102163714D01*
X154024000Y-102449428D01*
X152595428Y-102735142D01*
X156452571Y-103592285D02*
X156166857Y-103735142D01*
X155595428Y-103735142D01*
X155309714Y-103592285D01*
X155166857Y-103306571D01*
X155166857Y-102163714D01*
X155309714Y-101878000D01*
X155595428Y-101735142D01*
X156166857Y-101735142D01*
X156452571Y-101878000D01*
X156595428Y-102163714D01*
X156595428Y-102449428D01*
X155166857Y-102735142D01*
X159166857Y-103735142D02*
X159166857Y-100735142D01*
X159166857Y-103592285D02*
X158881142Y-103735142D01*
X158309714Y-103735142D01*
X158024000Y-103592285D01*
X157881142Y-103449428D01*
X157738285Y-103163714D01*
X157738285Y-102306571D01*
X157881142Y-102020857D01*
X158024000Y-101878000D01*
X158309714Y-101735142D01*
X158881142Y-101735142D01*
X159166857Y-101878000D01*
X137666857Y-97663714D02*
X138666857Y-97663714D01*
X139095428Y-99235142D02*
X137666857Y-99235142D01*
X137666857Y-96235142D01*
X139095428Y-96235142D01*
X140809714Y-99235142D02*
X140524000Y-99092285D01*
X140381142Y-98806571D01*
X140381142Y-96235142D01*
X143095428Y-99092285D02*
X142809714Y-99235142D01*
X142238285Y-99235142D01*
X141952571Y-99092285D01*
X141809714Y-98806571D01*
X141809714Y-97663714D01*
X141952571Y-97378000D01*
X142238285Y-97235142D01*
X142809714Y-97235142D01*
X143095428Y-97378000D01*
X143238285Y-97663714D01*
X143238285Y-97949428D01*
X141809714Y-98235142D01*
X145952571Y-99235142D02*
X144524000Y-99235142D01*
X144524000Y-96235142D01*
X148238285Y-99235142D02*
X148238285Y-97663714D01*
X148095428Y-97378000D01*
X147809714Y-97235142D01*
X147238285Y-97235142D01*
X146952571Y-97378000D01*
X148238285Y-99092285D02*
X147952571Y-99235142D01*
X147238285Y-99235142D01*
X146952571Y-99092285D01*
X146809714Y-98806571D01*
X146809714Y-98520857D01*
X146952571Y-98235142D01*
X147238285Y-98092285D01*
X147952571Y-98092285D01*
X148238285Y-97949428D01*
X149666857Y-99235142D02*
X149666857Y-96235142D01*
X149666857Y-97378000D02*
X149952571Y-97235142D01*
X150524000Y-97235142D01*
X150809714Y-97378000D01*
X150952571Y-97520857D01*
X151095428Y-97806571D01*
X151095428Y-98663714D01*
X150952571Y-98949428D01*
X150809714Y-99092285D01*
X150524000Y-99235142D01*
X149952571Y-99235142D01*
X149666857Y-99092285D01*
X151666857Y-99520857D02*
X153952571Y-99520857D01*
X154381142Y-97235142D02*
X155095428Y-99235142D01*
X155809714Y-97235142D01*
X156809714Y-96520857D02*
X156952571Y-96378000D01*
X157238285Y-96235142D01*
X157952571Y-96235142D01*
X158238285Y-96378000D01*
X158381142Y-96520857D01*
X158524000Y-96806571D01*
X158524000Y-97092285D01*
X158381142Y-97520857D01*
X156666857Y-99235142D01*
X158524000Y-99235142D01*
D13*
G04 #@! TO.C,LO_1*
G36*
X133522800Y-111238400D02*
X150490000Y-111238400D01*
X150490000Y-106514000D01*
X133522800Y-106514000D01*
X133522800Y-111238400D01*
G37*
X133522800Y-111238400D02*
X150490000Y-111238400D01*
X150490000Y-106514000D01*
X133522800Y-106514000D01*
X133522800Y-111238400D01*
G04 #@! TD*
D18*
G04 #@! TO.C,J1*
G36*
X142217956Y-117172255D02*
X142243252Y-117176007D01*
X142268058Y-117182221D01*
X142292136Y-117190836D01*
X142315253Y-117201770D01*
X142337188Y-117214917D01*
X142357728Y-117230150D01*
X142376676Y-117247324D01*
X142393850Y-117266272D01*
X142409083Y-117286812D01*
X142422230Y-117308747D01*
X142433164Y-117331864D01*
X142441779Y-117355942D01*
X142447993Y-117380748D01*
X142451745Y-117406044D01*
X142453000Y-117431586D01*
X142453000Y-120312414D01*
X142451745Y-120337956D01*
X142447993Y-120363252D01*
X142441779Y-120388058D01*
X142433164Y-120412136D01*
X142422230Y-120435253D01*
X142409083Y-120457188D01*
X142393850Y-120477728D01*
X142376676Y-120496676D01*
X142357728Y-120513850D01*
X142337188Y-120529083D01*
X142315253Y-120542230D01*
X142292136Y-120553164D01*
X142268058Y-120561779D01*
X142243252Y-120567993D01*
X142217956Y-120571745D01*
X142192414Y-120573000D01*
X139911586Y-120573000D01*
X139886044Y-120571745D01*
X139860748Y-120567993D01*
X139835942Y-120561779D01*
X139811864Y-120553164D01*
X139788747Y-120542230D01*
X139766812Y-120529083D01*
X139746272Y-120513850D01*
X139727324Y-120496676D01*
X139710150Y-120477728D01*
X139694917Y-120457188D01*
X139681770Y-120435253D01*
X139670836Y-120412136D01*
X139662221Y-120388058D01*
X139656007Y-120363252D01*
X139652255Y-120337956D01*
X139651000Y-120312414D01*
X139651000Y-117431586D01*
X139652255Y-117406044D01*
X139656007Y-117380748D01*
X139662221Y-117355942D01*
X139670836Y-117331864D01*
X139681770Y-117308747D01*
X139694917Y-117286812D01*
X139710150Y-117266272D01*
X139727324Y-117247324D01*
X139746272Y-117230150D01*
X139766812Y-117214917D01*
X139788747Y-117201770D01*
X139811864Y-117190836D01*
X139835942Y-117182221D01*
X139860748Y-117176007D01*
X139886044Y-117172255D01*
X139911586Y-117171000D01*
X142192414Y-117171000D01*
X142217956Y-117172255D01*
X142217956Y-117172255D01*
G37*
D19*
X141052000Y-118872000D03*
D20*
X145252000Y-118872000D03*
X149452000Y-118872000D03*
X153652000Y-118872000D03*
X157852000Y-118872000D03*
X162052000Y-118872000D03*
X166252000Y-118872000D03*
X170452000Y-118872000D03*
D21*
X174652000Y-118872000D03*
X178852000Y-118872000D03*
D20*
X183052000Y-118872000D03*
X187252000Y-118872000D03*
X141052000Y-123072000D03*
X145252000Y-123072000D03*
X149452000Y-123072000D03*
X153652000Y-123072000D03*
X157852000Y-123072000D03*
X162052000Y-123072000D03*
X166252000Y-123072000D03*
X170452000Y-123072000D03*
X174652000Y-123072000D03*
X178852000Y-123072000D03*
X183052000Y-123072000D03*
X187252000Y-123072000D03*
G04 #@! TD*
D18*
G04 #@! TO.C,J2*
G36*
X169867956Y-105280255D02*
X169893252Y-105284007D01*
X169918058Y-105290221D01*
X169942136Y-105298836D01*
X169965253Y-105309770D01*
X169987188Y-105322917D01*
X170007728Y-105338150D01*
X170026676Y-105355324D01*
X170043850Y-105374272D01*
X170059083Y-105394812D01*
X170072230Y-105416747D01*
X170083164Y-105439864D01*
X170091779Y-105463942D01*
X170097993Y-105488748D01*
X170101745Y-105514044D01*
X170103000Y-105539586D01*
X170103000Y-107820414D01*
X170101745Y-107845956D01*
X170097993Y-107871252D01*
X170091779Y-107896058D01*
X170083164Y-107920136D01*
X170072230Y-107943253D01*
X170059083Y-107965188D01*
X170043850Y-107985728D01*
X170026676Y-108004676D01*
X170007728Y-108021850D01*
X169987188Y-108037083D01*
X169965253Y-108050230D01*
X169942136Y-108061164D01*
X169918058Y-108069779D01*
X169893252Y-108075993D01*
X169867956Y-108079745D01*
X169842414Y-108081000D01*
X166961586Y-108081000D01*
X166936044Y-108079745D01*
X166910748Y-108075993D01*
X166885942Y-108069779D01*
X166861864Y-108061164D01*
X166838747Y-108050230D01*
X166816812Y-108037083D01*
X166796272Y-108021850D01*
X166777324Y-108004676D01*
X166760150Y-107985728D01*
X166744917Y-107965188D01*
X166731770Y-107943253D01*
X166720836Y-107920136D01*
X166712221Y-107896058D01*
X166706007Y-107871252D01*
X166702255Y-107845956D01*
X166701000Y-107820414D01*
X166701000Y-105539586D01*
X166702255Y-105514044D01*
X166706007Y-105488748D01*
X166712221Y-105463942D01*
X166720836Y-105439864D01*
X166731770Y-105416747D01*
X166744917Y-105394812D01*
X166760150Y-105374272D01*
X166777324Y-105355324D01*
X166796272Y-105338150D01*
X166816812Y-105322917D01*
X166838747Y-105309770D01*
X166861864Y-105298836D01*
X166885942Y-105290221D01*
X166910748Y-105284007D01*
X166936044Y-105280255D01*
X166961586Y-105279000D01*
X169842414Y-105279000D01*
X169867956Y-105280255D01*
X169867956Y-105280255D01*
G37*
D19*
X168402000Y-106680000D03*
D22*
X168402000Y-102480000D03*
X168402000Y-98280000D03*
X168402000Y-94080000D03*
X172602000Y-106680000D03*
X172602000Y-102480000D03*
X172602000Y-98280000D03*
X172602000Y-94080000D03*
G04 #@! TD*
D23*
G04 #@! TO.C,H1*
X135000000Y-83000000D03*
G04 #@! TD*
G04 #@! TO.C,H2*
X197000000Y-105000000D03*
G04 #@! TD*
G04 #@! TO.C,H3*
X135000000Y-127000000D03*
G04 #@! TD*
D18*
G04 #@! TO.C,LO_1*
G36*
X141030453Y-108815406D02*
X141054770Y-108819013D01*
X141078616Y-108824986D01*
X141101762Y-108833268D01*
X141123985Y-108843779D01*
X141145070Y-108856417D01*
X141164816Y-108871061D01*
X141183030Y-108887570D01*
X141199539Y-108905784D01*
X141214183Y-108925530D01*
X141226821Y-108946615D01*
X141237332Y-108968838D01*
X141245614Y-108991984D01*
X141251587Y-109015830D01*
X141255194Y-109040147D01*
X141256400Y-109064700D01*
X141256400Y-110465700D01*
X141255194Y-110490253D01*
X141251587Y-110514570D01*
X141245614Y-110538416D01*
X141237332Y-110561562D01*
X141226821Y-110583785D01*
X141214183Y-110604870D01*
X141199539Y-110624616D01*
X141183030Y-110642830D01*
X141164816Y-110659339D01*
X141145070Y-110673983D01*
X141123985Y-110686621D01*
X141101762Y-110697132D01*
X141078616Y-110705414D01*
X141054770Y-110711387D01*
X141030453Y-110714994D01*
X141005900Y-110716200D01*
X140504900Y-110716200D01*
X140480347Y-110714994D01*
X140456030Y-110711387D01*
X140432184Y-110705414D01*
X140409038Y-110697132D01*
X140386815Y-110686621D01*
X140365730Y-110673983D01*
X140345984Y-110659339D01*
X140327770Y-110642830D01*
X140311261Y-110624616D01*
X140296617Y-110604870D01*
X140283979Y-110583785D01*
X140273468Y-110561562D01*
X140265186Y-110538416D01*
X140259213Y-110514570D01*
X140255606Y-110490253D01*
X140254400Y-110465700D01*
X140254400Y-109064700D01*
X140255606Y-109040147D01*
X140259213Y-109015830D01*
X140265186Y-108991984D01*
X140273468Y-108968838D01*
X140283979Y-108946615D01*
X140296617Y-108925530D01*
X140311261Y-108905784D01*
X140327770Y-108887570D01*
X140345984Y-108871061D01*
X140365730Y-108856417D01*
X140386815Y-108843779D01*
X140409038Y-108833268D01*
X140432184Y-108824986D01*
X140456030Y-108819013D01*
X140480347Y-108815406D01*
X140504900Y-108814200D01*
X141005900Y-108814200D01*
X141030453Y-108815406D01*
X141030453Y-108815406D01*
G37*
D24*
X140755400Y-109765200D03*
D18*
G36*
X142770453Y-108815406D02*
X142794770Y-108819013D01*
X142818616Y-108824986D01*
X142841762Y-108833268D01*
X142863985Y-108843779D01*
X142885070Y-108856417D01*
X142904816Y-108871061D01*
X142923030Y-108887570D01*
X142939539Y-108905784D01*
X142954183Y-108925530D01*
X142966821Y-108946615D01*
X142977332Y-108968838D01*
X142985614Y-108991984D01*
X142991587Y-109015830D01*
X142995194Y-109040147D01*
X142996400Y-109064700D01*
X142996400Y-110465700D01*
X142995194Y-110490253D01*
X142991587Y-110514570D01*
X142985614Y-110538416D01*
X142977332Y-110561562D01*
X142966821Y-110583785D01*
X142954183Y-110604870D01*
X142939539Y-110624616D01*
X142923030Y-110642830D01*
X142904816Y-110659339D01*
X142885070Y-110673983D01*
X142863985Y-110686621D01*
X142841762Y-110697132D01*
X142818616Y-110705414D01*
X142794770Y-110711387D01*
X142770453Y-110714994D01*
X142745900Y-110716200D01*
X142244900Y-110716200D01*
X142220347Y-110714994D01*
X142196030Y-110711387D01*
X142172184Y-110705414D01*
X142149038Y-110697132D01*
X142126815Y-110686621D01*
X142105730Y-110673983D01*
X142085984Y-110659339D01*
X142067770Y-110642830D01*
X142051261Y-110624616D01*
X142036617Y-110604870D01*
X142023979Y-110583785D01*
X142013468Y-110561562D01*
X142005186Y-110538416D01*
X141999213Y-110514570D01*
X141995606Y-110490253D01*
X141994400Y-110465700D01*
X141994400Y-109064700D01*
X141995606Y-109040147D01*
X141999213Y-109015830D01*
X142005186Y-108991984D01*
X142013468Y-108968838D01*
X142023979Y-108946615D01*
X142036617Y-108925530D01*
X142051261Y-108905784D01*
X142067770Y-108887570D01*
X142085984Y-108871061D01*
X142105730Y-108856417D01*
X142126815Y-108843779D01*
X142149038Y-108833268D01*
X142172184Y-108824986D01*
X142196030Y-108819013D01*
X142220347Y-108815406D01*
X142244900Y-108814200D01*
X142745900Y-108814200D01*
X142770453Y-108815406D01*
X142770453Y-108815406D01*
G37*
D24*
X142495400Y-109765200D03*
D25*
X137815400Y-109765200D03*
D26*
X145435400Y-109765200D03*
G04 #@! TD*
D27*
G04 #@! TO.C,J5*
X177292000Y-86868000D03*
D28*
X172212000Y-86868000D03*
G04 #@! TD*
G04 #@! TO.C,J6*
X182372000Y-111760000D03*
D27*
X187452000Y-111760000D03*
G04 #@! TD*
G04 #@! TO.C,J7*
X182372000Y-94996000D03*
D28*
X187452000Y-94996000D03*
G04 #@! TD*
G04 #@! TO.C,J8*
X182372000Y-86868000D03*
D27*
X187452000Y-86868000D03*
G04 #@! TD*
G04 #@! TO.C,J9*
X167132000Y-86868000D03*
D28*
X162052000Y-86868000D03*
G04 #@! TD*
G04 #@! TO.C,J10*
X151892000Y-86868000D03*
D27*
X156972000Y-86868000D03*
G04 #@! TD*
D29*
G04 #@! TO.C,J3*
X194000000Y-83000000D03*
X191460000Y-83000000D03*
X194000000Y-85540000D03*
X191460000Y-85540000D03*
X194000000Y-88080000D03*
X191460000Y-88080000D03*
X194000000Y-90620000D03*
X191460000Y-90620000D03*
X194000000Y-93160000D03*
X191460000Y-93160000D03*
X194000000Y-95700000D03*
X191460000Y-95700000D03*
X194000000Y-98240000D03*
X191460000Y-98240000D03*
X194000000Y-100780000D03*
D30*
X191460000Y-100780000D03*
G04 #@! TD*
G04 #@! TO.C,J4*
X191460000Y-127000000D03*
D29*
X194000000Y-127000000D03*
X191460000Y-124460000D03*
X194000000Y-124460000D03*
X191460000Y-121920000D03*
X194000000Y-121920000D03*
X191460000Y-119380000D03*
X194000000Y-119380000D03*
X191460000Y-116840000D03*
X194000000Y-116840000D03*
X191460000Y-114300000D03*
X194000000Y-114300000D03*
X191460000Y-111760000D03*
X194000000Y-111760000D03*
X191460000Y-109220000D03*
X194000000Y-109220000D03*
G04 #@! TD*
M02*
