G04 #@! TF.GenerationSoftware,KiCad,Pcbnew,(5.0.2)-1*
G04 #@! TF.CreationDate,2019-08-28T20:26:21+02:00*
G04 #@! TF.ProjectId,EleLab_v2_Bus100,456c654c-6162-45f7-9632-5f4275733130,rev?*
G04 #@! TF.SameCoordinates,Original*
G04 #@! TF.FileFunction,Legend,Top*
G04 #@! TF.FilePolarity,Positive*
%FSLAX46Y46*%
G04 Gerber Fmt 4.6, Leading zero omitted, Abs format (unit mm)*
G04 Created by KiCad (PCBNEW (5.0.2)-1) date 28/08/2019 20:26:21*
%MOMM*%
%LPD*%
G01*
G04 APERTURE LIST*
%ADD10C,0.400000*%
%ADD11C,0.300000*%
%ADD12C,0.500000*%
%ADD13C,0.750000*%
%ADD14C,0.120000*%
%ADD15C,1.000000*%
%ADD16C,0.150000*%
%ADD17R,1.802000X1.802000*%
%ADD18O,1.802000X1.802000*%
%ADD19C,1.702000*%
%ADD20O,1.702000X1.702000*%
%ADD21C,0.100000*%
%ADD22C,1.002000*%
%ADD23C,5.700000*%
G04 APERTURE END LIST*
D10*
X189200000Y-89900000D02*
X96700000Y-89900000D01*
X189200000Y-79700000D02*
X189200000Y-100000000D01*
X96800000Y-100000000D02*
X189200000Y-100000000D01*
X96800000Y-105950000D02*
X189200000Y-105950000D01*
X96800000Y-79700000D02*
X189200000Y-79700000D01*
X96800000Y-105950000D02*
X96800000Y-126250000D01*
X96800000Y-79700000D02*
X96800000Y-100000000D01*
D11*
X101535714Y-102403571D02*
X101535714Y-100903571D01*
X102250000Y-101403571D02*
X102250000Y-102403571D01*
X102250000Y-101546428D02*
X102321428Y-101475000D01*
X102464285Y-101403571D01*
X102678571Y-101403571D01*
X102821428Y-101475000D01*
X102892857Y-101617857D01*
X102892857Y-102403571D01*
X103607142Y-101403571D02*
X103607142Y-102903571D01*
X103607142Y-101475000D02*
X103750000Y-101403571D01*
X104035714Y-101403571D01*
X104178571Y-101475000D01*
X104250000Y-101546428D01*
X104321428Y-101689285D01*
X104321428Y-102117857D01*
X104250000Y-102260714D01*
X104178571Y-102332142D01*
X104035714Y-102403571D01*
X103750000Y-102403571D01*
X103607142Y-102332142D01*
X105607142Y-101403571D02*
X105607142Y-102403571D01*
X104964285Y-101403571D02*
X104964285Y-102189285D01*
X105035714Y-102332142D01*
X105178571Y-102403571D01*
X105392857Y-102403571D01*
X105535714Y-102332142D01*
X105607142Y-102260714D01*
X106107142Y-101403571D02*
X106678571Y-101403571D01*
X106321428Y-100903571D02*
X106321428Y-102189285D01*
X106392857Y-102332142D01*
X106535714Y-102403571D01*
X106678571Y-102403571D01*
X101964285Y-104953571D02*
X101964285Y-103453571D01*
X102535714Y-103453571D01*
X102678571Y-103525000D01*
X102750000Y-103596428D01*
X102821428Y-103739285D01*
X102821428Y-103953571D01*
X102750000Y-104096428D01*
X102678571Y-104167857D01*
X102535714Y-104239285D01*
X101964285Y-104239285D01*
X103464285Y-104953571D02*
X103464285Y-103953571D01*
X103464285Y-103453571D02*
X103392857Y-103525000D01*
X103464285Y-103596428D01*
X103535714Y-103525000D01*
X103464285Y-103453571D01*
X103464285Y-103596428D01*
X104178571Y-103953571D02*
X104178571Y-104953571D01*
X104178571Y-104096428D02*
X104250000Y-104025000D01*
X104392857Y-103953571D01*
X104607142Y-103953571D01*
X104750000Y-104025000D01*
X104821428Y-104167857D01*
X104821428Y-104953571D01*
X105464285Y-104882142D02*
X105607142Y-104953571D01*
X105892857Y-104953571D01*
X106035714Y-104882142D01*
X106107142Y-104739285D01*
X106107142Y-104667857D01*
X106035714Y-104525000D01*
X105892857Y-104453571D01*
X105678571Y-104453571D01*
X105535714Y-104382142D01*
X105464285Y-104239285D01*
X105464285Y-104167857D01*
X105535714Y-104025000D01*
X105678571Y-103953571D01*
X105892857Y-103953571D01*
X106035714Y-104025000D01*
X179964285Y-100903571D02*
X180250000Y-100903571D01*
X180392857Y-100975000D01*
X180535714Y-101117857D01*
X180607142Y-101403571D01*
X180607142Y-101903571D01*
X180535714Y-102189285D01*
X180392857Y-102332142D01*
X180250000Y-102403571D01*
X179964285Y-102403571D01*
X179821428Y-102332142D01*
X179678571Y-102189285D01*
X179607142Y-101903571D01*
X179607142Y-101403571D01*
X179678571Y-101117857D01*
X179821428Y-100975000D01*
X179964285Y-100903571D01*
X181892857Y-101403571D02*
X181892857Y-102403571D01*
X181250000Y-101403571D02*
X181250000Y-102189285D01*
X181321428Y-102332142D01*
X181464285Y-102403571D01*
X181678571Y-102403571D01*
X181821428Y-102332142D01*
X181892857Y-102260714D01*
X182392857Y-101403571D02*
X182964285Y-101403571D01*
X182607142Y-100903571D02*
X182607142Y-102189285D01*
X182678571Y-102332142D01*
X182821428Y-102403571D01*
X182964285Y-102403571D01*
X183464285Y-101403571D02*
X183464285Y-102903571D01*
X183464285Y-101475000D02*
X183607142Y-101403571D01*
X183892857Y-101403571D01*
X184035714Y-101475000D01*
X184107142Y-101546428D01*
X184178571Y-101689285D01*
X184178571Y-102117857D01*
X184107142Y-102260714D01*
X184035714Y-102332142D01*
X183892857Y-102403571D01*
X183607142Y-102403571D01*
X183464285Y-102332142D01*
X185464285Y-101403571D02*
X185464285Y-102403571D01*
X184821428Y-101403571D02*
X184821428Y-102189285D01*
X184892857Y-102332142D01*
X185035714Y-102403571D01*
X185250000Y-102403571D01*
X185392857Y-102332142D01*
X185464285Y-102260714D01*
X185964285Y-101403571D02*
X186535714Y-101403571D01*
X186178571Y-100903571D02*
X186178571Y-102189285D01*
X186250000Y-102332142D01*
X186392857Y-102403571D01*
X186535714Y-102403571D01*
X178964285Y-104882142D02*
X179178571Y-104953571D01*
X179535714Y-104953571D01*
X179678571Y-104882142D01*
X179750000Y-104810714D01*
X179821428Y-104667857D01*
X179821428Y-104525000D01*
X179750000Y-104382142D01*
X179678571Y-104310714D01*
X179535714Y-104239285D01*
X179250000Y-104167857D01*
X179107142Y-104096428D01*
X179035714Y-104025000D01*
X178964285Y-103882142D01*
X178964285Y-103739285D01*
X179035714Y-103596428D01*
X179107142Y-103525000D01*
X179250000Y-103453571D01*
X179607142Y-103453571D01*
X179821428Y-103525000D01*
X180678571Y-104953571D02*
X180535714Y-104882142D01*
X180464285Y-104810714D01*
X180392857Y-104667857D01*
X180392857Y-104239285D01*
X180464285Y-104096428D01*
X180535714Y-104025000D01*
X180678571Y-103953571D01*
X180892857Y-103953571D01*
X181035714Y-104025000D01*
X181107142Y-104096428D01*
X181178571Y-104239285D01*
X181178571Y-104667857D01*
X181107142Y-104810714D01*
X181035714Y-104882142D01*
X180892857Y-104953571D01*
X180678571Y-104953571D01*
X182464285Y-104882142D02*
X182321428Y-104953571D01*
X182035714Y-104953571D01*
X181892857Y-104882142D01*
X181821428Y-104810714D01*
X181750000Y-104667857D01*
X181750000Y-104239285D01*
X181821428Y-104096428D01*
X181892857Y-104025000D01*
X182035714Y-103953571D01*
X182321428Y-103953571D01*
X182464285Y-104025000D01*
X183107142Y-104953571D02*
X183107142Y-103453571D01*
X183250000Y-104382142D02*
X183678571Y-104953571D01*
X183678571Y-103953571D02*
X183107142Y-104525000D01*
X184892857Y-104882142D02*
X184750000Y-104953571D01*
X184464285Y-104953571D01*
X184321428Y-104882142D01*
X184250000Y-104739285D01*
X184250000Y-104167857D01*
X184321428Y-104025000D01*
X184464285Y-103953571D01*
X184750000Y-103953571D01*
X184892857Y-104025000D01*
X184964285Y-104167857D01*
X184964285Y-104310714D01*
X184250000Y-104453571D01*
X185392857Y-103953571D02*
X185964285Y-103953571D01*
X185607142Y-103453571D02*
X185607142Y-104739285D01*
X185678571Y-104882142D01*
X185821428Y-104953571D01*
X185964285Y-104953571D01*
X186392857Y-104882142D02*
X186535714Y-104953571D01*
X186821428Y-104953571D01*
X186964285Y-104882142D01*
X187035714Y-104739285D01*
X187035714Y-104667857D01*
X186964285Y-104525000D01*
X186821428Y-104453571D01*
X186607142Y-104453571D01*
X186464285Y-104382142D01*
X186392857Y-104239285D01*
X186392857Y-104167857D01*
X186464285Y-104025000D01*
X186607142Y-103953571D01*
X186821428Y-103953571D01*
X186964285Y-104025000D01*
D12*
X112214285Y-119800000D02*
X111928571Y-119657142D01*
X111500000Y-119657142D01*
X111071428Y-119800000D01*
X110785714Y-120085714D01*
X110642857Y-120371428D01*
X110500000Y-120942857D01*
X110500000Y-121371428D01*
X110642857Y-121942857D01*
X110785714Y-122228571D01*
X111071428Y-122514285D01*
X111500000Y-122657142D01*
X111785714Y-122657142D01*
X112214285Y-122514285D01*
X112357142Y-122371428D01*
X112357142Y-121371428D01*
X111785714Y-121371428D01*
X113642857Y-122657142D02*
X113642857Y-119657142D01*
X115357142Y-122657142D01*
X115357142Y-119657142D01*
X116785714Y-122657142D02*
X116785714Y-119657142D01*
X117500000Y-119657142D01*
X117928571Y-119800000D01*
X118214285Y-120085714D01*
X118357142Y-120371428D01*
X118500000Y-120942857D01*
X118500000Y-121371428D01*
X118357142Y-121942857D01*
X118214285Y-122228571D01*
X117928571Y-122514285D01*
X117500000Y-122657142D01*
X116785714Y-122657142D01*
X109214285Y-85014285D02*
X111500000Y-85014285D01*
X110357142Y-86157142D02*
X110357142Y-83871428D01*
X112785714Y-83442857D02*
X112928571Y-83300000D01*
X113214285Y-83157142D01*
X113928571Y-83157142D01*
X114214285Y-83300000D01*
X114357142Y-83442857D01*
X114500000Y-83728571D01*
X114500000Y-84014285D01*
X114357142Y-84442857D01*
X112642857Y-86157142D01*
X114500000Y-86157142D01*
X117071428Y-84157142D02*
X117071428Y-86157142D01*
X116357142Y-83014285D02*
X115642857Y-85157142D01*
X117500000Y-85157142D01*
X118214285Y-83157142D02*
X119214285Y-86157142D01*
X120214285Y-83157142D01*
X109214285Y-95214285D02*
X111500000Y-95214285D01*
X110357142Y-96357142D02*
X110357142Y-94071428D01*
X114500000Y-96357142D02*
X112785714Y-96357142D01*
X113642857Y-96357142D02*
X113642857Y-93357142D01*
X113357142Y-93785714D01*
X113071428Y-94071428D01*
X112785714Y-94214285D01*
X115642857Y-93642857D02*
X115785714Y-93500000D01*
X116071428Y-93357142D01*
X116785714Y-93357142D01*
X117071428Y-93500000D01*
X117214285Y-93642857D01*
X117357142Y-93928571D01*
X117357142Y-94214285D01*
X117214285Y-94642857D01*
X115500000Y-96357142D01*
X117357142Y-96357142D01*
X118214285Y-93357142D02*
X119214285Y-96357142D01*
X120214285Y-93357142D01*
D13*
X110142857Y-103055714D02*
X111142857Y-103055714D01*
X111571428Y-104627142D02*
X110142857Y-104627142D01*
X110142857Y-101627142D01*
X111571428Y-101627142D01*
X113285714Y-104627142D02*
X113000000Y-104484285D01*
X112857142Y-104198571D01*
X112857142Y-101627142D01*
X115571428Y-104484285D02*
X115285714Y-104627142D01*
X114714285Y-104627142D01*
X114428571Y-104484285D01*
X114285714Y-104198571D01*
X114285714Y-103055714D01*
X114428571Y-102770000D01*
X114714285Y-102627142D01*
X115285714Y-102627142D01*
X115571428Y-102770000D01*
X115714285Y-103055714D01*
X115714285Y-103341428D01*
X114285714Y-103627142D01*
X118428571Y-104627142D02*
X117000000Y-104627142D01*
X117000000Y-101627142D01*
X120714285Y-104627142D02*
X120714285Y-103055714D01*
X120571428Y-102770000D01*
X120285714Y-102627142D01*
X119714285Y-102627142D01*
X119428571Y-102770000D01*
X120714285Y-104484285D02*
X120428571Y-104627142D01*
X119714285Y-104627142D01*
X119428571Y-104484285D01*
X119285714Y-104198571D01*
X119285714Y-103912857D01*
X119428571Y-103627142D01*
X119714285Y-103484285D01*
X120428571Y-103484285D01*
X120714285Y-103341428D01*
X122142857Y-104627142D02*
X122142857Y-101627142D01*
X122142857Y-102770000D02*
X122428571Y-102627142D01*
X123000000Y-102627142D01*
X123285714Y-102770000D01*
X123428571Y-102912857D01*
X123571428Y-103198571D01*
X123571428Y-104055714D01*
X123428571Y-104341428D01*
X123285714Y-104484285D01*
X123000000Y-104627142D01*
X122428571Y-104627142D01*
X122142857Y-104484285D01*
X124142857Y-104912857D02*
X126428571Y-104912857D01*
X126857142Y-102627142D02*
X127571428Y-104627142D01*
X128285714Y-102627142D01*
X129285714Y-101912857D02*
X129428571Y-101770000D01*
X129714285Y-101627142D01*
X130428571Y-101627142D01*
X130714285Y-101770000D01*
X130857142Y-101912857D01*
X131000000Y-102198571D01*
X131000000Y-102484285D01*
X130857142Y-102912857D01*
X129142857Y-104627142D01*
X131000000Y-104627142D01*
X134571428Y-103484285D02*
X136857142Y-103484285D01*
X141571428Y-103055714D02*
X142000000Y-103198571D01*
X142142857Y-103341428D01*
X142285714Y-103627142D01*
X142285714Y-104055714D01*
X142142857Y-104341428D01*
X142000000Y-104484285D01*
X141714285Y-104627142D01*
X140571428Y-104627142D01*
X140571428Y-101627142D01*
X141571428Y-101627142D01*
X141857142Y-101770000D01*
X142000000Y-101912857D01*
X142142857Y-102198571D01*
X142142857Y-102484285D01*
X142000000Y-102770000D01*
X141857142Y-102912857D01*
X141571428Y-103055714D01*
X140571428Y-103055714D01*
X144857142Y-102627142D02*
X144857142Y-104627142D01*
X143571428Y-102627142D02*
X143571428Y-104198571D01*
X143714285Y-104484285D01*
X144000000Y-104627142D01*
X144428571Y-104627142D01*
X144714285Y-104484285D01*
X144857142Y-104341428D01*
X146142857Y-104484285D02*
X146428571Y-104627142D01*
X147000000Y-104627142D01*
X147285714Y-104484285D01*
X147428571Y-104198571D01*
X147428571Y-104055714D01*
X147285714Y-103770000D01*
X147000000Y-103627142D01*
X146571428Y-103627142D01*
X146285714Y-103484285D01*
X146142857Y-103198571D01*
X146142857Y-103055714D01*
X146285714Y-102770000D01*
X146571428Y-102627142D01*
X147000000Y-102627142D01*
X147285714Y-102770000D01*
X150285714Y-104627142D02*
X148571428Y-104627142D01*
X149428571Y-104627142D02*
X149428571Y-101627142D01*
X149142857Y-102055714D01*
X148857142Y-102341428D01*
X148571428Y-102484285D01*
X152142857Y-101627142D02*
X152428571Y-101627142D01*
X152714285Y-101770000D01*
X152857142Y-101912857D01*
X153000000Y-102198571D01*
X153142857Y-102770000D01*
X153142857Y-103484285D01*
X153000000Y-104055714D01*
X152857142Y-104341428D01*
X152714285Y-104484285D01*
X152428571Y-104627142D01*
X152142857Y-104627142D01*
X151857142Y-104484285D01*
X151714285Y-104341428D01*
X151571428Y-104055714D01*
X151428571Y-103484285D01*
X151428571Y-102770000D01*
X151571428Y-102198571D01*
X151714285Y-101912857D01*
X151857142Y-101770000D01*
X152142857Y-101627142D01*
X155000000Y-101627142D02*
X155285714Y-101627142D01*
X155571428Y-101770000D01*
X155714285Y-101912857D01*
X155857142Y-102198571D01*
X156000000Y-102770000D01*
X156000000Y-103484285D01*
X155857142Y-104055714D01*
X155714285Y-104341428D01*
X155571428Y-104484285D01*
X155285714Y-104627142D01*
X155000000Y-104627142D01*
X154714285Y-104484285D01*
X154571428Y-104341428D01*
X154428571Y-104055714D01*
X154285714Y-103484285D01*
X154285714Y-102770000D01*
X154428571Y-102198571D01*
X154571428Y-101912857D01*
X154714285Y-101770000D01*
X155000000Y-101627142D01*
D12*
X110642857Y-111314285D02*
X112928571Y-111314285D01*
X111785714Y-112457142D02*
X111785714Y-110171428D01*
X115785714Y-109457142D02*
X114357142Y-109457142D01*
X114214285Y-110885714D01*
X114357142Y-110742857D01*
X114642857Y-110600000D01*
X115357142Y-110600000D01*
X115642857Y-110742857D01*
X115785714Y-110885714D01*
X115928571Y-111171428D01*
X115928571Y-111885714D01*
X115785714Y-112171428D01*
X115642857Y-112314285D01*
X115357142Y-112457142D01*
X114642857Y-112457142D01*
X114357142Y-112314285D01*
X114214285Y-112171428D01*
X116785714Y-109457142D02*
X117785714Y-112457142D01*
X118785714Y-109457142D01*
X168214285Y-85014285D02*
X170500000Y-85014285D01*
X169357142Y-86157142D02*
X169357142Y-83871428D01*
X171785714Y-83442857D02*
X171928571Y-83300000D01*
X172214285Y-83157142D01*
X172928571Y-83157142D01*
X173214285Y-83300000D01*
X173357142Y-83442857D01*
X173500000Y-83728571D01*
X173500000Y-84014285D01*
X173357142Y-84442857D01*
X171642857Y-86157142D01*
X173500000Y-86157142D01*
X176071428Y-84157142D02*
X176071428Y-86157142D01*
X175357142Y-83014285D02*
X174642857Y-85157142D01*
X176500000Y-85157142D01*
X177214285Y-83157142D02*
X178214285Y-86157142D01*
X179214285Y-83157142D01*
X168214285Y-95214285D02*
X170500000Y-95214285D01*
X169357142Y-96357142D02*
X169357142Y-94071428D01*
X173500000Y-96357142D02*
X171785714Y-96357142D01*
X172642857Y-96357142D02*
X172642857Y-93357142D01*
X172357142Y-93785714D01*
X172071428Y-94071428D01*
X171785714Y-94214285D01*
X174642857Y-93642857D02*
X174785714Y-93500000D01*
X175071428Y-93357142D01*
X175785714Y-93357142D01*
X176071428Y-93500000D01*
X176214285Y-93642857D01*
X176357142Y-93928571D01*
X176357142Y-94214285D01*
X176214285Y-94642857D01*
X174500000Y-96357142D01*
X176357142Y-96357142D01*
X177214285Y-93357142D02*
X178214285Y-96357142D01*
X179214285Y-93357142D01*
X171214285Y-119800000D02*
X170928571Y-119657142D01*
X170500000Y-119657142D01*
X170071428Y-119800000D01*
X169785714Y-120085714D01*
X169642857Y-120371428D01*
X169500000Y-120942857D01*
X169500000Y-121371428D01*
X169642857Y-121942857D01*
X169785714Y-122228571D01*
X170071428Y-122514285D01*
X170500000Y-122657142D01*
X170785714Y-122657142D01*
X171214285Y-122514285D01*
X171357142Y-122371428D01*
X171357142Y-121371428D01*
X170785714Y-121371428D01*
X172642857Y-122657142D02*
X172642857Y-119657142D01*
X174357142Y-122657142D01*
X174357142Y-119657142D01*
X175785714Y-122657142D02*
X175785714Y-119657142D01*
X176500000Y-119657142D01*
X176928571Y-119800000D01*
X177214285Y-120085714D01*
X177357142Y-120371428D01*
X177500000Y-120942857D01*
X177500000Y-121371428D01*
X177357142Y-121942857D01*
X177214285Y-122228571D01*
X176928571Y-122514285D01*
X176500000Y-122657142D01*
X175785714Y-122657142D01*
X169642857Y-111314285D02*
X171928571Y-111314285D01*
X170785714Y-112457142D02*
X170785714Y-110171428D01*
X174785714Y-109457142D02*
X173357142Y-109457142D01*
X173214285Y-110885714D01*
X173357142Y-110742857D01*
X173642857Y-110600000D01*
X174357142Y-110600000D01*
X174642857Y-110742857D01*
X174785714Y-110885714D01*
X174928571Y-111171428D01*
X174928571Y-111885714D01*
X174785714Y-112171428D01*
X174642857Y-112314285D01*
X174357142Y-112457142D01*
X173642857Y-112457142D01*
X173357142Y-112314285D01*
X173214285Y-112171428D01*
X175785714Y-109457142D02*
X176785714Y-112457142D01*
X177785714Y-109457142D01*
D10*
X96800000Y-126250000D02*
X189200000Y-126250000D01*
X189200000Y-116150000D02*
X96700000Y-116150000D01*
X189200000Y-105950000D02*
X189200000Y-126250000D01*
X189200000Y-55950000D02*
X189200000Y-76250000D01*
X189200000Y-66150000D02*
X96700000Y-66150000D01*
X96800000Y-76250000D02*
X189200000Y-76250000D01*
X96800000Y-55950000D02*
X189200000Y-55950000D01*
X96800000Y-55950000D02*
X96800000Y-76250000D01*
D12*
X169642857Y-61314285D02*
X171928571Y-61314285D01*
X170785714Y-62457142D02*
X170785714Y-60171428D01*
X174785714Y-59457142D02*
X173357142Y-59457142D01*
X173214285Y-60885714D01*
X173357142Y-60742857D01*
X173642857Y-60600000D01*
X174357142Y-60600000D01*
X174642857Y-60742857D01*
X174785714Y-60885714D01*
X174928571Y-61171428D01*
X174928571Y-61885714D01*
X174785714Y-62171428D01*
X174642857Y-62314285D01*
X174357142Y-62457142D01*
X173642857Y-62457142D01*
X173357142Y-62314285D01*
X173214285Y-62171428D01*
X175785714Y-59457142D02*
X176785714Y-62457142D01*
X177785714Y-59457142D01*
X171214285Y-69800000D02*
X170928571Y-69657142D01*
X170500000Y-69657142D01*
X170071428Y-69800000D01*
X169785714Y-70085714D01*
X169642857Y-70371428D01*
X169500000Y-70942857D01*
X169500000Y-71371428D01*
X169642857Y-71942857D01*
X169785714Y-72228571D01*
X170071428Y-72514285D01*
X170500000Y-72657142D01*
X170785714Y-72657142D01*
X171214285Y-72514285D01*
X171357142Y-72371428D01*
X171357142Y-71371428D01*
X170785714Y-71371428D01*
X172642857Y-72657142D02*
X172642857Y-69657142D01*
X174357142Y-72657142D01*
X174357142Y-69657142D01*
X175785714Y-72657142D02*
X175785714Y-69657142D01*
X176500000Y-69657142D01*
X176928571Y-69800000D01*
X177214285Y-70085714D01*
X177357142Y-70371428D01*
X177500000Y-70942857D01*
X177500000Y-71371428D01*
X177357142Y-71942857D01*
X177214285Y-72228571D01*
X176928571Y-72514285D01*
X176500000Y-72657142D01*
X175785714Y-72657142D01*
X112214285Y-69800000D02*
X111928571Y-69657142D01*
X111500000Y-69657142D01*
X111071428Y-69800000D01*
X110785714Y-70085714D01*
X110642857Y-70371428D01*
X110500000Y-70942857D01*
X110500000Y-71371428D01*
X110642857Y-71942857D01*
X110785714Y-72228571D01*
X111071428Y-72514285D01*
X111500000Y-72657142D01*
X111785714Y-72657142D01*
X112214285Y-72514285D01*
X112357142Y-72371428D01*
X112357142Y-71371428D01*
X111785714Y-71371428D01*
X113642857Y-72657142D02*
X113642857Y-69657142D01*
X115357142Y-72657142D01*
X115357142Y-69657142D01*
X116785714Y-72657142D02*
X116785714Y-69657142D01*
X117500000Y-69657142D01*
X117928571Y-69800000D01*
X118214285Y-70085714D01*
X118357142Y-70371428D01*
X118500000Y-70942857D01*
X118500000Y-71371428D01*
X118357142Y-71942857D01*
X118214285Y-72228571D01*
X117928571Y-72514285D01*
X117500000Y-72657142D01*
X116785714Y-72657142D01*
X110642857Y-61314285D02*
X112928571Y-61314285D01*
X111785714Y-62457142D02*
X111785714Y-60171428D01*
X115785714Y-59457142D02*
X114357142Y-59457142D01*
X114214285Y-60885714D01*
X114357142Y-60742857D01*
X114642857Y-60600000D01*
X115357142Y-60600000D01*
X115642857Y-60742857D01*
X115785714Y-60885714D01*
X115928571Y-61171428D01*
X115928571Y-61885714D01*
X115785714Y-62171428D01*
X115642857Y-62314285D01*
X115357142Y-62457142D01*
X114642857Y-62457142D01*
X114357142Y-62314285D01*
X114214285Y-62171428D01*
X116785714Y-59457142D02*
X117785714Y-62457142D01*
X118785714Y-59457142D01*
D10*
X189200000Y-29700000D02*
X189200000Y-50000000D01*
X96800000Y-29700000D02*
X96800000Y-50000000D01*
D11*
X179964285Y-50903571D02*
X180250000Y-50903571D01*
X180392857Y-50975000D01*
X180535714Y-51117857D01*
X180607142Y-51403571D01*
X180607142Y-51903571D01*
X180535714Y-52189285D01*
X180392857Y-52332142D01*
X180250000Y-52403571D01*
X179964285Y-52403571D01*
X179821428Y-52332142D01*
X179678571Y-52189285D01*
X179607142Y-51903571D01*
X179607142Y-51403571D01*
X179678571Y-51117857D01*
X179821428Y-50975000D01*
X179964285Y-50903571D01*
X181892857Y-51403571D02*
X181892857Y-52403571D01*
X181250000Y-51403571D02*
X181250000Y-52189285D01*
X181321428Y-52332142D01*
X181464285Y-52403571D01*
X181678571Y-52403571D01*
X181821428Y-52332142D01*
X181892857Y-52260714D01*
X182392857Y-51403571D02*
X182964285Y-51403571D01*
X182607142Y-50903571D02*
X182607142Y-52189285D01*
X182678571Y-52332142D01*
X182821428Y-52403571D01*
X182964285Y-52403571D01*
X183464285Y-51403571D02*
X183464285Y-52903571D01*
X183464285Y-51475000D02*
X183607142Y-51403571D01*
X183892857Y-51403571D01*
X184035714Y-51475000D01*
X184107142Y-51546428D01*
X184178571Y-51689285D01*
X184178571Y-52117857D01*
X184107142Y-52260714D01*
X184035714Y-52332142D01*
X183892857Y-52403571D01*
X183607142Y-52403571D01*
X183464285Y-52332142D01*
X185464285Y-51403571D02*
X185464285Y-52403571D01*
X184821428Y-51403571D02*
X184821428Y-52189285D01*
X184892857Y-52332142D01*
X185035714Y-52403571D01*
X185250000Y-52403571D01*
X185392857Y-52332142D01*
X185464285Y-52260714D01*
X185964285Y-51403571D02*
X186535714Y-51403571D01*
X186178571Y-50903571D02*
X186178571Y-52189285D01*
X186250000Y-52332142D01*
X186392857Y-52403571D01*
X186535714Y-52403571D01*
X178964285Y-54882142D02*
X179178571Y-54953571D01*
X179535714Y-54953571D01*
X179678571Y-54882142D01*
X179750000Y-54810714D01*
X179821428Y-54667857D01*
X179821428Y-54525000D01*
X179750000Y-54382142D01*
X179678571Y-54310714D01*
X179535714Y-54239285D01*
X179250000Y-54167857D01*
X179107142Y-54096428D01*
X179035714Y-54025000D01*
X178964285Y-53882142D01*
X178964285Y-53739285D01*
X179035714Y-53596428D01*
X179107142Y-53525000D01*
X179250000Y-53453571D01*
X179607142Y-53453571D01*
X179821428Y-53525000D01*
X180678571Y-54953571D02*
X180535714Y-54882142D01*
X180464285Y-54810714D01*
X180392857Y-54667857D01*
X180392857Y-54239285D01*
X180464285Y-54096428D01*
X180535714Y-54025000D01*
X180678571Y-53953571D01*
X180892857Y-53953571D01*
X181035714Y-54025000D01*
X181107142Y-54096428D01*
X181178571Y-54239285D01*
X181178571Y-54667857D01*
X181107142Y-54810714D01*
X181035714Y-54882142D01*
X180892857Y-54953571D01*
X180678571Y-54953571D01*
X182464285Y-54882142D02*
X182321428Y-54953571D01*
X182035714Y-54953571D01*
X181892857Y-54882142D01*
X181821428Y-54810714D01*
X181750000Y-54667857D01*
X181750000Y-54239285D01*
X181821428Y-54096428D01*
X181892857Y-54025000D01*
X182035714Y-53953571D01*
X182321428Y-53953571D01*
X182464285Y-54025000D01*
X183107142Y-54953571D02*
X183107142Y-53453571D01*
X183250000Y-54382142D02*
X183678571Y-54953571D01*
X183678571Y-53953571D02*
X183107142Y-54525000D01*
X184892857Y-54882142D02*
X184750000Y-54953571D01*
X184464285Y-54953571D01*
X184321428Y-54882142D01*
X184250000Y-54739285D01*
X184250000Y-54167857D01*
X184321428Y-54025000D01*
X184464285Y-53953571D01*
X184750000Y-53953571D01*
X184892857Y-54025000D01*
X184964285Y-54167857D01*
X184964285Y-54310714D01*
X184250000Y-54453571D01*
X185392857Y-53953571D02*
X185964285Y-53953571D01*
X185607142Y-53453571D02*
X185607142Y-54739285D01*
X185678571Y-54882142D01*
X185821428Y-54953571D01*
X185964285Y-54953571D01*
X186392857Y-54882142D02*
X186535714Y-54953571D01*
X186821428Y-54953571D01*
X186964285Y-54882142D01*
X187035714Y-54739285D01*
X187035714Y-54667857D01*
X186964285Y-54525000D01*
X186821428Y-54453571D01*
X186607142Y-54453571D01*
X186464285Y-54382142D01*
X186392857Y-54239285D01*
X186392857Y-54167857D01*
X186464285Y-54025000D01*
X186607142Y-53953571D01*
X186821428Y-53953571D01*
X186964285Y-54025000D01*
X101535714Y-52403571D02*
X101535714Y-50903571D01*
X102250000Y-51403571D02*
X102250000Y-52403571D01*
X102250000Y-51546428D02*
X102321428Y-51475000D01*
X102464285Y-51403571D01*
X102678571Y-51403571D01*
X102821428Y-51475000D01*
X102892857Y-51617857D01*
X102892857Y-52403571D01*
X103607142Y-51403571D02*
X103607142Y-52903571D01*
X103607142Y-51475000D02*
X103750000Y-51403571D01*
X104035714Y-51403571D01*
X104178571Y-51475000D01*
X104250000Y-51546428D01*
X104321428Y-51689285D01*
X104321428Y-52117857D01*
X104250000Y-52260714D01*
X104178571Y-52332142D01*
X104035714Y-52403571D01*
X103750000Y-52403571D01*
X103607142Y-52332142D01*
X105607142Y-51403571D02*
X105607142Y-52403571D01*
X104964285Y-51403571D02*
X104964285Y-52189285D01*
X105035714Y-52332142D01*
X105178571Y-52403571D01*
X105392857Y-52403571D01*
X105535714Y-52332142D01*
X105607142Y-52260714D01*
X106107142Y-51403571D02*
X106678571Y-51403571D01*
X106321428Y-50903571D02*
X106321428Y-52189285D01*
X106392857Y-52332142D01*
X106535714Y-52403571D01*
X106678571Y-52403571D01*
X101964285Y-54953571D02*
X101964285Y-53453571D01*
X102535714Y-53453571D01*
X102678571Y-53525000D01*
X102750000Y-53596428D01*
X102821428Y-53739285D01*
X102821428Y-53953571D01*
X102750000Y-54096428D01*
X102678571Y-54167857D01*
X102535714Y-54239285D01*
X101964285Y-54239285D01*
X103464285Y-54953571D02*
X103464285Y-53953571D01*
X103464285Y-53453571D02*
X103392857Y-53525000D01*
X103464285Y-53596428D01*
X103535714Y-53525000D01*
X103464285Y-53453571D01*
X103464285Y-53596428D01*
X104178571Y-53953571D02*
X104178571Y-54953571D01*
X104178571Y-54096428D02*
X104250000Y-54025000D01*
X104392857Y-53953571D01*
X104607142Y-53953571D01*
X104750000Y-54025000D01*
X104821428Y-54167857D01*
X104821428Y-54953571D01*
X105464285Y-54882142D02*
X105607142Y-54953571D01*
X105892857Y-54953571D01*
X106035714Y-54882142D01*
X106107142Y-54739285D01*
X106107142Y-54667857D01*
X106035714Y-54525000D01*
X105892857Y-54453571D01*
X105678571Y-54453571D01*
X105535714Y-54382142D01*
X105464285Y-54239285D01*
X105464285Y-54167857D01*
X105535714Y-54025000D01*
X105678571Y-53953571D01*
X105892857Y-53953571D01*
X106035714Y-54025000D01*
D10*
X96800000Y-50000000D02*
X189200000Y-50000000D01*
X189200000Y-39900000D02*
X96700000Y-39900000D01*
X96800000Y-29700000D02*
X189200000Y-29700000D01*
D12*
X168214285Y-35014285D02*
X170500000Y-35014285D01*
X169357142Y-36157142D02*
X169357142Y-33871428D01*
X171785714Y-33442857D02*
X171928571Y-33300000D01*
X172214285Y-33157142D01*
X172928571Y-33157142D01*
X173214285Y-33300000D01*
X173357142Y-33442857D01*
X173500000Y-33728571D01*
X173500000Y-34014285D01*
X173357142Y-34442857D01*
X171642857Y-36157142D01*
X173500000Y-36157142D01*
X176071428Y-34157142D02*
X176071428Y-36157142D01*
X175357142Y-33014285D02*
X174642857Y-35157142D01*
X176500000Y-35157142D01*
X177214285Y-33157142D02*
X178214285Y-36157142D01*
X179214285Y-33157142D01*
X168214285Y-45214285D02*
X170500000Y-45214285D01*
X169357142Y-46357142D02*
X169357142Y-44071428D01*
X173500000Y-46357142D02*
X171785714Y-46357142D01*
X172642857Y-46357142D02*
X172642857Y-43357142D01*
X172357142Y-43785714D01*
X172071428Y-44071428D01*
X171785714Y-44214285D01*
X174642857Y-43642857D02*
X174785714Y-43500000D01*
X175071428Y-43357142D01*
X175785714Y-43357142D01*
X176071428Y-43500000D01*
X176214285Y-43642857D01*
X176357142Y-43928571D01*
X176357142Y-44214285D01*
X176214285Y-44642857D01*
X174500000Y-46357142D01*
X176357142Y-46357142D01*
X177214285Y-43357142D02*
X178214285Y-46357142D01*
X179214285Y-43357142D01*
X109214285Y-45214285D02*
X111500000Y-45214285D01*
X110357142Y-46357142D02*
X110357142Y-44071428D01*
X114500000Y-46357142D02*
X112785714Y-46357142D01*
X113642857Y-46357142D02*
X113642857Y-43357142D01*
X113357142Y-43785714D01*
X113071428Y-44071428D01*
X112785714Y-44214285D01*
X115642857Y-43642857D02*
X115785714Y-43500000D01*
X116071428Y-43357142D01*
X116785714Y-43357142D01*
X117071428Y-43500000D01*
X117214285Y-43642857D01*
X117357142Y-43928571D01*
X117357142Y-44214285D01*
X117214285Y-44642857D01*
X115500000Y-46357142D01*
X117357142Y-46357142D01*
X118214285Y-43357142D02*
X119214285Y-46357142D01*
X120214285Y-43357142D01*
X109214285Y-35014285D02*
X111500000Y-35014285D01*
X110357142Y-36157142D02*
X110357142Y-33871428D01*
X112785714Y-33442857D02*
X112928571Y-33300000D01*
X113214285Y-33157142D01*
X113928571Y-33157142D01*
X114214285Y-33300000D01*
X114357142Y-33442857D01*
X114500000Y-33728571D01*
X114500000Y-34014285D01*
X114357142Y-34442857D01*
X112642857Y-36157142D01*
X114500000Y-36157142D01*
X117071428Y-34157142D02*
X117071428Y-36157142D01*
X116357142Y-33014285D02*
X115642857Y-35157142D01*
X117500000Y-35157142D01*
X118214285Y-33157142D02*
X119214285Y-36157142D01*
X120214285Y-33157142D01*
D13*
X110142857Y-53055714D02*
X111142857Y-53055714D01*
X111571428Y-54627142D02*
X110142857Y-54627142D01*
X110142857Y-51627142D01*
X111571428Y-51627142D01*
X113285714Y-54627142D02*
X113000000Y-54484285D01*
X112857142Y-54198571D01*
X112857142Y-51627142D01*
X115571428Y-54484285D02*
X115285714Y-54627142D01*
X114714285Y-54627142D01*
X114428571Y-54484285D01*
X114285714Y-54198571D01*
X114285714Y-53055714D01*
X114428571Y-52770000D01*
X114714285Y-52627142D01*
X115285714Y-52627142D01*
X115571428Y-52770000D01*
X115714285Y-53055714D01*
X115714285Y-53341428D01*
X114285714Y-53627142D01*
X118428571Y-54627142D02*
X117000000Y-54627142D01*
X117000000Y-51627142D01*
X120714285Y-54627142D02*
X120714285Y-53055714D01*
X120571428Y-52770000D01*
X120285714Y-52627142D01*
X119714285Y-52627142D01*
X119428571Y-52770000D01*
X120714285Y-54484285D02*
X120428571Y-54627142D01*
X119714285Y-54627142D01*
X119428571Y-54484285D01*
X119285714Y-54198571D01*
X119285714Y-53912857D01*
X119428571Y-53627142D01*
X119714285Y-53484285D01*
X120428571Y-53484285D01*
X120714285Y-53341428D01*
X122142857Y-54627142D02*
X122142857Y-51627142D01*
X122142857Y-52770000D02*
X122428571Y-52627142D01*
X123000000Y-52627142D01*
X123285714Y-52770000D01*
X123428571Y-52912857D01*
X123571428Y-53198571D01*
X123571428Y-54055714D01*
X123428571Y-54341428D01*
X123285714Y-54484285D01*
X123000000Y-54627142D01*
X122428571Y-54627142D01*
X122142857Y-54484285D01*
X124142857Y-54912857D02*
X126428571Y-54912857D01*
X126857142Y-52627142D02*
X127571428Y-54627142D01*
X128285714Y-52627142D01*
X129285714Y-51912857D02*
X129428571Y-51770000D01*
X129714285Y-51627142D01*
X130428571Y-51627142D01*
X130714285Y-51770000D01*
X130857142Y-51912857D01*
X131000000Y-52198571D01*
X131000000Y-52484285D01*
X130857142Y-52912857D01*
X129142857Y-54627142D01*
X131000000Y-54627142D01*
X134571428Y-53484285D02*
X136857142Y-53484285D01*
X141571428Y-53055714D02*
X142000000Y-53198571D01*
X142142857Y-53341428D01*
X142285714Y-53627142D01*
X142285714Y-54055714D01*
X142142857Y-54341428D01*
X142000000Y-54484285D01*
X141714285Y-54627142D01*
X140571428Y-54627142D01*
X140571428Y-51627142D01*
X141571428Y-51627142D01*
X141857142Y-51770000D01*
X142000000Y-51912857D01*
X142142857Y-52198571D01*
X142142857Y-52484285D01*
X142000000Y-52770000D01*
X141857142Y-52912857D01*
X141571428Y-53055714D01*
X140571428Y-53055714D01*
X144857142Y-52627142D02*
X144857142Y-54627142D01*
X143571428Y-52627142D02*
X143571428Y-54198571D01*
X143714285Y-54484285D01*
X144000000Y-54627142D01*
X144428571Y-54627142D01*
X144714285Y-54484285D01*
X144857142Y-54341428D01*
X146142857Y-54484285D02*
X146428571Y-54627142D01*
X147000000Y-54627142D01*
X147285714Y-54484285D01*
X147428571Y-54198571D01*
X147428571Y-54055714D01*
X147285714Y-53770000D01*
X147000000Y-53627142D01*
X146571428Y-53627142D01*
X146285714Y-53484285D01*
X146142857Y-53198571D01*
X146142857Y-53055714D01*
X146285714Y-52770000D01*
X146571428Y-52627142D01*
X147000000Y-52627142D01*
X147285714Y-52770000D01*
X150285714Y-54627142D02*
X148571428Y-54627142D01*
X149428571Y-54627142D02*
X149428571Y-51627142D01*
X149142857Y-52055714D01*
X148857142Y-52341428D01*
X148571428Y-52484285D01*
X152142857Y-51627142D02*
X152428571Y-51627142D01*
X152714285Y-51770000D01*
X152857142Y-51912857D01*
X153000000Y-52198571D01*
X153142857Y-52770000D01*
X153142857Y-53484285D01*
X153000000Y-54055714D01*
X152857142Y-54341428D01*
X152714285Y-54484285D01*
X152428571Y-54627142D01*
X152142857Y-54627142D01*
X151857142Y-54484285D01*
X151714285Y-54341428D01*
X151571428Y-54055714D01*
X151428571Y-53484285D01*
X151428571Y-52770000D01*
X151571428Y-52198571D01*
X151714285Y-51912857D01*
X151857142Y-51770000D01*
X152142857Y-51627142D01*
X155000000Y-51627142D02*
X155285714Y-51627142D01*
X155571428Y-51770000D01*
X155714285Y-51912857D01*
X155857142Y-52198571D01*
X156000000Y-52770000D01*
X156000000Y-53484285D01*
X155857142Y-54055714D01*
X155714285Y-54341428D01*
X155571428Y-54484285D01*
X155285714Y-54627142D01*
X155000000Y-54627142D01*
X154714285Y-54484285D01*
X154571428Y-54341428D01*
X154428571Y-54055714D01*
X154285714Y-53484285D01*
X154285714Y-52770000D01*
X154428571Y-52198571D01*
X154571428Y-51912857D01*
X154714285Y-51770000D01*
X155000000Y-51627142D01*
D14*
G04 #@! TO.C,J31*
X140330000Y-123790000D02*
X140330000Y-121130000D01*
X140270000Y-123790000D02*
X140330000Y-123790000D01*
X140270000Y-121130000D02*
X140330000Y-121130000D01*
X140270000Y-123790000D02*
X140270000Y-121130000D01*
X139000000Y-123790000D02*
X137670000Y-123790000D01*
X137670000Y-123790000D02*
X137670000Y-122460000D01*
G04 #@! TO.C,J34*
X157670000Y-121250000D02*
X157670000Y-119920000D01*
X159000000Y-121250000D02*
X157670000Y-121250000D01*
X160270000Y-121250000D02*
X160270000Y-118590000D01*
X160270000Y-118590000D02*
X160330000Y-118590000D01*
X160270000Y-121250000D02*
X160330000Y-121250000D01*
X160330000Y-121250000D02*
X160330000Y-118590000D01*
G04 #@! TO.C,J30*
X137670000Y-121250000D02*
X137670000Y-119920000D01*
X139000000Y-121250000D02*
X137670000Y-121250000D01*
X140270000Y-121250000D02*
X140270000Y-118590000D01*
X140270000Y-118590000D02*
X140330000Y-118590000D01*
X140270000Y-121250000D02*
X140330000Y-121250000D01*
X140330000Y-121250000D02*
X140330000Y-118590000D01*
G04 #@! TO.C,J32*
X137670000Y-126330000D02*
X137670000Y-125000000D01*
X139000000Y-126330000D02*
X137670000Y-126330000D01*
X140270000Y-126330000D02*
X140270000Y-123670000D01*
X140270000Y-123670000D02*
X140330000Y-123670000D01*
X140270000Y-126330000D02*
X140330000Y-126330000D01*
X140330000Y-126330000D02*
X140330000Y-123670000D01*
G04 #@! TO.C,J35*
X160330000Y-123790000D02*
X160330000Y-121130000D01*
X160270000Y-123790000D02*
X160330000Y-123790000D01*
X160270000Y-121130000D02*
X160330000Y-121130000D01*
X160270000Y-123790000D02*
X160270000Y-121130000D01*
X159000000Y-123790000D02*
X157670000Y-123790000D01*
X157670000Y-123790000D02*
X157670000Y-122460000D01*
G04 #@! TO.C,J33*
X160330000Y-118710000D02*
X160330000Y-116050000D01*
X160270000Y-118710000D02*
X160330000Y-118710000D01*
X160270000Y-116050000D02*
X160330000Y-116050000D01*
X160270000Y-118710000D02*
X160270000Y-116050000D01*
X159000000Y-118710000D02*
X157670000Y-118710000D01*
X157670000Y-118710000D02*
X157670000Y-117380000D01*
G04 #@! TO.C,J29*
X140330000Y-118710000D02*
X140330000Y-116050000D01*
X140270000Y-118710000D02*
X140330000Y-118710000D01*
X140270000Y-116050000D02*
X140330000Y-116050000D01*
X140270000Y-118710000D02*
X140270000Y-116050000D01*
X139000000Y-118710000D02*
X137670000Y-118710000D01*
X137670000Y-118710000D02*
X137670000Y-117380000D01*
G04 #@! TO.C,J36*
X160330000Y-126330000D02*
X160330000Y-123670000D01*
X160270000Y-126330000D02*
X160330000Y-126330000D01*
X160270000Y-123670000D02*
X160330000Y-123670000D01*
X160270000Y-126330000D02*
X160270000Y-123670000D01*
X159000000Y-126330000D02*
X157670000Y-126330000D01*
X157670000Y-126330000D02*
X157670000Y-125000000D01*
G04 #@! TO.C,J12*
X147670000Y-89950000D02*
X147670000Y-88620000D01*
X149000000Y-89950000D02*
X147670000Y-89950000D01*
X150270000Y-89950000D02*
X150270000Y-87290000D01*
X150270000Y-87290000D02*
X150330000Y-87290000D01*
X150270000Y-89950000D02*
X150330000Y-89950000D01*
X150330000Y-89950000D02*
X150330000Y-87290000D01*
G04 #@! TO.C,J19*
X160330000Y-97570000D02*
X160330000Y-94910000D01*
X160270000Y-97570000D02*
X160330000Y-97570000D01*
X160270000Y-94910000D02*
X160330000Y-94910000D01*
X160270000Y-97570000D02*
X160270000Y-94910000D01*
X159000000Y-97570000D02*
X157670000Y-97570000D01*
X157670000Y-97570000D02*
X157670000Y-96240000D01*
G04 #@! TO.C,J28*
X147670000Y-116170000D02*
X147670000Y-114840000D01*
X149000000Y-116170000D02*
X147670000Y-116170000D01*
X150270000Y-116170000D02*
X150270000Y-113510000D01*
X150270000Y-113510000D02*
X150330000Y-113510000D01*
X150270000Y-116170000D02*
X150330000Y-116170000D01*
X150330000Y-116170000D02*
X150330000Y-113510000D01*
G04 #@! TO.C,J27*
X150330000Y-113630000D02*
X150330000Y-110970000D01*
X150270000Y-113630000D02*
X150330000Y-113630000D01*
X150270000Y-110970000D02*
X150330000Y-110970000D01*
X150270000Y-113630000D02*
X150270000Y-110970000D01*
X149000000Y-113630000D02*
X147670000Y-113630000D01*
X147670000Y-113630000D02*
X147670000Y-112300000D01*
G04 #@! TO.C,J24*
X130330000Y-116170000D02*
X130330000Y-113510000D01*
X130270000Y-116170000D02*
X130330000Y-116170000D01*
X130270000Y-113510000D02*
X130330000Y-113510000D01*
X130270000Y-116170000D02*
X130270000Y-113510000D01*
X129000000Y-116170000D02*
X127670000Y-116170000D01*
X127670000Y-116170000D02*
X127670000Y-114840000D01*
G04 #@! TO.C,J21*
X130330000Y-108550000D02*
X130330000Y-105890000D01*
X130270000Y-108550000D02*
X130330000Y-108550000D01*
X130270000Y-105890000D02*
X130330000Y-105890000D01*
X130270000Y-108550000D02*
X130270000Y-105890000D01*
X129000000Y-108550000D02*
X127670000Y-108550000D01*
X127670000Y-108550000D02*
X127670000Y-107220000D01*
G04 #@! TO.C,J20*
X157670000Y-100110000D02*
X157670000Y-98780000D01*
X159000000Y-100110000D02*
X157670000Y-100110000D01*
X160270000Y-100110000D02*
X160270000Y-97450000D01*
X160270000Y-97450000D02*
X160330000Y-97450000D01*
X160270000Y-100110000D02*
X160330000Y-100110000D01*
X160330000Y-100110000D02*
X160330000Y-97450000D01*
G04 #@! TO.C,J17*
X160330000Y-92490000D02*
X160330000Y-89830000D01*
X160270000Y-92490000D02*
X160330000Y-92490000D01*
X160270000Y-89830000D02*
X160330000Y-89830000D01*
X160270000Y-92490000D02*
X160270000Y-89830000D01*
X159000000Y-92490000D02*
X157670000Y-92490000D01*
X157670000Y-92490000D02*
X157670000Y-91160000D01*
G04 #@! TO.C,J14*
X137670000Y-95030000D02*
X137670000Y-93700000D01*
X139000000Y-95030000D02*
X137670000Y-95030000D01*
X140270000Y-95030000D02*
X140270000Y-92370000D01*
X140270000Y-92370000D02*
X140330000Y-92370000D01*
X140270000Y-95030000D02*
X140330000Y-95030000D01*
X140330000Y-95030000D02*
X140330000Y-92370000D01*
G04 #@! TO.C,J22*
X130330000Y-111090000D02*
X130330000Y-108430000D01*
X130270000Y-111090000D02*
X130330000Y-111090000D01*
X130270000Y-108430000D02*
X130330000Y-108430000D01*
X130270000Y-111090000D02*
X130270000Y-108430000D01*
X129000000Y-111090000D02*
X127670000Y-111090000D01*
X127670000Y-111090000D02*
X127670000Y-109760000D01*
G04 #@! TO.C,J15*
X140330000Y-97570000D02*
X140330000Y-94910000D01*
X140270000Y-97570000D02*
X140330000Y-97570000D01*
X140270000Y-94910000D02*
X140330000Y-94910000D01*
X140270000Y-97570000D02*
X140270000Y-94910000D01*
X139000000Y-97570000D02*
X137670000Y-97570000D01*
X137670000Y-97570000D02*
X137670000Y-96240000D01*
G04 #@! TO.C,J26*
X147670000Y-111090000D02*
X147670000Y-109760000D01*
X149000000Y-111090000D02*
X147670000Y-111090000D01*
X150270000Y-111090000D02*
X150270000Y-108430000D01*
X150270000Y-108430000D02*
X150330000Y-108430000D01*
X150270000Y-111090000D02*
X150330000Y-111090000D01*
X150330000Y-111090000D02*
X150330000Y-108430000D01*
G04 #@! TO.C,J11*
X150330000Y-87410000D02*
X150330000Y-84750000D01*
X150270000Y-87410000D02*
X150330000Y-87410000D01*
X150270000Y-84750000D02*
X150330000Y-84750000D01*
X150270000Y-87410000D02*
X150270000Y-84750000D01*
X149000000Y-87410000D02*
X147670000Y-87410000D01*
X147670000Y-87410000D02*
X147670000Y-86080000D01*
G04 #@! TO.C,J25*
X150330000Y-108550000D02*
X150330000Y-105890000D01*
X150270000Y-108550000D02*
X150330000Y-108550000D01*
X150270000Y-105890000D02*
X150330000Y-105890000D01*
X150270000Y-108550000D02*
X150270000Y-105890000D01*
X149000000Y-108550000D02*
X147670000Y-108550000D01*
X147670000Y-108550000D02*
X147670000Y-107220000D01*
G04 #@! TO.C,J23*
X127670000Y-113630000D02*
X127670000Y-112300000D01*
X129000000Y-113630000D02*
X127670000Y-113630000D01*
X130270000Y-113630000D02*
X130270000Y-110970000D01*
X130270000Y-110970000D02*
X130330000Y-110970000D01*
X130270000Y-113630000D02*
X130330000Y-113630000D01*
X130330000Y-113630000D02*
X130330000Y-110970000D01*
G04 #@! TO.C,J13*
X137670000Y-92490000D02*
X137670000Y-91160000D01*
X139000000Y-92490000D02*
X137670000Y-92490000D01*
X140270000Y-92490000D02*
X140270000Y-89830000D01*
X140270000Y-89830000D02*
X140330000Y-89830000D01*
X140270000Y-92490000D02*
X140330000Y-92490000D01*
X140330000Y-92490000D02*
X140330000Y-89830000D01*
G04 #@! TO.C,J18*
X157670000Y-95030000D02*
X157670000Y-93700000D01*
X159000000Y-95030000D02*
X157670000Y-95030000D01*
X160270000Y-95030000D02*
X160270000Y-92370000D01*
X160270000Y-92370000D02*
X160330000Y-92370000D01*
X160270000Y-95030000D02*
X160330000Y-95030000D01*
X160330000Y-95030000D02*
X160330000Y-92370000D01*
G04 #@! TO.C,J16*
X137670000Y-100110000D02*
X137670000Y-98780000D01*
X139000000Y-100110000D02*
X137670000Y-100110000D01*
X140270000Y-100110000D02*
X140270000Y-97450000D01*
X140270000Y-97450000D02*
X140330000Y-97450000D01*
X140270000Y-100110000D02*
X140330000Y-100110000D01*
X140330000Y-100110000D02*
X140330000Y-97450000D01*
G04 #@! TO.C,J2*
X96957071Y-125380000D02*
X96560000Y-125380000D01*
X96957071Y-124620000D02*
X96560000Y-124620000D01*
X99430000Y-125380000D02*
X99042929Y-125380000D01*
X99430000Y-124620000D02*
X99042929Y-124620000D01*
X96957071Y-122840000D02*
X96560000Y-122840000D01*
X96957071Y-122080000D02*
X96560000Y-122080000D01*
X99497071Y-122840000D02*
X99042929Y-122840000D01*
X99497071Y-122080000D02*
X99042929Y-122080000D01*
X96957071Y-120300000D02*
X96560000Y-120300000D01*
X96957071Y-119540000D02*
X96560000Y-119540000D01*
X99497071Y-120300000D02*
X99042929Y-120300000D01*
X99497071Y-119540000D02*
X99042929Y-119540000D01*
X96957071Y-117760000D02*
X96560000Y-117760000D01*
X96957071Y-117000000D02*
X96560000Y-117000000D01*
X99497071Y-117760000D02*
X99042929Y-117760000D01*
X99497071Y-117000000D02*
X99042929Y-117000000D01*
X96957071Y-115220000D02*
X96560000Y-115220000D01*
X96957071Y-114460000D02*
X96560000Y-114460000D01*
X99497071Y-115220000D02*
X99042929Y-115220000D01*
X99497071Y-114460000D02*
X99042929Y-114460000D01*
X96957071Y-112680000D02*
X96560000Y-112680000D01*
X96957071Y-111920000D02*
X96560000Y-111920000D01*
X99497071Y-112680000D02*
X99042929Y-112680000D01*
X99497071Y-111920000D02*
X99042929Y-111920000D01*
X96957071Y-110140000D02*
X96560000Y-110140000D01*
X96957071Y-109380000D02*
X96560000Y-109380000D01*
X99497071Y-110140000D02*
X99042929Y-110140000D01*
X99497071Y-109380000D02*
X99042929Y-109380000D01*
X96957071Y-107600000D02*
X96560000Y-107600000D01*
X96957071Y-106840000D02*
X96560000Y-106840000D01*
X99497071Y-107600000D02*
X99042929Y-107600000D01*
X99497071Y-106840000D02*
X99042929Y-106840000D01*
G04 #@! TO.C,J3*
X185460000Y-100110000D02*
X184350000Y-100110000D01*
X184350000Y-100110000D02*
X184350000Y-98780000D01*
X186950000Y-80640000D02*
X186510000Y-80640000D01*
X189460000Y-80640000D02*
X189050000Y-80640000D01*
X186950000Y-81360000D02*
X186510000Y-81360000D01*
X189460000Y-81360000D02*
X189050000Y-81360000D01*
X186950000Y-83180000D02*
X186510000Y-83180000D01*
X189460000Y-83180000D02*
X189050000Y-83180000D01*
X186950000Y-83900000D02*
X186510000Y-83900000D01*
X189460000Y-83900000D02*
X189050000Y-83900000D01*
X186950000Y-85720000D02*
X186510000Y-85720000D01*
X189460000Y-85720000D02*
X189050000Y-85720000D01*
X186950000Y-86440000D02*
X186510000Y-86440000D01*
X189460000Y-86440000D02*
X189050000Y-86440000D01*
X186950000Y-88260000D02*
X186510000Y-88260000D01*
X189460000Y-88260000D02*
X189050000Y-88260000D01*
X186950000Y-88980000D02*
X186510000Y-88980000D01*
X189460000Y-88980000D02*
X189050000Y-88980000D01*
X186950000Y-90800000D02*
X186510000Y-90800000D01*
X189460000Y-90800000D02*
X189050000Y-90800000D01*
X186950000Y-91520000D02*
X186510000Y-91520000D01*
X189460000Y-91520000D02*
X189050000Y-91520000D01*
X186950000Y-93340000D02*
X186510000Y-93340000D01*
X189460000Y-93340000D02*
X189050000Y-93340000D01*
X186950000Y-94060000D02*
X186510000Y-94060000D01*
X189460000Y-94060000D02*
X189050000Y-94060000D01*
X186950000Y-95880000D02*
X186510000Y-95880000D01*
X189460000Y-95880000D02*
X189050000Y-95880000D01*
X186950000Y-96600000D02*
X186510000Y-96600000D01*
X189460000Y-96600000D02*
X189050000Y-96600000D01*
X186950000Y-98420000D02*
X186570000Y-98420000D01*
X189460000Y-98420000D02*
X189050000Y-98420000D01*
X186950000Y-99140000D02*
X186570000Y-99140000D01*
X189460000Y-99140000D02*
X189050000Y-99140000D01*
G04 #@! TO.C,J5*
X127670000Y-82330000D02*
X127670000Y-81000000D01*
X129000000Y-82330000D02*
X127670000Y-82330000D01*
X130270000Y-82330000D02*
X130270000Y-79670000D01*
X130270000Y-79670000D02*
X130330000Y-79670000D01*
X130270000Y-82330000D02*
X130330000Y-82330000D01*
X130330000Y-82330000D02*
X130330000Y-79670000D01*
D15*
G04 #@! TO.C,LO_1*
X159430600Y-105640800D02*
X159430600Y-100306800D01*
X159430600Y-100306800D02*
X176956600Y-100306800D01*
X176956600Y-100306800D02*
X176956600Y-105640800D01*
X176956600Y-105640800D02*
X159430600Y-105640800D01*
D14*
G04 #@! TO.C,J1*
X96957071Y-99160000D02*
X96560000Y-99160000D01*
X96957071Y-98400000D02*
X96560000Y-98400000D01*
X99430000Y-99160000D02*
X99042929Y-99160000D01*
X99430000Y-98400000D02*
X99042929Y-98400000D01*
X96957071Y-96620000D02*
X96560000Y-96620000D01*
X96957071Y-95860000D02*
X96560000Y-95860000D01*
X99497071Y-96620000D02*
X99042929Y-96620000D01*
X99497071Y-95860000D02*
X99042929Y-95860000D01*
X96957071Y-94080000D02*
X96560000Y-94080000D01*
X96957071Y-93320000D02*
X96560000Y-93320000D01*
X99497071Y-94080000D02*
X99042929Y-94080000D01*
X99497071Y-93320000D02*
X99042929Y-93320000D01*
X96957071Y-91540000D02*
X96560000Y-91540000D01*
X96957071Y-90780000D02*
X96560000Y-90780000D01*
X99497071Y-91540000D02*
X99042929Y-91540000D01*
X99497071Y-90780000D02*
X99042929Y-90780000D01*
X96957071Y-89000000D02*
X96560000Y-89000000D01*
X96957071Y-88240000D02*
X96560000Y-88240000D01*
X99497071Y-89000000D02*
X99042929Y-89000000D01*
X99497071Y-88240000D02*
X99042929Y-88240000D01*
X96957071Y-86460000D02*
X96560000Y-86460000D01*
X96957071Y-85700000D02*
X96560000Y-85700000D01*
X99497071Y-86460000D02*
X99042929Y-86460000D01*
X99497071Y-85700000D02*
X99042929Y-85700000D01*
X96957071Y-83920000D02*
X96560000Y-83920000D01*
X96957071Y-83160000D02*
X96560000Y-83160000D01*
X99497071Y-83920000D02*
X99042929Y-83920000D01*
X99497071Y-83160000D02*
X99042929Y-83160000D01*
X96957071Y-81380000D02*
X96560000Y-81380000D01*
X96957071Y-80620000D02*
X96560000Y-80620000D01*
X99497071Y-81380000D02*
X99042929Y-81380000D01*
X99497071Y-80620000D02*
X99042929Y-80620000D01*
G04 #@! TO.C,J4*
X185460000Y-126330000D02*
X184350000Y-126330000D01*
X184350000Y-126330000D02*
X184350000Y-125000000D01*
X186950000Y-106860000D02*
X186510000Y-106860000D01*
X189460000Y-106860000D02*
X189050000Y-106860000D01*
X186950000Y-107580000D02*
X186510000Y-107580000D01*
X189460000Y-107580000D02*
X189050000Y-107580000D01*
X186950000Y-109400000D02*
X186510000Y-109400000D01*
X189460000Y-109400000D02*
X189050000Y-109400000D01*
X186950000Y-110120000D02*
X186510000Y-110120000D01*
X189460000Y-110120000D02*
X189050000Y-110120000D01*
X186950000Y-111940000D02*
X186510000Y-111940000D01*
X189460000Y-111940000D02*
X189050000Y-111940000D01*
X186950000Y-112660000D02*
X186510000Y-112660000D01*
X189460000Y-112660000D02*
X189050000Y-112660000D01*
X186950000Y-114480000D02*
X186510000Y-114480000D01*
X189460000Y-114480000D02*
X189050000Y-114480000D01*
X186950000Y-115200000D02*
X186510000Y-115200000D01*
X189460000Y-115200000D02*
X189050000Y-115200000D01*
X186950000Y-117020000D02*
X186510000Y-117020000D01*
X189460000Y-117020000D02*
X189050000Y-117020000D01*
X186950000Y-117740000D02*
X186510000Y-117740000D01*
X189460000Y-117740000D02*
X189050000Y-117740000D01*
X186950000Y-119560000D02*
X186510000Y-119560000D01*
X189460000Y-119560000D02*
X189050000Y-119560000D01*
X186950000Y-120280000D02*
X186510000Y-120280000D01*
X189460000Y-120280000D02*
X189050000Y-120280000D01*
X186950000Y-122100000D02*
X186510000Y-122100000D01*
X189460000Y-122100000D02*
X189050000Y-122100000D01*
X186950000Y-122820000D02*
X186510000Y-122820000D01*
X189460000Y-122820000D02*
X189050000Y-122820000D01*
X186950000Y-124640000D02*
X186570000Y-124640000D01*
X189460000Y-124640000D02*
X189050000Y-124640000D01*
X186950000Y-125360000D02*
X186570000Y-125360000D01*
X189460000Y-125360000D02*
X189050000Y-125360000D01*
G04 #@! TO.C,J10*
X147670000Y-84870000D02*
X147670000Y-83540000D01*
X149000000Y-84870000D02*
X147670000Y-84870000D01*
X150270000Y-84870000D02*
X150270000Y-82210000D01*
X150270000Y-82210000D02*
X150330000Y-82210000D01*
X150270000Y-84870000D02*
X150330000Y-84870000D01*
X150330000Y-84870000D02*
X150330000Y-82210000D01*
G04 #@! TO.C,J9*
X147670000Y-82330000D02*
X147670000Y-81000000D01*
X149000000Y-82330000D02*
X147670000Y-82330000D01*
X150270000Y-82330000D02*
X150270000Y-79670000D01*
X150270000Y-79670000D02*
X150330000Y-79670000D01*
X150270000Y-82330000D02*
X150330000Y-82330000D01*
X150330000Y-82330000D02*
X150330000Y-79670000D01*
G04 #@! TO.C,J8*
X127670000Y-89950000D02*
X127670000Y-88620000D01*
X129000000Y-89950000D02*
X127670000Y-89950000D01*
X130270000Y-89950000D02*
X130270000Y-87290000D01*
X130270000Y-87290000D02*
X130330000Y-87290000D01*
X130270000Y-89950000D02*
X130330000Y-89950000D01*
X130330000Y-89950000D02*
X130330000Y-87290000D01*
G04 #@! TO.C,J7*
X127670000Y-87468000D02*
X127670000Y-86138000D01*
X129000000Y-87468000D02*
X127670000Y-87468000D01*
X130270000Y-87468000D02*
X130270000Y-84808000D01*
X130270000Y-84808000D02*
X130330000Y-84808000D01*
X130270000Y-87468000D02*
X130330000Y-87468000D01*
X130330000Y-87468000D02*
X130330000Y-84808000D01*
G04 #@! TO.C,J6*
X130330000Y-84870000D02*
X130330000Y-82210000D01*
X130270000Y-84870000D02*
X130330000Y-84870000D01*
X130270000Y-82210000D02*
X130330000Y-82210000D01*
X130270000Y-84870000D02*
X130270000Y-82210000D01*
X129000000Y-84870000D02*
X127670000Y-84870000D01*
X127670000Y-84870000D02*
X127670000Y-83540000D01*
G04 #@! TO.C,J3*
X189460000Y-49140000D02*
X189050000Y-49140000D01*
X186950000Y-49140000D02*
X186570000Y-49140000D01*
X189460000Y-48420000D02*
X189050000Y-48420000D01*
X186950000Y-48420000D02*
X186570000Y-48420000D01*
X189460000Y-46600000D02*
X189050000Y-46600000D01*
X186950000Y-46600000D02*
X186510000Y-46600000D01*
X189460000Y-45880000D02*
X189050000Y-45880000D01*
X186950000Y-45880000D02*
X186510000Y-45880000D01*
X189460000Y-44060000D02*
X189050000Y-44060000D01*
X186950000Y-44060000D02*
X186510000Y-44060000D01*
X189460000Y-43340000D02*
X189050000Y-43340000D01*
X186950000Y-43340000D02*
X186510000Y-43340000D01*
X189460000Y-41520000D02*
X189050000Y-41520000D01*
X186950000Y-41520000D02*
X186510000Y-41520000D01*
X189460000Y-40800000D02*
X189050000Y-40800000D01*
X186950000Y-40800000D02*
X186510000Y-40800000D01*
X189460000Y-38980000D02*
X189050000Y-38980000D01*
X186950000Y-38980000D02*
X186510000Y-38980000D01*
X189460000Y-38260000D02*
X189050000Y-38260000D01*
X186950000Y-38260000D02*
X186510000Y-38260000D01*
X189460000Y-36440000D02*
X189050000Y-36440000D01*
X186950000Y-36440000D02*
X186510000Y-36440000D01*
X189460000Y-35720000D02*
X189050000Y-35720000D01*
X186950000Y-35720000D02*
X186510000Y-35720000D01*
X189460000Y-33900000D02*
X189050000Y-33900000D01*
X186950000Y-33900000D02*
X186510000Y-33900000D01*
X189460000Y-33180000D02*
X189050000Y-33180000D01*
X186950000Y-33180000D02*
X186510000Y-33180000D01*
X189460000Y-31360000D02*
X189050000Y-31360000D01*
X186950000Y-31360000D02*
X186510000Y-31360000D01*
X189460000Y-30640000D02*
X189050000Y-30640000D01*
X186950000Y-30640000D02*
X186510000Y-30640000D01*
X184350000Y-50110000D02*
X184350000Y-48780000D01*
X185460000Y-50110000D02*
X184350000Y-50110000D01*
G04 #@! TO.C,J4*
X189460000Y-75360000D02*
X189050000Y-75360000D01*
X186950000Y-75360000D02*
X186570000Y-75360000D01*
X189460000Y-74640000D02*
X189050000Y-74640000D01*
X186950000Y-74640000D02*
X186570000Y-74640000D01*
X189460000Y-72820000D02*
X189050000Y-72820000D01*
X186950000Y-72820000D02*
X186510000Y-72820000D01*
X189460000Y-72100000D02*
X189050000Y-72100000D01*
X186950000Y-72100000D02*
X186510000Y-72100000D01*
X189460000Y-70280000D02*
X189050000Y-70280000D01*
X186950000Y-70280000D02*
X186510000Y-70280000D01*
X189460000Y-69560000D02*
X189050000Y-69560000D01*
X186950000Y-69560000D02*
X186510000Y-69560000D01*
X189460000Y-67740000D02*
X189050000Y-67740000D01*
X186950000Y-67740000D02*
X186510000Y-67740000D01*
X189460000Y-67020000D02*
X189050000Y-67020000D01*
X186950000Y-67020000D02*
X186510000Y-67020000D01*
X189460000Y-65200000D02*
X189050000Y-65200000D01*
X186950000Y-65200000D02*
X186510000Y-65200000D01*
X189460000Y-64480000D02*
X189050000Y-64480000D01*
X186950000Y-64480000D02*
X186510000Y-64480000D01*
X189460000Y-62660000D02*
X189050000Y-62660000D01*
X186950000Y-62660000D02*
X186510000Y-62660000D01*
X189460000Y-61940000D02*
X189050000Y-61940000D01*
X186950000Y-61940000D02*
X186510000Y-61940000D01*
X189460000Y-60120000D02*
X189050000Y-60120000D01*
X186950000Y-60120000D02*
X186510000Y-60120000D01*
X189460000Y-59400000D02*
X189050000Y-59400000D01*
X186950000Y-59400000D02*
X186510000Y-59400000D01*
X189460000Y-57580000D02*
X189050000Y-57580000D01*
X186950000Y-57580000D02*
X186510000Y-57580000D01*
X189460000Y-56860000D02*
X189050000Y-56860000D01*
X186950000Y-56860000D02*
X186510000Y-56860000D01*
X184350000Y-76330000D02*
X184350000Y-75000000D01*
X185460000Y-76330000D02*
X184350000Y-76330000D01*
G04 #@! TO.C,J1*
X99497071Y-30620000D02*
X99042929Y-30620000D01*
X99497071Y-31380000D02*
X99042929Y-31380000D01*
X96957071Y-30620000D02*
X96560000Y-30620000D01*
X96957071Y-31380000D02*
X96560000Y-31380000D01*
X99497071Y-33160000D02*
X99042929Y-33160000D01*
X99497071Y-33920000D02*
X99042929Y-33920000D01*
X96957071Y-33160000D02*
X96560000Y-33160000D01*
X96957071Y-33920000D02*
X96560000Y-33920000D01*
X99497071Y-35700000D02*
X99042929Y-35700000D01*
X99497071Y-36460000D02*
X99042929Y-36460000D01*
X96957071Y-35700000D02*
X96560000Y-35700000D01*
X96957071Y-36460000D02*
X96560000Y-36460000D01*
X99497071Y-38240000D02*
X99042929Y-38240000D01*
X99497071Y-39000000D02*
X99042929Y-39000000D01*
X96957071Y-38240000D02*
X96560000Y-38240000D01*
X96957071Y-39000000D02*
X96560000Y-39000000D01*
X99497071Y-40780000D02*
X99042929Y-40780000D01*
X99497071Y-41540000D02*
X99042929Y-41540000D01*
X96957071Y-40780000D02*
X96560000Y-40780000D01*
X96957071Y-41540000D02*
X96560000Y-41540000D01*
X99497071Y-43320000D02*
X99042929Y-43320000D01*
X99497071Y-44080000D02*
X99042929Y-44080000D01*
X96957071Y-43320000D02*
X96560000Y-43320000D01*
X96957071Y-44080000D02*
X96560000Y-44080000D01*
X99497071Y-45860000D02*
X99042929Y-45860000D01*
X99497071Y-46620000D02*
X99042929Y-46620000D01*
X96957071Y-45860000D02*
X96560000Y-45860000D01*
X96957071Y-46620000D02*
X96560000Y-46620000D01*
X99430000Y-48400000D02*
X99042929Y-48400000D01*
X99430000Y-49160000D02*
X99042929Y-49160000D01*
X96957071Y-48400000D02*
X96560000Y-48400000D01*
X96957071Y-49160000D02*
X96560000Y-49160000D01*
G04 #@! TO.C,J2*
X99497071Y-56840000D02*
X99042929Y-56840000D01*
X99497071Y-57600000D02*
X99042929Y-57600000D01*
X96957071Y-56840000D02*
X96560000Y-56840000D01*
X96957071Y-57600000D02*
X96560000Y-57600000D01*
X99497071Y-59380000D02*
X99042929Y-59380000D01*
X99497071Y-60140000D02*
X99042929Y-60140000D01*
X96957071Y-59380000D02*
X96560000Y-59380000D01*
X96957071Y-60140000D02*
X96560000Y-60140000D01*
X99497071Y-61920000D02*
X99042929Y-61920000D01*
X99497071Y-62680000D02*
X99042929Y-62680000D01*
X96957071Y-61920000D02*
X96560000Y-61920000D01*
X96957071Y-62680000D02*
X96560000Y-62680000D01*
X99497071Y-64460000D02*
X99042929Y-64460000D01*
X99497071Y-65220000D02*
X99042929Y-65220000D01*
X96957071Y-64460000D02*
X96560000Y-64460000D01*
X96957071Y-65220000D02*
X96560000Y-65220000D01*
X99497071Y-67000000D02*
X99042929Y-67000000D01*
X99497071Y-67760000D02*
X99042929Y-67760000D01*
X96957071Y-67000000D02*
X96560000Y-67000000D01*
X96957071Y-67760000D02*
X96560000Y-67760000D01*
X99497071Y-69540000D02*
X99042929Y-69540000D01*
X99497071Y-70300000D02*
X99042929Y-70300000D01*
X96957071Y-69540000D02*
X96560000Y-69540000D01*
X96957071Y-70300000D02*
X96560000Y-70300000D01*
X99497071Y-72080000D02*
X99042929Y-72080000D01*
X99497071Y-72840000D02*
X99042929Y-72840000D01*
X96957071Y-72080000D02*
X96560000Y-72080000D01*
X96957071Y-72840000D02*
X96560000Y-72840000D01*
X99430000Y-74620000D02*
X99042929Y-74620000D01*
X99430000Y-75380000D02*
X99042929Y-75380000D01*
X96957071Y-74620000D02*
X96560000Y-74620000D01*
X96957071Y-75380000D02*
X96560000Y-75380000D01*
D15*
G04 #@! TO.C,LO_1*
X176956600Y-55640800D02*
X159430600Y-55640800D01*
X176956600Y-50306800D02*
X176956600Y-55640800D01*
X159430600Y-50306800D02*
X176956600Y-50306800D01*
X159430600Y-55640800D02*
X159430600Y-50306800D01*
D14*
G04 #@! TO.C,J5*
X130330000Y-32330000D02*
X130330000Y-29670000D01*
X130270000Y-32330000D02*
X130330000Y-32330000D01*
X130270000Y-29670000D02*
X130330000Y-29670000D01*
X130270000Y-32330000D02*
X130270000Y-29670000D01*
X129000000Y-32330000D02*
X127670000Y-32330000D01*
X127670000Y-32330000D02*
X127670000Y-31000000D01*
G04 #@! TO.C,J6*
X127670000Y-34870000D02*
X127670000Y-33540000D01*
X129000000Y-34870000D02*
X127670000Y-34870000D01*
X130270000Y-34870000D02*
X130270000Y-32210000D01*
X130270000Y-32210000D02*
X130330000Y-32210000D01*
X130270000Y-34870000D02*
X130330000Y-34870000D01*
X130330000Y-34870000D02*
X130330000Y-32210000D01*
G04 #@! TO.C,J7*
X130330000Y-37468000D02*
X130330000Y-34808000D01*
X130270000Y-37468000D02*
X130330000Y-37468000D01*
X130270000Y-34808000D02*
X130330000Y-34808000D01*
X130270000Y-37468000D02*
X130270000Y-34808000D01*
X129000000Y-37468000D02*
X127670000Y-37468000D01*
X127670000Y-37468000D02*
X127670000Y-36138000D01*
G04 #@! TO.C,J8*
X130330000Y-39950000D02*
X130330000Y-37290000D01*
X130270000Y-39950000D02*
X130330000Y-39950000D01*
X130270000Y-37290000D02*
X130330000Y-37290000D01*
X130270000Y-39950000D02*
X130270000Y-37290000D01*
X129000000Y-39950000D02*
X127670000Y-39950000D01*
X127670000Y-39950000D02*
X127670000Y-38620000D01*
G04 #@! TO.C,J9*
X150330000Y-32330000D02*
X150330000Y-29670000D01*
X150270000Y-32330000D02*
X150330000Y-32330000D01*
X150270000Y-29670000D02*
X150330000Y-29670000D01*
X150270000Y-32330000D02*
X150270000Y-29670000D01*
X149000000Y-32330000D02*
X147670000Y-32330000D01*
X147670000Y-32330000D02*
X147670000Y-31000000D01*
G04 #@! TO.C,J10*
X150330000Y-34870000D02*
X150330000Y-32210000D01*
X150270000Y-34870000D02*
X150330000Y-34870000D01*
X150270000Y-32210000D02*
X150330000Y-32210000D01*
X150270000Y-34870000D02*
X150270000Y-32210000D01*
X149000000Y-34870000D02*
X147670000Y-34870000D01*
X147670000Y-34870000D02*
X147670000Y-33540000D01*
G04 #@! TO.C,J11*
X147670000Y-37410000D02*
X147670000Y-36080000D01*
X149000000Y-37410000D02*
X147670000Y-37410000D01*
X150270000Y-37410000D02*
X150270000Y-34750000D01*
X150270000Y-34750000D02*
X150330000Y-34750000D01*
X150270000Y-37410000D02*
X150330000Y-37410000D01*
X150330000Y-37410000D02*
X150330000Y-34750000D01*
G04 #@! TO.C,J12*
X150330000Y-39950000D02*
X150330000Y-37290000D01*
X150270000Y-39950000D02*
X150330000Y-39950000D01*
X150270000Y-37290000D02*
X150330000Y-37290000D01*
X150270000Y-39950000D02*
X150270000Y-37290000D01*
X149000000Y-39950000D02*
X147670000Y-39950000D01*
X147670000Y-39950000D02*
X147670000Y-38620000D01*
G04 #@! TO.C,J13*
X140330000Y-42490000D02*
X140330000Y-39830000D01*
X140270000Y-42490000D02*
X140330000Y-42490000D01*
X140270000Y-39830000D02*
X140330000Y-39830000D01*
X140270000Y-42490000D02*
X140270000Y-39830000D01*
X139000000Y-42490000D02*
X137670000Y-42490000D01*
X137670000Y-42490000D02*
X137670000Y-41160000D01*
G04 #@! TO.C,J14*
X140330000Y-45030000D02*
X140330000Y-42370000D01*
X140270000Y-45030000D02*
X140330000Y-45030000D01*
X140270000Y-42370000D02*
X140330000Y-42370000D01*
X140270000Y-45030000D02*
X140270000Y-42370000D01*
X139000000Y-45030000D02*
X137670000Y-45030000D01*
X137670000Y-45030000D02*
X137670000Y-43700000D01*
G04 #@! TO.C,J15*
X137670000Y-47570000D02*
X137670000Y-46240000D01*
X139000000Y-47570000D02*
X137670000Y-47570000D01*
X140270000Y-47570000D02*
X140270000Y-44910000D01*
X140270000Y-44910000D02*
X140330000Y-44910000D01*
X140270000Y-47570000D02*
X140330000Y-47570000D01*
X140330000Y-47570000D02*
X140330000Y-44910000D01*
G04 #@! TO.C,J16*
X140330000Y-50110000D02*
X140330000Y-47450000D01*
X140270000Y-50110000D02*
X140330000Y-50110000D01*
X140270000Y-47450000D02*
X140330000Y-47450000D01*
X140270000Y-50110000D02*
X140270000Y-47450000D01*
X139000000Y-50110000D02*
X137670000Y-50110000D01*
X137670000Y-50110000D02*
X137670000Y-48780000D01*
G04 #@! TO.C,J17*
X157670000Y-42490000D02*
X157670000Y-41160000D01*
X159000000Y-42490000D02*
X157670000Y-42490000D01*
X160270000Y-42490000D02*
X160270000Y-39830000D01*
X160270000Y-39830000D02*
X160330000Y-39830000D01*
X160270000Y-42490000D02*
X160330000Y-42490000D01*
X160330000Y-42490000D02*
X160330000Y-39830000D01*
G04 #@! TO.C,J18*
X160330000Y-45030000D02*
X160330000Y-42370000D01*
X160270000Y-45030000D02*
X160330000Y-45030000D01*
X160270000Y-42370000D02*
X160330000Y-42370000D01*
X160270000Y-45030000D02*
X160270000Y-42370000D01*
X159000000Y-45030000D02*
X157670000Y-45030000D01*
X157670000Y-45030000D02*
X157670000Y-43700000D01*
G04 #@! TO.C,J19*
X157670000Y-47570000D02*
X157670000Y-46240000D01*
X159000000Y-47570000D02*
X157670000Y-47570000D01*
X160270000Y-47570000D02*
X160270000Y-44910000D01*
X160270000Y-44910000D02*
X160330000Y-44910000D01*
X160270000Y-47570000D02*
X160330000Y-47570000D01*
X160330000Y-47570000D02*
X160330000Y-44910000D01*
G04 #@! TO.C,J20*
X160330000Y-50110000D02*
X160330000Y-47450000D01*
X160270000Y-50110000D02*
X160330000Y-50110000D01*
X160270000Y-47450000D02*
X160330000Y-47450000D01*
X160270000Y-50110000D02*
X160270000Y-47450000D01*
X159000000Y-50110000D02*
X157670000Y-50110000D01*
X157670000Y-50110000D02*
X157670000Y-48780000D01*
G04 #@! TO.C,J21*
X127670000Y-58550000D02*
X127670000Y-57220000D01*
X129000000Y-58550000D02*
X127670000Y-58550000D01*
X130270000Y-58550000D02*
X130270000Y-55890000D01*
X130270000Y-55890000D02*
X130330000Y-55890000D01*
X130270000Y-58550000D02*
X130330000Y-58550000D01*
X130330000Y-58550000D02*
X130330000Y-55890000D01*
G04 #@! TO.C,J22*
X127670000Y-61090000D02*
X127670000Y-59760000D01*
X129000000Y-61090000D02*
X127670000Y-61090000D01*
X130270000Y-61090000D02*
X130270000Y-58430000D01*
X130270000Y-58430000D02*
X130330000Y-58430000D01*
X130270000Y-61090000D02*
X130330000Y-61090000D01*
X130330000Y-61090000D02*
X130330000Y-58430000D01*
G04 #@! TO.C,J23*
X130330000Y-63630000D02*
X130330000Y-60970000D01*
X130270000Y-63630000D02*
X130330000Y-63630000D01*
X130270000Y-60970000D02*
X130330000Y-60970000D01*
X130270000Y-63630000D02*
X130270000Y-60970000D01*
X129000000Y-63630000D02*
X127670000Y-63630000D01*
X127670000Y-63630000D02*
X127670000Y-62300000D01*
G04 #@! TO.C,J24*
X127670000Y-66170000D02*
X127670000Y-64840000D01*
X129000000Y-66170000D02*
X127670000Y-66170000D01*
X130270000Y-66170000D02*
X130270000Y-63510000D01*
X130270000Y-63510000D02*
X130330000Y-63510000D01*
X130270000Y-66170000D02*
X130330000Y-66170000D01*
X130330000Y-66170000D02*
X130330000Y-63510000D01*
G04 #@! TO.C,J25*
X147670000Y-58550000D02*
X147670000Y-57220000D01*
X149000000Y-58550000D02*
X147670000Y-58550000D01*
X150270000Y-58550000D02*
X150270000Y-55890000D01*
X150270000Y-55890000D02*
X150330000Y-55890000D01*
X150270000Y-58550000D02*
X150330000Y-58550000D01*
X150330000Y-58550000D02*
X150330000Y-55890000D01*
G04 #@! TO.C,J26*
X150330000Y-61090000D02*
X150330000Y-58430000D01*
X150270000Y-61090000D02*
X150330000Y-61090000D01*
X150270000Y-58430000D02*
X150330000Y-58430000D01*
X150270000Y-61090000D02*
X150270000Y-58430000D01*
X149000000Y-61090000D02*
X147670000Y-61090000D01*
X147670000Y-61090000D02*
X147670000Y-59760000D01*
G04 #@! TO.C,J27*
X147670000Y-63630000D02*
X147670000Y-62300000D01*
X149000000Y-63630000D02*
X147670000Y-63630000D01*
X150270000Y-63630000D02*
X150270000Y-60970000D01*
X150270000Y-60970000D02*
X150330000Y-60970000D01*
X150270000Y-63630000D02*
X150330000Y-63630000D01*
X150330000Y-63630000D02*
X150330000Y-60970000D01*
G04 #@! TO.C,J28*
X150330000Y-66170000D02*
X150330000Y-63510000D01*
X150270000Y-66170000D02*
X150330000Y-66170000D01*
X150270000Y-63510000D02*
X150330000Y-63510000D01*
X150270000Y-66170000D02*
X150270000Y-63510000D01*
X149000000Y-66170000D02*
X147670000Y-66170000D01*
X147670000Y-66170000D02*
X147670000Y-64840000D01*
G04 #@! TO.C,J29*
X137670000Y-68710000D02*
X137670000Y-67380000D01*
X139000000Y-68710000D02*
X137670000Y-68710000D01*
X140270000Y-68710000D02*
X140270000Y-66050000D01*
X140270000Y-66050000D02*
X140330000Y-66050000D01*
X140270000Y-68710000D02*
X140330000Y-68710000D01*
X140330000Y-68710000D02*
X140330000Y-66050000D01*
G04 #@! TO.C,J30*
X140330000Y-71250000D02*
X140330000Y-68590000D01*
X140270000Y-71250000D02*
X140330000Y-71250000D01*
X140270000Y-68590000D02*
X140330000Y-68590000D01*
X140270000Y-71250000D02*
X140270000Y-68590000D01*
X139000000Y-71250000D02*
X137670000Y-71250000D01*
X137670000Y-71250000D02*
X137670000Y-69920000D01*
G04 #@! TO.C,J31*
X137670000Y-73790000D02*
X137670000Y-72460000D01*
X139000000Y-73790000D02*
X137670000Y-73790000D01*
X140270000Y-73790000D02*
X140270000Y-71130000D01*
X140270000Y-71130000D02*
X140330000Y-71130000D01*
X140270000Y-73790000D02*
X140330000Y-73790000D01*
X140330000Y-73790000D02*
X140330000Y-71130000D01*
G04 #@! TO.C,J32*
X140330000Y-76330000D02*
X140330000Y-73670000D01*
X140270000Y-76330000D02*
X140330000Y-76330000D01*
X140270000Y-73670000D02*
X140330000Y-73670000D01*
X140270000Y-76330000D02*
X140270000Y-73670000D01*
X139000000Y-76330000D02*
X137670000Y-76330000D01*
X137670000Y-76330000D02*
X137670000Y-75000000D01*
G04 #@! TO.C,J33*
X157670000Y-68710000D02*
X157670000Y-67380000D01*
X159000000Y-68710000D02*
X157670000Y-68710000D01*
X160270000Y-68710000D02*
X160270000Y-66050000D01*
X160270000Y-66050000D02*
X160330000Y-66050000D01*
X160270000Y-68710000D02*
X160330000Y-68710000D01*
X160330000Y-68710000D02*
X160330000Y-66050000D01*
G04 #@! TO.C,J34*
X160330000Y-71250000D02*
X160330000Y-68590000D01*
X160270000Y-71250000D02*
X160330000Y-71250000D01*
X160270000Y-68590000D02*
X160330000Y-68590000D01*
X160270000Y-71250000D02*
X160270000Y-68590000D01*
X159000000Y-71250000D02*
X157670000Y-71250000D01*
X157670000Y-71250000D02*
X157670000Y-69920000D01*
G04 #@! TO.C,J35*
X157670000Y-73790000D02*
X157670000Y-72460000D01*
X159000000Y-73790000D02*
X157670000Y-73790000D01*
X160270000Y-73790000D02*
X160270000Y-71130000D01*
X160270000Y-71130000D02*
X160330000Y-71130000D01*
X160270000Y-73790000D02*
X160330000Y-73790000D01*
X160330000Y-73790000D02*
X160330000Y-71130000D01*
G04 #@! TO.C,J36*
X157670000Y-76330000D02*
X157670000Y-75000000D01*
X159000000Y-76330000D02*
X157670000Y-76330000D01*
X160270000Y-76330000D02*
X160270000Y-73670000D01*
X160270000Y-73670000D02*
X160330000Y-73670000D01*
X160270000Y-76330000D02*
X160330000Y-76330000D01*
X160330000Y-76330000D02*
X160330000Y-73670000D01*
G04 #@! TO.C,J31*
D16*
X135360476Y-121912380D02*
X135360476Y-122626666D01*
X135312857Y-122769523D01*
X135217619Y-122864761D01*
X135074761Y-122912380D01*
X134979523Y-122912380D01*
X135741428Y-121912380D02*
X136360476Y-121912380D01*
X136027142Y-122293333D01*
X136170000Y-122293333D01*
X136265238Y-122340952D01*
X136312857Y-122388571D01*
X136360476Y-122483809D01*
X136360476Y-122721904D01*
X136312857Y-122817142D01*
X136265238Y-122864761D01*
X136170000Y-122912380D01*
X135884285Y-122912380D01*
X135789047Y-122864761D01*
X135741428Y-122817142D01*
X137312857Y-122912380D02*
X136741428Y-122912380D01*
X137027142Y-122912380D02*
X137027142Y-121912380D01*
X136931904Y-122055238D01*
X136836666Y-122150476D01*
X136741428Y-122198095D01*
G04 #@! TO.C,J34*
X155360476Y-119372380D02*
X155360476Y-120086666D01*
X155312857Y-120229523D01*
X155217619Y-120324761D01*
X155074761Y-120372380D01*
X154979523Y-120372380D01*
X155741428Y-119372380D02*
X156360476Y-119372380D01*
X156027142Y-119753333D01*
X156170000Y-119753333D01*
X156265238Y-119800952D01*
X156312857Y-119848571D01*
X156360476Y-119943809D01*
X156360476Y-120181904D01*
X156312857Y-120277142D01*
X156265238Y-120324761D01*
X156170000Y-120372380D01*
X155884285Y-120372380D01*
X155789047Y-120324761D01*
X155741428Y-120277142D01*
X157217619Y-119705714D02*
X157217619Y-120372380D01*
X156979523Y-119324761D02*
X156741428Y-120039047D01*
X157360476Y-120039047D01*
G04 #@! TO.C,J30*
X135360476Y-119372380D02*
X135360476Y-120086666D01*
X135312857Y-120229523D01*
X135217619Y-120324761D01*
X135074761Y-120372380D01*
X134979523Y-120372380D01*
X135741428Y-119372380D02*
X136360476Y-119372380D01*
X136027142Y-119753333D01*
X136170000Y-119753333D01*
X136265238Y-119800952D01*
X136312857Y-119848571D01*
X136360476Y-119943809D01*
X136360476Y-120181904D01*
X136312857Y-120277142D01*
X136265238Y-120324761D01*
X136170000Y-120372380D01*
X135884285Y-120372380D01*
X135789047Y-120324761D01*
X135741428Y-120277142D01*
X136979523Y-119372380D02*
X137074761Y-119372380D01*
X137170000Y-119420000D01*
X137217619Y-119467619D01*
X137265238Y-119562857D01*
X137312857Y-119753333D01*
X137312857Y-119991428D01*
X137265238Y-120181904D01*
X137217619Y-120277142D01*
X137170000Y-120324761D01*
X137074761Y-120372380D01*
X136979523Y-120372380D01*
X136884285Y-120324761D01*
X136836666Y-120277142D01*
X136789047Y-120181904D01*
X136741428Y-119991428D01*
X136741428Y-119753333D01*
X136789047Y-119562857D01*
X136836666Y-119467619D01*
X136884285Y-119420000D01*
X136979523Y-119372380D01*
G04 #@! TO.C,J32*
X135360476Y-124452380D02*
X135360476Y-125166666D01*
X135312857Y-125309523D01*
X135217619Y-125404761D01*
X135074761Y-125452380D01*
X134979523Y-125452380D01*
X135741428Y-124452380D02*
X136360476Y-124452380D01*
X136027142Y-124833333D01*
X136170000Y-124833333D01*
X136265238Y-124880952D01*
X136312857Y-124928571D01*
X136360476Y-125023809D01*
X136360476Y-125261904D01*
X136312857Y-125357142D01*
X136265238Y-125404761D01*
X136170000Y-125452380D01*
X135884285Y-125452380D01*
X135789047Y-125404761D01*
X135741428Y-125357142D01*
X136741428Y-124547619D02*
X136789047Y-124500000D01*
X136884285Y-124452380D01*
X137122380Y-124452380D01*
X137217619Y-124500000D01*
X137265238Y-124547619D01*
X137312857Y-124642857D01*
X137312857Y-124738095D01*
X137265238Y-124880952D01*
X136693809Y-125452380D01*
X137312857Y-125452380D01*
G04 #@! TO.C,J35*
X155360476Y-121912380D02*
X155360476Y-122626666D01*
X155312857Y-122769523D01*
X155217619Y-122864761D01*
X155074761Y-122912380D01*
X154979523Y-122912380D01*
X155741428Y-121912380D02*
X156360476Y-121912380D01*
X156027142Y-122293333D01*
X156170000Y-122293333D01*
X156265238Y-122340952D01*
X156312857Y-122388571D01*
X156360476Y-122483809D01*
X156360476Y-122721904D01*
X156312857Y-122817142D01*
X156265238Y-122864761D01*
X156170000Y-122912380D01*
X155884285Y-122912380D01*
X155789047Y-122864761D01*
X155741428Y-122817142D01*
X157265238Y-121912380D02*
X156789047Y-121912380D01*
X156741428Y-122388571D01*
X156789047Y-122340952D01*
X156884285Y-122293333D01*
X157122380Y-122293333D01*
X157217619Y-122340952D01*
X157265238Y-122388571D01*
X157312857Y-122483809D01*
X157312857Y-122721904D01*
X157265238Y-122817142D01*
X157217619Y-122864761D01*
X157122380Y-122912380D01*
X156884285Y-122912380D01*
X156789047Y-122864761D01*
X156741428Y-122817142D01*
G04 #@! TO.C,J33*
X155360476Y-116832380D02*
X155360476Y-117546666D01*
X155312857Y-117689523D01*
X155217619Y-117784761D01*
X155074761Y-117832380D01*
X154979523Y-117832380D01*
X155741428Y-116832380D02*
X156360476Y-116832380D01*
X156027142Y-117213333D01*
X156170000Y-117213333D01*
X156265238Y-117260952D01*
X156312857Y-117308571D01*
X156360476Y-117403809D01*
X156360476Y-117641904D01*
X156312857Y-117737142D01*
X156265238Y-117784761D01*
X156170000Y-117832380D01*
X155884285Y-117832380D01*
X155789047Y-117784761D01*
X155741428Y-117737142D01*
X156693809Y-116832380D02*
X157312857Y-116832380D01*
X156979523Y-117213333D01*
X157122380Y-117213333D01*
X157217619Y-117260952D01*
X157265238Y-117308571D01*
X157312857Y-117403809D01*
X157312857Y-117641904D01*
X157265238Y-117737142D01*
X157217619Y-117784761D01*
X157122380Y-117832380D01*
X156836666Y-117832380D01*
X156741428Y-117784761D01*
X156693809Y-117737142D01*
G04 #@! TO.C,J29*
X135360476Y-116832380D02*
X135360476Y-117546666D01*
X135312857Y-117689523D01*
X135217619Y-117784761D01*
X135074761Y-117832380D01*
X134979523Y-117832380D01*
X135789047Y-116927619D02*
X135836666Y-116880000D01*
X135931904Y-116832380D01*
X136170000Y-116832380D01*
X136265238Y-116880000D01*
X136312857Y-116927619D01*
X136360476Y-117022857D01*
X136360476Y-117118095D01*
X136312857Y-117260952D01*
X135741428Y-117832380D01*
X136360476Y-117832380D01*
X136836666Y-117832380D02*
X137027142Y-117832380D01*
X137122380Y-117784761D01*
X137170000Y-117737142D01*
X137265238Y-117594285D01*
X137312857Y-117403809D01*
X137312857Y-117022857D01*
X137265238Y-116927619D01*
X137217619Y-116880000D01*
X137122380Y-116832380D01*
X136931904Y-116832380D01*
X136836666Y-116880000D01*
X136789047Y-116927619D01*
X136741428Y-117022857D01*
X136741428Y-117260952D01*
X136789047Y-117356190D01*
X136836666Y-117403809D01*
X136931904Y-117451428D01*
X137122380Y-117451428D01*
X137217619Y-117403809D01*
X137265238Y-117356190D01*
X137312857Y-117260952D01*
G04 #@! TO.C,J36*
X155360476Y-124452380D02*
X155360476Y-125166666D01*
X155312857Y-125309523D01*
X155217619Y-125404761D01*
X155074761Y-125452380D01*
X154979523Y-125452380D01*
X155741428Y-124452380D02*
X156360476Y-124452380D01*
X156027142Y-124833333D01*
X156170000Y-124833333D01*
X156265238Y-124880952D01*
X156312857Y-124928571D01*
X156360476Y-125023809D01*
X156360476Y-125261904D01*
X156312857Y-125357142D01*
X156265238Y-125404761D01*
X156170000Y-125452380D01*
X155884285Y-125452380D01*
X155789047Y-125404761D01*
X155741428Y-125357142D01*
X157217619Y-124452380D02*
X157027142Y-124452380D01*
X156931904Y-124500000D01*
X156884285Y-124547619D01*
X156789047Y-124690476D01*
X156741428Y-124880952D01*
X156741428Y-125261904D01*
X156789047Y-125357142D01*
X156836666Y-125404761D01*
X156931904Y-125452380D01*
X157122380Y-125452380D01*
X157217619Y-125404761D01*
X157265238Y-125357142D01*
X157312857Y-125261904D01*
X157312857Y-125023809D01*
X157265238Y-124928571D01*
X157217619Y-124880952D01*
X157122380Y-124833333D01*
X156931904Y-124833333D01*
X156836666Y-124880952D01*
X156789047Y-124928571D01*
X156741428Y-125023809D01*
G04 #@! TO.C,J12*
X145190476Y-88072380D02*
X145190476Y-88786666D01*
X145142857Y-88929523D01*
X145047619Y-89024761D01*
X144904761Y-89072380D01*
X144809523Y-89072380D01*
X146190476Y-89072380D02*
X145619047Y-89072380D01*
X145904761Y-89072380D02*
X145904761Y-88072380D01*
X145809523Y-88215238D01*
X145714285Y-88310476D01*
X145619047Y-88358095D01*
X146571428Y-88167619D02*
X146619047Y-88120000D01*
X146714285Y-88072380D01*
X146952380Y-88072380D01*
X147047619Y-88120000D01*
X147095238Y-88167619D01*
X147142857Y-88262857D01*
X147142857Y-88358095D01*
X147095238Y-88500952D01*
X146523809Y-89072380D01*
X147142857Y-89072380D01*
G04 #@! TO.C,J19*
X155360476Y-95692380D02*
X155360476Y-96406666D01*
X155312857Y-96549523D01*
X155217619Y-96644761D01*
X155074761Y-96692380D01*
X154979523Y-96692380D01*
X156360476Y-96692380D02*
X155789047Y-96692380D01*
X156074761Y-96692380D02*
X156074761Y-95692380D01*
X155979523Y-95835238D01*
X155884285Y-95930476D01*
X155789047Y-95978095D01*
X156836666Y-96692380D02*
X157027142Y-96692380D01*
X157122380Y-96644761D01*
X157170000Y-96597142D01*
X157265238Y-96454285D01*
X157312857Y-96263809D01*
X157312857Y-95882857D01*
X157265238Y-95787619D01*
X157217619Y-95740000D01*
X157122380Y-95692380D01*
X156931904Y-95692380D01*
X156836666Y-95740000D01*
X156789047Y-95787619D01*
X156741428Y-95882857D01*
X156741428Y-96120952D01*
X156789047Y-96216190D01*
X156836666Y-96263809D01*
X156931904Y-96311428D01*
X157122380Y-96311428D01*
X157217619Y-96263809D01*
X157265238Y-96216190D01*
X157312857Y-96120952D01*
G04 #@! TO.C,J28*
X145360476Y-114292380D02*
X145360476Y-115006666D01*
X145312857Y-115149523D01*
X145217619Y-115244761D01*
X145074761Y-115292380D01*
X144979523Y-115292380D01*
X145789047Y-114387619D02*
X145836666Y-114340000D01*
X145931904Y-114292380D01*
X146170000Y-114292380D01*
X146265238Y-114340000D01*
X146312857Y-114387619D01*
X146360476Y-114482857D01*
X146360476Y-114578095D01*
X146312857Y-114720952D01*
X145741428Y-115292380D01*
X146360476Y-115292380D01*
X146931904Y-114720952D02*
X146836666Y-114673333D01*
X146789047Y-114625714D01*
X146741428Y-114530476D01*
X146741428Y-114482857D01*
X146789047Y-114387619D01*
X146836666Y-114340000D01*
X146931904Y-114292380D01*
X147122380Y-114292380D01*
X147217619Y-114340000D01*
X147265238Y-114387619D01*
X147312857Y-114482857D01*
X147312857Y-114530476D01*
X147265238Y-114625714D01*
X147217619Y-114673333D01*
X147122380Y-114720952D01*
X146931904Y-114720952D01*
X146836666Y-114768571D01*
X146789047Y-114816190D01*
X146741428Y-114911428D01*
X146741428Y-115101904D01*
X146789047Y-115197142D01*
X146836666Y-115244761D01*
X146931904Y-115292380D01*
X147122380Y-115292380D01*
X147217619Y-115244761D01*
X147265238Y-115197142D01*
X147312857Y-115101904D01*
X147312857Y-114911428D01*
X147265238Y-114816190D01*
X147217619Y-114768571D01*
X147122380Y-114720952D01*
G04 #@! TO.C,J27*
X145360476Y-111752380D02*
X145360476Y-112466666D01*
X145312857Y-112609523D01*
X145217619Y-112704761D01*
X145074761Y-112752380D01*
X144979523Y-112752380D01*
X145789047Y-111847619D02*
X145836666Y-111800000D01*
X145931904Y-111752380D01*
X146170000Y-111752380D01*
X146265238Y-111800000D01*
X146312857Y-111847619D01*
X146360476Y-111942857D01*
X146360476Y-112038095D01*
X146312857Y-112180952D01*
X145741428Y-112752380D01*
X146360476Y-112752380D01*
X146693809Y-111752380D02*
X147360476Y-111752380D01*
X146931904Y-112752380D01*
G04 #@! TO.C,J24*
X125360476Y-114292380D02*
X125360476Y-115006666D01*
X125312857Y-115149523D01*
X125217619Y-115244761D01*
X125074761Y-115292380D01*
X124979523Y-115292380D01*
X125789047Y-114387619D02*
X125836666Y-114340000D01*
X125931904Y-114292380D01*
X126170000Y-114292380D01*
X126265238Y-114340000D01*
X126312857Y-114387619D01*
X126360476Y-114482857D01*
X126360476Y-114578095D01*
X126312857Y-114720952D01*
X125741428Y-115292380D01*
X126360476Y-115292380D01*
X127217619Y-114625714D02*
X127217619Y-115292380D01*
X126979523Y-114244761D02*
X126741428Y-114959047D01*
X127360476Y-114959047D01*
G04 #@! TO.C,J21*
X125360476Y-106672380D02*
X125360476Y-107386666D01*
X125312857Y-107529523D01*
X125217619Y-107624761D01*
X125074761Y-107672380D01*
X124979523Y-107672380D01*
X125789047Y-106767619D02*
X125836666Y-106720000D01*
X125931904Y-106672380D01*
X126170000Y-106672380D01*
X126265238Y-106720000D01*
X126312857Y-106767619D01*
X126360476Y-106862857D01*
X126360476Y-106958095D01*
X126312857Y-107100952D01*
X125741428Y-107672380D01*
X126360476Y-107672380D01*
X127312857Y-107672380D02*
X126741428Y-107672380D01*
X127027142Y-107672380D02*
X127027142Y-106672380D01*
X126931904Y-106815238D01*
X126836666Y-106910476D01*
X126741428Y-106958095D01*
G04 #@! TO.C,J20*
X155360476Y-98232380D02*
X155360476Y-98946666D01*
X155312857Y-99089523D01*
X155217619Y-99184761D01*
X155074761Y-99232380D01*
X154979523Y-99232380D01*
X155789047Y-98327619D02*
X155836666Y-98280000D01*
X155931904Y-98232380D01*
X156170000Y-98232380D01*
X156265238Y-98280000D01*
X156312857Y-98327619D01*
X156360476Y-98422857D01*
X156360476Y-98518095D01*
X156312857Y-98660952D01*
X155741428Y-99232380D01*
X156360476Y-99232380D01*
X156979523Y-98232380D02*
X157074761Y-98232380D01*
X157170000Y-98280000D01*
X157217619Y-98327619D01*
X157265238Y-98422857D01*
X157312857Y-98613333D01*
X157312857Y-98851428D01*
X157265238Y-99041904D01*
X157217619Y-99137142D01*
X157170000Y-99184761D01*
X157074761Y-99232380D01*
X156979523Y-99232380D01*
X156884285Y-99184761D01*
X156836666Y-99137142D01*
X156789047Y-99041904D01*
X156741428Y-98851428D01*
X156741428Y-98613333D01*
X156789047Y-98422857D01*
X156836666Y-98327619D01*
X156884285Y-98280000D01*
X156979523Y-98232380D01*
G04 #@! TO.C,J17*
X155360476Y-90612380D02*
X155360476Y-91326666D01*
X155312857Y-91469523D01*
X155217619Y-91564761D01*
X155074761Y-91612380D01*
X154979523Y-91612380D01*
X156360476Y-91612380D02*
X155789047Y-91612380D01*
X156074761Y-91612380D02*
X156074761Y-90612380D01*
X155979523Y-90755238D01*
X155884285Y-90850476D01*
X155789047Y-90898095D01*
X156693809Y-90612380D02*
X157360476Y-90612380D01*
X156931904Y-91612380D01*
G04 #@! TO.C,J14*
X135360476Y-93152380D02*
X135360476Y-93866666D01*
X135312857Y-94009523D01*
X135217619Y-94104761D01*
X135074761Y-94152380D01*
X134979523Y-94152380D01*
X136360476Y-94152380D02*
X135789047Y-94152380D01*
X136074761Y-94152380D02*
X136074761Y-93152380D01*
X135979523Y-93295238D01*
X135884285Y-93390476D01*
X135789047Y-93438095D01*
X137217619Y-93485714D02*
X137217619Y-94152380D01*
X136979523Y-93104761D02*
X136741428Y-93819047D01*
X137360476Y-93819047D01*
G04 #@! TO.C,J22*
X125360476Y-109212380D02*
X125360476Y-109926666D01*
X125312857Y-110069523D01*
X125217619Y-110164761D01*
X125074761Y-110212380D01*
X124979523Y-110212380D01*
X125789047Y-109307619D02*
X125836666Y-109260000D01*
X125931904Y-109212380D01*
X126170000Y-109212380D01*
X126265238Y-109260000D01*
X126312857Y-109307619D01*
X126360476Y-109402857D01*
X126360476Y-109498095D01*
X126312857Y-109640952D01*
X125741428Y-110212380D01*
X126360476Y-110212380D01*
X126741428Y-109307619D02*
X126789047Y-109260000D01*
X126884285Y-109212380D01*
X127122380Y-109212380D01*
X127217619Y-109260000D01*
X127265238Y-109307619D01*
X127312857Y-109402857D01*
X127312857Y-109498095D01*
X127265238Y-109640952D01*
X126693809Y-110212380D01*
X127312857Y-110212380D01*
G04 #@! TO.C,J15*
X135360476Y-95692380D02*
X135360476Y-96406666D01*
X135312857Y-96549523D01*
X135217619Y-96644761D01*
X135074761Y-96692380D01*
X134979523Y-96692380D01*
X136360476Y-96692380D02*
X135789047Y-96692380D01*
X136074761Y-96692380D02*
X136074761Y-95692380D01*
X135979523Y-95835238D01*
X135884285Y-95930476D01*
X135789047Y-95978095D01*
X137265238Y-95692380D02*
X136789047Y-95692380D01*
X136741428Y-96168571D01*
X136789047Y-96120952D01*
X136884285Y-96073333D01*
X137122380Y-96073333D01*
X137217619Y-96120952D01*
X137265238Y-96168571D01*
X137312857Y-96263809D01*
X137312857Y-96501904D01*
X137265238Y-96597142D01*
X137217619Y-96644761D01*
X137122380Y-96692380D01*
X136884285Y-96692380D01*
X136789047Y-96644761D01*
X136741428Y-96597142D01*
G04 #@! TO.C,J26*
X145360476Y-109212380D02*
X145360476Y-109926666D01*
X145312857Y-110069523D01*
X145217619Y-110164761D01*
X145074761Y-110212380D01*
X144979523Y-110212380D01*
X145789047Y-109307619D02*
X145836666Y-109260000D01*
X145931904Y-109212380D01*
X146170000Y-109212380D01*
X146265238Y-109260000D01*
X146312857Y-109307619D01*
X146360476Y-109402857D01*
X146360476Y-109498095D01*
X146312857Y-109640952D01*
X145741428Y-110212380D01*
X146360476Y-110212380D01*
X147217619Y-109212380D02*
X147027142Y-109212380D01*
X146931904Y-109260000D01*
X146884285Y-109307619D01*
X146789047Y-109450476D01*
X146741428Y-109640952D01*
X146741428Y-110021904D01*
X146789047Y-110117142D01*
X146836666Y-110164761D01*
X146931904Y-110212380D01*
X147122380Y-110212380D01*
X147217619Y-110164761D01*
X147265238Y-110117142D01*
X147312857Y-110021904D01*
X147312857Y-109783809D01*
X147265238Y-109688571D01*
X147217619Y-109640952D01*
X147122380Y-109593333D01*
X146931904Y-109593333D01*
X146836666Y-109640952D01*
X146789047Y-109688571D01*
X146741428Y-109783809D01*
G04 #@! TO.C,J11*
X145190476Y-85532380D02*
X145190476Y-86246666D01*
X145142857Y-86389523D01*
X145047619Y-86484761D01*
X144904761Y-86532380D01*
X144809523Y-86532380D01*
X146190476Y-86532380D02*
X145619047Y-86532380D01*
X145904761Y-86532380D02*
X145904761Y-85532380D01*
X145809523Y-85675238D01*
X145714285Y-85770476D01*
X145619047Y-85818095D01*
X147142857Y-86532380D02*
X146571428Y-86532380D01*
X146857142Y-86532380D02*
X146857142Y-85532380D01*
X146761904Y-85675238D01*
X146666666Y-85770476D01*
X146571428Y-85818095D01*
G04 #@! TO.C,J25*
X145360476Y-106672380D02*
X145360476Y-107386666D01*
X145312857Y-107529523D01*
X145217619Y-107624761D01*
X145074761Y-107672380D01*
X144979523Y-107672380D01*
X145789047Y-106767619D02*
X145836666Y-106720000D01*
X145931904Y-106672380D01*
X146170000Y-106672380D01*
X146265238Y-106720000D01*
X146312857Y-106767619D01*
X146360476Y-106862857D01*
X146360476Y-106958095D01*
X146312857Y-107100952D01*
X145741428Y-107672380D01*
X146360476Y-107672380D01*
X147265238Y-106672380D02*
X146789047Y-106672380D01*
X146741428Y-107148571D01*
X146789047Y-107100952D01*
X146884285Y-107053333D01*
X147122380Y-107053333D01*
X147217619Y-107100952D01*
X147265238Y-107148571D01*
X147312857Y-107243809D01*
X147312857Y-107481904D01*
X147265238Y-107577142D01*
X147217619Y-107624761D01*
X147122380Y-107672380D01*
X146884285Y-107672380D01*
X146789047Y-107624761D01*
X146741428Y-107577142D01*
G04 #@! TO.C,J23*
X125360476Y-111752380D02*
X125360476Y-112466666D01*
X125312857Y-112609523D01*
X125217619Y-112704761D01*
X125074761Y-112752380D01*
X124979523Y-112752380D01*
X125789047Y-111847619D02*
X125836666Y-111800000D01*
X125931904Y-111752380D01*
X126170000Y-111752380D01*
X126265238Y-111800000D01*
X126312857Y-111847619D01*
X126360476Y-111942857D01*
X126360476Y-112038095D01*
X126312857Y-112180952D01*
X125741428Y-112752380D01*
X126360476Y-112752380D01*
X126693809Y-111752380D02*
X127312857Y-111752380D01*
X126979523Y-112133333D01*
X127122380Y-112133333D01*
X127217619Y-112180952D01*
X127265238Y-112228571D01*
X127312857Y-112323809D01*
X127312857Y-112561904D01*
X127265238Y-112657142D01*
X127217619Y-112704761D01*
X127122380Y-112752380D01*
X126836666Y-112752380D01*
X126741428Y-112704761D01*
X126693809Y-112657142D01*
G04 #@! TO.C,J13*
X135360476Y-90612380D02*
X135360476Y-91326666D01*
X135312857Y-91469523D01*
X135217619Y-91564761D01*
X135074761Y-91612380D01*
X134979523Y-91612380D01*
X136360476Y-91612380D02*
X135789047Y-91612380D01*
X136074761Y-91612380D02*
X136074761Y-90612380D01*
X135979523Y-90755238D01*
X135884285Y-90850476D01*
X135789047Y-90898095D01*
X136693809Y-90612380D02*
X137312857Y-90612380D01*
X136979523Y-90993333D01*
X137122380Y-90993333D01*
X137217619Y-91040952D01*
X137265238Y-91088571D01*
X137312857Y-91183809D01*
X137312857Y-91421904D01*
X137265238Y-91517142D01*
X137217619Y-91564761D01*
X137122380Y-91612380D01*
X136836666Y-91612380D01*
X136741428Y-91564761D01*
X136693809Y-91517142D01*
G04 #@! TO.C,J18*
X155360476Y-93152380D02*
X155360476Y-93866666D01*
X155312857Y-94009523D01*
X155217619Y-94104761D01*
X155074761Y-94152380D01*
X154979523Y-94152380D01*
X156360476Y-94152380D02*
X155789047Y-94152380D01*
X156074761Y-94152380D02*
X156074761Y-93152380D01*
X155979523Y-93295238D01*
X155884285Y-93390476D01*
X155789047Y-93438095D01*
X156931904Y-93580952D02*
X156836666Y-93533333D01*
X156789047Y-93485714D01*
X156741428Y-93390476D01*
X156741428Y-93342857D01*
X156789047Y-93247619D01*
X156836666Y-93200000D01*
X156931904Y-93152380D01*
X157122380Y-93152380D01*
X157217619Y-93200000D01*
X157265238Y-93247619D01*
X157312857Y-93342857D01*
X157312857Y-93390476D01*
X157265238Y-93485714D01*
X157217619Y-93533333D01*
X157122380Y-93580952D01*
X156931904Y-93580952D01*
X156836666Y-93628571D01*
X156789047Y-93676190D01*
X156741428Y-93771428D01*
X156741428Y-93961904D01*
X156789047Y-94057142D01*
X156836666Y-94104761D01*
X156931904Y-94152380D01*
X157122380Y-94152380D01*
X157217619Y-94104761D01*
X157265238Y-94057142D01*
X157312857Y-93961904D01*
X157312857Y-93771428D01*
X157265238Y-93676190D01*
X157217619Y-93628571D01*
X157122380Y-93580952D01*
G04 #@! TO.C,J16*
X135360476Y-98232380D02*
X135360476Y-98946666D01*
X135312857Y-99089523D01*
X135217619Y-99184761D01*
X135074761Y-99232380D01*
X134979523Y-99232380D01*
X136360476Y-99232380D02*
X135789047Y-99232380D01*
X136074761Y-99232380D02*
X136074761Y-98232380D01*
X135979523Y-98375238D01*
X135884285Y-98470476D01*
X135789047Y-98518095D01*
X137217619Y-98232380D02*
X137027142Y-98232380D01*
X136931904Y-98280000D01*
X136884285Y-98327619D01*
X136789047Y-98470476D01*
X136741428Y-98660952D01*
X136741428Y-99041904D01*
X136789047Y-99137142D01*
X136836666Y-99184761D01*
X136931904Y-99232380D01*
X137122380Y-99232380D01*
X137217619Y-99184761D01*
X137265238Y-99137142D01*
X137312857Y-99041904D01*
X137312857Y-98803809D01*
X137265238Y-98708571D01*
X137217619Y-98660952D01*
X137122380Y-98613333D01*
X136931904Y-98613333D01*
X136836666Y-98660952D01*
X136789047Y-98708571D01*
X136741428Y-98803809D01*
G04 #@! TO.C,J5*
X126336666Y-80452380D02*
X126336666Y-81166666D01*
X126289047Y-81309523D01*
X126193809Y-81404761D01*
X126050952Y-81452380D01*
X125955714Y-81452380D01*
X127289047Y-80452380D02*
X126812857Y-80452380D01*
X126765238Y-80928571D01*
X126812857Y-80880952D01*
X126908095Y-80833333D01*
X127146190Y-80833333D01*
X127241428Y-80880952D01*
X127289047Y-80928571D01*
X127336666Y-81023809D01*
X127336666Y-81261904D01*
X127289047Y-81357142D01*
X127241428Y-81404761D01*
X127146190Y-81452380D01*
X126908095Y-81452380D01*
X126812857Y-81404761D01*
X126765238Y-81357142D01*
G04 #@! TO.C,J10*
X145190476Y-82992380D02*
X145190476Y-83706666D01*
X145142857Y-83849523D01*
X145047619Y-83944761D01*
X144904761Y-83992380D01*
X144809523Y-83992380D01*
X146190476Y-83992380D02*
X145619047Y-83992380D01*
X145904761Y-83992380D02*
X145904761Y-82992380D01*
X145809523Y-83135238D01*
X145714285Y-83230476D01*
X145619047Y-83278095D01*
X146809523Y-82992380D02*
X146904761Y-82992380D01*
X147000000Y-83040000D01*
X147047619Y-83087619D01*
X147095238Y-83182857D01*
X147142857Y-83373333D01*
X147142857Y-83611428D01*
X147095238Y-83801904D01*
X147047619Y-83897142D01*
X147000000Y-83944761D01*
X146904761Y-83992380D01*
X146809523Y-83992380D01*
X146714285Y-83944761D01*
X146666666Y-83897142D01*
X146619047Y-83801904D01*
X146571428Y-83611428D01*
X146571428Y-83373333D01*
X146619047Y-83182857D01*
X146666666Y-83087619D01*
X146714285Y-83040000D01*
X146809523Y-82992380D01*
G04 #@! TO.C,J9*
X146336666Y-80452380D02*
X146336666Y-81166666D01*
X146289047Y-81309523D01*
X146193809Y-81404761D01*
X146050952Y-81452380D01*
X145955714Y-81452380D01*
X146860476Y-81452380D02*
X147050952Y-81452380D01*
X147146190Y-81404761D01*
X147193809Y-81357142D01*
X147289047Y-81214285D01*
X147336666Y-81023809D01*
X147336666Y-80642857D01*
X147289047Y-80547619D01*
X147241428Y-80500000D01*
X147146190Y-80452380D01*
X146955714Y-80452380D01*
X146860476Y-80500000D01*
X146812857Y-80547619D01*
X146765238Y-80642857D01*
X146765238Y-80880952D01*
X146812857Y-80976190D01*
X146860476Y-81023809D01*
X146955714Y-81071428D01*
X147146190Y-81071428D01*
X147241428Y-81023809D01*
X147289047Y-80976190D01*
X147336666Y-80880952D01*
G04 #@! TO.C,J8*
X126336666Y-88072380D02*
X126336666Y-88786666D01*
X126289047Y-88929523D01*
X126193809Y-89024761D01*
X126050952Y-89072380D01*
X125955714Y-89072380D01*
X126955714Y-88500952D02*
X126860476Y-88453333D01*
X126812857Y-88405714D01*
X126765238Y-88310476D01*
X126765238Y-88262857D01*
X126812857Y-88167619D01*
X126860476Y-88120000D01*
X126955714Y-88072380D01*
X127146190Y-88072380D01*
X127241428Y-88120000D01*
X127289047Y-88167619D01*
X127336666Y-88262857D01*
X127336666Y-88310476D01*
X127289047Y-88405714D01*
X127241428Y-88453333D01*
X127146190Y-88500952D01*
X126955714Y-88500952D01*
X126860476Y-88548571D01*
X126812857Y-88596190D01*
X126765238Y-88691428D01*
X126765238Y-88881904D01*
X126812857Y-88977142D01*
X126860476Y-89024761D01*
X126955714Y-89072380D01*
X127146190Y-89072380D01*
X127241428Y-89024761D01*
X127289047Y-88977142D01*
X127336666Y-88881904D01*
X127336666Y-88691428D01*
X127289047Y-88596190D01*
X127241428Y-88548571D01*
X127146190Y-88500952D01*
G04 #@! TO.C,J7*
X126336666Y-85590380D02*
X126336666Y-86304666D01*
X126289047Y-86447523D01*
X126193809Y-86542761D01*
X126050952Y-86590380D01*
X125955714Y-86590380D01*
X126717619Y-85590380D02*
X127384285Y-85590380D01*
X126955714Y-86590380D01*
G04 #@! TO.C,J6*
X126336666Y-82992380D02*
X126336666Y-83706666D01*
X126289047Y-83849523D01*
X126193809Y-83944761D01*
X126050952Y-83992380D01*
X125955714Y-83992380D01*
X127241428Y-82992380D02*
X127050952Y-82992380D01*
X126955714Y-83040000D01*
X126908095Y-83087619D01*
X126812857Y-83230476D01*
X126765238Y-83420952D01*
X126765238Y-83801904D01*
X126812857Y-83897142D01*
X126860476Y-83944761D01*
X126955714Y-83992380D01*
X127146190Y-83992380D01*
X127241428Y-83944761D01*
X127289047Y-83897142D01*
X127336666Y-83801904D01*
X127336666Y-83563809D01*
X127289047Y-83468571D01*
X127241428Y-83420952D01*
X127146190Y-83373333D01*
X126955714Y-83373333D01*
X126860476Y-83420952D01*
X126812857Y-83468571D01*
X126765238Y-83563809D01*
G04 #@! TO.C,J5*
X126336666Y-30452380D02*
X126336666Y-31166666D01*
X126289047Y-31309523D01*
X126193809Y-31404761D01*
X126050952Y-31452380D01*
X125955714Y-31452380D01*
X127289047Y-30452380D02*
X126812857Y-30452380D01*
X126765238Y-30928571D01*
X126812857Y-30880952D01*
X126908095Y-30833333D01*
X127146190Y-30833333D01*
X127241428Y-30880952D01*
X127289047Y-30928571D01*
X127336666Y-31023809D01*
X127336666Y-31261904D01*
X127289047Y-31357142D01*
X127241428Y-31404761D01*
X127146190Y-31452380D01*
X126908095Y-31452380D01*
X126812857Y-31404761D01*
X126765238Y-31357142D01*
G04 #@! TO.C,J6*
X126336666Y-32992380D02*
X126336666Y-33706666D01*
X126289047Y-33849523D01*
X126193809Y-33944761D01*
X126050952Y-33992380D01*
X125955714Y-33992380D01*
X127241428Y-32992380D02*
X127050952Y-32992380D01*
X126955714Y-33040000D01*
X126908095Y-33087619D01*
X126812857Y-33230476D01*
X126765238Y-33420952D01*
X126765238Y-33801904D01*
X126812857Y-33897142D01*
X126860476Y-33944761D01*
X126955714Y-33992380D01*
X127146190Y-33992380D01*
X127241428Y-33944761D01*
X127289047Y-33897142D01*
X127336666Y-33801904D01*
X127336666Y-33563809D01*
X127289047Y-33468571D01*
X127241428Y-33420952D01*
X127146190Y-33373333D01*
X126955714Y-33373333D01*
X126860476Y-33420952D01*
X126812857Y-33468571D01*
X126765238Y-33563809D01*
G04 #@! TO.C,J7*
X126336666Y-35590380D02*
X126336666Y-36304666D01*
X126289047Y-36447523D01*
X126193809Y-36542761D01*
X126050952Y-36590380D01*
X125955714Y-36590380D01*
X126717619Y-35590380D02*
X127384285Y-35590380D01*
X126955714Y-36590380D01*
G04 #@! TO.C,J8*
X126336666Y-38072380D02*
X126336666Y-38786666D01*
X126289047Y-38929523D01*
X126193809Y-39024761D01*
X126050952Y-39072380D01*
X125955714Y-39072380D01*
X126955714Y-38500952D02*
X126860476Y-38453333D01*
X126812857Y-38405714D01*
X126765238Y-38310476D01*
X126765238Y-38262857D01*
X126812857Y-38167619D01*
X126860476Y-38120000D01*
X126955714Y-38072380D01*
X127146190Y-38072380D01*
X127241428Y-38120000D01*
X127289047Y-38167619D01*
X127336666Y-38262857D01*
X127336666Y-38310476D01*
X127289047Y-38405714D01*
X127241428Y-38453333D01*
X127146190Y-38500952D01*
X126955714Y-38500952D01*
X126860476Y-38548571D01*
X126812857Y-38596190D01*
X126765238Y-38691428D01*
X126765238Y-38881904D01*
X126812857Y-38977142D01*
X126860476Y-39024761D01*
X126955714Y-39072380D01*
X127146190Y-39072380D01*
X127241428Y-39024761D01*
X127289047Y-38977142D01*
X127336666Y-38881904D01*
X127336666Y-38691428D01*
X127289047Y-38596190D01*
X127241428Y-38548571D01*
X127146190Y-38500952D01*
G04 #@! TO.C,J9*
X146336666Y-30452380D02*
X146336666Y-31166666D01*
X146289047Y-31309523D01*
X146193809Y-31404761D01*
X146050952Y-31452380D01*
X145955714Y-31452380D01*
X146860476Y-31452380D02*
X147050952Y-31452380D01*
X147146190Y-31404761D01*
X147193809Y-31357142D01*
X147289047Y-31214285D01*
X147336666Y-31023809D01*
X147336666Y-30642857D01*
X147289047Y-30547619D01*
X147241428Y-30500000D01*
X147146190Y-30452380D01*
X146955714Y-30452380D01*
X146860476Y-30500000D01*
X146812857Y-30547619D01*
X146765238Y-30642857D01*
X146765238Y-30880952D01*
X146812857Y-30976190D01*
X146860476Y-31023809D01*
X146955714Y-31071428D01*
X147146190Y-31071428D01*
X147241428Y-31023809D01*
X147289047Y-30976190D01*
X147336666Y-30880952D01*
G04 #@! TO.C,J10*
X145190476Y-32992380D02*
X145190476Y-33706666D01*
X145142857Y-33849523D01*
X145047619Y-33944761D01*
X144904761Y-33992380D01*
X144809523Y-33992380D01*
X146190476Y-33992380D02*
X145619047Y-33992380D01*
X145904761Y-33992380D02*
X145904761Y-32992380D01*
X145809523Y-33135238D01*
X145714285Y-33230476D01*
X145619047Y-33278095D01*
X146809523Y-32992380D02*
X146904761Y-32992380D01*
X147000000Y-33040000D01*
X147047619Y-33087619D01*
X147095238Y-33182857D01*
X147142857Y-33373333D01*
X147142857Y-33611428D01*
X147095238Y-33801904D01*
X147047619Y-33897142D01*
X147000000Y-33944761D01*
X146904761Y-33992380D01*
X146809523Y-33992380D01*
X146714285Y-33944761D01*
X146666666Y-33897142D01*
X146619047Y-33801904D01*
X146571428Y-33611428D01*
X146571428Y-33373333D01*
X146619047Y-33182857D01*
X146666666Y-33087619D01*
X146714285Y-33040000D01*
X146809523Y-32992380D01*
G04 #@! TO.C,J11*
X145190476Y-35532380D02*
X145190476Y-36246666D01*
X145142857Y-36389523D01*
X145047619Y-36484761D01*
X144904761Y-36532380D01*
X144809523Y-36532380D01*
X146190476Y-36532380D02*
X145619047Y-36532380D01*
X145904761Y-36532380D02*
X145904761Y-35532380D01*
X145809523Y-35675238D01*
X145714285Y-35770476D01*
X145619047Y-35818095D01*
X147142857Y-36532380D02*
X146571428Y-36532380D01*
X146857142Y-36532380D02*
X146857142Y-35532380D01*
X146761904Y-35675238D01*
X146666666Y-35770476D01*
X146571428Y-35818095D01*
G04 #@! TO.C,J12*
X145190476Y-38072380D02*
X145190476Y-38786666D01*
X145142857Y-38929523D01*
X145047619Y-39024761D01*
X144904761Y-39072380D01*
X144809523Y-39072380D01*
X146190476Y-39072380D02*
X145619047Y-39072380D01*
X145904761Y-39072380D02*
X145904761Y-38072380D01*
X145809523Y-38215238D01*
X145714285Y-38310476D01*
X145619047Y-38358095D01*
X146571428Y-38167619D02*
X146619047Y-38120000D01*
X146714285Y-38072380D01*
X146952380Y-38072380D01*
X147047619Y-38120000D01*
X147095238Y-38167619D01*
X147142857Y-38262857D01*
X147142857Y-38358095D01*
X147095238Y-38500952D01*
X146523809Y-39072380D01*
X147142857Y-39072380D01*
G04 #@! TO.C,J13*
X135360476Y-40612380D02*
X135360476Y-41326666D01*
X135312857Y-41469523D01*
X135217619Y-41564761D01*
X135074761Y-41612380D01*
X134979523Y-41612380D01*
X136360476Y-41612380D02*
X135789047Y-41612380D01*
X136074761Y-41612380D02*
X136074761Y-40612380D01*
X135979523Y-40755238D01*
X135884285Y-40850476D01*
X135789047Y-40898095D01*
X136693809Y-40612380D02*
X137312857Y-40612380D01*
X136979523Y-40993333D01*
X137122380Y-40993333D01*
X137217619Y-41040952D01*
X137265238Y-41088571D01*
X137312857Y-41183809D01*
X137312857Y-41421904D01*
X137265238Y-41517142D01*
X137217619Y-41564761D01*
X137122380Y-41612380D01*
X136836666Y-41612380D01*
X136741428Y-41564761D01*
X136693809Y-41517142D01*
G04 #@! TO.C,J14*
X135360476Y-43152380D02*
X135360476Y-43866666D01*
X135312857Y-44009523D01*
X135217619Y-44104761D01*
X135074761Y-44152380D01*
X134979523Y-44152380D01*
X136360476Y-44152380D02*
X135789047Y-44152380D01*
X136074761Y-44152380D02*
X136074761Y-43152380D01*
X135979523Y-43295238D01*
X135884285Y-43390476D01*
X135789047Y-43438095D01*
X137217619Y-43485714D02*
X137217619Y-44152380D01*
X136979523Y-43104761D02*
X136741428Y-43819047D01*
X137360476Y-43819047D01*
G04 #@! TO.C,J15*
X135360476Y-45692380D02*
X135360476Y-46406666D01*
X135312857Y-46549523D01*
X135217619Y-46644761D01*
X135074761Y-46692380D01*
X134979523Y-46692380D01*
X136360476Y-46692380D02*
X135789047Y-46692380D01*
X136074761Y-46692380D02*
X136074761Y-45692380D01*
X135979523Y-45835238D01*
X135884285Y-45930476D01*
X135789047Y-45978095D01*
X137265238Y-45692380D02*
X136789047Y-45692380D01*
X136741428Y-46168571D01*
X136789047Y-46120952D01*
X136884285Y-46073333D01*
X137122380Y-46073333D01*
X137217619Y-46120952D01*
X137265238Y-46168571D01*
X137312857Y-46263809D01*
X137312857Y-46501904D01*
X137265238Y-46597142D01*
X137217619Y-46644761D01*
X137122380Y-46692380D01*
X136884285Y-46692380D01*
X136789047Y-46644761D01*
X136741428Y-46597142D01*
G04 #@! TO.C,J16*
X135360476Y-48232380D02*
X135360476Y-48946666D01*
X135312857Y-49089523D01*
X135217619Y-49184761D01*
X135074761Y-49232380D01*
X134979523Y-49232380D01*
X136360476Y-49232380D02*
X135789047Y-49232380D01*
X136074761Y-49232380D02*
X136074761Y-48232380D01*
X135979523Y-48375238D01*
X135884285Y-48470476D01*
X135789047Y-48518095D01*
X137217619Y-48232380D02*
X137027142Y-48232380D01*
X136931904Y-48280000D01*
X136884285Y-48327619D01*
X136789047Y-48470476D01*
X136741428Y-48660952D01*
X136741428Y-49041904D01*
X136789047Y-49137142D01*
X136836666Y-49184761D01*
X136931904Y-49232380D01*
X137122380Y-49232380D01*
X137217619Y-49184761D01*
X137265238Y-49137142D01*
X137312857Y-49041904D01*
X137312857Y-48803809D01*
X137265238Y-48708571D01*
X137217619Y-48660952D01*
X137122380Y-48613333D01*
X136931904Y-48613333D01*
X136836666Y-48660952D01*
X136789047Y-48708571D01*
X136741428Y-48803809D01*
G04 #@! TO.C,J17*
X155360476Y-40612380D02*
X155360476Y-41326666D01*
X155312857Y-41469523D01*
X155217619Y-41564761D01*
X155074761Y-41612380D01*
X154979523Y-41612380D01*
X156360476Y-41612380D02*
X155789047Y-41612380D01*
X156074761Y-41612380D02*
X156074761Y-40612380D01*
X155979523Y-40755238D01*
X155884285Y-40850476D01*
X155789047Y-40898095D01*
X156693809Y-40612380D02*
X157360476Y-40612380D01*
X156931904Y-41612380D01*
G04 #@! TO.C,J18*
X155360476Y-43152380D02*
X155360476Y-43866666D01*
X155312857Y-44009523D01*
X155217619Y-44104761D01*
X155074761Y-44152380D01*
X154979523Y-44152380D01*
X156360476Y-44152380D02*
X155789047Y-44152380D01*
X156074761Y-44152380D02*
X156074761Y-43152380D01*
X155979523Y-43295238D01*
X155884285Y-43390476D01*
X155789047Y-43438095D01*
X156931904Y-43580952D02*
X156836666Y-43533333D01*
X156789047Y-43485714D01*
X156741428Y-43390476D01*
X156741428Y-43342857D01*
X156789047Y-43247619D01*
X156836666Y-43200000D01*
X156931904Y-43152380D01*
X157122380Y-43152380D01*
X157217619Y-43200000D01*
X157265238Y-43247619D01*
X157312857Y-43342857D01*
X157312857Y-43390476D01*
X157265238Y-43485714D01*
X157217619Y-43533333D01*
X157122380Y-43580952D01*
X156931904Y-43580952D01*
X156836666Y-43628571D01*
X156789047Y-43676190D01*
X156741428Y-43771428D01*
X156741428Y-43961904D01*
X156789047Y-44057142D01*
X156836666Y-44104761D01*
X156931904Y-44152380D01*
X157122380Y-44152380D01*
X157217619Y-44104761D01*
X157265238Y-44057142D01*
X157312857Y-43961904D01*
X157312857Y-43771428D01*
X157265238Y-43676190D01*
X157217619Y-43628571D01*
X157122380Y-43580952D01*
G04 #@! TO.C,J19*
X155360476Y-45692380D02*
X155360476Y-46406666D01*
X155312857Y-46549523D01*
X155217619Y-46644761D01*
X155074761Y-46692380D01*
X154979523Y-46692380D01*
X156360476Y-46692380D02*
X155789047Y-46692380D01*
X156074761Y-46692380D02*
X156074761Y-45692380D01*
X155979523Y-45835238D01*
X155884285Y-45930476D01*
X155789047Y-45978095D01*
X156836666Y-46692380D02*
X157027142Y-46692380D01*
X157122380Y-46644761D01*
X157170000Y-46597142D01*
X157265238Y-46454285D01*
X157312857Y-46263809D01*
X157312857Y-45882857D01*
X157265238Y-45787619D01*
X157217619Y-45740000D01*
X157122380Y-45692380D01*
X156931904Y-45692380D01*
X156836666Y-45740000D01*
X156789047Y-45787619D01*
X156741428Y-45882857D01*
X156741428Y-46120952D01*
X156789047Y-46216190D01*
X156836666Y-46263809D01*
X156931904Y-46311428D01*
X157122380Y-46311428D01*
X157217619Y-46263809D01*
X157265238Y-46216190D01*
X157312857Y-46120952D01*
G04 #@! TO.C,J20*
X155360476Y-48232380D02*
X155360476Y-48946666D01*
X155312857Y-49089523D01*
X155217619Y-49184761D01*
X155074761Y-49232380D01*
X154979523Y-49232380D01*
X155789047Y-48327619D02*
X155836666Y-48280000D01*
X155931904Y-48232380D01*
X156170000Y-48232380D01*
X156265238Y-48280000D01*
X156312857Y-48327619D01*
X156360476Y-48422857D01*
X156360476Y-48518095D01*
X156312857Y-48660952D01*
X155741428Y-49232380D01*
X156360476Y-49232380D01*
X156979523Y-48232380D02*
X157074761Y-48232380D01*
X157170000Y-48280000D01*
X157217619Y-48327619D01*
X157265238Y-48422857D01*
X157312857Y-48613333D01*
X157312857Y-48851428D01*
X157265238Y-49041904D01*
X157217619Y-49137142D01*
X157170000Y-49184761D01*
X157074761Y-49232380D01*
X156979523Y-49232380D01*
X156884285Y-49184761D01*
X156836666Y-49137142D01*
X156789047Y-49041904D01*
X156741428Y-48851428D01*
X156741428Y-48613333D01*
X156789047Y-48422857D01*
X156836666Y-48327619D01*
X156884285Y-48280000D01*
X156979523Y-48232380D01*
G04 #@! TO.C,J21*
X125360476Y-56672380D02*
X125360476Y-57386666D01*
X125312857Y-57529523D01*
X125217619Y-57624761D01*
X125074761Y-57672380D01*
X124979523Y-57672380D01*
X125789047Y-56767619D02*
X125836666Y-56720000D01*
X125931904Y-56672380D01*
X126170000Y-56672380D01*
X126265238Y-56720000D01*
X126312857Y-56767619D01*
X126360476Y-56862857D01*
X126360476Y-56958095D01*
X126312857Y-57100952D01*
X125741428Y-57672380D01*
X126360476Y-57672380D01*
X127312857Y-57672380D02*
X126741428Y-57672380D01*
X127027142Y-57672380D02*
X127027142Y-56672380D01*
X126931904Y-56815238D01*
X126836666Y-56910476D01*
X126741428Y-56958095D01*
G04 #@! TO.C,J22*
X125360476Y-59212380D02*
X125360476Y-59926666D01*
X125312857Y-60069523D01*
X125217619Y-60164761D01*
X125074761Y-60212380D01*
X124979523Y-60212380D01*
X125789047Y-59307619D02*
X125836666Y-59260000D01*
X125931904Y-59212380D01*
X126170000Y-59212380D01*
X126265238Y-59260000D01*
X126312857Y-59307619D01*
X126360476Y-59402857D01*
X126360476Y-59498095D01*
X126312857Y-59640952D01*
X125741428Y-60212380D01*
X126360476Y-60212380D01*
X126741428Y-59307619D02*
X126789047Y-59260000D01*
X126884285Y-59212380D01*
X127122380Y-59212380D01*
X127217619Y-59260000D01*
X127265238Y-59307619D01*
X127312857Y-59402857D01*
X127312857Y-59498095D01*
X127265238Y-59640952D01*
X126693809Y-60212380D01*
X127312857Y-60212380D01*
G04 #@! TO.C,J23*
X125360476Y-61752380D02*
X125360476Y-62466666D01*
X125312857Y-62609523D01*
X125217619Y-62704761D01*
X125074761Y-62752380D01*
X124979523Y-62752380D01*
X125789047Y-61847619D02*
X125836666Y-61800000D01*
X125931904Y-61752380D01*
X126170000Y-61752380D01*
X126265238Y-61800000D01*
X126312857Y-61847619D01*
X126360476Y-61942857D01*
X126360476Y-62038095D01*
X126312857Y-62180952D01*
X125741428Y-62752380D01*
X126360476Y-62752380D01*
X126693809Y-61752380D02*
X127312857Y-61752380D01*
X126979523Y-62133333D01*
X127122380Y-62133333D01*
X127217619Y-62180952D01*
X127265238Y-62228571D01*
X127312857Y-62323809D01*
X127312857Y-62561904D01*
X127265238Y-62657142D01*
X127217619Y-62704761D01*
X127122380Y-62752380D01*
X126836666Y-62752380D01*
X126741428Y-62704761D01*
X126693809Y-62657142D01*
G04 #@! TO.C,J24*
X125360476Y-64292380D02*
X125360476Y-65006666D01*
X125312857Y-65149523D01*
X125217619Y-65244761D01*
X125074761Y-65292380D01*
X124979523Y-65292380D01*
X125789047Y-64387619D02*
X125836666Y-64340000D01*
X125931904Y-64292380D01*
X126170000Y-64292380D01*
X126265238Y-64340000D01*
X126312857Y-64387619D01*
X126360476Y-64482857D01*
X126360476Y-64578095D01*
X126312857Y-64720952D01*
X125741428Y-65292380D01*
X126360476Y-65292380D01*
X127217619Y-64625714D02*
X127217619Y-65292380D01*
X126979523Y-64244761D02*
X126741428Y-64959047D01*
X127360476Y-64959047D01*
G04 #@! TO.C,J25*
X145360476Y-56672380D02*
X145360476Y-57386666D01*
X145312857Y-57529523D01*
X145217619Y-57624761D01*
X145074761Y-57672380D01*
X144979523Y-57672380D01*
X145789047Y-56767619D02*
X145836666Y-56720000D01*
X145931904Y-56672380D01*
X146170000Y-56672380D01*
X146265238Y-56720000D01*
X146312857Y-56767619D01*
X146360476Y-56862857D01*
X146360476Y-56958095D01*
X146312857Y-57100952D01*
X145741428Y-57672380D01*
X146360476Y-57672380D01*
X147265238Y-56672380D02*
X146789047Y-56672380D01*
X146741428Y-57148571D01*
X146789047Y-57100952D01*
X146884285Y-57053333D01*
X147122380Y-57053333D01*
X147217619Y-57100952D01*
X147265238Y-57148571D01*
X147312857Y-57243809D01*
X147312857Y-57481904D01*
X147265238Y-57577142D01*
X147217619Y-57624761D01*
X147122380Y-57672380D01*
X146884285Y-57672380D01*
X146789047Y-57624761D01*
X146741428Y-57577142D01*
G04 #@! TO.C,J26*
X145360476Y-59212380D02*
X145360476Y-59926666D01*
X145312857Y-60069523D01*
X145217619Y-60164761D01*
X145074761Y-60212380D01*
X144979523Y-60212380D01*
X145789047Y-59307619D02*
X145836666Y-59260000D01*
X145931904Y-59212380D01*
X146170000Y-59212380D01*
X146265238Y-59260000D01*
X146312857Y-59307619D01*
X146360476Y-59402857D01*
X146360476Y-59498095D01*
X146312857Y-59640952D01*
X145741428Y-60212380D01*
X146360476Y-60212380D01*
X147217619Y-59212380D02*
X147027142Y-59212380D01*
X146931904Y-59260000D01*
X146884285Y-59307619D01*
X146789047Y-59450476D01*
X146741428Y-59640952D01*
X146741428Y-60021904D01*
X146789047Y-60117142D01*
X146836666Y-60164761D01*
X146931904Y-60212380D01*
X147122380Y-60212380D01*
X147217619Y-60164761D01*
X147265238Y-60117142D01*
X147312857Y-60021904D01*
X147312857Y-59783809D01*
X147265238Y-59688571D01*
X147217619Y-59640952D01*
X147122380Y-59593333D01*
X146931904Y-59593333D01*
X146836666Y-59640952D01*
X146789047Y-59688571D01*
X146741428Y-59783809D01*
G04 #@! TO.C,J27*
X145360476Y-61752380D02*
X145360476Y-62466666D01*
X145312857Y-62609523D01*
X145217619Y-62704761D01*
X145074761Y-62752380D01*
X144979523Y-62752380D01*
X145789047Y-61847619D02*
X145836666Y-61800000D01*
X145931904Y-61752380D01*
X146170000Y-61752380D01*
X146265238Y-61800000D01*
X146312857Y-61847619D01*
X146360476Y-61942857D01*
X146360476Y-62038095D01*
X146312857Y-62180952D01*
X145741428Y-62752380D01*
X146360476Y-62752380D01*
X146693809Y-61752380D02*
X147360476Y-61752380D01*
X146931904Y-62752380D01*
G04 #@! TO.C,J28*
X145360476Y-64292380D02*
X145360476Y-65006666D01*
X145312857Y-65149523D01*
X145217619Y-65244761D01*
X145074761Y-65292380D01*
X144979523Y-65292380D01*
X145789047Y-64387619D02*
X145836666Y-64340000D01*
X145931904Y-64292380D01*
X146170000Y-64292380D01*
X146265238Y-64340000D01*
X146312857Y-64387619D01*
X146360476Y-64482857D01*
X146360476Y-64578095D01*
X146312857Y-64720952D01*
X145741428Y-65292380D01*
X146360476Y-65292380D01*
X146931904Y-64720952D02*
X146836666Y-64673333D01*
X146789047Y-64625714D01*
X146741428Y-64530476D01*
X146741428Y-64482857D01*
X146789047Y-64387619D01*
X146836666Y-64340000D01*
X146931904Y-64292380D01*
X147122380Y-64292380D01*
X147217619Y-64340000D01*
X147265238Y-64387619D01*
X147312857Y-64482857D01*
X147312857Y-64530476D01*
X147265238Y-64625714D01*
X147217619Y-64673333D01*
X147122380Y-64720952D01*
X146931904Y-64720952D01*
X146836666Y-64768571D01*
X146789047Y-64816190D01*
X146741428Y-64911428D01*
X146741428Y-65101904D01*
X146789047Y-65197142D01*
X146836666Y-65244761D01*
X146931904Y-65292380D01*
X147122380Y-65292380D01*
X147217619Y-65244761D01*
X147265238Y-65197142D01*
X147312857Y-65101904D01*
X147312857Y-64911428D01*
X147265238Y-64816190D01*
X147217619Y-64768571D01*
X147122380Y-64720952D01*
G04 #@! TO.C,J29*
X135360476Y-66832380D02*
X135360476Y-67546666D01*
X135312857Y-67689523D01*
X135217619Y-67784761D01*
X135074761Y-67832380D01*
X134979523Y-67832380D01*
X135789047Y-66927619D02*
X135836666Y-66880000D01*
X135931904Y-66832380D01*
X136170000Y-66832380D01*
X136265238Y-66880000D01*
X136312857Y-66927619D01*
X136360476Y-67022857D01*
X136360476Y-67118095D01*
X136312857Y-67260952D01*
X135741428Y-67832380D01*
X136360476Y-67832380D01*
X136836666Y-67832380D02*
X137027142Y-67832380D01*
X137122380Y-67784761D01*
X137170000Y-67737142D01*
X137265238Y-67594285D01*
X137312857Y-67403809D01*
X137312857Y-67022857D01*
X137265238Y-66927619D01*
X137217619Y-66880000D01*
X137122380Y-66832380D01*
X136931904Y-66832380D01*
X136836666Y-66880000D01*
X136789047Y-66927619D01*
X136741428Y-67022857D01*
X136741428Y-67260952D01*
X136789047Y-67356190D01*
X136836666Y-67403809D01*
X136931904Y-67451428D01*
X137122380Y-67451428D01*
X137217619Y-67403809D01*
X137265238Y-67356190D01*
X137312857Y-67260952D01*
G04 #@! TO.C,J30*
X135360476Y-69372380D02*
X135360476Y-70086666D01*
X135312857Y-70229523D01*
X135217619Y-70324761D01*
X135074761Y-70372380D01*
X134979523Y-70372380D01*
X135741428Y-69372380D02*
X136360476Y-69372380D01*
X136027142Y-69753333D01*
X136170000Y-69753333D01*
X136265238Y-69800952D01*
X136312857Y-69848571D01*
X136360476Y-69943809D01*
X136360476Y-70181904D01*
X136312857Y-70277142D01*
X136265238Y-70324761D01*
X136170000Y-70372380D01*
X135884285Y-70372380D01*
X135789047Y-70324761D01*
X135741428Y-70277142D01*
X136979523Y-69372380D02*
X137074761Y-69372380D01*
X137170000Y-69420000D01*
X137217619Y-69467619D01*
X137265238Y-69562857D01*
X137312857Y-69753333D01*
X137312857Y-69991428D01*
X137265238Y-70181904D01*
X137217619Y-70277142D01*
X137170000Y-70324761D01*
X137074761Y-70372380D01*
X136979523Y-70372380D01*
X136884285Y-70324761D01*
X136836666Y-70277142D01*
X136789047Y-70181904D01*
X136741428Y-69991428D01*
X136741428Y-69753333D01*
X136789047Y-69562857D01*
X136836666Y-69467619D01*
X136884285Y-69420000D01*
X136979523Y-69372380D01*
G04 #@! TO.C,J31*
X135360476Y-71912380D02*
X135360476Y-72626666D01*
X135312857Y-72769523D01*
X135217619Y-72864761D01*
X135074761Y-72912380D01*
X134979523Y-72912380D01*
X135741428Y-71912380D02*
X136360476Y-71912380D01*
X136027142Y-72293333D01*
X136170000Y-72293333D01*
X136265238Y-72340952D01*
X136312857Y-72388571D01*
X136360476Y-72483809D01*
X136360476Y-72721904D01*
X136312857Y-72817142D01*
X136265238Y-72864761D01*
X136170000Y-72912380D01*
X135884285Y-72912380D01*
X135789047Y-72864761D01*
X135741428Y-72817142D01*
X137312857Y-72912380D02*
X136741428Y-72912380D01*
X137027142Y-72912380D02*
X137027142Y-71912380D01*
X136931904Y-72055238D01*
X136836666Y-72150476D01*
X136741428Y-72198095D01*
G04 #@! TO.C,J32*
X135360476Y-74452380D02*
X135360476Y-75166666D01*
X135312857Y-75309523D01*
X135217619Y-75404761D01*
X135074761Y-75452380D01*
X134979523Y-75452380D01*
X135741428Y-74452380D02*
X136360476Y-74452380D01*
X136027142Y-74833333D01*
X136170000Y-74833333D01*
X136265238Y-74880952D01*
X136312857Y-74928571D01*
X136360476Y-75023809D01*
X136360476Y-75261904D01*
X136312857Y-75357142D01*
X136265238Y-75404761D01*
X136170000Y-75452380D01*
X135884285Y-75452380D01*
X135789047Y-75404761D01*
X135741428Y-75357142D01*
X136741428Y-74547619D02*
X136789047Y-74500000D01*
X136884285Y-74452380D01*
X137122380Y-74452380D01*
X137217619Y-74500000D01*
X137265238Y-74547619D01*
X137312857Y-74642857D01*
X137312857Y-74738095D01*
X137265238Y-74880952D01*
X136693809Y-75452380D01*
X137312857Y-75452380D01*
G04 #@! TO.C,J33*
X155360476Y-66832380D02*
X155360476Y-67546666D01*
X155312857Y-67689523D01*
X155217619Y-67784761D01*
X155074761Y-67832380D01*
X154979523Y-67832380D01*
X155741428Y-66832380D02*
X156360476Y-66832380D01*
X156027142Y-67213333D01*
X156170000Y-67213333D01*
X156265238Y-67260952D01*
X156312857Y-67308571D01*
X156360476Y-67403809D01*
X156360476Y-67641904D01*
X156312857Y-67737142D01*
X156265238Y-67784761D01*
X156170000Y-67832380D01*
X155884285Y-67832380D01*
X155789047Y-67784761D01*
X155741428Y-67737142D01*
X156693809Y-66832380D02*
X157312857Y-66832380D01*
X156979523Y-67213333D01*
X157122380Y-67213333D01*
X157217619Y-67260952D01*
X157265238Y-67308571D01*
X157312857Y-67403809D01*
X157312857Y-67641904D01*
X157265238Y-67737142D01*
X157217619Y-67784761D01*
X157122380Y-67832380D01*
X156836666Y-67832380D01*
X156741428Y-67784761D01*
X156693809Y-67737142D01*
G04 #@! TO.C,J34*
X155360476Y-69372380D02*
X155360476Y-70086666D01*
X155312857Y-70229523D01*
X155217619Y-70324761D01*
X155074761Y-70372380D01*
X154979523Y-70372380D01*
X155741428Y-69372380D02*
X156360476Y-69372380D01*
X156027142Y-69753333D01*
X156170000Y-69753333D01*
X156265238Y-69800952D01*
X156312857Y-69848571D01*
X156360476Y-69943809D01*
X156360476Y-70181904D01*
X156312857Y-70277142D01*
X156265238Y-70324761D01*
X156170000Y-70372380D01*
X155884285Y-70372380D01*
X155789047Y-70324761D01*
X155741428Y-70277142D01*
X157217619Y-69705714D02*
X157217619Y-70372380D01*
X156979523Y-69324761D02*
X156741428Y-70039047D01*
X157360476Y-70039047D01*
G04 #@! TO.C,J35*
X155360476Y-71912380D02*
X155360476Y-72626666D01*
X155312857Y-72769523D01*
X155217619Y-72864761D01*
X155074761Y-72912380D01*
X154979523Y-72912380D01*
X155741428Y-71912380D02*
X156360476Y-71912380D01*
X156027142Y-72293333D01*
X156170000Y-72293333D01*
X156265238Y-72340952D01*
X156312857Y-72388571D01*
X156360476Y-72483809D01*
X156360476Y-72721904D01*
X156312857Y-72817142D01*
X156265238Y-72864761D01*
X156170000Y-72912380D01*
X155884285Y-72912380D01*
X155789047Y-72864761D01*
X155741428Y-72817142D01*
X157265238Y-71912380D02*
X156789047Y-71912380D01*
X156741428Y-72388571D01*
X156789047Y-72340952D01*
X156884285Y-72293333D01*
X157122380Y-72293333D01*
X157217619Y-72340952D01*
X157265238Y-72388571D01*
X157312857Y-72483809D01*
X157312857Y-72721904D01*
X157265238Y-72817142D01*
X157217619Y-72864761D01*
X157122380Y-72912380D01*
X156884285Y-72912380D01*
X156789047Y-72864761D01*
X156741428Y-72817142D01*
G04 #@! TO.C,J36*
X155360476Y-74452380D02*
X155360476Y-75166666D01*
X155312857Y-75309523D01*
X155217619Y-75404761D01*
X155074761Y-75452380D01*
X154979523Y-75452380D01*
X155741428Y-74452380D02*
X156360476Y-74452380D01*
X156027142Y-74833333D01*
X156170000Y-74833333D01*
X156265238Y-74880952D01*
X156312857Y-74928571D01*
X156360476Y-75023809D01*
X156360476Y-75261904D01*
X156312857Y-75357142D01*
X156265238Y-75404761D01*
X156170000Y-75452380D01*
X155884285Y-75452380D01*
X155789047Y-75404761D01*
X155741428Y-75357142D01*
X157217619Y-74452380D02*
X157027142Y-74452380D01*
X156931904Y-74500000D01*
X156884285Y-74547619D01*
X156789047Y-74690476D01*
X156741428Y-74880952D01*
X156741428Y-75261904D01*
X156789047Y-75357142D01*
X156836666Y-75404761D01*
X156931904Y-75452380D01*
X157122380Y-75452380D01*
X157217619Y-75404761D01*
X157265238Y-75357142D01*
X157312857Y-75261904D01*
X157312857Y-75023809D01*
X157265238Y-74928571D01*
X157217619Y-74880952D01*
X157122380Y-74833333D01*
X156931904Y-74833333D01*
X156836666Y-74880952D01*
X156789047Y-74928571D01*
X156741428Y-75023809D01*
G04 #@! TD*
%LPC*%
D10*
X110142857Y-103055714D02*
X111142857Y-103055714D01*
X111571428Y-104627142D02*
X110142857Y-104627142D01*
X110142857Y-101627142D01*
X111571428Y-101627142D01*
X113285714Y-104627142D02*
X113000000Y-104484285D01*
X112857142Y-104198571D01*
X112857142Y-101627142D01*
X115571428Y-104484285D02*
X115285714Y-104627142D01*
X114714285Y-104627142D01*
X114428571Y-104484285D01*
X114285714Y-104198571D01*
X114285714Y-103055714D01*
X114428571Y-102770000D01*
X114714285Y-102627142D01*
X115285714Y-102627142D01*
X115571428Y-102770000D01*
X115714285Y-103055714D01*
X115714285Y-103341428D01*
X114285714Y-103627142D01*
X118428571Y-104627142D02*
X117000000Y-104627142D01*
X117000000Y-101627142D01*
X120714285Y-104627142D02*
X120714285Y-103055714D01*
X120571428Y-102770000D01*
X120285714Y-102627142D01*
X119714285Y-102627142D01*
X119428571Y-102770000D01*
X120714285Y-104484285D02*
X120428571Y-104627142D01*
X119714285Y-104627142D01*
X119428571Y-104484285D01*
X119285714Y-104198571D01*
X119285714Y-103912857D01*
X119428571Y-103627142D01*
X119714285Y-103484285D01*
X120428571Y-103484285D01*
X120714285Y-103341428D01*
X122142857Y-104627142D02*
X122142857Y-101627142D01*
X122142857Y-102770000D02*
X122428571Y-102627142D01*
X123000000Y-102627142D01*
X123285714Y-102770000D01*
X123428571Y-102912857D01*
X123571428Y-103198571D01*
X123571428Y-104055714D01*
X123428571Y-104341428D01*
X123285714Y-104484285D01*
X123000000Y-104627142D01*
X122428571Y-104627142D01*
X122142857Y-104484285D01*
X124142857Y-104912857D02*
X126428571Y-104912857D01*
X126857142Y-102627142D02*
X127571428Y-104627142D01*
X128285714Y-102627142D01*
X129285714Y-101912857D02*
X129428571Y-101770000D01*
X129714285Y-101627142D01*
X130428571Y-101627142D01*
X130714285Y-101770000D01*
X130857142Y-101912857D01*
X131000000Y-102198571D01*
X131000000Y-102484285D01*
X130857142Y-102912857D01*
X129142857Y-104627142D01*
X131000000Y-104627142D01*
X134571428Y-103484285D02*
X136857142Y-103484285D01*
X141571428Y-103055714D02*
X142000000Y-103198571D01*
X142142857Y-103341428D01*
X142285714Y-103627142D01*
X142285714Y-104055714D01*
X142142857Y-104341428D01*
X142000000Y-104484285D01*
X141714285Y-104627142D01*
X140571428Y-104627142D01*
X140571428Y-101627142D01*
X141571428Y-101627142D01*
X141857142Y-101770000D01*
X142000000Y-101912857D01*
X142142857Y-102198571D01*
X142142857Y-102484285D01*
X142000000Y-102770000D01*
X141857142Y-102912857D01*
X141571428Y-103055714D01*
X140571428Y-103055714D01*
X144857142Y-102627142D02*
X144857142Y-104627142D01*
X143571428Y-102627142D02*
X143571428Y-104198571D01*
X143714285Y-104484285D01*
X144000000Y-104627142D01*
X144428571Y-104627142D01*
X144714285Y-104484285D01*
X144857142Y-104341428D01*
X146142857Y-104484285D02*
X146428571Y-104627142D01*
X147000000Y-104627142D01*
X147285714Y-104484285D01*
X147428571Y-104198571D01*
X147428571Y-104055714D01*
X147285714Y-103770000D01*
X147000000Y-103627142D01*
X146571428Y-103627142D01*
X146285714Y-103484285D01*
X146142857Y-103198571D01*
X146142857Y-103055714D01*
X146285714Y-102770000D01*
X146571428Y-102627142D01*
X147000000Y-102627142D01*
X147285714Y-102770000D01*
X150285714Y-104627142D02*
X148571428Y-104627142D01*
X149428571Y-104627142D02*
X149428571Y-101627142D01*
X149142857Y-102055714D01*
X148857142Y-102341428D01*
X148571428Y-102484285D01*
X152142857Y-101627142D02*
X152428571Y-101627142D01*
X152714285Y-101770000D01*
X152857142Y-101912857D01*
X153000000Y-102198571D01*
X153142857Y-102770000D01*
X153142857Y-103484285D01*
X153000000Y-104055714D01*
X152857142Y-104341428D01*
X152714285Y-104484285D01*
X152428571Y-104627142D01*
X152142857Y-104627142D01*
X151857142Y-104484285D01*
X151714285Y-104341428D01*
X151571428Y-104055714D01*
X151428571Y-103484285D01*
X151428571Y-102770000D01*
X151571428Y-102198571D01*
X151714285Y-101912857D01*
X151857142Y-101770000D01*
X152142857Y-101627142D01*
X155000000Y-101627142D02*
X155285714Y-101627142D01*
X155571428Y-101770000D01*
X155714285Y-101912857D01*
X155857142Y-102198571D01*
X156000000Y-102770000D01*
X156000000Y-103484285D01*
X155857142Y-104055714D01*
X155714285Y-104341428D01*
X155571428Y-104484285D01*
X155285714Y-104627142D01*
X155000000Y-104627142D01*
X154714285Y-104484285D01*
X154571428Y-104341428D01*
X154428571Y-104055714D01*
X154285714Y-103484285D01*
X154285714Y-102770000D01*
X154428571Y-102198571D01*
X154571428Y-101912857D01*
X154714285Y-101770000D01*
X155000000Y-101627142D01*
X110142857Y-53055714D02*
X111142857Y-53055714D01*
X111571428Y-54627142D02*
X110142857Y-54627142D01*
X110142857Y-51627142D01*
X111571428Y-51627142D01*
X113285714Y-54627142D02*
X113000000Y-54484285D01*
X112857142Y-54198571D01*
X112857142Y-51627142D01*
X115571428Y-54484285D02*
X115285714Y-54627142D01*
X114714285Y-54627142D01*
X114428571Y-54484285D01*
X114285714Y-54198571D01*
X114285714Y-53055714D01*
X114428571Y-52770000D01*
X114714285Y-52627142D01*
X115285714Y-52627142D01*
X115571428Y-52770000D01*
X115714285Y-53055714D01*
X115714285Y-53341428D01*
X114285714Y-53627142D01*
X118428571Y-54627142D02*
X117000000Y-54627142D01*
X117000000Y-51627142D01*
X120714285Y-54627142D02*
X120714285Y-53055714D01*
X120571428Y-52770000D01*
X120285714Y-52627142D01*
X119714285Y-52627142D01*
X119428571Y-52770000D01*
X120714285Y-54484285D02*
X120428571Y-54627142D01*
X119714285Y-54627142D01*
X119428571Y-54484285D01*
X119285714Y-54198571D01*
X119285714Y-53912857D01*
X119428571Y-53627142D01*
X119714285Y-53484285D01*
X120428571Y-53484285D01*
X120714285Y-53341428D01*
X122142857Y-54627142D02*
X122142857Y-51627142D01*
X122142857Y-52770000D02*
X122428571Y-52627142D01*
X123000000Y-52627142D01*
X123285714Y-52770000D01*
X123428571Y-52912857D01*
X123571428Y-53198571D01*
X123571428Y-54055714D01*
X123428571Y-54341428D01*
X123285714Y-54484285D01*
X123000000Y-54627142D01*
X122428571Y-54627142D01*
X122142857Y-54484285D01*
X124142857Y-54912857D02*
X126428571Y-54912857D01*
X126857142Y-52627142D02*
X127571428Y-54627142D01*
X128285714Y-52627142D01*
X129285714Y-51912857D02*
X129428571Y-51770000D01*
X129714285Y-51627142D01*
X130428571Y-51627142D01*
X130714285Y-51770000D01*
X130857142Y-51912857D01*
X131000000Y-52198571D01*
X131000000Y-52484285D01*
X130857142Y-52912857D01*
X129142857Y-54627142D01*
X131000000Y-54627142D01*
X134571428Y-53484285D02*
X136857142Y-53484285D01*
X141571428Y-53055714D02*
X142000000Y-53198571D01*
X142142857Y-53341428D01*
X142285714Y-53627142D01*
X142285714Y-54055714D01*
X142142857Y-54341428D01*
X142000000Y-54484285D01*
X141714285Y-54627142D01*
X140571428Y-54627142D01*
X140571428Y-51627142D01*
X141571428Y-51627142D01*
X141857142Y-51770000D01*
X142000000Y-51912857D01*
X142142857Y-52198571D01*
X142142857Y-52484285D01*
X142000000Y-52770000D01*
X141857142Y-52912857D01*
X141571428Y-53055714D01*
X140571428Y-53055714D01*
X144857142Y-52627142D02*
X144857142Y-54627142D01*
X143571428Y-52627142D02*
X143571428Y-54198571D01*
X143714285Y-54484285D01*
X144000000Y-54627142D01*
X144428571Y-54627142D01*
X144714285Y-54484285D01*
X144857142Y-54341428D01*
X146142857Y-54484285D02*
X146428571Y-54627142D01*
X147000000Y-54627142D01*
X147285714Y-54484285D01*
X147428571Y-54198571D01*
X147428571Y-54055714D01*
X147285714Y-53770000D01*
X147000000Y-53627142D01*
X146571428Y-53627142D01*
X146285714Y-53484285D01*
X146142857Y-53198571D01*
X146142857Y-53055714D01*
X146285714Y-52770000D01*
X146571428Y-52627142D01*
X147000000Y-52627142D01*
X147285714Y-52770000D01*
X150285714Y-54627142D02*
X148571428Y-54627142D01*
X149428571Y-54627142D02*
X149428571Y-51627142D01*
X149142857Y-52055714D01*
X148857142Y-52341428D01*
X148571428Y-52484285D01*
X152142857Y-51627142D02*
X152428571Y-51627142D01*
X152714285Y-51770000D01*
X152857142Y-51912857D01*
X153000000Y-52198571D01*
X153142857Y-52770000D01*
X153142857Y-53484285D01*
X153000000Y-54055714D01*
X152857142Y-54341428D01*
X152714285Y-54484285D01*
X152428571Y-54627142D01*
X152142857Y-54627142D01*
X151857142Y-54484285D01*
X151714285Y-54341428D01*
X151571428Y-54055714D01*
X151428571Y-53484285D01*
X151428571Y-52770000D01*
X151571428Y-52198571D01*
X151714285Y-51912857D01*
X151857142Y-51770000D01*
X152142857Y-51627142D01*
X155000000Y-51627142D02*
X155285714Y-51627142D01*
X155571428Y-51770000D01*
X155714285Y-51912857D01*
X155857142Y-52198571D01*
X156000000Y-52770000D01*
X156000000Y-53484285D01*
X155857142Y-54055714D01*
X155714285Y-54341428D01*
X155571428Y-54484285D01*
X155285714Y-54627142D01*
X155000000Y-54627142D01*
X154714285Y-54484285D01*
X154571428Y-54341428D01*
X154428571Y-54055714D01*
X154285714Y-53484285D01*
X154285714Y-52770000D01*
X154428571Y-52198571D01*
X154571428Y-51912857D01*
X154714285Y-51770000D01*
X155000000Y-51627142D01*
D16*
G04 #@! TO.C,LO_1*
G36*
X176677200Y-100611600D02*
X159710000Y-100611600D01*
X159710000Y-105336000D01*
X176677200Y-105336000D01*
X176677200Y-100611600D01*
G37*
X176677200Y-100611600D02*
X159710000Y-100611600D01*
X159710000Y-105336000D01*
X176677200Y-105336000D01*
X176677200Y-100611600D01*
G36*
X176677200Y-50611600D02*
X159710000Y-50611600D01*
X159710000Y-55336000D01*
X176677200Y-55336000D01*
X176677200Y-50611600D01*
G37*
X176677200Y-50611600D02*
X159710000Y-50611600D01*
X159710000Y-55336000D01*
X176677200Y-55336000D01*
X176677200Y-50611600D01*
G04 #@! TD*
D17*
G04 #@! TO.C,J31*
X139000000Y-122460000D03*
G04 #@! TD*
G04 #@! TO.C,J34*
X159000000Y-119920000D03*
G04 #@! TD*
G04 #@! TO.C,J30*
X139000000Y-119920000D03*
G04 #@! TD*
G04 #@! TO.C,J32*
X139000000Y-125000000D03*
G04 #@! TD*
G04 #@! TO.C,J35*
X159000000Y-122460000D03*
G04 #@! TD*
G04 #@! TO.C,J33*
X159000000Y-117380000D03*
G04 #@! TD*
G04 #@! TO.C,J29*
X139000000Y-117380000D03*
G04 #@! TD*
G04 #@! TO.C,J36*
X159000000Y-125000000D03*
G04 #@! TD*
G04 #@! TO.C,J12*
X149000000Y-88620000D03*
G04 #@! TD*
G04 #@! TO.C,J19*
X159000000Y-96240000D03*
G04 #@! TD*
G04 #@! TO.C,J28*
X149000000Y-114840000D03*
G04 #@! TD*
G04 #@! TO.C,J27*
X149000000Y-112300000D03*
G04 #@! TD*
G04 #@! TO.C,J24*
X129000000Y-114840000D03*
G04 #@! TD*
G04 #@! TO.C,J21*
X129000000Y-107220000D03*
G04 #@! TD*
G04 #@! TO.C,J20*
X159000000Y-98780000D03*
G04 #@! TD*
G04 #@! TO.C,J17*
X159000000Y-91160000D03*
G04 #@! TD*
G04 #@! TO.C,J14*
X139000000Y-93700000D03*
G04 #@! TD*
G04 #@! TO.C,J22*
X129000000Y-109760000D03*
G04 #@! TD*
G04 #@! TO.C,J15*
X139000000Y-96240000D03*
G04 #@! TD*
G04 #@! TO.C,J26*
X149000000Y-109760000D03*
G04 #@! TD*
G04 #@! TO.C,J11*
X149000000Y-86080000D03*
G04 #@! TD*
G04 #@! TO.C,J25*
X149000000Y-107220000D03*
G04 #@! TD*
G04 #@! TO.C,J23*
X129000000Y-112300000D03*
G04 #@! TD*
G04 #@! TO.C,J13*
X139000000Y-91160000D03*
G04 #@! TD*
G04 #@! TO.C,J18*
X159000000Y-93700000D03*
G04 #@! TD*
G04 #@! TO.C,J16*
X139000000Y-98780000D03*
G04 #@! TD*
G04 #@! TO.C,J2*
X100540000Y-125000000D03*
D18*
X98000000Y-125000000D03*
X100540000Y-122460000D03*
X98000000Y-122460000D03*
X100540000Y-119920000D03*
X98000000Y-119920000D03*
X100540000Y-117380000D03*
X98000000Y-117380000D03*
X100540000Y-114840000D03*
X98000000Y-114840000D03*
X100540000Y-112300000D03*
X98000000Y-112300000D03*
X100540000Y-109760000D03*
X98000000Y-109760000D03*
X100540000Y-107220000D03*
X98000000Y-107220000D03*
G04 #@! TD*
G04 #@! TO.C,J3*
X188000000Y-81000000D03*
X185460000Y-81000000D03*
X188000000Y-83540000D03*
X185460000Y-83540000D03*
X188000000Y-86080000D03*
X185460000Y-86080000D03*
X188000000Y-88620000D03*
X185460000Y-88620000D03*
X188000000Y-91160000D03*
X185460000Y-91160000D03*
X188000000Y-93700000D03*
X185460000Y-93700000D03*
X188000000Y-96240000D03*
X185460000Y-96240000D03*
X188000000Y-98780000D03*
D17*
X185460000Y-98780000D03*
G04 #@! TD*
G04 #@! TO.C,J5*
X129000000Y-81000000D03*
G04 #@! TD*
D19*
G04 #@! TO.C,LO_1*
X164764600Y-102084800D03*
D20*
X172384600Y-102084800D03*
D21*
G36*
X167979653Y-101135006D02*
X168003970Y-101138613D01*
X168027816Y-101144586D01*
X168050962Y-101152868D01*
X168073185Y-101163379D01*
X168094270Y-101176017D01*
X168114016Y-101190661D01*
X168132230Y-101207170D01*
X168148739Y-101225384D01*
X168163383Y-101245130D01*
X168176021Y-101266215D01*
X168186532Y-101288438D01*
X168194814Y-101311584D01*
X168200787Y-101335430D01*
X168204394Y-101359747D01*
X168205600Y-101384300D01*
X168205600Y-102785300D01*
X168204394Y-102809853D01*
X168200787Y-102834170D01*
X168194814Y-102858016D01*
X168186532Y-102881162D01*
X168176021Y-102903385D01*
X168163383Y-102924470D01*
X168148739Y-102944216D01*
X168132230Y-102962430D01*
X168114016Y-102978939D01*
X168094270Y-102993583D01*
X168073185Y-103006221D01*
X168050962Y-103016732D01*
X168027816Y-103025014D01*
X168003970Y-103030987D01*
X167979653Y-103034594D01*
X167955100Y-103035800D01*
X167454100Y-103035800D01*
X167429547Y-103034594D01*
X167405230Y-103030987D01*
X167381384Y-103025014D01*
X167358238Y-103016732D01*
X167336015Y-103006221D01*
X167314930Y-102993583D01*
X167295184Y-102978939D01*
X167276970Y-102962430D01*
X167260461Y-102944216D01*
X167245817Y-102924470D01*
X167233179Y-102903385D01*
X167222668Y-102881162D01*
X167214386Y-102858016D01*
X167208413Y-102834170D01*
X167204806Y-102809853D01*
X167203600Y-102785300D01*
X167203600Y-101384300D01*
X167204806Y-101359747D01*
X167208413Y-101335430D01*
X167214386Y-101311584D01*
X167222668Y-101288438D01*
X167233179Y-101266215D01*
X167245817Y-101245130D01*
X167260461Y-101225384D01*
X167276970Y-101207170D01*
X167295184Y-101190661D01*
X167314930Y-101176017D01*
X167336015Y-101163379D01*
X167358238Y-101152868D01*
X167381384Y-101144586D01*
X167405230Y-101138613D01*
X167429547Y-101135006D01*
X167454100Y-101133800D01*
X167955100Y-101133800D01*
X167979653Y-101135006D01*
X167979653Y-101135006D01*
G37*
D22*
X167704600Y-102084800D03*
D21*
G36*
X169719653Y-101135006D02*
X169743970Y-101138613D01*
X169767816Y-101144586D01*
X169790962Y-101152868D01*
X169813185Y-101163379D01*
X169834270Y-101176017D01*
X169854016Y-101190661D01*
X169872230Y-101207170D01*
X169888739Y-101225384D01*
X169903383Y-101245130D01*
X169916021Y-101266215D01*
X169926532Y-101288438D01*
X169934814Y-101311584D01*
X169940787Y-101335430D01*
X169944394Y-101359747D01*
X169945600Y-101384300D01*
X169945600Y-102785300D01*
X169944394Y-102809853D01*
X169940787Y-102834170D01*
X169934814Y-102858016D01*
X169926532Y-102881162D01*
X169916021Y-102903385D01*
X169903383Y-102924470D01*
X169888739Y-102944216D01*
X169872230Y-102962430D01*
X169854016Y-102978939D01*
X169834270Y-102993583D01*
X169813185Y-103006221D01*
X169790962Y-103016732D01*
X169767816Y-103025014D01*
X169743970Y-103030987D01*
X169719653Y-103034594D01*
X169695100Y-103035800D01*
X169194100Y-103035800D01*
X169169547Y-103034594D01*
X169145230Y-103030987D01*
X169121384Y-103025014D01*
X169098238Y-103016732D01*
X169076015Y-103006221D01*
X169054930Y-102993583D01*
X169035184Y-102978939D01*
X169016970Y-102962430D01*
X169000461Y-102944216D01*
X168985817Y-102924470D01*
X168973179Y-102903385D01*
X168962668Y-102881162D01*
X168954386Y-102858016D01*
X168948413Y-102834170D01*
X168944806Y-102809853D01*
X168943600Y-102785300D01*
X168943600Y-101384300D01*
X168944806Y-101359747D01*
X168948413Y-101335430D01*
X168954386Y-101311584D01*
X168962668Y-101288438D01*
X168973179Y-101266215D01*
X168985817Y-101245130D01*
X169000461Y-101225384D01*
X169016970Y-101207170D01*
X169035184Y-101190661D01*
X169054930Y-101176017D01*
X169076015Y-101163379D01*
X169098238Y-101152868D01*
X169121384Y-101144586D01*
X169145230Y-101138613D01*
X169169547Y-101135006D01*
X169194100Y-101133800D01*
X169695100Y-101133800D01*
X169719653Y-101135006D01*
X169719653Y-101135006D01*
G37*
D22*
X169444600Y-102084800D03*
G04 #@! TD*
D17*
G04 #@! TO.C,J1*
X100540000Y-98780000D03*
D18*
X98000000Y-98780000D03*
X100540000Y-96240000D03*
X98000000Y-96240000D03*
X100540000Y-93700000D03*
X98000000Y-93700000D03*
X100540000Y-91160000D03*
X98000000Y-91160000D03*
X100540000Y-88620000D03*
X98000000Y-88620000D03*
X100540000Y-86080000D03*
X98000000Y-86080000D03*
X100540000Y-83540000D03*
X98000000Y-83540000D03*
X100540000Y-81000000D03*
X98000000Y-81000000D03*
G04 #@! TD*
G04 #@! TO.C,J4*
X188000000Y-107220000D03*
X185460000Y-107220000D03*
X188000000Y-109760000D03*
X185460000Y-109760000D03*
X188000000Y-112300000D03*
X185460000Y-112300000D03*
X188000000Y-114840000D03*
X185460000Y-114840000D03*
X188000000Y-117380000D03*
X185460000Y-117380000D03*
X188000000Y-119920000D03*
X185460000Y-119920000D03*
X188000000Y-122460000D03*
X185460000Y-122460000D03*
X188000000Y-125000000D03*
D17*
X185460000Y-125000000D03*
G04 #@! TD*
G04 #@! TO.C,J10*
X149000000Y-83540000D03*
G04 #@! TD*
G04 #@! TO.C,J9*
X149000000Y-81000000D03*
G04 #@! TD*
D23*
G04 #@! TO.C,H2*
X191000000Y-103000000D03*
G04 #@! TD*
D17*
G04 #@! TO.C,J8*
X129000000Y-88620000D03*
G04 #@! TD*
G04 #@! TO.C,J7*
X129000000Y-86080000D03*
G04 #@! TD*
G04 #@! TO.C,J6*
X129000000Y-83540000D03*
G04 #@! TD*
D23*
G04 #@! TO.C,H1*
X97000000Y-103000000D03*
G04 #@! TD*
D17*
G04 #@! TO.C,J3*
X185460000Y-48780000D03*
D18*
X188000000Y-48780000D03*
X185460000Y-46240000D03*
X188000000Y-46240000D03*
X185460000Y-43700000D03*
X188000000Y-43700000D03*
X185460000Y-41160000D03*
X188000000Y-41160000D03*
X185460000Y-38620000D03*
X188000000Y-38620000D03*
X185460000Y-36080000D03*
X188000000Y-36080000D03*
X185460000Y-33540000D03*
X188000000Y-33540000D03*
X185460000Y-31000000D03*
X188000000Y-31000000D03*
G04 #@! TD*
D17*
G04 #@! TO.C,J4*
X185460000Y-75000000D03*
D18*
X188000000Y-75000000D03*
X185460000Y-72460000D03*
X188000000Y-72460000D03*
X185460000Y-69920000D03*
X188000000Y-69920000D03*
X185460000Y-67380000D03*
X188000000Y-67380000D03*
X185460000Y-64840000D03*
X188000000Y-64840000D03*
X185460000Y-62300000D03*
X188000000Y-62300000D03*
X185460000Y-59760000D03*
X188000000Y-59760000D03*
X185460000Y-57220000D03*
X188000000Y-57220000D03*
G04 #@! TD*
G04 #@! TO.C,J1*
X98000000Y-31000000D03*
X100540000Y-31000000D03*
X98000000Y-33540000D03*
X100540000Y-33540000D03*
X98000000Y-36080000D03*
X100540000Y-36080000D03*
X98000000Y-38620000D03*
X100540000Y-38620000D03*
X98000000Y-41160000D03*
X100540000Y-41160000D03*
X98000000Y-43700000D03*
X100540000Y-43700000D03*
X98000000Y-46240000D03*
X100540000Y-46240000D03*
X98000000Y-48780000D03*
D17*
X100540000Y-48780000D03*
G04 #@! TD*
D18*
G04 #@! TO.C,J2*
X98000000Y-57220000D03*
X100540000Y-57220000D03*
X98000000Y-59760000D03*
X100540000Y-59760000D03*
X98000000Y-62300000D03*
X100540000Y-62300000D03*
X98000000Y-64840000D03*
X100540000Y-64840000D03*
X98000000Y-67380000D03*
X100540000Y-67380000D03*
X98000000Y-69920000D03*
X100540000Y-69920000D03*
X98000000Y-72460000D03*
X100540000Y-72460000D03*
X98000000Y-75000000D03*
D17*
X100540000Y-75000000D03*
G04 #@! TD*
D23*
G04 #@! TO.C,H1*
X97000000Y-53000000D03*
G04 #@! TD*
G04 #@! TO.C,H2*
X191000000Y-53000000D03*
G04 #@! TD*
D21*
G04 #@! TO.C,LO_1*
G36*
X169719653Y-51135006D02*
X169743970Y-51138613D01*
X169767816Y-51144586D01*
X169790962Y-51152868D01*
X169813185Y-51163379D01*
X169834270Y-51176017D01*
X169854016Y-51190661D01*
X169872230Y-51207170D01*
X169888739Y-51225384D01*
X169903383Y-51245130D01*
X169916021Y-51266215D01*
X169926532Y-51288438D01*
X169934814Y-51311584D01*
X169940787Y-51335430D01*
X169944394Y-51359747D01*
X169945600Y-51384300D01*
X169945600Y-52785300D01*
X169944394Y-52809853D01*
X169940787Y-52834170D01*
X169934814Y-52858016D01*
X169926532Y-52881162D01*
X169916021Y-52903385D01*
X169903383Y-52924470D01*
X169888739Y-52944216D01*
X169872230Y-52962430D01*
X169854016Y-52978939D01*
X169834270Y-52993583D01*
X169813185Y-53006221D01*
X169790962Y-53016732D01*
X169767816Y-53025014D01*
X169743970Y-53030987D01*
X169719653Y-53034594D01*
X169695100Y-53035800D01*
X169194100Y-53035800D01*
X169169547Y-53034594D01*
X169145230Y-53030987D01*
X169121384Y-53025014D01*
X169098238Y-53016732D01*
X169076015Y-53006221D01*
X169054930Y-52993583D01*
X169035184Y-52978939D01*
X169016970Y-52962430D01*
X169000461Y-52944216D01*
X168985817Y-52924470D01*
X168973179Y-52903385D01*
X168962668Y-52881162D01*
X168954386Y-52858016D01*
X168948413Y-52834170D01*
X168944806Y-52809853D01*
X168943600Y-52785300D01*
X168943600Y-51384300D01*
X168944806Y-51359747D01*
X168948413Y-51335430D01*
X168954386Y-51311584D01*
X168962668Y-51288438D01*
X168973179Y-51266215D01*
X168985817Y-51245130D01*
X169000461Y-51225384D01*
X169016970Y-51207170D01*
X169035184Y-51190661D01*
X169054930Y-51176017D01*
X169076015Y-51163379D01*
X169098238Y-51152868D01*
X169121384Y-51144586D01*
X169145230Y-51138613D01*
X169169547Y-51135006D01*
X169194100Y-51133800D01*
X169695100Y-51133800D01*
X169719653Y-51135006D01*
X169719653Y-51135006D01*
G37*
D22*
X169444600Y-52084800D03*
D21*
G36*
X167979653Y-51135006D02*
X168003970Y-51138613D01*
X168027816Y-51144586D01*
X168050962Y-51152868D01*
X168073185Y-51163379D01*
X168094270Y-51176017D01*
X168114016Y-51190661D01*
X168132230Y-51207170D01*
X168148739Y-51225384D01*
X168163383Y-51245130D01*
X168176021Y-51266215D01*
X168186532Y-51288438D01*
X168194814Y-51311584D01*
X168200787Y-51335430D01*
X168204394Y-51359747D01*
X168205600Y-51384300D01*
X168205600Y-52785300D01*
X168204394Y-52809853D01*
X168200787Y-52834170D01*
X168194814Y-52858016D01*
X168186532Y-52881162D01*
X168176021Y-52903385D01*
X168163383Y-52924470D01*
X168148739Y-52944216D01*
X168132230Y-52962430D01*
X168114016Y-52978939D01*
X168094270Y-52993583D01*
X168073185Y-53006221D01*
X168050962Y-53016732D01*
X168027816Y-53025014D01*
X168003970Y-53030987D01*
X167979653Y-53034594D01*
X167955100Y-53035800D01*
X167454100Y-53035800D01*
X167429547Y-53034594D01*
X167405230Y-53030987D01*
X167381384Y-53025014D01*
X167358238Y-53016732D01*
X167336015Y-53006221D01*
X167314930Y-52993583D01*
X167295184Y-52978939D01*
X167276970Y-52962430D01*
X167260461Y-52944216D01*
X167245817Y-52924470D01*
X167233179Y-52903385D01*
X167222668Y-52881162D01*
X167214386Y-52858016D01*
X167208413Y-52834170D01*
X167204806Y-52809853D01*
X167203600Y-52785300D01*
X167203600Y-51384300D01*
X167204806Y-51359747D01*
X167208413Y-51335430D01*
X167214386Y-51311584D01*
X167222668Y-51288438D01*
X167233179Y-51266215D01*
X167245817Y-51245130D01*
X167260461Y-51225384D01*
X167276970Y-51207170D01*
X167295184Y-51190661D01*
X167314930Y-51176017D01*
X167336015Y-51163379D01*
X167358238Y-51152868D01*
X167381384Y-51144586D01*
X167405230Y-51138613D01*
X167429547Y-51135006D01*
X167454100Y-51133800D01*
X167955100Y-51133800D01*
X167979653Y-51135006D01*
X167979653Y-51135006D01*
G37*
D22*
X167704600Y-52084800D03*
D20*
X172384600Y-52084800D03*
D19*
X164764600Y-52084800D03*
G04 #@! TD*
D17*
G04 #@! TO.C,J5*
X129000000Y-31000000D03*
G04 #@! TD*
G04 #@! TO.C,J6*
X129000000Y-33540000D03*
G04 #@! TD*
G04 #@! TO.C,J7*
X129000000Y-36080000D03*
G04 #@! TD*
G04 #@! TO.C,J8*
X129000000Y-38620000D03*
G04 #@! TD*
G04 #@! TO.C,J9*
X149000000Y-31000000D03*
G04 #@! TD*
G04 #@! TO.C,J10*
X149000000Y-33540000D03*
G04 #@! TD*
G04 #@! TO.C,J11*
X149000000Y-36080000D03*
G04 #@! TD*
G04 #@! TO.C,J12*
X149000000Y-38620000D03*
G04 #@! TD*
G04 #@! TO.C,J13*
X139000000Y-41160000D03*
G04 #@! TD*
G04 #@! TO.C,J14*
X139000000Y-43700000D03*
G04 #@! TD*
G04 #@! TO.C,J15*
X139000000Y-46240000D03*
G04 #@! TD*
G04 #@! TO.C,J16*
X139000000Y-48780000D03*
G04 #@! TD*
G04 #@! TO.C,J17*
X159000000Y-41160000D03*
G04 #@! TD*
G04 #@! TO.C,J18*
X159000000Y-43700000D03*
G04 #@! TD*
G04 #@! TO.C,J19*
X159000000Y-46240000D03*
G04 #@! TD*
G04 #@! TO.C,J20*
X159000000Y-48780000D03*
G04 #@! TD*
G04 #@! TO.C,J21*
X129000000Y-57220000D03*
G04 #@! TD*
G04 #@! TO.C,J22*
X129000000Y-59760000D03*
G04 #@! TD*
G04 #@! TO.C,J23*
X129000000Y-62300000D03*
G04 #@! TD*
G04 #@! TO.C,J24*
X129000000Y-64840000D03*
G04 #@! TD*
G04 #@! TO.C,J25*
X149000000Y-57220000D03*
G04 #@! TD*
G04 #@! TO.C,J26*
X149000000Y-59760000D03*
G04 #@! TD*
G04 #@! TO.C,J27*
X149000000Y-62300000D03*
G04 #@! TD*
G04 #@! TO.C,J28*
X149000000Y-64840000D03*
G04 #@! TD*
G04 #@! TO.C,J29*
X139000000Y-67380000D03*
G04 #@! TD*
G04 #@! TO.C,J30*
X139000000Y-69920000D03*
G04 #@! TD*
G04 #@! TO.C,J31*
X139000000Y-72460000D03*
G04 #@! TD*
G04 #@! TO.C,J32*
X139000000Y-75000000D03*
G04 #@! TD*
G04 #@! TO.C,J33*
X159000000Y-67380000D03*
G04 #@! TD*
G04 #@! TO.C,J34*
X159000000Y-69920000D03*
G04 #@! TD*
G04 #@! TO.C,J35*
X159000000Y-72460000D03*
G04 #@! TD*
G04 #@! TO.C,J36*
X159000000Y-75000000D03*
G04 #@! TD*
M02*
