G04 #@! TF.GenerationSoftware,KiCad,Pcbnew,(5.0.2)-1*
G04 #@! TF.CreationDate,2019-08-28T20:26:21+02:00*
G04 #@! TF.ProjectId,EleLab_v2_Bus100,456c654c-6162-45f7-9632-5f4275733130,rev?*
G04 #@! TF.SameCoordinates,Original*
G04 #@! TF.FileFunction,Legend,Bot*
G04 #@! TF.FilePolarity,Positive*
%FSLAX46Y46*%
G04 Gerber Fmt 4.6, Leading zero omitted, Abs format (unit mm)*
G04 Created by KiCad (PCBNEW (5.0.2)-1) date 28/08/2019 20:26:21*
%MOMM*%
%LPD*%
G01*
G04 APERTURE LIST*
%ADD10C,0.300000*%
%ADD11C,0.010000*%
%ADD12R,1.802000X1.802000*%
%ADD13O,1.802000X1.802000*%
%ADD14C,1.702000*%
%ADD15O,1.702000X1.702000*%
%ADD16C,5.700000*%
G04 APERTURE END LIST*
D10*
X117928571Y-124178571D02*
X117928571Y-125250000D01*
X118000000Y-125464285D01*
X118142857Y-125607142D01*
X118357142Y-125678571D01*
X118500000Y-125678571D01*
X116500000Y-125678571D02*
X117214285Y-125678571D01*
X117214285Y-124178571D01*
X115142857Y-125535714D02*
X115214285Y-125607142D01*
X115428571Y-125678571D01*
X115571428Y-125678571D01*
X115785714Y-125607142D01*
X115928571Y-125464285D01*
X116000000Y-125321428D01*
X116071428Y-125035714D01*
X116071428Y-124821428D01*
X116000000Y-124535714D01*
X115928571Y-124392857D01*
X115785714Y-124250000D01*
X115571428Y-124178571D01*
X115428571Y-124178571D01*
X115214285Y-124250000D01*
X115142857Y-124321428D01*
X114071428Y-124178571D02*
X114071428Y-125250000D01*
X114142857Y-125464285D01*
X114285714Y-125607142D01*
X114500000Y-125678571D01*
X114642857Y-125678571D01*
X112642857Y-125678571D02*
X113357142Y-125678571D01*
X113357142Y-124178571D01*
X111285714Y-125535714D02*
X111357142Y-125607142D01*
X111571428Y-125678571D01*
X111714285Y-125678571D01*
X111928571Y-125607142D01*
X112071428Y-125464285D01*
X112142857Y-125321428D01*
X112214285Y-125035714D01*
X112214285Y-124821428D01*
X112142857Y-124535714D01*
X112071428Y-124392857D01*
X111928571Y-124250000D01*
X111714285Y-124178571D01*
X111571428Y-124178571D01*
X111357142Y-124250000D01*
X111285714Y-124321428D01*
X110214285Y-124178571D02*
X110214285Y-125250000D01*
X110285714Y-125464285D01*
X110428571Y-125607142D01*
X110642857Y-125678571D01*
X110785714Y-125678571D01*
X108785714Y-125678571D02*
X109500000Y-125678571D01*
X109500000Y-124178571D01*
X107428571Y-125535714D02*
X107500000Y-125607142D01*
X107714285Y-125678571D01*
X107857142Y-125678571D01*
X108071428Y-125607142D01*
X108214285Y-125464285D01*
X108285714Y-125321428D01*
X108357142Y-125035714D01*
X108357142Y-124821428D01*
X108285714Y-124535714D01*
X108214285Y-124392857D01*
X108071428Y-124250000D01*
X107857142Y-124178571D01*
X107714285Y-124178571D01*
X107500000Y-124250000D01*
X107428571Y-124321428D01*
X106357142Y-124178571D02*
X106357142Y-125250000D01*
X106428571Y-125464285D01*
X106571428Y-125607142D01*
X106785714Y-125678571D01*
X106928571Y-125678571D01*
X104928571Y-125678571D02*
X105642857Y-125678571D01*
X105642857Y-124178571D01*
X103571428Y-125535714D02*
X103642857Y-125607142D01*
X103857142Y-125678571D01*
X104000000Y-125678571D01*
X104214285Y-125607142D01*
X104357142Y-125464285D01*
X104428571Y-125321428D01*
X104500000Y-125035714D01*
X104500000Y-124821428D01*
X104428571Y-124535714D01*
X104357142Y-124392857D01*
X104214285Y-124250000D01*
X104000000Y-124178571D01*
X103857142Y-124178571D01*
X103642857Y-124250000D01*
X103571428Y-124321428D01*
D11*
G04 #@! TO.C,LO_2*
G36*
X145548637Y-101042699D02*
X145526845Y-101049976D01*
X145508414Y-101066420D01*
X145493065Y-101095197D01*
X145480519Y-101139474D01*
X145470495Y-101202418D01*
X145462717Y-101287194D01*
X145456904Y-101396971D01*
X145452777Y-101534914D01*
X145450057Y-101704191D01*
X145448465Y-101907968D01*
X145447723Y-102149411D01*
X145447550Y-102431687D01*
X145447668Y-102757964D01*
X145447797Y-103131407D01*
X145447800Y-103190500D01*
X145447878Y-103565884D01*
X145448151Y-103893711D01*
X145448682Y-104177221D01*
X145449531Y-104419658D01*
X145450760Y-104624261D01*
X145452431Y-104794274D01*
X145454605Y-104932939D01*
X145457343Y-105043496D01*
X145460708Y-105129188D01*
X145464759Y-105193257D01*
X145469559Y-105238944D01*
X145475169Y-105269492D01*
X145481651Y-105288141D01*
X145487715Y-105296885D01*
X145498791Y-105303992D01*
X145518999Y-105310213D01*
X145551510Y-105315606D01*
X145599497Y-105320229D01*
X145666133Y-105324140D01*
X145754590Y-105327396D01*
X145868040Y-105330056D01*
X146009656Y-105332175D01*
X146182610Y-105333813D01*
X146390076Y-105335028D01*
X146635224Y-105335876D01*
X146921229Y-105336415D01*
X147251261Y-105336703D01*
X147628495Y-105336798D01*
X147683001Y-105336800D01*
X148066824Y-105336726D01*
X148403020Y-105336467D01*
X148694761Y-105335965D01*
X148945219Y-105335162D01*
X149157568Y-105334000D01*
X149334979Y-105332422D01*
X149480625Y-105330371D01*
X149597678Y-105327787D01*
X149689312Y-105324615D01*
X149758697Y-105320795D01*
X149809008Y-105316271D01*
X149843416Y-105310985D01*
X149865093Y-105304879D01*
X149877213Y-105297895D01*
X149878286Y-105296885D01*
X149885535Y-105285627D01*
X149891862Y-105265152D01*
X149897328Y-105232219D01*
X149901994Y-105183586D01*
X149905922Y-105116011D01*
X149909174Y-105026252D01*
X149911810Y-104911068D01*
X149913893Y-104767217D01*
X149915483Y-104591456D01*
X149916642Y-104380544D01*
X149917432Y-104131239D01*
X149917914Y-103840300D01*
X149918149Y-103504484D01*
X149918200Y-103190500D01*
X149918123Y-102815115D01*
X149917850Y-102487288D01*
X149917319Y-102203778D01*
X149916470Y-101961341D01*
X149915241Y-101756738D01*
X149914052Y-101635729D01*
X149638801Y-101635729D01*
X149628363Y-101660638D01*
X149602056Y-101714844D01*
X149588001Y-101742699D01*
X149577068Y-101765774D01*
X149567826Y-101791420D01*
X149560133Y-101823859D01*
X149553848Y-101867308D01*
X149548828Y-101925988D01*
X149544932Y-102004117D01*
X149542017Y-102105917D01*
X149539943Y-102235605D01*
X149538566Y-102397401D01*
X149537746Y-102595525D01*
X149537341Y-102834197D01*
X149537209Y-103117635D01*
X149537201Y-103254290D01*
X149537561Y-103517726D01*
X149538598Y-103766037D01*
X149540244Y-103994556D01*
X149542432Y-104198618D01*
X149545097Y-104373558D01*
X149548170Y-104514711D01*
X149551585Y-104617410D01*
X149555276Y-104676991D01*
X149557776Y-104690370D01*
X149582200Y-104730136D01*
X149608032Y-104784350D01*
X149637711Y-104854200D01*
X149111206Y-104853811D01*
X148956033Y-104852849D01*
X148821650Y-104850381D01*
X148715001Y-104846674D01*
X148643030Y-104841992D01*
X148612681Y-104836600D01*
X148612906Y-104834761D01*
X148642855Y-104800826D01*
X148678668Y-104742626D01*
X148682756Y-104734811D01*
X148697682Y-104697521D01*
X148708693Y-104647267D01*
X148716331Y-104576556D01*
X148721134Y-104477898D01*
X148723644Y-104343800D01*
X148724399Y-104166772D01*
X148724400Y-104156961D01*
X148723167Y-103979347D01*
X148719604Y-103836876D01*
X148713922Y-103733727D01*
X148706328Y-103674078D01*
X148699586Y-103660400D01*
X148670086Y-103679770D01*
X148632359Y-103726744D01*
X148630085Y-103730250D01*
X148589507Y-103787268D01*
X148555301Y-103825500D01*
X148524853Y-103862632D01*
X148484917Y-103924966D01*
X148471329Y-103948833D01*
X148429180Y-104015930D01*
X148366473Y-104104720D01*
X148295408Y-104198064D01*
X148281458Y-104215533D01*
X148173339Y-104358344D01*
X148082862Y-104494967D01*
X148014611Y-104617349D01*
X147973169Y-104717440D01*
X147962400Y-104775923D01*
X147962400Y-104854200D01*
X146835945Y-104854200D01*
X146848071Y-104840488D01*
X146692400Y-104840488D01*
X146668301Y-104844757D01*
X146601204Y-104848485D01*
X146498911Y-104851448D01*
X146369222Y-104853426D01*
X146219939Y-104854196D01*
X146209800Y-104854200D01*
X146033033Y-104853408D01*
X145901899Y-104850806D01*
X145811253Y-104846056D01*
X145755950Y-104838818D01*
X145730844Y-104828752D01*
X145728008Y-104822450D01*
X145742962Y-104778554D01*
X145766108Y-104741395D01*
X145775302Y-104722692D01*
X145782898Y-104690195D01*
X145789041Y-104639498D01*
X145793873Y-104566196D01*
X145797536Y-104465883D01*
X145800174Y-104334154D01*
X145801930Y-104166604D01*
X145802947Y-103958827D01*
X145803367Y-103706418D01*
X145803400Y-103592045D01*
X145803400Y-102492000D01*
X146668305Y-102492000D01*
X146629553Y-102566938D01*
X146619522Y-102592815D01*
X146611333Y-102631092D01*
X146604808Y-102686607D01*
X146599774Y-102764197D01*
X146596053Y-102868700D01*
X146593471Y-103004954D01*
X146591852Y-103177797D01*
X146591021Y-103392067D01*
X146590800Y-103634750D01*
X146590914Y-103886440D01*
X146591415Y-104092511D01*
X146592545Y-104258147D01*
X146594545Y-104388527D01*
X146597655Y-104488835D01*
X146602117Y-104564251D01*
X146608171Y-104619957D01*
X146616059Y-104661135D01*
X146626021Y-104692967D01*
X146638299Y-104720635D01*
X146641600Y-104727200D01*
X146672510Y-104790636D01*
X146690520Y-104833110D01*
X146692400Y-104840488D01*
X146848071Y-104840488D01*
X146897523Y-104784570D01*
X146941445Y-104735266D01*
X146969627Y-104704290D01*
X146971800Y-104702020D01*
X147029555Y-104638905D01*
X147101037Y-104554689D01*
X147176103Y-104462065D01*
X147244609Y-104373725D01*
X147296412Y-104302361D01*
X147316624Y-104270547D01*
X147356845Y-104206584D01*
X147420338Y-104115299D01*
X147498196Y-104008680D01*
X147581513Y-103898715D01*
X147661383Y-103797390D01*
X147723727Y-103722607D01*
X147784171Y-103645548D01*
X147840841Y-103561943D01*
X147845022Y-103555050D01*
X147972363Y-103356936D01*
X148068006Y-103226356D01*
X148137964Y-103135212D01*
X148056532Y-103047760D01*
X147986340Y-102968661D01*
X147896285Y-102861892D01*
X147796943Y-102740451D01*
X147698893Y-102617339D01*
X147612711Y-102505555D01*
X147583849Y-102466815D01*
X147279059Y-102086892D01*
X147039721Y-101829787D01*
X146840941Y-101628400D01*
X147386253Y-101628400D01*
X147571450Y-101628523D01*
X147712002Y-101629861D01*
X147814063Y-101633867D01*
X147883788Y-101641993D01*
X147927331Y-101655691D01*
X147950847Y-101676416D01*
X147960489Y-101705618D01*
X147962414Y-101744751D01*
X147962400Y-101764390D01*
X147977988Y-101817842D01*
X148017059Y-101885121D01*
X148034701Y-101908362D01*
X148093348Y-101985668D01*
X148156110Y-102076586D01*
X148178198Y-102111000D01*
X148221448Y-102177764D01*
X148255088Y-102224931D01*
X148266761Y-102238000D01*
X148296555Y-102267339D01*
X148345755Y-102323018D01*
X148405478Y-102394108D01*
X148466838Y-102469681D01*
X148520953Y-102538808D01*
X148558937Y-102590561D01*
X148572000Y-102613483D01*
X148588818Y-102642974D01*
X148630854Y-102690717D01*
X148648201Y-102707900D01*
X148724401Y-102780904D01*
X148724400Y-102361088D01*
X148722807Y-102178302D01*
X148717105Y-102035476D01*
X148705907Y-101921840D01*
X148687828Y-101826629D01*
X148661482Y-101739075D01*
X148635836Y-101672850D01*
X148632606Y-101657771D01*
X148641351Y-101646538D01*
X148668295Y-101638591D01*
X148719662Y-101633367D01*
X148801676Y-101630303D01*
X148920561Y-101628838D01*
X149082540Y-101628410D01*
X149128083Y-101628400D01*
X149282917Y-101628746D01*
X149418878Y-101629712D01*
X149528383Y-101631190D01*
X149603849Y-101633071D01*
X149637692Y-101635245D01*
X149638801Y-101635729D01*
X149914052Y-101635729D01*
X149913570Y-101586725D01*
X149911396Y-101448060D01*
X149908658Y-101337503D01*
X149905293Y-101251811D01*
X149901242Y-101187742D01*
X149896442Y-101142055D01*
X149890832Y-101111507D01*
X149884350Y-101092858D01*
X149878286Y-101084114D01*
X149865822Y-101075934D01*
X149843563Y-101068938D01*
X149807809Y-101063034D01*
X149754859Y-101058133D01*
X149681012Y-101054144D01*
X149582569Y-101050978D01*
X149455827Y-101048544D01*
X149297087Y-101046752D01*
X149102647Y-101045511D01*
X148868807Y-101044733D01*
X148591865Y-101044326D01*
X148268122Y-101044200D01*
X146641600Y-101044200D01*
X146641600Y-101140418D01*
X146621521Y-101256335D01*
X146568475Y-101375000D01*
X146493246Y-101475991D01*
X146440994Y-101520244D01*
X146327454Y-101567370D01*
X146196500Y-101577636D01*
X146062372Y-101553918D01*
X145939310Y-101499089D01*
X145841552Y-101416023D01*
X145826200Y-101396147D01*
X145779194Y-101295428D01*
X145757561Y-101179877D01*
X145746310Y-101044199D01*
X145636970Y-101044200D01*
X145603420Y-101042977D01*
X145574069Y-101041421D01*
X145548637Y-101042699D01*
X145548637Y-101042699D01*
G37*
X145548637Y-101042699D02*
X145526845Y-101049976D01*
X145508414Y-101066420D01*
X145493065Y-101095197D01*
X145480519Y-101139474D01*
X145470495Y-101202418D01*
X145462717Y-101287194D01*
X145456904Y-101396971D01*
X145452777Y-101534914D01*
X145450057Y-101704191D01*
X145448465Y-101907968D01*
X145447723Y-102149411D01*
X145447550Y-102431687D01*
X145447668Y-102757964D01*
X145447797Y-103131407D01*
X145447800Y-103190500D01*
X145447878Y-103565884D01*
X145448151Y-103893711D01*
X145448682Y-104177221D01*
X145449531Y-104419658D01*
X145450760Y-104624261D01*
X145452431Y-104794274D01*
X145454605Y-104932939D01*
X145457343Y-105043496D01*
X145460708Y-105129188D01*
X145464759Y-105193257D01*
X145469559Y-105238944D01*
X145475169Y-105269492D01*
X145481651Y-105288141D01*
X145487715Y-105296885D01*
X145498791Y-105303992D01*
X145518999Y-105310213D01*
X145551510Y-105315606D01*
X145599497Y-105320229D01*
X145666133Y-105324140D01*
X145754590Y-105327396D01*
X145868040Y-105330056D01*
X146009656Y-105332175D01*
X146182610Y-105333813D01*
X146390076Y-105335028D01*
X146635224Y-105335876D01*
X146921229Y-105336415D01*
X147251261Y-105336703D01*
X147628495Y-105336798D01*
X147683001Y-105336800D01*
X148066824Y-105336726D01*
X148403020Y-105336467D01*
X148694761Y-105335965D01*
X148945219Y-105335162D01*
X149157568Y-105334000D01*
X149334979Y-105332422D01*
X149480625Y-105330371D01*
X149597678Y-105327787D01*
X149689312Y-105324615D01*
X149758697Y-105320795D01*
X149809008Y-105316271D01*
X149843416Y-105310985D01*
X149865093Y-105304879D01*
X149877213Y-105297895D01*
X149878286Y-105296885D01*
X149885535Y-105285627D01*
X149891862Y-105265152D01*
X149897328Y-105232219D01*
X149901994Y-105183586D01*
X149905922Y-105116011D01*
X149909174Y-105026252D01*
X149911810Y-104911068D01*
X149913893Y-104767217D01*
X149915483Y-104591456D01*
X149916642Y-104380544D01*
X149917432Y-104131239D01*
X149917914Y-103840300D01*
X149918149Y-103504484D01*
X149918200Y-103190500D01*
X149918123Y-102815115D01*
X149917850Y-102487288D01*
X149917319Y-102203778D01*
X149916470Y-101961341D01*
X149915241Y-101756738D01*
X149914052Y-101635729D01*
X149638801Y-101635729D01*
X149628363Y-101660638D01*
X149602056Y-101714844D01*
X149588001Y-101742699D01*
X149577068Y-101765774D01*
X149567826Y-101791420D01*
X149560133Y-101823859D01*
X149553848Y-101867308D01*
X149548828Y-101925988D01*
X149544932Y-102004117D01*
X149542017Y-102105917D01*
X149539943Y-102235605D01*
X149538566Y-102397401D01*
X149537746Y-102595525D01*
X149537341Y-102834197D01*
X149537209Y-103117635D01*
X149537201Y-103254290D01*
X149537561Y-103517726D01*
X149538598Y-103766037D01*
X149540244Y-103994556D01*
X149542432Y-104198618D01*
X149545097Y-104373558D01*
X149548170Y-104514711D01*
X149551585Y-104617410D01*
X149555276Y-104676991D01*
X149557776Y-104690370D01*
X149582200Y-104730136D01*
X149608032Y-104784350D01*
X149637711Y-104854200D01*
X149111206Y-104853811D01*
X148956033Y-104852849D01*
X148821650Y-104850381D01*
X148715001Y-104846674D01*
X148643030Y-104841992D01*
X148612681Y-104836600D01*
X148612906Y-104834761D01*
X148642855Y-104800826D01*
X148678668Y-104742626D01*
X148682756Y-104734811D01*
X148697682Y-104697521D01*
X148708693Y-104647267D01*
X148716331Y-104576556D01*
X148721134Y-104477898D01*
X148723644Y-104343800D01*
X148724399Y-104166772D01*
X148724400Y-104156961D01*
X148723167Y-103979347D01*
X148719604Y-103836876D01*
X148713922Y-103733727D01*
X148706328Y-103674078D01*
X148699586Y-103660400D01*
X148670086Y-103679770D01*
X148632359Y-103726744D01*
X148630085Y-103730250D01*
X148589507Y-103787268D01*
X148555301Y-103825500D01*
X148524853Y-103862632D01*
X148484917Y-103924966D01*
X148471329Y-103948833D01*
X148429180Y-104015930D01*
X148366473Y-104104720D01*
X148295408Y-104198064D01*
X148281458Y-104215533D01*
X148173339Y-104358344D01*
X148082862Y-104494967D01*
X148014611Y-104617349D01*
X147973169Y-104717440D01*
X147962400Y-104775923D01*
X147962400Y-104854200D01*
X146835945Y-104854200D01*
X146848071Y-104840488D01*
X146692400Y-104840488D01*
X146668301Y-104844757D01*
X146601204Y-104848485D01*
X146498911Y-104851448D01*
X146369222Y-104853426D01*
X146219939Y-104854196D01*
X146209800Y-104854200D01*
X146033033Y-104853408D01*
X145901899Y-104850806D01*
X145811253Y-104846056D01*
X145755950Y-104838818D01*
X145730844Y-104828752D01*
X145728008Y-104822450D01*
X145742962Y-104778554D01*
X145766108Y-104741395D01*
X145775302Y-104722692D01*
X145782898Y-104690195D01*
X145789041Y-104639498D01*
X145793873Y-104566196D01*
X145797536Y-104465883D01*
X145800174Y-104334154D01*
X145801930Y-104166604D01*
X145802947Y-103958827D01*
X145803367Y-103706418D01*
X145803400Y-103592045D01*
X145803400Y-102492000D01*
X146668305Y-102492000D01*
X146629553Y-102566938D01*
X146619522Y-102592815D01*
X146611333Y-102631092D01*
X146604808Y-102686607D01*
X146599774Y-102764197D01*
X146596053Y-102868700D01*
X146593471Y-103004954D01*
X146591852Y-103177797D01*
X146591021Y-103392067D01*
X146590800Y-103634750D01*
X146590914Y-103886440D01*
X146591415Y-104092511D01*
X146592545Y-104258147D01*
X146594545Y-104388527D01*
X146597655Y-104488835D01*
X146602117Y-104564251D01*
X146608171Y-104619957D01*
X146616059Y-104661135D01*
X146626021Y-104692967D01*
X146638299Y-104720635D01*
X146641600Y-104727200D01*
X146672510Y-104790636D01*
X146690520Y-104833110D01*
X146692400Y-104840488D01*
X146848071Y-104840488D01*
X146897523Y-104784570D01*
X146941445Y-104735266D01*
X146969627Y-104704290D01*
X146971800Y-104702020D01*
X147029555Y-104638905D01*
X147101037Y-104554689D01*
X147176103Y-104462065D01*
X147244609Y-104373725D01*
X147296412Y-104302361D01*
X147316624Y-104270547D01*
X147356845Y-104206584D01*
X147420338Y-104115299D01*
X147498196Y-104008680D01*
X147581513Y-103898715D01*
X147661383Y-103797390D01*
X147723727Y-103722607D01*
X147784171Y-103645548D01*
X147840841Y-103561943D01*
X147845022Y-103555050D01*
X147972363Y-103356936D01*
X148068006Y-103226356D01*
X148137964Y-103135212D01*
X148056532Y-103047760D01*
X147986340Y-102968661D01*
X147896285Y-102861892D01*
X147796943Y-102740451D01*
X147698893Y-102617339D01*
X147612711Y-102505555D01*
X147583849Y-102466815D01*
X147279059Y-102086892D01*
X147039721Y-101829787D01*
X146840941Y-101628400D01*
X147386253Y-101628400D01*
X147571450Y-101628523D01*
X147712002Y-101629861D01*
X147814063Y-101633867D01*
X147883788Y-101641993D01*
X147927331Y-101655691D01*
X147950847Y-101676416D01*
X147960489Y-101705618D01*
X147962414Y-101744751D01*
X147962400Y-101764390D01*
X147977988Y-101817842D01*
X148017059Y-101885121D01*
X148034701Y-101908362D01*
X148093348Y-101985668D01*
X148156110Y-102076586D01*
X148178198Y-102111000D01*
X148221448Y-102177764D01*
X148255088Y-102224931D01*
X148266761Y-102238000D01*
X148296555Y-102267339D01*
X148345755Y-102323018D01*
X148405478Y-102394108D01*
X148466838Y-102469681D01*
X148520953Y-102538808D01*
X148558937Y-102590561D01*
X148572000Y-102613483D01*
X148588818Y-102642974D01*
X148630854Y-102690717D01*
X148648201Y-102707900D01*
X148724401Y-102780904D01*
X148724400Y-102361088D01*
X148722807Y-102178302D01*
X148717105Y-102035476D01*
X148705907Y-101921840D01*
X148687828Y-101826629D01*
X148661482Y-101739075D01*
X148635836Y-101672850D01*
X148632606Y-101657771D01*
X148641351Y-101646538D01*
X148668295Y-101638591D01*
X148719662Y-101633367D01*
X148801676Y-101630303D01*
X148920561Y-101628838D01*
X149082540Y-101628410D01*
X149128083Y-101628400D01*
X149282917Y-101628746D01*
X149418878Y-101629712D01*
X149528383Y-101631190D01*
X149603849Y-101633071D01*
X149637692Y-101635245D01*
X149638801Y-101635729D01*
X149914052Y-101635729D01*
X149913570Y-101586725D01*
X149911396Y-101448060D01*
X149908658Y-101337503D01*
X149905293Y-101251811D01*
X149901242Y-101187742D01*
X149896442Y-101142055D01*
X149890832Y-101111507D01*
X149884350Y-101092858D01*
X149878286Y-101084114D01*
X149865822Y-101075934D01*
X149843563Y-101068938D01*
X149807809Y-101063034D01*
X149754859Y-101058133D01*
X149681012Y-101054144D01*
X149582569Y-101050978D01*
X149455827Y-101048544D01*
X149297087Y-101046752D01*
X149102647Y-101045511D01*
X148868807Y-101044733D01*
X148591865Y-101044326D01*
X148268122Y-101044200D01*
X146641600Y-101044200D01*
X146641600Y-101140418D01*
X146621521Y-101256335D01*
X146568475Y-101375000D01*
X146493246Y-101475991D01*
X146440994Y-101520244D01*
X146327454Y-101567370D01*
X146196500Y-101577636D01*
X146062372Y-101553918D01*
X145939310Y-101499089D01*
X145841552Y-101416023D01*
X145826200Y-101396147D01*
X145779194Y-101295428D01*
X145757561Y-101179877D01*
X145746310Y-101044199D01*
X145636970Y-101044200D01*
X145603420Y-101042977D01*
X145574069Y-101041421D01*
X145548637Y-101042699D01*
G36*
X143455324Y-101606341D02*
X143414089Y-101616143D01*
X143343121Y-101638829D01*
X143247827Y-101674963D01*
X143140479Y-101719187D01*
X143033347Y-101766147D01*
X142938702Y-101810487D01*
X142868815Y-101846851D01*
X142837936Y-101867598D01*
X142847626Y-101890582D01*
X142879964Y-101945508D01*
X142928536Y-102022651D01*
X142986926Y-102112288D01*
X143048719Y-102204695D01*
X143107498Y-102290151D01*
X143156848Y-102358930D01*
X143189323Y-102400159D01*
X143217764Y-102397624D01*
X143269919Y-102367335D01*
X143313593Y-102333312D01*
X143458702Y-102241226D01*
X143623513Y-102195559D01*
X143781902Y-102194284D01*
X143952602Y-102234902D01*
X144096741Y-102318127D01*
X144213755Y-102442925D01*
X144303081Y-102608260D01*
X144364157Y-102813097D01*
X144396419Y-103056401D01*
X144399574Y-103330200D01*
X144378133Y-103577826D01*
X144333016Y-103783741D01*
X144262370Y-103952105D01*
X144164343Y-104087080D01*
X144037083Y-104192826D01*
X144007421Y-104211151D01*
X143930227Y-104251415D01*
X143858762Y-104272876D01*
X143770973Y-104280676D01*
X143707900Y-104281009D01*
X143548183Y-104265354D01*
X143409453Y-104217392D01*
X143275375Y-104130613D01*
X143225154Y-104088663D01*
X143170908Y-104044162D01*
X143134586Y-104020225D01*
X143126945Y-104018969D01*
X143104784Y-104052288D01*
X143065502Y-104116333D01*
X143014770Y-104201348D01*
X142958257Y-104297575D01*
X142901634Y-104395257D01*
X142850569Y-104484636D01*
X142810735Y-104555956D01*
X142787799Y-104599460D01*
X142784547Y-104608180D01*
X142809782Y-104621554D01*
X142867656Y-104652253D01*
X142945938Y-104693786D01*
X142950543Y-104696230D01*
X143112853Y-104776612D01*
X143255788Y-104831928D01*
X143397728Y-104866986D01*
X143557053Y-104886593D01*
X143707900Y-104894340D01*
X143900715Y-104895569D01*
X144052750Y-104886113D01*
X144143564Y-104870565D01*
X144375799Y-104785718D01*
X144588841Y-104656718D01*
X144778634Y-104487906D01*
X144941122Y-104283623D01*
X145072248Y-104048209D01*
X145167956Y-103786005D01*
X145172452Y-103769632D01*
X145208750Y-103583026D01*
X145227655Y-103368920D01*
X145229177Y-103145257D01*
X145213331Y-102929982D01*
X145180128Y-102741040D01*
X145171703Y-102709044D01*
X145069939Y-102435435D01*
X144927268Y-102189468D01*
X144746196Y-101974653D01*
X144529230Y-101794495D01*
X144508000Y-101780082D01*
X144330356Y-101687504D01*
X144122302Y-101621748D01*
X143897802Y-101584907D01*
X143670822Y-101579073D01*
X143455324Y-101606341D01*
X143455324Y-101606341D01*
G37*
X143455324Y-101606341D02*
X143414089Y-101616143D01*
X143343121Y-101638829D01*
X143247827Y-101674963D01*
X143140479Y-101719187D01*
X143033347Y-101766147D01*
X142938702Y-101810487D01*
X142868815Y-101846851D01*
X142837936Y-101867598D01*
X142847626Y-101890582D01*
X142879964Y-101945508D01*
X142928536Y-102022651D01*
X142986926Y-102112288D01*
X143048719Y-102204695D01*
X143107498Y-102290151D01*
X143156848Y-102358930D01*
X143189323Y-102400159D01*
X143217764Y-102397624D01*
X143269919Y-102367335D01*
X143313593Y-102333312D01*
X143458702Y-102241226D01*
X143623513Y-102195559D01*
X143781902Y-102194284D01*
X143952602Y-102234902D01*
X144096741Y-102318127D01*
X144213755Y-102442925D01*
X144303081Y-102608260D01*
X144364157Y-102813097D01*
X144396419Y-103056401D01*
X144399574Y-103330200D01*
X144378133Y-103577826D01*
X144333016Y-103783741D01*
X144262370Y-103952105D01*
X144164343Y-104087080D01*
X144037083Y-104192826D01*
X144007421Y-104211151D01*
X143930227Y-104251415D01*
X143858762Y-104272876D01*
X143770973Y-104280676D01*
X143707900Y-104281009D01*
X143548183Y-104265354D01*
X143409453Y-104217392D01*
X143275375Y-104130613D01*
X143225154Y-104088663D01*
X143170908Y-104044162D01*
X143134586Y-104020225D01*
X143126945Y-104018969D01*
X143104784Y-104052288D01*
X143065502Y-104116333D01*
X143014770Y-104201348D01*
X142958257Y-104297575D01*
X142901634Y-104395257D01*
X142850569Y-104484636D01*
X142810735Y-104555956D01*
X142787799Y-104599460D01*
X142784547Y-104608180D01*
X142809782Y-104621554D01*
X142867656Y-104652253D01*
X142945938Y-104693786D01*
X142950543Y-104696230D01*
X143112853Y-104776612D01*
X143255788Y-104831928D01*
X143397728Y-104866986D01*
X143557053Y-104886593D01*
X143707900Y-104894340D01*
X143900715Y-104895569D01*
X144052750Y-104886113D01*
X144143564Y-104870565D01*
X144375799Y-104785718D01*
X144588841Y-104656718D01*
X144778634Y-104487906D01*
X144941122Y-104283623D01*
X145072248Y-104048209D01*
X145167956Y-103786005D01*
X145172452Y-103769632D01*
X145208750Y-103583026D01*
X145227655Y-103368920D01*
X145229177Y-103145257D01*
X145213331Y-102929982D01*
X145180128Y-102741040D01*
X145171703Y-102709044D01*
X145069939Y-102435435D01*
X144927268Y-102189468D01*
X144746196Y-101974653D01*
X144529230Y-101794495D01*
X144508000Y-101780082D01*
X144330356Y-101687504D01*
X144122302Y-101621748D01*
X143897802Y-101584907D01*
X143670822Y-101579073D01*
X143455324Y-101606341D01*
G36*
X141372380Y-102452359D02*
X141196424Y-102492264D01*
X141077487Y-102536895D01*
X140984902Y-102592778D01*
X140902221Y-102666360D01*
X140849083Y-102721188D01*
X140805604Y-102772829D01*
X140770709Y-102826992D01*
X140743324Y-102889387D01*
X140722376Y-102965723D01*
X140706791Y-103061710D01*
X140695496Y-103183058D01*
X140687415Y-103335475D01*
X140681477Y-103524670D01*
X140676606Y-103756355D01*
X140674451Y-103877477D01*
X140670193Y-104109434D01*
X140666070Y-104296051D01*
X140661724Y-104442785D01*
X140656797Y-104555095D01*
X140650932Y-104638437D01*
X140643769Y-104698269D01*
X140634951Y-104740049D01*
X140624120Y-104769234D01*
X140614865Y-104785527D01*
X140569829Y-104854200D01*
X141380582Y-104854200D01*
X141396500Y-104700698D01*
X141495898Y-104768483D01*
X141652054Y-104847254D01*
X141832908Y-104893178D01*
X142022705Y-104904137D01*
X142205691Y-104878011D01*
X142239166Y-104868436D01*
X142425571Y-104786112D01*
X142576480Y-104668585D01*
X142689348Y-104519321D01*
X142761625Y-104341786D01*
X142790765Y-104139443D01*
X142791212Y-104117600D01*
X142790548Y-104088545D01*
X142062293Y-104088545D01*
X142058037Y-104177884D01*
X142047910Y-104208502D01*
X141985221Y-104289089D01*
X141890277Y-104343481D01*
X141776673Y-104367352D01*
X141658004Y-104356378D01*
X141620404Y-104344508D01*
X141533217Y-104302968D01*
X141477576Y-104250366D01*
X141447106Y-104175280D01*
X141435434Y-104066289D01*
X141434600Y-104011572D01*
X141434600Y-103812800D01*
X141600516Y-103812800D01*
X141764253Y-103827824D01*
X141902872Y-103870733D01*
X141998324Y-103931555D01*
X142040931Y-103998298D01*
X142062293Y-104088545D01*
X142790548Y-104088545D01*
X142788597Y-104003273D01*
X142774949Y-103915974D01*
X142745450Y-103832311D01*
X142722118Y-103782215D01*
X142617777Y-103625636D01*
X142473396Y-103499758D01*
X142289631Y-103404878D01*
X142067138Y-103341291D01*
X141806574Y-103309295D01*
X141666206Y-103305241D01*
X141427912Y-103304800D01*
X141441804Y-103201228D01*
X141477738Y-103087960D01*
X141549656Y-103009507D01*
X141656276Y-102966163D01*
X141796313Y-102958223D01*
X141968484Y-102985980D01*
X142145491Y-103040144D01*
X142229949Y-103067413D01*
X142294942Y-103082373D01*
X142326805Y-103081908D01*
X142327138Y-103081589D01*
X142344724Y-103049872D01*
X142374820Y-102983912D01*
X142412098Y-102896745D01*
X142451227Y-102801404D01*
X142486878Y-102710925D01*
X142513720Y-102638340D01*
X142526425Y-102596685D01*
X142526800Y-102593302D01*
X142505010Y-102574617D01*
X142461553Y-102568200D01*
X142409969Y-102562037D01*
X142323150Y-102545424D01*
X142214897Y-102521175D01*
X142137703Y-102502173D01*
X141871904Y-102451360D01*
X141613224Y-102434718D01*
X141372380Y-102452359D01*
X141372380Y-102452359D01*
G37*
X141372380Y-102452359D02*
X141196424Y-102492264D01*
X141077487Y-102536895D01*
X140984902Y-102592778D01*
X140902221Y-102666360D01*
X140849083Y-102721188D01*
X140805604Y-102772829D01*
X140770709Y-102826992D01*
X140743324Y-102889387D01*
X140722376Y-102965723D01*
X140706791Y-103061710D01*
X140695496Y-103183058D01*
X140687415Y-103335475D01*
X140681477Y-103524670D01*
X140676606Y-103756355D01*
X140674451Y-103877477D01*
X140670193Y-104109434D01*
X140666070Y-104296051D01*
X140661724Y-104442785D01*
X140656797Y-104555095D01*
X140650932Y-104638437D01*
X140643769Y-104698269D01*
X140634951Y-104740049D01*
X140624120Y-104769234D01*
X140614865Y-104785527D01*
X140569829Y-104854200D01*
X141380582Y-104854200D01*
X141396500Y-104700698D01*
X141495898Y-104768483D01*
X141652054Y-104847254D01*
X141832908Y-104893178D01*
X142022705Y-104904137D01*
X142205691Y-104878011D01*
X142239166Y-104868436D01*
X142425571Y-104786112D01*
X142576480Y-104668585D01*
X142689348Y-104519321D01*
X142761625Y-104341786D01*
X142790765Y-104139443D01*
X142791212Y-104117600D01*
X142790548Y-104088545D01*
X142062293Y-104088545D01*
X142058037Y-104177884D01*
X142047910Y-104208502D01*
X141985221Y-104289089D01*
X141890277Y-104343481D01*
X141776673Y-104367352D01*
X141658004Y-104356378D01*
X141620404Y-104344508D01*
X141533217Y-104302968D01*
X141477576Y-104250366D01*
X141447106Y-104175280D01*
X141435434Y-104066289D01*
X141434600Y-104011572D01*
X141434600Y-103812800D01*
X141600516Y-103812800D01*
X141764253Y-103827824D01*
X141902872Y-103870733D01*
X141998324Y-103931555D01*
X142040931Y-103998298D01*
X142062293Y-104088545D01*
X142790548Y-104088545D01*
X142788597Y-104003273D01*
X142774949Y-103915974D01*
X142745450Y-103832311D01*
X142722118Y-103782215D01*
X142617777Y-103625636D01*
X142473396Y-103499758D01*
X142289631Y-103404878D01*
X142067138Y-103341291D01*
X141806574Y-103309295D01*
X141666206Y-103305241D01*
X141427912Y-103304800D01*
X141441804Y-103201228D01*
X141477738Y-103087960D01*
X141549656Y-103009507D01*
X141656276Y-102966163D01*
X141796313Y-102958223D01*
X141968484Y-102985980D01*
X142145491Y-103040144D01*
X142229949Y-103067413D01*
X142294942Y-103082373D01*
X142326805Y-103081908D01*
X142327138Y-103081589D01*
X142344724Y-103049872D01*
X142374820Y-102983912D01*
X142412098Y-102896745D01*
X142451227Y-102801404D01*
X142486878Y-102710925D01*
X142513720Y-102638340D01*
X142526425Y-102596685D01*
X142526800Y-102593302D01*
X142505010Y-102574617D01*
X142461553Y-102568200D01*
X142409969Y-102562037D01*
X142323150Y-102545424D01*
X142214897Y-102521175D01*
X142137703Y-102502173D01*
X141871904Y-102451360D01*
X141613224Y-102434718D01*
X141372380Y-102452359D01*
G36*
X138152536Y-103057150D02*
X138150994Y-103387052D01*
X138149434Y-103669981D01*
X138147739Y-103909761D01*
X138145792Y-104110219D01*
X138143477Y-104275181D01*
X138140678Y-104408472D01*
X138137276Y-104513918D01*
X138133156Y-104595345D01*
X138128201Y-104656580D01*
X138122293Y-104701447D01*
X138115317Y-104733774D01*
X138107155Y-104757385D01*
X138100198Y-104771650D01*
X138055096Y-104854200D01*
X138869200Y-104854200D01*
X138869200Y-104778000D01*
X138872559Y-104724452D01*
X138880649Y-104701804D01*
X138880773Y-104701800D01*
X138906891Y-104714784D01*
X138959274Y-104747537D01*
X138986097Y-104765421D01*
X139118397Y-104832647D01*
X139278063Y-104879589D01*
X139446978Y-104903338D01*
X139607023Y-104900984D01*
X139707400Y-104881247D01*
X139891462Y-104799939D01*
X140056590Y-104678200D01*
X140191483Y-104525510D01*
X140252845Y-104423694D01*
X140320269Y-104266029D01*
X140364145Y-104099951D01*
X140387286Y-103911403D01*
X140392759Y-103724913D01*
X140391998Y-103711200D01*
X139591864Y-103711200D01*
X139587366Y-103886895D01*
X139573751Y-104020414D01*
X139548523Y-104119949D01*
X139509188Y-104193691D01*
X139453249Y-104249831D01*
X139420984Y-104272170D01*
X139314579Y-104310164D01*
X139188856Y-104307176D01*
X139053797Y-104263728D01*
X139029501Y-104251773D01*
X138932700Y-104201557D01*
X138925858Y-103652487D01*
X138919015Y-103103416D01*
X138986109Y-103059454D01*
X139049640Y-103032707D01*
X139139332Y-103012044D01*
X139197367Y-103005065D01*
X139285745Y-103001970D01*
X139344709Y-103012095D01*
X139395015Y-103040683D01*
X139421073Y-103061568D01*
X139488417Y-103135167D01*
X139537336Y-103230737D01*
X139569659Y-103355234D01*
X139587213Y-103515611D01*
X139591864Y-103711200D01*
X140391998Y-103711200D01*
X140376325Y-103428965D01*
X140328458Y-103169134D01*
X140249829Y-102946509D01*
X140141111Y-102762180D01*
X140002975Y-102617237D01*
X139836094Y-102512768D01*
X139641140Y-102449864D01*
X139601830Y-102442835D01*
X139486297Y-102434575D01*
X139358937Y-102441429D01*
X139232339Y-102460852D01*
X139119088Y-102490299D01*
X139031772Y-102527225D01*
X138983738Y-102567815D01*
X138962873Y-102592282D01*
X138946830Y-102587192D01*
X138935075Y-102548657D01*
X138927076Y-102472788D01*
X138922298Y-102355701D01*
X138920207Y-102193506D01*
X138920000Y-102103670D01*
X138920523Y-101929573D01*
X138922531Y-101798217D01*
X138926689Y-101701550D01*
X138933657Y-101631519D01*
X138944099Y-101580073D01*
X138958678Y-101539158D01*
X138968062Y-101519470D01*
X139016124Y-101425200D01*
X138159772Y-101425200D01*
X138152536Y-103057150D01*
X138152536Y-103057150D01*
G37*
X138152536Y-103057150D02*
X138150994Y-103387052D01*
X138149434Y-103669981D01*
X138147739Y-103909761D01*
X138145792Y-104110219D01*
X138143477Y-104275181D01*
X138140678Y-104408472D01*
X138137276Y-104513918D01*
X138133156Y-104595345D01*
X138128201Y-104656580D01*
X138122293Y-104701447D01*
X138115317Y-104733774D01*
X138107155Y-104757385D01*
X138100198Y-104771650D01*
X138055096Y-104854200D01*
X138869200Y-104854200D01*
X138869200Y-104778000D01*
X138872559Y-104724452D01*
X138880649Y-104701804D01*
X138880773Y-104701800D01*
X138906891Y-104714784D01*
X138959274Y-104747537D01*
X138986097Y-104765421D01*
X139118397Y-104832647D01*
X139278063Y-104879589D01*
X139446978Y-104903338D01*
X139607023Y-104900984D01*
X139707400Y-104881247D01*
X139891462Y-104799939D01*
X140056590Y-104678200D01*
X140191483Y-104525510D01*
X140252845Y-104423694D01*
X140320269Y-104266029D01*
X140364145Y-104099951D01*
X140387286Y-103911403D01*
X140392759Y-103724913D01*
X140391998Y-103711200D01*
X139591864Y-103711200D01*
X139587366Y-103886895D01*
X139573751Y-104020414D01*
X139548523Y-104119949D01*
X139509188Y-104193691D01*
X139453249Y-104249831D01*
X139420984Y-104272170D01*
X139314579Y-104310164D01*
X139188856Y-104307176D01*
X139053797Y-104263728D01*
X139029501Y-104251773D01*
X138932700Y-104201557D01*
X138925858Y-103652487D01*
X138919015Y-103103416D01*
X138986109Y-103059454D01*
X139049640Y-103032707D01*
X139139332Y-103012044D01*
X139197367Y-103005065D01*
X139285745Y-103001970D01*
X139344709Y-103012095D01*
X139395015Y-103040683D01*
X139421073Y-103061568D01*
X139488417Y-103135167D01*
X139537336Y-103230737D01*
X139569659Y-103355234D01*
X139587213Y-103515611D01*
X139591864Y-103711200D01*
X140391998Y-103711200D01*
X140376325Y-103428965D01*
X140328458Y-103169134D01*
X140249829Y-102946509D01*
X140141111Y-102762180D01*
X140002975Y-102617237D01*
X139836094Y-102512768D01*
X139641140Y-102449864D01*
X139601830Y-102442835D01*
X139486297Y-102434575D01*
X139358937Y-102441429D01*
X139232339Y-102460852D01*
X139119088Y-102490299D01*
X139031772Y-102527225D01*
X138983738Y-102567815D01*
X138962873Y-102592282D01*
X138946830Y-102587192D01*
X138935075Y-102548657D01*
X138927076Y-102472788D01*
X138922298Y-102355701D01*
X138920207Y-102193506D01*
X138920000Y-102103670D01*
X138920523Y-101929573D01*
X138922531Y-101798217D01*
X138926689Y-101701550D01*
X138933657Y-101631519D01*
X138944099Y-101580073D01*
X138958678Y-101539158D01*
X138968062Y-101519470D01*
X139016124Y-101425200D01*
X138159772Y-101425200D01*
X138152536Y-103057150D01*
G36*
X138152536Y-53057150D02*
X138150994Y-53387052D01*
X138149434Y-53669981D01*
X138147739Y-53909761D01*
X138145792Y-54110219D01*
X138143477Y-54275181D01*
X138140678Y-54408472D01*
X138137276Y-54513918D01*
X138133156Y-54595345D01*
X138128201Y-54656580D01*
X138122293Y-54701447D01*
X138115317Y-54733774D01*
X138107155Y-54757385D01*
X138100198Y-54771650D01*
X138055096Y-54854200D01*
X138869200Y-54854200D01*
X138869200Y-54778000D01*
X138872559Y-54724452D01*
X138880649Y-54701804D01*
X138880773Y-54701800D01*
X138906891Y-54714784D01*
X138959274Y-54747537D01*
X138986097Y-54765421D01*
X139118397Y-54832647D01*
X139278063Y-54879589D01*
X139446978Y-54903338D01*
X139607023Y-54900984D01*
X139707400Y-54881247D01*
X139891462Y-54799939D01*
X140056590Y-54678200D01*
X140191483Y-54525510D01*
X140252845Y-54423694D01*
X140320269Y-54266029D01*
X140364145Y-54099951D01*
X140387286Y-53911403D01*
X140392759Y-53724913D01*
X140391998Y-53711200D01*
X139591864Y-53711200D01*
X139587366Y-53886895D01*
X139573751Y-54020414D01*
X139548523Y-54119949D01*
X139509188Y-54193691D01*
X139453249Y-54249831D01*
X139420984Y-54272170D01*
X139314579Y-54310164D01*
X139188856Y-54307176D01*
X139053797Y-54263728D01*
X139029501Y-54251773D01*
X138932700Y-54201557D01*
X138925858Y-53652487D01*
X138919015Y-53103416D01*
X138986109Y-53059454D01*
X139049640Y-53032707D01*
X139139332Y-53012044D01*
X139197367Y-53005065D01*
X139285745Y-53001970D01*
X139344709Y-53012095D01*
X139395015Y-53040683D01*
X139421073Y-53061568D01*
X139488417Y-53135167D01*
X139537336Y-53230737D01*
X139569659Y-53355234D01*
X139587213Y-53515611D01*
X139591864Y-53711200D01*
X140391998Y-53711200D01*
X140376325Y-53428965D01*
X140328458Y-53169134D01*
X140249829Y-52946509D01*
X140141111Y-52762180D01*
X140002975Y-52617237D01*
X139836094Y-52512768D01*
X139641140Y-52449864D01*
X139601830Y-52442835D01*
X139486297Y-52434575D01*
X139358937Y-52441429D01*
X139232339Y-52460852D01*
X139119088Y-52490299D01*
X139031772Y-52527225D01*
X138983738Y-52567815D01*
X138962873Y-52592282D01*
X138946830Y-52587192D01*
X138935075Y-52548657D01*
X138927076Y-52472788D01*
X138922298Y-52355701D01*
X138920207Y-52193506D01*
X138920000Y-52103670D01*
X138920523Y-51929573D01*
X138922531Y-51798217D01*
X138926689Y-51701550D01*
X138933657Y-51631519D01*
X138944099Y-51580073D01*
X138958678Y-51539158D01*
X138968062Y-51519470D01*
X139016124Y-51425200D01*
X138159772Y-51425200D01*
X138152536Y-53057150D01*
X138152536Y-53057150D01*
G37*
X138152536Y-53057150D02*
X138150994Y-53387052D01*
X138149434Y-53669981D01*
X138147739Y-53909761D01*
X138145792Y-54110219D01*
X138143477Y-54275181D01*
X138140678Y-54408472D01*
X138137276Y-54513918D01*
X138133156Y-54595345D01*
X138128201Y-54656580D01*
X138122293Y-54701447D01*
X138115317Y-54733774D01*
X138107155Y-54757385D01*
X138100198Y-54771650D01*
X138055096Y-54854200D01*
X138869200Y-54854200D01*
X138869200Y-54778000D01*
X138872559Y-54724452D01*
X138880649Y-54701804D01*
X138880773Y-54701800D01*
X138906891Y-54714784D01*
X138959274Y-54747537D01*
X138986097Y-54765421D01*
X139118397Y-54832647D01*
X139278063Y-54879589D01*
X139446978Y-54903338D01*
X139607023Y-54900984D01*
X139707400Y-54881247D01*
X139891462Y-54799939D01*
X140056590Y-54678200D01*
X140191483Y-54525510D01*
X140252845Y-54423694D01*
X140320269Y-54266029D01*
X140364145Y-54099951D01*
X140387286Y-53911403D01*
X140392759Y-53724913D01*
X140391998Y-53711200D01*
X139591864Y-53711200D01*
X139587366Y-53886895D01*
X139573751Y-54020414D01*
X139548523Y-54119949D01*
X139509188Y-54193691D01*
X139453249Y-54249831D01*
X139420984Y-54272170D01*
X139314579Y-54310164D01*
X139188856Y-54307176D01*
X139053797Y-54263728D01*
X139029501Y-54251773D01*
X138932700Y-54201557D01*
X138925858Y-53652487D01*
X138919015Y-53103416D01*
X138986109Y-53059454D01*
X139049640Y-53032707D01*
X139139332Y-53012044D01*
X139197367Y-53005065D01*
X139285745Y-53001970D01*
X139344709Y-53012095D01*
X139395015Y-53040683D01*
X139421073Y-53061568D01*
X139488417Y-53135167D01*
X139537336Y-53230737D01*
X139569659Y-53355234D01*
X139587213Y-53515611D01*
X139591864Y-53711200D01*
X140391998Y-53711200D01*
X140376325Y-53428965D01*
X140328458Y-53169134D01*
X140249829Y-52946509D01*
X140141111Y-52762180D01*
X140002975Y-52617237D01*
X139836094Y-52512768D01*
X139641140Y-52449864D01*
X139601830Y-52442835D01*
X139486297Y-52434575D01*
X139358937Y-52441429D01*
X139232339Y-52460852D01*
X139119088Y-52490299D01*
X139031772Y-52527225D01*
X138983738Y-52567815D01*
X138962873Y-52592282D01*
X138946830Y-52587192D01*
X138935075Y-52548657D01*
X138927076Y-52472788D01*
X138922298Y-52355701D01*
X138920207Y-52193506D01*
X138920000Y-52103670D01*
X138920523Y-51929573D01*
X138922531Y-51798217D01*
X138926689Y-51701550D01*
X138933657Y-51631519D01*
X138944099Y-51580073D01*
X138958678Y-51539158D01*
X138968062Y-51519470D01*
X139016124Y-51425200D01*
X138159772Y-51425200D01*
X138152536Y-53057150D01*
G36*
X141372380Y-52452359D02*
X141196424Y-52492264D01*
X141077487Y-52536895D01*
X140984902Y-52592778D01*
X140902221Y-52666360D01*
X140849083Y-52721188D01*
X140805604Y-52772829D01*
X140770709Y-52826992D01*
X140743324Y-52889387D01*
X140722376Y-52965723D01*
X140706791Y-53061710D01*
X140695496Y-53183058D01*
X140687415Y-53335475D01*
X140681477Y-53524670D01*
X140676606Y-53756355D01*
X140674451Y-53877477D01*
X140670193Y-54109434D01*
X140666070Y-54296051D01*
X140661724Y-54442785D01*
X140656797Y-54555095D01*
X140650932Y-54638437D01*
X140643769Y-54698269D01*
X140634951Y-54740049D01*
X140624120Y-54769234D01*
X140614865Y-54785527D01*
X140569829Y-54854200D01*
X141380582Y-54854200D01*
X141396500Y-54700698D01*
X141495898Y-54768483D01*
X141652054Y-54847254D01*
X141832908Y-54893178D01*
X142022705Y-54904137D01*
X142205691Y-54878011D01*
X142239166Y-54868436D01*
X142425571Y-54786112D01*
X142576480Y-54668585D01*
X142689348Y-54519321D01*
X142761625Y-54341786D01*
X142790765Y-54139443D01*
X142791212Y-54117600D01*
X142790548Y-54088545D01*
X142062293Y-54088545D01*
X142058037Y-54177884D01*
X142047910Y-54208502D01*
X141985221Y-54289089D01*
X141890277Y-54343481D01*
X141776673Y-54367352D01*
X141658004Y-54356378D01*
X141620404Y-54344508D01*
X141533217Y-54302968D01*
X141477576Y-54250366D01*
X141447106Y-54175280D01*
X141435434Y-54066289D01*
X141434600Y-54011572D01*
X141434600Y-53812800D01*
X141600516Y-53812800D01*
X141764253Y-53827824D01*
X141902872Y-53870733D01*
X141998324Y-53931555D01*
X142040931Y-53998298D01*
X142062293Y-54088545D01*
X142790548Y-54088545D01*
X142788597Y-54003273D01*
X142774949Y-53915974D01*
X142745450Y-53832311D01*
X142722118Y-53782215D01*
X142617777Y-53625636D01*
X142473396Y-53499758D01*
X142289631Y-53404878D01*
X142067138Y-53341291D01*
X141806574Y-53309295D01*
X141666206Y-53305241D01*
X141427912Y-53304800D01*
X141441804Y-53201228D01*
X141477738Y-53087960D01*
X141549656Y-53009507D01*
X141656276Y-52966163D01*
X141796313Y-52958223D01*
X141968484Y-52985980D01*
X142145491Y-53040144D01*
X142229949Y-53067413D01*
X142294942Y-53082373D01*
X142326805Y-53081908D01*
X142327138Y-53081589D01*
X142344724Y-53049872D01*
X142374820Y-52983912D01*
X142412098Y-52896745D01*
X142451227Y-52801404D01*
X142486878Y-52710925D01*
X142513720Y-52638340D01*
X142526425Y-52596685D01*
X142526800Y-52593302D01*
X142505010Y-52574617D01*
X142461553Y-52568200D01*
X142409969Y-52562037D01*
X142323150Y-52545424D01*
X142214897Y-52521175D01*
X142137703Y-52502173D01*
X141871904Y-52451360D01*
X141613224Y-52434718D01*
X141372380Y-52452359D01*
X141372380Y-52452359D01*
G37*
X141372380Y-52452359D02*
X141196424Y-52492264D01*
X141077487Y-52536895D01*
X140984902Y-52592778D01*
X140902221Y-52666360D01*
X140849083Y-52721188D01*
X140805604Y-52772829D01*
X140770709Y-52826992D01*
X140743324Y-52889387D01*
X140722376Y-52965723D01*
X140706791Y-53061710D01*
X140695496Y-53183058D01*
X140687415Y-53335475D01*
X140681477Y-53524670D01*
X140676606Y-53756355D01*
X140674451Y-53877477D01*
X140670193Y-54109434D01*
X140666070Y-54296051D01*
X140661724Y-54442785D01*
X140656797Y-54555095D01*
X140650932Y-54638437D01*
X140643769Y-54698269D01*
X140634951Y-54740049D01*
X140624120Y-54769234D01*
X140614865Y-54785527D01*
X140569829Y-54854200D01*
X141380582Y-54854200D01*
X141396500Y-54700698D01*
X141495898Y-54768483D01*
X141652054Y-54847254D01*
X141832908Y-54893178D01*
X142022705Y-54904137D01*
X142205691Y-54878011D01*
X142239166Y-54868436D01*
X142425571Y-54786112D01*
X142576480Y-54668585D01*
X142689348Y-54519321D01*
X142761625Y-54341786D01*
X142790765Y-54139443D01*
X142791212Y-54117600D01*
X142790548Y-54088545D01*
X142062293Y-54088545D01*
X142058037Y-54177884D01*
X142047910Y-54208502D01*
X141985221Y-54289089D01*
X141890277Y-54343481D01*
X141776673Y-54367352D01*
X141658004Y-54356378D01*
X141620404Y-54344508D01*
X141533217Y-54302968D01*
X141477576Y-54250366D01*
X141447106Y-54175280D01*
X141435434Y-54066289D01*
X141434600Y-54011572D01*
X141434600Y-53812800D01*
X141600516Y-53812800D01*
X141764253Y-53827824D01*
X141902872Y-53870733D01*
X141998324Y-53931555D01*
X142040931Y-53998298D01*
X142062293Y-54088545D01*
X142790548Y-54088545D01*
X142788597Y-54003273D01*
X142774949Y-53915974D01*
X142745450Y-53832311D01*
X142722118Y-53782215D01*
X142617777Y-53625636D01*
X142473396Y-53499758D01*
X142289631Y-53404878D01*
X142067138Y-53341291D01*
X141806574Y-53309295D01*
X141666206Y-53305241D01*
X141427912Y-53304800D01*
X141441804Y-53201228D01*
X141477738Y-53087960D01*
X141549656Y-53009507D01*
X141656276Y-52966163D01*
X141796313Y-52958223D01*
X141968484Y-52985980D01*
X142145491Y-53040144D01*
X142229949Y-53067413D01*
X142294942Y-53082373D01*
X142326805Y-53081908D01*
X142327138Y-53081589D01*
X142344724Y-53049872D01*
X142374820Y-52983912D01*
X142412098Y-52896745D01*
X142451227Y-52801404D01*
X142486878Y-52710925D01*
X142513720Y-52638340D01*
X142526425Y-52596685D01*
X142526800Y-52593302D01*
X142505010Y-52574617D01*
X142461553Y-52568200D01*
X142409969Y-52562037D01*
X142323150Y-52545424D01*
X142214897Y-52521175D01*
X142137703Y-52502173D01*
X141871904Y-52451360D01*
X141613224Y-52434718D01*
X141372380Y-52452359D01*
G36*
X143455324Y-51606341D02*
X143414089Y-51616143D01*
X143343121Y-51638829D01*
X143247827Y-51674963D01*
X143140479Y-51719187D01*
X143033347Y-51766147D01*
X142938702Y-51810487D01*
X142868815Y-51846851D01*
X142837936Y-51867598D01*
X142847626Y-51890582D01*
X142879964Y-51945508D01*
X142928536Y-52022651D01*
X142986926Y-52112288D01*
X143048719Y-52204695D01*
X143107498Y-52290151D01*
X143156848Y-52358930D01*
X143189323Y-52400159D01*
X143217764Y-52397624D01*
X143269919Y-52367335D01*
X143313593Y-52333312D01*
X143458702Y-52241226D01*
X143623513Y-52195559D01*
X143781902Y-52194284D01*
X143952602Y-52234902D01*
X144096741Y-52318127D01*
X144213755Y-52442925D01*
X144303081Y-52608260D01*
X144364157Y-52813097D01*
X144396419Y-53056401D01*
X144399574Y-53330200D01*
X144378133Y-53577826D01*
X144333016Y-53783741D01*
X144262370Y-53952105D01*
X144164343Y-54087080D01*
X144037083Y-54192826D01*
X144007421Y-54211151D01*
X143930227Y-54251415D01*
X143858762Y-54272876D01*
X143770973Y-54280676D01*
X143707900Y-54281009D01*
X143548183Y-54265354D01*
X143409453Y-54217392D01*
X143275375Y-54130613D01*
X143225154Y-54088663D01*
X143170908Y-54044162D01*
X143134586Y-54020225D01*
X143126945Y-54018969D01*
X143104784Y-54052288D01*
X143065502Y-54116333D01*
X143014770Y-54201348D01*
X142958257Y-54297575D01*
X142901634Y-54395257D01*
X142850569Y-54484636D01*
X142810735Y-54555956D01*
X142787799Y-54599460D01*
X142784547Y-54608180D01*
X142809782Y-54621554D01*
X142867656Y-54652253D01*
X142945938Y-54693786D01*
X142950543Y-54696230D01*
X143112853Y-54776612D01*
X143255788Y-54831928D01*
X143397728Y-54866986D01*
X143557053Y-54886593D01*
X143707900Y-54894340D01*
X143900715Y-54895569D01*
X144052750Y-54886113D01*
X144143564Y-54870565D01*
X144375799Y-54785718D01*
X144588841Y-54656718D01*
X144778634Y-54487906D01*
X144941122Y-54283623D01*
X145072248Y-54048209D01*
X145167956Y-53786005D01*
X145172452Y-53769632D01*
X145208750Y-53583026D01*
X145227655Y-53368920D01*
X145229177Y-53145257D01*
X145213331Y-52929982D01*
X145180128Y-52741040D01*
X145171703Y-52709044D01*
X145069939Y-52435435D01*
X144927268Y-52189468D01*
X144746196Y-51974653D01*
X144529230Y-51794495D01*
X144508000Y-51780082D01*
X144330356Y-51687504D01*
X144122302Y-51621748D01*
X143897802Y-51584907D01*
X143670822Y-51579073D01*
X143455324Y-51606341D01*
X143455324Y-51606341D01*
G37*
X143455324Y-51606341D02*
X143414089Y-51616143D01*
X143343121Y-51638829D01*
X143247827Y-51674963D01*
X143140479Y-51719187D01*
X143033347Y-51766147D01*
X142938702Y-51810487D01*
X142868815Y-51846851D01*
X142837936Y-51867598D01*
X142847626Y-51890582D01*
X142879964Y-51945508D01*
X142928536Y-52022651D01*
X142986926Y-52112288D01*
X143048719Y-52204695D01*
X143107498Y-52290151D01*
X143156848Y-52358930D01*
X143189323Y-52400159D01*
X143217764Y-52397624D01*
X143269919Y-52367335D01*
X143313593Y-52333312D01*
X143458702Y-52241226D01*
X143623513Y-52195559D01*
X143781902Y-52194284D01*
X143952602Y-52234902D01*
X144096741Y-52318127D01*
X144213755Y-52442925D01*
X144303081Y-52608260D01*
X144364157Y-52813097D01*
X144396419Y-53056401D01*
X144399574Y-53330200D01*
X144378133Y-53577826D01*
X144333016Y-53783741D01*
X144262370Y-53952105D01*
X144164343Y-54087080D01*
X144037083Y-54192826D01*
X144007421Y-54211151D01*
X143930227Y-54251415D01*
X143858762Y-54272876D01*
X143770973Y-54280676D01*
X143707900Y-54281009D01*
X143548183Y-54265354D01*
X143409453Y-54217392D01*
X143275375Y-54130613D01*
X143225154Y-54088663D01*
X143170908Y-54044162D01*
X143134586Y-54020225D01*
X143126945Y-54018969D01*
X143104784Y-54052288D01*
X143065502Y-54116333D01*
X143014770Y-54201348D01*
X142958257Y-54297575D01*
X142901634Y-54395257D01*
X142850569Y-54484636D01*
X142810735Y-54555956D01*
X142787799Y-54599460D01*
X142784547Y-54608180D01*
X142809782Y-54621554D01*
X142867656Y-54652253D01*
X142945938Y-54693786D01*
X142950543Y-54696230D01*
X143112853Y-54776612D01*
X143255788Y-54831928D01*
X143397728Y-54866986D01*
X143557053Y-54886593D01*
X143707900Y-54894340D01*
X143900715Y-54895569D01*
X144052750Y-54886113D01*
X144143564Y-54870565D01*
X144375799Y-54785718D01*
X144588841Y-54656718D01*
X144778634Y-54487906D01*
X144941122Y-54283623D01*
X145072248Y-54048209D01*
X145167956Y-53786005D01*
X145172452Y-53769632D01*
X145208750Y-53583026D01*
X145227655Y-53368920D01*
X145229177Y-53145257D01*
X145213331Y-52929982D01*
X145180128Y-52741040D01*
X145171703Y-52709044D01*
X145069939Y-52435435D01*
X144927268Y-52189468D01*
X144746196Y-51974653D01*
X144529230Y-51794495D01*
X144508000Y-51780082D01*
X144330356Y-51687504D01*
X144122302Y-51621748D01*
X143897802Y-51584907D01*
X143670822Y-51579073D01*
X143455324Y-51606341D01*
G36*
X145548637Y-51042699D02*
X145526845Y-51049976D01*
X145508414Y-51066420D01*
X145493065Y-51095197D01*
X145480519Y-51139474D01*
X145470495Y-51202418D01*
X145462717Y-51287194D01*
X145456904Y-51396971D01*
X145452777Y-51534914D01*
X145450057Y-51704191D01*
X145448465Y-51907968D01*
X145447723Y-52149411D01*
X145447550Y-52431687D01*
X145447668Y-52757964D01*
X145447797Y-53131407D01*
X145447800Y-53190500D01*
X145447878Y-53565884D01*
X145448151Y-53893711D01*
X145448682Y-54177221D01*
X145449531Y-54419658D01*
X145450760Y-54624261D01*
X145452431Y-54794274D01*
X145454605Y-54932939D01*
X145457343Y-55043496D01*
X145460708Y-55129188D01*
X145464759Y-55193257D01*
X145469559Y-55238944D01*
X145475169Y-55269492D01*
X145481651Y-55288141D01*
X145487715Y-55296885D01*
X145498791Y-55303992D01*
X145518999Y-55310213D01*
X145551510Y-55315606D01*
X145599497Y-55320229D01*
X145666133Y-55324140D01*
X145754590Y-55327396D01*
X145868040Y-55330056D01*
X146009656Y-55332175D01*
X146182610Y-55333813D01*
X146390076Y-55335028D01*
X146635224Y-55335876D01*
X146921229Y-55336415D01*
X147251261Y-55336703D01*
X147628495Y-55336798D01*
X147683001Y-55336800D01*
X148066824Y-55336726D01*
X148403020Y-55336467D01*
X148694761Y-55335965D01*
X148945219Y-55335162D01*
X149157568Y-55334000D01*
X149334979Y-55332422D01*
X149480625Y-55330371D01*
X149597678Y-55327787D01*
X149689312Y-55324615D01*
X149758697Y-55320795D01*
X149809008Y-55316271D01*
X149843416Y-55310985D01*
X149865093Y-55304879D01*
X149877213Y-55297895D01*
X149878286Y-55296885D01*
X149885535Y-55285627D01*
X149891862Y-55265152D01*
X149897328Y-55232219D01*
X149901994Y-55183586D01*
X149905922Y-55116011D01*
X149909174Y-55026252D01*
X149911810Y-54911068D01*
X149913893Y-54767217D01*
X149915483Y-54591456D01*
X149916642Y-54380544D01*
X149917432Y-54131239D01*
X149917914Y-53840300D01*
X149918149Y-53504484D01*
X149918200Y-53190500D01*
X149918123Y-52815115D01*
X149917850Y-52487288D01*
X149917319Y-52203778D01*
X149916470Y-51961341D01*
X149915241Y-51756738D01*
X149914052Y-51635729D01*
X149638801Y-51635729D01*
X149628363Y-51660638D01*
X149602056Y-51714844D01*
X149588001Y-51742699D01*
X149577068Y-51765774D01*
X149567826Y-51791420D01*
X149560133Y-51823859D01*
X149553848Y-51867308D01*
X149548828Y-51925988D01*
X149544932Y-52004117D01*
X149542017Y-52105917D01*
X149539943Y-52235605D01*
X149538566Y-52397401D01*
X149537746Y-52595525D01*
X149537341Y-52834197D01*
X149537209Y-53117635D01*
X149537201Y-53254290D01*
X149537561Y-53517726D01*
X149538598Y-53766037D01*
X149540244Y-53994556D01*
X149542432Y-54198618D01*
X149545097Y-54373558D01*
X149548170Y-54514711D01*
X149551585Y-54617410D01*
X149555276Y-54676991D01*
X149557776Y-54690370D01*
X149582200Y-54730136D01*
X149608032Y-54784350D01*
X149637711Y-54854200D01*
X149111206Y-54853811D01*
X148956033Y-54852849D01*
X148821650Y-54850381D01*
X148715001Y-54846674D01*
X148643030Y-54841992D01*
X148612681Y-54836600D01*
X148612906Y-54834761D01*
X148642855Y-54800826D01*
X148678668Y-54742626D01*
X148682756Y-54734811D01*
X148697682Y-54697521D01*
X148708693Y-54647267D01*
X148716331Y-54576556D01*
X148721134Y-54477898D01*
X148723644Y-54343800D01*
X148724399Y-54166772D01*
X148724400Y-54156961D01*
X148723167Y-53979347D01*
X148719604Y-53836876D01*
X148713922Y-53733727D01*
X148706328Y-53674078D01*
X148699586Y-53660400D01*
X148670086Y-53679770D01*
X148632359Y-53726744D01*
X148630085Y-53730250D01*
X148589507Y-53787268D01*
X148555301Y-53825500D01*
X148524853Y-53862632D01*
X148484917Y-53924966D01*
X148471329Y-53948833D01*
X148429180Y-54015930D01*
X148366473Y-54104720D01*
X148295408Y-54198064D01*
X148281458Y-54215533D01*
X148173339Y-54358344D01*
X148082862Y-54494967D01*
X148014611Y-54617349D01*
X147973169Y-54717440D01*
X147962400Y-54775923D01*
X147962400Y-54854200D01*
X146835945Y-54854200D01*
X146848071Y-54840488D01*
X146692400Y-54840488D01*
X146668301Y-54844757D01*
X146601204Y-54848485D01*
X146498911Y-54851448D01*
X146369222Y-54853426D01*
X146219939Y-54854196D01*
X146209800Y-54854200D01*
X146033033Y-54853408D01*
X145901899Y-54850806D01*
X145811253Y-54846056D01*
X145755950Y-54838818D01*
X145730844Y-54828752D01*
X145728008Y-54822450D01*
X145742962Y-54778554D01*
X145766108Y-54741395D01*
X145775302Y-54722692D01*
X145782898Y-54690195D01*
X145789041Y-54639498D01*
X145793873Y-54566196D01*
X145797536Y-54465883D01*
X145800174Y-54334154D01*
X145801930Y-54166604D01*
X145802947Y-53958827D01*
X145803367Y-53706418D01*
X145803400Y-53592045D01*
X145803400Y-52492000D01*
X146668305Y-52492000D01*
X146629553Y-52566938D01*
X146619522Y-52592815D01*
X146611333Y-52631092D01*
X146604808Y-52686607D01*
X146599774Y-52764197D01*
X146596053Y-52868700D01*
X146593471Y-53004954D01*
X146591852Y-53177797D01*
X146591021Y-53392067D01*
X146590800Y-53634750D01*
X146590914Y-53886440D01*
X146591415Y-54092511D01*
X146592545Y-54258147D01*
X146594545Y-54388527D01*
X146597655Y-54488835D01*
X146602117Y-54564251D01*
X146608171Y-54619957D01*
X146616059Y-54661135D01*
X146626021Y-54692967D01*
X146638299Y-54720635D01*
X146641600Y-54727200D01*
X146672510Y-54790636D01*
X146690520Y-54833110D01*
X146692400Y-54840488D01*
X146848071Y-54840488D01*
X146897523Y-54784570D01*
X146941445Y-54735266D01*
X146969627Y-54704290D01*
X146971800Y-54702020D01*
X147029555Y-54638905D01*
X147101037Y-54554689D01*
X147176103Y-54462065D01*
X147244609Y-54373725D01*
X147296412Y-54302361D01*
X147316624Y-54270547D01*
X147356845Y-54206584D01*
X147420338Y-54115299D01*
X147498196Y-54008680D01*
X147581513Y-53898715D01*
X147661383Y-53797390D01*
X147723727Y-53722607D01*
X147784171Y-53645548D01*
X147840841Y-53561943D01*
X147845022Y-53555050D01*
X147972363Y-53356936D01*
X148068006Y-53226356D01*
X148137964Y-53135212D01*
X148056532Y-53047760D01*
X147986340Y-52968661D01*
X147896285Y-52861892D01*
X147796943Y-52740451D01*
X147698893Y-52617339D01*
X147612711Y-52505555D01*
X147583849Y-52466815D01*
X147279059Y-52086892D01*
X147039721Y-51829787D01*
X146840941Y-51628400D01*
X147386253Y-51628400D01*
X147571450Y-51628523D01*
X147712002Y-51629861D01*
X147814063Y-51633867D01*
X147883788Y-51641993D01*
X147927331Y-51655691D01*
X147950847Y-51676416D01*
X147960489Y-51705618D01*
X147962414Y-51744751D01*
X147962400Y-51764390D01*
X147977988Y-51817842D01*
X148017059Y-51885121D01*
X148034701Y-51908362D01*
X148093348Y-51985668D01*
X148156110Y-52076586D01*
X148178198Y-52111000D01*
X148221448Y-52177764D01*
X148255088Y-52224931D01*
X148266761Y-52238000D01*
X148296555Y-52267339D01*
X148345755Y-52323018D01*
X148405478Y-52394108D01*
X148466838Y-52469681D01*
X148520953Y-52538808D01*
X148558937Y-52590561D01*
X148572000Y-52613483D01*
X148588818Y-52642974D01*
X148630854Y-52690717D01*
X148648201Y-52707900D01*
X148724401Y-52780904D01*
X148724400Y-52361088D01*
X148722807Y-52178302D01*
X148717105Y-52035476D01*
X148705907Y-51921840D01*
X148687828Y-51826629D01*
X148661482Y-51739075D01*
X148635836Y-51672850D01*
X148632606Y-51657771D01*
X148641351Y-51646538D01*
X148668295Y-51638591D01*
X148719662Y-51633367D01*
X148801676Y-51630303D01*
X148920561Y-51628838D01*
X149082540Y-51628410D01*
X149128083Y-51628400D01*
X149282917Y-51628746D01*
X149418878Y-51629712D01*
X149528383Y-51631190D01*
X149603849Y-51633071D01*
X149637692Y-51635245D01*
X149638801Y-51635729D01*
X149914052Y-51635729D01*
X149913570Y-51586725D01*
X149911396Y-51448060D01*
X149908658Y-51337503D01*
X149905293Y-51251811D01*
X149901242Y-51187742D01*
X149896442Y-51142055D01*
X149890832Y-51111507D01*
X149884350Y-51092858D01*
X149878286Y-51084114D01*
X149865822Y-51075934D01*
X149843563Y-51068938D01*
X149807809Y-51063034D01*
X149754859Y-51058133D01*
X149681012Y-51054144D01*
X149582569Y-51050978D01*
X149455827Y-51048544D01*
X149297087Y-51046752D01*
X149102647Y-51045511D01*
X148868807Y-51044733D01*
X148591865Y-51044326D01*
X148268122Y-51044200D01*
X146641600Y-51044200D01*
X146641600Y-51140418D01*
X146621521Y-51256335D01*
X146568475Y-51375000D01*
X146493246Y-51475991D01*
X146440994Y-51520244D01*
X146327454Y-51567370D01*
X146196500Y-51577636D01*
X146062372Y-51553918D01*
X145939310Y-51499089D01*
X145841552Y-51416023D01*
X145826200Y-51396147D01*
X145779194Y-51295428D01*
X145757561Y-51179877D01*
X145746310Y-51044199D01*
X145636970Y-51044200D01*
X145603420Y-51042977D01*
X145574069Y-51041421D01*
X145548637Y-51042699D01*
X145548637Y-51042699D01*
G37*
X145548637Y-51042699D02*
X145526845Y-51049976D01*
X145508414Y-51066420D01*
X145493065Y-51095197D01*
X145480519Y-51139474D01*
X145470495Y-51202418D01*
X145462717Y-51287194D01*
X145456904Y-51396971D01*
X145452777Y-51534914D01*
X145450057Y-51704191D01*
X145448465Y-51907968D01*
X145447723Y-52149411D01*
X145447550Y-52431687D01*
X145447668Y-52757964D01*
X145447797Y-53131407D01*
X145447800Y-53190500D01*
X145447878Y-53565884D01*
X145448151Y-53893711D01*
X145448682Y-54177221D01*
X145449531Y-54419658D01*
X145450760Y-54624261D01*
X145452431Y-54794274D01*
X145454605Y-54932939D01*
X145457343Y-55043496D01*
X145460708Y-55129188D01*
X145464759Y-55193257D01*
X145469559Y-55238944D01*
X145475169Y-55269492D01*
X145481651Y-55288141D01*
X145487715Y-55296885D01*
X145498791Y-55303992D01*
X145518999Y-55310213D01*
X145551510Y-55315606D01*
X145599497Y-55320229D01*
X145666133Y-55324140D01*
X145754590Y-55327396D01*
X145868040Y-55330056D01*
X146009656Y-55332175D01*
X146182610Y-55333813D01*
X146390076Y-55335028D01*
X146635224Y-55335876D01*
X146921229Y-55336415D01*
X147251261Y-55336703D01*
X147628495Y-55336798D01*
X147683001Y-55336800D01*
X148066824Y-55336726D01*
X148403020Y-55336467D01*
X148694761Y-55335965D01*
X148945219Y-55335162D01*
X149157568Y-55334000D01*
X149334979Y-55332422D01*
X149480625Y-55330371D01*
X149597678Y-55327787D01*
X149689312Y-55324615D01*
X149758697Y-55320795D01*
X149809008Y-55316271D01*
X149843416Y-55310985D01*
X149865093Y-55304879D01*
X149877213Y-55297895D01*
X149878286Y-55296885D01*
X149885535Y-55285627D01*
X149891862Y-55265152D01*
X149897328Y-55232219D01*
X149901994Y-55183586D01*
X149905922Y-55116011D01*
X149909174Y-55026252D01*
X149911810Y-54911068D01*
X149913893Y-54767217D01*
X149915483Y-54591456D01*
X149916642Y-54380544D01*
X149917432Y-54131239D01*
X149917914Y-53840300D01*
X149918149Y-53504484D01*
X149918200Y-53190500D01*
X149918123Y-52815115D01*
X149917850Y-52487288D01*
X149917319Y-52203778D01*
X149916470Y-51961341D01*
X149915241Y-51756738D01*
X149914052Y-51635729D01*
X149638801Y-51635729D01*
X149628363Y-51660638D01*
X149602056Y-51714844D01*
X149588001Y-51742699D01*
X149577068Y-51765774D01*
X149567826Y-51791420D01*
X149560133Y-51823859D01*
X149553848Y-51867308D01*
X149548828Y-51925988D01*
X149544932Y-52004117D01*
X149542017Y-52105917D01*
X149539943Y-52235605D01*
X149538566Y-52397401D01*
X149537746Y-52595525D01*
X149537341Y-52834197D01*
X149537209Y-53117635D01*
X149537201Y-53254290D01*
X149537561Y-53517726D01*
X149538598Y-53766037D01*
X149540244Y-53994556D01*
X149542432Y-54198618D01*
X149545097Y-54373558D01*
X149548170Y-54514711D01*
X149551585Y-54617410D01*
X149555276Y-54676991D01*
X149557776Y-54690370D01*
X149582200Y-54730136D01*
X149608032Y-54784350D01*
X149637711Y-54854200D01*
X149111206Y-54853811D01*
X148956033Y-54852849D01*
X148821650Y-54850381D01*
X148715001Y-54846674D01*
X148643030Y-54841992D01*
X148612681Y-54836600D01*
X148612906Y-54834761D01*
X148642855Y-54800826D01*
X148678668Y-54742626D01*
X148682756Y-54734811D01*
X148697682Y-54697521D01*
X148708693Y-54647267D01*
X148716331Y-54576556D01*
X148721134Y-54477898D01*
X148723644Y-54343800D01*
X148724399Y-54166772D01*
X148724400Y-54156961D01*
X148723167Y-53979347D01*
X148719604Y-53836876D01*
X148713922Y-53733727D01*
X148706328Y-53674078D01*
X148699586Y-53660400D01*
X148670086Y-53679770D01*
X148632359Y-53726744D01*
X148630085Y-53730250D01*
X148589507Y-53787268D01*
X148555301Y-53825500D01*
X148524853Y-53862632D01*
X148484917Y-53924966D01*
X148471329Y-53948833D01*
X148429180Y-54015930D01*
X148366473Y-54104720D01*
X148295408Y-54198064D01*
X148281458Y-54215533D01*
X148173339Y-54358344D01*
X148082862Y-54494967D01*
X148014611Y-54617349D01*
X147973169Y-54717440D01*
X147962400Y-54775923D01*
X147962400Y-54854200D01*
X146835945Y-54854200D01*
X146848071Y-54840488D01*
X146692400Y-54840488D01*
X146668301Y-54844757D01*
X146601204Y-54848485D01*
X146498911Y-54851448D01*
X146369222Y-54853426D01*
X146219939Y-54854196D01*
X146209800Y-54854200D01*
X146033033Y-54853408D01*
X145901899Y-54850806D01*
X145811253Y-54846056D01*
X145755950Y-54838818D01*
X145730844Y-54828752D01*
X145728008Y-54822450D01*
X145742962Y-54778554D01*
X145766108Y-54741395D01*
X145775302Y-54722692D01*
X145782898Y-54690195D01*
X145789041Y-54639498D01*
X145793873Y-54566196D01*
X145797536Y-54465883D01*
X145800174Y-54334154D01*
X145801930Y-54166604D01*
X145802947Y-53958827D01*
X145803367Y-53706418D01*
X145803400Y-53592045D01*
X145803400Y-52492000D01*
X146668305Y-52492000D01*
X146629553Y-52566938D01*
X146619522Y-52592815D01*
X146611333Y-52631092D01*
X146604808Y-52686607D01*
X146599774Y-52764197D01*
X146596053Y-52868700D01*
X146593471Y-53004954D01*
X146591852Y-53177797D01*
X146591021Y-53392067D01*
X146590800Y-53634750D01*
X146590914Y-53886440D01*
X146591415Y-54092511D01*
X146592545Y-54258147D01*
X146594545Y-54388527D01*
X146597655Y-54488835D01*
X146602117Y-54564251D01*
X146608171Y-54619957D01*
X146616059Y-54661135D01*
X146626021Y-54692967D01*
X146638299Y-54720635D01*
X146641600Y-54727200D01*
X146672510Y-54790636D01*
X146690520Y-54833110D01*
X146692400Y-54840488D01*
X146848071Y-54840488D01*
X146897523Y-54784570D01*
X146941445Y-54735266D01*
X146969627Y-54704290D01*
X146971800Y-54702020D01*
X147029555Y-54638905D01*
X147101037Y-54554689D01*
X147176103Y-54462065D01*
X147244609Y-54373725D01*
X147296412Y-54302361D01*
X147316624Y-54270547D01*
X147356845Y-54206584D01*
X147420338Y-54115299D01*
X147498196Y-54008680D01*
X147581513Y-53898715D01*
X147661383Y-53797390D01*
X147723727Y-53722607D01*
X147784171Y-53645548D01*
X147840841Y-53561943D01*
X147845022Y-53555050D01*
X147972363Y-53356936D01*
X148068006Y-53226356D01*
X148137964Y-53135212D01*
X148056532Y-53047760D01*
X147986340Y-52968661D01*
X147896285Y-52861892D01*
X147796943Y-52740451D01*
X147698893Y-52617339D01*
X147612711Y-52505555D01*
X147583849Y-52466815D01*
X147279059Y-52086892D01*
X147039721Y-51829787D01*
X146840941Y-51628400D01*
X147386253Y-51628400D01*
X147571450Y-51628523D01*
X147712002Y-51629861D01*
X147814063Y-51633867D01*
X147883788Y-51641993D01*
X147927331Y-51655691D01*
X147950847Y-51676416D01*
X147960489Y-51705618D01*
X147962414Y-51744751D01*
X147962400Y-51764390D01*
X147977988Y-51817842D01*
X148017059Y-51885121D01*
X148034701Y-51908362D01*
X148093348Y-51985668D01*
X148156110Y-52076586D01*
X148178198Y-52111000D01*
X148221448Y-52177764D01*
X148255088Y-52224931D01*
X148266761Y-52238000D01*
X148296555Y-52267339D01*
X148345755Y-52323018D01*
X148405478Y-52394108D01*
X148466838Y-52469681D01*
X148520953Y-52538808D01*
X148558937Y-52590561D01*
X148572000Y-52613483D01*
X148588818Y-52642974D01*
X148630854Y-52690717D01*
X148648201Y-52707900D01*
X148724401Y-52780904D01*
X148724400Y-52361088D01*
X148722807Y-52178302D01*
X148717105Y-52035476D01*
X148705907Y-51921840D01*
X148687828Y-51826629D01*
X148661482Y-51739075D01*
X148635836Y-51672850D01*
X148632606Y-51657771D01*
X148641351Y-51646538D01*
X148668295Y-51638591D01*
X148719662Y-51633367D01*
X148801676Y-51630303D01*
X148920561Y-51628838D01*
X149082540Y-51628410D01*
X149128083Y-51628400D01*
X149282917Y-51628746D01*
X149418878Y-51629712D01*
X149528383Y-51631190D01*
X149603849Y-51633071D01*
X149637692Y-51635245D01*
X149638801Y-51635729D01*
X149914052Y-51635729D01*
X149913570Y-51586725D01*
X149911396Y-51448060D01*
X149908658Y-51337503D01*
X149905293Y-51251811D01*
X149901242Y-51187742D01*
X149896442Y-51142055D01*
X149890832Y-51111507D01*
X149884350Y-51092858D01*
X149878286Y-51084114D01*
X149865822Y-51075934D01*
X149843563Y-51068938D01*
X149807809Y-51063034D01*
X149754859Y-51058133D01*
X149681012Y-51054144D01*
X149582569Y-51050978D01*
X149455827Y-51048544D01*
X149297087Y-51046752D01*
X149102647Y-51045511D01*
X148868807Y-51044733D01*
X148591865Y-51044326D01*
X148268122Y-51044200D01*
X146641600Y-51044200D01*
X146641600Y-51140418D01*
X146621521Y-51256335D01*
X146568475Y-51375000D01*
X146493246Y-51475991D01*
X146440994Y-51520244D01*
X146327454Y-51567370D01*
X146196500Y-51577636D01*
X146062372Y-51553918D01*
X145939310Y-51499089D01*
X145841552Y-51416023D01*
X145826200Y-51396147D01*
X145779194Y-51295428D01*
X145757561Y-51179877D01*
X145746310Y-51044199D01*
X145636970Y-51044200D01*
X145603420Y-51042977D01*
X145574069Y-51041421D01*
X145548637Y-51042699D01*
G04 #@! TD*
%LPC*%
G04 #@! TO.C,LO_2*
G36*
X147386253Y-101628400D02*
X146840941Y-101628400D01*
X147039721Y-101829787D01*
X147369429Y-102192691D01*
X147583849Y-102466815D01*
X147662297Y-102570400D01*
X147756856Y-102690529D01*
X147856950Y-102814202D01*
X147952002Y-102928419D01*
X148031434Y-103020181D01*
X148056532Y-103047760D01*
X148137964Y-103135212D01*
X148068006Y-103226356D01*
X147932564Y-103415604D01*
X147845022Y-103555050D01*
X147790152Y-103637286D01*
X147728876Y-103716612D01*
X147723727Y-103722607D01*
X147654778Y-103805581D01*
X147574253Y-103908137D01*
X147491058Y-104018288D01*
X147414098Y-104124047D01*
X147352281Y-104213425D01*
X147316624Y-104270547D01*
X147281543Y-104323596D01*
X147223014Y-104402062D01*
X147151180Y-104493252D01*
X147076185Y-104584472D01*
X147008172Y-104663032D01*
X146971800Y-104702020D01*
X146947911Y-104728081D01*
X146905637Y-104775406D01*
X146897523Y-104784570D01*
X146835945Y-104854200D01*
X147962400Y-104854200D01*
X147962400Y-104775923D01*
X147979163Y-104699395D01*
X148026393Y-104594149D01*
X148099507Y-104468239D01*
X148193919Y-104329716D01*
X148281458Y-104215533D01*
X148352732Y-104123313D01*
X148418053Y-104032269D01*
X148465223Y-103959535D01*
X148471329Y-103948833D01*
X148511371Y-103882434D01*
X148546658Y-103834284D01*
X148555301Y-103825500D01*
X148589862Y-103786816D01*
X148630085Y-103730250D01*
X148667774Y-103682093D01*
X148698285Y-103660487D01*
X148699586Y-103660400D01*
X148708462Y-103685091D01*
X148715582Y-103756381D01*
X148720736Y-103870092D01*
X148723717Y-104022044D01*
X148724400Y-104156961D01*
X148723716Y-104336263D01*
X148721305Y-104472270D01*
X148716625Y-104572475D01*
X148709137Y-104644369D01*
X148698302Y-104695443D01*
X148683579Y-104733188D01*
X148682756Y-104734811D01*
X148647283Y-104794491D01*
X148615777Y-104832618D01*
X148612906Y-104834761D01*
X148628403Y-104840323D01*
X148687753Y-104845262D01*
X148784014Y-104849312D01*
X148910241Y-104852207D01*
X149059489Y-104853682D01*
X149111206Y-104853811D01*
X149637711Y-104854200D01*
X149608032Y-104784350D01*
X149579859Y-104725758D01*
X149557776Y-104690370D01*
X149553943Y-104661142D01*
X149550343Y-104585781D01*
X149547041Y-104468951D01*
X149544104Y-104315317D01*
X149541601Y-104129546D01*
X149539596Y-103916302D01*
X149538158Y-103680251D01*
X149537353Y-103426059D01*
X149537201Y-103254290D01*
X149537259Y-102950311D01*
X149537530Y-102692912D01*
X149538154Y-102477874D01*
X149539274Y-102300978D01*
X149541031Y-102158004D01*
X149543567Y-102044733D01*
X149547024Y-101956945D01*
X149551543Y-101890421D01*
X149557267Y-101840941D01*
X149564338Y-101804286D01*
X149572896Y-101776237D01*
X149583084Y-101752574D01*
X149588001Y-101742699D01*
X149618756Y-101680869D01*
X149636810Y-101641660D01*
X149638801Y-101635729D01*
X149614665Y-101633507D01*
X149547312Y-101631556D01*
X149444328Y-101629984D01*
X149313294Y-101628901D01*
X149161795Y-101628415D01*
X149128083Y-101628400D01*
X148954940Y-101628664D01*
X148826371Y-101629831D01*
X148736154Y-101632464D01*
X148678063Y-101637123D01*
X148645876Y-101644372D01*
X148633368Y-101654772D01*
X148634314Y-101668885D01*
X148635836Y-101672850D01*
X148669195Y-101761673D01*
X148693261Y-101850181D01*
X148709420Y-101949141D01*
X148719058Y-102069321D01*
X148723560Y-102221488D01*
X148724400Y-102361088D01*
X148724401Y-102780904D01*
X148648201Y-102707900D01*
X148600587Y-102657557D01*
X148574006Y-102620278D01*
X148572000Y-102613483D01*
X148556863Y-102587550D01*
X148517372Y-102534128D01*
X148462412Y-102464145D01*
X148400868Y-102388529D01*
X148341623Y-102318209D01*
X148293561Y-102264114D01*
X148266761Y-102238000D01*
X148244439Y-102210734D01*
X148206064Y-102154630D01*
X148178198Y-102111000D01*
X148119995Y-102023298D01*
X148057049Y-101936698D01*
X148034701Y-101908362D01*
X147989987Y-101841736D01*
X147964592Y-101780643D01*
X147962400Y-101764390D01*
X147961878Y-101720677D01*
X147956209Y-101687502D01*
X147939238Y-101663412D01*
X147904811Y-101646955D01*
X147846774Y-101636677D01*
X147758972Y-101631127D01*
X147635250Y-101628851D01*
X147469455Y-101628396D01*
X147386253Y-101628400D01*
X147386253Y-101628400D01*
G37*
X147386253Y-101628400D02*
X146840941Y-101628400D01*
X147039721Y-101829787D01*
X147369429Y-102192691D01*
X147583849Y-102466815D01*
X147662297Y-102570400D01*
X147756856Y-102690529D01*
X147856950Y-102814202D01*
X147952002Y-102928419D01*
X148031434Y-103020181D01*
X148056532Y-103047760D01*
X148137964Y-103135212D01*
X148068006Y-103226356D01*
X147932564Y-103415604D01*
X147845022Y-103555050D01*
X147790152Y-103637286D01*
X147728876Y-103716612D01*
X147723727Y-103722607D01*
X147654778Y-103805581D01*
X147574253Y-103908137D01*
X147491058Y-104018288D01*
X147414098Y-104124047D01*
X147352281Y-104213425D01*
X147316624Y-104270547D01*
X147281543Y-104323596D01*
X147223014Y-104402062D01*
X147151180Y-104493252D01*
X147076185Y-104584472D01*
X147008172Y-104663032D01*
X146971800Y-104702020D01*
X146947911Y-104728081D01*
X146905637Y-104775406D01*
X146897523Y-104784570D01*
X146835945Y-104854200D01*
X147962400Y-104854200D01*
X147962400Y-104775923D01*
X147979163Y-104699395D01*
X148026393Y-104594149D01*
X148099507Y-104468239D01*
X148193919Y-104329716D01*
X148281458Y-104215533D01*
X148352732Y-104123313D01*
X148418053Y-104032269D01*
X148465223Y-103959535D01*
X148471329Y-103948833D01*
X148511371Y-103882434D01*
X148546658Y-103834284D01*
X148555301Y-103825500D01*
X148589862Y-103786816D01*
X148630085Y-103730250D01*
X148667774Y-103682093D01*
X148698285Y-103660487D01*
X148699586Y-103660400D01*
X148708462Y-103685091D01*
X148715582Y-103756381D01*
X148720736Y-103870092D01*
X148723717Y-104022044D01*
X148724400Y-104156961D01*
X148723716Y-104336263D01*
X148721305Y-104472270D01*
X148716625Y-104572475D01*
X148709137Y-104644369D01*
X148698302Y-104695443D01*
X148683579Y-104733188D01*
X148682756Y-104734811D01*
X148647283Y-104794491D01*
X148615777Y-104832618D01*
X148612906Y-104834761D01*
X148628403Y-104840323D01*
X148687753Y-104845262D01*
X148784014Y-104849312D01*
X148910241Y-104852207D01*
X149059489Y-104853682D01*
X149111206Y-104853811D01*
X149637711Y-104854200D01*
X149608032Y-104784350D01*
X149579859Y-104725758D01*
X149557776Y-104690370D01*
X149553943Y-104661142D01*
X149550343Y-104585781D01*
X149547041Y-104468951D01*
X149544104Y-104315317D01*
X149541601Y-104129546D01*
X149539596Y-103916302D01*
X149538158Y-103680251D01*
X149537353Y-103426059D01*
X149537201Y-103254290D01*
X149537259Y-102950311D01*
X149537530Y-102692912D01*
X149538154Y-102477874D01*
X149539274Y-102300978D01*
X149541031Y-102158004D01*
X149543567Y-102044733D01*
X149547024Y-101956945D01*
X149551543Y-101890421D01*
X149557267Y-101840941D01*
X149564338Y-101804286D01*
X149572896Y-101776237D01*
X149583084Y-101752574D01*
X149588001Y-101742699D01*
X149618756Y-101680869D01*
X149636810Y-101641660D01*
X149638801Y-101635729D01*
X149614665Y-101633507D01*
X149547312Y-101631556D01*
X149444328Y-101629984D01*
X149313294Y-101628901D01*
X149161795Y-101628415D01*
X149128083Y-101628400D01*
X148954940Y-101628664D01*
X148826371Y-101629831D01*
X148736154Y-101632464D01*
X148678063Y-101637123D01*
X148645876Y-101644372D01*
X148633368Y-101654772D01*
X148634314Y-101668885D01*
X148635836Y-101672850D01*
X148669195Y-101761673D01*
X148693261Y-101850181D01*
X148709420Y-101949141D01*
X148719058Y-102069321D01*
X148723560Y-102221488D01*
X148724400Y-102361088D01*
X148724401Y-102780904D01*
X148648201Y-102707900D01*
X148600587Y-102657557D01*
X148574006Y-102620278D01*
X148572000Y-102613483D01*
X148556863Y-102587550D01*
X148517372Y-102534128D01*
X148462412Y-102464145D01*
X148400868Y-102388529D01*
X148341623Y-102318209D01*
X148293561Y-102264114D01*
X148266761Y-102238000D01*
X148244439Y-102210734D01*
X148206064Y-102154630D01*
X148178198Y-102111000D01*
X148119995Y-102023298D01*
X148057049Y-101936698D01*
X148034701Y-101908362D01*
X147989987Y-101841736D01*
X147964592Y-101780643D01*
X147962400Y-101764390D01*
X147961878Y-101720677D01*
X147956209Y-101687502D01*
X147939238Y-101663412D01*
X147904811Y-101646955D01*
X147846774Y-101636677D01*
X147758972Y-101631127D01*
X147635250Y-101628851D01*
X147469455Y-101628396D01*
X147386253Y-101628400D01*
G36*
X145803400Y-103592045D02*
X145803179Y-103863528D01*
X145802417Y-104088618D01*
X145800974Y-104271721D01*
X145798706Y-104417240D01*
X145795469Y-104529583D01*
X145791122Y-104613155D01*
X145785520Y-104672359D01*
X145778522Y-104711603D01*
X145769984Y-104735292D01*
X145766108Y-104741395D01*
X145739822Y-104778943D01*
X145729109Y-104807085D01*
X145739290Y-104827174D01*
X145775688Y-104840563D01*
X145843624Y-104848605D01*
X145948422Y-104852653D01*
X146095402Y-104854060D01*
X146209800Y-104854200D01*
X146360082Y-104853515D01*
X146491273Y-104851608D01*
X146595573Y-104848702D01*
X146665181Y-104845017D01*
X146692295Y-104840776D01*
X146692400Y-104840488D01*
X146681845Y-104811454D01*
X146655274Y-104754509D01*
X146641600Y-104727200D01*
X146628734Y-104699760D01*
X146618241Y-104669394D01*
X146609880Y-104630920D01*
X146603409Y-104579155D01*
X146598589Y-104508918D01*
X146595178Y-104415027D01*
X146592935Y-104292301D01*
X146591619Y-104135559D01*
X146590990Y-103939617D01*
X146590805Y-103699296D01*
X146590800Y-103634750D01*
X146591053Y-103377269D01*
X146591929Y-103165749D01*
X146593604Y-102995351D01*
X146596252Y-102861238D01*
X146600050Y-102758571D01*
X146605173Y-102682513D01*
X146611797Y-102628226D01*
X146620097Y-102590872D01*
X146629553Y-102566938D01*
X146668305Y-102492000D01*
X145803400Y-102492000D01*
X145803400Y-103592045D01*
X145803400Y-103592045D01*
G37*
X145803400Y-103592045D02*
X145803179Y-103863528D01*
X145802417Y-104088618D01*
X145800974Y-104271721D01*
X145798706Y-104417240D01*
X145795469Y-104529583D01*
X145791122Y-104613155D01*
X145785520Y-104672359D01*
X145778522Y-104711603D01*
X145769984Y-104735292D01*
X145766108Y-104741395D01*
X145739822Y-104778943D01*
X145729109Y-104807085D01*
X145739290Y-104827174D01*
X145775688Y-104840563D01*
X145843624Y-104848605D01*
X145948422Y-104852653D01*
X146095402Y-104854060D01*
X146209800Y-104854200D01*
X146360082Y-104853515D01*
X146491273Y-104851608D01*
X146595573Y-104848702D01*
X146665181Y-104845017D01*
X146692295Y-104840776D01*
X146692400Y-104840488D01*
X146681845Y-104811454D01*
X146655274Y-104754509D01*
X146641600Y-104727200D01*
X146628734Y-104699760D01*
X146618241Y-104669394D01*
X146609880Y-104630920D01*
X146603409Y-104579155D01*
X146598589Y-104508918D01*
X146595178Y-104415027D01*
X146592935Y-104292301D01*
X146591619Y-104135559D01*
X146590990Y-103939617D01*
X146590805Y-103699296D01*
X146590800Y-103634750D01*
X146591053Y-103377269D01*
X146591929Y-103165749D01*
X146593604Y-102995351D01*
X146596252Y-102861238D01*
X146600050Y-102758571D01*
X146605173Y-102682513D01*
X146611797Y-102628226D01*
X146620097Y-102590872D01*
X146629553Y-102566938D01*
X146668305Y-102492000D01*
X145803400Y-102492000D01*
X145803400Y-103592045D01*
G36*
X146044059Y-100725960D02*
X145926455Y-100792395D01*
X145832977Y-100895045D01*
X145789188Y-100981124D01*
X145758578Y-101119614D01*
X145767679Y-101257591D01*
X145815027Y-101379084D01*
X145827412Y-101397850D01*
X145917851Y-101485408D01*
X146036729Y-101545553D01*
X146169667Y-101575418D01*
X146302287Y-101572134D01*
X146420210Y-101532832D01*
X146440994Y-101520244D01*
X146523263Y-101441394D01*
X146591086Y-101332770D01*
X146633253Y-101215295D01*
X146641600Y-101145799D01*
X146622326Y-101036575D01*
X146571810Y-100922110D01*
X146501018Y-100823158D01*
X146445358Y-100774295D01*
X146313139Y-100713876D01*
X146176163Y-100698776D01*
X146044059Y-100725960D01*
X146044059Y-100725960D01*
G37*
X146044059Y-100725960D02*
X145926455Y-100792395D01*
X145832977Y-100895045D01*
X145789188Y-100981124D01*
X145758578Y-101119614D01*
X145767679Y-101257591D01*
X145815027Y-101379084D01*
X145827412Y-101397850D01*
X145917851Y-101485408D01*
X146036729Y-101545553D01*
X146169667Y-101575418D01*
X146302287Y-101572134D01*
X146420210Y-101532832D01*
X146440994Y-101520244D01*
X146523263Y-101441394D01*
X146591086Y-101332770D01*
X146633253Y-101215295D01*
X146641600Y-101145799D01*
X146622326Y-101036575D01*
X146571810Y-100922110D01*
X146501018Y-100823158D01*
X146445358Y-100774295D01*
X146313139Y-100713876D01*
X146176163Y-100698776D01*
X146044059Y-100725960D01*
G36*
X146044059Y-50725960D02*
X145926455Y-50792395D01*
X145832977Y-50895045D01*
X145789188Y-50981124D01*
X145758578Y-51119614D01*
X145767679Y-51257591D01*
X145815027Y-51379084D01*
X145827412Y-51397850D01*
X145917851Y-51485408D01*
X146036729Y-51545553D01*
X146169667Y-51575418D01*
X146302287Y-51572134D01*
X146420210Y-51532832D01*
X146440994Y-51520244D01*
X146523263Y-51441394D01*
X146591086Y-51332770D01*
X146633253Y-51215295D01*
X146641600Y-51145799D01*
X146622326Y-51036575D01*
X146571810Y-50922110D01*
X146501018Y-50823158D01*
X146445358Y-50774295D01*
X146313139Y-50713876D01*
X146176163Y-50698776D01*
X146044059Y-50725960D01*
X146044059Y-50725960D01*
G37*
X146044059Y-50725960D02*
X145926455Y-50792395D01*
X145832977Y-50895045D01*
X145789188Y-50981124D01*
X145758578Y-51119614D01*
X145767679Y-51257591D01*
X145815027Y-51379084D01*
X145827412Y-51397850D01*
X145917851Y-51485408D01*
X146036729Y-51545553D01*
X146169667Y-51575418D01*
X146302287Y-51572134D01*
X146420210Y-51532832D01*
X146440994Y-51520244D01*
X146523263Y-51441394D01*
X146591086Y-51332770D01*
X146633253Y-51215295D01*
X146641600Y-51145799D01*
X146622326Y-51036575D01*
X146571810Y-50922110D01*
X146501018Y-50823158D01*
X146445358Y-50774295D01*
X146313139Y-50713876D01*
X146176163Y-50698776D01*
X146044059Y-50725960D01*
G36*
X145803400Y-53592045D02*
X145803179Y-53863528D01*
X145802417Y-54088618D01*
X145800974Y-54271721D01*
X145798706Y-54417240D01*
X145795469Y-54529583D01*
X145791122Y-54613155D01*
X145785520Y-54672359D01*
X145778522Y-54711603D01*
X145769984Y-54735292D01*
X145766108Y-54741395D01*
X145739822Y-54778943D01*
X145729109Y-54807085D01*
X145739290Y-54827174D01*
X145775688Y-54840563D01*
X145843624Y-54848605D01*
X145948422Y-54852653D01*
X146095402Y-54854060D01*
X146209800Y-54854200D01*
X146360082Y-54853515D01*
X146491273Y-54851608D01*
X146595573Y-54848702D01*
X146665181Y-54845017D01*
X146692295Y-54840776D01*
X146692400Y-54840488D01*
X146681845Y-54811454D01*
X146655274Y-54754509D01*
X146641600Y-54727200D01*
X146628734Y-54699760D01*
X146618241Y-54669394D01*
X146609880Y-54630920D01*
X146603409Y-54579155D01*
X146598589Y-54508918D01*
X146595178Y-54415027D01*
X146592935Y-54292301D01*
X146591619Y-54135559D01*
X146590990Y-53939617D01*
X146590805Y-53699296D01*
X146590800Y-53634750D01*
X146591053Y-53377269D01*
X146591929Y-53165749D01*
X146593604Y-52995351D01*
X146596252Y-52861238D01*
X146600050Y-52758571D01*
X146605173Y-52682513D01*
X146611797Y-52628226D01*
X146620097Y-52590872D01*
X146629553Y-52566938D01*
X146668305Y-52492000D01*
X145803400Y-52492000D01*
X145803400Y-53592045D01*
X145803400Y-53592045D01*
G37*
X145803400Y-53592045D02*
X145803179Y-53863528D01*
X145802417Y-54088618D01*
X145800974Y-54271721D01*
X145798706Y-54417240D01*
X145795469Y-54529583D01*
X145791122Y-54613155D01*
X145785520Y-54672359D01*
X145778522Y-54711603D01*
X145769984Y-54735292D01*
X145766108Y-54741395D01*
X145739822Y-54778943D01*
X145729109Y-54807085D01*
X145739290Y-54827174D01*
X145775688Y-54840563D01*
X145843624Y-54848605D01*
X145948422Y-54852653D01*
X146095402Y-54854060D01*
X146209800Y-54854200D01*
X146360082Y-54853515D01*
X146491273Y-54851608D01*
X146595573Y-54848702D01*
X146665181Y-54845017D01*
X146692295Y-54840776D01*
X146692400Y-54840488D01*
X146681845Y-54811454D01*
X146655274Y-54754509D01*
X146641600Y-54727200D01*
X146628734Y-54699760D01*
X146618241Y-54669394D01*
X146609880Y-54630920D01*
X146603409Y-54579155D01*
X146598589Y-54508918D01*
X146595178Y-54415027D01*
X146592935Y-54292301D01*
X146591619Y-54135559D01*
X146590990Y-53939617D01*
X146590805Y-53699296D01*
X146590800Y-53634750D01*
X146591053Y-53377269D01*
X146591929Y-53165749D01*
X146593604Y-52995351D01*
X146596252Y-52861238D01*
X146600050Y-52758571D01*
X146605173Y-52682513D01*
X146611797Y-52628226D01*
X146620097Y-52590872D01*
X146629553Y-52566938D01*
X146668305Y-52492000D01*
X145803400Y-52492000D01*
X145803400Y-53592045D01*
G36*
X147386253Y-51628400D02*
X146840941Y-51628400D01*
X147039721Y-51829787D01*
X147369429Y-52192691D01*
X147583849Y-52466815D01*
X147662297Y-52570400D01*
X147756856Y-52690529D01*
X147856950Y-52814202D01*
X147952002Y-52928419D01*
X148031434Y-53020181D01*
X148056532Y-53047760D01*
X148137964Y-53135212D01*
X148068006Y-53226356D01*
X147932564Y-53415604D01*
X147845022Y-53555050D01*
X147790152Y-53637286D01*
X147728876Y-53716612D01*
X147723727Y-53722607D01*
X147654778Y-53805581D01*
X147574253Y-53908137D01*
X147491058Y-54018288D01*
X147414098Y-54124047D01*
X147352281Y-54213425D01*
X147316624Y-54270547D01*
X147281543Y-54323596D01*
X147223014Y-54402062D01*
X147151180Y-54493252D01*
X147076185Y-54584472D01*
X147008172Y-54663032D01*
X146971800Y-54702020D01*
X146947911Y-54728081D01*
X146905637Y-54775406D01*
X146897523Y-54784570D01*
X146835945Y-54854200D01*
X147962400Y-54854200D01*
X147962400Y-54775923D01*
X147979163Y-54699395D01*
X148026393Y-54594149D01*
X148099507Y-54468239D01*
X148193919Y-54329716D01*
X148281458Y-54215533D01*
X148352732Y-54123313D01*
X148418053Y-54032269D01*
X148465223Y-53959535D01*
X148471329Y-53948833D01*
X148511371Y-53882434D01*
X148546658Y-53834284D01*
X148555301Y-53825500D01*
X148589862Y-53786816D01*
X148630085Y-53730250D01*
X148667774Y-53682093D01*
X148698285Y-53660487D01*
X148699586Y-53660400D01*
X148708462Y-53685091D01*
X148715582Y-53756381D01*
X148720736Y-53870092D01*
X148723717Y-54022044D01*
X148724400Y-54156961D01*
X148723716Y-54336263D01*
X148721305Y-54472270D01*
X148716625Y-54572475D01*
X148709137Y-54644369D01*
X148698302Y-54695443D01*
X148683579Y-54733188D01*
X148682756Y-54734811D01*
X148647283Y-54794491D01*
X148615777Y-54832618D01*
X148612906Y-54834761D01*
X148628403Y-54840323D01*
X148687753Y-54845262D01*
X148784014Y-54849312D01*
X148910241Y-54852207D01*
X149059489Y-54853682D01*
X149111206Y-54853811D01*
X149637711Y-54854200D01*
X149608032Y-54784350D01*
X149579859Y-54725758D01*
X149557776Y-54690370D01*
X149553943Y-54661142D01*
X149550343Y-54585781D01*
X149547041Y-54468951D01*
X149544104Y-54315317D01*
X149541601Y-54129546D01*
X149539596Y-53916302D01*
X149538158Y-53680251D01*
X149537353Y-53426059D01*
X149537201Y-53254290D01*
X149537259Y-52950311D01*
X149537530Y-52692912D01*
X149538154Y-52477874D01*
X149539274Y-52300978D01*
X149541031Y-52158004D01*
X149543567Y-52044733D01*
X149547024Y-51956945D01*
X149551543Y-51890421D01*
X149557267Y-51840941D01*
X149564338Y-51804286D01*
X149572896Y-51776237D01*
X149583084Y-51752574D01*
X149588001Y-51742699D01*
X149618756Y-51680869D01*
X149636810Y-51641660D01*
X149638801Y-51635729D01*
X149614665Y-51633507D01*
X149547312Y-51631556D01*
X149444328Y-51629984D01*
X149313294Y-51628901D01*
X149161795Y-51628415D01*
X149128083Y-51628400D01*
X148954940Y-51628664D01*
X148826371Y-51629831D01*
X148736154Y-51632464D01*
X148678063Y-51637123D01*
X148645876Y-51644372D01*
X148633368Y-51654772D01*
X148634314Y-51668885D01*
X148635836Y-51672850D01*
X148669195Y-51761673D01*
X148693261Y-51850181D01*
X148709420Y-51949141D01*
X148719058Y-52069321D01*
X148723560Y-52221488D01*
X148724400Y-52361088D01*
X148724401Y-52780904D01*
X148648201Y-52707900D01*
X148600587Y-52657557D01*
X148574006Y-52620278D01*
X148572000Y-52613483D01*
X148556863Y-52587550D01*
X148517372Y-52534128D01*
X148462412Y-52464145D01*
X148400868Y-52388529D01*
X148341623Y-52318209D01*
X148293561Y-52264114D01*
X148266761Y-52238000D01*
X148244439Y-52210734D01*
X148206064Y-52154630D01*
X148178198Y-52111000D01*
X148119995Y-52023298D01*
X148057049Y-51936698D01*
X148034701Y-51908362D01*
X147989987Y-51841736D01*
X147964592Y-51780643D01*
X147962400Y-51764390D01*
X147961878Y-51720677D01*
X147956209Y-51687502D01*
X147939238Y-51663412D01*
X147904811Y-51646955D01*
X147846774Y-51636677D01*
X147758972Y-51631127D01*
X147635250Y-51628851D01*
X147469455Y-51628396D01*
X147386253Y-51628400D01*
X147386253Y-51628400D01*
G37*
X147386253Y-51628400D02*
X146840941Y-51628400D01*
X147039721Y-51829787D01*
X147369429Y-52192691D01*
X147583849Y-52466815D01*
X147662297Y-52570400D01*
X147756856Y-52690529D01*
X147856950Y-52814202D01*
X147952002Y-52928419D01*
X148031434Y-53020181D01*
X148056532Y-53047760D01*
X148137964Y-53135212D01*
X148068006Y-53226356D01*
X147932564Y-53415604D01*
X147845022Y-53555050D01*
X147790152Y-53637286D01*
X147728876Y-53716612D01*
X147723727Y-53722607D01*
X147654778Y-53805581D01*
X147574253Y-53908137D01*
X147491058Y-54018288D01*
X147414098Y-54124047D01*
X147352281Y-54213425D01*
X147316624Y-54270547D01*
X147281543Y-54323596D01*
X147223014Y-54402062D01*
X147151180Y-54493252D01*
X147076185Y-54584472D01*
X147008172Y-54663032D01*
X146971800Y-54702020D01*
X146947911Y-54728081D01*
X146905637Y-54775406D01*
X146897523Y-54784570D01*
X146835945Y-54854200D01*
X147962400Y-54854200D01*
X147962400Y-54775923D01*
X147979163Y-54699395D01*
X148026393Y-54594149D01*
X148099507Y-54468239D01*
X148193919Y-54329716D01*
X148281458Y-54215533D01*
X148352732Y-54123313D01*
X148418053Y-54032269D01*
X148465223Y-53959535D01*
X148471329Y-53948833D01*
X148511371Y-53882434D01*
X148546658Y-53834284D01*
X148555301Y-53825500D01*
X148589862Y-53786816D01*
X148630085Y-53730250D01*
X148667774Y-53682093D01*
X148698285Y-53660487D01*
X148699586Y-53660400D01*
X148708462Y-53685091D01*
X148715582Y-53756381D01*
X148720736Y-53870092D01*
X148723717Y-54022044D01*
X148724400Y-54156961D01*
X148723716Y-54336263D01*
X148721305Y-54472270D01*
X148716625Y-54572475D01*
X148709137Y-54644369D01*
X148698302Y-54695443D01*
X148683579Y-54733188D01*
X148682756Y-54734811D01*
X148647283Y-54794491D01*
X148615777Y-54832618D01*
X148612906Y-54834761D01*
X148628403Y-54840323D01*
X148687753Y-54845262D01*
X148784014Y-54849312D01*
X148910241Y-54852207D01*
X149059489Y-54853682D01*
X149111206Y-54853811D01*
X149637711Y-54854200D01*
X149608032Y-54784350D01*
X149579859Y-54725758D01*
X149557776Y-54690370D01*
X149553943Y-54661142D01*
X149550343Y-54585781D01*
X149547041Y-54468951D01*
X149544104Y-54315317D01*
X149541601Y-54129546D01*
X149539596Y-53916302D01*
X149538158Y-53680251D01*
X149537353Y-53426059D01*
X149537201Y-53254290D01*
X149537259Y-52950311D01*
X149537530Y-52692912D01*
X149538154Y-52477874D01*
X149539274Y-52300978D01*
X149541031Y-52158004D01*
X149543567Y-52044733D01*
X149547024Y-51956945D01*
X149551543Y-51890421D01*
X149557267Y-51840941D01*
X149564338Y-51804286D01*
X149572896Y-51776237D01*
X149583084Y-51752574D01*
X149588001Y-51742699D01*
X149618756Y-51680869D01*
X149636810Y-51641660D01*
X149638801Y-51635729D01*
X149614665Y-51633507D01*
X149547312Y-51631556D01*
X149444328Y-51629984D01*
X149313294Y-51628901D01*
X149161795Y-51628415D01*
X149128083Y-51628400D01*
X148954940Y-51628664D01*
X148826371Y-51629831D01*
X148736154Y-51632464D01*
X148678063Y-51637123D01*
X148645876Y-51644372D01*
X148633368Y-51654772D01*
X148634314Y-51668885D01*
X148635836Y-51672850D01*
X148669195Y-51761673D01*
X148693261Y-51850181D01*
X148709420Y-51949141D01*
X148719058Y-52069321D01*
X148723560Y-52221488D01*
X148724400Y-52361088D01*
X148724401Y-52780904D01*
X148648201Y-52707900D01*
X148600587Y-52657557D01*
X148574006Y-52620278D01*
X148572000Y-52613483D01*
X148556863Y-52587550D01*
X148517372Y-52534128D01*
X148462412Y-52464145D01*
X148400868Y-52388529D01*
X148341623Y-52318209D01*
X148293561Y-52264114D01*
X148266761Y-52238000D01*
X148244439Y-52210734D01*
X148206064Y-52154630D01*
X148178198Y-52111000D01*
X148119995Y-52023298D01*
X148057049Y-51936698D01*
X148034701Y-51908362D01*
X147989987Y-51841736D01*
X147964592Y-51780643D01*
X147962400Y-51764390D01*
X147961878Y-51720677D01*
X147956209Y-51687502D01*
X147939238Y-51663412D01*
X147904811Y-51646955D01*
X147846774Y-51636677D01*
X147758972Y-51631127D01*
X147635250Y-51628851D01*
X147469455Y-51628396D01*
X147386253Y-51628400D01*
G04 #@! TD*
D12*
G04 #@! TO.C,J31*
X139000000Y-122460000D03*
G04 #@! TD*
G04 #@! TO.C,J34*
X159000000Y-119920000D03*
G04 #@! TD*
G04 #@! TO.C,J30*
X139000000Y-119920000D03*
G04 #@! TD*
G04 #@! TO.C,J32*
X139000000Y-125000000D03*
G04 #@! TD*
G04 #@! TO.C,J35*
X159000000Y-122460000D03*
G04 #@! TD*
G04 #@! TO.C,J33*
X159000000Y-117380000D03*
G04 #@! TD*
G04 #@! TO.C,J29*
X139000000Y-117380000D03*
G04 #@! TD*
G04 #@! TO.C,J36*
X159000000Y-125000000D03*
G04 #@! TD*
G04 #@! TO.C,J12*
X149000000Y-88620000D03*
G04 #@! TD*
G04 #@! TO.C,J19*
X159000000Y-96240000D03*
G04 #@! TD*
G04 #@! TO.C,J28*
X149000000Y-114840000D03*
G04 #@! TD*
G04 #@! TO.C,J27*
X149000000Y-112300000D03*
G04 #@! TD*
G04 #@! TO.C,J24*
X129000000Y-114840000D03*
G04 #@! TD*
G04 #@! TO.C,J21*
X129000000Y-107220000D03*
G04 #@! TD*
G04 #@! TO.C,J20*
X159000000Y-98780000D03*
G04 #@! TD*
G04 #@! TO.C,J17*
X159000000Y-91160000D03*
G04 #@! TD*
G04 #@! TO.C,J14*
X139000000Y-93700000D03*
G04 #@! TD*
G04 #@! TO.C,J22*
X129000000Y-109760000D03*
G04 #@! TD*
G04 #@! TO.C,J15*
X139000000Y-96240000D03*
G04 #@! TD*
G04 #@! TO.C,J26*
X149000000Y-109760000D03*
G04 #@! TD*
G04 #@! TO.C,J11*
X149000000Y-86080000D03*
G04 #@! TD*
G04 #@! TO.C,J25*
X149000000Y-107220000D03*
G04 #@! TD*
G04 #@! TO.C,J23*
X129000000Y-112300000D03*
G04 #@! TD*
G04 #@! TO.C,J13*
X139000000Y-91160000D03*
G04 #@! TD*
G04 #@! TO.C,J18*
X159000000Y-93700000D03*
G04 #@! TD*
G04 #@! TO.C,J16*
X139000000Y-98780000D03*
G04 #@! TD*
G04 #@! TO.C,J2*
X100540000Y-125000000D03*
D13*
X98000000Y-125000000D03*
X100540000Y-122460000D03*
X98000000Y-122460000D03*
X100540000Y-119920000D03*
X98000000Y-119920000D03*
X100540000Y-117380000D03*
X98000000Y-117380000D03*
X100540000Y-114840000D03*
X98000000Y-114840000D03*
X100540000Y-112300000D03*
X98000000Y-112300000D03*
X100540000Y-109760000D03*
X98000000Y-109760000D03*
X100540000Y-107220000D03*
X98000000Y-107220000D03*
G04 #@! TD*
G04 #@! TO.C,J3*
X188000000Y-81000000D03*
X185460000Y-81000000D03*
X188000000Y-83540000D03*
X185460000Y-83540000D03*
X188000000Y-86080000D03*
X185460000Y-86080000D03*
X188000000Y-88620000D03*
X185460000Y-88620000D03*
X188000000Y-91160000D03*
X185460000Y-91160000D03*
X188000000Y-93700000D03*
X185460000Y-93700000D03*
X188000000Y-96240000D03*
X185460000Y-96240000D03*
X188000000Y-98780000D03*
D12*
X185460000Y-98780000D03*
G04 #@! TD*
G04 #@! TO.C,J5*
X129000000Y-81000000D03*
G04 #@! TD*
D14*
G04 #@! TO.C,LO_1*
X164764600Y-102084800D03*
D15*
X172384600Y-102084800D03*
G04 #@! TD*
D12*
G04 #@! TO.C,J1*
X100540000Y-98780000D03*
D13*
X98000000Y-98780000D03*
X100540000Y-96240000D03*
X98000000Y-96240000D03*
X100540000Y-93700000D03*
X98000000Y-93700000D03*
X100540000Y-91160000D03*
X98000000Y-91160000D03*
X100540000Y-88620000D03*
X98000000Y-88620000D03*
X100540000Y-86080000D03*
X98000000Y-86080000D03*
X100540000Y-83540000D03*
X98000000Y-83540000D03*
X100540000Y-81000000D03*
X98000000Y-81000000D03*
G04 #@! TD*
G04 #@! TO.C,J4*
X188000000Y-107220000D03*
X185460000Y-107220000D03*
X188000000Y-109760000D03*
X185460000Y-109760000D03*
X188000000Y-112300000D03*
X185460000Y-112300000D03*
X188000000Y-114840000D03*
X185460000Y-114840000D03*
X188000000Y-117380000D03*
X185460000Y-117380000D03*
X188000000Y-119920000D03*
X185460000Y-119920000D03*
X188000000Y-122460000D03*
X185460000Y-122460000D03*
X188000000Y-125000000D03*
D12*
X185460000Y-125000000D03*
G04 #@! TD*
G04 #@! TO.C,J10*
X149000000Y-83540000D03*
G04 #@! TD*
G04 #@! TO.C,J9*
X149000000Y-81000000D03*
G04 #@! TD*
D16*
G04 #@! TO.C,H2*
X191000000Y-103000000D03*
G04 #@! TD*
D12*
G04 #@! TO.C,J8*
X129000000Y-88620000D03*
G04 #@! TD*
G04 #@! TO.C,J7*
X129000000Y-86080000D03*
G04 #@! TD*
G04 #@! TO.C,J6*
X129000000Y-83540000D03*
G04 #@! TD*
D16*
G04 #@! TO.C,H1*
X97000000Y-103000000D03*
G04 #@! TD*
D12*
G04 #@! TO.C,J3*
X185460000Y-48780000D03*
D13*
X188000000Y-48780000D03*
X185460000Y-46240000D03*
X188000000Y-46240000D03*
X185460000Y-43700000D03*
X188000000Y-43700000D03*
X185460000Y-41160000D03*
X188000000Y-41160000D03*
X185460000Y-38620000D03*
X188000000Y-38620000D03*
X185460000Y-36080000D03*
X188000000Y-36080000D03*
X185460000Y-33540000D03*
X188000000Y-33540000D03*
X185460000Y-31000000D03*
X188000000Y-31000000D03*
G04 #@! TD*
D12*
G04 #@! TO.C,J4*
X185460000Y-75000000D03*
D13*
X188000000Y-75000000D03*
X185460000Y-72460000D03*
X188000000Y-72460000D03*
X185460000Y-69920000D03*
X188000000Y-69920000D03*
X185460000Y-67380000D03*
X188000000Y-67380000D03*
X185460000Y-64840000D03*
X188000000Y-64840000D03*
X185460000Y-62300000D03*
X188000000Y-62300000D03*
X185460000Y-59760000D03*
X188000000Y-59760000D03*
X185460000Y-57220000D03*
X188000000Y-57220000D03*
G04 #@! TD*
G04 #@! TO.C,J1*
X98000000Y-31000000D03*
X100540000Y-31000000D03*
X98000000Y-33540000D03*
X100540000Y-33540000D03*
X98000000Y-36080000D03*
X100540000Y-36080000D03*
X98000000Y-38620000D03*
X100540000Y-38620000D03*
X98000000Y-41160000D03*
X100540000Y-41160000D03*
X98000000Y-43700000D03*
X100540000Y-43700000D03*
X98000000Y-46240000D03*
X100540000Y-46240000D03*
X98000000Y-48780000D03*
D12*
X100540000Y-48780000D03*
G04 #@! TD*
D13*
G04 #@! TO.C,J2*
X98000000Y-57220000D03*
X100540000Y-57220000D03*
X98000000Y-59760000D03*
X100540000Y-59760000D03*
X98000000Y-62300000D03*
X100540000Y-62300000D03*
X98000000Y-64840000D03*
X100540000Y-64840000D03*
X98000000Y-67380000D03*
X100540000Y-67380000D03*
X98000000Y-69920000D03*
X100540000Y-69920000D03*
X98000000Y-72460000D03*
X100540000Y-72460000D03*
X98000000Y-75000000D03*
D12*
X100540000Y-75000000D03*
G04 #@! TD*
D16*
G04 #@! TO.C,H1*
X97000000Y-53000000D03*
G04 #@! TD*
G04 #@! TO.C,H2*
X191000000Y-53000000D03*
G04 #@! TD*
D15*
G04 #@! TO.C,LO_1*
X172384600Y-52084800D03*
D14*
X164764600Y-52084800D03*
G04 #@! TD*
D12*
G04 #@! TO.C,J5*
X129000000Y-31000000D03*
G04 #@! TD*
G04 #@! TO.C,J6*
X129000000Y-33540000D03*
G04 #@! TD*
G04 #@! TO.C,J7*
X129000000Y-36080000D03*
G04 #@! TD*
G04 #@! TO.C,J8*
X129000000Y-38620000D03*
G04 #@! TD*
G04 #@! TO.C,J9*
X149000000Y-31000000D03*
G04 #@! TD*
G04 #@! TO.C,J10*
X149000000Y-33540000D03*
G04 #@! TD*
G04 #@! TO.C,J11*
X149000000Y-36080000D03*
G04 #@! TD*
G04 #@! TO.C,J12*
X149000000Y-38620000D03*
G04 #@! TD*
G04 #@! TO.C,J13*
X139000000Y-41160000D03*
G04 #@! TD*
G04 #@! TO.C,J14*
X139000000Y-43700000D03*
G04 #@! TD*
G04 #@! TO.C,J15*
X139000000Y-46240000D03*
G04 #@! TD*
G04 #@! TO.C,J16*
X139000000Y-48780000D03*
G04 #@! TD*
G04 #@! TO.C,J17*
X159000000Y-41160000D03*
G04 #@! TD*
G04 #@! TO.C,J18*
X159000000Y-43700000D03*
G04 #@! TD*
G04 #@! TO.C,J19*
X159000000Y-46240000D03*
G04 #@! TD*
G04 #@! TO.C,J20*
X159000000Y-48780000D03*
G04 #@! TD*
G04 #@! TO.C,J21*
X129000000Y-57220000D03*
G04 #@! TD*
G04 #@! TO.C,J22*
X129000000Y-59760000D03*
G04 #@! TD*
G04 #@! TO.C,J23*
X129000000Y-62300000D03*
G04 #@! TD*
G04 #@! TO.C,J24*
X129000000Y-64840000D03*
G04 #@! TD*
G04 #@! TO.C,J25*
X149000000Y-57220000D03*
G04 #@! TD*
G04 #@! TO.C,J26*
X149000000Y-59760000D03*
G04 #@! TD*
G04 #@! TO.C,J27*
X149000000Y-62300000D03*
G04 #@! TD*
G04 #@! TO.C,J28*
X149000000Y-64840000D03*
G04 #@! TD*
G04 #@! TO.C,J29*
X139000000Y-67380000D03*
G04 #@! TD*
G04 #@! TO.C,J30*
X139000000Y-69920000D03*
G04 #@! TD*
G04 #@! TO.C,J31*
X139000000Y-72460000D03*
G04 #@! TD*
G04 #@! TO.C,J32*
X139000000Y-75000000D03*
G04 #@! TD*
G04 #@! TO.C,J33*
X159000000Y-67380000D03*
G04 #@! TD*
G04 #@! TO.C,J34*
X159000000Y-69920000D03*
G04 #@! TD*
G04 #@! TO.C,J35*
X159000000Y-72460000D03*
G04 #@! TD*
G04 #@! TO.C,J36*
X159000000Y-75000000D03*
G04 #@! TD*
M02*
