M48
;DRILL file {KiCad (5.0.2)-1} date 28/08/2019 20:26:24
;FORMAT={-:-/ absolute / metric / decimal}
FMAT,2
METRIC,TZ
T1C1.000
%
G90
G05
T1
X139.Y-119.92
X129.Y-59.76
X129.Y-114.84
X149.Y-33.54
X129.Y-64.84
X98.Y-31.
X98.Y-33.54
X98.Y-36.08
X98.Y-38.62
X98.Y-41.16
X98.Y-43.7
X98.Y-46.24
X98.Y-48.78
X100.54Y-31.
X100.54Y-33.54
X100.54Y-36.08
X100.54Y-38.62
X100.54Y-41.16
X100.54Y-43.7
X100.54Y-46.24
X100.54Y-48.78
X149.Y-62.3
X139.Y-93.7
X149.Y-86.08
X159.Y-93.7
X149.Y-112.3
X159.Y-125.
X129.Y-57.22
X139.Y-125.
X159.Y-41.16
X129.Y-38.62
X129.Y-83.54
X185.46Y-107.22
X185.46Y-109.76
X185.46Y-112.3
X185.46Y-114.84
X185.46Y-117.38
X185.46Y-119.92
X185.46Y-122.46
X185.46Y-125.
X188.Y-107.22
X188.Y-109.76
X188.Y-112.3
X188.Y-114.84
X188.Y-117.38
X188.Y-119.92
X188.Y-122.46
X188.Y-125.
X149.Y-57.22
X149.Y-109.76
X159.Y-98.78
X149.Y-107.22
X149.Y-114.84
X159.Y-122.46
X159.Y-48.78
X139.Y-48.78
X129.Y-62.3
X185.46Y-31.
X185.46Y-33.54
X185.46Y-36.08
X185.46Y-38.62
X185.46Y-41.16
X185.46Y-43.7
X185.46Y-46.24
X185.46Y-48.78
X188.Y-31.
X188.Y-33.54
X188.Y-36.08
X188.Y-38.62
X188.Y-41.16
X188.Y-43.7
X188.Y-46.24
X188.Y-48.78
X159.Y-72.46
X139.Y-96.24
X129.Y-109.76
X129.Y-107.22
X159.Y-117.38
X159.Y-46.24
X139.Y-43.7
X129.Y-36.08
X164.765Y-52.085
X172.385Y-52.085
X159.Y-75.
X159.Y-69.92
X139.Y-91.16
X98.Y-81.
X98.Y-83.54
X98.Y-86.08
X98.Y-88.62
X98.Y-91.16
X98.Y-93.7
X98.Y-96.24
X98.Y-98.78
X100.54Y-81.
X100.54Y-83.54
X100.54Y-86.08
X100.54Y-88.62
X100.54Y-91.16
X100.54Y-93.7
X100.54Y-96.24
X100.54Y-98.78
X139.Y-117.38
X159.Y-119.92
X149.Y-38.62
X149.Y-31.
X185.46Y-57.22
X185.46Y-59.76
X185.46Y-62.3
X185.46Y-64.84
X185.46Y-67.38
X185.46Y-69.92
X185.46Y-72.46
X185.46Y-75.
X188.Y-57.22
X188.Y-59.76
X188.Y-62.3
X188.Y-64.84
X188.Y-67.38
X188.Y-69.92
X188.Y-72.46
X188.Y-75.
X149.Y-83.54
X139.Y-69.92
X139.Y-72.46
X164.765Y-102.085
X172.385Y-102.085
X129.Y-112.3
X149.Y-88.62
X139.Y-122.46
X149.Y-36.08
X139.Y-41.16
X129.Y-33.54
X98.Y-57.22
X98.Y-59.76
X98.Y-62.3
X98.Y-64.84
X98.Y-67.38
X98.Y-69.92
X98.Y-72.46
X98.Y-75.
X100.54Y-57.22
X100.54Y-59.76
X100.54Y-62.3
X100.54Y-64.84
X100.54Y-67.38
X100.54Y-69.92
X100.54Y-72.46
X100.54Y-75.
X129.Y-88.62
X139.Y-67.38
X159.Y-67.38
X149.Y-64.84
X185.46Y-81.
X185.46Y-83.54
X185.46Y-86.08
X185.46Y-88.62
X185.46Y-91.16
X185.46Y-93.7
X185.46Y-96.24
X185.46Y-98.78
X188.Y-81.
X188.Y-83.54
X188.Y-86.08
X188.Y-88.62
X188.Y-91.16
X188.Y-93.7
X188.Y-96.24
X188.Y-98.78
X129.Y-81.
X159.Y-96.24
X159.Y-43.7
X139.Y-46.24
X129.Y-31.
X129.Y-86.08
X149.Y-81.
X149.Y-59.76
X139.Y-75.
X159.Y-91.16
X139.Y-98.78
X98.Y-107.22
X98.Y-109.76
X98.Y-112.3
X98.Y-114.84
X98.Y-117.38
X98.Y-119.92
X98.Y-122.46
X98.Y-125.
X100.54Y-107.22
X100.54Y-109.76
X100.54Y-112.3
X100.54Y-114.84
X100.54Y-117.38
X100.54Y-119.92
X100.54Y-122.46
X100.54Y-125.
T0
M30
