G04 #@! TF.GenerationSoftware,KiCad,Pcbnew,(5.0.2)-1*
G04 #@! TF.CreationDate,2019-08-28T20:26:21+02:00*
G04 #@! TF.ProjectId,EleLab_v2_Bus100,456c654c-6162-45f7-9632-5f4275733130,rev?*
G04 #@! TF.SameCoordinates,Original*
G04 #@! TF.FileFunction,Copper,L2,Bot*
G04 #@! TF.FilePolarity,Positive*
%FSLAX46Y46*%
G04 Gerber Fmt 4.6, Leading zero omitted, Abs format (unit mm)*
G04 Created by KiCad (PCBNEW (5.0.2)-1) date 28/08/2019 20:26:21*
%MOMM*%
%LPD*%
G01*
G04 APERTURE LIST*
G04 #@! TA.AperFunction,ComponentPad*
%ADD10R,1.700000X1.700000*%
G04 #@! TD*
G04 #@! TA.AperFunction,ComponentPad*
%ADD11O,1.700000X1.700000*%
G04 #@! TD*
G04 #@! TA.AperFunction,ComponentPad*
%ADD12C,1.600000*%
G04 #@! TD*
G04 #@! TA.AperFunction,ComponentPad*
%ADD13O,1.600000X1.600000*%
G04 #@! TD*
G04 #@! TA.AperFunction,Conductor*
%ADD14C,2.200000*%
G04 #@! TD*
G04 #@! TA.AperFunction,NonConductor*
%ADD15C,0.254000*%
G04 #@! TD*
G04 APERTURE END LIST*
D10*
G04 #@! TO.P,J31,1*
G04 #@! TO.N,/GND*
X139000000Y-122460000D03*
G04 #@! TD*
G04 #@! TO.P,J34,1*
G04 #@! TO.N,/GND*
X159000000Y-119920000D03*
G04 #@! TD*
G04 #@! TO.P,J30,1*
G04 #@! TO.N,/GND*
X139000000Y-119920000D03*
G04 #@! TD*
G04 #@! TO.P,J32,1*
G04 #@! TO.N,/GND*
X139000000Y-125000000D03*
G04 #@! TD*
G04 #@! TO.P,J35,1*
G04 #@! TO.N,/GND*
X159000000Y-122460000D03*
G04 #@! TD*
G04 #@! TO.P,J33,1*
G04 #@! TO.N,/GND*
X159000000Y-117380000D03*
G04 #@! TD*
G04 #@! TO.P,J29,1*
G04 #@! TO.N,/GND*
X139000000Y-117380000D03*
G04 #@! TD*
G04 #@! TO.P,J36,1*
G04 #@! TO.N,/GND*
X159000000Y-125000000D03*
G04 #@! TD*
G04 #@! TO.P,J12,1*
G04 #@! TO.N,/+24V*
X149000000Y-88620000D03*
G04 #@! TD*
G04 #@! TO.P,J19,1*
G04 #@! TO.N,/+12V*
X159000000Y-96240000D03*
G04 #@! TD*
G04 #@! TO.P,J28,1*
G04 #@! TO.N,/+5V*
X149000000Y-114840000D03*
G04 #@! TD*
G04 #@! TO.P,J27,1*
G04 #@! TO.N,/+5V*
X149000000Y-112300000D03*
G04 #@! TD*
G04 #@! TO.P,J24,1*
G04 #@! TO.N,/+5V*
X129000000Y-114840000D03*
G04 #@! TD*
G04 #@! TO.P,J21,1*
G04 #@! TO.N,/+5V*
X129000000Y-107220000D03*
G04 #@! TD*
G04 #@! TO.P,J20,1*
G04 #@! TO.N,/+12V*
X159000000Y-98780000D03*
G04 #@! TD*
G04 #@! TO.P,J17,1*
G04 #@! TO.N,/+12V*
X159000000Y-91160000D03*
G04 #@! TD*
G04 #@! TO.P,J14,1*
G04 #@! TO.N,/+12V*
X139000000Y-93700000D03*
G04 #@! TD*
G04 #@! TO.P,J22,1*
G04 #@! TO.N,/+5V*
X129000000Y-109760000D03*
G04 #@! TD*
G04 #@! TO.P,J15,1*
G04 #@! TO.N,/+12V*
X139000000Y-96240000D03*
G04 #@! TD*
G04 #@! TO.P,J26,1*
G04 #@! TO.N,/+5V*
X149000000Y-109760000D03*
G04 #@! TD*
G04 #@! TO.P,J11,1*
G04 #@! TO.N,/+24V*
X149000000Y-86080000D03*
G04 #@! TD*
G04 #@! TO.P,J25,1*
G04 #@! TO.N,/+5V*
X149000000Y-107220000D03*
G04 #@! TD*
G04 #@! TO.P,J23,1*
G04 #@! TO.N,/+5V*
X129000000Y-112300000D03*
G04 #@! TD*
G04 #@! TO.P,J13,1*
G04 #@! TO.N,/+12V*
X139000000Y-91160000D03*
G04 #@! TD*
G04 #@! TO.P,J18,1*
G04 #@! TO.N,/+12V*
X159000000Y-93700000D03*
G04 #@! TD*
G04 #@! TO.P,J16,1*
G04 #@! TO.N,/+12V*
X139000000Y-98780000D03*
G04 #@! TD*
G04 #@! TO.P,J2,1*
G04 #@! TO.N,/GND*
X100540000Y-125000000D03*
D11*
G04 #@! TO.P,J2,2*
X98000000Y-125000000D03*
G04 #@! TO.P,J2,3*
X100540000Y-122460000D03*
G04 #@! TO.P,J2,4*
X98000000Y-122460000D03*
G04 #@! TO.P,J2,5*
X100540000Y-119920000D03*
G04 #@! TO.P,J2,6*
X98000000Y-119920000D03*
G04 #@! TO.P,J2,7*
X100540000Y-117380000D03*
G04 #@! TO.P,J2,8*
X98000000Y-117380000D03*
G04 #@! TO.P,J2,9*
G04 #@! TO.N,/+5V*
X100540000Y-114840000D03*
G04 #@! TO.P,J2,10*
X98000000Y-114840000D03*
G04 #@! TO.P,J2,11*
X100540000Y-112300000D03*
G04 #@! TO.P,J2,12*
X98000000Y-112300000D03*
G04 #@! TO.P,J2,13*
X100540000Y-109760000D03*
G04 #@! TO.P,J2,14*
X98000000Y-109760000D03*
G04 #@! TO.P,J2,15*
X100540000Y-107220000D03*
G04 #@! TO.P,J2,16*
X98000000Y-107220000D03*
G04 #@! TD*
G04 #@! TO.P,J3,16*
G04 #@! TO.N,/+24V*
X188000000Y-81000000D03*
G04 #@! TO.P,J3,15*
X185460000Y-81000000D03*
G04 #@! TO.P,J3,14*
X188000000Y-83540000D03*
G04 #@! TO.P,J3,13*
X185460000Y-83540000D03*
G04 #@! TO.P,J3,12*
X188000000Y-86080000D03*
G04 #@! TO.P,J3,11*
X185460000Y-86080000D03*
G04 #@! TO.P,J3,10*
X188000000Y-88620000D03*
G04 #@! TO.P,J3,9*
X185460000Y-88620000D03*
G04 #@! TO.P,J3,8*
G04 #@! TO.N,/+12V*
X188000000Y-91160000D03*
G04 #@! TO.P,J3,7*
X185460000Y-91160000D03*
G04 #@! TO.P,J3,6*
X188000000Y-93700000D03*
G04 #@! TO.P,J3,5*
X185460000Y-93700000D03*
G04 #@! TO.P,J3,4*
X188000000Y-96240000D03*
G04 #@! TO.P,J3,3*
X185460000Y-96240000D03*
G04 #@! TO.P,J3,2*
X188000000Y-98780000D03*
D10*
G04 #@! TO.P,J3,1*
X185460000Y-98780000D03*
G04 #@! TD*
G04 #@! TO.P,J5,1*
G04 #@! TO.N,/+24V*
X129000000Y-81000000D03*
G04 #@! TD*
D12*
G04 #@! TO.P,LO_1,2*
G04 #@! TO.N,N/C*
X164764600Y-102084800D03*
D13*
G04 #@! TO.P,LO_1,1*
X172384600Y-102084800D03*
G04 #@! TD*
D10*
G04 #@! TO.P,J1,1*
G04 #@! TO.N,/+12V*
X100540000Y-98780000D03*
D11*
G04 #@! TO.P,J1,2*
X98000000Y-98780000D03*
G04 #@! TO.P,J1,3*
X100540000Y-96240000D03*
G04 #@! TO.P,J1,4*
X98000000Y-96240000D03*
G04 #@! TO.P,J1,5*
X100540000Y-93700000D03*
G04 #@! TO.P,J1,6*
X98000000Y-93700000D03*
G04 #@! TO.P,J1,7*
X100540000Y-91160000D03*
G04 #@! TO.P,J1,8*
X98000000Y-91160000D03*
G04 #@! TO.P,J1,9*
G04 #@! TO.N,/+24V*
X100540000Y-88620000D03*
G04 #@! TO.P,J1,10*
X98000000Y-88620000D03*
G04 #@! TO.P,J1,11*
X100540000Y-86080000D03*
G04 #@! TO.P,J1,12*
X98000000Y-86080000D03*
G04 #@! TO.P,J1,13*
X100540000Y-83540000D03*
G04 #@! TO.P,J1,14*
X98000000Y-83540000D03*
G04 #@! TO.P,J1,15*
X100540000Y-81000000D03*
G04 #@! TO.P,J1,16*
X98000000Y-81000000D03*
G04 #@! TD*
G04 #@! TO.P,J4,16*
G04 #@! TO.N,/+5V*
X188000000Y-107220000D03*
G04 #@! TO.P,J4,15*
X185460000Y-107220000D03*
G04 #@! TO.P,J4,14*
X188000000Y-109760000D03*
G04 #@! TO.P,J4,13*
X185460000Y-109760000D03*
G04 #@! TO.P,J4,12*
X188000000Y-112300000D03*
G04 #@! TO.P,J4,11*
X185460000Y-112300000D03*
G04 #@! TO.P,J4,10*
X188000000Y-114840000D03*
G04 #@! TO.P,J4,9*
X185460000Y-114840000D03*
G04 #@! TO.P,J4,8*
G04 #@! TO.N,/GND*
X188000000Y-117380000D03*
G04 #@! TO.P,J4,7*
X185460000Y-117380000D03*
G04 #@! TO.P,J4,6*
X188000000Y-119920000D03*
G04 #@! TO.P,J4,5*
X185460000Y-119920000D03*
G04 #@! TO.P,J4,4*
X188000000Y-122460000D03*
G04 #@! TO.P,J4,3*
X185460000Y-122460000D03*
G04 #@! TO.P,J4,2*
X188000000Y-125000000D03*
D10*
G04 #@! TO.P,J4,1*
X185460000Y-125000000D03*
G04 #@! TD*
G04 #@! TO.P,J10,1*
G04 #@! TO.N,/+24V*
X149000000Y-83540000D03*
G04 #@! TD*
G04 #@! TO.P,J9,1*
G04 #@! TO.N,/+24V*
X149000000Y-81000000D03*
G04 #@! TD*
G04 #@! TO.P,J8,1*
G04 #@! TO.N,/+24V*
X129000000Y-88620000D03*
G04 #@! TD*
G04 #@! TO.P,J7,1*
G04 #@! TO.N,/+24V*
X129000000Y-86080000D03*
G04 #@! TD*
G04 #@! TO.P,J6,1*
G04 #@! TO.N,/+24V*
X129000000Y-83540000D03*
G04 #@! TD*
G04 #@! TO.P,J3,1*
G04 #@! TO.N,/+12V*
X185460000Y-48780000D03*
D11*
G04 #@! TO.P,J3,2*
X188000000Y-48780000D03*
G04 #@! TO.P,J3,3*
X185460000Y-46240000D03*
G04 #@! TO.P,J3,4*
X188000000Y-46240000D03*
G04 #@! TO.P,J3,5*
X185460000Y-43700000D03*
G04 #@! TO.P,J3,6*
X188000000Y-43700000D03*
G04 #@! TO.P,J3,7*
X185460000Y-41160000D03*
G04 #@! TO.P,J3,8*
X188000000Y-41160000D03*
G04 #@! TO.P,J3,9*
G04 #@! TO.N,/+24V*
X185460000Y-38620000D03*
G04 #@! TO.P,J3,10*
X188000000Y-38620000D03*
G04 #@! TO.P,J3,11*
X185460000Y-36080000D03*
G04 #@! TO.P,J3,12*
X188000000Y-36080000D03*
G04 #@! TO.P,J3,13*
X185460000Y-33540000D03*
G04 #@! TO.P,J3,14*
X188000000Y-33540000D03*
G04 #@! TO.P,J3,15*
X185460000Y-31000000D03*
G04 #@! TO.P,J3,16*
X188000000Y-31000000D03*
G04 #@! TD*
D10*
G04 #@! TO.P,J4,1*
G04 #@! TO.N,/GND*
X185460000Y-75000000D03*
D11*
G04 #@! TO.P,J4,2*
X188000000Y-75000000D03*
G04 #@! TO.P,J4,3*
X185460000Y-72460000D03*
G04 #@! TO.P,J4,4*
X188000000Y-72460000D03*
G04 #@! TO.P,J4,5*
X185460000Y-69920000D03*
G04 #@! TO.P,J4,6*
X188000000Y-69920000D03*
G04 #@! TO.P,J4,7*
X185460000Y-67380000D03*
G04 #@! TO.P,J4,8*
X188000000Y-67380000D03*
G04 #@! TO.P,J4,9*
G04 #@! TO.N,/+5V*
X185460000Y-64840000D03*
G04 #@! TO.P,J4,10*
X188000000Y-64840000D03*
G04 #@! TO.P,J4,11*
X185460000Y-62300000D03*
G04 #@! TO.P,J4,12*
X188000000Y-62300000D03*
G04 #@! TO.P,J4,13*
X185460000Y-59760000D03*
G04 #@! TO.P,J4,14*
X188000000Y-59760000D03*
G04 #@! TO.P,J4,15*
X185460000Y-57220000D03*
G04 #@! TO.P,J4,16*
X188000000Y-57220000D03*
G04 #@! TD*
G04 #@! TO.P,J1,16*
G04 #@! TO.N,/+24V*
X98000000Y-31000000D03*
G04 #@! TO.P,J1,15*
X100540000Y-31000000D03*
G04 #@! TO.P,J1,14*
X98000000Y-33540000D03*
G04 #@! TO.P,J1,13*
X100540000Y-33540000D03*
G04 #@! TO.P,J1,12*
X98000000Y-36080000D03*
G04 #@! TO.P,J1,11*
X100540000Y-36080000D03*
G04 #@! TO.P,J1,10*
X98000000Y-38620000D03*
G04 #@! TO.P,J1,9*
X100540000Y-38620000D03*
G04 #@! TO.P,J1,8*
G04 #@! TO.N,/+12V*
X98000000Y-41160000D03*
G04 #@! TO.P,J1,7*
X100540000Y-41160000D03*
G04 #@! TO.P,J1,6*
X98000000Y-43700000D03*
G04 #@! TO.P,J1,5*
X100540000Y-43700000D03*
G04 #@! TO.P,J1,4*
X98000000Y-46240000D03*
G04 #@! TO.P,J1,3*
X100540000Y-46240000D03*
G04 #@! TO.P,J1,2*
X98000000Y-48780000D03*
D10*
G04 #@! TO.P,J1,1*
X100540000Y-48780000D03*
G04 #@! TD*
D11*
G04 #@! TO.P,J2,16*
G04 #@! TO.N,/+5V*
X98000000Y-57220000D03*
G04 #@! TO.P,J2,15*
X100540000Y-57220000D03*
G04 #@! TO.P,J2,14*
X98000000Y-59760000D03*
G04 #@! TO.P,J2,13*
X100540000Y-59760000D03*
G04 #@! TO.P,J2,12*
X98000000Y-62300000D03*
G04 #@! TO.P,J2,11*
X100540000Y-62300000D03*
G04 #@! TO.P,J2,10*
X98000000Y-64840000D03*
G04 #@! TO.P,J2,9*
X100540000Y-64840000D03*
G04 #@! TO.P,J2,8*
G04 #@! TO.N,/GND*
X98000000Y-67380000D03*
G04 #@! TO.P,J2,7*
X100540000Y-67380000D03*
G04 #@! TO.P,J2,6*
X98000000Y-69920000D03*
G04 #@! TO.P,J2,5*
X100540000Y-69920000D03*
G04 #@! TO.P,J2,4*
X98000000Y-72460000D03*
G04 #@! TO.P,J2,3*
X100540000Y-72460000D03*
G04 #@! TO.P,J2,2*
X98000000Y-75000000D03*
D10*
G04 #@! TO.P,J2,1*
X100540000Y-75000000D03*
G04 #@! TD*
D13*
G04 #@! TO.P,LO_1,1*
G04 #@! TO.N,N/C*
X172384600Y-52084800D03*
D12*
G04 #@! TO.P,LO_1,2*
X164764600Y-52084800D03*
G04 #@! TD*
D10*
G04 #@! TO.P,J5,1*
G04 #@! TO.N,/+24V*
X129000000Y-31000000D03*
G04 #@! TD*
G04 #@! TO.P,J6,1*
G04 #@! TO.N,/+24V*
X129000000Y-33540000D03*
G04 #@! TD*
G04 #@! TO.P,J7,1*
G04 #@! TO.N,/+24V*
X129000000Y-36080000D03*
G04 #@! TD*
G04 #@! TO.P,J8,1*
G04 #@! TO.N,/+24V*
X129000000Y-38620000D03*
G04 #@! TD*
G04 #@! TO.P,J9,1*
G04 #@! TO.N,/+24V*
X149000000Y-31000000D03*
G04 #@! TD*
G04 #@! TO.P,J10,1*
G04 #@! TO.N,/+24V*
X149000000Y-33540000D03*
G04 #@! TD*
G04 #@! TO.P,J11,1*
G04 #@! TO.N,/+24V*
X149000000Y-36080000D03*
G04 #@! TD*
G04 #@! TO.P,J12,1*
G04 #@! TO.N,/+24V*
X149000000Y-38620000D03*
G04 #@! TD*
G04 #@! TO.P,J13,1*
G04 #@! TO.N,/+12V*
X139000000Y-41160000D03*
G04 #@! TD*
G04 #@! TO.P,J14,1*
G04 #@! TO.N,/+12V*
X139000000Y-43700000D03*
G04 #@! TD*
G04 #@! TO.P,J15,1*
G04 #@! TO.N,/+12V*
X139000000Y-46240000D03*
G04 #@! TD*
G04 #@! TO.P,J16,1*
G04 #@! TO.N,/+12V*
X139000000Y-48780000D03*
G04 #@! TD*
G04 #@! TO.P,J17,1*
G04 #@! TO.N,/+12V*
X159000000Y-41160000D03*
G04 #@! TD*
G04 #@! TO.P,J18,1*
G04 #@! TO.N,/+12V*
X159000000Y-43700000D03*
G04 #@! TD*
G04 #@! TO.P,J19,1*
G04 #@! TO.N,/+12V*
X159000000Y-46240000D03*
G04 #@! TD*
G04 #@! TO.P,J20,1*
G04 #@! TO.N,/+12V*
X159000000Y-48780000D03*
G04 #@! TD*
G04 #@! TO.P,J21,1*
G04 #@! TO.N,/+5V*
X129000000Y-57220000D03*
G04 #@! TD*
G04 #@! TO.P,J22,1*
G04 #@! TO.N,/+5V*
X129000000Y-59760000D03*
G04 #@! TD*
G04 #@! TO.P,J23,1*
G04 #@! TO.N,/+5V*
X129000000Y-62300000D03*
G04 #@! TD*
G04 #@! TO.P,J24,1*
G04 #@! TO.N,/+5V*
X129000000Y-64840000D03*
G04 #@! TD*
G04 #@! TO.P,J25,1*
G04 #@! TO.N,/+5V*
X149000000Y-57220000D03*
G04 #@! TD*
G04 #@! TO.P,J26,1*
G04 #@! TO.N,/+5V*
X149000000Y-59760000D03*
G04 #@! TD*
G04 #@! TO.P,J27,1*
G04 #@! TO.N,/+5V*
X149000000Y-62300000D03*
G04 #@! TD*
G04 #@! TO.P,J28,1*
G04 #@! TO.N,/+5V*
X149000000Y-64840000D03*
G04 #@! TD*
G04 #@! TO.P,J29,1*
G04 #@! TO.N,/GND*
X139000000Y-67380000D03*
G04 #@! TD*
G04 #@! TO.P,J30,1*
G04 #@! TO.N,/GND*
X139000000Y-69920000D03*
G04 #@! TD*
G04 #@! TO.P,J31,1*
G04 #@! TO.N,/GND*
X139000000Y-72460000D03*
G04 #@! TD*
G04 #@! TO.P,J32,1*
G04 #@! TO.N,/GND*
X139000000Y-75000000D03*
G04 #@! TD*
G04 #@! TO.P,J33,1*
G04 #@! TO.N,/GND*
X159000000Y-67380000D03*
G04 #@! TD*
G04 #@! TO.P,J34,1*
G04 #@! TO.N,/GND*
X159000000Y-69920000D03*
G04 #@! TD*
G04 #@! TO.P,J35,1*
G04 #@! TO.N,/GND*
X159000000Y-72460000D03*
G04 #@! TD*
G04 #@! TO.P,J36,1*
G04 #@! TO.N,/GND*
X159000000Y-75000000D03*
G04 #@! TD*
D14*
G04 #@! TO.N,/+24V*
X98000000Y-31000000D02*
X98000000Y-38620000D01*
X100540000Y-38620000D02*
X100540000Y-31000000D01*
X129000000Y-38620000D02*
X129000000Y-31000000D01*
X149000000Y-31000000D02*
X149000000Y-38620000D01*
X188000000Y-38620000D02*
X188000000Y-31000000D01*
X185460000Y-31000000D02*
X185460000Y-38620000D01*
X98000000Y-38620000D02*
X188000000Y-38620000D01*
X188000000Y-36080000D02*
X98000000Y-36080000D01*
X98000000Y-33540000D02*
X188000000Y-33540000D01*
X188000000Y-31000000D02*
X98000000Y-31000000D01*
X185460000Y-81000000D02*
X185460000Y-88620000D01*
X188000000Y-86080000D02*
X98000000Y-86080000D01*
X188000000Y-88620000D02*
X188000000Y-81000000D01*
X98000000Y-83540000D02*
X188000000Y-83540000D01*
X98000000Y-88620000D02*
X188000000Y-88620000D01*
X129000000Y-88620000D02*
X129000000Y-81000000D01*
X149000000Y-81000000D02*
X149000000Y-88620000D01*
X100540000Y-88620000D02*
X100540000Y-81000000D01*
X188000000Y-81000000D02*
X98000000Y-81000000D01*
X98000000Y-81000000D02*
X98000000Y-88620000D01*
G04 #@! TO.N,/+12V*
X100540000Y-41160000D02*
X100540000Y-48780000D01*
X98000000Y-48780000D02*
X98000000Y-41160000D01*
X139000000Y-41160000D02*
X139000000Y-48780000D01*
X159000000Y-41160000D02*
X159000000Y-48780000D01*
X185460000Y-48780000D02*
X185460000Y-41160000D01*
X188000000Y-41160000D02*
X188000000Y-48780000D01*
X98000000Y-48780000D02*
X188000000Y-48780000D01*
X100540000Y-46240000D02*
X98000000Y-46240000D01*
X188000000Y-46240000D02*
X100540000Y-46240000D01*
X98000000Y-43700000D02*
X188000000Y-43700000D01*
X188000000Y-41160000D02*
X98000000Y-41160000D01*
X98000000Y-98780000D02*
X98000000Y-91160000D01*
X185460000Y-98780000D02*
X185460000Y-91160000D01*
X98000000Y-98780000D02*
X188000000Y-98780000D01*
X188000000Y-91160000D02*
X188000000Y-98780000D01*
X188000000Y-96240000D02*
X100540000Y-96240000D01*
X98000000Y-93700000D02*
X188000000Y-93700000D01*
X159000000Y-91160000D02*
X159000000Y-98780000D01*
X100540000Y-96240000D02*
X98000000Y-96240000D01*
X188000000Y-91160000D02*
X98000000Y-91160000D01*
X100540000Y-91160000D02*
X100540000Y-98780000D01*
X139000000Y-91160000D02*
X139000000Y-98780000D01*
G04 #@! TO.N,/GND*
X188000000Y-67380000D02*
X188000000Y-75000000D01*
X185460000Y-75000000D02*
X185460000Y-67380000D01*
X159000000Y-67380000D02*
X159000000Y-75000000D01*
X139000000Y-75000000D02*
X139000000Y-67380000D01*
X98000000Y-67380000D02*
X98000000Y-75000000D01*
X100540000Y-75000000D02*
X100540000Y-67380000D01*
X98000000Y-75000000D02*
X188000000Y-75000000D01*
X188000000Y-72460000D02*
X98000000Y-72460000D01*
X185460000Y-69920000D02*
X188000000Y-69920000D01*
X98000000Y-69920000D02*
X185460000Y-69920000D01*
X188000000Y-67380000D02*
X98000000Y-67380000D01*
X188000000Y-117380000D02*
X188000000Y-125000000D01*
X185460000Y-125000000D02*
X185460000Y-117380000D01*
X100540000Y-125000000D02*
X100540000Y-117380000D01*
X98000000Y-117380000D02*
X98000000Y-125000000D01*
X185460000Y-119920000D02*
X188000000Y-119920000D01*
X188000000Y-117380000D02*
X98000000Y-117380000D01*
X139000000Y-125000000D02*
X139000000Y-117380000D01*
X159000000Y-117380000D02*
X159000000Y-125000000D01*
X98000000Y-125000000D02*
X188000000Y-125000000D01*
X188000000Y-122460000D02*
X98000000Y-122460000D01*
X98000000Y-119920000D02*
X185460000Y-119920000D01*
G04 #@! TO.N,/+5V*
X188000000Y-57220000D02*
X188000000Y-64840000D01*
X185460000Y-64840000D02*
X185460000Y-57220000D01*
X148940000Y-57280000D02*
X149000000Y-57220000D01*
X148940000Y-64840000D02*
X148940000Y-57280000D01*
X129000000Y-57220000D02*
X129000000Y-64840000D01*
X100540000Y-64840000D02*
X100540000Y-57220000D01*
X98000000Y-64840000D02*
X98000000Y-57220000D01*
X98000000Y-64840000D02*
X188000000Y-64840000D01*
X100540000Y-62300000D02*
X98000000Y-62300000D01*
X188000000Y-62300000D02*
X100540000Y-62300000D01*
X98000000Y-59760000D02*
X188000000Y-59760000D01*
X103080000Y-57220000D02*
X98000000Y-57220000D01*
X188000000Y-57220000D02*
X103080000Y-57220000D01*
X100540000Y-112300000D02*
X98000000Y-112300000D01*
X98000000Y-114840000D02*
X98000000Y-107220000D01*
X98000000Y-114840000D02*
X188000000Y-114840000D01*
X188000000Y-112300000D02*
X100540000Y-112300000D01*
X188000000Y-107220000D02*
X103080000Y-107220000D01*
X188000000Y-107220000D02*
X188000000Y-114840000D01*
X129000000Y-107220000D02*
X129000000Y-114840000D01*
X103080000Y-107220000D02*
X98000000Y-107220000D01*
X98000000Y-109760000D02*
X188000000Y-109760000D01*
X148940000Y-107280000D02*
X149000000Y-107220000D01*
X185460000Y-114840000D02*
X185460000Y-107220000D01*
X100540000Y-114840000D02*
X100540000Y-107220000D01*
X148940000Y-114840000D02*
X148940000Y-107280000D01*
G04 #@! TD*
D15*
G36*
X191883090Y-29007962D02*
X192242110Y-29150108D01*
X192554499Y-29377071D01*
X192800630Y-29674593D01*
X192965040Y-30023982D01*
X193045890Y-30447814D01*
X193048000Y-30514946D01*
X193048000Y-50837886D01*
X192686335Y-50476221D01*
X191592162Y-50023000D01*
X190407838Y-50023000D01*
X189313665Y-50476221D01*
X188476221Y-51313665D01*
X188023000Y-52407838D01*
X188023000Y-53592162D01*
X188476221Y-54686335D01*
X189313665Y-55523779D01*
X190407838Y-55977000D01*
X191592162Y-55977000D01*
X192686335Y-55523779D01*
X193048001Y-55162113D01*
X193048001Y-75440099D01*
X192992038Y-75883090D01*
X192849893Y-76242109D01*
X192622930Y-76554497D01*
X192325407Y-76800630D01*
X191976018Y-76965040D01*
X191552186Y-77045890D01*
X191485054Y-77048000D01*
X96559893Y-77048000D01*
X96116910Y-76992038D01*
X95757891Y-76849893D01*
X95445503Y-76622930D01*
X95199370Y-76325407D01*
X95034960Y-75976018D01*
X94954110Y-75552186D01*
X94952000Y-75485054D01*
X94952000Y-55162114D01*
X95313665Y-55523779D01*
X96407838Y-55977000D01*
X96452829Y-55977000D01*
X96137707Y-56448613D01*
X95984269Y-57220000D01*
X96023001Y-57414719D01*
X96023001Y-59565282D01*
X95984269Y-59760000D01*
X96023001Y-59954718D01*
X96023000Y-62105284D01*
X95984269Y-62300000D01*
X96023000Y-62494716D01*
X96023000Y-64645285D01*
X95984269Y-64840000D01*
X96137707Y-65611387D01*
X96470870Y-66110000D01*
X96137707Y-66608613D01*
X95984269Y-67380000D01*
X96023000Y-67574715D01*
X96023000Y-69725284D01*
X95984269Y-69920000D01*
X96023000Y-70114716D01*
X96023001Y-72265282D01*
X95984269Y-72460000D01*
X96023001Y-72654718D01*
X96023001Y-74805281D01*
X95984269Y-75000000D01*
X96137707Y-75771387D01*
X96574663Y-76425337D01*
X97228613Y-76862293D01*
X97805286Y-76977000D01*
X98000000Y-77015731D01*
X98194714Y-76977000D01*
X100345286Y-76977000D01*
X100540000Y-77015731D01*
X100734714Y-76977000D01*
X138805286Y-76977000D01*
X139000000Y-77015731D01*
X139194714Y-76977000D01*
X158805286Y-76977000D01*
X159000000Y-77015731D01*
X159194714Y-76977000D01*
X185265286Y-76977000D01*
X185460000Y-77015731D01*
X185654714Y-76977000D01*
X187805286Y-76977000D01*
X188000000Y-77015731D01*
X188194714Y-76977000D01*
X188478343Y-76920583D01*
X188771387Y-76862293D01*
X189425337Y-76425337D01*
X189862293Y-75771387D01*
X189938514Y-75388196D01*
X190015731Y-75000000D01*
X189977000Y-74805286D01*
X189977000Y-72654714D01*
X190015731Y-72460000D01*
X189977000Y-72265286D01*
X189977000Y-70114714D01*
X190015731Y-69920000D01*
X189977000Y-69725286D01*
X189977000Y-67574714D01*
X190015731Y-67380000D01*
X189862293Y-66608613D01*
X189529130Y-66110000D01*
X189862293Y-65611387D01*
X190015731Y-64840000D01*
X189977000Y-64645286D01*
X189977000Y-62494714D01*
X190015731Y-62300000D01*
X189977000Y-62105286D01*
X189977000Y-59954714D01*
X190015731Y-59760000D01*
X189977000Y-59565286D01*
X189977000Y-57414714D01*
X190015731Y-57220000D01*
X189862293Y-56448613D01*
X189425337Y-55794663D01*
X188771387Y-55357707D01*
X188194714Y-55243000D01*
X188000000Y-55204269D01*
X187805286Y-55243000D01*
X185654714Y-55243000D01*
X185460000Y-55204269D01*
X185265286Y-55243000D01*
X149194714Y-55243000D01*
X149000000Y-55204269D01*
X148805286Y-55243000D01*
X129194714Y-55243000D01*
X129000000Y-55204269D01*
X128805286Y-55243000D01*
X100734714Y-55243000D01*
X100540000Y-55204269D01*
X100345286Y-55243000D01*
X98967114Y-55243000D01*
X99523779Y-54686335D01*
X99977000Y-53592162D01*
X99977000Y-52407838D01*
X99523779Y-51313665D01*
X98967114Y-50757000D01*
X100345286Y-50757000D01*
X100540000Y-50795731D01*
X100734714Y-50757000D01*
X138805286Y-50757000D01*
X139000000Y-50795731D01*
X139194714Y-50757000D01*
X158805286Y-50757000D01*
X159000000Y-50795731D01*
X159194714Y-50757000D01*
X163720764Y-50757000D01*
X163342908Y-51134856D01*
X163087600Y-51751224D01*
X163087600Y-52418376D01*
X163342908Y-53034744D01*
X163814656Y-53506492D01*
X164431024Y-53761800D01*
X165098176Y-53761800D01*
X165714544Y-53506492D01*
X166186292Y-53034744D01*
X166441600Y-52418376D01*
X166441600Y-51751224D01*
X166186292Y-51134856D01*
X165808436Y-50757000D01*
X171353274Y-50757000D01*
X171175551Y-50875751D01*
X170804901Y-51430467D01*
X170674746Y-52084800D01*
X170804901Y-52739133D01*
X171175551Y-53293849D01*
X171730267Y-53664499D01*
X172219432Y-53761800D01*
X172549768Y-53761800D01*
X173038933Y-53664499D01*
X173593649Y-53293849D01*
X173964299Y-52739133D01*
X174094454Y-52084800D01*
X173964299Y-51430467D01*
X173593649Y-50875751D01*
X173415926Y-50757000D01*
X185265286Y-50757000D01*
X185460000Y-50795731D01*
X185654714Y-50757000D01*
X187805286Y-50757000D01*
X188000000Y-50795731D01*
X188194714Y-50757000D01*
X188771387Y-50642293D01*
X189425337Y-50205337D01*
X189862293Y-49551387D01*
X190015731Y-48780000D01*
X189977000Y-48585286D01*
X189977000Y-46434714D01*
X190015731Y-46240000D01*
X189977000Y-46045286D01*
X189977000Y-43894714D01*
X190015731Y-43700000D01*
X189977000Y-43505286D01*
X189977000Y-41354714D01*
X190015731Y-41160000D01*
X189862293Y-40388613D01*
X189529130Y-39890000D01*
X189862293Y-39391387D01*
X190015731Y-38620000D01*
X189977000Y-38425286D01*
X189977000Y-36274714D01*
X190015731Y-36080000D01*
X189977000Y-35885286D01*
X189977000Y-33734714D01*
X190015731Y-33540000D01*
X189977000Y-33345286D01*
X189977000Y-31194714D01*
X190015731Y-31000000D01*
X189862293Y-30228613D01*
X189425337Y-29574663D01*
X188771387Y-29137707D01*
X188685535Y-29120630D01*
X188000000Y-28984269D01*
X187805286Y-29023000D01*
X185654714Y-29023000D01*
X185460000Y-28984269D01*
X185265286Y-29023000D01*
X149194714Y-29023000D01*
X149000000Y-28984269D01*
X148805286Y-29023000D01*
X129194714Y-29023000D01*
X129000000Y-28984269D01*
X128805286Y-29023000D01*
X100734714Y-29023000D01*
X100540000Y-28984269D01*
X100345286Y-29023000D01*
X98194714Y-29023000D01*
X98000000Y-28984269D01*
X97314465Y-29120630D01*
X97228613Y-29137707D01*
X96574663Y-29574663D01*
X96137707Y-30228613D01*
X95984269Y-31000000D01*
X96023000Y-31194715D01*
X96023000Y-33345284D01*
X95984269Y-33540000D01*
X96023000Y-33734716D01*
X96023001Y-35885282D01*
X95984269Y-36080000D01*
X96023001Y-36274718D01*
X96023001Y-38425281D01*
X95984269Y-38620000D01*
X96137707Y-39391387D01*
X96470870Y-39890000D01*
X96137707Y-40388613D01*
X95984269Y-41160000D01*
X96023001Y-41354719D01*
X96023001Y-43505282D01*
X95984269Y-43700000D01*
X96023001Y-43894718D01*
X96023000Y-46045284D01*
X95984269Y-46240000D01*
X96023000Y-46434716D01*
X96023000Y-48585285D01*
X95984269Y-48780000D01*
X96137707Y-49551387D01*
X96452829Y-50023000D01*
X96407838Y-50023000D01*
X95313665Y-50476221D01*
X94952000Y-50837886D01*
X94952000Y-30559893D01*
X95007962Y-30116910D01*
X95150108Y-29757890D01*
X95377071Y-29445501D01*
X95674593Y-29199370D01*
X96023982Y-29034960D01*
X96447814Y-28954110D01*
X96514946Y-28952000D01*
X191440107Y-28952000D01*
X191883090Y-29007962D01*
X191883090Y-29007962D01*
G37*
X191883090Y-29007962D02*
X192242110Y-29150108D01*
X192554499Y-29377071D01*
X192800630Y-29674593D01*
X192965040Y-30023982D01*
X193045890Y-30447814D01*
X193048000Y-30514946D01*
X193048000Y-50837886D01*
X192686335Y-50476221D01*
X191592162Y-50023000D01*
X190407838Y-50023000D01*
X189313665Y-50476221D01*
X188476221Y-51313665D01*
X188023000Y-52407838D01*
X188023000Y-53592162D01*
X188476221Y-54686335D01*
X189313665Y-55523779D01*
X190407838Y-55977000D01*
X191592162Y-55977000D01*
X192686335Y-55523779D01*
X193048001Y-55162113D01*
X193048001Y-75440099D01*
X192992038Y-75883090D01*
X192849893Y-76242109D01*
X192622930Y-76554497D01*
X192325407Y-76800630D01*
X191976018Y-76965040D01*
X191552186Y-77045890D01*
X191485054Y-77048000D01*
X96559893Y-77048000D01*
X96116910Y-76992038D01*
X95757891Y-76849893D01*
X95445503Y-76622930D01*
X95199370Y-76325407D01*
X95034960Y-75976018D01*
X94954110Y-75552186D01*
X94952000Y-75485054D01*
X94952000Y-55162114D01*
X95313665Y-55523779D01*
X96407838Y-55977000D01*
X96452829Y-55977000D01*
X96137707Y-56448613D01*
X95984269Y-57220000D01*
X96023001Y-57414719D01*
X96023001Y-59565282D01*
X95984269Y-59760000D01*
X96023001Y-59954718D01*
X96023000Y-62105284D01*
X95984269Y-62300000D01*
X96023000Y-62494716D01*
X96023000Y-64645285D01*
X95984269Y-64840000D01*
X96137707Y-65611387D01*
X96470870Y-66110000D01*
X96137707Y-66608613D01*
X95984269Y-67380000D01*
X96023000Y-67574715D01*
X96023000Y-69725284D01*
X95984269Y-69920000D01*
X96023000Y-70114716D01*
X96023001Y-72265282D01*
X95984269Y-72460000D01*
X96023001Y-72654718D01*
X96023001Y-74805281D01*
X95984269Y-75000000D01*
X96137707Y-75771387D01*
X96574663Y-76425337D01*
X97228613Y-76862293D01*
X97805286Y-76977000D01*
X98000000Y-77015731D01*
X98194714Y-76977000D01*
X100345286Y-76977000D01*
X100540000Y-77015731D01*
X100734714Y-76977000D01*
X138805286Y-76977000D01*
X139000000Y-77015731D01*
X139194714Y-76977000D01*
X158805286Y-76977000D01*
X159000000Y-77015731D01*
X159194714Y-76977000D01*
X185265286Y-76977000D01*
X185460000Y-77015731D01*
X185654714Y-76977000D01*
X187805286Y-76977000D01*
X188000000Y-77015731D01*
X188194714Y-76977000D01*
X188478343Y-76920583D01*
X188771387Y-76862293D01*
X189425337Y-76425337D01*
X189862293Y-75771387D01*
X189938514Y-75388196D01*
X190015731Y-75000000D01*
X189977000Y-74805286D01*
X189977000Y-72654714D01*
X190015731Y-72460000D01*
X189977000Y-72265286D01*
X189977000Y-70114714D01*
X190015731Y-69920000D01*
X189977000Y-69725286D01*
X189977000Y-67574714D01*
X190015731Y-67380000D01*
X189862293Y-66608613D01*
X189529130Y-66110000D01*
X189862293Y-65611387D01*
X190015731Y-64840000D01*
X189977000Y-64645286D01*
X189977000Y-62494714D01*
X190015731Y-62300000D01*
X189977000Y-62105286D01*
X189977000Y-59954714D01*
X190015731Y-59760000D01*
X189977000Y-59565286D01*
X189977000Y-57414714D01*
X190015731Y-57220000D01*
X189862293Y-56448613D01*
X189425337Y-55794663D01*
X188771387Y-55357707D01*
X188194714Y-55243000D01*
X188000000Y-55204269D01*
X187805286Y-55243000D01*
X185654714Y-55243000D01*
X185460000Y-55204269D01*
X185265286Y-55243000D01*
X149194714Y-55243000D01*
X149000000Y-55204269D01*
X148805286Y-55243000D01*
X129194714Y-55243000D01*
X129000000Y-55204269D01*
X128805286Y-55243000D01*
X100734714Y-55243000D01*
X100540000Y-55204269D01*
X100345286Y-55243000D01*
X98967114Y-55243000D01*
X99523779Y-54686335D01*
X99977000Y-53592162D01*
X99977000Y-52407838D01*
X99523779Y-51313665D01*
X98967114Y-50757000D01*
X100345286Y-50757000D01*
X100540000Y-50795731D01*
X100734714Y-50757000D01*
X138805286Y-50757000D01*
X139000000Y-50795731D01*
X139194714Y-50757000D01*
X158805286Y-50757000D01*
X159000000Y-50795731D01*
X159194714Y-50757000D01*
X163720764Y-50757000D01*
X163342908Y-51134856D01*
X163087600Y-51751224D01*
X163087600Y-52418376D01*
X163342908Y-53034744D01*
X163814656Y-53506492D01*
X164431024Y-53761800D01*
X165098176Y-53761800D01*
X165714544Y-53506492D01*
X166186292Y-53034744D01*
X166441600Y-52418376D01*
X166441600Y-51751224D01*
X166186292Y-51134856D01*
X165808436Y-50757000D01*
X171353274Y-50757000D01*
X171175551Y-50875751D01*
X170804901Y-51430467D01*
X170674746Y-52084800D01*
X170804901Y-52739133D01*
X171175551Y-53293849D01*
X171730267Y-53664499D01*
X172219432Y-53761800D01*
X172549768Y-53761800D01*
X173038933Y-53664499D01*
X173593649Y-53293849D01*
X173964299Y-52739133D01*
X174094454Y-52084800D01*
X173964299Y-51430467D01*
X173593649Y-50875751D01*
X173415926Y-50757000D01*
X185265286Y-50757000D01*
X185460000Y-50795731D01*
X185654714Y-50757000D01*
X187805286Y-50757000D01*
X188000000Y-50795731D01*
X188194714Y-50757000D01*
X188771387Y-50642293D01*
X189425337Y-50205337D01*
X189862293Y-49551387D01*
X190015731Y-48780000D01*
X189977000Y-48585286D01*
X189977000Y-46434714D01*
X190015731Y-46240000D01*
X189977000Y-46045286D01*
X189977000Y-43894714D01*
X190015731Y-43700000D01*
X189977000Y-43505286D01*
X189977000Y-41354714D01*
X190015731Y-41160000D01*
X189862293Y-40388613D01*
X189529130Y-39890000D01*
X189862293Y-39391387D01*
X190015731Y-38620000D01*
X189977000Y-38425286D01*
X189977000Y-36274714D01*
X190015731Y-36080000D01*
X189977000Y-35885286D01*
X189977000Y-33734714D01*
X190015731Y-33540000D01*
X189977000Y-33345286D01*
X189977000Y-31194714D01*
X190015731Y-31000000D01*
X189862293Y-30228613D01*
X189425337Y-29574663D01*
X188771387Y-29137707D01*
X188685535Y-29120630D01*
X188000000Y-28984269D01*
X187805286Y-29023000D01*
X185654714Y-29023000D01*
X185460000Y-28984269D01*
X185265286Y-29023000D01*
X149194714Y-29023000D01*
X149000000Y-28984269D01*
X148805286Y-29023000D01*
X129194714Y-29023000D01*
X129000000Y-28984269D01*
X128805286Y-29023000D01*
X100734714Y-29023000D01*
X100540000Y-28984269D01*
X100345286Y-29023000D01*
X98194714Y-29023000D01*
X98000000Y-28984269D01*
X97314465Y-29120630D01*
X97228613Y-29137707D01*
X96574663Y-29574663D01*
X96137707Y-30228613D01*
X95984269Y-31000000D01*
X96023000Y-31194715D01*
X96023000Y-33345284D01*
X95984269Y-33540000D01*
X96023000Y-33734716D01*
X96023001Y-35885282D01*
X95984269Y-36080000D01*
X96023001Y-36274718D01*
X96023001Y-38425281D01*
X95984269Y-38620000D01*
X96137707Y-39391387D01*
X96470870Y-39890000D01*
X96137707Y-40388613D01*
X95984269Y-41160000D01*
X96023001Y-41354719D01*
X96023001Y-43505282D01*
X95984269Y-43700000D01*
X96023001Y-43894718D01*
X96023000Y-46045284D01*
X95984269Y-46240000D01*
X96023000Y-46434716D01*
X96023000Y-48585285D01*
X95984269Y-48780000D01*
X96137707Y-49551387D01*
X96452829Y-50023000D01*
X96407838Y-50023000D01*
X95313665Y-50476221D01*
X94952000Y-50837886D01*
X94952000Y-30559893D01*
X95007962Y-30116910D01*
X95150108Y-29757890D01*
X95377071Y-29445501D01*
X95674593Y-29199370D01*
X96023982Y-29034960D01*
X96447814Y-28954110D01*
X96514946Y-28952000D01*
X191440107Y-28952000D01*
X191883090Y-29007962D01*
G36*
X191883090Y-79007962D02*
X192242110Y-79150108D01*
X192554499Y-79377071D01*
X192800630Y-79674593D01*
X192965040Y-80023982D01*
X193045890Y-80447814D01*
X193048000Y-80514946D01*
X193048000Y-100837886D01*
X192686335Y-100476221D01*
X191592162Y-100023000D01*
X190407838Y-100023000D01*
X189313665Y-100476221D01*
X188476221Y-101313665D01*
X188023000Y-102407838D01*
X188023000Y-103592162D01*
X188476221Y-104686335D01*
X189313665Y-105523779D01*
X190407838Y-105977000D01*
X191592162Y-105977000D01*
X192686335Y-105523779D01*
X193048001Y-105162113D01*
X193048001Y-125440099D01*
X192992038Y-125883090D01*
X192849893Y-126242109D01*
X192622930Y-126554497D01*
X192325407Y-126800630D01*
X191976018Y-126965040D01*
X191552186Y-127045890D01*
X191485054Y-127048000D01*
X96559893Y-127048000D01*
X96116910Y-126992038D01*
X95757891Y-126849893D01*
X95445503Y-126622930D01*
X95199370Y-126325407D01*
X95034960Y-125976018D01*
X94954110Y-125552186D01*
X94952000Y-125485054D01*
X94952000Y-105162114D01*
X95313665Y-105523779D01*
X96407838Y-105977000D01*
X96452829Y-105977000D01*
X96137707Y-106448613D01*
X95984269Y-107220000D01*
X96023001Y-107414719D01*
X96023001Y-109565282D01*
X95984269Y-109760000D01*
X96023001Y-109954718D01*
X96023000Y-112105284D01*
X95984269Y-112300000D01*
X96023000Y-112494716D01*
X96023000Y-114645285D01*
X95984269Y-114840000D01*
X96137707Y-115611387D01*
X96470870Y-116110000D01*
X96137707Y-116608613D01*
X95984269Y-117380000D01*
X96023000Y-117574715D01*
X96023000Y-119725284D01*
X95984269Y-119920000D01*
X96023000Y-120114716D01*
X96023001Y-122265282D01*
X95984269Y-122460000D01*
X96023001Y-122654718D01*
X96023001Y-124805281D01*
X95984269Y-125000000D01*
X96137707Y-125771387D01*
X96574663Y-126425337D01*
X97228613Y-126862293D01*
X97805286Y-126977000D01*
X98000000Y-127015731D01*
X98194714Y-126977000D01*
X100345286Y-126977000D01*
X100540000Y-127015731D01*
X100734714Y-126977000D01*
X138805286Y-126977000D01*
X139000000Y-127015731D01*
X139194714Y-126977000D01*
X158805286Y-126977000D01*
X159000000Y-127015731D01*
X159194714Y-126977000D01*
X185265286Y-126977000D01*
X185460000Y-127015731D01*
X185654714Y-126977000D01*
X187805286Y-126977000D01*
X188000000Y-127015731D01*
X188194714Y-126977000D01*
X188478343Y-126920583D01*
X188771387Y-126862293D01*
X189425337Y-126425337D01*
X189862293Y-125771387D01*
X189938514Y-125388196D01*
X190015731Y-125000000D01*
X189977000Y-124805286D01*
X189977000Y-122654714D01*
X190015731Y-122460000D01*
X189977000Y-122265286D01*
X189977000Y-120114714D01*
X190015731Y-119920000D01*
X189977000Y-119725286D01*
X189977000Y-117574714D01*
X190015731Y-117380000D01*
X189862293Y-116608613D01*
X189529130Y-116110000D01*
X189862293Y-115611387D01*
X190015731Y-114840000D01*
X189977000Y-114645286D01*
X189977000Y-112494714D01*
X190015731Y-112300000D01*
X189977000Y-112105286D01*
X189977000Y-109954714D01*
X190015731Y-109760000D01*
X189977000Y-109565286D01*
X189977000Y-107414714D01*
X190015731Y-107220000D01*
X189862293Y-106448613D01*
X189425337Y-105794663D01*
X188771387Y-105357707D01*
X188194714Y-105243000D01*
X188000000Y-105204269D01*
X187805286Y-105243000D01*
X185654714Y-105243000D01*
X185460000Y-105204269D01*
X185265286Y-105243000D01*
X149194714Y-105243000D01*
X149000000Y-105204269D01*
X148805286Y-105243000D01*
X129194714Y-105243000D01*
X129000000Y-105204269D01*
X128805286Y-105243000D01*
X100734714Y-105243000D01*
X100540000Y-105204269D01*
X100345286Y-105243000D01*
X98967114Y-105243000D01*
X99523779Y-104686335D01*
X99977000Y-103592162D01*
X99977000Y-102407838D01*
X99523779Y-101313665D01*
X98967114Y-100757000D01*
X100345286Y-100757000D01*
X100540000Y-100795731D01*
X100734714Y-100757000D01*
X138805286Y-100757000D01*
X139000000Y-100795731D01*
X139194714Y-100757000D01*
X158805286Y-100757000D01*
X159000000Y-100795731D01*
X159194714Y-100757000D01*
X163720764Y-100757000D01*
X163342908Y-101134856D01*
X163087600Y-101751224D01*
X163087600Y-102418376D01*
X163342908Y-103034744D01*
X163814656Y-103506492D01*
X164431024Y-103761800D01*
X165098176Y-103761800D01*
X165714544Y-103506492D01*
X166186292Y-103034744D01*
X166441600Y-102418376D01*
X166441600Y-101751224D01*
X166186292Y-101134856D01*
X165808436Y-100757000D01*
X171353274Y-100757000D01*
X171175551Y-100875751D01*
X170804901Y-101430467D01*
X170674746Y-102084800D01*
X170804901Y-102739133D01*
X171175551Y-103293849D01*
X171730267Y-103664499D01*
X172219432Y-103761800D01*
X172549768Y-103761800D01*
X173038933Y-103664499D01*
X173593649Y-103293849D01*
X173964299Y-102739133D01*
X174094454Y-102084800D01*
X173964299Y-101430467D01*
X173593649Y-100875751D01*
X173415926Y-100757000D01*
X185265286Y-100757000D01*
X185460000Y-100795731D01*
X185654714Y-100757000D01*
X187805286Y-100757000D01*
X188000000Y-100795731D01*
X188194714Y-100757000D01*
X188771387Y-100642293D01*
X189425337Y-100205337D01*
X189862293Y-99551387D01*
X190015731Y-98780000D01*
X189977000Y-98585286D01*
X189977000Y-96434714D01*
X190015731Y-96240000D01*
X189977000Y-96045286D01*
X189977000Y-93894714D01*
X190015731Y-93700000D01*
X189977000Y-93505286D01*
X189977000Y-91354714D01*
X190015731Y-91160000D01*
X189862293Y-90388613D01*
X189529130Y-89890000D01*
X189862293Y-89391387D01*
X190015731Y-88620000D01*
X189977000Y-88425286D01*
X189977000Y-86274714D01*
X190015731Y-86080000D01*
X189977000Y-85885286D01*
X189977000Y-83734714D01*
X190015731Y-83540000D01*
X189977000Y-83345286D01*
X189977000Y-81194714D01*
X190015731Y-81000000D01*
X189862293Y-80228613D01*
X189425337Y-79574663D01*
X188771387Y-79137707D01*
X188685535Y-79120630D01*
X188000000Y-78984269D01*
X187805286Y-79023000D01*
X185654714Y-79023000D01*
X185460000Y-78984269D01*
X185265286Y-79023000D01*
X149194714Y-79023000D01*
X149000000Y-78984269D01*
X148805286Y-79023000D01*
X129194714Y-79023000D01*
X129000000Y-78984269D01*
X128805286Y-79023000D01*
X100734714Y-79023000D01*
X100540000Y-78984269D01*
X100345286Y-79023000D01*
X98194714Y-79023000D01*
X98000000Y-78984269D01*
X97314465Y-79120630D01*
X97228613Y-79137707D01*
X96574663Y-79574663D01*
X96137707Y-80228613D01*
X95984269Y-81000000D01*
X96023000Y-81194715D01*
X96023000Y-83345284D01*
X95984269Y-83540000D01*
X96023000Y-83734716D01*
X96023001Y-85885282D01*
X95984269Y-86080000D01*
X96023001Y-86274718D01*
X96023001Y-88425281D01*
X95984269Y-88620000D01*
X96137707Y-89391387D01*
X96470870Y-89890000D01*
X96137707Y-90388613D01*
X95984269Y-91160000D01*
X96023001Y-91354719D01*
X96023001Y-93505282D01*
X95984269Y-93700000D01*
X96023001Y-93894718D01*
X96023000Y-96045284D01*
X95984269Y-96240000D01*
X96023000Y-96434716D01*
X96023000Y-98585285D01*
X95984269Y-98780000D01*
X96137707Y-99551387D01*
X96452829Y-100023000D01*
X96407838Y-100023000D01*
X95313665Y-100476221D01*
X94952000Y-100837886D01*
X94952000Y-80559893D01*
X95007962Y-80116910D01*
X95150108Y-79757890D01*
X95377071Y-79445501D01*
X95674593Y-79199370D01*
X96023982Y-79034960D01*
X96447814Y-78954110D01*
X96514946Y-78952000D01*
X191440107Y-78952000D01*
X191883090Y-79007962D01*
X191883090Y-79007962D01*
G37*
X191883090Y-79007962D02*
X192242110Y-79150108D01*
X192554499Y-79377071D01*
X192800630Y-79674593D01*
X192965040Y-80023982D01*
X193045890Y-80447814D01*
X193048000Y-80514946D01*
X193048000Y-100837886D01*
X192686335Y-100476221D01*
X191592162Y-100023000D01*
X190407838Y-100023000D01*
X189313665Y-100476221D01*
X188476221Y-101313665D01*
X188023000Y-102407838D01*
X188023000Y-103592162D01*
X188476221Y-104686335D01*
X189313665Y-105523779D01*
X190407838Y-105977000D01*
X191592162Y-105977000D01*
X192686335Y-105523779D01*
X193048001Y-105162113D01*
X193048001Y-125440099D01*
X192992038Y-125883090D01*
X192849893Y-126242109D01*
X192622930Y-126554497D01*
X192325407Y-126800630D01*
X191976018Y-126965040D01*
X191552186Y-127045890D01*
X191485054Y-127048000D01*
X96559893Y-127048000D01*
X96116910Y-126992038D01*
X95757891Y-126849893D01*
X95445503Y-126622930D01*
X95199370Y-126325407D01*
X95034960Y-125976018D01*
X94954110Y-125552186D01*
X94952000Y-125485054D01*
X94952000Y-105162114D01*
X95313665Y-105523779D01*
X96407838Y-105977000D01*
X96452829Y-105977000D01*
X96137707Y-106448613D01*
X95984269Y-107220000D01*
X96023001Y-107414719D01*
X96023001Y-109565282D01*
X95984269Y-109760000D01*
X96023001Y-109954718D01*
X96023000Y-112105284D01*
X95984269Y-112300000D01*
X96023000Y-112494716D01*
X96023000Y-114645285D01*
X95984269Y-114840000D01*
X96137707Y-115611387D01*
X96470870Y-116110000D01*
X96137707Y-116608613D01*
X95984269Y-117380000D01*
X96023000Y-117574715D01*
X96023000Y-119725284D01*
X95984269Y-119920000D01*
X96023000Y-120114716D01*
X96023001Y-122265282D01*
X95984269Y-122460000D01*
X96023001Y-122654718D01*
X96023001Y-124805281D01*
X95984269Y-125000000D01*
X96137707Y-125771387D01*
X96574663Y-126425337D01*
X97228613Y-126862293D01*
X97805286Y-126977000D01*
X98000000Y-127015731D01*
X98194714Y-126977000D01*
X100345286Y-126977000D01*
X100540000Y-127015731D01*
X100734714Y-126977000D01*
X138805286Y-126977000D01*
X139000000Y-127015731D01*
X139194714Y-126977000D01*
X158805286Y-126977000D01*
X159000000Y-127015731D01*
X159194714Y-126977000D01*
X185265286Y-126977000D01*
X185460000Y-127015731D01*
X185654714Y-126977000D01*
X187805286Y-126977000D01*
X188000000Y-127015731D01*
X188194714Y-126977000D01*
X188478343Y-126920583D01*
X188771387Y-126862293D01*
X189425337Y-126425337D01*
X189862293Y-125771387D01*
X189938514Y-125388196D01*
X190015731Y-125000000D01*
X189977000Y-124805286D01*
X189977000Y-122654714D01*
X190015731Y-122460000D01*
X189977000Y-122265286D01*
X189977000Y-120114714D01*
X190015731Y-119920000D01*
X189977000Y-119725286D01*
X189977000Y-117574714D01*
X190015731Y-117380000D01*
X189862293Y-116608613D01*
X189529130Y-116110000D01*
X189862293Y-115611387D01*
X190015731Y-114840000D01*
X189977000Y-114645286D01*
X189977000Y-112494714D01*
X190015731Y-112300000D01*
X189977000Y-112105286D01*
X189977000Y-109954714D01*
X190015731Y-109760000D01*
X189977000Y-109565286D01*
X189977000Y-107414714D01*
X190015731Y-107220000D01*
X189862293Y-106448613D01*
X189425337Y-105794663D01*
X188771387Y-105357707D01*
X188194714Y-105243000D01*
X188000000Y-105204269D01*
X187805286Y-105243000D01*
X185654714Y-105243000D01*
X185460000Y-105204269D01*
X185265286Y-105243000D01*
X149194714Y-105243000D01*
X149000000Y-105204269D01*
X148805286Y-105243000D01*
X129194714Y-105243000D01*
X129000000Y-105204269D01*
X128805286Y-105243000D01*
X100734714Y-105243000D01*
X100540000Y-105204269D01*
X100345286Y-105243000D01*
X98967114Y-105243000D01*
X99523779Y-104686335D01*
X99977000Y-103592162D01*
X99977000Y-102407838D01*
X99523779Y-101313665D01*
X98967114Y-100757000D01*
X100345286Y-100757000D01*
X100540000Y-100795731D01*
X100734714Y-100757000D01*
X138805286Y-100757000D01*
X139000000Y-100795731D01*
X139194714Y-100757000D01*
X158805286Y-100757000D01*
X159000000Y-100795731D01*
X159194714Y-100757000D01*
X163720764Y-100757000D01*
X163342908Y-101134856D01*
X163087600Y-101751224D01*
X163087600Y-102418376D01*
X163342908Y-103034744D01*
X163814656Y-103506492D01*
X164431024Y-103761800D01*
X165098176Y-103761800D01*
X165714544Y-103506492D01*
X166186292Y-103034744D01*
X166441600Y-102418376D01*
X166441600Y-101751224D01*
X166186292Y-101134856D01*
X165808436Y-100757000D01*
X171353274Y-100757000D01*
X171175551Y-100875751D01*
X170804901Y-101430467D01*
X170674746Y-102084800D01*
X170804901Y-102739133D01*
X171175551Y-103293849D01*
X171730267Y-103664499D01*
X172219432Y-103761800D01*
X172549768Y-103761800D01*
X173038933Y-103664499D01*
X173593649Y-103293849D01*
X173964299Y-102739133D01*
X174094454Y-102084800D01*
X173964299Y-101430467D01*
X173593649Y-100875751D01*
X173415926Y-100757000D01*
X185265286Y-100757000D01*
X185460000Y-100795731D01*
X185654714Y-100757000D01*
X187805286Y-100757000D01*
X188000000Y-100795731D01*
X188194714Y-100757000D01*
X188771387Y-100642293D01*
X189425337Y-100205337D01*
X189862293Y-99551387D01*
X190015731Y-98780000D01*
X189977000Y-98585286D01*
X189977000Y-96434714D01*
X190015731Y-96240000D01*
X189977000Y-96045286D01*
X189977000Y-93894714D01*
X190015731Y-93700000D01*
X189977000Y-93505286D01*
X189977000Y-91354714D01*
X190015731Y-91160000D01*
X189862293Y-90388613D01*
X189529130Y-89890000D01*
X189862293Y-89391387D01*
X190015731Y-88620000D01*
X189977000Y-88425286D01*
X189977000Y-86274714D01*
X190015731Y-86080000D01*
X189977000Y-85885286D01*
X189977000Y-83734714D01*
X190015731Y-83540000D01*
X189977000Y-83345286D01*
X189977000Y-81194714D01*
X190015731Y-81000000D01*
X189862293Y-80228613D01*
X189425337Y-79574663D01*
X188771387Y-79137707D01*
X188685535Y-79120630D01*
X188000000Y-78984269D01*
X187805286Y-79023000D01*
X185654714Y-79023000D01*
X185460000Y-78984269D01*
X185265286Y-79023000D01*
X149194714Y-79023000D01*
X149000000Y-78984269D01*
X148805286Y-79023000D01*
X129194714Y-79023000D01*
X129000000Y-78984269D01*
X128805286Y-79023000D01*
X100734714Y-79023000D01*
X100540000Y-78984269D01*
X100345286Y-79023000D01*
X98194714Y-79023000D01*
X98000000Y-78984269D01*
X97314465Y-79120630D01*
X97228613Y-79137707D01*
X96574663Y-79574663D01*
X96137707Y-80228613D01*
X95984269Y-81000000D01*
X96023000Y-81194715D01*
X96023000Y-83345284D01*
X95984269Y-83540000D01*
X96023000Y-83734716D01*
X96023001Y-85885282D01*
X95984269Y-86080000D01*
X96023001Y-86274718D01*
X96023001Y-88425281D01*
X95984269Y-88620000D01*
X96137707Y-89391387D01*
X96470870Y-89890000D01*
X96137707Y-90388613D01*
X95984269Y-91160000D01*
X96023001Y-91354719D01*
X96023001Y-93505282D01*
X95984269Y-93700000D01*
X96023001Y-93894718D01*
X96023000Y-96045284D01*
X95984269Y-96240000D01*
X96023000Y-96434716D01*
X96023000Y-98585285D01*
X95984269Y-98780000D01*
X96137707Y-99551387D01*
X96452829Y-100023000D01*
X96407838Y-100023000D01*
X95313665Y-100476221D01*
X94952000Y-100837886D01*
X94952000Y-80559893D01*
X95007962Y-80116910D01*
X95150108Y-79757890D01*
X95377071Y-79445501D01*
X95674593Y-79199370D01*
X96023982Y-79034960D01*
X96447814Y-78954110D01*
X96514946Y-78952000D01*
X191440107Y-78952000D01*
X191883090Y-79007962D01*
M02*
