M48
;DRILL file {KiCad (5.0.2)-1} date 28/08/2019 19:48:55
;FORMAT={-:-/ absolute / metric / decimal}
FMAT,2
METRIC,TZ
T1C1.000
%
G90
G05
T1
X179.94Y-109.22
X170.Y-127.
X180.Y-83.
X160.Y-85.54
X104.Y-83.
X104.Y-85.54
X104.Y-88.08
X104.Y-90.62
X104.Y-93.16
X104.Y-95.7
X104.Y-98.24
X104.Y-100.78
X106.54Y-83.
X106.54Y-85.54
X106.54Y-88.08
X106.54Y-90.62
X106.54Y-93.16
X106.54Y-95.7
X106.54Y-98.24
X106.54Y-100.78
X170.Y-124.46
X160.Y-116.84
X190.Y-98.24
X170.Y-95.7
X160.Y-114.3
X104.Y-109.22
X104.Y-111.76
X104.Y-114.3
X104.Y-116.84
X104.Y-119.38
X104.Y-121.92
X104.Y-124.46
X104.Y-127.
X106.54Y-109.22
X106.54Y-111.76
X106.54Y-114.3
X106.54Y-116.84
X106.54Y-119.38
X106.54Y-121.92
X106.54Y-124.46
X106.54Y-127.
X179.94Y-114.3
X190.Y-119.38
X190.Y-95.7
X160.Y-90.62
X160.Y-109.22
X170.Y-119.38
X241.46Y-83.
X241.46Y-85.54
X241.46Y-88.08
X241.46Y-90.62
X241.46Y-93.16
X241.46Y-95.7
X241.46Y-98.24
X241.46Y-100.78
X244.Y-83.
X244.Y-85.54
X244.Y-88.08
X244.Y-90.62
X244.Y-93.16
X244.Y-95.7
X244.Y-98.24
X244.Y-100.78
X170.Y-121.92
X170.Y-93.16
X190.Y-100.78
X160.Y-111.76
X160.Y-83.
X179.94Y-116.84
X190.Y-121.92
X170.Y-100.78
X180.Y-85.54
X190.Y-93.16
X190.Y-127.
X241.46Y-109.22
X241.46Y-111.76
X241.46Y-114.3
X241.46Y-116.84
X241.46Y-119.38
X241.46Y-121.92
X241.46Y-124.46
X241.46Y-127.
X244.Y-109.22
X244.Y-111.76
X244.Y-114.3
X244.Y-116.84
X244.Y-119.38
X244.Y-121.92
X244.Y-124.46
X244.Y-127.
X179.94Y-111.76
X170.Y-98.24
X160.Y-88.08
X220.765Y-104.085
X228.385Y-104.085
X190.Y-124.46
X180.Y-90.62
X180.Y-88.08
T0
M30
