G04 #@! TF.GenerationSoftware,KiCad,Pcbnew,(5.0.2)-1*
G04 #@! TF.CreationDate,2019-08-28T19:48:54+02:00*
G04 #@! TF.ProjectId,EleLab_v2_Bus150,456c654c-6162-45f7-9632-5f4275733135,rev?*
G04 #@! TF.SameCoordinates,Original*
G04 #@! TF.FileFunction,Soldermask,Bot*
G04 #@! TF.FilePolarity,Negative*
%FSLAX46Y46*%
G04 Gerber Fmt 4.6, Leading zero omitted, Abs format (unit mm)*
G04 Created by KiCad (PCBNEW (5.0.2)-1) date 28/08/2019 19:48:54*
%MOMM*%
%LPD*%
G01*
G04 APERTURE LIST*
%ADD10C,0.010000*%
%ADD11C,0.100000*%
G04 APERTURE END LIST*
D10*
G04 #@! TO.C,LO_2*
G36*
X177044059Y-102725960D02*
X176926455Y-102792395D01*
X176832977Y-102895045D01*
X176789188Y-102981124D01*
X176758578Y-103119614D01*
X176767679Y-103257591D01*
X176815027Y-103379084D01*
X176827412Y-103397850D01*
X176917851Y-103485408D01*
X177036729Y-103545553D01*
X177169667Y-103575418D01*
X177302287Y-103572134D01*
X177420210Y-103532832D01*
X177440994Y-103520244D01*
X177523263Y-103441394D01*
X177591086Y-103332770D01*
X177633253Y-103215295D01*
X177641600Y-103145799D01*
X177622326Y-103036575D01*
X177571810Y-102922110D01*
X177501018Y-102823158D01*
X177445358Y-102774295D01*
X177313139Y-102713876D01*
X177176163Y-102698776D01*
X177044059Y-102725960D01*
X177044059Y-102725960D01*
G37*
X177044059Y-102725960D02*
X176926455Y-102792395D01*
X176832977Y-102895045D01*
X176789188Y-102981124D01*
X176758578Y-103119614D01*
X176767679Y-103257591D01*
X176815027Y-103379084D01*
X176827412Y-103397850D01*
X176917851Y-103485408D01*
X177036729Y-103545553D01*
X177169667Y-103575418D01*
X177302287Y-103572134D01*
X177420210Y-103532832D01*
X177440994Y-103520244D01*
X177523263Y-103441394D01*
X177591086Y-103332770D01*
X177633253Y-103215295D01*
X177641600Y-103145799D01*
X177622326Y-103036575D01*
X177571810Y-102922110D01*
X177501018Y-102823158D01*
X177445358Y-102774295D01*
X177313139Y-102713876D01*
X177176163Y-102698776D01*
X177044059Y-102725960D01*
G36*
X176803400Y-105592045D02*
X176803179Y-105863528D01*
X176802417Y-106088618D01*
X176800974Y-106271721D01*
X176798706Y-106417240D01*
X176795469Y-106529583D01*
X176791122Y-106613155D01*
X176785520Y-106672359D01*
X176778522Y-106711603D01*
X176769984Y-106735292D01*
X176766108Y-106741395D01*
X176739822Y-106778943D01*
X176729109Y-106807085D01*
X176739290Y-106827174D01*
X176775688Y-106840563D01*
X176843624Y-106848605D01*
X176948422Y-106852653D01*
X177095402Y-106854060D01*
X177209800Y-106854200D01*
X177360082Y-106853515D01*
X177491273Y-106851608D01*
X177595573Y-106848702D01*
X177665181Y-106845017D01*
X177692295Y-106840776D01*
X177692400Y-106840488D01*
X177681845Y-106811454D01*
X177655274Y-106754509D01*
X177641600Y-106727200D01*
X177628734Y-106699760D01*
X177618241Y-106669394D01*
X177609880Y-106630920D01*
X177603409Y-106579155D01*
X177598589Y-106508918D01*
X177595178Y-106415027D01*
X177592935Y-106292301D01*
X177591619Y-106135559D01*
X177590990Y-105939617D01*
X177590805Y-105699296D01*
X177590800Y-105634750D01*
X177591053Y-105377269D01*
X177591929Y-105165749D01*
X177593604Y-104995351D01*
X177596252Y-104861238D01*
X177600050Y-104758571D01*
X177605173Y-104682513D01*
X177611797Y-104628226D01*
X177620097Y-104590872D01*
X177629553Y-104566938D01*
X177668305Y-104492000D01*
X176803400Y-104492000D01*
X176803400Y-105592045D01*
X176803400Y-105592045D01*
G37*
X176803400Y-105592045D02*
X176803179Y-105863528D01*
X176802417Y-106088618D01*
X176800974Y-106271721D01*
X176798706Y-106417240D01*
X176795469Y-106529583D01*
X176791122Y-106613155D01*
X176785520Y-106672359D01*
X176778522Y-106711603D01*
X176769984Y-106735292D01*
X176766108Y-106741395D01*
X176739822Y-106778943D01*
X176729109Y-106807085D01*
X176739290Y-106827174D01*
X176775688Y-106840563D01*
X176843624Y-106848605D01*
X176948422Y-106852653D01*
X177095402Y-106854060D01*
X177209800Y-106854200D01*
X177360082Y-106853515D01*
X177491273Y-106851608D01*
X177595573Y-106848702D01*
X177665181Y-106845017D01*
X177692295Y-106840776D01*
X177692400Y-106840488D01*
X177681845Y-106811454D01*
X177655274Y-106754509D01*
X177641600Y-106727200D01*
X177628734Y-106699760D01*
X177618241Y-106669394D01*
X177609880Y-106630920D01*
X177603409Y-106579155D01*
X177598589Y-106508918D01*
X177595178Y-106415027D01*
X177592935Y-106292301D01*
X177591619Y-106135559D01*
X177590990Y-105939617D01*
X177590805Y-105699296D01*
X177590800Y-105634750D01*
X177591053Y-105377269D01*
X177591929Y-105165749D01*
X177593604Y-104995351D01*
X177596252Y-104861238D01*
X177600050Y-104758571D01*
X177605173Y-104682513D01*
X177611797Y-104628226D01*
X177620097Y-104590872D01*
X177629553Y-104566938D01*
X177668305Y-104492000D01*
X176803400Y-104492000D01*
X176803400Y-105592045D01*
G36*
X178386253Y-103628400D02*
X177840941Y-103628400D01*
X178039721Y-103829787D01*
X178369429Y-104192691D01*
X178583849Y-104466815D01*
X178662297Y-104570400D01*
X178756856Y-104690529D01*
X178856950Y-104814202D01*
X178952002Y-104928419D01*
X179031434Y-105020181D01*
X179056532Y-105047760D01*
X179137964Y-105135212D01*
X179068006Y-105226356D01*
X178932564Y-105415604D01*
X178845022Y-105555050D01*
X178790152Y-105637286D01*
X178728876Y-105716612D01*
X178723727Y-105722607D01*
X178654778Y-105805581D01*
X178574253Y-105908137D01*
X178491058Y-106018288D01*
X178414098Y-106124047D01*
X178352281Y-106213425D01*
X178316624Y-106270547D01*
X178281543Y-106323596D01*
X178223014Y-106402062D01*
X178151180Y-106493252D01*
X178076185Y-106584472D01*
X178008172Y-106663032D01*
X177971800Y-106702020D01*
X177947911Y-106728081D01*
X177905637Y-106775406D01*
X177897523Y-106784570D01*
X177835945Y-106854200D01*
X178962400Y-106854200D01*
X178962400Y-106775923D01*
X178979163Y-106699395D01*
X179026393Y-106594149D01*
X179099507Y-106468239D01*
X179193919Y-106329716D01*
X179281458Y-106215533D01*
X179352732Y-106123313D01*
X179418053Y-106032269D01*
X179465223Y-105959535D01*
X179471329Y-105948833D01*
X179511371Y-105882434D01*
X179546658Y-105834284D01*
X179555301Y-105825500D01*
X179589862Y-105786816D01*
X179630085Y-105730250D01*
X179667774Y-105682093D01*
X179698285Y-105660487D01*
X179699586Y-105660400D01*
X179708462Y-105685091D01*
X179715582Y-105756381D01*
X179720736Y-105870092D01*
X179723717Y-106022044D01*
X179724400Y-106156961D01*
X179723716Y-106336263D01*
X179721305Y-106472270D01*
X179716625Y-106572475D01*
X179709137Y-106644369D01*
X179698302Y-106695443D01*
X179683579Y-106733188D01*
X179682756Y-106734811D01*
X179647283Y-106794491D01*
X179615777Y-106832618D01*
X179612906Y-106834761D01*
X179628403Y-106840323D01*
X179687753Y-106845262D01*
X179784014Y-106849312D01*
X179910241Y-106852207D01*
X180059489Y-106853682D01*
X180111206Y-106853811D01*
X180637711Y-106854200D01*
X180608032Y-106784350D01*
X180579859Y-106725758D01*
X180557776Y-106690370D01*
X180553943Y-106661142D01*
X180550343Y-106585781D01*
X180547041Y-106468951D01*
X180544104Y-106315317D01*
X180541601Y-106129546D01*
X180539596Y-105916302D01*
X180538158Y-105680251D01*
X180537353Y-105426059D01*
X180537201Y-105254290D01*
X180537259Y-104950311D01*
X180537530Y-104692912D01*
X180538154Y-104477874D01*
X180539274Y-104300978D01*
X180541031Y-104158004D01*
X180543567Y-104044733D01*
X180547024Y-103956945D01*
X180551543Y-103890421D01*
X180557267Y-103840941D01*
X180564338Y-103804286D01*
X180572896Y-103776237D01*
X180583084Y-103752574D01*
X180588001Y-103742699D01*
X180618756Y-103680869D01*
X180636810Y-103641660D01*
X180638801Y-103635729D01*
X180614665Y-103633507D01*
X180547312Y-103631556D01*
X180444328Y-103629984D01*
X180313294Y-103628901D01*
X180161795Y-103628415D01*
X180128083Y-103628400D01*
X179954940Y-103628664D01*
X179826371Y-103629831D01*
X179736154Y-103632464D01*
X179678063Y-103637123D01*
X179645876Y-103644372D01*
X179633368Y-103654772D01*
X179634314Y-103668885D01*
X179635836Y-103672850D01*
X179669195Y-103761673D01*
X179693261Y-103850181D01*
X179709420Y-103949141D01*
X179719058Y-104069321D01*
X179723560Y-104221488D01*
X179724400Y-104361088D01*
X179724401Y-104780904D01*
X179648201Y-104707900D01*
X179600587Y-104657557D01*
X179574006Y-104620278D01*
X179572000Y-104613483D01*
X179556863Y-104587550D01*
X179517372Y-104534128D01*
X179462412Y-104464145D01*
X179400868Y-104388529D01*
X179341623Y-104318209D01*
X179293561Y-104264114D01*
X179266761Y-104238000D01*
X179244439Y-104210734D01*
X179206064Y-104154630D01*
X179178198Y-104111000D01*
X179119995Y-104023298D01*
X179057049Y-103936698D01*
X179034701Y-103908362D01*
X178989987Y-103841736D01*
X178964592Y-103780643D01*
X178962400Y-103764390D01*
X178961878Y-103720677D01*
X178956209Y-103687502D01*
X178939238Y-103663412D01*
X178904811Y-103646955D01*
X178846774Y-103636677D01*
X178758972Y-103631127D01*
X178635250Y-103628851D01*
X178469455Y-103628396D01*
X178386253Y-103628400D01*
X178386253Y-103628400D01*
G37*
X178386253Y-103628400D02*
X177840941Y-103628400D01*
X178039721Y-103829787D01*
X178369429Y-104192691D01*
X178583849Y-104466815D01*
X178662297Y-104570400D01*
X178756856Y-104690529D01*
X178856950Y-104814202D01*
X178952002Y-104928419D01*
X179031434Y-105020181D01*
X179056532Y-105047760D01*
X179137964Y-105135212D01*
X179068006Y-105226356D01*
X178932564Y-105415604D01*
X178845022Y-105555050D01*
X178790152Y-105637286D01*
X178728876Y-105716612D01*
X178723727Y-105722607D01*
X178654778Y-105805581D01*
X178574253Y-105908137D01*
X178491058Y-106018288D01*
X178414098Y-106124047D01*
X178352281Y-106213425D01*
X178316624Y-106270547D01*
X178281543Y-106323596D01*
X178223014Y-106402062D01*
X178151180Y-106493252D01*
X178076185Y-106584472D01*
X178008172Y-106663032D01*
X177971800Y-106702020D01*
X177947911Y-106728081D01*
X177905637Y-106775406D01*
X177897523Y-106784570D01*
X177835945Y-106854200D01*
X178962400Y-106854200D01*
X178962400Y-106775923D01*
X178979163Y-106699395D01*
X179026393Y-106594149D01*
X179099507Y-106468239D01*
X179193919Y-106329716D01*
X179281458Y-106215533D01*
X179352732Y-106123313D01*
X179418053Y-106032269D01*
X179465223Y-105959535D01*
X179471329Y-105948833D01*
X179511371Y-105882434D01*
X179546658Y-105834284D01*
X179555301Y-105825500D01*
X179589862Y-105786816D01*
X179630085Y-105730250D01*
X179667774Y-105682093D01*
X179698285Y-105660487D01*
X179699586Y-105660400D01*
X179708462Y-105685091D01*
X179715582Y-105756381D01*
X179720736Y-105870092D01*
X179723717Y-106022044D01*
X179724400Y-106156961D01*
X179723716Y-106336263D01*
X179721305Y-106472270D01*
X179716625Y-106572475D01*
X179709137Y-106644369D01*
X179698302Y-106695443D01*
X179683579Y-106733188D01*
X179682756Y-106734811D01*
X179647283Y-106794491D01*
X179615777Y-106832618D01*
X179612906Y-106834761D01*
X179628403Y-106840323D01*
X179687753Y-106845262D01*
X179784014Y-106849312D01*
X179910241Y-106852207D01*
X180059489Y-106853682D01*
X180111206Y-106853811D01*
X180637711Y-106854200D01*
X180608032Y-106784350D01*
X180579859Y-106725758D01*
X180557776Y-106690370D01*
X180553943Y-106661142D01*
X180550343Y-106585781D01*
X180547041Y-106468951D01*
X180544104Y-106315317D01*
X180541601Y-106129546D01*
X180539596Y-105916302D01*
X180538158Y-105680251D01*
X180537353Y-105426059D01*
X180537201Y-105254290D01*
X180537259Y-104950311D01*
X180537530Y-104692912D01*
X180538154Y-104477874D01*
X180539274Y-104300978D01*
X180541031Y-104158004D01*
X180543567Y-104044733D01*
X180547024Y-103956945D01*
X180551543Y-103890421D01*
X180557267Y-103840941D01*
X180564338Y-103804286D01*
X180572896Y-103776237D01*
X180583084Y-103752574D01*
X180588001Y-103742699D01*
X180618756Y-103680869D01*
X180636810Y-103641660D01*
X180638801Y-103635729D01*
X180614665Y-103633507D01*
X180547312Y-103631556D01*
X180444328Y-103629984D01*
X180313294Y-103628901D01*
X180161795Y-103628415D01*
X180128083Y-103628400D01*
X179954940Y-103628664D01*
X179826371Y-103629831D01*
X179736154Y-103632464D01*
X179678063Y-103637123D01*
X179645876Y-103644372D01*
X179633368Y-103654772D01*
X179634314Y-103668885D01*
X179635836Y-103672850D01*
X179669195Y-103761673D01*
X179693261Y-103850181D01*
X179709420Y-103949141D01*
X179719058Y-104069321D01*
X179723560Y-104221488D01*
X179724400Y-104361088D01*
X179724401Y-104780904D01*
X179648201Y-104707900D01*
X179600587Y-104657557D01*
X179574006Y-104620278D01*
X179572000Y-104613483D01*
X179556863Y-104587550D01*
X179517372Y-104534128D01*
X179462412Y-104464145D01*
X179400868Y-104388529D01*
X179341623Y-104318209D01*
X179293561Y-104264114D01*
X179266761Y-104238000D01*
X179244439Y-104210734D01*
X179206064Y-104154630D01*
X179178198Y-104111000D01*
X179119995Y-104023298D01*
X179057049Y-103936698D01*
X179034701Y-103908362D01*
X178989987Y-103841736D01*
X178964592Y-103780643D01*
X178962400Y-103764390D01*
X178961878Y-103720677D01*
X178956209Y-103687502D01*
X178939238Y-103663412D01*
X178904811Y-103646955D01*
X178846774Y-103636677D01*
X178758972Y-103631127D01*
X178635250Y-103628851D01*
X178469455Y-103628396D01*
X178386253Y-103628400D01*
D11*
G36*
X190901000Y-127901000D02*
X189099000Y-127901000D01*
X189099000Y-126099000D01*
X190901000Y-126099000D01*
X190901000Y-127901000D01*
X190901000Y-127901000D01*
G37*
G36*
X242361000Y-127901000D02*
X240559000Y-127901000D01*
X240559000Y-126099000D01*
X242361000Y-126099000D01*
X242361000Y-127901000D01*
X242361000Y-127901000D01*
G37*
G36*
X244110443Y-126105519D02*
X244176627Y-126112037D01*
X244289853Y-126146384D01*
X244346467Y-126163557D01*
X244485087Y-126237652D01*
X244502991Y-126247222D01*
X244538729Y-126276552D01*
X244640186Y-126359814D01*
X244723448Y-126461271D01*
X244752778Y-126497009D01*
X244752779Y-126497011D01*
X244836443Y-126653533D01*
X244836443Y-126653534D01*
X244887963Y-126823373D01*
X244905359Y-127000000D01*
X244887963Y-127176627D01*
X244853616Y-127289853D01*
X244836443Y-127346467D01*
X244762348Y-127485087D01*
X244752778Y-127502991D01*
X244723448Y-127538729D01*
X244640186Y-127640186D01*
X244538729Y-127723448D01*
X244502991Y-127752778D01*
X244502989Y-127752779D01*
X244346467Y-127836443D01*
X244289853Y-127853616D01*
X244176627Y-127887963D01*
X244110442Y-127894482D01*
X244044260Y-127901000D01*
X243955740Y-127901000D01*
X243889558Y-127894482D01*
X243823373Y-127887963D01*
X243710147Y-127853616D01*
X243653533Y-127836443D01*
X243497011Y-127752779D01*
X243497009Y-127752778D01*
X243461271Y-127723448D01*
X243359814Y-127640186D01*
X243276552Y-127538729D01*
X243247222Y-127502991D01*
X243237652Y-127485087D01*
X243163557Y-127346467D01*
X243146384Y-127289853D01*
X243112037Y-127176627D01*
X243094641Y-127000000D01*
X243112037Y-126823373D01*
X243163557Y-126653534D01*
X243163557Y-126653533D01*
X243247221Y-126497011D01*
X243247222Y-126497009D01*
X243276552Y-126461271D01*
X243359814Y-126359814D01*
X243461271Y-126276552D01*
X243497009Y-126247222D01*
X243514913Y-126237652D01*
X243653533Y-126163557D01*
X243710147Y-126146384D01*
X243823373Y-126112037D01*
X243889557Y-126105519D01*
X243955740Y-126099000D01*
X244044260Y-126099000D01*
X244110443Y-126105519D01*
X244110443Y-126105519D01*
G37*
G36*
X104110443Y-126105519D02*
X104176627Y-126112037D01*
X104289853Y-126146384D01*
X104346467Y-126163557D01*
X104485087Y-126237652D01*
X104502991Y-126247222D01*
X104538729Y-126276552D01*
X104640186Y-126359814D01*
X104723448Y-126461271D01*
X104752778Y-126497009D01*
X104752779Y-126497011D01*
X104836443Y-126653533D01*
X104836443Y-126653534D01*
X104887963Y-126823373D01*
X104905359Y-127000000D01*
X104887963Y-127176627D01*
X104853616Y-127289853D01*
X104836443Y-127346467D01*
X104762348Y-127485087D01*
X104752778Y-127502991D01*
X104723448Y-127538729D01*
X104640186Y-127640186D01*
X104538729Y-127723448D01*
X104502991Y-127752778D01*
X104502989Y-127752779D01*
X104346467Y-127836443D01*
X104289853Y-127853616D01*
X104176627Y-127887963D01*
X104110442Y-127894482D01*
X104044260Y-127901000D01*
X103955740Y-127901000D01*
X103889558Y-127894482D01*
X103823373Y-127887963D01*
X103710147Y-127853616D01*
X103653533Y-127836443D01*
X103497011Y-127752779D01*
X103497009Y-127752778D01*
X103461271Y-127723448D01*
X103359814Y-127640186D01*
X103276552Y-127538729D01*
X103247222Y-127502991D01*
X103237652Y-127485087D01*
X103163557Y-127346467D01*
X103146384Y-127289853D01*
X103112037Y-127176627D01*
X103094641Y-127000000D01*
X103112037Y-126823373D01*
X103163557Y-126653534D01*
X103163557Y-126653533D01*
X103247221Y-126497011D01*
X103247222Y-126497009D01*
X103276552Y-126461271D01*
X103359814Y-126359814D01*
X103461271Y-126276552D01*
X103497009Y-126247222D01*
X103514913Y-126237652D01*
X103653533Y-126163557D01*
X103710147Y-126146384D01*
X103823373Y-126112037D01*
X103889557Y-126105519D01*
X103955740Y-126099000D01*
X104044260Y-126099000D01*
X104110443Y-126105519D01*
X104110443Y-126105519D01*
G37*
G36*
X170901000Y-127901000D02*
X169099000Y-127901000D01*
X169099000Y-126099000D01*
X170901000Y-126099000D01*
X170901000Y-127901000D01*
X170901000Y-127901000D01*
G37*
G36*
X107441000Y-127901000D02*
X105639000Y-127901000D01*
X105639000Y-126099000D01*
X107441000Y-126099000D01*
X107441000Y-127901000D01*
X107441000Y-127901000D01*
G37*
G36*
X170901000Y-125361000D02*
X169099000Y-125361000D01*
X169099000Y-123559000D01*
X170901000Y-123559000D01*
X170901000Y-125361000D01*
X170901000Y-125361000D01*
G37*
G36*
X106650442Y-123565518D02*
X106716627Y-123572037D01*
X106829853Y-123606384D01*
X106886467Y-123623557D01*
X107025087Y-123697652D01*
X107042991Y-123707222D01*
X107078729Y-123736552D01*
X107180186Y-123819814D01*
X107263448Y-123921271D01*
X107292778Y-123957009D01*
X107292779Y-123957011D01*
X107376443Y-124113533D01*
X107376443Y-124113534D01*
X107427963Y-124283373D01*
X107445359Y-124460000D01*
X107427963Y-124636627D01*
X107393616Y-124749853D01*
X107376443Y-124806467D01*
X107302348Y-124945087D01*
X107292778Y-124962991D01*
X107263448Y-124998729D01*
X107180186Y-125100186D01*
X107078729Y-125183448D01*
X107042991Y-125212778D01*
X107042989Y-125212779D01*
X106886467Y-125296443D01*
X106829853Y-125313616D01*
X106716627Y-125347963D01*
X106650442Y-125354482D01*
X106584260Y-125361000D01*
X106495740Y-125361000D01*
X106429558Y-125354482D01*
X106363373Y-125347963D01*
X106250147Y-125313616D01*
X106193533Y-125296443D01*
X106037011Y-125212779D01*
X106037009Y-125212778D01*
X106001271Y-125183448D01*
X105899814Y-125100186D01*
X105816552Y-124998729D01*
X105787222Y-124962991D01*
X105777652Y-124945087D01*
X105703557Y-124806467D01*
X105686384Y-124749853D01*
X105652037Y-124636627D01*
X105634641Y-124460000D01*
X105652037Y-124283373D01*
X105703557Y-124113534D01*
X105703557Y-124113533D01*
X105787221Y-123957011D01*
X105787222Y-123957009D01*
X105816552Y-123921271D01*
X105899814Y-123819814D01*
X106001271Y-123736552D01*
X106037009Y-123707222D01*
X106054913Y-123697652D01*
X106193533Y-123623557D01*
X106250147Y-123606384D01*
X106363373Y-123572037D01*
X106429558Y-123565518D01*
X106495740Y-123559000D01*
X106584260Y-123559000D01*
X106650442Y-123565518D01*
X106650442Y-123565518D01*
G37*
G36*
X104110442Y-123565518D02*
X104176627Y-123572037D01*
X104289853Y-123606384D01*
X104346467Y-123623557D01*
X104485087Y-123697652D01*
X104502991Y-123707222D01*
X104538729Y-123736552D01*
X104640186Y-123819814D01*
X104723448Y-123921271D01*
X104752778Y-123957009D01*
X104752779Y-123957011D01*
X104836443Y-124113533D01*
X104836443Y-124113534D01*
X104887963Y-124283373D01*
X104905359Y-124460000D01*
X104887963Y-124636627D01*
X104853616Y-124749853D01*
X104836443Y-124806467D01*
X104762348Y-124945087D01*
X104752778Y-124962991D01*
X104723448Y-124998729D01*
X104640186Y-125100186D01*
X104538729Y-125183448D01*
X104502991Y-125212778D01*
X104502989Y-125212779D01*
X104346467Y-125296443D01*
X104289853Y-125313616D01*
X104176627Y-125347963D01*
X104110442Y-125354482D01*
X104044260Y-125361000D01*
X103955740Y-125361000D01*
X103889558Y-125354482D01*
X103823373Y-125347963D01*
X103710147Y-125313616D01*
X103653533Y-125296443D01*
X103497011Y-125212779D01*
X103497009Y-125212778D01*
X103461271Y-125183448D01*
X103359814Y-125100186D01*
X103276552Y-124998729D01*
X103247222Y-124962991D01*
X103237652Y-124945087D01*
X103163557Y-124806467D01*
X103146384Y-124749853D01*
X103112037Y-124636627D01*
X103094641Y-124460000D01*
X103112037Y-124283373D01*
X103163557Y-124113534D01*
X103163557Y-124113533D01*
X103247221Y-123957011D01*
X103247222Y-123957009D01*
X103276552Y-123921271D01*
X103359814Y-123819814D01*
X103461271Y-123736552D01*
X103497009Y-123707222D01*
X103514913Y-123697652D01*
X103653533Y-123623557D01*
X103710147Y-123606384D01*
X103823373Y-123572037D01*
X103889558Y-123565518D01*
X103955740Y-123559000D01*
X104044260Y-123559000D01*
X104110442Y-123565518D01*
X104110442Y-123565518D01*
G37*
G36*
X244110442Y-123565518D02*
X244176627Y-123572037D01*
X244289853Y-123606384D01*
X244346467Y-123623557D01*
X244485087Y-123697652D01*
X244502991Y-123707222D01*
X244538729Y-123736552D01*
X244640186Y-123819814D01*
X244723448Y-123921271D01*
X244752778Y-123957009D01*
X244752779Y-123957011D01*
X244836443Y-124113533D01*
X244836443Y-124113534D01*
X244887963Y-124283373D01*
X244905359Y-124460000D01*
X244887963Y-124636627D01*
X244853616Y-124749853D01*
X244836443Y-124806467D01*
X244762348Y-124945087D01*
X244752778Y-124962991D01*
X244723448Y-124998729D01*
X244640186Y-125100186D01*
X244538729Y-125183448D01*
X244502991Y-125212778D01*
X244502989Y-125212779D01*
X244346467Y-125296443D01*
X244289853Y-125313616D01*
X244176627Y-125347963D01*
X244110442Y-125354482D01*
X244044260Y-125361000D01*
X243955740Y-125361000D01*
X243889558Y-125354482D01*
X243823373Y-125347963D01*
X243710147Y-125313616D01*
X243653533Y-125296443D01*
X243497011Y-125212779D01*
X243497009Y-125212778D01*
X243461271Y-125183448D01*
X243359814Y-125100186D01*
X243276552Y-124998729D01*
X243247222Y-124962991D01*
X243237652Y-124945087D01*
X243163557Y-124806467D01*
X243146384Y-124749853D01*
X243112037Y-124636627D01*
X243094641Y-124460000D01*
X243112037Y-124283373D01*
X243163557Y-124113534D01*
X243163557Y-124113533D01*
X243247221Y-123957011D01*
X243247222Y-123957009D01*
X243276552Y-123921271D01*
X243359814Y-123819814D01*
X243461271Y-123736552D01*
X243497009Y-123707222D01*
X243514913Y-123697652D01*
X243653533Y-123623557D01*
X243710147Y-123606384D01*
X243823373Y-123572037D01*
X243889558Y-123565518D01*
X243955740Y-123559000D01*
X244044260Y-123559000D01*
X244110442Y-123565518D01*
X244110442Y-123565518D01*
G37*
G36*
X241570442Y-123565518D02*
X241636627Y-123572037D01*
X241749853Y-123606384D01*
X241806467Y-123623557D01*
X241945087Y-123697652D01*
X241962991Y-123707222D01*
X241998729Y-123736552D01*
X242100186Y-123819814D01*
X242183448Y-123921271D01*
X242212778Y-123957009D01*
X242212779Y-123957011D01*
X242296443Y-124113533D01*
X242296443Y-124113534D01*
X242347963Y-124283373D01*
X242365359Y-124460000D01*
X242347963Y-124636627D01*
X242313616Y-124749853D01*
X242296443Y-124806467D01*
X242222348Y-124945087D01*
X242212778Y-124962991D01*
X242183448Y-124998729D01*
X242100186Y-125100186D01*
X241998729Y-125183448D01*
X241962991Y-125212778D01*
X241962989Y-125212779D01*
X241806467Y-125296443D01*
X241749853Y-125313616D01*
X241636627Y-125347963D01*
X241570442Y-125354482D01*
X241504260Y-125361000D01*
X241415740Y-125361000D01*
X241349558Y-125354482D01*
X241283373Y-125347963D01*
X241170147Y-125313616D01*
X241113533Y-125296443D01*
X240957011Y-125212779D01*
X240957009Y-125212778D01*
X240921271Y-125183448D01*
X240819814Y-125100186D01*
X240736552Y-124998729D01*
X240707222Y-124962991D01*
X240697652Y-124945087D01*
X240623557Y-124806467D01*
X240606384Y-124749853D01*
X240572037Y-124636627D01*
X240554641Y-124460000D01*
X240572037Y-124283373D01*
X240623557Y-124113534D01*
X240623557Y-124113533D01*
X240707221Y-123957011D01*
X240707222Y-123957009D01*
X240736552Y-123921271D01*
X240819814Y-123819814D01*
X240921271Y-123736552D01*
X240957009Y-123707222D01*
X240974913Y-123697652D01*
X241113533Y-123623557D01*
X241170147Y-123606384D01*
X241283373Y-123572037D01*
X241349558Y-123565518D01*
X241415740Y-123559000D01*
X241504260Y-123559000D01*
X241570442Y-123565518D01*
X241570442Y-123565518D01*
G37*
G36*
X190901000Y-125361000D02*
X189099000Y-125361000D01*
X189099000Y-123559000D01*
X190901000Y-123559000D01*
X190901000Y-125361000D01*
X190901000Y-125361000D01*
G37*
G36*
X244110442Y-121025518D02*
X244176627Y-121032037D01*
X244289853Y-121066384D01*
X244346467Y-121083557D01*
X244485087Y-121157652D01*
X244502991Y-121167222D01*
X244538729Y-121196552D01*
X244640186Y-121279814D01*
X244723448Y-121381271D01*
X244752778Y-121417009D01*
X244752779Y-121417011D01*
X244836443Y-121573533D01*
X244836443Y-121573534D01*
X244887963Y-121743373D01*
X244905359Y-121920000D01*
X244887963Y-122096627D01*
X244853616Y-122209853D01*
X244836443Y-122266467D01*
X244762348Y-122405087D01*
X244752778Y-122422991D01*
X244723448Y-122458729D01*
X244640186Y-122560186D01*
X244538729Y-122643448D01*
X244502991Y-122672778D01*
X244502989Y-122672779D01*
X244346467Y-122756443D01*
X244289853Y-122773616D01*
X244176627Y-122807963D01*
X244110443Y-122814481D01*
X244044260Y-122821000D01*
X243955740Y-122821000D01*
X243889557Y-122814481D01*
X243823373Y-122807963D01*
X243710147Y-122773616D01*
X243653533Y-122756443D01*
X243497011Y-122672779D01*
X243497009Y-122672778D01*
X243461271Y-122643448D01*
X243359814Y-122560186D01*
X243276552Y-122458729D01*
X243247222Y-122422991D01*
X243237652Y-122405087D01*
X243163557Y-122266467D01*
X243146384Y-122209853D01*
X243112037Y-122096627D01*
X243094641Y-121920000D01*
X243112037Y-121743373D01*
X243163557Y-121573534D01*
X243163557Y-121573533D01*
X243247221Y-121417011D01*
X243247222Y-121417009D01*
X243276552Y-121381271D01*
X243359814Y-121279814D01*
X243461271Y-121196552D01*
X243497009Y-121167222D01*
X243514913Y-121157652D01*
X243653533Y-121083557D01*
X243710147Y-121066384D01*
X243823373Y-121032037D01*
X243889558Y-121025518D01*
X243955740Y-121019000D01*
X244044260Y-121019000D01*
X244110442Y-121025518D01*
X244110442Y-121025518D01*
G37*
G36*
X190901000Y-122821000D02*
X189099000Y-122821000D01*
X189099000Y-121019000D01*
X190901000Y-121019000D01*
X190901000Y-122821000D01*
X190901000Y-122821000D01*
G37*
G36*
X241570442Y-121025518D02*
X241636627Y-121032037D01*
X241749853Y-121066384D01*
X241806467Y-121083557D01*
X241945087Y-121157652D01*
X241962991Y-121167222D01*
X241998729Y-121196552D01*
X242100186Y-121279814D01*
X242183448Y-121381271D01*
X242212778Y-121417009D01*
X242212779Y-121417011D01*
X242296443Y-121573533D01*
X242296443Y-121573534D01*
X242347963Y-121743373D01*
X242365359Y-121920000D01*
X242347963Y-122096627D01*
X242313616Y-122209853D01*
X242296443Y-122266467D01*
X242222348Y-122405087D01*
X242212778Y-122422991D01*
X242183448Y-122458729D01*
X242100186Y-122560186D01*
X241998729Y-122643448D01*
X241962991Y-122672778D01*
X241962989Y-122672779D01*
X241806467Y-122756443D01*
X241749853Y-122773616D01*
X241636627Y-122807963D01*
X241570443Y-122814481D01*
X241504260Y-122821000D01*
X241415740Y-122821000D01*
X241349557Y-122814481D01*
X241283373Y-122807963D01*
X241170147Y-122773616D01*
X241113533Y-122756443D01*
X240957011Y-122672779D01*
X240957009Y-122672778D01*
X240921271Y-122643448D01*
X240819814Y-122560186D01*
X240736552Y-122458729D01*
X240707222Y-122422991D01*
X240697652Y-122405087D01*
X240623557Y-122266467D01*
X240606384Y-122209853D01*
X240572037Y-122096627D01*
X240554641Y-121920000D01*
X240572037Y-121743373D01*
X240623557Y-121573534D01*
X240623557Y-121573533D01*
X240707221Y-121417011D01*
X240707222Y-121417009D01*
X240736552Y-121381271D01*
X240819814Y-121279814D01*
X240921271Y-121196552D01*
X240957009Y-121167222D01*
X240974913Y-121157652D01*
X241113533Y-121083557D01*
X241170147Y-121066384D01*
X241283373Y-121032037D01*
X241349558Y-121025518D01*
X241415740Y-121019000D01*
X241504260Y-121019000D01*
X241570442Y-121025518D01*
X241570442Y-121025518D01*
G37*
G36*
X106650442Y-121025518D02*
X106716627Y-121032037D01*
X106829853Y-121066384D01*
X106886467Y-121083557D01*
X107025087Y-121157652D01*
X107042991Y-121167222D01*
X107078729Y-121196552D01*
X107180186Y-121279814D01*
X107263448Y-121381271D01*
X107292778Y-121417009D01*
X107292779Y-121417011D01*
X107376443Y-121573533D01*
X107376443Y-121573534D01*
X107427963Y-121743373D01*
X107445359Y-121920000D01*
X107427963Y-122096627D01*
X107393616Y-122209853D01*
X107376443Y-122266467D01*
X107302348Y-122405087D01*
X107292778Y-122422991D01*
X107263448Y-122458729D01*
X107180186Y-122560186D01*
X107078729Y-122643448D01*
X107042991Y-122672778D01*
X107042989Y-122672779D01*
X106886467Y-122756443D01*
X106829853Y-122773616D01*
X106716627Y-122807963D01*
X106650443Y-122814481D01*
X106584260Y-122821000D01*
X106495740Y-122821000D01*
X106429557Y-122814481D01*
X106363373Y-122807963D01*
X106250147Y-122773616D01*
X106193533Y-122756443D01*
X106037011Y-122672779D01*
X106037009Y-122672778D01*
X106001271Y-122643448D01*
X105899814Y-122560186D01*
X105816552Y-122458729D01*
X105787222Y-122422991D01*
X105777652Y-122405087D01*
X105703557Y-122266467D01*
X105686384Y-122209853D01*
X105652037Y-122096627D01*
X105634641Y-121920000D01*
X105652037Y-121743373D01*
X105703557Y-121573534D01*
X105703557Y-121573533D01*
X105787221Y-121417011D01*
X105787222Y-121417009D01*
X105816552Y-121381271D01*
X105899814Y-121279814D01*
X106001271Y-121196552D01*
X106037009Y-121167222D01*
X106054913Y-121157652D01*
X106193533Y-121083557D01*
X106250147Y-121066384D01*
X106363373Y-121032037D01*
X106429558Y-121025518D01*
X106495740Y-121019000D01*
X106584260Y-121019000D01*
X106650442Y-121025518D01*
X106650442Y-121025518D01*
G37*
G36*
X104110442Y-121025518D02*
X104176627Y-121032037D01*
X104289853Y-121066384D01*
X104346467Y-121083557D01*
X104485087Y-121157652D01*
X104502991Y-121167222D01*
X104538729Y-121196552D01*
X104640186Y-121279814D01*
X104723448Y-121381271D01*
X104752778Y-121417009D01*
X104752779Y-121417011D01*
X104836443Y-121573533D01*
X104836443Y-121573534D01*
X104887963Y-121743373D01*
X104905359Y-121920000D01*
X104887963Y-122096627D01*
X104853616Y-122209853D01*
X104836443Y-122266467D01*
X104762348Y-122405087D01*
X104752778Y-122422991D01*
X104723448Y-122458729D01*
X104640186Y-122560186D01*
X104538729Y-122643448D01*
X104502991Y-122672778D01*
X104502989Y-122672779D01*
X104346467Y-122756443D01*
X104289853Y-122773616D01*
X104176627Y-122807963D01*
X104110443Y-122814481D01*
X104044260Y-122821000D01*
X103955740Y-122821000D01*
X103889557Y-122814481D01*
X103823373Y-122807963D01*
X103710147Y-122773616D01*
X103653533Y-122756443D01*
X103497011Y-122672779D01*
X103497009Y-122672778D01*
X103461271Y-122643448D01*
X103359814Y-122560186D01*
X103276552Y-122458729D01*
X103247222Y-122422991D01*
X103237652Y-122405087D01*
X103163557Y-122266467D01*
X103146384Y-122209853D01*
X103112037Y-122096627D01*
X103094641Y-121920000D01*
X103112037Y-121743373D01*
X103163557Y-121573534D01*
X103163557Y-121573533D01*
X103247221Y-121417011D01*
X103247222Y-121417009D01*
X103276552Y-121381271D01*
X103359814Y-121279814D01*
X103461271Y-121196552D01*
X103497009Y-121167222D01*
X103514913Y-121157652D01*
X103653533Y-121083557D01*
X103710147Y-121066384D01*
X103823373Y-121032037D01*
X103889558Y-121025518D01*
X103955740Y-121019000D01*
X104044260Y-121019000D01*
X104110442Y-121025518D01*
X104110442Y-121025518D01*
G37*
G36*
X170901000Y-122821000D02*
X169099000Y-122821000D01*
X169099000Y-121019000D01*
X170901000Y-121019000D01*
X170901000Y-122821000D01*
X170901000Y-122821000D01*
G37*
G36*
X170901000Y-120281000D02*
X169099000Y-120281000D01*
X169099000Y-118479000D01*
X170901000Y-118479000D01*
X170901000Y-120281000D01*
X170901000Y-120281000D01*
G37*
G36*
X106650442Y-118485518D02*
X106716627Y-118492037D01*
X106829853Y-118526384D01*
X106886467Y-118543557D01*
X107025087Y-118617652D01*
X107042991Y-118627222D01*
X107078729Y-118656552D01*
X107180186Y-118739814D01*
X107263448Y-118841271D01*
X107292778Y-118877009D01*
X107292779Y-118877011D01*
X107376443Y-119033533D01*
X107376443Y-119033534D01*
X107427963Y-119203373D01*
X107445359Y-119380000D01*
X107427963Y-119556627D01*
X107393616Y-119669853D01*
X107376443Y-119726467D01*
X107302348Y-119865087D01*
X107292778Y-119882991D01*
X107263448Y-119918729D01*
X107180186Y-120020186D01*
X107078729Y-120103448D01*
X107042991Y-120132778D01*
X107042989Y-120132779D01*
X106886467Y-120216443D01*
X106829853Y-120233616D01*
X106716627Y-120267963D01*
X106650442Y-120274482D01*
X106584260Y-120281000D01*
X106495740Y-120281000D01*
X106429558Y-120274482D01*
X106363373Y-120267963D01*
X106250147Y-120233616D01*
X106193533Y-120216443D01*
X106037011Y-120132779D01*
X106037009Y-120132778D01*
X106001271Y-120103448D01*
X105899814Y-120020186D01*
X105816552Y-119918729D01*
X105787222Y-119882991D01*
X105777652Y-119865087D01*
X105703557Y-119726467D01*
X105686384Y-119669853D01*
X105652037Y-119556627D01*
X105634641Y-119380000D01*
X105652037Y-119203373D01*
X105703557Y-119033534D01*
X105703557Y-119033533D01*
X105787221Y-118877011D01*
X105787222Y-118877009D01*
X105816552Y-118841271D01*
X105899814Y-118739814D01*
X106001271Y-118656552D01*
X106037009Y-118627222D01*
X106054913Y-118617652D01*
X106193533Y-118543557D01*
X106250147Y-118526384D01*
X106363373Y-118492037D01*
X106429558Y-118485518D01*
X106495740Y-118479000D01*
X106584260Y-118479000D01*
X106650442Y-118485518D01*
X106650442Y-118485518D01*
G37*
G36*
X104110442Y-118485518D02*
X104176627Y-118492037D01*
X104289853Y-118526384D01*
X104346467Y-118543557D01*
X104485087Y-118617652D01*
X104502991Y-118627222D01*
X104538729Y-118656552D01*
X104640186Y-118739814D01*
X104723448Y-118841271D01*
X104752778Y-118877009D01*
X104752779Y-118877011D01*
X104836443Y-119033533D01*
X104836443Y-119033534D01*
X104887963Y-119203373D01*
X104905359Y-119380000D01*
X104887963Y-119556627D01*
X104853616Y-119669853D01*
X104836443Y-119726467D01*
X104762348Y-119865087D01*
X104752778Y-119882991D01*
X104723448Y-119918729D01*
X104640186Y-120020186D01*
X104538729Y-120103448D01*
X104502991Y-120132778D01*
X104502989Y-120132779D01*
X104346467Y-120216443D01*
X104289853Y-120233616D01*
X104176627Y-120267963D01*
X104110442Y-120274482D01*
X104044260Y-120281000D01*
X103955740Y-120281000D01*
X103889558Y-120274482D01*
X103823373Y-120267963D01*
X103710147Y-120233616D01*
X103653533Y-120216443D01*
X103497011Y-120132779D01*
X103497009Y-120132778D01*
X103461271Y-120103448D01*
X103359814Y-120020186D01*
X103276552Y-119918729D01*
X103247222Y-119882991D01*
X103237652Y-119865087D01*
X103163557Y-119726467D01*
X103146384Y-119669853D01*
X103112037Y-119556627D01*
X103094641Y-119380000D01*
X103112037Y-119203373D01*
X103163557Y-119033534D01*
X103163557Y-119033533D01*
X103247221Y-118877011D01*
X103247222Y-118877009D01*
X103276552Y-118841271D01*
X103359814Y-118739814D01*
X103461271Y-118656552D01*
X103497009Y-118627222D01*
X103514913Y-118617652D01*
X103653533Y-118543557D01*
X103710147Y-118526384D01*
X103823373Y-118492037D01*
X103889558Y-118485518D01*
X103955740Y-118479000D01*
X104044260Y-118479000D01*
X104110442Y-118485518D01*
X104110442Y-118485518D01*
G37*
G36*
X244110442Y-118485518D02*
X244176627Y-118492037D01*
X244289853Y-118526384D01*
X244346467Y-118543557D01*
X244485087Y-118617652D01*
X244502991Y-118627222D01*
X244538729Y-118656552D01*
X244640186Y-118739814D01*
X244723448Y-118841271D01*
X244752778Y-118877009D01*
X244752779Y-118877011D01*
X244836443Y-119033533D01*
X244836443Y-119033534D01*
X244887963Y-119203373D01*
X244905359Y-119380000D01*
X244887963Y-119556627D01*
X244853616Y-119669853D01*
X244836443Y-119726467D01*
X244762348Y-119865087D01*
X244752778Y-119882991D01*
X244723448Y-119918729D01*
X244640186Y-120020186D01*
X244538729Y-120103448D01*
X244502991Y-120132778D01*
X244502989Y-120132779D01*
X244346467Y-120216443D01*
X244289853Y-120233616D01*
X244176627Y-120267963D01*
X244110442Y-120274482D01*
X244044260Y-120281000D01*
X243955740Y-120281000D01*
X243889558Y-120274482D01*
X243823373Y-120267963D01*
X243710147Y-120233616D01*
X243653533Y-120216443D01*
X243497011Y-120132779D01*
X243497009Y-120132778D01*
X243461271Y-120103448D01*
X243359814Y-120020186D01*
X243276552Y-119918729D01*
X243247222Y-119882991D01*
X243237652Y-119865087D01*
X243163557Y-119726467D01*
X243146384Y-119669853D01*
X243112037Y-119556627D01*
X243094641Y-119380000D01*
X243112037Y-119203373D01*
X243163557Y-119033534D01*
X243163557Y-119033533D01*
X243247221Y-118877011D01*
X243247222Y-118877009D01*
X243276552Y-118841271D01*
X243359814Y-118739814D01*
X243461271Y-118656552D01*
X243497009Y-118627222D01*
X243514913Y-118617652D01*
X243653533Y-118543557D01*
X243710147Y-118526384D01*
X243823373Y-118492037D01*
X243889558Y-118485518D01*
X243955740Y-118479000D01*
X244044260Y-118479000D01*
X244110442Y-118485518D01*
X244110442Y-118485518D01*
G37*
G36*
X241570442Y-118485518D02*
X241636627Y-118492037D01*
X241749853Y-118526384D01*
X241806467Y-118543557D01*
X241945087Y-118617652D01*
X241962991Y-118627222D01*
X241998729Y-118656552D01*
X242100186Y-118739814D01*
X242183448Y-118841271D01*
X242212778Y-118877009D01*
X242212779Y-118877011D01*
X242296443Y-119033533D01*
X242296443Y-119033534D01*
X242347963Y-119203373D01*
X242365359Y-119380000D01*
X242347963Y-119556627D01*
X242313616Y-119669853D01*
X242296443Y-119726467D01*
X242222348Y-119865087D01*
X242212778Y-119882991D01*
X242183448Y-119918729D01*
X242100186Y-120020186D01*
X241998729Y-120103448D01*
X241962991Y-120132778D01*
X241962989Y-120132779D01*
X241806467Y-120216443D01*
X241749853Y-120233616D01*
X241636627Y-120267963D01*
X241570442Y-120274482D01*
X241504260Y-120281000D01*
X241415740Y-120281000D01*
X241349558Y-120274482D01*
X241283373Y-120267963D01*
X241170147Y-120233616D01*
X241113533Y-120216443D01*
X240957011Y-120132779D01*
X240957009Y-120132778D01*
X240921271Y-120103448D01*
X240819814Y-120020186D01*
X240736552Y-119918729D01*
X240707222Y-119882991D01*
X240697652Y-119865087D01*
X240623557Y-119726467D01*
X240606384Y-119669853D01*
X240572037Y-119556627D01*
X240554641Y-119380000D01*
X240572037Y-119203373D01*
X240623557Y-119033534D01*
X240623557Y-119033533D01*
X240707221Y-118877011D01*
X240707222Y-118877009D01*
X240736552Y-118841271D01*
X240819814Y-118739814D01*
X240921271Y-118656552D01*
X240957009Y-118627222D01*
X240974913Y-118617652D01*
X241113533Y-118543557D01*
X241170147Y-118526384D01*
X241283373Y-118492037D01*
X241349558Y-118485518D01*
X241415740Y-118479000D01*
X241504260Y-118479000D01*
X241570442Y-118485518D01*
X241570442Y-118485518D01*
G37*
G36*
X190901000Y-120281000D02*
X189099000Y-120281000D01*
X189099000Y-118479000D01*
X190901000Y-118479000D01*
X190901000Y-120281000D01*
X190901000Y-120281000D01*
G37*
G36*
X180841000Y-117741000D02*
X179039000Y-117741000D01*
X179039000Y-115939000D01*
X180841000Y-115939000D01*
X180841000Y-117741000D01*
X180841000Y-117741000D01*
G37*
G36*
X244110442Y-115945518D02*
X244176627Y-115952037D01*
X244289853Y-115986384D01*
X244346467Y-116003557D01*
X244485087Y-116077652D01*
X244502991Y-116087222D01*
X244538729Y-116116552D01*
X244640186Y-116199814D01*
X244723448Y-116301271D01*
X244752778Y-116337009D01*
X244752779Y-116337011D01*
X244836443Y-116493533D01*
X244836443Y-116493534D01*
X244887963Y-116663373D01*
X244905359Y-116840000D01*
X244887963Y-117016627D01*
X244853616Y-117129853D01*
X244836443Y-117186467D01*
X244762348Y-117325087D01*
X244752778Y-117342991D01*
X244723448Y-117378729D01*
X244640186Y-117480186D01*
X244538729Y-117563448D01*
X244502991Y-117592778D01*
X244502989Y-117592779D01*
X244346467Y-117676443D01*
X244289853Y-117693616D01*
X244176627Y-117727963D01*
X244110442Y-117734482D01*
X244044260Y-117741000D01*
X243955740Y-117741000D01*
X243889558Y-117734482D01*
X243823373Y-117727963D01*
X243710147Y-117693616D01*
X243653533Y-117676443D01*
X243497011Y-117592779D01*
X243497009Y-117592778D01*
X243461271Y-117563448D01*
X243359814Y-117480186D01*
X243276552Y-117378729D01*
X243247222Y-117342991D01*
X243237652Y-117325087D01*
X243163557Y-117186467D01*
X243146384Y-117129853D01*
X243112037Y-117016627D01*
X243094641Y-116840000D01*
X243112037Y-116663373D01*
X243163557Y-116493534D01*
X243163557Y-116493533D01*
X243247221Y-116337011D01*
X243247222Y-116337009D01*
X243276552Y-116301271D01*
X243359814Y-116199814D01*
X243461271Y-116116552D01*
X243497009Y-116087222D01*
X243514913Y-116077652D01*
X243653533Y-116003557D01*
X243710147Y-115986384D01*
X243823373Y-115952037D01*
X243889558Y-115945518D01*
X243955740Y-115939000D01*
X244044260Y-115939000D01*
X244110442Y-115945518D01*
X244110442Y-115945518D01*
G37*
G36*
X160901000Y-117741000D02*
X159099000Y-117741000D01*
X159099000Y-115939000D01*
X160901000Y-115939000D01*
X160901000Y-117741000D01*
X160901000Y-117741000D01*
G37*
G36*
X106650442Y-115945518D02*
X106716627Y-115952037D01*
X106829853Y-115986384D01*
X106886467Y-116003557D01*
X107025087Y-116077652D01*
X107042991Y-116087222D01*
X107078729Y-116116552D01*
X107180186Y-116199814D01*
X107263448Y-116301271D01*
X107292778Y-116337009D01*
X107292779Y-116337011D01*
X107376443Y-116493533D01*
X107376443Y-116493534D01*
X107427963Y-116663373D01*
X107445359Y-116840000D01*
X107427963Y-117016627D01*
X107393616Y-117129853D01*
X107376443Y-117186467D01*
X107302348Y-117325087D01*
X107292778Y-117342991D01*
X107263448Y-117378729D01*
X107180186Y-117480186D01*
X107078729Y-117563448D01*
X107042991Y-117592778D01*
X107042989Y-117592779D01*
X106886467Y-117676443D01*
X106829853Y-117693616D01*
X106716627Y-117727963D01*
X106650442Y-117734482D01*
X106584260Y-117741000D01*
X106495740Y-117741000D01*
X106429558Y-117734482D01*
X106363373Y-117727963D01*
X106250147Y-117693616D01*
X106193533Y-117676443D01*
X106037011Y-117592779D01*
X106037009Y-117592778D01*
X106001271Y-117563448D01*
X105899814Y-117480186D01*
X105816552Y-117378729D01*
X105787222Y-117342991D01*
X105777652Y-117325087D01*
X105703557Y-117186467D01*
X105686384Y-117129853D01*
X105652037Y-117016627D01*
X105634641Y-116840000D01*
X105652037Y-116663373D01*
X105703557Y-116493534D01*
X105703557Y-116493533D01*
X105787221Y-116337011D01*
X105787222Y-116337009D01*
X105816552Y-116301271D01*
X105899814Y-116199814D01*
X106001271Y-116116552D01*
X106037009Y-116087222D01*
X106054913Y-116077652D01*
X106193533Y-116003557D01*
X106250147Y-115986384D01*
X106363373Y-115952037D01*
X106429558Y-115945518D01*
X106495740Y-115939000D01*
X106584260Y-115939000D01*
X106650442Y-115945518D01*
X106650442Y-115945518D01*
G37*
G36*
X241570442Y-115945518D02*
X241636627Y-115952037D01*
X241749853Y-115986384D01*
X241806467Y-116003557D01*
X241945087Y-116077652D01*
X241962991Y-116087222D01*
X241998729Y-116116552D01*
X242100186Y-116199814D01*
X242183448Y-116301271D01*
X242212778Y-116337009D01*
X242212779Y-116337011D01*
X242296443Y-116493533D01*
X242296443Y-116493534D01*
X242347963Y-116663373D01*
X242365359Y-116840000D01*
X242347963Y-117016627D01*
X242313616Y-117129853D01*
X242296443Y-117186467D01*
X242222348Y-117325087D01*
X242212778Y-117342991D01*
X242183448Y-117378729D01*
X242100186Y-117480186D01*
X241998729Y-117563448D01*
X241962991Y-117592778D01*
X241962989Y-117592779D01*
X241806467Y-117676443D01*
X241749853Y-117693616D01*
X241636627Y-117727963D01*
X241570442Y-117734482D01*
X241504260Y-117741000D01*
X241415740Y-117741000D01*
X241349558Y-117734482D01*
X241283373Y-117727963D01*
X241170147Y-117693616D01*
X241113533Y-117676443D01*
X240957011Y-117592779D01*
X240957009Y-117592778D01*
X240921271Y-117563448D01*
X240819814Y-117480186D01*
X240736552Y-117378729D01*
X240707222Y-117342991D01*
X240697652Y-117325087D01*
X240623557Y-117186467D01*
X240606384Y-117129853D01*
X240572037Y-117016627D01*
X240554641Y-116840000D01*
X240572037Y-116663373D01*
X240623557Y-116493534D01*
X240623557Y-116493533D01*
X240707221Y-116337011D01*
X240707222Y-116337009D01*
X240736552Y-116301271D01*
X240819814Y-116199814D01*
X240921271Y-116116552D01*
X240957009Y-116087222D01*
X240974913Y-116077652D01*
X241113533Y-116003557D01*
X241170147Y-115986384D01*
X241283373Y-115952037D01*
X241349558Y-115945518D01*
X241415740Y-115939000D01*
X241504260Y-115939000D01*
X241570442Y-115945518D01*
X241570442Y-115945518D01*
G37*
G36*
X104110442Y-115945518D02*
X104176627Y-115952037D01*
X104289853Y-115986384D01*
X104346467Y-116003557D01*
X104485087Y-116077652D01*
X104502991Y-116087222D01*
X104538729Y-116116552D01*
X104640186Y-116199814D01*
X104723448Y-116301271D01*
X104752778Y-116337009D01*
X104752779Y-116337011D01*
X104836443Y-116493533D01*
X104836443Y-116493534D01*
X104887963Y-116663373D01*
X104905359Y-116840000D01*
X104887963Y-117016627D01*
X104853616Y-117129853D01*
X104836443Y-117186467D01*
X104762348Y-117325087D01*
X104752778Y-117342991D01*
X104723448Y-117378729D01*
X104640186Y-117480186D01*
X104538729Y-117563448D01*
X104502991Y-117592778D01*
X104502989Y-117592779D01*
X104346467Y-117676443D01*
X104289853Y-117693616D01*
X104176627Y-117727963D01*
X104110442Y-117734482D01*
X104044260Y-117741000D01*
X103955740Y-117741000D01*
X103889558Y-117734482D01*
X103823373Y-117727963D01*
X103710147Y-117693616D01*
X103653533Y-117676443D01*
X103497011Y-117592779D01*
X103497009Y-117592778D01*
X103461271Y-117563448D01*
X103359814Y-117480186D01*
X103276552Y-117378729D01*
X103247222Y-117342991D01*
X103237652Y-117325087D01*
X103163557Y-117186467D01*
X103146384Y-117129853D01*
X103112037Y-117016627D01*
X103094641Y-116840000D01*
X103112037Y-116663373D01*
X103163557Y-116493534D01*
X103163557Y-116493533D01*
X103247221Y-116337011D01*
X103247222Y-116337009D01*
X103276552Y-116301271D01*
X103359814Y-116199814D01*
X103461271Y-116116552D01*
X103497009Y-116087222D01*
X103514913Y-116077652D01*
X103653533Y-116003557D01*
X103710147Y-115986384D01*
X103823373Y-115952037D01*
X103889558Y-115945518D01*
X103955740Y-115939000D01*
X104044260Y-115939000D01*
X104110442Y-115945518D01*
X104110442Y-115945518D01*
G37*
G36*
X160901000Y-115201000D02*
X159099000Y-115201000D01*
X159099000Y-113399000D01*
X160901000Y-113399000D01*
X160901000Y-115201000D01*
X160901000Y-115201000D01*
G37*
G36*
X241570443Y-113405519D02*
X241636627Y-113412037D01*
X241749853Y-113446384D01*
X241806467Y-113463557D01*
X241945087Y-113537652D01*
X241962991Y-113547222D01*
X241998729Y-113576552D01*
X242100186Y-113659814D01*
X242183448Y-113761271D01*
X242212778Y-113797009D01*
X242212779Y-113797011D01*
X242296443Y-113953533D01*
X242296443Y-113953534D01*
X242347963Y-114123373D01*
X242365359Y-114300000D01*
X242347963Y-114476627D01*
X242313616Y-114589853D01*
X242296443Y-114646467D01*
X242222348Y-114785087D01*
X242212778Y-114802991D01*
X242183448Y-114838729D01*
X242100186Y-114940186D01*
X241998729Y-115023448D01*
X241962991Y-115052778D01*
X241962989Y-115052779D01*
X241806467Y-115136443D01*
X241749853Y-115153616D01*
X241636627Y-115187963D01*
X241570442Y-115194482D01*
X241504260Y-115201000D01*
X241415740Y-115201000D01*
X241349558Y-115194482D01*
X241283373Y-115187963D01*
X241170147Y-115153616D01*
X241113533Y-115136443D01*
X240957011Y-115052779D01*
X240957009Y-115052778D01*
X240921271Y-115023448D01*
X240819814Y-114940186D01*
X240736552Y-114838729D01*
X240707222Y-114802991D01*
X240697652Y-114785087D01*
X240623557Y-114646467D01*
X240606384Y-114589853D01*
X240572037Y-114476627D01*
X240554641Y-114300000D01*
X240572037Y-114123373D01*
X240623557Y-113953534D01*
X240623557Y-113953533D01*
X240707221Y-113797011D01*
X240707222Y-113797009D01*
X240736552Y-113761271D01*
X240819814Y-113659814D01*
X240921271Y-113576552D01*
X240957009Y-113547222D01*
X240974913Y-113537652D01*
X241113533Y-113463557D01*
X241170147Y-113446384D01*
X241283373Y-113412037D01*
X241349557Y-113405519D01*
X241415740Y-113399000D01*
X241504260Y-113399000D01*
X241570443Y-113405519D01*
X241570443Y-113405519D01*
G37*
G36*
X244110443Y-113405519D02*
X244176627Y-113412037D01*
X244289853Y-113446384D01*
X244346467Y-113463557D01*
X244485087Y-113537652D01*
X244502991Y-113547222D01*
X244538729Y-113576552D01*
X244640186Y-113659814D01*
X244723448Y-113761271D01*
X244752778Y-113797009D01*
X244752779Y-113797011D01*
X244836443Y-113953533D01*
X244836443Y-113953534D01*
X244887963Y-114123373D01*
X244905359Y-114300000D01*
X244887963Y-114476627D01*
X244853616Y-114589853D01*
X244836443Y-114646467D01*
X244762348Y-114785087D01*
X244752778Y-114802991D01*
X244723448Y-114838729D01*
X244640186Y-114940186D01*
X244538729Y-115023448D01*
X244502991Y-115052778D01*
X244502989Y-115052779D01*
X244346467Y-115136443D01*
X244289853Y-115153616D01*
X244176627Y-115187963D01*
X244110442Y-115194482D01*
X244044260Y-115201000D01*
X243955740Y-115201000D01*
X243889558Y-115194482D01*
X243823373Y-115187963D01*
X243710147Y-115153616D01*
X243653533Y-115136443D01*
X243497011Y-115052779D01*
X243497009Y-115052778D01*
X243461271Y-115023448D01*
X243359814Y-114940186D01*
X243276552Y-114838729D01*
X243247222Y-114802991D01*
X243237652Y-114785087D01*
X243163557Y-114646467D01*
X243146384Y-114589853D01*
X243112037Y-114476627D01*
X243094641Y-114300000D01*
X243112037Y-114123373D01*
X243163557Y-113953534D01*
X243163557Y-113953533D01*
X243247221Y-113797011D01*
X243247222Y-113797009D01*
X243276552Y-113761271D01*
X243359814Y-113659814D01*
X243461271Y-113576552D01*
X243497009Y-113547222D01*
X243514913Y-113537652D01*
X243653533Y-113463557D01*
X243710147Y-113446384D01*
X243823373Y-113412037D01*
X243889557Y-113405519D01*
X243955740Y-113399000D01*
X244044260Y-113399000D01*
X244110443Y-113405519D01*
X244110443Y-113405519D01*
G37*
G36*
X104110443Y-113405519D02*
X104176627Y-113412037D01*
X104289853Y-113446384D01*
X104346467Y-113463557D01*
X104485087Y-113537652D01*
X104502991Y-113547222D01*
X104538729Y-113576552D01*
X104640186Y-113659814D01*
X104723448Y-113761271D01*
X104752778Y-113797009D01*
X104752779Y-113797011D01*
X104836443Y-113953533D01*
X104836443Y-113953534D01*
X104887963Y-114123373D01*
X104905359Y-114300000D01*
X104887963Y-114476627D01*
X104853616Y-114589853D01*
X104836443Y-114646467D01*
X104762348Y-114785087D01*
X104752778Y-114802991D01*
X104723448Y-114838729D01*
X104640186Y-114940186D01*
X104538729Y-115023448D01*
X104502991Y-115052778D01*
X104502989Y-115052779D01*
X104346467Y-115136443D01*
X104289853Y-115153616D01*
X104176627Y-115187963D01*
X104110442Y-115194482D01*
X104044260Y-115201000D01*
X103955740Y-115201000D01*
X103889558Y-115194482D01*
X103823373Y-115187963D01*
X103710147Y-115153616D01*
X103653533Y-115136443D01*
X103497011Y-115052779D01*
X103497009Y-115052778D01*
X103461271Y-115023448D01*
X103359814Y-114940186D01*
X103276552Y-114838729D01*
X103247222Y-114802991D01*
X103237652Y-114785087D01*
X103163557Y-114646467D01*
X103146384Y-114589853D01*
X103112037Y-114476627D01*
X103094641Y-114300000D01*
X103112037Y-114123373D01*
X103163557Y-113953534D01*
X103163557Y-113953533D01*
X103247221Y-113797011D01*
X103247222Y-113797009D01*
X103276552Y-113761271D01*
X103359814Y-113659814D01*
X103461271Y-113576552D01*
X103497009Y-113547222D01*
X103514913Y-113537652D01*
X103653533Y-113463557D01*
X103710147Y-113446384D01*
X103823373Y-113412037D01*
X103889557Y-113405519D01*
X103955740Y-113399000D01*
X104044260Y-113399000D01*
X104110443Y-113405519D01*
X104110443Y-113405519D01*
G37*
G36*
X106650443Y-113405519D02*
X106716627Y-113412037D01*
X106829853Y-113446384D01*
X106886467Y-113463557D01*
X107025087Y-113537652D01*
X107042991Y-113547222D01*
X107078729Y-113576552D01*
X107180186Y-113659814D01*
X107263448Y-113761271D01*
X107292778Y-113797009D01*
X107292779Y-113797011D01*
X107376443Y-113953533D01*
X107376443Y-113953534D01*
X107427963Y-114123373D01*
X107445359Y-114300000D01*
X107427963Y-114476627D01*
X107393616Y-114589853D01*
X107376443Y-114646467D01*
X107302348Y-114785087D01*
X107292778Y-114802991D01*
X107263448Y-114838729D01*
X107180186Y-114940186D01*
X107078729Y-115023448D01*
X107042991Y-115052778D01*
X107042989Y-115052779D01*
X106886467Y-115136443D01*
X106829853Y-115153616D01*
X106716627Y-115187963D01*
X106650442Y-115194482D01*
X106584260Y-115201000D01*
X106495740Y-115201000D01*
X106429558Y-115194482D01*
X106363373Y-115187963D01*
X106250147Y-115153616D01*
X106193533Y-115136443D01*
X106037011Y-115052779D01*
X106037009Y-115052778D01*
X106001271Y-115023448D01*
X105899814Y-114940186D01*
X105816552Y-114838729D01*
X105787222Y-114802991D01*
X105777652Y-114785087D01*
X105703557Y-114646467D01*
X105686384Y-114589853D01*
X105652037Y-114476627D01*
X105634641Y-114300000D01*
X105652037Y-114123373D01*
X105703557Y-113953534D01*
X105703557Y-113953533D01*
X105787221Y-113797011D01*
X105787222Y-113797009D01*
X105816552Y-113761271D01*
X105899814Y-113659814D01*
X106001271Y-113576552D01*
X106037009Y-113547222D01*
X106054913Y-113537652D01*
X106193533Y-113463557D01*
X106250147Y-113446384D01*
X106363373Y-113412037D01*
X106429557Y-113405519D01*
X106495740Y-113399000D01*
X106584260Y-113399000D01*
X106650443Y-113405519D01*
X106650443Y-113405519D01*
G37*
G36*
X180841000Y-115201000D02*
X179039000Y-115201000D01*
X179039000Y-113399000D01*
X180841000Y-113399000D01*
X180841000Y-115201000D01*
X180841000Y-115201000D01*
G37*
G36*
X160901000Y-112661000D02*
X159099000Y-112661000D01*
X159099000Y-110859000D01*
X160901000Y-110859000D01*
X160901000Y-112661000D01*
X160901000Y-112661000D01*
G37*
G36*
X244110442Y-110865518D02*
X244176627Y-110872037D01*
X244289853Y-110906384D01*
X244346467Y-110923557D01*
X244485087Y-110997652D01*
X244502991Y-111007222D01*
X244538729Y-111036552D01*
X244640186Y-111119814D01*
X244723448Y-111221271D01*
X244752778Y-111257009D01*
X244752779Y-111257011D01*
X244836443Y-111413533D01*
X244836443Y-111413534D01*
X244887963Y-111583373D01*
X244905359Y-111760000D01*
X244887963Y-111936627D01*
X244853616Y-112049853D01*
X244836443Y-112106467D01*
X244762348Y-112245087D01*
X244752778Y-112262991D01*
X244723448Y-112298729D01*
X244640186Y-112400186D01*
X244538729Y-112483448D01*
X244502991Y-112512778D01*
X244502989Y-112512779D01*
X244346467Y-112596443D01*
X244289853Y-112613616D01*
X244176627Y-112647963D01*
X244110442Y-112654482D01*
X244044260Y-112661000D01*
X243955740Y-112661000D01*
X243889558Y-112654482D01*
X243823373Y-112647963D01*
X243710147Y-112613616D01*
X243653533Y-112596443D01*
X243497011Y-112512779D01*
X243497009Y-112512778D01*
X243461271Y-112483448D01*
X243359814Y-112400186D01*
X243276552Y-112298729D01*
X243247222Y-112262991D01*
X243237652Y-112245087D01*
X243163557Y-112106467D01*
X243146384Y-112049853D01*
X243112037Y-111936627D01*
X243094641Y-111760000D01*
X243112037Y-111583373D01*
X243163557Y-111413534D01*
X243163557Y-111413533D01*
X243247221Y-111257011D01*
X243247222Y-111257009D01*
X243276552Y-111221271D01*
X243359814Y-111119814D01*
X243461271Y-111036552D01*
X243497009Y-111007222D01*
X243514913Y-110997652D01*
X243653533Y-110923557D01*
X243710147Y-110906384D01*
X243823373Y-110872037D01*
X243889558Y-110865518D01*
X243955740Y-110859000D01*
X244044260Y-110859000D01*
X244110442Y-110865518D01*
X244110442Y-110865518D01*
G37*
G36*
X180841000Y-112661000D02*
X179039000Y-112661000D01*
X179039000Y-110859000D01*
X180841000Y-110859000D01*
X180841000Y-112661000D01*
X180841000Y-112661000D01*
G37*
G36*
X106650442Y-110865518D02*
X106716627Y-110872037D01*
X106829853Y-110906384D01*
X106886467Y-110923557D01*
X107025087Y-110997652D01*
X107042991Y-111007222D01*
X107078729Y-111036552D01*
X107180186Y-111119814D01*
X107263448Y-111221271D01*
X107292778Y-111257009D01*
X107292779Y-111257011D01*
X107376443Y-111413533D01*
X107376443Y-111413534D01*
X107427963Y-111583373D01*
X107445359Y-111760000D01*
X107427963Y-111936627D01*
X107393616Y-112049853D01*
X107376443Y-112106467D01*
X107302348Y-112245087D01*
X107292778Y-112262991D01*
X107263448Y-112298729D01*
X107180186Y-112400186D01*
X107078729Y-112483448D01*
X107042991Y-112512778D01*
X107042989Y-112512779D01*
X106886467Y-112596443D01*
X106829853Y-112613616D01*
X106716627Y-112647963D01*
X106650442Y-112654482D01*
X106584260Y-112661000D01*
X106495740Y-112661000D01*
X106429558Y-112654482D01*
X106363373Y-112647963D01*
X106250147Y-112613616D01*
X106193533Y-112596443D01*
X106037011Y-112512779D01*
X106037009Y-112512778D01*
X106001271Y-112483448D01*
X105899814Y-112400186D01*
X105816552Y-112298729D01*
X105787222Y-112262991D01*
X105777652Y-112245087D01*
X105703557Y-112106467D01*
X105686384Y-112049853D01*
X105652037Y-111936627D01*
X105634641Y-111760000D01*
X105652037Y-111583373D01*
X105703557Y-111413534D01*
X105703557Y-111413533D01*
X105787221Y-111257011D01*
X105787222Y-111257009D01*
X105816552Y-111221271D01*
X105899814Y-111119814D01*
X106001271Y-111036552D01*
X106037009Y-111007222D01*
X106054913Y-110997652D01*
X106193533Y-110923557D01*
X106250147Y-110906384D01*
X106363373Y-110872037D01*
X106429558Y-110865518D01*
X106495740Y-110859000D01*
X106584260Y-110859000D01*
X106650442Y-110865518D01*
X106650442Y-110865518D01*
G37*
G36*
X104110442Y-110865518D02*
X104176627Y-110872037D01*
X104289853Y-110906384D01*
X104346467Y-110923557D01*
X104485087Y-110997652D01*
X104502991Y-111007222D01*
X104538729Y-111036552D01*
X104640186Y-111119814D01*
X104723448Y-111221271D01*
X104752778Y-111257009D01*
X104752779Y-111257011D01*
X104836443Y-111413533D01*
X104836443Y-111413534D01*
X104887963Y-111583373D01*
X104905359Y-111760000D01*
X104887963Y-111936627D01*
X104853616Y-112049853D01*
X104836443Y-112106467D01*
X104762348Y-112245087D01*
X104752778Y-112262991D01*
X104723448Y-112298729D01*
X104640186Y-112400186D01*
X104538729Y-112483448D01*
X104502991Y-112512778D01*
X104502989Y-112512779D01*
X104346467Y-112596443D01*
X104289853Y-112613616D01*
X104176627Y-112647963D01*
X104110442Y-112654482D01*
X104044260Y-112661000D01*
X103955740Y-112661000D01*
X103889558Y-112654482D01*
X103823373Y-112647963D01*
X103710147Y-112613616D01*
X103653533Y-112596443D01*
X103497011Y-112512779D01*
X103497009Y-112512778D01*
X103461271Y-112483448D01*
X103359814Y-112400186D01*
X103276552Y-112298729D01*
X103247222Y-112262991D01*
X103237652Y-112245087D01*
X103163557Y-112106467D01*
X103146384Y-112049853D01*
X103112037Y-111936627D01*
X103094641Y-111760000D01*
X103112037Y-111583373D01*
X103163557Y-111413534D01*
X103163557Y-111413533D01*
X103247221Y-111257011D01*
X103247222Y-111257009D01*
X103276552Y-111221271D01*
X103359814Y-111119814D01*
X103461271Y-111036552D01*
X103497009Y-111007222D01*
X103514913Y-110997652D01*
X103653533Y-110923557D01*
X103710147Y-110906384D01*
X103823373Y-110872037D01*
X103889558Y-110865518D01*
X103955740Y-110859000D01*
X104044260Y-110859000D01*
X104110442Y-110865518D01*
X104110442Y-110865518D01*
G37*
G36*
X241570442Y-110865518D02*
X241636627Y-110872037D01*
X241749853Y-110906384D01*
X241806467Y-110923557D01*
X241945087Y-110997652D01*
X241962991Y-111007222D01*
X241998729Y-111036552D01*
X242100186Y-111119814D01*
X242183448Y-111221271D01*
X242212778Y-111257009D01*
X242212779Y-111257011D01*
X242296443Y-111413533D01*
X242296443Y-111413534D01*
X242347963Y-111583373D01*
X242365359Y-111760000D01*
X242347963Y-111936627D01*
X242313616Y-112049853D01*
X242296443Y-112106467D01*
X242222348Y-112245087D01*
X242212778Y-112262991D01*
X242183448Y-112298729D01*
X242100186Y-112400186D01*
X241998729Y-112483448D01*
X241962991Y-112512778D01*
X241962989Y-112512779D01*
X241806467Y-112596443D01*
X241749853Y-112613616D01*
X241636627Y-112647963D01*
X241570442Y-112654482D01*
X241504260Y-112661000D01*
X241415740Y-112661000D01*
X241349558Y-112654482D01*
X241283373Y-112647963D01*
X241170147Y-112613616D01*
X241113533Y-112596443D01*
X240957011Y-112512779D01*
X240957009Y-112512778D01*
X240921271Y-112483448D01*
X240819814Y-112400186D01*
X240736552Y-112298729D01*
X240707222Y-112262991D01*
X240697652Y-112245087D01*
X240623557Y-112106467D01*
X240606384Y-112049853D01*
X240572037Y-111936627D01*
X240554641Y-111760000D01*
X240572037Y-111583373D01*
X240623557Y-111413534D01*
X240623557Y-111413533D01*
X240707221Y-111257011D01*
X240707222Y-111257009D01*
X240736552Y-111221271D01*
X240819814Y-111119814D01*
X240921271Y-111036552D01*
X240957009Y-111007222D01*
X240974913Y-110997652D01*
X241113533Y-110923557D01*
X241170147Y-110906384D01*
X241283373Y-110872037D01*
X241349558Y-110865518D01*
X241415740Y-110859000D01*
X241504260Y-110859000D01*
X241570442Y-110865518D01*
X241570442Y-110865518D01*
G37*
G36*
X160901000Y-110121000D02*
X159099000Y-110121000D01*
X159099000Y-108319000D01*
X160901000Y-108319000D01*
X160901000Y-110121000D01*
X160901000Y-110121000D01*
G37*
G36*
X180841000Y-110121000D02*
X179039000Y-110121000D01*
X179039000Y-108319000D01*
X180841000Y-108319000D01*
X180841000Y-110121000D01*
X180841000Y-110121000D01*
G37*
G36*
X241570443Y-108325519D02*
X241636627Y-108332037D01*
X241749853Y-108366384D01*
X241806467Y-108383557D01*
X241945087Y-108457652D01*
X241962991Y-108467222D01*
X241998729Y-108496552D01*
X242100186Y-108579814D01*
X242183448Y-108681271D01*
X242212778Y-108717009D01*
X242212779Y-108717011D01*
X242296443Y-108873533D01*
X242296443Y-108873534D01*
X242347963Y-109043373D01*
X242365359Y-109220000D01*
X242347963Y-109396627D01*
X242313616Y-109509853D01*
X242296443Y-109566467D01*
X242222348Y-109705087D01*
X242212778Y-109722991D01*
X242183448Y-109758729D01*
X242100186Y-109860186D01*
X241998729Y-109943448D01*
X241962991Y-109972778D01*
X241962989Y-109972779D01*
X241806467Y-110056443D01*
X241749853Y-110073616D01*
X241636627Y-110107963D01*
X241570443Y-110114481D01*
X241504260Y-110121000D01*
X241415740Y-110121000D01*
X241349557Y-110114481D01*
X241283373Y-110107963D01*
X241170147Y-110073616D01*
X241113533Y-110056443D01*
X240957011Y-109972779D01*
X240957009Y-109972778D01*
X240921271Y-109943448D01*
X240819814Y-109860186D01*
X240736552Y-109758729D01*
X240707222Y-109722991D01*
X240697652Y-109705087D01*
X240623557Y-109566467D01*
X240606384Y-109509853D01*
X240572037Y-109396627D01*
X240554641Y-109220000D01*
X240572037Y-109043373D01*
X240623557Y-108873534D01*
X240623557Y-108873533D01*
X240707221Y-108717011D01*
X240707222Y-108717009D01*
X240736552Y-108681271D01*
X240819814Y-108579814D01*
X240921271Y-108496552D01*
X240957009Y-108467222D01*
X240974913Y-108457652D01*
X241113533Y-108383557D01*
X241170147Y-108366384D01*
X241283373Y-108332037D01*
X241349557Y-108325519D01*
X241415740Y-108319000D01*
X241504260Y-108319000D01*
X241570443Y-108325519D01*
X241570443Y-108325519D01*
G37*
G36*
X244110443Y-108325519D02*
X244176627Y-108332037D01*
X244289853Y-108366384D01*
X244346467Y-108383557D01*
X244485087Y-108457652D01*
X244502991Y-108467222D01*
X244538729Y-108496552D01*
X244640186Y-108579814D01*
X244723448Y-108681271D01*
X244752778Y-108717009D01*
X244752779Y-108717011D01*
X244836443Y-108873533D01*
X244836443Y-108873534D01*
X244887963Y-109043373D01*
X244905359Y-109220000D01*
X244887963Y-109396627D01*
X244853616Y-109509853D01*
X244836443Y-109566467D01*
X244762348Y-109705087D01*
X244752778Y-109722991D01*
X244723448Y-109758729D01*
X244640186Y-109860186D01*
X244538729Y-109943448D01*
X244502991Y-109972778D01*
X244502989Y-109972779D01*
X244346467Y-110056443D01*
X244289853Y-110073616D01*
X244176627Y-110107963D01*
X244110443Y-110114481D01*
X244044260Y-110121000D01*
X243955740Y-110121000D01*
X243889557Y-110114481D01*
X243823373Y-110107963D01*
X243710147Y-110073616D01*
X243653533Y-110056443D01*
X243497011Y-109972779D01*
X243497009Y-109972778D01*
X243461271Y-109943448D01*
X243359814Y-109860186D01*
X243276552Y-109758729D01*
X243247222Y-109722991D01*
X243237652Y-109705087D01*
X243163557Y-109566467D01*
X243146384Y-109509853D01*
X243112037Y-109396627D01*
X243094641Y-109220000D01*
X243112037Y-109043373D01*
X243163557Y-108873534D01*
X243163557Y-108873533D01*
X243247221Y-108717011D01*
X243247222Y-108717009D01*
X243276552Y-108681271D01*
X243359814Y-108579814D01*
X243461271Y-108496552D01*
X243497009Y-108467222D01*
X243514913Y-108457652D01*
X243653533Y-108383557D01*
X243710147Y-108366384D01*
X243823373Y-108332037D01*
X243889557Y-108325519D01*
X243955740Y-108319000D01*
X244044260Y-108319000D01*
X244110443Y-108325519D01*
X244110443Y-108325519D01*
G37*
G36*
X106650443Y-108325519D02*
X106716627Y-108332037D01*
X106829853Y-108366384D01*
X106886467Y-108383557D01*
X107025087Y-108457652D01*
X107042991Y-108467222D01*
X107078729Y-108496552D01*
X107180186Y-108579814D01*
X107263448Y-108681271D01*
X107292778Y-108717009D01*
X107292779Y-108717011D01*
X107376443Y-108873533D01*
X107376443Y-108873534D01*
X107427963Y-109043373D01*
X107445359Y-109220000D01*
X107427963Y-109396627D01*
X107393616Y-109509853D01*
X107376443Y-109566467D01*
X107302348Y-109705087D01*
X107292778Y-109722991D01*
X107263448Y-109758729D01*
X107180186Y-109860186D01*
X107078729Y-109943448D01*
X107042991Y-109972778D01*
X107042989Y-109972779D01*
X106886467Y-110056443D01*
X106829853Y-110073616D01*
X106716627Y-110107963D01*
X106650443Y-110114481D01*
X106584260Y-110121000D01*
X106495740Y-110121000D01*
X106429557Y-110114481D01*
X106363373Y-110107963D01*
X106250147Y-110073616D01*
X106193533Y-110056443D01*
X106037011Y-109972779D01*
X106037009Y-109972778D01*
X106001271Y-109943448D01*
X105899814Y-109860186D01*
X105816552Y-109758729D01*
X105787222Y-109722991D01*
X105777652Y-109705087D01*
X105703557Y-109566467D01*
X105686384Y-109509853D01*
X105652037Y-109396627D01*
X105634641Y-109220000D01*
X105652037Y-109043373D01*
X105703557Y-108873534D01*
X105703557Y-108873533D01*
X105787221Y-108717011D01*
X105787222Y-108717009D01*
X105816552Y-108681271D01*
X105899814Y-108579814D01*
X106001271Y-108496552D01*
X106037009Y-108467222D01*
X106054913Y-108457652D01*
X106193533Y-108383557D01*
X106250147Y-108366384D01*
X106363373Y-108332037D01*
X106429557Y-108325519D01*
X106495740Y-108319000D01*
X106584260Y-108319000D01*
X106650443Y-108325519D01*
X106650443Y-108325519D01*
G37*
G36*
X104110443Y-108325519D02*
X104176627Y-108332037D01*
X104289853Y-108366384D01*
X104346467Y-108383557D01*
X104485087Y-108457652D01*
X104502991Y-108467222D01*
X104538729Y-108496552D01*
X104640186Y-108579814D01*
X104723448Y-108681271D01*
X104752778Y-108717009D01*
X104752779Y-108717011D01*
X104836443Y-108873533D01*
X104836443Y-108873534D01*
X104887963Y-109043373D01*
X104905359Y-109220000D01*
X104887963Y-109396627D01*
X104853616Y-109509853D01*
X104836443Y-109566467D01*
X104762348Y-109705087D01*
X104752778Y-109722991D01*
X104723448Y-109758729D01*
X104640186Y-109860186D01*
X104538729Y-109943448D01*
X104502991Y-109972778D01*
X104502989Y-109972779D01*
X104346467Y-110056443D01*
X104289853Y-110073616D01*
X104176627Y-110107963D01*
X104110443Y-110114481D01*
X104044260Y-110121000D01*
X103955740Y-110121000D01*
X103889557Y-110114481D01*
X103823373Y-110107963D01*
X103710147Y-110073616D01*
X103653533Y-110056443D01*
X103497011Y-109972779D01*
X103497009Y-109972778D01*
X103461271Y-109943448D01*
X103359814Y-109860186D01*
X103276552Y-109758729D01*
X103247222Y-109722991D01*
X103237652Y-109705087D01*
X103163557Y-109566467D01*
X103146384Y-109509853D01*
X103112037Y-109396627D01*
X103094641Y-109220000D01*
X103112037Y-109043373D01*
X103163557Y-108873534D01*
X103163557Y-108873533D01*
X103247221Y-108717011D01*
X103247222Y-108717009D01*
X103276552Y-108681271D01*
X103359814Y-108579814D01*
X103461271Y-108496552D01*
X103497009Y-108467222D01*
X103514913Y-108457652D01*
X103653533Y-108383557D01*
X103710147Y-108366384D01*
X103823373Y-108332037D01*
X103889557Y-108325519D01*
X103955740Y-108319000D01*
X104044260Y-108319000D01*
X104110443Y-108325519D01*
X104110443Y-108325519D01*
G37*
G36*
X103831312Y-102259523D02*
X104349982Y-102474363D01*
X104816772Y-102786262D01*
X105213738Y-103183228D01*
X105525637Y-103650018D01*
X105740477Y-104168688D01*
X105850000Y-104719298D01*
X105850000Y-105280702D01*
X105740477Y-105831312D01*
X105525637Y-106349982D01*
X105213738Y-106816772D01*
X104816772Y-107213738D01*
X104349982Y-107525637D01*
X103831312Y-107740477D01*
X103280702Y-107850000D01*
X102719298Y-107850000D01*
X102168688Y-107740477D01*
X101650018Y-107525637D01*
X101183228Y-107213738D01*
X100786262Y-106816772D01*
X100474363Y-106349982D01*
X100259523Y-105831312D01*
X100150000Y-105280702D01*
X100150000Y-104719298D01*
X100259523Y-104168688D01*
X100474363Y-103650018D01*
X100786262Y-103183228D01*
X101183228Y-102786262D01*
X101650018Y-102474363D01*
X102168688Y-102259523D01*
X102719298Y-102150000D01*
X103280702Y-102150000D01*
X103831312Y-102259523D01*
X103831312Y-102259523D01*
G37*
G36*
X247831312Y-102259523D02*
X248349982Y-102474363D01*
X248816772Y-102786262D01*
X249213738Y-103183228D01*
X249525637Y-103650018D01*
X249740477Y-104168688D01*
X249850000Y-104719298D01*
X249850000Y-105280702D01*
X249740477Y-105831312D01*
X249525637Y-106349982D01*
X249213738Y-106816772D01*
X248816772Y-107213738D01*
X248349982Y-107525637D01*
X247831312Y-107740477D01*
X247280702Y-107850000D01*
X246719298Y-107850000D01*
X246168688Y-107740477D01*
X245650018Y-107525637D01*
X245183228Y-107213738D01*
X244786262Y-106816772D01*
X244474363Y-106349982D01*
X244259523Y-105831312D01*
X244150000Y-105280702D01*
X244150000Y-104719298D01*
X244259523Y-104168688D01*
X244474363Y-103650018D01*
X244786262Y-103183228D01*
X245183228Y-102786262D01*
X245650018Y-102474363D01*
X246168688Y-102259523D01*
X246719298Y-102150000D01*
X247280702Y-102150000D01*
X247831312Y-102259523D01*
X247831312Y-102259523D01*
G37*
G36*
X221012828Y-103266503D02*
X221167700Y-103330653D01*
X221307081Y-103423785D01*
X221425615Y-103542319D01*
X221518747Y-103681700D01*
X221582897Y-103836572D01*
X221615600Y-104000984D01*
X221615600Y-104168616D01*
X221582897Y-104333028D01*
X221518747Y-104487900D01*
X221425615Y-104627281D01*
X221307081Y-104745815D01*
X221167700Y-104838947D01*
X221012828Y-104903097D01*
X220848416Y-104935800D01*
X220680784Y-104935800D01*
X220516372Y-104903097D01*
X220361500Y-104838947D01*
X220222119Y-104745815D01*
X220103585Y-104627281D01*
X220010453Y-104487900D01*
X219946303Y-104333028D01*
X219913600Y-104168616D01*
X219913600Y-104000984D01*
X219946303Y-103836572D01*
X220010453Y-103681700D01*
X220103585Y-103542319D01*
X220222119Y-103423785D01*
X220361500Y-103330653D01*
X220516372Y-103266503D01*
X220680784Y-103233800D01*
X220848416Y-103233800D01*
X221012828Y-103266503D01*
X221012828Y-103266503D01*
G37*
G36*
X228551421Y-103246113D02*
X228551424Y-103246114D01*
X228551425Y-103246114D01*
X228711839Y-103294775D01*
X228711841Y-103294776D01*
X228711844Y-103294777D01*
X228859678Y-103373795D01*
X228989259Y-103480141D01*
X229095605Y-103609722D01*
X229174623Y-103757556D01*
X229174624Y-103757559D01*
X229174625Y-103757561D01*
X229223286Y-103917975D01*
X229223287Y-103917979D01*
X229239717Y-104084800D01*
X229223287Y-104251621D01*
X229223286Y-104251624D01*
X229223286Y-104251625D01*
X229198593Y-104333028D01*
X229174623Y-104412044D01*
X229095605Y-104559878D01*
X228989259Y-104689459D01*
X228859678Y-104795805D01*
X228711844Y-104874823D01*
X228711841Y-104874824D01*
X228711839Y-104874825D01*
X228551425Y-104923486D01*
X228551424Y-104923486D01*
X228551421Y-104923487D01*
X228426404Y-104935800D01*
X228342796Y-104935800D01*
X228217779Y-104923487D01*
X228217776Y-104923486D01*
X228217775Y-104923486D01*
X228057361Y-104874825D01*
X228057359Y-104874824D01*
X228057356Y-104874823D01*
X227909522Y-104795805D01*
X227779941Y-104689459D01*
X227673595Y-104559878D01*
X227594577Y-104412044D01*
X227570608Y-104333028D01*
X227545914Y-104251625D01*
X227545914Y-104251624D01*
X227545913Y-104251621D01*
X227529483Y-104084800D01*
X227545913Y-103917979D01*
X227545914Y-103917975D01*
X227594575Y-103757561D01*
X227594576Y-103757559D01*
X227594577Y-103757556D01*
X227673595Y-103609722D01*
X227779941Y-103480141D01*
X227909522Y-103373795D01*
X228057356Y-103294777D01*
X228057359Y-103294776D01*
X228057361Y-103294775D01*
X228217775Y-103246114D01*
X228217776Y-103246114D01*
X228217779Y-103246113D01*
X228342796Y-103233800D01*
X228426404Y-103233800D01*
X228551421Y-103246113D01*
X228551421Y-103246113D01*
G37*
G36*
X244110442Y-99885518D02*
X244176627Y-99892037D01*
X244289853Y-99926384D01*
X244346467Y-99943557D01*
X244485087Y-100017652D01*
X244502991Y-100027222D01*
X244538729Y-100056552D01*
X244640186Y-100139814D01*
X244723448Y-100241271D01*
X244752778Y-100277009D01*
X244752779Y-100277011D01*
X244836443Y-100433533D01*
X244836443Y-100433534D01*
X244887963Y-100603373D01*
X244905359Y-100780000D01*
X244887963Y-100956627D01*
X244853616Y-101069853D01*
X244836443Y-101126467D01*
X244762348Y-101265087D01*
X244752778Y-101282991D01*
X244723448Y-101318729D01*
X244640186Y-101420186D01*
X244538729Y-101503448D01*
X244502991Y-101532778D01*
X244502989Y-101532779D01*
X244346467Y-101616443D01*
X244289853Y-101633616D01*
X244176627Y-101667963D01*
X244110443Y-101674481D01*
X244044260Y-101681000D01*
X243955740Y-101681000D01*
X243889557Y-101674481D01*
X243823373Y-101667963D01*
X243710147Y-101633616D01*
X243653533Y-101616443D01*
X243497011Y-101532779D01*
X243497009Y-101532778D01*
X243461271Y-101503448D01*
X243359814Y-101420186D01*
X243276552Y-101318729D01*
X243247222Y-101282991D01*
X243237652Y-101265087D01*
X243163557Y-101126467D01*
X243146384Y-101069853D01*
X243112037Y-100956627D01*
X243094641Y-100780000D01*
X243112037Y-100603373D01*
X243163557Y-100433534D01*
X243163557Y-100433533D01*
X243247221Y-100277011D01*
X243247222Y-100277009D01*
X243276552Y-100241271D01*
X243359814Y-100139814D01*
X243461271Y-100056552D01*
X243497009Y-100027222D01*
X243514913Y-100017652D01*
X243653533Y-99943557D01*
X243710147Y-99926384D01*
X243823373Y-99892037D01*
X243889557Y-99885519D01*
X243955740Y-99879000D01*
X244044260Y-99879000D01*
X244110442Y-99885518D01*
X244110442Y-99885518D01*
G37*
G36*
X190901000Y-101681000D02*
X189099000Y-101681000D01*
X189099000Y-99879000D01*
X190901000Y-99879000D01*
X190901000Y-101681000D01*
X190901000Y-101681000D01*
G37*
G36*
X170901000Y-101681000D02*
X169099000Y-101681000D01*
X169099000Y-99879000D01*
X170901000Y-99879000D01*
X170901000Y-101681000D01*
X170901000Y-101681000D01*
G37*
G36*
X104110442Y-99885518D02*
X104176627Y-99892037D01*
X104289853Y-99926384D01*
X104346467Y-99943557D01*
X104485087Y-100017652D01*
X104502991Y-100027222D01*
X104538729Y-100056552D01*
X104640186Y-100139814D01*
X104723448Y-100241271D01*
X104752778Y-100277009D01*
X104752779Y-100277011D01*
X104836443Y-100433533D01*
X104836443Y-100433534D01*
X104887963Y-100603373D01*
X104905359Y-100780000D01*
X104887963Y-100956627D01*
X104853616Y-101069853D01*
X104836443Y-101126467D01*
X104762348Y-101265087D01*
X104752778Y-101282991D01*
X104723448Y-101318729D01*
X104640186Y-101420186D01*
X104538729Y-101503448D01*
X104502991Y-101532778D01*
X104502989Y-101532779D01*
X104346467Y-101616443D01*
X104289853Y-101633616D01*
X104176627Y-101667963D01*
X104110443Y-101674481D01*
X104044260Y-101681000D01*
X103955740Y-101681000D01*
X103889557Y-101674481D01*
X103823373Y-101667963D01*
X103710147Y-101633616D01*
X103653533Y-101616443D01*
X103497011Y-101532779D01*
X103497009Y-101532778D01*
X103461271Y-101503448D01*
X103359814Y-101420186D01*
X103276552Y-101318729D01*
X103247222Y-101282991D01*
X103237652Y-101265087D01*
X103163557Y-101126467D01*
X103146384Y-101069853D01*
X103112037Y-100956627D01*
X103094641Y-100780000D01*
X103112037Y-100603373D01*
X103163557Y-100433534D01*
X103163557Y-100433533D01*
X103247221Y-100277011D01*
X103247222Y-100277009D01*
X103276552Y-100241271D01*
X103359814Y-100139814D01*
X103461271Y-100056552D01*
X103497009Y-100027222D01*
X103514913Y-100017652D01*
X103653533Y-99943557D01*
X103710147Y-99926384D01*
X103823373Y-99892037D01*
X103889557Y-99885519D01*
X103955740Y-99879000D01*
X104044260Y-99879000D01*
X104110442Y-99885518D01*
X104110442Y-99885518D01*
G37*
G36*
X107441000Y-101681000D02*
X105639000Y-101681000D01*
X105639000Y-99879000D01*
X107441000Y-99879000D01*
X107441000Y-101681000D01*
X107441000Y-101681000D01*
G37*
G36*
X242361000Y-101681000D02*
X240559000Y-101681000D01*
X240559000Y-99879000D01*
X242361000Y-99879000D01*
X242361000Y-101681000D01*
X242361000Y-101681000D01*
G37*
G36*
X241570443Y-97345519D02*
X241636627Y-97352037D01*
X241749853Y-97386384D01*
X241806467Y-97403557D01*
X241945087Y-97477652D01*
X241962991Y-97487222D01*
X241998729Y-97516552D01*
X242100186Y-97599814D01*
X242183448Y-97701271D01*
X242212778Y-97737009D01*
X242212779Y-97737011D01*
X242296443Y-97893533D01*
X242296443Y-97893534D01*
X242347963Y-98063373D01*
X242365359Y-98240000D01*
X242347963Y-98416627D01*
X242313616Y-98529853D01*
X242296443Y-98586467D01*
X242222348Y-98725087D01*
X242212778Y-98742991D01*
X242183448Y-98778729D01*
X242100186Y-98880186D01*
X241998729Y-98963448D01*
X241962991Y-98992778D01*
X241962989Y-98992779D01*
X241806467Y-99076443D01*
X241749853Y-99093616D01*
X241636627Y-99127963D01*
X241570442Y-99134482D01*
X241504260Y-99141000D01*
X241415740Y-99141000D01*
X241349558Y-99134482D01*
X241283373Y-99127963D01*
X241170147Y-99093616D01*
X241113533Y-99076443D01*
X240957011Y-98992779D01*
X240957009Y-98992778D01*
X240921271Y-98963448D01*
X240819814Y-98880186D01*
X240736552Y-98778729D01*
X240707222Y-98742991D01*
X240697652Y-98725087D01*
X240623557Y-98586467D01*
X240606384Y-98529853D01*
X240572037Y-98416627D01*
X240554641Y-98240000D01*
X240572037Y-98063373D01*
X240623557Y-97893534D01*
X240623557Y-97893533D01*
X240707221Y-97737011D01*
X240707222Y-97737009D01*
X240736552Y-97701271D01*
X240819814Y-97599814D01*
X240921271Y-97516552D01*
X240957009Y-97487222D01*
X240974913Y-97477652D01*
X241113533Y-97403557D01*
X241170147Y-97386384D01*
X241283373Y-97352037D01*
X241349558Y-97345518D01*
X241415740Y-97339000D01*
X241504260Y-97339000D01*
X241570443Y-97345519D01*
X241570443Y-97345519D01*
G37*
G36*
X190901000Y-99141000D02*
X189099000Y-99141000D01*
X189099000Y-97339000D01*
X190901000Y-97339000D01*
X190901000Y-99141000D01*
X190901000Y-99141000D01*
G37*
G36*
X170901000Y-99141000D02*
X169099000Y-99141000D01*
X169099000Y-97339000D01*
X170901000Y-97339000D01*
X170901000Y-99141000D01*
X170901000Y-99141000D01*
G37*
G36*
X106650443Y-97345519D02*
X106716627Y-97352037D01*
X106829853Y-97386384D01*
X106886467Y-97403557D01*
X107025087Y-97477652D01*
X107042991Y-97487222D01*
X107078729Y-97516552D01*
X107180186Y-97599814D01*
X107263448Y-97701271D01*
X107292778Y-97737009D01*
X107292779Y-97737011D01*
X107376443Y-97893533D01*
X107376443Y-97893534D01*
X107427963Y-98063373D01*
X107445359Y-98240000D01*
X107427963Y-98416627D01*
X107393616Y-98529853D01*
X107376443Y-98586467D01*
X107302348Y-98725087D01*
X107292778Y-98742991D01*
X107263448Y-98778729D01*
X107180186Y-98880186D01*
X107078729Y-98963448D01*
X107042991Y-98992778D01*
X107042989Y-98992779D01*
X106886467Y-99076443D01*
X106829853Y-99093616D01*
X106716627Y-99127963D01*
X106650442Y-99134482D01*
X106584260Y-99141000D01*
X106495740Y-99141000D01*
X106429558Y-99134482D01*
X106363373Y-99127963D01*
X106250147Y-99093616D01*
X106193533Y-99076443D01*
X106037011Y-98992779D01*
X106037009Y-98992778D01*
X106001271Y-98963448D01*
X105899814Y-98880186D01*
X105816552Y-98778729D01*
X105787222Y-98742991D01*
X105777652Y-98725087D01*
X105703557Y-98586467D01*
X105686384Y-98529853D01*
X105652037Y-98416627D01*
X105634641Y-98240000D01*
X105652037Y-98063373D01*
X105703557Y-97893534D01*
X105703557Y-97893533D01*
X105787221Y-97737011D01*
X105787222Y-97737009D01*
X105816552Y-97701271D01*
X105899814Y-97599814D01*
X106001271Y-97516552D01*
X106037009Y-97487222D01*
X106054913Y-97477652D01*
X106193533Y-97403557D01*
X106250147Y-97386384D01*
X106363373Y-97352037D01*
X106429558Y-97345518D01*
X106495740Y-97339000D01*
X106584260Y-97339000D01*
X106650443Y-97345519D01*
X106650443Y-97345519D01*
G37*
G36*
X244110443Y-97345519D02*
X244176627Y-97352037D01*
X244289853Y-97386384D01*
X244346467Y-97403557D01*
X244485087Y-97477652D01*
X244502991Y-97487222D01*
X244538729Y-97516552D01*
X244640186Y-97599814D01*
X244723448Y-97701271D01*
X244752778Y-97737009D01*
X244752779Y-97737011D01*
X244836443Y-97893533D01*
X244836443Y-97893534D01*
X244887963Y-98063373D01*
X244905359Y-98240000D01*
X244887963Y-98416627D01*
X244853616Y-98529853D01*
X244836443Y-98586467D01*
X244762348Y-98725087D01*
X244752778Y-98742991D01*
X244723448Y-98778729D01*
X244640186Y-98880186D01*
X244538729Y-98963448D01*
X244502991Y-98992778D01*
X244502989Y-98992779D01*
X244346467Y-99076443D01*
X244289853Y-99093616D01*
X244176627Y-99127963D01*
X244110442Y-99134482D01*
X244044260Y-99141000D01*
X243955740Y-99141000D01*
X243889558Y-99134482D01*
X243823373Y-99127963D01*
X243710147Y-99093616D01*
X243653533Y-99076443D01*
X243497011Y-98992779D01*
X243497009Y-98992778D01*
X243461271Y-98963448D01*
X243359814Y-98880186D01*
X243276552Y-98778729D01*
X243247222Y-98742991D01*
X243237652Y-98725087D01*
X243163557Y-98586467D01*
X243146384Y-98529853D01*
X243112037Y-98416627D01*
X243094641Y-98240000D01*
X243112037Y-98063373D01*
X243163557Y-97893534D01*
X243163557Y-97893533D01*
X243247221Y-97737011D01*
X243247222Y-97737009D01*
X243276552Y-97701271D01*
X243359814Y-97599814D01*
X243461271Y-97516552D01*
X243497009Y-97487222D01*
X243514913Y-97477652D01*
X243653533Y-97403557D01*
X243710147Y-97386384D01*
X243823373Y-97352037D01*
X243889558Y-97345518D01*
X243955740Y-97339000D01*
X244044260Y-97339000D01*
X244110443Y-97345519D01*
X244110443Y-97345519D01*
G37*
G36*
X104110443Y-97345519D02*
X104176627Y-97352037D01*
X104289853Y-97386384D01*
X104346467Y-97403557D01*
X104485087Y-97477652D01*
X104502991Y-97487222D01*
X104538729Y-97516552D01*
X104640186Y-97599814D01*
X104723448Y-97701271D01*
X104752778Y-97737009D01*
X104752779Y-97737011D01*
X104836443Y-97893533D01*
X104836443Y-97893534D01*
X104887963Y-98063373D01*
X104905359Y-98240000D01*
X104887963Y-98416627D01*
X104853616Y-98529853D01*
X104836443Y-98586467D01*
X104762348Y-98725087D01*
X104752778Y-98742991D01*
X104723448Y-98778729D01*
X104640186Y-98880186D01*
X104538729Y-98963448D01*
X104502991Y-98992778D01*
X104502989Y-98992779D01*
X104346467Y-99076443D01*
X104289853Y-99093616D01*
X104176627Y-99127963D01*
X104110442Y-99134482D01*
X104044260Y-99141000D01*
X103955740Y-99141000D01*
X103889558Y-99134482D01*
X103823373Y-99127963D01*
X103710147Y-99093616D01*
X103653533Y-99076443D01*
X103497011Y-98992779D01*
X103497009Y-98992778D01*
X103461271Y-98963448D01*
X103359814Y-98880186D01*
X103276552Y-98778729D01*
X103247222Y-98742991D01*
X103237652Y-98725087D01*
X103163557Y-98586467D01*
X103146384Y-98529853D01*
X103112037Y-98416627D01*
X103094641Y-98240000D01*
X103112037Y-98063373D01*
X103163557Y-97893534D01*
X103163557Y-97893533D01*
X103247221Y-97737011D01*
X103247222Y-97737009D01*
X103276552Y-97701271D01*
X103359814Y-97599814D01*
X103461271Y-97516552D01*
X103497009Y-97487222D01*
X103514913Y-97477652D01*
X103653533Y-97403557D01*
X103710147Y-97386384D01*
X103823373Y-97352037D01*
X103889558Y-97345518D01*
X103955740Y-97339000D01*
X104044260Y-97339000D01*
X104110443Y-97345519D01*
X104110443Y-97345519D01*
G37*
G36*
X170901000Y-96601000D02*
X169099000Y-96601000D01*
X169099000Y-94799000D01*
X170901000Y-94799000D01*
X170901000Y-96601000D01*
X170901000Y-96601000D01*
G37*
G36*
X106650443Y-94805519D02*
X106716627Y-94812037D01*
X106829853Y-94846384D01*
X106886467Y-94863557D01*
X107025087Y-94937652D01*
X107042991Y-94947222D01*
X107078729Y-94976552D01*
X107180186Y-95059814D01*
X107263448Y-95161271D01*
X107292778Y-95197009D01*
X107292779Y-95197011D01*
X107376443Y-95353533D01*
X107376443Y-95353534D01*
X107427963Y-95523373D01*
X107445359Y-95700000D01*
X107427963Y-95876627D01*
X107393616Y-95989853D01*
X107376443Y-96046467D01*
X107302348Y-96185087D01*
X107292778Y-96202991D01*
X107263448Y-96238729D01*
X107180186Y-96340186D01*
X107078729Y-96423448D01*
X107042991Y-96452778D01*
X107042989Y-96452779D01*
X106886467Y-96536443D01*
X106829853Y-96553616D01*
X106716627Y-96587963D01*
X106650443Y-96594481D01*
X106584260Y-96601000D01*
X106495740Y-96601000D01*
X106429557Y-96594481D01*
X106363373Y-96587963D01*
X106250147Y-96553616D01*
X106193533Y-96536443D01*
X106037011Y-96452779D01*
X106037009Y-96452778D01*
X106001271Y-96423448D01*
X105899814Y-96340186D01*
X105816552Y-96238729D01*
X105787222Y-96202991D01*
X105777652Y-96185087D01*
X105703557Y-96046467D01*
X105686384Y-95989853D01*
X105652037Y-95876627D01*
X105634641Y-95700000D01*
X105652037Y-95523373D01*
X105703557Y-95353534D01*
X105703557Y-95353533D01*
X105787221Y-95197011D01*
X105787222Y-95197009D01*
X105816552Y-95161271D01*
X105899814Y-95059814D01*
X106001271Y-94976552D01*
X106037009Y-94947222D01*
X106054913Y-94937652D01*
X106193533Y-94863557D01*
X106250147Y-94846384D01*
X106363373Y-94812037D01*
X106429557Y-94805519D01*
X106495740Y-94799000D01*
X106584260Y-94799000D01*
X106650443Y-94805519D01*
X106650443Y-94805519D01*
G37*
G36*
X104110443Y-94805519D02*
X104176627Y-94812037D01*
X104289853Y-94846384D01*
X104346467Y-94863557D01*
X104485087Y-94937652D01*
X104502991Y-94947222D01*
X104538729Y-94976552D01*
X104640186Y-95059814D01*
X104723448Y-95161271D01*
X104752778Y-95197009D01*
X104752779Y-95197011D01*
X104836443Y-95353533D01*
X104836443Y-95353534D01*
X104887963Y-95523373D01*
X104905359Y-95700000D01*
X104887963Y-95876627D01*
X104853616Y-95989853D01*
X104836443Y-96046467D01*
X104762348Y-96185087D01*
X104752778Y-96202991D01*
X104723448Y-96238729D01*
X104640186Y-96340186D01*
X104538729Y-96423448D01*
X104502991Y-96452778D01*
X104502989Y-96452779D01*
X104346467Y-96536443D01*
X104289853Y-96553616D01*
X104176627Y-96587963D01*
X104110443Y-96594481D01*
X104044260Y-96601000D01*
X103955740Y-96601000D01*
X103889557Y-96594481D01*
X103823373Y-96587963D01*
X103710147Y-96553616D01*
X103653533Y-96536443D01*
X103497011Y-96452779D01*
X103497009Y-96452778D01*
X103461271Y-96423448D01*
X103359814Y-96340186D01*
X103276552Y-96238729D01*
X103247222Y-96202991D01*
X103237652Y-96185087D01*
X103163557Y-96046467D01*
X103146384Y-95989853D01*
X103112037Y-95876627D01*
X103094641Y-95700000D01*
X103112037Y-95523373D01*
X103163557Y-95353534D01*
X103163557Y-95353533D01*
X103247221Y-95197011D01*
X103247222Y-95197009D01*
X103276552Y-95161271D01*
X103359814Y-95059814D01*
X103461271Y-94976552D01*
X103497009Y-94947222D01*
X103514913Y-94937652D01*
X103653533Y-94863557D01*
X103710147Y-94846384D01*
X103823373Y-94812037D01*
X103889557Y-94805519D01*
X103955740Y-94799000D01*
X104044260Y-94799000D01*
X104110443Y-94805519D01*
X104110443Y-94805519D01*
G37*
G36*
X190901000Y-96601000D02*
X189099000Y-96601000D01*
X189099000Y-94799000D01*
X190901000Y-94799000D01*
X190901000Y-96601000D01*
X190901000Y-96601000D01*
G37*
G36*
X241570443Y-94805519D02*
X241636627Y-94812037D01*
X241749853Y-94846384D01*
X241806467Y-94863557D01*
X241945087Y-94937652D01*
X241962991Y-94947222D01*
X241998729Y-94976552D01*
X242100186Y-95059814D01*
X242183448Y-95161271D01*
X242212778Y-95197009D01*
X242212779Y-95197011D01*
X242296443Y-95353533D01*
X242296443Y-95353534D01*
X242347963Y-95523373D01*
X242365359Y-95700000D01*
X242347963Y-95876627D01*
X242313616Y-95989853D01*
X242296443Y-96046467D01*
X242222348Y-96185087D01*
X242212778Y-96202991D01*
X242183448Y-96238729D01*
X242100186Y-96340186D01*
X241998729Y-96423448D01*
X241962991Y-96452778D01*
X241962989Y-96452779D01*
X241806467Y-96536443D01*
X241749853Y-96553616D01*
X241636627Y-96587963D01*
X241570443Y-96594481D01*
X241504260Y-96601000D01*
X241415740Y-96601000D01*
X241349557Y-96594481D01*
X241283373Y-96587963D01*
X241170147Y-96553616D01*
X241113533Y-96536443D01*
X240957011Y-96452779D01*
X240957009Y-96452778D01*
X240921271Y-96423448D01*
X240819814Y-96340186D01*
X240736552Y-96238729D01*
X240707222Y-96202991D01*
X240697652Y-96185087D01*
X240623557Y-96046467D01*
X240606384Y-95989853D01*
X240572037Y-95876627D01*
X240554641Y-95700000D01*
X240572037Y-95523373D01*
X240623557Y-95353534D01*
X240623557Y-95353533D01*
X240707221Y-95197011D01*
X240707222Y-95197009D01*
X240736552Y-95161271D01*
X240819814Y-95059814D01*
X240921271Y-94976552D01*
X240957009Y-94947222D01*
X240974913Y-94937652D01*
X241113533Y-94863557D01*
X241170147Y-94846384D01*
X241283373Y-94812037D01*
X241349557Y-94805519D01*
X241415740Y-94799000D01*
X241504260Y-94799000D01*
X241570443Y-94805519D01*
X241570443Y-94805519D01*
G37*
G36*
X244110443Y-94805519D02*
X244176627Y-94812037D01*
X244289853Y-94846384D01*
X244346467Y-94863557D01*
X244485087Y-94937652D01*
X244502991Y-94947222D01*
X244538729Y-94976552D01*
X244640186Y-95059814D01*
X244723448Y-95161271D01*
X244752778Y-95197009D01*
X244752779Y-95197011D01*
X244836443Y-95353533D01*
X244836443Y-95353534D01*
X244887963Y-95523373D01*
X244905359Y-95700000D01*
X244887963Y-95876627D01*
X244853616Y-95989853D01*
X244836443Y-96046467D01*
X244762348Y-96185087D01*
X244752778Y-96202991D01*
X244723448Y-96238729D01*
X244640186Y-96340186D01*
X244538729Y-96423448D01*
X244502991Y-96452778D01*
X244502989Y-96452779D01*
X244346467Y-96536443D01*
X244289853Y-96553616D01*
X244176627Y-96587963D01*
X244110443Y-96594481D01*
X244044260Y-96601000D01*
X243955740Y-96601000D01*
X243889557Y-96594481D01*
X243823373Y-96587963D01*
X243710147Y-96553616D01*
X243653533Y-96536443D01*
X243497011Y-96452779D01*
X243497009Y-96452778D01*
X243461271Y-96423448D01*
X243359814Y-96340186D01*
X243276552Y-96238729D01*
X243247222Y-96202991D01*
X243237652Y-96185087D01*
X243163557Y-96046467D01*
X243146384Y-95989853D01*
X243112037Y-95876627D01*
X243094641Y-95700000D01*
X243112037Y-95523373D01*
X243163557Y-95353534D01*
X243163557Y-95353533D01*
X243247221Y-95197011D01*
X243247222Y-95197009D01*
X243276552Y-95161271D01*
X243359814Y-95059814D01*
X243461271Y-94976552D01*
X243497009Y-94947222D01*
X243514913Y-94937652D01*
X243653533Y-94863557D01*
X243710147Y-94846384D01*
X243823373Y-94812037D01*
X243889557Y-94805519D01*
X243955740Y-94799000D01*
X244044260Y-94799000D01*
X244110443Y-94805519D01*
X244110443Y-94805519D01*
G37*
G36*
X106650442Y-92265518D02*
X106716627Y-92272037D01*
X106829853Y-92306384D01*
X106886467Y-92323557D01*
X107025087Y-92397652D01*
X107042991Y-92407222D01*
X107078729Y-92436552D01*
X107180186Y-92519814D01*
X107263448Y-92621271D01*
X107292778Y-92657009D01*
X107292779Y-92657011D01*
X107376443Y-92813533D01*
X107376443Y-92813534D01*
X107427963Y-92983373D01*
X107445359Y-93160000D01*
X107427963Y-93336627D01*
X107393616Y-93449853D01*
X107376443Y-93506467D01*
X107302348Y-93645087D01*
X107292778Y-93662991D01*
X107263448Y-93698729D01*
X107180186Y-93800186D01*
X107078729Y-93883448D01*
X107042991Y-93912778D01*
X107042989Y-93912779D01*
X106886467Y-93996443D01*
X106829853Y-94013616D01*
X106716627Y-94047963D01*
X106650442Y-94054482D01*
X106584260Y-94061000D01*
X106495740Y-94061000D01*
X106429558Y-94054482D01*
X106363373Y-94047963D01*
X106250147Y-94013616D01*
X106193533Y-93996443D01*
X106037011Y-93912779D01*
X106037009Y-93912778D01*
X106001271Y-93883448D01*
X105899814Y-93800186D01*
X105816552Y-93698729D01*
X105787222Y-93662991D01*
X105777652Y-93645087D01*
X105703557Y-93506467D01*
X105686384Y-93449853D01*
X105652037Y-93336627D01*
X105634641Y-93160000D01*
X105652037Y-92983373D01*
X105703557Y-92813534D01*
X105703557Y-92813533D01*
X105787221Y-92657011D01*
X105787222Y-92657009D01*
X105816552Y-92621271D01*
X105899814Y-92519814D01*
X106001271Y-92436552D01*
X106037009Y-92407222D01*
X106054913Y-92397652D01*
X106193533Y-92323557D01*
X106250147Y-92306384D01*
X106363373Y-92272037D01*
X106429558Y-92265518D01*
X106495740Y-92259000D01*
X106584260Y-92259000D01*
X106650442Y-92265518D01*
X106650442Y-92265518D01*
G37*
G36*
X170901000Y-94061000D02*
X169099000Y-94061000D01*
X169099000Y-92259000D01*
X170901000Y-92259000D01*
X170901000Y-94061000D01*
X170901000Y-94061000D01*
G37*
G36*
X190901000Y-94061000D02*
X189099000Y-94061000D01*
X189099000Y-92259000D01*
X190901000Y-92259000D01*
X190901000Y-94061000D01*
X190901000Y-94061000D01*
G37*
G36*
X244110442Y-92265518D02*
X244176627Y-92272037D01*
X244289853Y-92306384D01*
X244346467Y-92323557D01*
X244485087Y-92397652D01*
X244502991Y-92407222D01*
X244538729Y-92436552D01*
X244640186Y-92519814D01*
X244723448Y-92621271D01*
X244752778Y-92657009D01*
X244752779Y-92657011D01*
X244836443Y-92813533D01*
X244836443Y-92813534D01*
X244887963Y-92983373D01*
X244905359Y-93160000D01*
X244887963Y-93336627D01*
X244853616Y-93449853D01*
X244836443Y-93506467D01*
X244762348Y-93645087D01*
X244752778Y-93662991D01*
X244723448Y-93698729D01*
X244640186Y-93800186D01*
X244538729Y-93883448D01*
X244502991Y-93912778D01*
X244502989Y-93912779D01*
X244346467Y-93996443D01*
X244289853Y-94013616D01*
X244176627Y-94047963D01*
X244110443Y-94054481D01*
X244044260Y-94061000D01*
X243955740Y-94061000D01*
X243889558Y-94054482D01*
X243823373Y-94047963D01*
X243710147Y-94013616D01*
X243653533Y-93996443D01*
X243497011Y-93912779D01*
X243497009Y-93912778D01*
X243461271Y-93883448D01*
X243359814Y-93800186D01*
X243276552Y-93698729D01*
X243247222Y-93662991D01*
X243237652Y-93645087D01*
X243163557Y-93506467D01*
X243146384Y-93449853D01*
X243112037Y-93336627D01*
X243094641Y-93160000D01*
X243112037Y-92983373D01*
X243163557Y-92813534D01*
X243163557Y-92813533D01*
X243247221Y-92657011D01*
X243247222Y-92657009D01*
X243276552Y-92621271D01*
X243359814Y-92519814D01*
X243461271Y-92436552D01*
X243497009Y-92407222D01*
X243514913Y-92397652D01*
X243653533Y-92323557D01*
X243710147Y-92306384D01*
X243823373Y-92272037D01*
X243889558Y-92265518D01*
X243955740Y-92259000D01*
X244044260Y-92259000D01*
X244110442Y-92265518D01*
X244110442Y-92265518D01*
G37*
G36*
X104110442Y-92265518D02*
X104176627Y-92272037D01*
X104289853Y-92306384D01*
X104346467Y-92323557D01*
X104485087Y-92397652D01*
X104502991Y-92407222D01*
X104538729Y-92436552D01*
X104640186Y-92519814D01*
X104723448Y-92621271D01*
X104752778Y-92657009D01*
X104752779Y-92657011D01*
X104836443Y-92813533D01*
X104836443Y-92813534D01*
X104887963Y-92983373D01*
X104905359Y-93160000D01*
X104887963Y-93336627D01*
X104853616Y-93449853D01*
X104836443Y-93506467D01*
X104762348Y-93645087D01*
X104752778Y-93662991D01*
X104723448Y-93698729D01*
X104640186Y-93800186D01*
X104538729Y-93883448D01*
X104502991Y-93912778D01*
X104502989Y-93912779D01*
X104346467Y-93996443D01*
X104289853Y-94013616D01*
X104176627Y-94047963D01*
X104110442Y-94054482D01*
X104044260Y-94061000D01*
X103955740Y-94061000D01*
X103889558Y-94054482D01*
X103823373Y-94047963D01*
X103710147Y-94013616D01*
X103653533Y-93996443D01*
X103497011Y-93912779D01*
X103497009Y-93912778D01*
X103461271Y-93883448D01*
X103359814Y-93800186D01*
X103276552Y-93698729D01*
X103247222Y-93662991D01*
X103237652Y-93645087D01*
X103163557Y-93506467D01*
X103146384Y-93449853D01*
X103112037Y-93336627D01*
X103094641Y-93160000D01*
X103112037Y-92983373D01*
X103163557Y-92813534D01*
X103163557Y-92813533D01*
X103247221Y-92657011D01*
X103247222Y-92657009D01*
X103276552Y-92621271D01*
X103359814Y-92519814D01*
X103461271Y-92436552D01*
X103497009Y-92407222D01*
X103514913Y-92397652D01*
X103653533Y-92323557D01*
X103710147Y-92306384D01*
X103823373Y-92272037D01*
X103889558Y-92265518D01*
X103955740Y-92259000D01*
X104044260Y-92259000D01*
X104110442Y-92265518D01*
X104110442Y-92265518D01*
G37*
G36*
X241570442Y-92265518D02*
X241636627Y-92272037D01*
X241749853Y-92306384D01*
X241806467Y-92323557D01*
X241945087Y-92397652D01*
X241962991Y-92407222D01*
X241998729Y-92436552D01*
X242100186Y-92519814D01*
X242183448Y-92621271D01*
X242212778Y-92657009D01*
X242212779Y-92657011D01*
X242296443Y-92813533D01*
X242296443Y-92813534D01*
X242347963Y-92983373D01*
X242365359Y-93160000D01*
X242347963Y-93336627D01*
X242313616Y-93449853D01*
X242296443Y-93506467D01*
X242222348Y-93645087D01*
X242212778Y-93662991D01*
X242183448Y-93698729D01*
X242100186Y-93800186D01*
X241998729Y-93883448D01*
X241962991Y-93912778D01*
X241962989Y-93912779D01*
X241806467Y-93996443D01*
X241749853Y-94013616D01*
X241636627Y-94047963D01*
X241570443Y-94054481D01*
X241504260Y-94061000D01*
X241415740Y-94061000D01*
X241349558Y-94054482D01*
X241283373Y-94047963D01*
X241170147Y-94013616D01*
X241113533Y-93996443D01*
X240957011Y-93912779D01*
X240957009Y-93912778D01*
X240921271Y-93883448D01*
X240819814Y-93800186D01*
X240736552Y-93698729D01*
X240707222Y-93662991D01*
X240697652Y-93645087D01*
X240623557Y-93506467D01*
X240606384Y-93449853D01*
X240572037Y-93336627D01*
X240554641Y-93160000D01*
X240572037Y-92983373D01*
X240623557Y-92813534D01*
X240623557Y-92813533D01*
X240707221Y-92657011D01*
X240707222Y-92657009D01*
X240736552Y-92621271D01*
X240819814Y-92519814D01*
X240921271Y-92436552D01*
X240957009Y-92407222D01*
X240974913Y-92397652D01*
X241113533Y-92323557D01*
X241170147Y-92306384D01*
X241283373Y-92272037D01*
X241349558Y-92265518D01*
X241415740Y-92259000D01*
X241504260Y-92259000D01*
X241570442Y-92265518D01*
X241570442Y-92265518D01*
G37*
G36*
X104110442Y-89725518D02*
X104176627Y-89732037D01*
X104289853Y-89766384D01*
X104346467Y-89783557D01*
X104485087Y-89857652D01*
X104502991Y-89867222D01*
X104538729Y-89896552D01*
X104640186Y-89979814D01*
X104723448Y-90081271D01*
X104752778Y-90117009D01*
X104752779Y-90117011D01*
X104836443Y-90273533D01*
X104836443Y-90273534D01*
X104887963Y-90443373D01*
X104905359Y-90620000D01*
X104887963Y-90796627D01*
X104853616Y-90909853D01*
X104836443Y-90966467D01*
X104762348Y-91105087D01*
X104752778Y-91122991D01*
X104723448Y-91158729D01*
X104640186Y-91260186D01*
X104538729Y-91343448D01*
X104502991Y-91372778D01*
X104502989Y-91372779D01*
X104346467Y-91456443D01*
X104289853Y-91473616D01*
X104176627Y-91507963D01*
X104110442Y-91514482D01*
X104044260Y-91521000D01*
X103955740Y-91521000D01*
X103889558Y-91514482D01*
X103823373Y-91507963D01*
X103710147Y-91473616D01*
X103653533Y-91456443D01*
X103497011Y-91372779D01*
X103497009Y-91372778D01*
X103461271Y-91343448D01*
X103359814Y-91260186D01*
X103276552Y-91158729D01*
X103247222Y-91122991D01*
X103237652Y-91105087D01*
X103163557Y-90966467D01*
X103146384Y-90909853D01*
X103112037Y-90796627D01*
X103094641Y-90620000D01*
X103112037Y-90443373D01*
X103163557Y-90273534D01*
X103163557Y-90273533D01*
X103247221Y-90117011D01*
X103247222Y-90117009D01*
X103276552Y-90081271D01*
X103359814Y-89979814D01*
X103461271Y-89896552D01*
X103497009Y-89867222D01*
X103514913Y-89857652D01*
X103653533Y-89783557D01*
X103710147Y-89766384D01*
X103823373Y-89732037D01*
X103889558Y-89725518D01*
X103955740Y-89719000D01*
X104044260Y-89719000D01*
X104110442Y-89725518D01*
X104110442Y-89725518D01*
G37*
G36*
X106650442Y-89725518D02*
X106716627Y-89732037D01*
X106829853Y-89766384D01*
X106886467Y-89783557D01*
X107025087Y-89857652D01*
X107042991Y-89867222D01*
X107078729Y-89896552D01*
X107180186Y-89979814D01*
X107263448Y-90081271D01*
X107292778Y-90117009D01*
X107292779Y-90117011D01*
X107376443Y-90273533D01*
X107376443Y-90273534D01*
X107427963Y-90443373D01*
X107445359Y-90620000D01*
X107427963Y-90796627D01*
X107393616Y-90909853D01*
X107376443Y-90966467D01*
X107302348Y-91105087D01*
X107292778Y-91122991D01*
X107263448Y-91158729D01*
X107180186Y-91260186D01*
X107078729Y-91343448D01*
X107042991Y-91372778D01*
X107042989Y-91372779D01*
X106886467Y-91456443D01*
X106829853Y-91473616D01*
X106716627Y-91507963D01*
X106650442Y-91514482D01*
X106584260Y-91521000D01*
X106495740Y-91521000D01*
X106429558Y-91514482D01*
X106363373Y-91507963D01*
X106250147Y-91473616D01*
X106193533Y-91456443D01*
X106037011Y-91372779D01*
X106037009Y-91372778D01*
X106001271Y-91343448D01*
X105899814Y-91260186D01*
X105816552Y-91158729D01*
X105787222Y-91122991D01*
X105777652Y-91105087D01*
X105703557Y-90966467D01*
X105686384Y-90909853D01*
X105652037Y-90796627D01*
X105634641Y-90620000D01*
X105652037Y-90443373D01*
X105703557Y-90273534D01*
X105703557Y-90273533D01*
X105787221Y-90117011D01*
X105787222Y-90117009D01*
X105816552Y-90081271D01*
X105899814Y-89979814D01*
X106001271Y-89896552D01*
X106037009Y-89867222D01*
X106054913Y-89857652D01*
X106193533Y-89783557D01*
X106250147Y-89766384D01*
X106363373Y-89732037D01*
X106429558Y-89725518D01*
X106495740Y-89719000D01*
X106584260Y-89719000D01*
X106650442Y-89725518D01*
X106650442Y-89725518D01*
G37*
G36*
X241570442Y-89725518D02*
X241636627Y-89732037D01*
X241749853Y-89766384D01*
X241806467Y-89783557D01*
X241945087Y-89857652D01*
X241962991Y-89867222D01*
X241998729Y-89896552D01*
X242100186Y-89979814D01*
X242183448Y-90081271D01*
X242212778Y-90117009D01*
X242212779Y-90117011D01*
X242296443Y-90273533D01*
X242296443Y-90273534D01*
X242347963Y-90443373D01*
X242365359Y-90620000D01*
X242347963Y-90796627D01*
X242313616Y-90909853D01*
X242296443Y-90966467D01*
X242222348Y-91105087D01*
X242212778Y-91122991D01*
X242183448Y-91158729D01*
X242100186Y-91260186D01*
X241998729Y-91343448D01*
X241962991Y-91372778D01*
X241962989Y-91372779D01*
X241806467Y-91456443D01*
X241749853Y-91473616D01*
X241636627Y-91507963D01*
X241570442Y-91514482D01*
X241504260Y-91521000D01*
X241415740Y-91521000D01*
X241349558Y-91514482D01*
X241283373Y-91507963D01*
X241170147Y-91473616D01*
X241113533Y-91456443D01*
X240957011Y-91372779D01*
X240957009Y-91372778D01*
X240921271Y-91343448D01*
X240819814Y-91260186D01*
X240736552Y-91158729D01*
X240707222Y-91122991D01*
X240697652Y-91105087D01*
X240623557Y-90966467D01*
X240606384Y-90909853D01*
X240572037Y-90796627D01*
X240554641Y-90620000D01*
X240572037Y-90443373D01*
X240623557Y-90273534D01*
X240623557Y-90273533D01*
X240707221Y-90117011D01*
X240707222Y-90117009D01*
X240736552Y-90081271D01*
X240819814Y-89979814D01*
X240921271Y-89896552D01*
X240957009Y-89867222D01*
X240974913Y-89857652D01*
X241113533Y-89783557D01*
X241170147Y-89766384D01*
X241283373Y-89732037D01*
X241349558Y-89725518D01*
X241415740Y-89719000D01*
X241504260Y-89719000D01*
X241570442Y-89725518D01*
X241570442Y-89725518D01*
G37*
G36*
X244110442Y-89725518D02*
X244176627Y-89732037D01*
X244289853Y-89766384D01*
X244346467Y-89783557D01*
X244485087Y-89857652D01*
X244502991Y-89867222D01*
X244538729Y-89896552D01*
X244640186Y-89979814D01*
X244723448Y-90081271D01*
X244752778Y-90117009D01*
X244752779Y-90117011D01*
X244836443Y-90273533D01*
X244836443Y-90273534D01*
X244887963Y-90443373D01*
X244905359Y-90620000D01*
X244887963Y-90796627D01*
X244853616Y-90909853D01*
X244836443Y-90966467D01*
X244762348Y-91105087D01*
X244752778Y-91122991D01*
X244723448Y-91158729D01*
X244640186Y-91260186D01*
X244538729Y-91343448D01*
X244502991Y-91372778D01*
X244502989Y-91372779D01*
X244346467Y-91456443D01*
X244289853Y-91473616D01*
X244176627Y-91507963D01*
X244110442Y-91514482D01*
X244044260Y-91521000D01*
X243955740Y-91521000D01*
X243889558Y-91514482D01*
X243823373Y-91507963D01*
X243710147Y-91473616D01*
X243653533Y-91456443D01*
X243497011Y-91372779D01*
X243497009Y-91372778D01*
X243461271Y-91343448D01*
X243359814Y-91260186D01*
X243276552Y-91158729D01*
X243247222Y-91122991D01*
X243237652Y-91105087D01*
X243163557Y-90966467D01*
X243146384Y-90909853D01*
X243112037Y-90796627D01*
X243094641Y-90620000D01*
X243112037Y-90443373D01*
X243163557Y-90273534D01*
X243163557Y-90273533D01*
X243247221Y-90117011D01*
X243247222Y-90117009D01*
X243276552Y-90081271D01*
X243359814Y-89979814D01*
X243461271Y-89896552D01*
X243497009Y-89867222D01*
X243514913Y-89857652D01*
X243653533Y-89783557D01*
X243710147Y-89766384D01*
X243823373Y-89732037D01*
X243889558Y-89725518D01*
X243955740Y-89719000D01*
X244044260Y-89719000D01*
X244110442Y-89725518D01*
X244110442Y-89725518D01*
G37*
G36*
X180901000Y-91521000D02*
X179099000Y-91521000D01*
X179099000Y-89719000D01*
X180901000Y-89719000D01*
X180901000Y-91521000D01*
X180901000Y-91521000D01*
G37*
G36*
X160901000Y-91521000D02*
X159099000Y-91521000D01*
X159099000Y-89719000D01*
X160901000Y-89719000D01*
X160901000Y-91521000D01*
X160901000Y-91521000D01*
G37*
G36*
X160901000Y-88981000D02*
X159099000Y-88981000D01*
X159099000Y-87179000D01*
X160901000Y-87179000D01*
X160901000Y-88981000D01*
X160901000Y-88981000D01*
G37*
G36*
X244110443Y-87185519D02*
X244176627Y-87192037D01*
X244289853Y-87226384D01*
X244346467Y-87243557D01*
X244485087Y-87317652D01*
X244502991Y-87327222D01*
X244538729Y-87356552D01*
X244640186Y-87439814D01*
X244723448Y-87541271D01*
X244752778Y-87577009D01*
X244752779Y-87577011D01*
X244836443Y-87733533D01*
X244836443Y-87733534D01*
X244887963Y-87903373D01*
X244905359Y-88080000D01*
X244887963Y-88256627D01*
X244853616Y-88369853D01*
X244836443Y-88426467D01*
X244762348Y-88565087D01*
X244752778Y-88582991D01*
X244723448Y-88618729D01*
X244640186Y-88720186D01*
X244538729Y-88803448D01*
X244502991Y-88832778D01*
X244502989Y-88832779D01*
X244346467Y-88916443D01*
X244289853Y-88933616D01*
X244176627Y-88967963D01*
X244110443Y-88974481D01*
X244044260Y-88981000D01*
X243955740Y-88981000D01*
X243889558Y-88974482D01*
X243823373Y-88967963D01*
X243710147Y-88933616D01*
X243653533Y-88916443D01*
X243497011Y-88832779D01*
X243497009Y-88832778D01*
X243461271Y-88803448D01*
X243359814Y-88720186D01*
X243276552Y-88618729D01*
X243247222Y-88582991D01*
X243237652Y-88565087D01*
X243163557Y-88426467D01*
X243146384Y-88369853D01*
X243112037Y-88256627D01*
X243094641Y-88080000D01*
X243112037Y-87903373D01*
X243163557Y-87733534D01*
X243163557Y-87733533D01*
X243247221Y-87577011D01*
X243247222Y-87577009D01*
X243276552Y-87541271D01*
X243359814Y-87439814D01*
X243461271Y-87356552D01*
X243497009Y-87327222D01*
X243514913Y-87317652D01*
X243653533Y-87243557D01*
X243710147Y-87226384D01*
X243823373Y-87192037D01*
X243889557Y-87185519D01*
X243955740Y-87179000D01*
X244044260Y-87179000D01*
X244110443Y-87185519D01*
X244110443Y-87185519D01*
G37*
G36*
X180901000Y-88981000D02*
X179099000Y-88981000D01*
X179099000Y-87179000D01*
X180901000Y-87179000D01*
X180901000Y-88981000D01*
X180901000Y-88981000D01*
G37*
G36*
X106650443Y-87185519D02*
X106716627Y-87192037D01*
X106829853Y-87226384D01*
X106886467Y-87243557D01*
X107025087Y-87317652D01*
X107042991Y-87327222D01*
X107078729Y-87356552D01*
X107180186Y-87439814D01*
X107263448Y-87541271D01*
X107292778Y-87577009D01*
X107292779Y-87577011D01*
X107376443Y-87733533D01*
X107376443Y-87733534D01*
X107427963Y-87903373D01*
X107445359Y-88080000D01*
X107427963Y-88256627D01*
X107393616Y-88369853D01*
X107376443Y-88426467D01*
X107302348Y-88565087D01*
X107292778Y-88582991D01*
X107263448Y-88618729D01*
X107180186Y-88720186D01*
X107078729Y-88803448D01*
X107042991Y-88832778D01*
X107042989Y-88832779D01*
X106886467Y-88916443D01*
X106829853Y-88933616D01*
X106716627Y-88967963D01*
X106650442Y-88974482D01*
X106584260Y-88981000D01*
X106495740Y-88981000D01*
X106429558Y-88974482D01*
X106363373Y-88967963D01*
X106250147Y-88933616D01*
X106193533Y-88916443D01*
X106037011Y-88832779D01*
X106037009Y-88832778D01*
X106001271Y-88803448D01*
X105899814Y-88720186D01*
X105816552Y-88618729D01*
X105787222Y-88582991D01*
X105777652Y-88565087D01*
X105703557Y-88426467D01*
X105686384Y-88369853D01*
X105652037Y-88256627D01*
X105634641Y-88080000D01*
X105652037Y-87903373D01*
X105703557Y-87733534D01*
X105703557Y-87733533D01*
X105787221Y-87577011D01*
X105787222Y-87577009D01*
X105816552Y-87541271D01*
X105899814Y-87439814D01*
X106001271Y-87356552D01*
X106037009Y-87327222D01*
X106054913Y-87317652D01*
X106193533Y-87243557D01*
X106250147Y-87226384D01*
X106363373Y-87192037D01*
X106429557Y-87185519D01*
X106495740Y-87179000D01*
X106584260Y-87179000D01*
X106650443Y-87185519D01*
X106650443Y-87185519D01*
G37*
G36*
X241570443Y-87185519D02*
X241636627Y-87192037D01*
X241749853Y-87226384D01*
X241806467Y-87243557D01*
X241945087Y-87317652D01*
X241962991Y-87327222D01*
X241998729Y-87356552D01*
X242100186Y-87439814D01*
X242183448Y-87541271D01*
X242212778Y-87577009D01*
X242212779Y-87577011D01*
X242296443Y-87733533D01*
X242296443Y-87733534D01*
X242347963Y-87903373D01*
X242365359Y-88080000D01*
X242347963Y-88256627D01*
X242313616Y-88369853D01*
X242296443Y-88426467D01*
X242222348Y-88565087D01*
X242212778Y-88582991D01*
X242183448Y-88618729D01*
X242100186Y-88720186D01*
X241998729Y-88803448D01*
X241962991Y-88832778D01*
X241962989Y-88832779D01*
X241806467Y-88916443D01*
X241749853Y-88933616D01*
X241636627Y-88967963D01*
X241570443Y-88974481D01*
X241504260Y-88981000D01*
X241415740Y-88981000D01*
X241349558Y-88974482D01*
X241283373Y-88967963D01*
X241170147Y-88933616D01*
X241113533Y-88916443D01*
X240957011Y-88832779D01*
X240957009Y-88832778D01*
X240921271Y-88803448D01*
X240819814Y-88720186D01*
X240736552Y-88618729D01*
X240707222Y-88582991D01*
X240697652Y-88565087D01*
X240623557Y-88426467D01*
X240606384Y-88369853D01*
X240572037Y-88256627D01*
X240554641Y-88080000D01*
X240572037Y-87903373D01*
X240623557Y-87733534D01*
X240623557Y-87733533D01*
X240707221Y-87577011D01*
X240707222Y-87577009D01*
X240736552Y-87541271D01*
X240819814Y-87439814D01*
X240921271Y-87356552D01*
X240957009Y-87327222D01*
X240974913Y-87317652D01*
X241113533Y-87243557D01*
X241170147Y-87226384D01*
X241283373Y-87192037D01*
X241349557Y-87185519D01*
X241415740Y-87179000D01*
X241504260Y-87179000D01*
X241570443Y-87185519D01*
X241570443Y-87185519D01*
G37*
G36*
X104110443Y-87185519D02*
X104176627Y-87192037D01*
X104289853Y-87226384D01*
X104346467Y-87243557D01*
X104485087Y-87317652D01*
X104502991Y-87327222D01*
X104538729Y-87356552D01*
X104640186Y-87439814D01*
X104723448Y-87541271D01*
X104752778Y-87577009D01*
X104752779Y-87577011D01*
X104836443Y-87733533D01*
X104836443Y-87733534D01*
X104887963Y-87903373D01*
X104905359Y-88080000D01*
X104887963Y-88256627D01*
X104853616Y-88369853D01*
X104836443Y-88426467D01*
X104762348Y-88565087D01*
X104752778Y-88582991D01*
X104723448Y-88618729D01*
X104640186Y-88720186D01*
X104538729Y-88803448D01*
X104502991Y-88832778D01*
X104502989Y-88832779D01*
X104346467Y-88916443D01*
X104289853Y-88933616D01*
X104176627Y-88967963D01*
X104110442Y-88974482D01*
X104044260Y-88981000D01*
X103955740Y-88981000D01*
X103889558Y-88974482D01*
X103823373Y-88967963D01*
X103710147Y-88933616D01*
X103653533Y-88916443D01*
X103497011Y-88832779D01*
X103497009Y-88832778D01*
X103461271Y-88803448D01*
X103359814Y-88720186D01*
X103276552Y-88618729D01*
X103247222Y-88582991D01*
X103237652Y-88565087D01*
X103163557Y-88426467D01*
X103146384Y-88369853D01*
X103112037Y-88256627D01*
X103094641Y-88080000D01*
X103112037Y-87903373D01*
X103163557Y-87733534D01*
X103163557Y-87733533D01*
X103247221Y-87577011D01*
X103247222Y-87577009D01*
X103276552Y-87541271D01*
X103359814Y-87439814D01*
X103461271Y-87356552D01*
X103497009Y-87327222D01*
X103514913Y-87317652D01*
X103653533Y-87243557D01*
X103710147Y-87226384D01*
X103823373Y-87192037D01*
X103889557Y-87185519D01*
X103955740Y-87179000D01*
X104044260Y-87179000D01*
X104110443Y-87185519D01*
X104110443Y-87185519D01*
G37*
G36*
X241570442Y-84645518D02*
X241636627Y-84652037D01*
X241749853Y-84686384D01*
X241806467Y-84703557D01*
X241945087Y-84777652D01*
X241962991Y-84787222D01*
X241998729Y-84816552D01*
X242100186Y-84899814D01*
X242183448Y-85001271D01*
X242212778Y-85037009D01*
X242212779Y-85037011D01*
X242296443Y-85193533D01*
X242296443Y-85193534D01*
X242347963Y-85363373D01*
X242365359Y-85540000D01*
X242347963Y-85716627D01*
X242313616Y-85829853D01*
X242296443Y-85886467D01*
X242222348Y-86025087D01*
X242212778Y-86042991D01*
X242183448Y-86078729D01*
X242100186Y-86180186D01*
X241998729Y-86263448D01*
X241962991Y-86292778D01*
X241962989Y-86292779D01*
X241806467Y-86376443D01*
X241749853Y-86393616D01*
X241636627Y-86427963D01*
X241570442Y-86434482D01*
X241504260Y-86441000D01*
X241415740Y-86441000D01*
X241349557Y-86434481D01*
X241283373Y-86427963D01*
X241170147Y-86393616D01*
X241113533Y-86376443D01*
X240957011Y-86292779D01*
X240957009Y-86292778D01*
X240921271Y-86263448D01*
X240819814Y-86180186D01*
X240736552Y-86078729D01*
X240707222Y-86042991D01*
X240697652Y-86025087D01*
X240623557Y-85886467D01*
X240606384Y-85829853D01*
X240572037Y-85716627D01*
X240554641Y-85540000D01*
X240572037Y-85363373D01*
X240623557Y-85193534D01*
X240623557Y-85193533D01*
X240707221Y-85037011D01*
X240707222Y-85037009D01*
X240736552Y-85001271D01*
X240819814Y-84899814D01*
X240921271Y-84816552D01*
X240957009Y-84787222D01*
X240974913Y-84777652D01*
X241113533Y-84703557D01*
X241170147Y-84686384D01*
X241283373Y-84652037D01*
X241349557Y-84645519D01*
X241415740Y-84639000D01*
X241504260Y-84639000D01*
X241570442Y-84645518D01*
X241570442Y-84645518D01*
G37*
G36*
X244110442Y-84645518D02*
X244176627Y-84652037D01*
X244289853Y-84686384D01*
X244346467Y-84703557D01*
X244485087Y-84777652D01*
X244502991Y-84787222D01*
X244538729Y-84816552D01*
X244640186Y-84899814D01*
X244723448Y-85001271D01*
X244752778Y-85037009D01*
X244752779Y-85037011D01*
X244836443Y-85193533D01*
X244836443Y-85193534D01*
X244887963Y-85363373D01*
X244905359Y-85540000D01*
X244887963Y-85716627D01*
X244853616Y-85829853D01*
X244836443Y-85886467D01*
X244762348Y-86025087D01*
X244752778Y-86042991D01*
X244723448Y-86078729D01*
X244640186Y-86180186D01*
X244538729Y-86263448D01*
X244502991Y-86292778D01*
X244502989Y-86292779D01*
X244346467Y-86376443D01*
X244289853Y-86393616D01*
X244176627Y-86427963D01*
X244110442Y-86434482D01*
X244044260Y-86441000D01*
X243955740Y-86441000D01*
X243889557Y-86434481D01*
X243823373Y-86427963D01*
X243710147Y-86393616D01*
X243653533Y-86376443D01*
X243497011Y-86292779D01*
X243497009Y-86292778D01*
X243461271Y-86263448D01*
X243359814Y-86180186D01*
X243276552Y-86078729D01*
X243247222Y-86042991D01*
X243237652Y-86025087D01*
X243163557Y-85886467D01*
X243146384Y-85829853D01*
X243112037Y-85716627D01*
X243094641Y-85540000D01*
X243112037Y-85363373D01*
X243163557Y-85193534D01*
X243163557Y-85193533D01*
X243247221Y-85037011D01*
X243247222Y-85037009D01*
X243276552Y-85001271D01*
X243359814Y-84899814D01*
X243461271Y-84816552D01*
X243497009Y-84787222D01*
X243514913Y-84777652D01*
X243653533Y-84703557D01*
X243710147Y-84686384D01*
X243823373Y-84652037D01*
X243889557Y-84645519D01*
X243955740Y-84639000D01*
X244044260Y-84639000D01*
X244110442Y-84645518D01*
X244110442Y-84645518D01*
G37*
G36*
X180901000Y-86441000D02*
X179099000Y-86441000D01*
X179099000Y-84639000D01*
X180901000Y-84639000D01*
X180901000Y-86441000D01*
X180901000Y-86441000D01*
G37*
G36*
X104110442Y-84645518D02*
X104176627Y-84652037D01*
X104289853Y-84686384D01*
X104346467Y-84703557D01*
X104485087Y-84777652D01*
X104502991Y-84787222D01*
X104538729Y-84816552D01*
X104640186Y-84899814D01*
X104723448Y-85001271D01*
X104752778Y-85037009D01*
X104752779Y-85037011D01*
X104836443Y-85193533D01*
X104836443Y-85193534D01*
X104887963Y-85363373D01*
X104905359Y-85540000D01*
X104887963Y-85716627D01*
X104853616Y-85829853D01*
X104836443Y-85886467D01*
X104762348Y-86025087D01*
X104752778Y-86042991D01*
X104723448Y-86078729D01*
X104640186Y-86180186D01*
X104538729Y-86263448D01*
X104502991Y-86292778D01*
X104502989Y-86292779D01*
X104346467Y-86376443D01*
X104289853Y-86393616D01*
X104176627Y-86427963D01*
X104110443Y-86434481D01*
X104044260Y-86441000D01*
X103955740Y-86441000D01*
X103889557Y-86434481D01*
X103823373Y-86427963D01*
X103710147Y-86393616D01*
X103653533Y-86376443D01*
X103497011Y-86292779D01*
X103497009Y-86292778D01*
X103461271Y-86263448D01*
X103359814Y-86180186D01*
X103276552Y-86078729D01*
X103247222Y-86042991D01*
X103237652Y-86025087D01*
X103163557Y-85886467D01*
X103146384Y-85829853D01*
X103112037Y-85716627D01*
X103094641Y-85540000D01*
X103112037Y-85363373D01*
X103163557Y-85193534D01*
X103163557Y-85193533D01*
X103247221Y-85037011D01*
X103247222Y-85037009D01*
X103276552Y-85001271D01*
X103359814Y-84899814D01*
X103461271Y-84816552D01*
X103497009Y-84787222D01*
X103514913Y-84777652D01*
X103653533Y-84703557D01*
X103710147Y-84686384D01*
X103823373Y-84652037D01*
X103889558Y-84645518D01*
X103955740Y-84639000D01*
X104044260Y-84639000D01*
X104110442Y-84645518D01*
X104110442Y-84645518D01*
G37*
G36*
X106650442Y-84645518D02*
X106716627Y-84652037D01*
X106829853Y-84686384D01*
X106886467Y-84703557D01*
X107025087Y-84777652D01*
X107042991Y-84787222D01*
X107078729Y-84816552D01*
X107180186Y-84899814D01*
X107263448Y-85001271D01*
X107292778Y-85037009D01*
X107292779Y-85037011D01*
X107376443Y-85193533D01*
X107376443Y-85193534D01*
X107427963Y-85363373D01*
X107445359Y-85540000D01*
X107427963Y-85716627D01*
X107393616Y-85829853D01*
X107376443Y-85886467D01*
X107302348Y-86025087D01*
X107292778Y-86042991D01*
X107263448Y-86078729D01*
X107180186Y-86180186D01*
X107078729Y-86263448D01*
X107042991Y-86292778D01*
X107042989Y-86292779D01*
X106886467Y-86376443D01*
X106829853Y-86393616D01*
X106716627Y-86427963D01*
X106650443Y-86434481D01*
X106584260Y-86441000D01*
X106495740Y-86441000D01*
X106429557Y-86434481D01*
X106363373Y-86427963D01*
X106250147Y-86393616D01*
X106193533Y-86376443D01*
X106037011Y-86292779D01*
X106037009Y-86292778D01*
X106001271Y-86263448D01*
X105899814Y-86180186D01*
X105816552Y-86078729D01*
X105787222Y-86042991D01*
X105777652Y-86025087D01*
X105703557Y-85886467D01*
X105686384Y-85829853D01*
X105652037Y-85716627D01*
X105634641Y-85540000D01*
X105652037Y-85363373D01*
X105703557Y-85193534D01*
X105703557Y-85193533D01*
X105787221Y-85037011D01*
X105787222Y-85037009D01*
X105816552Y-85001271D01*
X105899814Y-84899814D01*
X106001271Y-84816552D01*
X106037009Y-84787222D01*
X106054913Y-84777652D01*
X106193533Y-84703557D01*
X106250147Y-84686384D01*
X106363373Y-84652037D01*
X106429558Y-84645518D01*
X106495740Y-84639000D01*
X106584260Y-84639000D01*
X106650442Y-84645518D01*
X106650442Y-84645518D01*
G37*
G36*
X160901000Y-86441000D02*
X159099000Y-86441000D01*
X159099000Y-84639000D01*
X160901000Y-84639000D01*
X160901000Y-86441000D01*
X160901000Y-86441000D01*
G37*
G36*
X104110442Y-82105518D02*
X104176627Y-82112037D01*
X104289853Y-82146384D01*
X104346467Y-82163557D01*
X104485087Y-82237652D01*
X104502991Y-82247222D01*
X104538729Y-82276552D01*
X104640186Y-82359814D01*
X104723448Y-82461271D01*
X104752778Y-82497009D01*
X104752779Y-82497011D01*
X104836443Y-82653533D01*
X104836443Y-82653534D01*
X104887963Y-82823373D01*
X104905359Y-83000000D01*
X104887963Y-83176627D01*
X104853616Y-83289853D01*
X104836443Y-83346467D01*
X104762348Y-83485087D01*
X104752778Y-83502991D01*
X104723448Y-83538729D01*
X104640186Y-83640186D01*
X104538729Y-83723448D01*
X104502991Y-83752778D01*
X104502989Y-83752779D01*
X104346467Y-83836443D01*
X104289853Y-83853616D01*
X104176627Y-83887963D01*
X104110442Y-83894482D01*
X104044260Y-83901000D01*
X103955740Y-83901000D01*
X103889558Y-83894482D01*
X103823373Y-83887963D01*
X103710147Y-83853616D01*
X103653533Y-83836443D01*
X103497011Y-83752779D01*
X103497009Y-83752778D01*
X103461271Y-83723448D01*
X103359814Y-83640186D01*
X103276552Y-83538729D01*
X103247222Y-83502991D01*
X103237652Y-83485087D01*
X103163557Y-83346467D01*
X103146384Y-83289853D01*
X103112037Y-83176627D01*
X103094641Y-83000000D01*
X103112037Y-82823373D01*
X103163557Y-82653534D01*
X103163557Y-82653533D01*
X103247221Y-82497011D01*
X103247222Y-82497009D01*
X103276552Y-82461271D01*
X103359814Y-82359814D01*
X103461271Y-82276552D01*
X103497009Y-82247222D01*
X103514913Y-82237652D01*
X103653533Y-82163557D01*
X103710147Y-82146384D01*
X103823373Y-82112037D01*
X103889558Y-82105518D01*
X103955740Y-82099000D01*
X104044260Y-82099000D01*
X104110442Y-82105518D01*
X104110442Y-82105518D01*
G37*
G36*
X244110442Y-82105518D02*
X244176627Y-82112037D01*
X244289853Y-82146384D01*
X244346467Y-82163557D01*
X244485087Y-82237652D01*
X244502991Y-82247222D01*
X244538729Y-82276552D01*
X244640186Y-82359814D01*
X244723448Y-82461271D01*
X244752778Y-82497009D01*
X244752779Y-82497011D01*
X244836443Y-82653533D01*
X244836443Y-82653534D01*
X244887963Y-82823373D01*
X244905359Y-83000000D01*
X244887963Y-83176627D01*
X244853616Y-83289853D01*
X244836443Y-83346467D01*
X244762348Y-83485087D01*
X244752778Y-83502991D01*
X244723448Y-83538729D01*
X244640186Y-83640186D01*
X244538729Y-83723448D01*
X244502991Y-83752778D01*
X244502989Y-83752779D01*
X244346467Y-83836443D01*
X244289853Y-83853616D01*
X244176627Y-83887963D01*
X244110442Y-83894482D01*
X244044260Y-83901000D01*
X243955740Y-83901000D01*
X243889558Y-83894482D01*
X243823373Y-83887963D01*
X243710147Y-83853616D01*
X243653533Y-83836443D01*
X243497011Y-83752779D01*
X243497009Y-83752778D01*
X243461271Y-83723448D01*
X243359814Y-83640186D01*
X243276552Y-83538729D01*
X243247222Y-83502991D01*
X243237652Y-83485087D01*
X243163557Y-83346467D01*
X243146384Y-83289853D01*
X243112037Y-83176627D01*
X243094641Y-83000000D01*
X243112037Y-82823373D01*
X243163557Y-82653534D01*
X243163557Y-82653533D01*
X243247221Y-82497011D01*
X243247222Y-82497009D01*
X243276552Y-82461271D01*
X243359814Y-82359814D01*
X243461271Y-82276552D01*
X243497009Y-82247222D01*
X243514913Y-82237652D01*
X243653533Y-82163557D01*
X243710147Y-82146384D01*
X243823373Y-82112037D01*
X243889557Y-82105519D01*
X243955740Y-82099000D01*
X244044260Y-82099000D01*
X244110442Y-82105518D01*
X244110442Y-82105518D01*
G37*
G36*
X241570442Y-82105518D02*
X241636627Y-82112037D01*
X241749853Y-82146384D01*
X241806467Y-82163557D01*
X241945087Y-82237652D01*
X241962991Y-82247222D01*
X241998729Y-82276552D01*
X242100186Y-82359814D01*
X242183448Y-82461271D01*
X242212778Y-82497009D01*
X242212779Y-82497011D01*
X242296443Y-82653533D01*
X242296443Y-82653534D01*
X242347963Y-82823373D01*
X242365359Y-83000000D01*
X242347963Y-83176627D01*
X242313616Y-83289853D01*
X242296443Y-83346467D01*
X242222348Y-83485087D01*
X242212778Y-83502991D01*
X242183448Y-83538729D01*
X242100186Y-83640186D01*
X241998729Y-83723448D01*
X241962991Y-83752778D01*
X241962989Y-83752779D01*
X241806467Y-83836443D01*
X241749853Y-83853616D01*
X241636627Y-83887963D01*
X241570442Y-83894482D01*
X241504260Y-83901000D01*
X241415740Y-83901000D01*
X241349558Y-83894482D01*
X241283373Y-83887963D01*
X241170147Y-83853616D01*
X241113533Y-83836443D01*
X240957011Y-83752779D01*
X240957009Y-83752778D01*
X240921271Y-83723448D01*
X240819814Y-83640186D01*
X240736552Y-83538729D01*
X240707222Y-83502991D01*
X240697652Y-83485087D01*
X240623557Y-83346467D01*
X240606384Y-83289853D01*
X240572037Y-83176627D01*
X240554641Y-83000000D01*
X240572037Y-82823373D01*
X240623557Y-82653534D01*
X240623557Y-82653533D01*
X240707221Y-82497011D01*
X240707222Y-82497009D01*
X240736552Y-82461271D01*
X240819814Y-82359814D01*
X240921271Y-82276552D01*
X240957009Y-82247222D01*
X240974913Y-82237652D01*
X241113533Y-82163557D01*
X241170147Y-82146384D01*
X241283373Y-82112037D01*
X241349557Y-82105519D01*
X241415740Y-82099000D01*
X241504260Y-82099000D01*
X241570442Y-82105518D01*
X241570442Y-82105518D01*
G37*
G36*
X180901000Y-83901000D02*
X179099000Y-83901000D01*
X179099000Y-82099000D01*
X180901000Y-82099000D01*
X180901000Y-83901000D01*
X180901000Y-83901000D01*
G37*
G36*
X160901000Y-83901000D02*
X159099000Y-83901000D01*
X159099000Y-82099000D01*
X160901000Y-82099000D01*
X160901000Y-83901000D01*
X160901000Y-83901000D01*
G37*
G36*
X106650442Y-82105518D02*
X106716627Y-82112037D01*
X106829853Y-82146384D01*
X106886467Y-82163557D01*
X107025087Y-82237652D01*
X107042991Y-82247222D01*
X107078729Y-82276552D01*
X107180186Y-82359814D01*
X107263448Y-82461271D01*
X107292778Y-82497009D01*
X107292779Y-82497011D01*
X107376443Y-82653533D01*
X107376443Y-82653534D01*
X107427963Y-82823373D01*
X107445359Y-83000000D01*
X107427963Y-83176627D01*
X107393616Y-83289853D01*
X107376443Y-83346467D01*
X107302348Y-83485087D01*
X107292778Y-83502991D01*
X107263448Y-83538729D01*
X107180186Y-83640186D01*
X107078729Y-83723448D01*
X107042991Y-83752778D01*
X107042989Y-83752779D01*
X106886467Y-83836443D01*
X106829853Y-83853616D01*
X106716627Y-83887963D01*
X106650442Y-83894482D01*
X106584260Y-83901000D01*
X106495740Y-83901000D01*
X106429558Y-83894482D01*
X106363373Y-83887963D01*
X106250147Y-83853616D01*
X106193533Y-83836443D01*
X106037011Y-83752779D01*
X106037009Y-83752778D01*
X106001271Y-83723448D01*
X105899814Y-83640186D01*
X105816552Y-83538729D01*
X105787222Y-83502991D01*
X105777652Y-83485087D01*
X105703557Y-83346467D01*
X105686384Y-83289853D01*
X105652037Y-83176627D01*
X105634641Y-83000000D01*
X105652037Y-82823373D01*
X105703557Y-82653534D01*
X105703557Y-82653533D01*
X105787221Y-82497011D01*
X105787222Y-82497009D01*
X105816552Y-82461271D01*
X105899814Y-82359814D01*
X106001271Y-82276552D01*
X106037009Y-82247222D01*
X106054913Y-82237652D01*
X106193533Y-82163557D01*
X106250147Y-82146384D01*
X106363373Y-82112037D01*
X106429558Y-82105518D01*
X106495740Y-82099000D01*
X106584260Y-82099000D01*
X106650442Y-82105518D01*
X106650442Y-82105518D01*
G37*
M02*
